<svg xmlns="http://www.w3.org/2000/svg" xmlns:xlink="http://www.w3.org/1999/xlink" width="270" height="153" viewBox="0 0 270 153">
  <defs>
    <clipPath id="clip-path">
      <rect id="Mask" width="237" height="130" transform="translate(236.711 -188.258)" fill="#fff" opacity="0.35"/>
    </clipPath>
  </defs>
  <g id="Chart" transform="translate(-1458 -281)">
    <g id="Numbers" opacity="0.75">
      <text id="Hours_Hr" transform="translate(1696 432)" fill="#758ca3" font-size="12" font-family="BarlowCondensed-Medium, Barlow" font-weight="500"><tspan x="-226.848" y="0" xml:space="preserve">2015              2016              2017              2018              2019</tspan></text>
      <text id="Numbers_Vr" transform="translate(1699 311)" fill="#758ca3" font-size="12" font-family="BarlowCondensed-Medium, Barlow" font-weight="500"><tspan x="0" y="0">24.42K</tspan><tspan x="0" y="30">21.32K</tspan><tspan x="0" y="60">18.23K</tspan></text>
    </g>
    <g id="Seperator" transform="translate(-0.5)" opacity="0.3">
      <line id="Line_Vr" y2="7" transform="translate(1687 412)" fill="none" stroke="#758ca3" stroke-width="1"/>
      <line id="Line_Vr-2" data-name="Line_Vr" y2="7" transform="translate(1635 412)" fill="none" stroke="#758ca3" stroke-width="1"/>
      <line id="Line_Vr-3" data-name="Line_Vr" y2="7" transform="translate(1583 412)" fill="none" stroke="#758ca3" stroke-width="1"/>
      <line id="Line_Vr-4" data-name="Line_Vr" y2="7" transform="translate(1531 412)" fill="none" stroke="#758ca3" stroke-width="1"/>
      <line id="Line_Vr-5" data-name="Line_Vr" y2="7" transform="translate(1479 412)" fill="none" stroke="#758ca3" stroke-width="1"/>
      <line id="Line_Hr" x2="237" transform="translate(1458.5 411.5)" fill="none" stroke="#758ca3" stroke-width="1"/>
    </g>
    <g id="Bar_Chart" transform="translate(197 -4)">
      <rect id="Rectangle" width="5" height="8" transform="translate(1263 406)" fill="#758ca3"/>
      <rect id="Rectangle-2" data-name="Rectangle" width="5" height="8" transform="translate(1269 406)" fill="#758ca3"/>
      <rect id="Rectangle-3" data-name="Rectangle" width="5" height="14" transform="translate(1275 400)" fill="#758ca3"/>
      <rect id="Rectangle-4" data-name="Rectangle" width="5" height="12" transform="translate(1281 402)" fill="#758ca3"/>
      <rect id="Rectangle-5" data-name="Rectangle" width="5" height="6" transform="translate(1287 408)" fill="#758ca3"/>
      <rect id="Rectangle-6" data-name="Rectangle" width="5" height="25" transform="translate(1293 389)" fill="#758ca3"/>
      <rect id="Rectangle-7" data-name="Rectangle" width="5" height="6.818" transform="translate(1299 407.182)" fill="#758ca3"/>
      <rect id="Rectangle-8" data-name="Rectangle" width="5" height="15.438" transform="translate(1305 398.563)" fill="#758ca3"/>
      <rect id="Rectangle-9" data-name="Rectangle" width="5" height="2.375" transform="translate(1311 411.625)" fill="#758ca3"/>
      <rect id="Rectangle-10" data-name="Rectangle" width="5" height="8.313" transform="translate(1317 405.688)" fill="#758ca3"/>
      <rect id="Rectangle-11" data-name="Rectangle" width="5" height="19" transform="translate(1323 395)" fill="#758ca3"/>
      <rect id="Rectangle-12" data-name="Rectangle" width="5" height="15.438" transform="translate(1329 398.563)" fill="#758ca3"/>
      <rect id="Rectangle-13" data-name="Rectangle" width="5" height="4.48" transform="translate(1335 409.52)" fill="#758ca3"/>
      <rect id="Rectangle-14" data-name="Rectangle" width="5" height="10.08" transform="translate(1341 403.92)" fill="#758ca3"/>
      <rect id="Rectangle-15" data-name="Rectangle" width="5" height="6.72" transform="translate(1347 407.28)" fill="#758ca3"/>
      <rect id="Rectangle-16" data-name="Rectangle" width="5" height="20.16" transform="translate(1353 393.84)" fill="#758ca3"/>
      <rect id="Rectangle-17" data-name="Rectangle" width="5" height="10.08" transform="translate(1359 403.92)" fill="#758ca3"/>
      <rect id="Rectangle-18" data-name="Rectangle" width="5" height="2.24" transform="translate(1365 411.76)" fill="#758ca3"/>
      <rect id="Rectangle-19" data-name="Rectangle" width="5" height="3.36" transform="translate(1371 410.64)" fill="#758ca3"/>
      <rect id="Rectangle-20" data-name="Rectangle" width="5" height="6.72" transform="translate(1377 407.28)" fill="#758ca3"/>
      <rect id="Rectangle-21" data-name="Rectangle" width="5" height="16.8" transform="translate(1383 397.2)" fill="#758ca3"/>
      <rect id="Rectangle-22" data-name="Rectangle" width="5" height="28" transform="translate(1389 386)" fill="#758ca3"/>
      <rect id="Rectangle-23" data-name="Rectangle" width="5" height="19.8" transform="translate(1395 394.2)" fill="#758ca3"/>
      <rect id="Rectangle-24" data-name="Rectangle" width="5" height="33" transform="translate(1401 381)" fill="#758ca3"/>
      <rect id="Rectangle-25" data-name="Rectangle" width="5" height="11" transform="translate(1407 403)" fill="#758ca3"/>
      <rect id="Rectangle-26" data-name="Rectangle" width="5" height="4.4" transform="translate(1413 409.6)" fill="#758ca3"/>
      <rect id="Rectangle-27" data-name="Rectangle" width="5" height="14.3" transform="translate(1419 399.7)" fill="#758ca3"/>
      <rect id="Rectangle-28" data-name="Rectangle" width="5" height="7.7" transform="translate(1425 406.3)" fill="#758ca3"/>
      <rect id="Rectangle-29" data-name="Rectangle" width="5" height="5.5" transform="translate(1431 408.5)" fill="#758ca3"/>
      <rect id="Rectangle-30" data-name="Rectangle" width="5" height="2.2" transform="translate(1437 411.8)" fill="#758ca3"/>
      <rect id="Rectangle-31" data-name="Rectangle" width="5" height="16.5" transform="translate(1443 397.5)" fill="#758ca3"/>
      <rect id="Rectangle-32" data-name="Rectangle" width="5" height="12.1" transform="translate(1449 401.9)" fill="#758ca3"/>
      <rect id="Rectangle-33" data-name="Rectangle" width="5" height="25" transform="translate(1455 389)" fill="#758ca3"/>
      <rect id="Rectangle-34" data-name="Rectangle" width="5" height="19.318" transform="translate(1461 394.682)" fill="#758ca3"/>
      <rect id="Rectangle-35" data-name="Rectangle" width="5" height="9.091" transform="translate(1467 404.909)" fill="#758ca3"/>
      <rect id="Rectangle-36" data-name="Rectangle" width="5" height="6.818" transform="translate(1473 407.182)" fill="#758ca3"/>
      <rect id="Rectangle-37" data-name="Rectangle" width="5" height="14.773" transform="translate(1479 399.227)" fill="#758ca3"/>
      <rect id="Rectangle-38" data-name="Rectangle" width="5" height="6.818" transform="translate(1485 407.182)" fill="#758ca3"/>
      <rect id="Rectangle-39" data-name="Rectangle" width="5" height="18.182" transform="translate(1491 395.818)" fill="#758ca3"/>
    </g>
    <g id="Chart_Graph" transform="translate(1221.289 469.258)" clip-path="url(#clip-path)">
      <g id="Chart-2" data-name="Chart" transform="translate(36.711 -217.257)">
        <path id="Gradient" d="M805.685,736.726h-1.664l-1.456,11.431-2.081-8.422L798.2,749.06l-2.7-7.521s-1.041.6-2.082,4.814a7.874,7.874,0,0,1-4.991,5.415l-2.912-15.944-1.456,3.307-2.289-2.1h-2.495l-1.457,5.716-2.912-.6-1.04-1.2-1.874,2.108-2.079-6.619-3.745,8.424-1.456-1.505-1.455-6.919-2.081,2.106-2.081-5.416-3.12,1.805-3.12-21.06-2.913,5.116-2.081-1.2-2.081-3.912-1.665,4.514-3.328-10.53-.416,1.805-2.288-5.416s-1.249-6.618-2.08-6.919S731,686.484,731,686.484l-2.079,19.555-2.289-4.812-1.248,3.307-2.705-7.521-2.5,20.458-2.5-17.751-2.079,11.433h-1.665l-2.079-7.823-1.457,2.406-2.288-7.52H705l-2.912-6.334-3.746-5.718h-2.287l-1.456,3.611-1.873,8.123-3.744-15.043-2.289.3-1.039,4.214-1.665-9.628-2.289,9.326s-3.328,7.84-3.12,4.832-2.7-7.22-2.7-7.22l-2.081-46.03L671.506,657.6l-.832,9.629-1.664-30.086-2.5,18.051-1.455-11.432-4.368,11.131s-1.665,16.847-3.537,22.262l-2.08-14.139-.624,1.5-5.41-18.352-.831,6.619-2.288-6.016-1.664,2.4-1.249-3.309-1.455-1.2-2.289-8.724-1.872-.9-3.537-3.911-1.247,10.229-3.953,22.265-1.664-3.311-1.664,6.621-3.954-25.274-4.16,19.255-1.456-15.043-1.873,9.026-1.454,3.008-4.37-15.041h-2.079L603.9,655.8h-2.912l-1.872-5.416-1.249,4.813-3.536-6.018-2.08,9.929-3.12,1.5-1.456-10.529-3.121,12.636-3.328-11.734-1.456,1.2L576.852,693.4l-3.952-21.06L571.653,691.6l-2.705-12.335-.831,18.05s-2.289-4.812-2.289-3.91-2.7-.3-2.7-.3l-2.7-6.319-4.785-3.609-2.079.6-.625,15.644-4.577-15.044-.624,5.116-4.785-1.8-.624-9.929-1.456,2.407-3.121-4.814-2.079-13.839-1.873,12.035-1.873-6.921-2.912,14.743h-1.664l-3.12-6.621-2.913.9L518.4,658.2l-1.04,26.173-3.329,1.505-2.081-13.839-2.288,12.033L508.2,691.9l-1.873-5.416-3.744-1.8-3.12-9.626-2.912-29.786L493.642,655.5l-3.329-2.707H488.44v1.5l-2.079-6.017L484.28,657.3l-3.744,14.743-2.705-8.724-1.039,6.919-2.7-1.2-1.665-4.213v6.619l-1.247,12.634-2.5-9.626-2.08,3.308-2.913-6.919-1.247,11.433-2.7,4.211-2.289,12.035-2.079,4.512-1.25-14.742-2.079,10.531-4.16-13.841-2.7,3.31-1.873.3-3.328-11.132-2.08,6.319-3.12-9.628L432.9,686.482l-.833-5.112-2.079,3.006L427.7,673.547l-2.5,8.424-3.33,3.006-3.12-8.423-1.041,6.921-2.7.6-1.457-7.822-5.616-3.911-1.872,3.008-2.079-4.211-2.081-.3-3.952-8.122h-3.12l-1.457-8.724s-1.664,8.122-1.664,9.326-1.456-6.618-1.456-6.618l-1.664,12.032-2.913-8.424-5.2-2.106-2.081,12.636-1.663-6.919L373.4,671.14l-2.7-18.653-1.665,9.025-1.664.9-1.664-7.22-3.12-1.2-.21,4.812-3.951-1.5-1.041-4.511-1.873,4.813-3.536-9.026-2.912,1.807-2.287-.6-2.289,8.424-2.08-7.521L340.739,657l-2.7-11.13h-2.5l-1.665,13.839-2.288-5.415-2.5-.6-1.456-4.515-1.455-6.617-2.5-.6-2.08,13.238-2.08-6.319-1.457,3.611-2.288,7.821s-.208-14.139-1.04-12.334a62.1,62.1,0,0,0-2.08,7.821s-1.666-9.326-1.873-8.122-1.663,9.026-1.663,9.026l-1.666-15.345L303.71,656.4l-3.951-4.212-2.081,2.407-3.953-2.709-1.872.6-4.368-28.281-2.5,8.725-7.905-24.669-1.248,5.715-1.664-8.122-3.329-6.017-2.7-6.619-.623,13.538s-2.913-11.132-3.537-11.132-1.664,7.222-1.664,7.222l-3.328,1.8-1.874,6.017-3.328,8.424-3.536-2.406L249,607.359l-3.953,10.83-1.664,2.708-2.5-9.927-1.456,6.919-3.953-3.31-3.119-.6-2.706-9.928-3.536,14.14-2.5-10.529-.832,6.318-4.16-10.529-2.5,8.425-2.7-1.2-3.121,2.708-3.328-3.309V857.65h598.8Z" transform="translate(-206.331 -592.907)" fill="#758ca3" opacity="0.15"/>
        <path id="Line" d="M787.8,753.229a.444.444,0,0,0,.129-.019,8.571,8.571,0,0,0,5.468-6.029,14.838,14.838,0,0,1,1.286-3.636l2.324,6.466c.12.335.365.534.614.507a.749.749,0,0,0,.56-.632l1.684-6.863,1.473,5.962c.1.408.368.658.66.63s.526-.357.581-.784l1.356-10.644h1.129c.357,0,.646-.434.646-.969s-.289-.97-.646-.97H803.4c-.31,0-.577.33-.634.788l-1.021,8.015-1.276-5.162c-.094-.38-.336-.632-.606-.632h0c-.27,0-.512.254-.606.635l-1.794,7.309-2.023-5.629c-.154-.43-.5-.622-.8-.444-.219.127-1.368.981-2.455,5.381a7,7,0,0,1-3.932,4.566L785.51,736.06a.823.823,0,0,0-.522-.7c-.249-.06-.5.106-.641.423l-1.112,2.526-1.756-1.615a.5.5,0,0,0-.338-.143h-2.5c-.268,0-.508.248-.6.623l-1.274,5-2.233-.462-.9-1.046a.487.487,0,0,0-.783-.009l-1.239,1.394-1.742-5.543a.714.714,0,0,0-.537-.553.609.609,0,0,0-.585.429l-3.381,7.6-.733-.758-1.389-6.6a.9.9,0,0,0-.4-.624.474.474,0,0,0-.574.112l-1.506,1.525-1.735-4.515c-.159-.414-.5-.591-.792-.421l-2.42,1.4-2.957-19.961a.886.886,0,0,0-.474-.73.535.535,0,0,0-.648.311l-2.615,4.594-1.491-.862-1.971-3.707a.584.584,0,0,0-.559-.362.694.694,0,0,0-.511.5l-1.055,2.861-2.789-8.824c-.112-.356-.361-.568-.619-.553a.712.712,0,0,0-.551.561l-1.522-3.6c-.861-4.524-1.685-7.021-2.452-7.43-.586-.63-2.861-5.859-4.662-10.414-.139-.351-.409-.534-.677-.458a.883.883,0,0,0-.517.8l-1.831,17.219-1.373-2.886a.608.608,0,0,0-.56-.406.678.678,0,0,0-.529.49l-.672,1.781-2.15-5.977c-.13-.362-.4-.563-.67-.5a.859.859,0,0,0-.535.782l-1.905,15.618L717.7,700.013c-.061-.438-.315-.756-.614-.769s-.564.282-.642.714L714.5,710.677h-.734l-1.917-7.212a.784.784,0,0,0-.485-.595.541.541,0,0,0-.594.3l-.8,1.318-1.881-6.182c-.105-.345-.335-.567-.588-.567h-2.782L702,691.826a1,1,0,0,0-.071-.13l-3.746-5.718a.566.566,0,0,0-.461-.29h-2.287a.648.648,0,0,0-.553.467l-1.456,3.611a1.242,1.242,0,0,0-.058.185l-1.285,5.575-3.115-12.518c-.1-.408-.375-.664-.662-.626l-2.289.3a.756.756,0,0,0-.55.629l-.324,1.315-1.147-6.637c-.071-.41-.311-.7-.593-.725s-.541.235-.638.633l-2.265,9.228c-.627,1.471-1.388,3.087-1.936,4.088a17.246,17.246,0,0,0-2.677-6.472l-2.065-45.666c-.022-.488-.283-.875-.609-.9s-.613.314-.672.795L670.25,657.92l-.055.635-1.161-21c-.027-.48-.284-.858-.6-.887s-.607.3-.672.77l-1.839,13.288-.847-6.654a.862.862,0,0,0-.524-.773c-.265-.07-.531.115-.667.463l-4.368,11.131a1.309,1.309,0,0,0-.082.349c-.015.144-1.234,12.373-2.718,19.133L655.083,663.3a.851.851,0,0,0-.522-.746.573.573,0,0,0-.636.394l-4.916-16.679c-.115-.387-.385-.62-.665-.57a.838.838,0,0,0-.561.784l-.506,4.028-1.417-3.726a.712.712,0,0,0-.469-.48.53.53,0,0,0-.54.262l-1.063,1.537-.838-2.22a.872.872,0,0,0-.25-.372l-1.251-1.035-2.2-8.4a.848.848,0,0,0-.4-.567l-1.772-.855-3.452-3.817a.476.476,0,0,0-.621-.121.973.973,0,0,0-.4.727l-1.242,10.191-3.605,20.3-.865-1.722a.576.576,0,0,0-.608-.376.777.777,0,0,0-.513.618l-.915,3.641-3.469-22.174c-.067-.423-.312-.729-.6-.746s-.551.255-.641.669l-3.3,15.3-1.057-10.924c-.043-.448-.288-.792-.589-.827s-.578.246-.668.679l-1.841,8.873-.729,1.507-3.918-13.487c-.1-.353-.335-.581-.593-.581h-2.079c-.3,0-.558.306-.628.741l-1.962,12.195h-2.01l-1.691-4.893a.663.663,0,0,0-.609-.522.735.735,0,0,0-.567.617l-.864,3.329-2.834-4.823a.539.539,0,0,0-.619-.307.83.83,0,0,0-.483.658l-1.98,9.45-2.117,1.021-1.31-9.474c-.059-.423-.3-.737-.584-.77s-.554.225-.655.63l-2.556,10.35L581.2,651.1a.844.844,0,0,0-.384-.536.456.456,0,0,0-.523.067l-1.456,1.2a1.07,1.07,0,0,0-.331.747l-2.559,36.205L572.9,672.574c-.084-.448-.368-.742-.679-.7s-.556.408-.586.872l-.951,14.669-1.745-7.959c-.1-.441-.389-.716-.694-.658a.889.889,0,0,0-.564.895l-.711,15.423c-1.315-2.543-1.583-2.413-1.93-2.249a.785.785,0,0,0-.358.4,6.342,6.342,0,0,1-1.77-.5l-2.572-6.012a.844.844,0,0,0-.254-.342L555.3,682.8a.459.459,0,0,0-.412-.086l-2.079.6a.926.926,0,0,0-.523.893l-.471,11.758-3.5-11.5c-.117-.385-.391-.608-.667-.56a.844.844,0,0,0-.556.788l-.5,4.1-3.673-1.386-.582-9.247a.98.98,0,0,0-.439-.828.517.517,0,0,0-.683.269l-.994,1.643-2.514-3.879-2.039-13.572c-.066-.441-.326-.755-.628-.756h0c-.3,0-.561.31-.63.748L533,670.847l-1.107-4.093c-.1-.381-.358-.624-.63-.6s-.51.3-.588.692L527.9,680.893h-.847l-2.927-6.211c-.148-.315-.408-.468-.659-.39l-2.306.715L518.4,658.46c-.077-.465-.37-.781-.687-.73s-.566.43-.585.907l-1.013,25.5-2.233,1.009-1.928-12.824c-.065-.432-.317-.743-.613-.756h-.018c-.287,0-.542.286-.621.7l-3.3,17.492-1.118-3.232a.8.8,0,0,0-.376-.477l-3.482-1.678-2.955-9.118-2.9-29.638a.862.862,0,0,0-.557-.821c-.284-.051-.564.182-.677.581l-2.633,9.251-2.706-2.2a.485.485,0,0,0-.308-.117H487.82a.444.444,0,0,0-.121.016l-1.385-4.008c-.119-.343-.358-.553-.62-.52a.757.757,0,0,0-.564.65l-2.081,9.025-3.193,12.569L477.8,663.4c-.116-.375-.384-.6-.655-.555a.819.819,0,0,0-.561.751l-.888,5.909-1.8-.8-1.535-3.886c-.149-.376-.445-.557-.727-.44a.99.99,0,0,0-.475.935v6.548l-.883,8.945-1.613-6.217a.792.792,0,0,0-.478-.6.531.531,0,0,0-.594.286l-1.508,2.4-2.468-5.862c-.143-.341-.413-.512-.675-.433a.888.888,0,0,0-.509.794l-1.215,11.135-2.565,3.993a1.148,1.148,0,0,0-.156.406l-2.26,11.881-1.059,2.3-1.037-12.23c-.039-.455-.284-.807-.589-.844s-.585.251-.672.691l-1.585,8.03-3.446-11.463a.788.788,0,0,0-.441-.545.5.5,0,0,0-.557.192l-2.556,3.128-1.215.2-3.136-10.489c-.1-.343-.328-.566-.578-.573a.685.685,0,0,0-.591.54l-1.5,4.545-2.544-7.848c-.12-.371-.386-.589-.655-.539a.82.82,0,0,0-.556.748l-1.265,8.331-.183-1.124a.9.9,0,0,0-.448-.7.506.506,0,0,0-.628.233l-1.33,1.922-1.974-9.339c-.081-.384-.312-.653-.58-.675a.7.7,0,0,0-.626.574l-2.413,8.145-2.583,2.331-2.795-7.545c-.13-.351-.391-.545-.657-.489a.835.835,0,0,0-.539.746l-.943,6.273-1.7.377-1.3-7a.96.96,0,0,0-.35-.618l-5.616-3.911a.506.506,0,0,0-.744.217l-1.343,2.157-1.618-3.275a.645.645,0,0,0-.456-.388l-1.793-.26-3.781-7.771a.616.616,0,0,0-.522-.4h-2.616l-1.335-7.99c-.07-.423-.32-.723-.609-.735h-.017c-.283,0-.534.277-.617.685-.238,1.159-.8,3.92-1.207,6.221-.216-1.078-.455-2.315-.673-3.489-.081-.431-.353-.726-.644-.708s-.55.334-.611.772l-1.295,9.362-2.076-6a.785.785,0,0,0-.405-.49l-5.2-2.106a.465.465,0,0,0-.5.1,1.028,1.028,0,0,0-.3.6l-1.57,9.53-.94-3.91a.777.777,0,0,0-.524-.633.594.594,0,0,0-.615.41l-2.482,5.385-2.387-16.471c-.063-.436-.317-.751-.614-.763-.293-.035-.561.28-.64.71l-1.577,8.542-.733.4-1.449-6.291a.841.841,0,0,0-.45-.623l-3.121-1.2a.481.481,0,0,0-.54.154,1.149,1.149,0,0,0-.266.721l-.159,3.649-2.86-1.089-.926-4.017a.769.769,0,0,0-.548-.649c-.249-.036-.494.149-.621.477l-1.316,3.383-2.978-7.6c-.163-.417-.506-.589-.8-.4l-2.739,1.7-2.1-.554c-.3-.081-.6.166-.71.588l-1.7,6.241-1.478-5.343c-.1-.366-.337-.614-.6-.6s-.5.246-.6.612l-1.04,3.943-2.121-8.733c-.093-.383-.335-.637-.607-.637h-2.5c-.312,0-.58.335-.636.8l-1.371,11.393-1.4-3.315a.7.7,0,0,0-.443-.438l-2.164-.521-1.291-4-1.442-6.556a.8.8,0,0,0-.511-.653l-2.5-.6c-.333-.082-.654.239-.732.734l-1.668,10.613-1.284-3.9a.694.694,0,0,0-.551-.54.637.637,0,0,0-.581.466l-1.457,3.611q-.022.055-.038.112l-1.144,3.909c-.264-8.676-.839-8.935-1.237-9.113-.259-.118-.626-.037-.887.53a34.451,34.451,0,0,0-1.489,5.053c-1.122-5.884-1.434-5.872-1.882-5.878-.246,0-.57.221-.676.834-.1.575-.493,2.713-.872,4.761l-1.193-10.994a.84.84,0,0,0-.574-.809c-.29-.044-.566.214-.669.626l-3.45,13.862-3.266-3.482a.485.485,0,0,0-.769.023l-1.773,2.05-3.6-2.466a.448.448,0,0,0-.4-.066l-1.251.4-4.225-27.352a.808.808,0,0,0-.572-.747c-.274-.041-.541.2-.651.583l-1.935,6.766-7.29-22.747c-.115-.357-.368-.57-.625-.547a.762.762,0,0,0-.571.666l-.614,2.813-1.066-5.2a1.184,1.184,0,0,0-.12-.334l-3.3-5.964-2.681-6.56c-.146-.359-.43-.536-.7-.435a.948.948,0,0,0-.491.875l-.43,9.333c-2.173-7.831-2.693-7.831-3.086-7.831-.446,0-1.114,0-2.219,7.462l-2.993,1.622a.839.839,0,0,0-.366.5l-1.86,5.973-3.018,7.637L250.2,616.5l-1.182-8.841a.85.85,0,0,0-.536-.767c-.27-.062-.534.136-.664.493L243.9,618.113l-.9,1.464-2.127-8.457c-.1-.387-.352-.641-.623-.627s-.516.284-.6.677l-1.217,5.784-3.261-2.73a.52.52,0,0,0-.233-.116l-2.746-.529-2.563-9.406c-.1-.369-.341-.616-.608-.6s-.5.255-.6.629l-2.916,11.656-1.9-8.029c-.1-.412-.356-.674-.656-.642s-.53.35-.586.779l-.5,3.829-3.3-8.348a.63.63,0,0,0-.594-.473.717.717,0,0,0-.553.574l-2.266,7.647-2.161-.962a.462.462,0,0,0-.507.09l-2.774,2.407-2.994-2.977c-.3-.3-.7-.174-.895.272a1.293,1.293,0,0,0,.182,1.344l3.328,3.309a.47.47,0,0,0,.68.031l2.88-2.5,2.438,1.085c.312.137.643-.091.774-.536l1.988-6.709,3.522,8.915c.136.345.4.53.666.461a.857.857,0,0,0,.524-.767l.377-2.86,1.71,7.209c.091.383.332.641.6.645h.005c.27,0,.51-.25.605-.629l2.957-11.824,2.082,7.639a.758.758,0,0,0,.515.595l3,.578,3.844,3.218a.456.456,0,0,0,.553.055.913.913,0,0,0,.378-.608l.894-4.249,1.838,7.308a.8.8,0,0,0,.482.608.53.53,0,0,0,.6-.294l1.664-2.707a1.077,1.077,0,0,0,.091-.192l3.1-8.5.9,6.719a.99.99,0,0,0,.366.693l3.536,2.406c.3.205.656.037.823-.389l3.329-8.424c.011-.027.021-.055.029-.084l1.76-5.653,3.076-1.667a.941.941,0,0,0,.412-.707c.305-2.118.746-4.547,1.073-5.817.664,1.79,1.9,6.086,2.895,9.876.111.422.4.672.7.6a.9.9,0,0,0,.547-.891l.484-10.513,1.648,4.033a1.246,1.246,0,0,0,.053.113l3.246,5.868,1.626,7.937c.083.4.33.681.612.685h.006c.28,0,.527-.269.615-.667l.748-3.424,7.209,22.5c.108.336.334.549.582.549h.014c.253-.009.48-.238.58-.587l1.718-6.005,3.923,25.4c.08.515.418.841.765.729l1.663-.534,3.758,2.575a.48.48,0,0,0,.663-.114l1.7-1.969,3.561,3.8a.478.478,0,0,0,.564.137.852.852,0,0,0,.416-.588l2.893-11.622,1.274,11.739c.049.449.3.787.6.813s.576-.269.658-.708c.041-.221.72-3.872,1.205-6.508.333,1.558.743,3.676,1.085,5.594.075.417.324.71.611.719s.545-.269.63-.681c.25-1.206.87-4,1.434-5.93.206,2.31.368,6.489.423,10.175a.944.944,0,0,0,.521.929c.3.091.6-.144.717-.561l2.271-7.763.824-2.045,1.558,4.733c.121.367.385.581.652.534a.818.818,0,0,0,.556-.74l1.942-12.361,1.516.366,1.332,6.057c.009.041.02.08.032.118l1.456,4.516a.745.745,0,0,0,.479.534l2.21.532,2.131,5.045c.142.337.408.51.669.433a.877.877,0,0,0,.512-.779l1.57-13.042h1.5l2.548,10.493c.092.378.33.632.6.637a.75.75,0,0,0,.61-.613l1.079-4.091,1.469,8.593c.1.361.336-2.685.6-2.685h0c.262,0,.5-.24.6-.6l2.092-7.7,1.773.467a.445.445,0,0,0,.359-.059l2.393-1.484,3.252,8.3a.654.654,0,0,0,.557.479h0a.655.655,0,0,0,.558-.481l1.164-2.99.581,2.518a.84.84,0,0,0,.452.623l3.951,1.5a.481.481,0,0,0,.539-.156,1.151,1.151,0,0,0,.265-.721l.158-3.646,2.03.782,1.55,6.728a.936.936,0,0,0,.332.557.453.453,0,0,0,.5.037l1.664-.9a.914.914,0,0,0,.4-.653l.968-5.242,2.147,14.817a.863.863,0,0,0,.506.744c.253.077.511-.083.657-.4l2.615-5.674,1.238,5.149c.1.4.356.656.641.639s.526-.322.594-.735l1.922-11.675,4.289,1.737,2.782,8.045c.126.364.394.564.661.514a.838.838,0,0,0,.545-.763l1.132-8.18c.755,3.794.919,3.759,1.424,3.655.215-.044.578-.322.578-1.086,0-.492.429-2.9.963-5.665l.885,5.3c.072.432.33.734.627.734H397l3.759,7.724a.648.648,0,0,0,.459.393l1.795.26,1.908,3.865a.633.633,0,0,0,.483.391.568.568,0,0,0,.509-.307l1.553-2.495,4.921,3.427,1.377,7.392c.088.469.4.771.717.7l2.7-.6a.837.837,0,0,0,.536-.746l.669-4.443,2.3,6.2a.768.768,0,0,0,.4.466.468.468,0,0,0,.5-.106l3.33-3.005a.957.957,0,0,0,.257-.437l1.8-6.089,1.773,8.393a.849.849,0,0,0,.457.647.512.512,0,0,0,.607-.242l1.27-1.836.566,3.475c.071.435.33.739.628.739h.005c.3,0,.558-.316.624-.754l1.465-9.647,2.317,7.149c.108.332.333.544.579.545h0c.246,0,.47-.209.579-.54l1.473-4.474,2.767,9.255c.115.383.378.612.659.566l1.872-.3a.56.56,0,0,0,.339-.212l2.053-2.513,3.815,12.691c.11.37.372.59.632.57s.5-.3.576-.692l1.206-6.11.862,10.168a.923.923,0,0,0,.488.819c.261.095.533-.061.684-.391l2.08-4.512a1.238,1.238,0,0,0,.09-.286l2.245-11.8,2.593-4.038a1.2,1.2,0,0,0,.172-.516l.973-8.912,2,4.759a.675.675,0,0,0,.484.448.547.547,0,0,0,.533-.3l1.378-2.192,2.127,8.2c.106.409.379.659.674.612a.853.853,0,0,0,.567-.821l1.247-12.635a1.384,1.384,0,0,0,.007-.142V668.85l.463,1.172a.77.77,0,0,0,.372.435l2.7,1.2a.461.461,0,0,0,.511-.094,1.032,1.032,0,0,0,.3-.623l.623-4.145,1.905,6.146c.11.352.35.581.609.56s.488-.26.581-.624l3.744-14.742,1.6-6.92,1.387,4.014c.138.4.439.6.727.5a.975.975,0,0,0,.493-.942v-.534h1.062l3.186,2.589a.46.46,0,0,0,.521.064.852.852,0,0,0,.381-.535l2.011-7.065,2.579,26.381a1.3,1.3,0,0,0,.058.284l3.12,9.626a.815.815,0,0,0,.383.5l3.491,1.683,1.75,5.061c.121.353.367.567.64.518a.8.8,0,0,0,.555-.7l1.457-7.822,1.592-8.375,1.524,10.133a1.033,1.033,0,0,0,.3.624.463.463,0,0,0,.512.091l3.328-1.505a.978.978,0,0,0,.459-.87l.79-19.875,1.891,11.328c.085.5.417.819.758.714l2.5-.775,2.875,6.1a.622.622,0,0,0,.528.41h1.664c.286,0,.538-.282.62-.694l2.388-12.089,1.179,4.356c.106.391.361.635.649.6s.515-.335.579-.746l1.232-7.92,1.46,9.716a1.174,1.174,0,0,0,.167.463l3.121,4.814a.575.575,0,0,0,.474.294.585.585,0,0,0,.467-.318l.472-.78.487,7.742a.94.94,0,0,0,.486.849l4.784,1.805a.472.472,0,0,0,.508-.125,1.076,1.076,0,0,0,.286-.641l.254-2.083,3.723,12.238c.123.4.413.633.706.551a.923.923,0,0,0,.526-.895l.6-14.894,1.37-.4,4.43,3.341,2.608,6.1a.754.754,0,0,0,.361.406c1.833.814,2.6.731,2.955.552.413.7,1.12,2.082,1.7,3.292.159.333.441.483.7.37a.965.965,0,0,0,.469-.866l.6-13.113,1.674,7.633c.1.435.384.71.685.661a.871.871,0,0,0,.572-.87l.915-14.118,3.02,16.092c.084.448.368.736.676.7s.555-.4.588-.864l2.878-40.714.535-.442,3.048,10.747c.1.366.331.593.61.59s.5-.261.591-.633l2.339-9.471,1,7.225a1.038,1.038,0,0,0,.307.64.463.463,0,0,0,.523.086l3.12-1.5a.883.883,0,0,0,.419-.633l1.737-8.289,2.779,4.729a.544.544,0,0,0,.6.313.786.786,0,0,0,.489-.6l.731-2.816,1.214,3.514a.673.673,0,0,0,.574.523h2.912c.3,0,.558-.307.628-.742l1.963-12.195h1.147l4.2,14.459a.742.742,0,0,0,.522.576.585.585,0,0,0,.593-.395l1.455-3.008a1.193,1.193,0,0,0,.094-.281l1.026-4.945,1.046,10.812c.043.446.286.788.585.827s.577-.239.669-.667l3.445-15.948,3.424,21.89c.065.415.3.719.587.746s.547-.226.647-.626l1.25-4.974.957,1.905a.561.561,0,0,0,.64.368.842.842,0,0,0,.5-.7l3.953-22.265c0-.025.008-.05.011-.075l1.061-8.7,2.7,2.99a.609.609,0,0,0,.186.142l1.581.763,2.177,8.3a.952.952,0,0,0,.289.494l1.3,1.072,1.159,3.07a.711.711,0,0,0,.47.481.525.525,0,0,0,.541-.261l1.066-1.541,1.876,4.935c.134.353.4.543.668.475a.861.861,0,0,0,.528-.776l.447-3.554,4.569,15.5a.721.721,0,0,0,.546.574.471.471,0,0,0,.354-.115l1.764,11.992a.831.831,0,0,0,.547.752c.27.055.533-.152.658-.514,1.815-5.246,3.386-20.415,3.584-22.379l3.435-8.753,1.134,8.906c.058.454.321.784.63.788h0c.306,0,.571-.323.633-.772l1.59-11.492,1.294,23.41c.028.494.3.878.629.889s.613-.353.655-.845l.832-9.628L672.882,647l1.729,38.239a1.219,1.219,0,0,0,.2.631c1.038,1.5,2.637,4.578,2.51,6.423-.078,1.128.246,1.542.532,1.692.414.215,1.039.542,3.775-5.9a1.212,1.212,0,0,0,.062-.186l1.576-6.419,1.146,6.631c.071.41.311.7.593.724s.541-.234.638-.632l.9-3.638,1.392-.182L691.5,698.73c.094.379.336.63.605.63h.008c.273-.005.514-.266.6-.653l1.85-8.026,1.233-3.055h1.651L700.966,693l2.881,6.265a.627.627,0,0,0,.532.419h2.706l2.115,6.953a.753.753,0,0,0,.488.555.544.544,0,0,0,.578-.306l.761-1.258,1.7,6.382c.1.368.336.61.6.61h1.665c.291,0,.547-.293.624-.714l1.376-7.565,1.945,13.827c.063.453.339.8.641.769.309-.007.572-.339.627-.795l2.165-17.745,1.832,5.093a.671.671,0,0,0,.562.509c.223.024.453-.185.569-.492l.748-1.984,1.7,3.574c.152.321.419.47.674.381a.9.9,0,0,0,.49-.791l1.8-16.929c3.238,7.977,4.1,8.814,4.416,8.967a28.962,28.962,0,0,1,1.677,6.268,1.256,1.256,0,0,0,.076.255l2.288,5.416a.6.6,0,0,0,.62.444.616.616,0,0,0,.4-.31l2.683,8.488a.7.7,0,0,0,.564.553c.232.025.468-.182.585-.5l1.2-3.246,1.478,2.779a.745.745,0,0,0,.273.3l2.081,1.2a.522.522,0,0,0,.724-.275l2.071-3.639,2.839,19.163a1.014,1.014,0,0,0,.326.645.458.458,0,0,0,.537.05l2.6-1.506,1.8,4.7a.741.741,0,0,0,.414.46.479.479,0,0,0,.507-.141l1.364-1.38,1.2,5.681a1.04,1.04,0,0,0,.249.507l1.457,1.505a.485.485,0,0,0,.488.154.7.7,0,0,0,.416-.414l3.11-7,1.592,5.067a.787.787,0,0,0,.429.527.488.488,0,0,0,.543-.165l1.481-1.666.65.754a.562.562,0,0,0,.307.193l2.911.6c.3.065.585-.192.692-.614l1.3-5.093h1.868l2.134,1.962c.3.274.685.144.877-.293l.671-1.523,2.535,13.882C787.254,752.944,787.513,753.229,787.8,753.229Z" transform="translate(-205.711 -592.743)" fill="#758ca3"/>
      </g>
    </g>
  </g>
</svg>
