<svg xmlns="http://www.w3.org/2000/svg" xmlns:xlink="http://www.w3.org/1999/xlink" width="854.502" height="450.999" viewBox="0 0 854.502 450.999">
  <defs>
    <clipPath id="clip-path">
      <rect id="Mask" width="815" height="54" transform="translate(551 741)" fill="red"/>
    </clipPath>
    <clipPath id="clip-path-2">
      <rect width="815" height="230" fill="none"/>
    </clipPath>
    <clipPath id="clip-path-3">
      <rect id="Mask-2" data-name="Mask" width="816" height="318" transform="translate(95.711 -258.258)" fill="red" opacity="0.5"/>
    </clipPath>
    <linearGradient id="linear-gradient" x1="0.5" x2="0.5" y2="1" gradientUnits="objectBoundingBox">
      <stop offset="0" stop-color="#758ca3"/>
      <stop offset="1" stop-color="#758ca3" stop-opacity="0"/>
    </linearGradient>
  </defs>
  <g id="History_Chart" transform="translate(705.501 389.999)">
    <path id="Frame" d="M7558.5,12009v0Zm.5.5h0Z" transform="translate(-8264 -12399)" fill="none" opacity="0.35"/>
    <g id="Color_Info" transform="translate(-1649.5 -220)">
      <line id="Color_Info_Line" x2="15" opacity="0.6" transform="translate(1452.5 272)" stroke="#758ca3" stroke-linecap="round" stroke-width="2" fill="none"/>
      <line id="Color_Info_Line-2" data-name="Color_Info_Line" x2="15" transform="translate(1317.5 272)" fill="none" stroke="#098cdf" stroke-linecap="round" stroke-width="2" opacity="0.6"/>
      <text id="Text" transform="translate(1559 277)" fill="#758ca3" font-size="15" font-family="BarlowCondensed-Regular, Barlow" opacity="0.6"><tspan x="-86.22" y="0">Bitcoin Price Log</tspan></text>
      <text id="Text-2" data-name="Text" transform="translate(1438 277)" fill="#024e8a" font-size="15" font-family="BarlowCondensed-Regular, Barlow"><tspan x="-99.9" y="0">Bitcoin Price Linear</tspan></text>
    </g>
    <g id="Range_Scroll" transform="translate(-1217 -762)">
      <rect id="Scroll_Bar_Track" width="785" height="15" transform="translate(566 780)" fill="#e6eaee"/>
      <g id="Range_Chart" clip-path="url(#clip-path)">
        <path id="Range_Chart-2" data-name="Range_Chart" d="M-4834.643-11054.529s164.58.588,177.993,0,35.766-2.155,45.266-1.373,70.693,1.766,74.606,1.373,45.546.783,56.723,0,35.766-1.764,49.179-1.373,16.4-.1,18.262-1.126,5.281-1.3,8.217-1.44,6.849-.687,7.338-1.236,6.651-1.441,8.216-1.371,5.381-1.03,8.023-7.548,4.794-13.655,8.414-8.646,3.815,7.754,6.065,8.646,5.479-.274,6.358-.412,3.131,1.235,4.6,2.744,4.11-1.029,5.186-.892,2.25,2.538,3.815,2.882,5.382-.344,6.165-.412a23.1,23.1,0,0,1,5.479.412,19.714,19.714,0,0,0,6.359,1.372c3.619.207,7.534-.273,8.805.344s1.663,1.784,3.913,2.333,9.881,1.028,12.034.548,27.162-1.143,35.154-2.881,11.986-2.456,14.893-1.716,6.54-1.919,7.992-1.99-1.453,1.189,6.538,1.578,14.894,2.162,19.616,1.784,15.256.378,23.611,0,25.065-5.328,30.877-4.254,8.355,2.651,10.9,2.882,6.539-2.428,10.171-2.882,8.354,1.845,11.987-1.853,2.542-8.441,4-8.234,4.359-5.653,6.539-3.87,2.907,5.35,5.812,5.86,4,3.567,4.359,4.841,2.55,3.51,5.774,4.147,7.523-.034,9.027,0,.646-.938,5.159,0,6.664,1.384,9.888,1.99,16.335,1.053,19.774,0,9.951-5.628,18.306-6.138,7.628-1.019,10.534,0a46.012,46.012,0,0,0,11.987,1.815c4.722.224,17.436.224,20.342-1.815s6.538-7.038,9.444-6.831,8.719-1.832,9.445-3.87,5.812-3.056,8.718-2.547,15.257,2.547,15.257,2.547v57.323h-939v-30.712s5.449-4.707,12.351-3.939,11.262,2.584,18.526,2.566,14.893,1.035,18.889,0S-4834.643-11054.529-4834.643-11054.529Z" transform="translate(5404.034 11828.675)" fill="rgba(117,140,163,0.15)" stroke="#098cdf" stroke-width="1" opacity="0.6"/>
      </g>
      <g id="Range_Selector">
        <g id="Selected_Area">
          <rect id="Rectangle_Bg" width="120" height="54" transform="translate(1068 741)" fill="#098cdf" opacity="0.2"/>
          <rect id="Line_Vr" width="1" height="54" transform="translate(1067 741)" fill="#758ca3" opacity="0.5"/>
          <rect id="Line_Vr-2" data-name="Line_Vr" width="1" height="54" transform="translate(1188 741)" fill="#758ca3" opacity="0.5"/>
        </g>
        <g id="Drag_Button">
          <rect id="Rectangle_Bg-2" data-name="Rectangle_Bg" width="120" height="15" transform="translate(1068 780)" fill="#758ca3" opacity="0.2"/>
          <g id="Lines" transform="translate(-0.5 -179)">
            <line id="Line_Vr-3" data-name="Line_Vr" y2="5" transform="translate(1132 964.5)" fill="none" stroke="#758ca3" stroke-linecap="square" stroke-width="1"/>
            <line id="Line_Vr-4" data-name="Line_Vr" y2="5" transform="translate(1129 964.5)" fill="none" stroke="#758ca3" stroke-linecap="square" stroke-width="1"/>
            <line id="Line_Vr-5" data-name="Line_Vr" y2="5" transform="translate(1126 964.5)" fill="none" stroke="#758ca3" stroke-linecap="square" stroke-width="1"/>
          </g>
        </g>
        <g id="Button_Right" transform="translate(121)">
          <g id="Rectangle_Bg-3" data-name="Rectangle_Bg" transform="translate(1063 752)" fill="#d0d7de" stroke="#758ca3" stroke-width="1">
            <rect width="9" height="16" stroke="none"/>
            <rect x="0.5" y="0.5" width="8" height="15" fill="none"/>
          </g>
          <g id="Lines-2" data-name="Lines">
            <line id="Line_Vr-6" data-name="Line_Vr" y2="7" transform="translate(1066.5 756.5)" fill="none" stroke="#758ca3" stroke-linecap="square" stroke-width="1"/>
            <line id="Line_Vr-7" data-name="Line_Vr" y2="7" transform="translate(1068.5 756.5)" fill="none" stroke="#758ca3" stroke-linecap="square" stroke-width="1"/>
          </g>
        </g>
        <g id="Button_Left">
          <g id="Rectangle_Bg-4" data-name="Rectangle_Bg" transform="translate(1063 752)" fill="#d0d7de" stroke="#758ca3" stroke-width="1">
            <rect width="9" height="16" stroke="none"/>
            <rect x="0.5" y="0.5" width="8" height="15" fill="none"/>
          </g>
          <g id="Lines-3" data-name="Lines">
            <line id="Line_Vr-8" data-name="Line_Vr" y2="7" transform="translate(1066.5 756.5)" fill="none" stroke="#758ca3" stroke-linecap="square" stroke-width="1"/>
            <line id="Line_Vr-9" data-name="Line_Vr" y2="7" transform="translate(1068.5 756.5)" fill="none" stroke="#758ca3" stroke-linecap="square" stroke-width="1"/>
          </g>
        </g>
      </g>
      <g id="Button_Right-2" data-name="Button_Right" transform="translate(803)">
        <g id="Rectangle_Bg-5" data-name="Rectangle_Bg" transform="translate(548 780)" fill="#d0d7de" stroke="rgba(117,140,163,0.3)" stroke-width="1">
          <rect width="15" height="15" stroke="none"/>
          <rect x="0.5" y="0.5" width="14" height="14" fill="none"/>
        </g>
        <path id="Arrow" d="M5,0,2.5,2.5,0,0" transform="translate(554 790) rotate(-90)" fill="none" stroke="#758ca3" stroke-linecap="round" stroke-miterlimit="10" stroke-width="1.5"/>
      </g>
      <g id="Button_Left-2" data-name="Button_Left" transform="translate(3)">
        <g id="Rectangle_Bg-6" data-name="Rectangle_Bg" transform="translate(548 780)" fill="#d0d7de" stroke="rgba(117,140,163,0.3)" stroke-width="1">
          <rect width="15" height="15" stroke="none"/>
          <rect x="0.5" y="0.5" width="14" height="14" fill="none"/>
        </g>
        <path id="Arrow-2" data-name="Arrow" d="M5,0,2.5,2.5,0,0" transform="translate(556.5 785) rotate(90)" fill="none" stroke="#758ca3" stroke-linecap="round" stroke-miterlimit="10" stroke-width="1.5"/>
      </g>
      <g id="Year" transform="translate(565.5 741.5)">
        <rect id="Line_Hr" width="815" height="1" transform="translate(-14.5 -1.5)" fill="#758ca3" opacity="0.35"/>
        <path id="Mini_Lines_Vr" d="M18359.5,19281.5v-40h1v40Zm-225,0v-40h1v40Zm-223,0v-40h1v40Zm-225,0v-40h1v40Z" transform="translate(-17660 -19243)" fill="#758ca3" opacity="0.15"/>
        <text id="Time" transform="translate(713.5 35)" fill="#758ca3" font-size="14" font-family="BarlowCondensed-Regular, Barlow"><tspan x="-10.668" y="0">2018</tspan></text>
        <text id="Time-2" data-name="Time" transform="translate(488.5 35)" fill="#758ca3" font-size="14" font-family="BarlowCondensed-Regular, Barlow"><tspan x="-10.584" y="0">2016</tspan></text>
        <text id="Time-3" data-name="Time" transform="translate(265.5 35)" fill="#758ca3" font-size="14" font-family="BarlowCondensed-Regular, Barlow"><tspan x="-10.619" y="0">2014</tspan></text>
        <text id="Time-4" data-name="Time" transform="translate(40.5 35)" fill="#758ca3" font-size="14" font-family="BarlowCondensed-Regular, Barlow"><tspan x="-10.535" y="0">2012</tspan></text>
      </g>
    </g>
    <g id="Month" transform="translate(-651.5 -70.5)">
      <rect id="Line_Hr-2" data-name="Line_Hr" width="815" height="1" transform="translate(-14.5 -1.5)" fill="#758ca3" opacity="0.35"/>
      <path id="Mini_Lines_Vr-2" data-name="Mini_Lines_Vr" d="M18430.5,19245.5v-4h1v4Zm-174,0v-4h1v4Zm-144,0v-4h1v4Zm-144,0v-4h1v4Zm-144,0v-4h1v4Zm-144,0v-4h1v4Z" transform="translate(-17660 -19243)" fill="#758ca3" opacity="0.35"/>
      <text id="Time-5" data-name="Time" transform="translate(772.5 14)" fill="#758ca3" font-size="14" font-family="BarlowCondensed-Regular, Barlow"><tspan x="-15.918" y="0">May &apos;19</tspan></text>
      <text id="Time-6" data-name="Time" transform="translate(596.5 14)" fill="#758ca3" font-size="14" font-family="BarlowCondensed-Regular, Barlow"><tspan x="-15.736" y="0">Sep &apos;18</tspan></text>
      <text id="Time-7" data-name="Time" transform="translate(453.5 14)" fill="#758ca3" font-size="14" font-family="BarlowCondensed-Regular, Barlow"><tspan x="-16.051" y="0">May &apos;18</tspan></text>
      <text id="Time-8" data-name="Time" transform="translate(308.5 14)" fill="#758ca3" font-size="14" font-family="BarlowCondensed-Regular, Barlow"><tspan x="-15.82" y="0">Jan &apos;18</tspan></text>
      <text id="Time-9" data-name="Time" transform="translate(165.5 14)" fill="#758ca3" font-size="14" font-family="BarlowCondensed-Regular, Barlow"><tspan x="-15.344" y="0">Sep &apos;17</tspan></text>
      <text id="Time-10" data-name="Time" transform="translate(20.5 14)" fill="#758ca3" font-size="14" font-family="BarlowCondensed-Regular, Barlow"><tspan x="-15.659" y="0">May &apos;17</tspan></text>
    </g>
    <g id="Price" transform="translate(-705.5 -368.5)">
      <text id="Text-3" data-name="Text" transform="translate(23.5 293)" fill="#758ca3" font-size="14" font-family="BarlowCondensed-Regular, Barlow"><tspan x="-6.272" y="0">0K</tspan></text>
      <text id="Text-4" data-name="Text" transform="translate(23.5 240)" fill="#758ca3" font-size="14" font-family="BarlowCondensed-Regular, Barlow"><tspan x="-6.027" y="0">5K</tspan></text>
      <text id="Text-5" data-name="Text" transform="translate(23.5 187)" fill="#758ca3" font-size="14" font-family="BarlowCondensed-Regular, Barlow"><tspan x="-8.064" y="0">10K</tspan></text>
      <text id="Text-6" data-name="Text" transform="translate(23.5 134)" fill="#758ca3" font-size="14" font-family="BarlowCondensed-Regular, Barlow"><tspan x="-7.819" y="0">15K</tspan></text>
      <text id="Text-7" data-name="Text" transform="translate(23.5 81)" fill="#758ca3" font-size="14" font-family="BarlowCondensed-Regular, Barlow"><tspan x="-9.086" y="0">20K</tspan></text>
      <text id="Text-8" data-name="Text" transform="translate(23.5 28)" fill="#758ca3" font-size="14" font-family="BarlowCondensed-Regular, Barlow"><tspan x="-8.841" y="0">25K</tspan></text>
    </g>
    <g id="Chart">
      <g id="Line_Hr-3" data-name="Line_Hr" transform="translate(-666 -337)" opacity="0.15" clip-path="url(#clip-path-2)">
        <g transform="translate(682 310)">
          <line id="Line_Hr-4" data-name="Line_Hr" x2="815" transform="translate(-681.5 -309.5)" fill="none" stroke="#758ca3" stroke-linecap="square" stroke-width="1"/>
        </g>
        <g transform="translate(682 363)">
          <line id="Line_2" data-name="Line 2" x2="815" transform="translate(-681.5 -309.5)" fill="none" stroke="#758ca3" stroke-linecap="square" stroke-width="1"/>
        </g>
        <g transform="translate(682 416)">
          <line id="Line_2-2" data-name="Line 2" x2="815" transform="translate(-681.5 -309.5)" fill="none" stroke="#758ca3" stroke-linecap="square" stroke-width="1"/>
        </g>
        <g transform="translate(682 469)">
          <line id="Line_2-3" data-name="Line 2" x2="815" transform="translate(-681.5 -309.5)" fill="none" stroke="#758ca3" stroke-linecap="square" stroke-width="1"/>
        </g>
        <g transform="translate(682 522)">
          <line id="Line_2-4" data-name="Line 2" x2="815" transform="translate(-681.5 -309.5)" fill="none" stroke="#758ca3" stroke-linecap="square" stroke-width="1"/>
        </g>
      </g>
      <g id="Chart_Graph" transform="translate(-762.711 -130.742)" clip-path="url(#clip-path-3)">
        <g id="Chart-2" data-name="Chart" transform="translate(95.711 -206.257)">
          <path id="Gradient" d="M207.115,736.726H209.6l2.177,11.431,3.111-8.422,3.421,9.326,4.041-7.521s1.556.6,3.112,4.814,7.462,5.415,7.462,5.415l4.354-15.944,2.177,3.307,3.423-2.1h3.73l2.178,5.716,4.353-.6,1.554-1.2,2.8,2.108,3.109-6.619,5.6,8.424,2.177-1.505,2.176-6.919,3.111,2.106,3.111-5.416,4.664,1.805,4.664-21.06,4.354,5.116,3.111-1.2,3.111-3.912,2.489,4.514,4.975-10.53.622,1.805,3.42-5.416s1.867-6.618,3.11-6.919,7.466-10.83,7.466-10.83l3.109,19.555,3.421-4.812,1.866,3.307,4.044-7.521,3.731,20.458,3.733-17.751,3.109,11.433h2.49l3.109-7.823,2.178,2.406,3.42-7.52h4.666l4.354-6.334,5.6-5.718h3.419l2.177,3.611,2.8,8.123,5.6-15.043,3.422.3,1.553,4.214,2.489-9.628,3.422,9.326s4.975,7.84,4.664,4.832,4.042-7.22,4.042-7.22l3.111-46.03,3.421,18.952,1.244,9.629,2.487-30.086,3.734,18.051,2.176-11.432,6.53,11.131s2.489,16.847,5.288,22.262l3.11-14.139.933,1.5L441.3,646.17l1.243,6.619,3.421-6.016,2.487,2.4,1.867-3.309,2.176-1.2,3.421-8.724,2.8-.9L464,631.126l1.864,10.229,5.91,22.265,2.488-3.311,2.487,6.621,5.911-25.274,6.219,19.255,2.177-15.043,2.8,9.026,2.174,3.008,6.533-15.041h3.109l3.112,12.936h4.354l2.8-5.416,1.867,4.813,5.287-6.018,3.11,9.929,4.664,1.5,2.177-10.529,4.666,12.636,4.976-11.734,2.177,1.2L549.22,693.4l5.908-21.06,1.866,19.255,4.044-12.335,1.243,18.05s3.423-4.812,3.423-3.91,4.042-.3,4.042-.3l4.042-6.319,7.154-3.609,3.109.6.935,15.644,6.842-15.044.932,5.116,7.153-1.8.933-9.929,2.177,2.407,4.666-4.814,3.108-13.839,2.8,12.035,2.8-6.921,4.353,14.743h2.488l4.664-6.621,4.355.9,4.354-17.449,1.554,26.173,4.976,1.505,3.111-13.839,3.42,12.033,2.177,7.823,2.8-5.416,5.6-1.8,4.665-9.626,4.354-29.786,4.354,10.229,4.977-2.707h2.8v1.5l3.109-6.017,3.111,9.025,5.6,14.743,4.044-8.724,1.554,6.919,4.043-1.2,2.49-4.213v6.619l1.865,12.634,3.733-9.626,3.109,3.308,4.355-6.919,1.865,11.433,4.043,4.211,3.422,12.035,3.109,4.512,1.868-14.742,3.109,10.531,6.22-13.841,4.043,3.31,2.8.3,4.976-11.132,3.11,6.319,4.664-9.628,2.8,12.334,1.246-5.112,3.109,3.006,3.421-10.829,3.731,8.424,4.978,3.006,4.664-8.423,1.556,6.921,4.042.6,2.178-7.822,8.4-3.911,2.8,3.008,3.109-4.211,3.111-.3,5.909-8.122h4.664l2.178-8.724s2.487,8.122,2.487,9.326,2.177-6.618,2.177-6.618l2.488,12.032,4.354-8.424,7.774-2.106,3.111,12.636,2.487-6.919,4.977,7.221,4.042-18.653,2.489,9.025,2.487.9,2.487-7.22,4.665-1.2.313,4.812,5.906-1.5,1.556-4.511,2.8,4.813,5.287-9.026,4.354,1.807,3.419-.6,3.423,8.424,3.11-7.521L902.208,657l4.042-11.13h3.732l2.49,13.839,3.42-5.415,3.733-.6,2.177-4.515,2.176-6.617,3.733-.6,3.109,13.238,3.11-6.319,2.178,3.611,3.42,7.821s.311-14.139,1.554-12.334,3.11,7.821,3.11,7.821,2.49-9.326,2.8-8.122,2.486,9.026,2.486,9.026l2.49-15.345,5.6,15.044,5.907-4.212,3.111,2.407,5.909-2.709,2.8.6,6.531-28.281,3.732,8.725,11.818-24.669,1.866,5.715,2.488-8.122,4.977-6.017,4.043-6.619.932,13.538s4.355-11.132,5.288-11.132,2.487,7.222,2.487,7.222l4.976,1.8,2.8,6.017,4.976,8.424,5.286-2.406,1.865-9.327,5.91,10.83,2.487,2.708,3.733-9.927,2.177,6.919,5.91-3.31,4.663-.6,4.045-9.928,5.287,14.14,3.733-10.529,1.244,6.318,6.219-10.529,3.732,8.425,4.043-1.2,4.666,2.708,4.975-3.309V857.65H206.977Z" transform="translate(-206.149 -592.907)" opacity="0.1" fill="url(#linear-gradient)"/>
          <path id="Line" d="M232.49,753.229a.974.974,0,0,1-.193-.019c-.262-.054-6.456-1.365-8.175-6.029a12.211,12.211,0,0,0-1.923-3.636l-3.475,6.466a.964.964,0,0,1-1.756-.125l-2.518-6.863-2.2,5.962a.965.965,0,0,1-1.855-.155l-2.027-10.644h-1.688a.969.969,0,0,1,0-1.938h2.487a.966.966,0,0,1,.948.788l1.527,8.015,1.907-5.162a.966.966,0,0,1,.906-.632h0a.967.967,0,0,1,.906.635l2.681,7.309,3.025-5.629a.962.962,0,0,1,1.2-.444c.328.127,2.045.981,3.671,5.381,1.012,2.746,4.295,4.073,5.879,4.566l4.1-15.014a.965.965,0,0,1,1.738-.278l1.663,2.526,2.626-1.615a.964.964,0,0,1,.5-.143h3.73a.966.966,0,0,1,.9.623l1.9,5,3.338-.462,1.35-1.046a.966.966,0,0,1,1.17-.009l1.853,1.394,2.6-5.543a.964.964,0,0,1,1.677-.124l5.055,7.6,1.1-.758,2.076-6.6a.964.964,0,0,1,1.461-.512l2.251,1.525,2.594-4.515a.967.967,0,0,1,1.184-.421l3.618,1.4,4.421-19.961a.965.965,0,0,1,1.677-.419l3.91,4.594,2.229-.862,2.947-3.707a.964.964,0,0,1,1.6.135l1.577,2.861,4.169-8.824a.98.98,0,0,1,.925-.553.969.969,0,0,1,.824.561l2.275-3.6c1.287-4.524,2.519-7.021,3.666-7.43.876-.63,4.278-5.859,6.97-10.414a.965.965,0,0,1,1.785.342l2.738,17.219,2.052-2.886a.964.964,0,0,1,1.627.085l1,1.781,3.215-5.977a.965.965,0,0,1,1.8.286l2.848,15.618,2.72-12.936a.967.967,0,0,1,.917-.769.935.935,0,0,1,.96.714l2.914,10.719h1.1l2.866-7.212a.965.965,0,0,1,1.613-.293l1.193,1.318,2.811-6.182a.966.966,0,0,1,.879-.567H356.7l4.066-5.915a.965.965,0,0,1,.106-.13l5.6-5.718a.962.962,0,0,1,.689-.29h3.419a.966.966,0,0,1,.826.467l2.177,3.611a.977.977,0,0,1,.087.185l1.921,5.575,4.657-12.518a.969.969,0,0,1,.989-.626l3.423.3a.968.968,0,0,1,.822.629l.485,1.315,1.715-6.637a.965.965,0,0,1,1.842-.092l3.387,9.228a47.64,47.64,0,0,0,2.895,4.088c.5-2.7,3.094-5.548,4-6.472l3.086-45.666a.966.966,0,0,1,1.914-.108l3.421,18.952.082.635,1.736-21a.966.966,0,0,1,1.909-.117l2.749,13.288,1.267-6.654a.964.964,0,0,1,1.781-.31l6.53,11.131a.969.969,0,0,1,.123.349c.022.144,1.845,12.373,4.063,19.133L430.9,663.3a.965.965,0,0,1,1.731-.352l7.35-16.679a.965.965,0,0,1,1.833.213l.757,4.028,2.119-3.726a.964.964,0,0,1,1.51-.218l1.59,1.537,1.253-2.22a.957.957,0,0,1,.374-.372l1.871-1.035,3.294-8.4a.966.966,0,0,1,.6-.567l2.649-.855,5.161-3.817a.965.965,0,0,1,1.524.606l1.857,10.191,5.39,20.3,1.294-1.722a.964.964,0,0,1,1.675.242L476.1,664.1l5.186-22.174a.966.966,0,0,1,1.86-.077l4.94,15.3,1.581-10.924a.968.968,0,0,1,.88-.827.957.957,0,0,1,1,.679l2.752,8.873,1.089,1.507,5.858-13.487a.965.965,0,0,1,.886-.581h3.109a.967.967,0,0,1,.94.741l2.933,12.195h3.005l2.528-4.893a.979.979,0,0,1,.91-.522.967.967,0,0,1,.848.617l1.292,3.329,4.237-4.823a.965.965,0,0,1,1.647.351l2.96,9.45,3.165,1.021,1.959-9.474a.965.965,0,0,1,1.852-.14l3.822,10.35,4.025-9.491a.965.965,0,0,1,1.355-.469l2.176,1.2a.969.969,0,0,1,.495.747l3.826,36.205,4.547-16.208a.965.965,0,0,1,1.891.169l1.422,14.669,2.609-7.959a.966.966,0,0,1,1.881.236l1.063,15.423c1.966-2.543,2.367-2.413,2.885-2.249a1.01,1.01,0,0,1,.535.4,13.318,13.318,0,0,0,2.646-.5l3.845-6.012a.978.978,0,0,1,.379-.342l7.154-3.609a.961.961,0,0,1,.616-.086l3.109.6a.967.967,0,0,1,.781.893l.7,11.758,5.23-11.5a.965.965,0,0,1,1.829.228l.747,4.1,5.49-1.386.869-9.247a.965.965,0,0,1,1.677-.56l1.486,1.643,3.759-3.879,3.049-13.572a.965.965,0,0,1,.939-.756h0a.967.967,0,0,1,.941.748l2.108,9.063,1.656-4.093a.965.965,0,0,1,1.821.089l4.149,14.049H622.3l4.376-6.211a.966.966,0,0,1,.985-.39l3.447.715,4.13-16.547a.965.965,0,0,1,1.9.177l1.514,25.5,3.338,1.009,2.882-12.824a.968.968,0,0,1,.916-.756h.027a.966.966,0,0,1,.928.7l4.939,17.492,1.671-3.232a.966.966,0,0,1,.562-.477l5.206-1.678,4.418-9.118,4.332-29.638a.966.966,0,0,1,1.845-.24l3.936,9.251,4.046-2.2a.961.961,0,0,1,.46-.117h2.8a.975.975,0,0,1,.181.016l2.07-4.008a.953.953,0,0,1,.928-.52.966.966,0,0,1,.843.65l3.111,9.025,4.773,12.569,3.079-6.644a.965.965,0,0,1,1.818.2l1.327,5.909,2.691-.8,2.3-3.886a.966.966,0,0,1,1.8.494v6.548l1.32,8.945,2.411-6.217a.964.964,0,0,1,1.6-.314l2.255,2.4,3.69-5.862a.965.965,0,0,1,1.77.361l1.817,11.135,3.834,3.993a.966.966,0,0,1,.234.406l3.379,11.881,1.583,2.3,1.55-12.23a.965.965,0,0,1,1.885-.153l2.37,8.03,5.152-11.463a.964.964,0,0,1,1.491-.353l3.821,3.128,1.817.2,4.688-10.489a.968.968,0,0,1,.864-.573.985.985,0,0,1,.884.54l2.237,4.545,3.8-7.848a.965.965,0,0,1,1.81.208l1.891,8.331.274-1.124a.965.965,0,0,1,1.609-.467l1.988,1.922,2.95-9.339a.967.967,0,0,1,.867-.675,1,1,0,0,1,.936.574l3.607,8.145,3.861,2.331,4.178-7.545a.965.965,0,0,1,1.787.257l1.411,6.273,2.543.377,1.95-7a.967.967,0,0,1,.523-.618l8.4-3.911a.964.964,0,0,1,1.113.217l2.008,2.157,2.418-3.275a.965.965,0,0,1,.682-.388l2.68-.26,5.653-7.771a.964.964,0,0,1,.78-.4h3.911l2-7.99a.967.967,0,0,1,.911-.735h.026a.966.966,0,0,1,.923.685c.355,1.159,1.191,3.92,1.8,6.221.323-1.078.68-2.315,1.007-3.489A.965.965,0,0,1,828.7,657l1.936,9.362,3.1-6a.972.972,0,0,1,.606-.49l7.774-2.106a.966.966,0,0,1,1.189.7l2.347,9.53,1.406-3.91a.964.964,0,0,1,1.7-.222l3.711,5.385,3.568-16.471a.967.967,0,0,1,.918-.763.945.945,0,0,1,.957.71l2.357,8.542,1.1.4,2.167-6.291a.969.969,0,0,1,.672-.623l4.666-1.2a.967.967,0,0,1,1.2.876l.238,3.649,4.276-1.089,1.385-4.017a.964.964,0,0,1,1.747-.172l1.968,3.383,4.452-7.6a.964.964,0,0,1,1.2-.4l4.094,1.7,3.142-.554a.964.964,0,0,1,1.062.588l2.535,6.241,2.209-5.343a.945.945,0,0,1,.9-.6.966.966,0,0,1,.89.612l1.554,3.943,3.171-8.733a.965.965,0,0,1,.907-.637h3.731a.967.967,0,0,1,.951.8l2.049,11.393,2.094-3.315a.967.967,0,0,1,.662-.438l3.236-.521,1.93-4,2.156-6.556a.969.969,0,0,1,.764-.653l3.733-.6a.965.965,0,0,1,1.094.734l2.493,10.613,1.92-3.9a.964.964,0,0,1,1.693-.074l2.178,3.611a1.146,1.146,0,0,1,.057.112l1.71,3.909c.4-8.676,1.255-8.935,1.849-9.113a1.175,1.175,0,0,1,1.326.53,26.644,26.644,0,0,1,2.226,5.053c1.677-5.884,2.144-5.872,2.814-5.878a1.047,1.047,0,0,1,1.011.834c.149.575.737,2.713,1.3,4.761l1.784-10.994a.965.965,0,0,1,1.858-.183l5.158,13.862,4.883-3.482a.966.966,0,0,1,1.15.023l2.65,2.05,5.379-2.466a.95.95,0,0,1,.6-.066l1.87.4,6.316-27.352a.965.965,0,0,1,1.829-.163l2.894,6.766,10.9-22.747a.98.98,0,0,1,.934-.547.967.967,0,0,1,.854.666l.918,2.813,1.594-5.2a.971.971,0,0,1,.18-.334l4.932-5.964,4.008-6.56a.965.965,0,0,1,1.786.44l.643,9.333c3.249-7.831,4.026-7.831,4.613-7.831.667,0,1.665,0,3.317,7.462l4.474,1.622a.967.967,0,0,1,.547.5l2.78,5.973,4.511,7.637,4.047-1.842,1.767-8.841a.965.965,0,0,1,1.795-.274l5.853,10.726,1.346,1.464,3.18-8.457a.965.965,0,0,1,1.825.051l1.819,5.784,4.875-2.73a.97.97,0,0,1,.348-.116l4.1-.529,3.831-9.406a.954.954,0,0,1,.909-.6.966.966,0,0,1,.891.629l4.359,11.656,2.846-8.029a.954.954,0,0,1,.981-.642.965.965,0,0,1,.876.779l.755,3.829,4.93-8.348a.965.965,0,0,1,1.715.1l3.387,7.647,3.23-.962a.961.961,0,0,1,.758.09l4.147,2.407,4.477-2.977a.968.968,0,0,1,1.066,1.616l-4.975,3.309a.96.96,0,0,1-1.017.031l-4.306-2.5-3.645,1.085a.965.965,0,0,1-1.158-.536l-2.972-6.709-5.265,8.915a.965.965,0,0,1-1.779-.307l-.563-2.86-2.556,7.209a.966.966,0,0,1-.9.645h-.008a.966.966,0,0,1-.9-.629l-4.421-11.824-3.113,7.639a.966.966,0,0,1-.771.595l-4.478.578-5.747,3.218a.955.955,0,0,1-.827.055.966.966,0,0,1-.565-.608l-1.337-4.249-2.748,7.308a.966.966,0,0,1-.72.608.955.955,0,0,1-.894-.294l-2.487-2.707a.979.979,0,0,1-.137-.192l-4.637-8.5L1038,617.369a.968.968,0,0,1-.547.693l-5.286,2.406a.963.963,0,0,1-1.23-.389l-4.976-8.424a.849.849,0,0,1-.044-.084l-2.631-5.653-4.6-1.667a.968.968,0,0,1-.615-.707,46.8,46.8,0,0,0-1.6-5.817,107.436,107.436,0,0,0-4.328,9.876.966.966,0,0,1-1.863-.287l-.723-10.513-2.464,4.033a1.119,1.119,0,0,1-.08.113l-4.854,5.868-2.431,7.937a.966.966,0,0,1-.915.685H998.8a.967.967,0,0,1-.919-.667l-1.118-3.424-10.777,22.5a.966.966,0,0,1-.871.549H985.1a.968.968,0,0,1-.867-.587l-2.568-6.005L975.8,653.2a.964.964,0,0,1-1.143.729l-2.486-.534-5.619,2.575a.968.968,0,0,1-.991-.114l-2.545-1.969-5.324,3.8a.965.965,0,0,1-1.465-.451L951.9,645.609l-1.9,11.739a.965.965,0,0,1-1.884.105c-.062-.221-1.077-3.872-1.8-6.508-.5,1.558-1.11,3.676-1.622,5.594a.965.965,0,0,1-1.856.037c-.373-1.206-1.3-4-2.144-5.93-.309,2.31-.551,6.489-.632,10.175a.966.966,0,0,1-1.85.369l-3.4-7.763-1.232-2.045-2.33,4.733a.965.965,0,0,1-1.807-.206l-2.9-12.361-2.266.366-1.992,6.057a.935.935,0,0,1-.048.118l-2.177,4.516a.967.967,0,0,1-.716.534l-3.3.532-3.187,5.045a.965.965,0,0,1-1.766-.346l-2.346-13.042h-2.249l-3.81,10.493a.968.968,0,0,1-.894.637,1.027,1.027,0,0,1-.912-.613l-1.612-4.091-2.2,8.593c-.15.361-.5-2.685-.892-2.685h0a.966.966,0,0,1-.891-.6l-3.128-7.7-2.651.467a.951.951,0,0,1-.537-.059l-3.577-1.484-4.861,8.3a.967.967,0,0,1-.833.479h0a.968.968,0,0,1-.833-.481l-1.74-2.99-.868,2.518a.969.969,0,0,1-.675.623l-5.907,1.5a.968.968,0,0,1-1.2-.877l-.237-3.646-3.034.782-2.317,6.728a.966.966,0,0,1-1.241.595l-2.487-.9a.967.967,0,0,1-.6-.653l-1.446-5.242-3.21,14.817a.965.965,0,0,1-1.739.345l-3.91-5.674-1.851,5.149a.965.965,0,0,1-1.846-.1l-2.874-11.675-6.412,1.737-4.159,8.045a.977.977,0,0,1-.988.514.966.966,0,0,1-.814-.763l-1.692-8.18c-1.128,3.794-1.375,3.759-2.129,3.655a1.023,1.023,0,0,1-.865-1.086,49.214,49.214,0,0,0-1.439-5.665l-1.323,5.3a.967.967,0,0,1-.937.734h-4.174l-5.619,7.724a.965.965,0,0,1-.687.393l-2.683.26-2.853,3.865a.963.963,0,0,1-1.482.085l-2.322-2.495-7.358,3.427-2.058,7.392a.966.966,0,0,1-1.072.7l-4.042-.6a.967.967,0,0,1-.8-.746l-1-4.443-3.434,6.2a.963.963,0,0,1-1.342.36L775,683.295a.977.977,0,0,1-.385-.437l-2.7-6.089-2.651,8.393a.964.964,0,0,1-1.59.406l-1.9-1.836-.846,3.475a.967.967,0,0,1-.939.739h-.008a.966.966,0,0,1-.934-.754l-2.19-9.647-3.463,7.149a.967.967,0,0,1-.866.545h0a.966.966,0,0,1-.866-.54l-2.2-4.474-4.136,9.255a.963.963,0,0,1-.985.566l-2.8-.3a.962.962,0,0,1-.507-.212l-3.069-2.513-5.7,12.691a.986.986,0,0,1-.945.57.968.968,0,0,1-.861-.692l-1.8-6.11-1.289,10.168a.965.965,0,0,1-1.753.429l-3.109-4.512a.973.973,0,0,1-.134-.286l-3.356-11.8-3.876-4.038a.967.967,0,0,1-.258-.516l-1.454-8.912-3,4.759a.964.964,0,0,1-1.52.148l-2.061-2.192-3.179,8.2a.965.965,0,0,1-1.856-.209l-1.864-12.635a.932.932,0,0,1-.01-.142V668.85l-.692,1.172a.972.972,0,0,1-.557.435l-4.043,1.2a.956.956,0,0,1-.763-.094.967.967,0,0,1-.453-.623L696.5,666.8l-2.848,6.146a.955.955,0,0,1-.911.56.967.967,0,0,1-.868-.624l-5.6-14.742-2.386-6.92-2.073,4.014a.966.966,0,0,1-1.824-.446v-.534H678.4l-4.762,2.589a.964.964,0,0,1-1.349-.471l-3.006-7.065-3.856,26.381a.938.938,0,0,1-.087.284l-4.665,9.626a.968.968,0,0,1-.573.5l-5.219,1.683-2.617,5.061a.941.941,0,0,1-.957.518.967.967,0,0,1-.83-.7l-2.178-7.822-2.38-8.375-2.278,10.133a.966.966,0,0,1-1.221.715l-4.975-1.505a.968.968,0,0,1-.686-.87l-1.181-19.875-2.827,11.328a.966.966,0,0,1-1.133.714l-3.736-.775-4.3,6.1a.965.965,0,0,1-.789.41h-2.488a.966.966,0,0,1-.926-.694l-3.57-12.089-1.762,4.356a.957.957,0,0,1-.97.6.968.968,0,0,1-.865-.746l-1.842-7.92-2.183,9.716a.968.968,0,0,1-.25.463l-4.666,4.814a.982.982,0,0,1-.709.294.965.965,0,0,1-.7-.318l-.705-.78-.728,7.742a.968.968,0,0,1-.726.849l-7.152,1.805a.965.965,0,0,1-1.186-.765l-.38-2.083-5.565,12.238a.965.965,0,0,1-1.843-.344l-.891-14.894-2.049-.4-6.623,3.341-3.9,6.1a.972.972,0,0,1-.539.406c-2.74.814-3.894.731-4.417.552-.618.7-1.675,2.082-2.535,3.292a.966.966,0,0,1-1.751-.5l-.9-13.113-2.5,7.633a.965.965,0,0,1-1.879-.209l-1.369-14.118-4.514,16.092a.965.965,0,0,1-1.891-.161l-4.3-40.714-.8-.442-4.556,10.747a.956.956,0,0,1-.912.59.967.967,0,0,1-.883-.633l-3.5-9.471-1.494,7.225a.966.966,0,0,1-1.241.726l-4.665-1.5a.969.969,0,0,1-.626-.633l-2.6-8.289-4.154,4.729a.964.964,0,0,1-1.624-.29l-1.092-2.816-1.815,3.514a.967.967,0,0,1-.858.523h-4.354a.966.966,0,0,1-.939-.742l-2.934-12.195h-1.715l-6.28,14.459a.964.964,0,0,1-1.667.182l-2.175-3.008a.953.953,0,0,1-.14-.281l-1.534-4.945L489.4,661.543a.966.966,0,0,1-1.876.16l-5.151-15.948-5.119,21.89a.965.965,0,0,1-1.845.121l-1.868-4.974-1.431,1.905a.965.965,0,0,1-1.7-.334L464.5,642.1a.755.755,0,0,1-.017-.075l-1.586-8.7-4.043,2.99a.967.967,0,0,1-.277.142l-2.363.763-3.254,8.3a.971.971,0,0,1-.432.494l-1.936,1.072-1.732,3.07a.965.965,0,0,1-1.511.221l-1.594-1.541-2.8,4.935a.965.965,0,0,1-1.789-.3l-.668-3.554-6.83,15.5a.965.965,0,0,1-.816.574.951.951,0,0,1-.53-.115l-2.638,11.992a.965.965,0,0,1-1.8.238c-2.713-5.246-5.062-20.415-5.358-22.379l-5.135-8.753-1.7,8.906a.967.967,0,0,1-.941.788h-.007a.967.967,0,0,1-.946-.772l-2.377-11.492-1.935,23.41a.966.966,0,0,1-1.921.044l-1.244-9.628L404.29,647l-2.585,38.239a.967.967,0,0,1-.292.631c-1.552,1.5-3.943,4.578-3.753,6.423.117,1.128-.368,1.542-.795,1.692-.619.215-1.554.542-5.643-5.9a.967.967,0,0,1-.092-.186l-2.356-6.419-1.713,6.631a.965.965,0,0,1-1.841.092l-1.341-3.638-2.081-.182-5.34,14.353a.965.965,0,0,1-.9.63h-.012a.967.967,0,0,1-.9-.653l-2.766-8.026-1.843-3.055h-2.469L362.3,693,358,699.261a.967.967,0,0,1-.8.419h-4.045L350,706.632a.964.964,0,0,1-1.594.249l-1.138-1.258-2.536,6.382a.965.965,0,0,1-.9.61h-2.49a.967.967,0,0,1-.932-.714l-2.057-7.565-2.907,13.827a.951.951,0,0,1-.958.769.968.968,0,0,1-.937-.795l-3.236-17.745-2.738,5.093a.968.968,0,0,1-.841.509.946.946,0,0,1-.85-.492l-1.119-1.984-2.542,3.574a.965.965,0,0,1-1.74-.41l-2.691-16.929c-4.841,7.977-6.136,8.814-6.6,8.967-.54.488-1.673,3.314-2.508,6.268a.968.968,0,0,1-.113.255l-3.421,5.416a.963.963,0,0,1-1.53.134l-4.011,8.488a.966.966,0,0,1-.843.553.956.956,0,0,1-.875-.5L296.1,716.09l-2.209,2.779a.971.971,0,0,1-.408.3l-3.111,1.2a.968.968,0,0,1-1.083-.275l-3.1-3.639-4.245,19.163a.965.965,0,0,1-1.29.695l-3.893-1.506-2.7,4.7a.965.965,0,0,1-1.377.319l-2.039-1.38-1.787,5.681a.971.971,0,0,1-.373.507l-2.178,1.505a.964.964,0,0,1-1.352-.261l-4.649-7-2.381,5.067a.965.965,0,0,1-1.453.362l-2.214-1.666-.972.754a.965.965,0,0,1-.459.193l-4.352.6a.963.963,0,0,1-1.034-.614l-1.941-5.093h-2.793l-3.19,1.962a.963.963,0,0,1-1.311-.293l-1-1.523-3.791,13.882A.967.967,0,0,1,232.49,753.229Z" transform="translate(-205.711 -592.743)" fill="#098cdf" opacity="0.6"/>
        </g>
      </g>
    </g>
  </g>
</svg>
