<svg xmlns="http://www.w3.org/2000/svg" width="547.5" height="188.822" viewBox="0 0 547.5 188.822">
  <g id="How_Api_Works" transform="translate(-396.25 -308.999)">
    <text id="Text" transform="translate(870 442)" fill="#004378" font-size="17" font-family="BarlowCondensed-Medium, Barlow" font-weight="500"><tspan x="-9.41" y="0">API</tspan><tspan x="-30.354" y="17">RESPONSE</tspan></text>
    <text id="Text-2" data-name="Text" transform="translate(740 442)" fill="#004378" font-size="17" font-family="BarlowCondensed-Medium, Barlow" font-weight="500"><tspan x="-25.687" y="0">SERVER/</tspan><tspan x="-38.752" y="17">DATA SOURCE</tspan></text>
    <text id="Text-3" data-name="Text" transform="translate(607 442)" fill="#004378" font-size="17" font-family="BarlowCondensed-Medium, Barlow" font-weight="500"><tspan x="-9.41" y="0">API</tspan><tspan x="-29.861" y="17">REQUESTS</tspan></text>
    <text id="Text-4" data-name="Text" transform="translate(473 442)" fill="#004378" font-size="17" font-family="BarlowCondensed-Medium, Barlow" font-weight="500"><tspan x="-40.562" y="0">APPLICATION/</tspan><tspan x="-20.834" y="17">CLIENT</tspan></text>
    <g id="Api_Schema" transform="translate(-261.209 -67.667)">
      <g id="Container">
        <g id="Big_Path">
          <path id="Path" d="M675.049,431.945H664.778a2.569,2.569,0,0,0-2.569,2.569V547.388a2.569,2.569,0,0,0,2.569,2.569H888.3" fill="none" stroke="#70a800" stroke-miterlimit="10" stroke-width="1.5"/>
          <path id="Path-2" data-name="Path" d="M974.01,549.957h223.6a2.568,2.568,0,0,0,2.568-2.569V434.514a2.568,2.568,0,0,0-2.568-2.569h-10.465" fill="none" stroke="#758ca3" stroke-miterlimit="10" stroke-width="1.5"/>
        </g>
        <g id="Mini_Circle" transform="translate(38.727 -0.581)">
          <g id="Ellipse" transform="translate(926.482 545.248)" fill="none" stroke="#758ca3" stroke-miterlimit="10" stroke-width="1.5">
            <circle cx="5" cy="5" r="5" stroke="none"/>
            <circle cx="5" cy="5" r="4.25" fill="none"/>
          </g>
          <circle id="Ellipse-2" data-name="Ellipse" cx="2.289" cy="2.289" r="2.289" transform="translate(929.194 547.959)" fill="#758ca3"/>
        </g>
        <g id="Mini_Circle-2" data-name="Mini_Circle" transform="translate(-39.273 -0.581)">
          <g id="Ellipse-3" data-name="Ellipse" transform="translate(926.482 545.248)" fill="none" stroke="#70a800" stroke-miterlimit="10" stroke-width="1.5">
            <circle cx="5" cy="5" r="5" stroke="none"/>
            <circle cx="5" cy="5" r="4.25" fill="none"/>
          </g>
          <circle id="Ellipse-4" data-name="Ellipse" cx="2.289" cy="2.289" r="2.289" transform="translate(929.194 547.959)" fill="#70a800"/>
        </g>
        <g id="Arrow">
          <path id="Arrow-2" data-name="Arrow" d="M8,0,4,4,0,0" transform="translate(1062.209 545.667) rotate(90)" fill="none" stroke="#758ca3" stroke-linecap="round" stroke-miterlimit="10" stroke-width="1.5"/>
          <path id="Arrow-3" data-name="Arrow" d="M8,0,4,4,0,0" transform="translate(802.209 545.667) rotate(90)" fill="none" stroke="#70a800" stroke-linecap="round" stroke-miterlimit="10" stroke-width="1.5"/>
          <path id="Arrow-4" data-name="Arrow" d="M8,0,4,4,0,0" transform="translate(1196.209 488.667)" fill="none" stroke="#758ca3" stroke-linecap="round" stroke-miterlimit="10" stroke-width="1.5"/>
          <path id="Arrow-5" data-name="Arrow" d="M8,0,4,4,0,0" transform="translate(1064.209 435.667) rotate(-90)" fill="none" stroke="#098cdf" stroke-linecap="round" stroke-miterlimit="10" stroke-width="1.5"/>
          <path id="Arrow-6" data-name="Arrow" d="M8,0,4,4,0,0" transform="translate(931.209 435.667) rotate(-90)" fill="none" stroke="#758ca3" stroke-linecap="round" stroke-miterlimit="10" stroke-width="1.5"/>
          <path id="Arrow-7" data-name="Arrow" d="M8,0,4,4,0,0" transform="translate(798.209 435.667) rotate(-90)" fill="none" stroke="#70a800" stroke-linecap="round" stroke-miterlimit="10" stroke-width="1.5"/>
          <path id="Arrow-8" data-name="Arrow" d="M8,0,4,4,0,0" transform="translate(666.209 492.667) rotate(180)" fill="none" stroke="#70a800" stroke-linecap="round" stroke-miterlimit="10" stroke-width="1.5"/>
        </g>
        <g id="Icon_Connect" transform="translate(312.209 153.667)">
          <path id="Path-3" data-name="Path" d="M942.443,808.332a8.293,8.293,0,1,1,8.293-8.293A8.3,8.3,0,0,1,942.443,808.332Z" transform="translate(-307.444 -403.868)" fill="none" stroke="#758ca3" stroke-width="1.3"/>
          <path id="Path-4" data-name="Path" d="M926.31,770.841a.545.545,0,0,0-.148.021l-3.97,1.12a.545.545,0,0,0-.4.5l-.141,3.4a10.825,10.825,0,0,0-1.544,1.217l-3.4-.675a.54.54,0,0,0-.106-.011.546.546,0,0,0-.476.279l-2.011,3.593a.545.545,0,0,0,.075.636l2.356,2.55a15.083,15.083,0,0,0-.216,1.94l-2.842,1.909a.545.545,0,0,0-.221.6l1.12,3.97a.545.545,0,0,0,.5.4l3.4.142a10.835,10.835,0,0,0,1.217,1.544l-.675,3.4a.546.546,0,0,0,.268.582l3.593,2.012a.544.544,0,0,0,.636-.075l2.55-2.355a15.023,15.023,0,0,0,1.94.216l1.909,2.842a.545.545,0,0,0,.6.221l3.97-1.12a.546.546,0,0,0,.4-.5l.141-3.4a10.807,10.807,0,0,0,1.544-1.217l3.4.675a.544.544,0,0,0,.582-.268l2.011-3.593a.546.546,0,0,0-.075-.637l-2.356-2.55a15.082,15.082,0,0,0,.216-1.94L943,784.359a.545.545,0,0,0,.221-.6l-1.12-3.97a.546.546,0,0,0-.5-.4l-3.4-.142a10.821,10.821,0,0,0-1.217-1.544l.675-3.4a.546.546,0,0,0-.269-.582L933.8,771.71a.545.545,0,0,0-.636.075l-2.55,2.356a15.022,15.022,0,0,0-1.94-.217l-1.909-2.841a.545.545,0,0,0-.453-.241Z" transform="translate(-293.245 -389.67)" fill="none" stroke="#758ca3" stroke-width="1.3"/>
          <path id="Path-5" data-name="Path" d="M942.443,808.332a8.293,8.293,0,1,1,8.293-8.293A8.3,8.3,0,0,1,942.443,808.332Z" transform="translate(-339.444 -403.868)" fill="none" stroke="#70a800" stroke-width="1.3"/>
          <path id="Path-6" data-name="Path" d="M926.31,770.841a.545.545,0,0,0-.148.021l-3.97,1.12a.545.545,0,0,0-.4.5l-.141,3.4a10.825,10.825,0,0,0-1.544,1.217l-3.4-.675a.54.54,0,0,0-.106-.011.546.546,0,0,0-.476.279l-2.011,3.593a.545.545,0,0,0,.075.636l2.356,2.55a15.083,15.083,0,0,0-.216,1.94l-2.842,1.909a.545.545,0,0,0-.221.6l1.12,3.97a.545.545,0,0,0,.5.4l3.4.142a10.835,10.835,0,0,0,1.217,1.544l-.675,3.4a.546.546,0,0,0,.268.582l3.593,2.012a.544.544,0,0,0,.636-.075l2.55-2.355a15.023,15.023,0,0,0,1.94.216l1.909,2.842a.545.545,0,0,0,.6.221l3.97-1.12a.546.546,0,0,0,.4-.5l.141-3.4a10.807,10.807,0,0,0,1.544-1.217l3.4.675a.544.544,0,0,0,.582-.268l2.011-3.593a.546.546,0,0,0-.075-.637l-2.356-2.55a15.082,15.082,0,0,0,.216-1.94L943,784.359a.545.545,0,0,0,.221-.6l-1.12-3.97a.546.546,0,0,0-.5-.4l-3.4-.142a10.821,10.821,0,0,0-1.217-1.544l.675-3.4a.546.546,0,0,0-.269-.582L933.8,771.71a.545.545,0,0,0-.636.075l-2.55,2.356a15.022,15.022,0,0,0-1.94-.217l-1.909-2.841a.545.545,0,0,0-.453-.241Z" transform="translate(-325.245 -389.67)" fill="none" stroke="#70a800" stroke-width="1.3"/>
        </g>
      </g>
      <g id="Icon_01">
        <circle id="Circle_01" cx="46.5" cy="46.5" r="46.5" transform="translate(687.209 385.667)" fill="#70a800"/>
        <path id="Circle_Stroke_01" d="M-1343.566,12127.417a55.427,55.427,0,0,1-19.8-19.953l1.179-.683a53.97,53.97,0,0,0,46.572,26.876,53.97,53.97,0,0,0,46.572-26.876,53.082,53.082,0,0,0,7-22.253,4.731,4.731,0,0,1-3.846-4.642,4.732,4.732,0,0,1,3.846-4.642,53.957,53.957,0,0,0-53.573-49.127v-1.361a54.936,54.936,0,0,1,37.609,14.816,54.924,54.924,0,0,1,17.326,35.614,4.732,4.732,0,0,1,4.172,3.9h15.294v1.361h-15.261a4.731,4.731,0,0,1-4.209,4.139,54.433,54.433,0,0,1-7.181,22.875,55.425,55.425,0,0,1-19.8,19.953,55.067,55.067,0,0,1-27.952,7.6A55.074,55.074,0,0,1-1343.566,12127.417Zm79.04-47.53a3.368,3.368,0,0,0,3.362,3.365,3.37,3.37,0,0,0,3.365-3.365,3.368,3.368,0,0,0-3.365-3.362A3.365,3.365,0,0,0-1264.527,12079.887Zm-100.133,25.7-.043-.082a.906.906,0,0,1,.384-1.224.911.911,0,0,1,1.227.384l.04.079a.905.905,0,0,1-.381,1.224.881.881,0,0,1-.423.106A.907.907,0,0,1-1364.659,12105.587Zm-2.357-5.109-.033-.086a.906.906,0,0,1,.505-1.179.906.906,0,0,1,1.179.506l.034.085a.9.9,0,0,1-.506,1.179.869.869,0,0,1-.335.064A.9.9,0,0,1-1367.016,12100.478Zm-1.824-5.324-.027-.088a.908.908,0,0,1,.627-1.121.909.909,0,0,1,1.121.624l.024.086a.911.911,0,0,1-.621,1.124.953.953,0,0,1-.253.033A.906.906,0,0,1-1368.841,12095.153Zm-1.27-5.481-.018-.092a.909.909,0,0,1,.737-1.051.9.9,0,0,1,1.051.734l.018.088a.908.908,0,0,1-.734,1.054.931.931,0,0,1-.161.016A.909.909,0,0,1-1370.111,12089.672Zm-4.681-9.785a4.73,4.73,0,0,1,4.727-4.724,4.729,4.729,0,0,1,4.724,4.724,4.731,4.731,0,0,1-4.724,4.727A4.731,4.731,0,0,1-1374.792,12079.887Zm1.361,0a3.37,3.37,0,0,0,3.365,3.365,3.368,3.368,0,0,0,3.362-3.365,3.365,3.365,0,0,0-3.362-3.362A3.368,3.368,0,0,0-1373.43,12079.887Zm109.979,0a2.286,2.286,0,0,1,2.287-2.287,2.289,2.289,0,0,1,2.29,2.287,2.291,2.291,0,0,1-2.29,2.29A2.289,2.289,0,0,1-1263.452,12079.887Zm-108.9,0a2.289,2.289,0,0,1,2.29-2.287,2.286,2.286,0,0,1,2.287,2.287,2.287,2.287,0,0,1-2.287,2.29A2.29,2.29,0,0,1-1372.355,12079.887Zm2.963-8.638a.91.91,0,0,1-.737-1.054l.018-.088a.9.9,0,0,1,1.051-.734.9.9,0,0,1,.734,1.054l-.015.086a.9.9,0,0,1-.892.749A.866.866,0,0,1-1369.392,12071.249Zm1.148-5.414a.906.906,0,0,1-.624-1.121l.024-.088a.909.909,0,0,1,1.124-.622.9.9,0,0,1,.621,1.121l-.024.088a.9.9,0,0,1-.871.658A.9.9,0,0,1-1368.244,12065.835Zm1.7-5.269a.906.906,0,0,1-.505-1.179l.033-.086a.908.908,0,0,1,1.182-.5.908.908,0,0,1,.5,1.182l-.034.082a.9.9,0,0,1-.841.572A.894.894,0,0,1-1366.547,12060.566Zm2.226-5.068a.906.906,0,0,1-.384-1.224l.043-.08a.912.912,0,0,1,1.227-.384.907.907,0,0,1,.381,1.225l-.043.082a.908.908,0,0,1-.8.484A.865.865,0,0,1-1364.321,12055.5Zm2.732-4.814a.911.911,0,0,1-.259-1.258l.052-.076a.911.911,0,0,1,1.258-.256.908.908,0,0,1,.256,1.258l-.049.076a.908.908,0,0,1-.758.408A.89.89,0,0,1-1361.589,12050.684Zm3.2-4.511a.912.912,0,0,1-.128-1.279l.058-.069a.911.911,0,0,1,1.279-.128.908.908,0,0,1,.125,1.278l-.055.067a.909.909,0,0,1-.7.335A.913.913,0,0,1-1358.385,12046.173Zm3.645-4.166a.909.909,0,0,1,0-1.285l.064-.062a.908.908,0,0,1,1.285,0,.91.91,0,0,1,0,1.286l-.064.061a.9.9,0,0,1-.64.268A.906.906,0,0,1-1354.74,12042.007Zm4.044-3.776a.908.908,0,0,1,.131-1.276l.073-.058a.906.906,0,0,1,1.276.131.908.908,0,0,1-.131,1.276l-.07.058a.913.913,0,0,1-.576.2A.9.9,0,0,1-1350.7,12038.23Zm4.407-3.347a.906.906,0,0,1,.259-1.258l.076-.052a.908.908,0,0,1,1.258.262.906.906,0,0,1-.262,1.255l-.073.048a.89.89,0,0,1-.5.152A.9.9,0,0,1-1346.289,12034.884Zm4.72-2.885a.907.907,0,0,1,.387-1.224l.082-.043a.908.908,0,0,1,1.224.387.911.911,0,0,1-.39,1.225l-.076.039a.917.917,0,0,1-.42.1A.91.91,0,0,1-1341.568,12032Zm4.992-2.388a.908.908,0,0,1,.505-1.182l.088-.033a.9.9,0,0,1,1.176.512.9.9,0,0,1-.509,1.176l-.082.033a.925.925,0,0,1-.335.063A.905.905,0,0,1-1336.577,12029.611Zm5.208-1.87a.907.907,0,0,1,.627-1.12l.088-.024a.91.91,0,0,1,1.121.627.91.91,0,0,1-.63,1.121l-.085.024a.974.974,0,0,1-.247.033A.91.91,0,0,1-1331.369,12027.741Zm5.372-1.324a.91.91,0,0,1,.737-1.051l.091-.016a.907.907,0,0,1,1.051.737.909.909,0,0,1-.74,1.051l-.088.016a.936.936,0,0,1-.158.015A.909.909,0,0,1-1326,12026.417Zm5.479-.771a.909.909,0,0,1,.841-.972l.091-.006a.909.909,0,0,1,.972.841.91.91,0,0,1-.844.971l-.088.007c-.021,0-.043,0-.067,0A.91.91,0,0,1-1320.518,12025.646Z" transform="translate(2049.198 -11648)" fill="#70a800"/>
        <g id="Icon_Client" transform="translate(701.209 397.667)">
          <line id="Line" y2="4" transform="translate(32.5 51.5)" fill="none" stroke="#fff" stroke-linecap="round" stroke-width="1.3"/>
          <line id="Line-2" data-name="Line" x2="20" transform="translate(22.5 55.5)" fill="none" stroke="#fff" stroke-linecap="round" stroke-width="1.3"/>
          <line id="Line-3" data-name="Line" x2="2" transform="translate(31.5 46.5)" fill="none" stroke="#fff" stroke-linecap="round" stroke-width="1.3"/>
          <g id="Rectangle" transform="translate(11 17)" fill="none" stroke="#fff" stroke-width="1.3">
            <rect width="42" height="27" stroke="none"/>
            <rect x="0.65" y="0.65" width="40.7" height="25.7" fill="none"/>
          </g>
          <g id="Rectangle-2" data-name="Rectangle" transform="translate(8 14)" fill="none" stroke="#fff" stroke-width="1.3">
            <rect width="48" height="36" rx="2" stroke="none"/>
            <rect x="0.65" y="0.65" width="46.7" height="34.7" rx="1.35" fill="none"/>
          </g>
        </g>
      </g>
      <g id="Icon_02">
        <circle id="Circle_02" cx="46.5" cy="46.5" r="46.5" transform="translate(821.209 385.667)" fill="#758ca3"/>
        <path id="Circle_Stroke_02" d="M-1343.544,12127.342a55.441,55.441,0,0,1-19.8-19.924,54.435,54.435,0,0,1-7.209-22.92,4.73,4.73,0,0,1-4.242-4.7,4.735,4.735,0,0,1,4.242-4.7,54.919,54.919,0,0,1,17.326-35.613,54.949,54.949,0,0,1,37.609-14.816v1.361a53.955,53.955,0,0,0-53.573,49.129,4.73,4.73,0,0,1,3.846,4.642,4.732,4.732,0,0,1-3.846,4.642,53.087,53.087,0,0,0,7.026,22.3v0a53.977,53.977,0,0,0,46.547,26.836,53.98,53.98,0,0,0,46.547-26.836l1.179.685a55.464,55.464,0,0,1-19.8,19.924,55.09,55.09,0,0,1-27.93,7.589A55.09,55.09,0,0,1-1343.544,12127.342Zm-29.885-47.543a3.367,3.367,0,0,0,3.362,3.362,3.366,3.366,0,0,0,3.365-3.362,3.368,3.368,0,0,0-3.365-3.365A3.37,3.37,0,0,0-1373.429,12079.8Zm106.113,25.18a.909.909,0,0,1-.405-1.218l.043-.079a.9.9,0,0,1,1.215-.405.907.907,0,0,1,.408,1.218l-.043.083a.9.9,0,0,1-.81.5A.889.889,0,0,1-1267.316,12104.979Zm2.312-5.031a.9.9,0,0,1-.527-1.169l.031-.085a.909.909,0,0,1,1.169-.527.91.91,0,0,1,.53,1.17l-.034.088a.909.909,0,0,1-.85.585A.835.835,0,0,1-1265,12099.947Zm1.782-5.237a.911.911,0,0,1-.643-1.112l.021-.085a.911.911,0,0,1,1.109-.648.912.912,0,0,1,.649,1.111l-.024.092a.91.91,0,0,1-.877.673A.938.938,0,0,1-1263.223,12094.71Zm1.24-5.4a.908.908,0,0,1-.755-1.038l.015-.088a.905.905,0,0,1,1.035-.756.91.91,0,0,1,.758,1.036l-.015.094a.91.91,0,0,1-.9.765A.69.69,0,0,1-1261.984,12089.313Zm-110.371-9.514a2.289,2.289,0,0,1,2.287-2.29,2.291,2.291,0,0,1,2.29,2.29,2.289,2.289,0,0,1-2.29,2.287A2.286,2.286,0,0,1-1372.354,12079.8Zm109.719-7.8-.012-.085a.91.91,0,0,1,.764-1.032.911.911,0,0,1,1.032.765l.012.094a.907.907,0,0,1-.767,1.029.846.846,0,0,1-.131.01A.91.91,0,0,1-1262.635,12072Zm-1.06-5.335-.018-.086a.9.9,0,0,1,.655-1.1.905.905,0,0,1,1.1.657l.024.089a.907.907,0,0,1-.661,1.1.912.912,0,0,1-.222.028A.912.912,0,0,1-1263.7,12066.664Zm-1.6-5.2-.033-.089a.911.911,0,0,1,.542-1.163.911.911,0,0,1,1.167.542l.03.085a.907.907,0,0,1-.542,1.163.849.849,0,0,1-.311.056A.908.908,0,0,1-1265.291,12061.469Zm-2.123-5.014-.04-.079a.907.907,0,0,1,.42-1.212.9.9,0,0,1,1.212.417l.043.083a.91.91,0,0,1-.423,1.212.881.881,0,0,1-.4.091A.907.907,0,0,1-1267.414,12056.455Zm-2.619-4.763-.049-.079a.91.91,0,0,1,.3-1.252.909.909,0,0,1,1.249.3l.046.076a.9.9,0,0,1-.292,1.248.884.884,0,0,1-.478.138A.909.909,0,0,1-1270.033,12051.692Zm-3.094-4.479-.052-.073a.9.9,0,0,1,.165-1.271.9.9,0,0,1,1.273.165l.055.073a.9.9,0,0,1-.167,1.272.91.91,0,0,1-.551.186A.909.909,0,0,1-1273.127,12047.213Zm-3.527-4.143-.061-.066a.906.906,0,0,1,.037-1.282.905.905,0,0,1,1.282.036l.061.064a.909.909,0,0,1-.033,1.282.907.907,0,0,1-.624.249A.907.907,0,0,1-1276.654,12043.07Zm-3.929-3.767-.07-.059a.91.91,0,0,1-.091-1.282.907.907,0,0,1,1.279-.091l.07.058a.91.91,0,0,1,.091,1.282.9.9,0,0,1-.685.313A.91.91,0,0,1-1280.582,12039.3Zm-4.291-3.351-.073-.052a.907.907,0,0,1-.222-1.264.911.911,0,0,1,1.264-.223l.076.055a.906.906,0,0,1,.219,1.265.9.9,0,0,1-.743.387A.894.894,0,0,1-1284.873,12035.953Zm-4.6-2.9-.076-.045a.906.906,0,0,1-.353-1.233.91.91,0,0,1,1.236-.351l.082.046a.911.911,0,0,1,.347,1.236.913.913,0,0,1-.795.463A.929.929,0,0,1-1289.478,12033.057Zm-4.876-2.415-.082-.036a.905.905,0,0,1-.475-1.19.909.909,0,0,1,1.194-.476l.085.037a.908.908,0,0,1,.472,1.193.914.914,0,0,1-.834.548A.9.9,0,0,1-1294.354,12030.642Zm-5.1-1.9-.085-.027a.91.91,0,0,1-.594-1.139.91.91,0,0,1,1.139-.594l.088.027a.911.911,0,0,1,.594,1.139.909.909,0,0,1-.868.634A.966.966,0,0,1-1299.452,12028.738Zm-5.263-1.373-.088-.019a.909.909,0,0,1-.707-1.072.909.909,0,0,1,1.072-.706l.088.019a.906.906,0,0,1,.707,1.071.907.907,0,0,1-.886.726A1,1,0,0,1-1304.715,12027.365Zm-5.378-.828-.088-.01a.908.908,0,0,1-.813-.992.909.909,0,0,1,1-.813l.091.009a.907.907,0,0,1,.81,1,.905.905,0,0,1-.9.813C-1310.029,12026.54-1310.062,12026.54-1310.093,12026.537Z" transform="translate(2182.895 -11647.97)" fill="#758ca3"/>
        <g id="Mini_Circle_02" transform="translate(-133)">
          <g id="Ellipse-5" data-name="Ellipse" transform="translate(1049.621 427.178)" fill="none" stroke="#758ca3" stroke-miterlimit="10" stroke-width="1.5">
            <circle cx="4.709" cy="4.709" r="4.709" stroke="none"/>
            <circle cx="4.709" cy="4.709" r="3.959" fill="none"/>
          </g>
          <circle id="Ellipse-6" data-name="Ellipse" cx="2.289" cy="2.289" r="2.289" transform="translate(1052.042 429.599)" fill="#758ca3"/>
        </g>
        <rect id="Line_Patch" width="15.838" height="1.361" transform="translate(925.443 431.089)" fill="#758ca3"/>
        <g id="Icon_Request" transform="translate(257.209 27.667)">
          <path id="Path-7" data-name="Path" d="M946.59,816.626a12.44,12.44,0,1,1,12.44-12.44A12.454,12.454,0,0,1,946.59,816.626Z" transform="translate(-336.09 -400.514)" fill="none" stroke="#fff" stroke-width="1.3"/>
          <path id="Path-8" data-name="Path" d="M932.842,770.841a.814.814,0,0,0-.222.031l-5.955,1.68a.818.818,0,0,0-.6.753l-.212,5.1a16.241,16.241,0,0,0-2.316,1.826l-5.1-1.013a.806.806,0,0,0-.159-.016.819.819,0,0,0-.714.419l-3.017,5.389a.818.818,0,0,0,.113.955l3.534,3.824a22.635,22.635,0,0,0-.325,2.91l-4.262,2.864a.817.817,0,0,0-.331.9l1.68,5.955a.818.818,0,0,0,.754.6l5.1.212a16.237,16.237,0,0,0,1.826,2.316l-1.013,5.1a.819.819,0,0,0,.4.873l5.389,3.017a.817.817,0,0,0,.955-.113l3.824-3.533a22.571,22.571,0,0,0,2.91.324l2.864,4.263a.817.817,0,0,0,.9.331l5.955-1.68a.819.819,0,0,0,.6-.754l.212-5.1a16.2,16.2,0,0,0,2.316-1.825l5.1,1.012a.816.816,0,0,0,.873-.4l3.017-5.389a.819.819,0,0,0-.113-.955l-3.534-3.824a22.637,22.637,0,0,0,.325-2.91l4.262-2.863a.818.818,0,0,0,.331-.9l-1.68-5.955a.819.819,0,0,0-.754-.6l-5.1-.212a16.226,16.226,0,0,0-1.826-2.316l1.013-5.1a.819.819,0,0,0-.4-.873l-5.389-3.017a.817.817,0,0,0-.955.112l-3.824,3.534a22.535,22.535,0,0,0-2.91-.325l-2.864-4.262a.818.818,0,0,0-.679-.362Z" transform="translate(-325.245 -389.67)" fill="none" stroke="#fff" stroke-width="1.3"/>
        </g>
      </g>
      <g id="Icon_03">
        <circle id="Circle_03" cx="46.5" cy="46.5" r="46.5" transform="translate(954.209 385.667)" fill="#098cdf"/>
        <path id="Circle_Stroke_03" d="M-1343.566,12127.417a55.451,55.451,0,0,1-19.8-19.953l1.179-.683a53.97,53.97,0,0,0,46.572,26.876,53.97,53.97,0,0,0,46.572-26.876,53.082,53.082,0,0,0,7-22.253,4.731,4.731,0,0,1-3.846-4.642,4.732,4.732,0,0,1,3.846-4.642,53.955,53.955,0,0,0-53.573-49.127v-1.361a54.936,54.936,0,0,1,37.609,14.816,54.924,54.924,0,0,1,17.326,35.614,4.732,4.732,0,0,1,4.172,3.9h15.294v1.361h-15.261a4.731,4.731,0,0,1-4.209,4.139,54.433,54.433,0,0,1-7.181,22.875,55.425,55.425,0,0,1-19.8,19.953,55.067,55.067,0,0,1-27.952,7.6A55.074,55.074,0,0,1-1343.566,12127.417Zm79.04-47.53a3.368,3.368,0,0,0,3.365,3.365,3.37,3.37,0,0,0,3.362-3.365,3.367,3.367,0,0,0-3.362-3.362A3.366,3.366,0,0,0-1264.527,12079.887Zm-100.133,25.7-.043-.082a.906.906,0,0,1,.384-1.224.911.911,0,0,1,1.227.384l.04.079a.905.905,0,0,1-.381,1.224.881.881,0,0,1-.423.106A.907.907,0,0,1-1364.659,12105.587Zm-2.357-5.109-.033-.086a.906.906,0,0,1,.505-1.179.906.906,0,0,1,1.179.506l.034.085a.9.9,0,0,1-.506,1.179.869.869,0,0,1-.335.064A.9.9,0,0,1-1367.016,12100.478Zm-1.824-5.324-.024-.088a.9.9,0,0,1,.624-1.121.909.909,0,0,1,1.121.624l.024.086a.911.911,0,0,1-.621,1.124.953.953,0,0,1-.253.033A.906.906,0,0,1-1368.841,12095.153Zm-1.27-5.481-.015-.092a.9.9,0,0,1,.734-1.051.9.9,0,0,1,1.051.734l.018.088a.908.908,0,0,1-.734,1.054.931.931,0,0,1-.161.016A.909.909,0,0,1-1370.111,12089.672Zm-4.681-9.785a4.73,4.73,0,0,1,4.727-4.724,4.732,4.732,0,0,1,4.727,4.724,4.733,4.733,0,0,1-4.727,4.727A4.731,4.731,0,0,1-1374.792,12079.887Zm1.361,0a3.37,3.37,0,0,0,3.365,3.365,3.368,3.368,0,0,0,3.362-3.365,3.365,3.365,0,0,0-3.362-3.362A3.368,3.368,0,0,0-1373.43,12079.887Zm109.979,0a2.287,2.287,0,0,1,2.29-2.287,2.288,2.288,0,0,1,2.287,2.287,2.291,2.291,0,0,1-2.287,2.29A2.289,2.289,0,0,1-1263.452,12079.887Zm-108.9,0a2.289,2.289,0,0,1,2.29-2.287,2.286,2.286,0,0,1,2.287,2.287,2.287,2.287,0,0,1-2.287,2.29A2.29,2.29,0,0,1-1372.355,12079.887Zm2.963-8.638a.91.91,0,0,1-.737-1.054l.018-.088a.9.9,0,0,1,1.051-.734.9.9,0,0,1,.734,1.054l-.015.086a.9.9,0,0,1-.892.749A.866.866,0,0,1-1369.392,12071.249Zm1.148-5.414a.906.906,0,0,1-.624-1.121l.024-.088a.909.909,0,0,1,1.124-.622.9.9,0,0,1,.621,1.121l-.024.088a.9.9,0,0,1-.871.658A.9.9,0,0,1-1368.244,12065.835Zm1.7-5.269a.906.906,0,0,1-.505-1.179l.033-.086a.908.908,0,0,1,1.182-.5.908.908,0,0,1,.5,1.182l-.034.082a.9.9,0,0,1-.841.572A.894.894,0,0,1-1366.547,12060.566Zm2.226-5.068a.906.906,0,0,1-.384-1.224l.043-.08a.912.912,0,0,1,1.227-.384.907.907,0,0,1,.381,1.225l-.043.082a.908.908,0,0,1-.8.484A.865.865,0,0,1-1364.321,12055.5Zm2.732-4.814a.911.911,0,0,1-.259-1.258l.052-.076a.911.911,0,0,1,1.258-.256.908.908,0,0,1,.256,1.258l-.049.076a.908.908,0,0,1-.758.408A.89.89,0,0,1-1361.589,12050.684Zm3.2-4.511a.912.912,0,0,1-.128-1.279l.058-.069a.911.911,0,0,1,1.279-.128.908.908,0,0,1,.125,1.278l-.055.067a.909.909,0,0,1-.7.335A.913.913,0,0,1-1358.385,12046.173Zm3.645-4.166a.909.909,0,0,1,0-1.285l.064-.062a.908.908,0,0,1,1.285,0,.91.91,0,0,1,0,1.286l-.064.061a.9.9,0,0,1-.64.268A.906.906,0,0,1-1354.74,12042.007Zm4.044-3.776a.908.908,0,0,1,.131-1.276l.073-.058a.906.906,0,0,1,1.276.131.908.908,0,0,1-.131,1.276l-.07.058a.913.913,0,0,1-.576.2A.9.9,0,0,1-1350.7,12038.23Zm4.407-3.347a.906.906,0,0,1,.259-1.258l.076-.052a.908.908,0,0,1,1.258.262.906.906,0,0,1-.262,1.255l-.073.048a.89.89,0,0,1-.5.152A.9.9,0,0,1-1346.289,12034.884Zm4.72-2.885a.907.907,0,0,1,.387-1.224l.082-.043a.908.908,0,0,1,1.224.387.911.911,0,0,1-.39,1.225l-.076.039a.908.908,0,0,1-.42.1A.91.91,0,0,1-1341.568,12032Zm4.992-2.388a.908.908,0,0,1,.505-1.182l.088-.033a.9.9,0,0,1,1.176.512.9.9,0,0,1-.509,1.176l-.082.033a.913.913,0,0,1-.335.063A.905.905,0,0,1-1336.577,12029.611Zm5.208-1.87a.907.907,0,0,1,.627-1.12l.088-.024a.91.91,0,0,1,1.121.627.91.91,0,0,1-.63,1.121l-.085.024a.974.974,0,0,1-.247.033A.91.91,0,0,1-1331.369,12027.741Zm5.372-1.324a.91.91,0,0,1,.737-1.051l.091-.016a.907.907,0,0,1,1.051.737.909.909,0,0,1-.74,1.051l-.088.016a.93.93,0,0,1-.155.015A.91.91,0,0,1-1326,12026.417Zm5.479-.771a.909.909,0,0,1,.841-.972l.094-.006a.908.908,0,0,1,.969.841.91.91,0,0,1-.844.971l-.088.007c-.021,0-.043,0-.067,0A.91.91,0,0,1-1320.518,12025.646Z" transform="translate(2315.774 -11648)" fill="#098cdf"/>
        <g id="Icon_Server" transform="translate(976.209 409.667)">
          <rect id="Rectangle-3" data-name="Rectangle" width="47" height="11" transform="translate(1.5 31.5)" fill="none" stroke="#fff" stroke-linejoin="round" stroke-width="1.3"/>
          <rect id="Rectangle-4" data-name="Rectangle" width="47" height="11" transform="translate(1.5 16.5)" fill="none" stroke="#fff" stroke-linejoin="round" stroke-width="1.3"/>
          <rect id="Rectangle-5" data-name="Rectangle" width="47" height="11" transform="translate(1.5 1.5)" fill="none" stroke="#fff" stroke-linejoin="round" stroke-width="1.3"/>
          <g id="Rectangle-6" data-name="Rectangle" transform="translate(40 20)" fill="none" stroke="#fff" stroke-width="1">
            <rect width="4" height="4" stroke="none"/>
            <rect x="0.5" y="0.5" width="3" height="3" fill="none"/>
          </g>
          <g id="Rectangle-7" data-name="Rectangle" transform="translate(5 20)" fill="none" stroke="#fff" stroke-width="1">
            <rect width="33" height="4" stroke="none"/>
            <rect x="0.5" y="0.5" width="32" height="3" fill="none"/>
          </g>
          <g id="Rectangle-8" data-name="Rectangle" transform="translate(40 5)" fill="none" stroke="#fff" stroke-width="1">
            <rect width="4" height="4" stroke="none"/>
            <rect x="0.5" y="0.5" width="3" height="3" fill="none"/>
          </g>
          <g id="Rectangle-9" data-name="Rectangle" transform="translate(23 35)" fill="none" stroke="#fff" stroke-width="1">
            <rect width="21" height="4" stroke="none"/>
            <rect x="0.5" y="0.5" width="20" height="3" fill="none"/>
          </g>
          <g id="Rectangle-10" data-name="Rectangle" transform="translate(34 5)" fill="none" stroke="#fff" stroke-width="1">
            <rect width="4" height="4" stroke="none"/>
            <rect x="0.5" y="0.5" width="3" height="3" fill="none"/>
          </g>
          <g id="Rectangle-11" data-name="Rectangle" transform="translate(28 5)" fill="none" stroke="#fff" stroke-width="1">
            <rect width="4" height="4" stroke="none"/>
            <rect x="0.5" y="0.5" width="3" height="3" fill="none"/>
          </g>
          <g id="Rectangle-12" data-name="Rectangle" transform="translate(17 35)" fill="none" stroke="#fff" stroke-width="1">
            <rect width="4" height="4" stroke="none"/>
            <rect x="0.5" y="0.5" width="3" height="3" fill="none"/>
          </g>
          <g id="Rectangle-13" data-name="Rectangle" transform="translate(22 5)" fill="none" stroke="#fff" stroke-width="1">
            <rect width="4" height="4" stroke="none"/>
            <rect x="0.5" y="0.5" width="3" height="3" fill="none"/>
          </g>
          <g id="Rectangle-14" data-name="Rectangle" transform="translate(4 12)" fill="none" stroke="#fff" stroke-width="1">
            <rect width="4" height="5" stroke="none"/>
            <rect x="0.5" y="0.5" width="3" height="4" fill="none"/>
          </g>
          <g id="Rectangle-15" data-name="Rectangle" transform="translate(42 12)" fill="none" stroke="#fff" stroke-width="1">
            <rect width="4" height="5" stroke="none"/>
            <rect x="0.5" y="0.5" width="3" height="4" fill="none"/>
          </g>
          <g id="Rectangle-16" data-name="Rectangle" transform="translate(42 27)" fill="none" stroke="#fff" stroke-width="1">
            <rect width="4" height="5" stroke="none"/>
            <rect x="0.5" y="0.5" width="3" height="4" fill="none"/>
          </g>
          <g id="Rectangle-17" data-name="Rectangle" transform="translate(4 27)" fill="none" stroke="#fff" stroke-width="1">
            <rect width="4" height="5" stroke="none"/>
            <rect x="0.5" y="0.5" width="3" height="4" fill="none"/>
          </g>
          <g id="Rectangle-18" data-name="Rectangle" transform="translate(11 35)" fill="none" stroke="#fff" stroke-width="1">
            <rect width="4" height="4" stroke="none"/>
            <rect x="0.5" y="0.5" width="3" height="3" fill="none"/>
          </g>
          <g id="Rectangle-19" data-name="Rectangle" transform="translate(5 5)" fill="none" stroke="#fff" stroke-width="1">
            <rect width="15" height="4" stroke="none"/>
            <rect x="0.5" y="0.5" width="14" height="3" fill="none"/>
          </g>
          <g id="Rectangle-20" data-name="Rectangle" transform="translate(5 35)" fill="none" stroke="#fff" stroke-width="1">
            <rect width="4" height="4" stroke="none"/>
            <rect x="0.5" y="0.5" width="3" height="3" fill="none"/>
          </g>
        </g>
      </g>
      <g id="Icon_04">
        <circle id="Circle_04" cx="46.5" cy="46.5" r="46.5" transform="translate(1082.209 385.667)" fill="#758ca3"/>
        <path id="Circle_Stroke_04" d="M-1322.354,12135.092l-.091,0a.907.907,0,0,1-.859-.954.908.908,0,0,1,.95-.861l.085.006a.907.907,0,0,1,.865.95.911.911,0,0,1-.9.865Zm5.375,0a.905.905,0,0,1-.9-.865.909.909,0,0,1,.862-.95l.085,0a.905.905,0,0,1,.953.861.9.9,0,0,1-.859.95l-.091.007Zm-10.863-.536-.088-.013a.905.905,0,0,1-.761-1.032.9.9,0,0,1,1.032-.761l.085.012a.905.905,0,0,1,.764,1.029.909.909,0,0,1-.9.776A1.082,1.082,0,0,1-1327.841,12134.556Zm15.365-.768a.908.908,0,0,1,.764-1.032l.085-.013a.906.906,0,0,1,1.032.762.908.908,0,0,1-.761,1.035l-.091.013a1.03,1.03,0,0,1-.134.009A.906.906,0,0,1-1312.477,12133.788Zm-20.773-.313-.088-.021a.9.9,0,0,1-.655-1.1.9.9,0,0,1,1.1-.655l.085.021a.907.907,0,0,1,.658,1.1.906.906,0,0,1-.88.688A.807.807,0,0,1-1333.25,12133.475Zm26.106-.661a.907.907,0,0,1,.658-1.1l.085-.024a.907.907,0,0,1,1.1.658.9.9,0,0,1-.655,1.1l-.085.021a.957.957,0,0,1-.225.028A.91.91,0,0,1-1307.144,12132.813Zm-31.381-.953-.085-.033a.907.907,0,0,1-.542-1.164.906.906,0,0,1,1.163-.539l.082.027a.907.907,0,0,1,.545,1.161.908.908,0,0,1-.853.6A.939.939,0,0,1-1338.525,12131.86Zm36.589-.552a.908.908,0,0,1,.545-1.163l.082-.03a.907.907,0,0,1,1.163.542.907.907,0,0,1-.542,1.163l-.085.031a.926.926,0,0,1-.311.055A.909.909,0,0,1-1301.936,12131.309Zm-41.672-1.586-.085-.04a.907.907,0,0,1-.42-1.212.91.91,0,0,1,1.212-.424l.076.04a.9.9,0,0,1,.426,1.209.905.905,0,0,1-.819.515A.892.892,0,0,1-1343.608,12129.723Zm46.7-.433a.909.909,0,0,1,.426-1.212l.079-.037a.907.907,0,0,1,1.212.421.909.909,0,0,1-.423,1.212l-.082.039a.887.887,0,0,1-.393.092A.91.91,0,0,1-1296.905,12129.29Zm-51.548-2.2-.079-.049a.908.908,0,0,1-.3-1.248.906.906,0,0,1,1.246-.3l.076.046a.911.911,0,0,1,.3,1.248.922.922,0,0,1-.78.436A.919.919,0,0,1-1348.453,12127.088Zm56.357-.308a.9.9,0,0,1,.3-1.249l.076-.048a.912.912,0,0,1,1.249.3.91.91,0,0,1-.3,1.249l-.073.046a.912.912,0,0,1-.475.134A.909.909,0,0,1-1292.1,12126.78Zm-60.916-2.8-.073-.055a.9.9,0,0,1-.174-1.27.907.907,0,0,1,1.27-.177l.07.055a.9.9,0,0,1,.177,1.27.9.9,0,0,1-.725.362A.9.9,0,0,1-1353.013,12123.984Zm65.445-.186a.906.906,0,0,1,.18-1.271l.067-.052a.91.91,0,0,1,1.273.174.905.905,0,0,1-.177,1.271l-.07.058a.917.917,0,0,1-.548.183A.907.907,0,0,1-1287.568,12123.8Zm-69.672-3.354-.067-.061a.912.912,0,0,1-.049-1.285.913.913,0,0,1,1.285-.046l.061.058a.91.91,0,0,1,.052,1.285.911.911,0,0,1-.667.29A.9.9,0,0,1-1357.24,12120.445Zm73.89-.058a.909.909,0,0,1,.046-1.282l.067-.061a.908.908,0,0,1,1.282.049.906.906,0,0,1-.049,1.282l-.064.061a.908.908,0,0,1-.618.243A.9.9,0,0,1-1283.35,12120.388Zm-77.749-3.88-.061-.07a.913.913,0,0,1,.082-1.282.911.911,0,0,1,1.282.083l.055.063a.907.907,0,0,1-.076,1.282.9.9,0,0,1-.6.229A.914.914,0,0,1-1361.1,12116.508Zm81.6.067a.907.907,0,0,1-.076-1.282l.055-.064a.907.907,0,0,1,1.282-.079.906.906,0,0,1,.079,1.279l-.058.07a.918.918,0,0,1-.679.3A.9.9,0,0,1-1279.494,12116.575Zm-85.052-4.367-.052-.076a.911.911,0,0,1,.2-1.268.915.915,0,0,1,1.27.207l.049.07a.907.907,0,0,1-.2,1.27.911.911,0,0,1-.53.171A.913.913,0,0,1-1364.546,12112.208Zm88.512.191a.906.906,0,0,1-.2-1.267l.049-.07a.908.908,0,0,1,1.267-.207.906.906,0,0,1,.207,1.267l-.052.073a.915.915,0,0,1-.737.375A.906.906,0,0,1-1276.034,12112.4Zm-98.757-32.6a54.778,54.778,0,0,1,4.334-21.458,54.949,54.949,0,0,1,11.813-17.524A54.977,54.977,0,0,1-1341.12,12029a54.792,54.792,0,0,1,21.462-4.33v1.361a53.83,53.83,0,0,0-53.771,53.768,53.732,53.732,0,0,0,7.224,26.938l-1.179.686A55.122,55.122,0,0,1-1374.791,12079.8Zm101.677,26.938a53.059,53.059,0,0,0,7.026-22.3,4.73,4.73,0,0,1-3.846-4.642,4.732,4.732,0,0,1,3.846-4.641,53.955,53.955,0,0,0-53.57-49.127v-1.361a54.941,54.941,0,0,1,37.606,14.815,54.924,54.924,0,0,1,17.326,35.614,4.732,4.732,0,0,1,4.194,4.021v1.361a4.738,4.738,0,0,1-4.194,4.021,54.434,54.434,0,0,1-7.209,22.917Zm4.541-26.937a3.37,3.37,0,0,0,3.365,3.365,3.367,3.367,0,0,0,3.362-3.365,3.365,3.365,0,0,0-3.362-3.362A3.368,3.368,0,0,0-1268.573,12079.8Zm1.075,0a2.289,2.289,0,0,1,2.29-2.287,2.286,2.286,0,0,1,2.287,2.287,2.289,2.289,0,0,1-2.287,2.291A2.292,2.292,0,0,1-1267.5,12079.8Z" transform="translate(2448.432 -11647.97)" fill="#758ca3"/>
        <g id="Icon_Response" transform="translate(518.209 27.667)">
          <path id="Path-9" data-name="Path" d="M946.59,816.626a12.44,12.44,0,1,1,12.44-12.44A12.454,12.454,0,0,1,946.59,816.626Z" transform="translate(-336.09 -400.514)" fill="none" stroke="#fff" stroke-width="1.3"/>
          <path id="Path-10" data-name="Path" d="M932.842,770.841a.814.814,0,0,0-.222.031l-5.955,1.68a.818.818,0,0,0-.6.753l-.212,5.1a16.241,16.241,0,0,0-2.316,1.826l-5.1-1.013a.806.806,0,0,0-.159-.016.819.819,0,0,0-.714.419l-3.017,5.389a.818.818,0,0,0,.113.955l3.534,3.824a22.635,22.635,0,0,0-.325,2.91l-4.262,2.864a.817.817,0,0,0-.331.9l1.68,5.955a.818.818,0,0,0,.754.6l5.1.212a16.237,16.237,0,0,0,1.826,2.316l-1.013,5.1a.819.819,0,0,0,.4.873l5.389,3.017a.817.817,0,0,0,.955-.113l3.824-3.533a22.571,22.571,0,0,0,2.91.324l2.864,4.263a.817.817,0,0,0,.9.331l5.955-1.68a.819.819,0,0,0,.6-.754l.212-5.1a16.2,16.2,0,0,0,2.316-1.825l5.1,1.012a.816.816,0,0,0,.873-.4l3.017-5.389a.819.819,0,0,0-.113-.955l-3.534-3.824a22.637,22.637,0,0,0,.325-2.91l4.262-2.863a.818.818,0,0,0,.331-.9l-1.68-5.955a.819.819,0,0,0-.754-.6l-5.1-.212a16.226,16.226,0,0,0-1.826-2.316l1.013-5.1a.819.819,0,0,0-.4-.873l-5.389-3.017a.817.817,0,0,0-.955.112l-3.824,3.534a22.535,22.535,0,0,0-2.91-.325l-2.864-4.262a.818.818,0,0,0-.679-.362Z" transform="translate(-325.245 -389.67)" fill="none" stroke="#fff" stroke-width="1.3"/>
        </g>
      </g>
    </g>
  </g>
</svg>
