<svg xmlns="http://www.w3.org/2000/svg" xmlns:xlink="http://www.w3.org/1999/xlink" width="539.34" height="225.794" viewBox="0 0 539.34 225.794">
  <defs>
    <clipPath id="clip-path">
      <rect width="10" height="336" fill="none"/>
    </clipPath>
    <clipPath id="clip-path-2">
      <rect width="10" height="25" fill="none"/>
    </clipPath>
  </defs>
  <g id="Security_Schema" transform="translate(-355.917 1207.867) rotate(-90)">
    <path id="Text" d="M-35.309-8.7a.15.15,0,0,1-.17.17l-1.292.068a.15.15,0,0,1-.17-.17v-.442a1.572,1.572,0,0,0-.4-1.122,1.369,1.369,0,0,0-1.046-.425,1.342,1.342,0,0,0-1.037.425,1.592,1.592,0,0,0-.391,1.122v6.256A1.592,1.592,0,0,0-39.423-1.7a1.342,1.342,0,0,0,1.037.425A1.369,1.369,0,0,0-37.34-1.7a1.572,1.572,0,0,0,.4-1.122v-.442a.15.15,0,0,1,.17-.17l1.292.068a.15.15,0,0,1,.17.17v.255A3.122,3.122,0,0,1-35.963-.91,2.787,2.787,0,0,1-37.74.085q-.085.034-.034.085a2.15,2.15,0,0,1,.68,1.564,3.592,3.592,0,0,1-.034.391,1.23,1.23,0,0,1-.51.782,1.58,1.58,0,0,1-.867.238,2.221,2.221,0,0,1-.629-.085.176.176,0,0,1-.136-.2l.085-.544q.017-.153.2-.119a.715.715,0,0,0,.17.017.611.611,0,0,0,.451-.179.727.727,0,0,0,.178-.535A1.976,1.976,0,0,0-38.947.119q-.017-.034-.085-.034A2.775,2.775,0,0,1-40.791-.91a3.122,3.122,0,0,1-.655-2.032V-8.976A2.993,2.993,0,0,1-40.6-11.2a3.016,3.016,0,0,1,2.218-.833,3.039,3.039,0,0,1,2.236.833,2.993,2.993,0,0,1,.841,2.227Zm4.641,8.84a3.034,3.034,0,0,1-2.244-.85,3.056,3.056,0,0,1-.85-2.261V-8.908a3.085,3.085,0,0,1,.85-2.269,3.017,3.017,0,0,1,2.244-.858,3.068,3.068,0,0,1,2.27.858,3.068,3.068,0,0,1,.858,2.269v5.933A3.039,3.039,0,0,1-28.4-.714,3.085,3.085,0,0,1-30.668.136Zm0-1.411a1.4,1.4,0,0,0,1.088-.451,1.692,1.692,0,0,0,.408-1.181V-8.993a1.692,1.692,0,0,0-.408-1.181,1.4,1.4,0,0,0-1.088-.45,1.35,1.35,0,0,0-1.062.45,1.715,1.715,0,0,0-.4,1.181v6.086a1.715,1.715,0,0,0,.4,1.181A1.35,1.35,0,0,0-30.668-1.275ZM-25.5,0a.15.15,0,0,1-.17-.17V-11.73a.15.15,0,0,1,.17-.17h1.292a.15.15,0,0,1,.17.17v5.1q0,.051.034.059t.051-.043l2.89-5.168a.247.247,0,0,1,.2-.119h1.394a.143.143,0,0,1,.136.06.139.139,0,0,1-.017.144L-21.964-6.97a.157.157,0,0,0,0,.1L-19.125-.2l.017.068q0,.136-.153.136h-1.411a.187.187,0,0,1-.187-.136l-2.21-5.3q-.017-.085-.085-.017l-.867,1.377A.135.135,0,0,0-24.038-4V-.17a.15.15,0,0,1-.17.17Zm11.322,0a.15.15,0,0,1-.17-.17V-11.73a.15.15,0,0,1,.17-.17h1.292a.15.15,0,0,1,.17.17v5.1q0,.051.034.059t.051-.043l2.89-5.168a.247.247,0,0,1,.2-.119h1.394a.143.143,0,0,1,.136.06.139.139,0,0,1-.017.144L-10.642-6.97a.157.157,0,0,0,0,.1L-7.8-.2l.017.068q0,.136-.153.136H-9.35a.187.187,0,0,1-.187-.136l-2.21-5.3q-.017-.085-.085-.017L-12.7-4.08A.134.134,0,0,0-12.716-4V-.17a.15.15,0,0,1-.17.17Zm12.7,0a.175.175,0,0,1-.187-.153L-2.04-2.108a.057.057,0,0,0-.025-.051.1.1,0,0,0-.06-.017H-4.9a.1.1,0,0,0-.059.017.057.057,0,0,0-.026.051L-5.338-.153A.162.162,0,0,1-5.525,0H-6.817a.156.156,0,0,1-.128-.051A.155.155,0,0,1-6.97-.187l2.533-11.56A.175.175,0,0,1-4.25-11.9h1.513a.162.162,0,0,1,.187.153L0-.187v.034A.135.135,0,0,1-.153,0ZM-4.692-3.536q0,.068.051.068H-2.38q.051,0,.051-.068L-3.485-9.571Q-3.5-9.6-3.519-9.6t-.034.034ZM5.984-11.9a.15.15,0,0,1,.17.17v1.071a.15.15,0,0,1-.17.17H3.757a.06.06,0,0,0-.068.068V-.17a.15.15,0,0,1-.17.17H2.227a.15.15,0,0,1-.17-.17V-10.421a.06.06,0,0,0-.068-.068H-.119a.15.15,0,0,1-.17-.17V-11.73a.15.15,0,0,1,.17-.17Zm7.021.119a.221.221,0,0,1,.2-.119H14.5a.15.15,0,0,1,.17.17V-.17A.15.15,0,0,1,14.5,0H13.209a.15.15,0,0,1-.17-.17V-8.6q0-.051-.025-.051a.093.093,0,0,0-.06.034L11.322-5.576a.165.165,0,0,1-.153.119.165.165,0,0,1-.153-.119L9.4-8.6a.093.093,0,0,0-.06-.034q-.026,0-.025.051V-.17a.15.15,0,0,1-.17.17H7.854a.15.15,0,0,1-.17-.17V-11.73a.15.15,0,0,1,.17-.17H9.146a.247.247,0,0,1,.2.119l1.785,3.2a.069.069,0,0,0,.051.017.069.069,0,0,0,.051-.017ZM21.386,0A.175.175,0,0,1,21.2-.153l-.374-1.955a.057.057,0,0,0-.026-.051.1.1,0,0,0-.059-.017H17.969a.1.1,0,0,0-.059.017.057.057,0,0,0-.025.051L17.527-.153A.162.162,0,0,1,17.34,0H16.048a.156.156,0,0,1-.128-.051.155.155,0,0,1-.026-.136l2.533-11.56a.175.175,0,0,1,.187-.153h1.513a.162.162,0,0,1,.187.153l2.55,11.56v.034A.135.135,0,0,1,22.712,0ZM18.173-3.536q0,.068.051.068h2.261q.051,0,.051-.068L19.38-9.571q-.017-.034-.034-.034t-.034.034ZM28.934-11.73a.15.15,0,0,1,.17-.17h1.275a.15.15,0,0,1,.17.17V-.17a.15.15,0,0,1-.17.17H28.917a.187.187,0,0,1-.187-.136L25.84-7.905a.041.041,0,0,0-.051-.025.04.04,0,0,0-.034.042L25.772-.17A.15.15,0,0,1,25.6,0H24.31a.15.15,0,0,1-.17-.17V-11.73a.15.15,0,0,1,.17-.17h1.445a.187.187,0,0,1,.187.136L28.849-4q.017.051.051.043t.034-.059ZM32.827,0a.15.15,0,0,1-.17-.17V-11.73a.15.15,0,0,1,.17-.17h1.292a.15.15,0,0,1,.17.17V-1.479a.06.06,0,0,0,.068.068h3.808a.15.15,0,0,1,.17.17V-.17a.15.15,0,0,1-.17.17Zm6.919,0a.15.15,0,0,1-.17-.17V-11.73a.15.15,0,0,1,.17-.17h1.292a.15.15,0,0,1,.17.17V-.17a.15.15,0,0,1-.17.17ZM-25.169,17.136a3.052,3.052,0,0,1-2.219-.816,2.87,2.87,0,0,1-.841-2.159V7.939a2.87,2.87,0,0,1,.841-2.159,3.052,3.052,0,0,1,2.219-.816,3.081,3.081,0,0,1,2.227.816,2.876,2.876,0,0,1,.85,2.176V8.67a.15.15,0,0,1-.17.17h-1.292a.15.15,0,0,1-.17-.17V7.922a1.572,1.572,0,0,0-.4-1.122,1.369,1.369,0,0,0-1.046-.425,1.369,1.369,0,0,0-1.045.425,1.572,1.572,0,0,0-.4,1.122v6.256a1.572,1.572,0,0,0,.4,1.122,1.369,1.369,0,0,0,1.045.425,1.369,1.369,0,0,0,1.046-.425,1.572,1.572,0,0,0,.4-1.122v-1.87a.06.06,0,0,0-.068-.068h-1.292a.15.15,0,0,1-.17-.17V11.016a.15.15,0,0,1,.17-.17h2.822a.15.15,0,0,1,.17.17v3.145a2.855,2.855,0,0,1-.85,2.159A3.081,3.081,0,0,1-25.169,17.136Zm7.939,0a2.874,2.874,0,0,1-2.235-.927,3.488,3.488,0,0,1-.842-2.439V5.27a.15.15,0,0,1,.17-.17h1.292a.15.15,0,0,1,.17.17v8.67a1.989,1.989,0,0,0,.4,1.292,1.281,1.281,0,0,0,1.045.493,1.3,1.3,0,0,0,1.063-.493,1.989,1.989,0,0,0,.4-1.292V5.27a.15.15,0,0,1,.17-.17h1.292a.15.15,0,0,1,.17.17v8.5a3.467,3.467,0,0,1-.85,2.439A2.9,2.9,0,0,1-17.23,17.136Zm1.377-13.4a1.059,1.059,0,0,1-.782-.306,1.059,1.059,0,0,1-.306-.782,1.059,1.059,0,0,1,.306-.782,1.059,1.059,0,0,1,.782-.306,1.059,1.059,0,0,1,.782.306,1.059,1.059,0,0,1,.306.782,1.059,1.059,0,0,1-.306.782A1.059,1.059,0,0,1-15.853,3.74Zm-2.754,0a1.059,1.059,0,0,1-.782-.306,1.059,1.059,0,0,1-.306-.782,1.059,1.059,0,0,1,.306-.782,1.059,1.059,0,0,1,.782-.306,1.059,1.059,0,0,1,.782.306,1.059,1.059,0,0,1,.306.782,1.059,1.059,0,0,1-.306.782A1.059,1.059,0,0,1-18.607,3.74ZM-10,17a.175.175,0,0,1-.187-.153L-12.64,5.287V5.253a.135.135,0,0,1,.153-.153h1.411a.162.162,0,0,1,.187.153l1.615,8.823q.017.034.034.034t.034-.034l1.581-8.823A.175.175,0,0,1-7.438,5.1h1.36q.187,0,.153.187l-2.448,11.56A.162.162,0,0,1-8.56,17ZM1.351,6.341a.15.15,0,0,1-.17.17H-2.644a.06.06,0,0,0-.068.068v3.689a.06.06,0,0,0,.068.068H-.3a.15.15,0,0,1,.17.17v1.071a.15.15,0,0,1-.17.17H-2.644a.06.06,0,0,0-.068.068v3.706a.06.06,0,0,0,.068.068H1.181a.15.15,0,0,1,.17.17V16.83a.15.15,0,0,1-.17.17H-4.174a.15.15,0,0,1-.17-.17V5.27a.15.15,0,0,1,.17-.17H1.181a.15.15,0,0,1,.17.17ZM7.794,5.27a.15.15,0,0,1,.17-.17H9.239a.15.15,0,0,1,.17.17V16.83a.15.15,0,0,1-.17.17H7.777a.187.187,0,0,1-.187-.136L4.7,9.095a.041.041,0,0,0-.051-.025.04.04,0,0,0-.034.042l.017,7.718a.15.15,0,0,1-.17.17H3.17A.15.15,0,0,1,3,16.83V5.27a.15.15,0,0,1,.17-.17H4.615a.187.187,0,0,1,.187.136L7.709,13q.017.051.051.043t.034-.059ZM11.688,17a.15.15,0,0,1-.17-.17V5.27a.15.15,0,0,1,.17-.17H12.98a.15.15,0,0,1,.17.17V15.521a.06.06,0,0,0,.068.068h3.808a.15.15,0,0,1,.17.17V16.83a.15.15,0,0,1-.17.17Zm6.919,0a.15.15,0,0,1-.17-.17V5.27a.15.15,0,0,1,.17-.17H19.9a.15.15,0,0,1,.17.17V16.83a.15.15,0,0,1-.17.17Zm.646-13.26a1.048,1.048,0,0,1-1.088-1.088,1.088,1.088,0,1,1,2.176,0A1.048,1.048,0,0,1,19.253,3.74ZM22.347,17a.15.15,0,0,1-.17-.17V5.27a.15.15,0,0,1,.17-.17h1.292a.15.15,0,0,1,.17.17v5.1q0,.051.034.059t.051-.043l2.89-5.168a.247.247,0,0,1,.2-.119h1.394a.143.143,0,0,1,.136.06A.139.139,0,0,1,28.5,5.3L25.883,10.03a.157.157,0,0,0,0,.1L28.722,16.8l.017.068q0,.136-.153.136H27.175a.187.187,0,0,1-.187-.136l-2.21-5.3q-.017-.085-.085-.017l-.867,1.377a.135.135,0,0,0-.017.085V16.83a.15.15,0,0,1-.17.17Z" transform="translate(999.209 419.667) rotate(90)" fill="#004378"/>
    <path id="Text-2" data-name="Text" d="M-35.878.136a2.9,2.9,0,0,1-2.167-.842,3.011,3.011,0,0,1-.825-2.2v-.442a.15.15,0,0,1,.17-.17h1.258a.15.15,0,0,1,.17.17v.357a1.885,1.885,0,0,0,.391,1.25,1.249,1.249,0,0,0,1,.467,1.293,1.293,0,0,0,1.012-.451,1.715,1.715,0,0,0,.4-1.181,1.725,1.725,0,0,0-.213-.867,2.514,2.514,0,0,0-.561-.671q-.349-.3-1.131-.876a16.708,16.708,0,0,1-1.36-1.105,4.106,4.106,0,0,1-.833-1.1,3.2,3.2,0,0,1-.34-1.513,2.935,2.935,0,0,1,.816-2.185,2.891,2.891,0,0,1,2.125-.807,2.874,2.874,0,0,1,2.184.867,3.169,3.169,0,0,1,.825,2.278v.425a.15.15,0,0,1-.17.17h-1.258a.15.15,0,0,1-.17-.17v-.459a1.858,1.858,0,0,0-.391-1.233,1.266,1.266,0,0,0-1.02-.467,1.242,1.242,0,0,0-.969.416,1.682,1.682,0,0,0-.374,1.165A1.779,1.779,0,0,0-36.932-7.9a8.091,8.091,0,0,0,1.445,1.249q1.02.765,1.539,1.241a3.549,3.549,0,0,1,.8,1.045,3.028,3.028,0,0,1,.28,1.352A3.144,3.144,0,0,1-33.7-.723,2.9,2.9,0,0,1-35.878.136ZM-31.05,0a.15.15,0,0,1-.17-.17V-11.73a.15.15,0,0,1,.17-.17h1.292a.15.15,0,0,1,.17.17V-.17a.15.15,0,0,1-.17.17Zm3.179,0a.15.15,0,0,1-.17-.17V-1.309a.535.535,0,0,1,.051-.2l3.944-8.891a.056.056,0,0,0,0-.059.057.057,0,0,0-.051-.025h-3.774a.15.15,0,0,1-.17-.17V-11.73a.15.15,0,0,1,.17-.17h5.423a.15.15,0,0,1,.17.17v1.139a.651.651,0,0,1-.051.2L-26.29-1.5a.056.056,0,0,0,0,.06.057.057,0,0,0,.051.026h3.791a.15.15,0,0,1,.17.17V-.17a.15.15,0,0,1-.17.17Zm7.378,0a.15.15,0,0,1-.17-.17V-11.73a.15.15,0,0,1,.17-.17h2.788a2.966,2.966,0,0,1,2.244.867,3.244,3.244,0,0,1,.833,2.346v5.474a3.244,3.244,0,0,1-.833,2.346A2.966,2.966,0,0,1-17.705,0Zm1.462-1.479a.06.06,0,0,0,.068.068l1.241-.017a1.25,1.25,0,0,0,1.037-.5A2.246,2.246,0,0,0-16.277-3.3V-8.6a2.208,2.208,0,0,0-.391-1.377,1.259,1.259,0,0,0-1.054-.51h-1.241a.06.06,0,0,0-.068.068ZM-12.52,0a.15.15,0,0,1-.17-.17V-11.73a.15.15,0,0,1,.17-.17h1.292a.15.15,0,0,1,.17.17V-.17a.15.15,0,0,1-.17.17Zm8.3,0a.2.2,0,0,1-.2-.136L-5.992-5.2a.067.067,0,0,0-.068-.051H-7.25a.06.06,0,0,0-.068.068V-.17a.15.15,0,0,1-.17.17H-8.78a.15.15,0,0,1-.17-.17V-11.73a.15.15,0,0,1,.17-.17h3.043a2.773,2.773,0,0,1,1.53.425,2.81,2.81,0,0,1,1.029,1.2,4.071,4.071,0,0,1,.365,1.759,3.753,3.753,0,0,1-.442,1.862A2.65,2.65,0,0,1-4.462-5.508a.1.1,0,0,0-.034.1L-2.762-.187l.017.068Q-2.745,0-2.9,0ZM-7.25-10.489a.06.06,0,0,0-.068.068v3.808a.06.06,0,0,0,.068.068h1.258A1.362,1.362,0,0,0-4.87-7.081,2.218,2.218,0,0,0-4.445-8.5,2.276,2.276,0,0,0-4.87-9.953a1.362,1.362,0,0,0-1.122-.536ZM4.037-11.781a.221.221,0,0,1,.2-.119H5.533a.15.15,0,0,1,.17.17V-.17a.15.15,0,0,1-.17.17H4.241a.15.15,0,0,1-.17-.17V-8.6q0-.051-.026-.051a.093.093,0,0,0-.06.034L2.354-5.576a.165.165,0,0,1-.153.119.165.165,0,0,1-.153-.119L.433-8.6a.093.093,0,0,0-.059-.034q-.026,0-.026.051V-.17A.15.15,0,0,1,.178,0H-1.114a.15.15,0,0,1-.17-.17V-11.73a.15.15,0,0,1,.17-.17H.178a.247.247,0,0,1,.2.119l1.785,3.2a.069.069,0,0,0,.051.017.069.069,0,0,0,.051-.017ZM12.419,0a.175.175,0,0,1-.187-.153l-.374-1.955a.057.057,0,0,0-.026-.051.1.1,0,0,0-.059-.017H9a.1.1,0,0,0-.059.017.057.057,0,0,0-.026.051L8.56-.153A.162.162,0,0,1,8.373,0H7.081a.156.156,0,0,1-.128-.051.155.155,0,0,1-.025-.136l2.533-11.56a.175.175,0,0,1,.187-.153h1.513a.162.162,0,0,1,.187.153L13.9-.187v.034A.135.135,0,0,1,13.745,0ZM9.206-3.536q0,.068.051.068h2.261q.051,0,.051-.068L10.413-9.571Q10.4-9.6,10.379-9.6t-.034.034ZM14.781,0a.15.15,0,0,1-.17-.17V-1.309a.535.535,0,0,1,.051-.2L18.606-10.4a.056.056,0,0,0,0-.059.057.057,0,0,0-.051-.025H14.781a.15.15,0,0,1-.17-.17V-11.73a.15.15,0,0,1,.17-.17H20.2a.15.15,0,0,1,.17.17v1.139a.651.651,0,0,1-.051.2L16.362-1.5a.056.056,0,0,0,0,.06.057.057,0,0,0,.051.026H20.2a.15.15,0,0,1,.17.17V-.17A.15.15,0,0,1,20.2,0ZM22.16,0a.15.15,0,0,1-.17-.17V-11.73a.15.15,0,0,1,.17-.17h1.292a.15.15,0,0,1,.17.17V-1.479a.06.06,0,0,0,.068.068H27.5a.15.15,0,0,1,.17.17V-.17A.15.15,0,0,1,27.5,0Zm6.919,0a.15.15,0,0,1-.17-.17V-11.73a.15.15,0,0,1,.17-.17h1.292a.15.15,0,0,1,.17.17V-.17a.15.15,0,0,1-.17.17Zm3.74,0a.15.15,0,0,1-.17-.17V-11.73a.15.15,0,0,1,.17-.17h1.292a.15.15,0,0,1,.17.17v5.1q0,.051.034.059t.051-.043l2.89-5.168a.247.247,0,0,1,.2-.119h1.394a.143.143,0,0,1,.136.06.139.139,0,0,1-.017.144L36.354-6.97a.157.157,0,0,0,0,.1L39.194-.2l.017.068q0,.136-.153.136H37.646a.187.187,0,0,1-.187-.136l-2.21-5.3q-.017-.085-.085-.017L34.3-4.08A.134.134,0,0,0,34.281-4V-.17a.15.15,0,0,1-.17.17Zm-53.5,5.1a.15.15,0,0,1,.17.17V6.341a.15.15,0,0,1-.17.17h-2.227a.06.06,0,0,0-.068.068V16.83a.15.15,0,0,1-.17.17h-1.292a.15.15,0,0,1-.17-.17V6.579a.06.06,0,0,0-.068-.068h-2.108a.15.15,0,0,1-.17-.17V5.27a.15.15,0,0,1,.17-.17Zm7.429,1.241a.15.15,0,0,1-.17.17h-3.825a.06.06,0,0,0-.068.068v3.689a.06.06,0,0,0,.068.068H-14.9a.15.15,0,0,1,.17.17v1.071a.15.15,0,0,1-.17.17h-2.346a.06.06,0,0,0-.068.068v3.706a.06.06,0,0,0,.068.068h3.825a.15.15,0,0,1,.17.17V16.83a.15.15,0,0,1-.17.17h-5.355a.15.15,0,0,1-.17-.17V5.27a.15.15,0,0,1,.17-.17h5.355a.15.15,0,0,1,.17.17Zm4.233,10.8a2.9,2.9,0,0,1-2.168-.841,3.011,3.011,0,0,1-.825-2.2v-.442a.15.15,0,0,1,.17-.17h1.258a.15.15,0,0,1,.17.17v.357a1.885,1.885,0,0,0,.391,1.25,1.249,1.249,0,0,0,1,.468,1.293,1.293,0,0,0,1.011-.451,1.715,1.715,0,0,0,.4-1.181,1.725,1.725,0,0,0-.213-.867,2.514,2.514,0,0,0-.561-.671q-.348-.3-1.13-.876a16.708,16.708,0,0,1-1.36-1.1,4.106,4.106,0,0,1-.833-1.1,3.2,3.2,0,0,1-.34-1.513,2.935,2.935,0,0,1,.816-2.185A2.891,2.891,0,0,1-9.1,4.964a2.874,2.874,0,0,1,2.184.867,3.169,3.169,0,0,1,.825,2.278v.425a.15.15,0,0,1-.17.17H-7.523a.15.15,0,0,1-.17-.17V8.075a1.858,1.858,0,0,0-.391-1.233A1.266,1.266,0,0,0-9.1,6.375a1.242,1.242,0,0,0-.969.416,1.682,1.682,0,0,0-.374,1.165A1.779,1.779,0,0,0-10.073,9.1a8.091,8.091,0,0,0,1.445,1.249q1.02.765,1.538,1.241a3.549,3.549,0,0,1,.8,1.045,3.028,3.028,0,0,1,.281,1.352,3.144,3.144,0,0,1-.833,2.286A2.9,2.9,0,0,1-9.019,17.136ZM1.181,5.1a.15.15,0,0,1,.17.17V6.341a.15.15,0,0,1-.17.17H-1.046a.06.06,0,0,0-.068.068V16.83a.15.15,0,0,1-.17.17H-2.576a.15.15,0,0,1-.17-.17V6.579a.06.06,0,0,0-.068-.068H-4.922a.15.15,0,0,1-.17-.17V5.27a.15.15,0,0,1,.17-.17ZM2.983,17a.15.15,0,0,1-.17-.17V5.27a.15.15,0,0,1,.17-.17H4.275a.15.15,0,0,1,.17.17V15.521a.06.06,0,0,0,.068.068H8.321a.15.15,0,0,1,.17.17V16.83a.15.15,0,0,1-.17.17ZM15.427,6.341a.15.15,0,0,1-.17.17H11.432a.06.06,0,0,0-.068.068v3.689a.06.06,0,0,0,.068.068h2.346a.15.15,0,0,1,.17.17v1.071a.15.15,0,0,1-.17.17H11.432a.06.06,0,0,0-.068.068v3.706a.06.06,0,0,0,.068.068h3.825a.15.15,0,0,1,.17.17V16.83a.15.15,0,0,1-.17.17H9.9a.15.15,0,0,1-.17-.17V5.27A.15.15,0,0,1,9.9,5.1h5.355a.15.15,0,0,1,.17.17ZM21.8,17a.2.2,0,0,1-.2-.136L20.035,11.8a.067.067,0,0,0-.068-.051h-1.19a.06.06,0,0,0-.068.068V16.83a.15.15,0,0,1-.17.17H17.247a.15.15,0,0,1-.17-.17V5.27a.15.15,0,0,1,.17-.17H20.29a2.773,2.773,0,0,1,1.53.425,2.81,2.81,0,0,1,1.028,1.2,4.071,4.071,0,0,1,.365,1.759,3.753,3.753,0,0,1-.442,1.862,2.65,2.65,0,0,1-1.207,1.148.1.1,0,0,0-.034.1l1.734,5.219.017.068q0,.119-.153.119ZM18.777,6.511a.06.06,0,0,0-.068.068v3.808a.06.06,0,0,0,.068.068h1.258a1.362,1.362,0,0,0,1.122-.536A2.218,2.218,0,0,0,21.582,8.5a2.276,2.276,0,0,0-.425-1.453,1.362,1.362,0,0,0-1.122-.536ZM24.948,17a.15.15,0,0,1-.17-.17V5.27a.15.15,0,0,1,.17-.17H26.24a.15.15,0,0,1,.17.17V16.83a.15.15,0,0,1-.17.17Zm.646-13.26a1.048,1.048,0,0,1-1.088-1.088,1.088,1.088,0,1,1,2.176,0A1.048,1.048,0,0,1,25.594,3.74Z" transform="translate(999.209 523.667) rotate(90)" fill="#004378"/>
    <path id="Text-3" data-name="Text" d="M-15.8.136a2.9,2.9,0,0,1-2.167-.842,3.011,3.011,0,0,1-.825-2.2v-.442a.15.15,0,0,1,.17-.17h1.258a.15.15,0,0,1,.17.17v.357a1.885,1.885,0,0,0,.391,1.25,1.249,1.249,0,0,0,1,.467,1.293,1.293,0,0,0,1.011-.451,1.715,1.715,0,0,0,.4-1.181,1.725,1.725,0,0,0-.212-.867,2.514,2.514,0,0,0-.561-.671q-.348-.3-1.13-.876a16.708,16.708,0,0,1-1.36-1.105,4.106,4.106,0,0,1-.833-1.1,3.2,3.2,0,0,1-.34-1.513,2.935,2.935,0,0,1,.816-2.185,2.891,2.891,0,0,1,2.125-.807,2.874,2.874,0,0,1,2.184.867,3.169,3.169,0,0,1,.825,2.278v.425a.15.15,0,0,1-.17.17h-1.258a.15.15,0,0,1-.17-.17v-.459a1.858,1.858,0,0,0-.391-1.233,1.266,1.266,0,0,0-1.02-.467,1.242,1.242,0,0,0-.969.416,1.682,1.682,0,0,0-.374,1.165A1.779,1.779,0,0,0-16.856-7.9a8.091,8.091,0,0,0,1.445,1.249q1.02.765,1.538,1.241a3.549,3.549,0,0,1,.8,1.045,3.028,3.028,0,0,1,.281,1.352,3.144,3.144,0,0,1-.833,2.287A2.9,2.9,0,0,1-15.8.136Zm7.514,0a3.034,3.034,0,0,1-2.244-.85,3.056,3.056,0,0,1-.85-2.261V-8.908a3.085,3.085,0,0,1,.85-2.269,3.017,3.017,0,0,1,2.244-.858,3.068,3.068,0,0,1,2.27.858,3.068,3.068,0,0,1,.859,2.269v5.933A3.039,3.039,0,0,1-6.018-.714,3.085,3.085,0,0,1-8.288.136Zm0-1.411A1.4,1.4,0,0,0-7.2-1.726a1.692,1.692,0,0,0,.408-1.181V-8.993A1.692,1.692,0,0,0-7.2-10.175a1.4,1.4,0,0,0-1.088-.45,1.35,1.35,0,0,0-1.062.45,1.715,1.715,0,0,0-.4,1.181v6.086a1.715,1.715,0,0,0,.4,1.181A1.35,1.35,0,0,0-8.288-1.275ZM-.467.136A3.052,3.052,0,0,1-2.686-.68a2.87,2.87,0,0,1-.842-2.159V-9.061a2.87,2.87,0,0,1,.842-2.159,3.052,3.052,0,0,1,2.219-.816,3.081,3.081,0,0,1,2.227.816,2.876,2.876,0,0,1,.85,2.176v.714a.15.15,0,0,1-.17.17H1.148a.15.15,0,0,1-.17-.17v-.748a1.572,1.572,0,0,0-.4-1.122,1.369,1.369,0,0,0-1.046-.425,1.369,1.369,0,0,0-1.046.425,1.572,1.572,0,0,0-.4,1.122v6.256a1.572,1.572,0,0,0,.4,1.122,1.369,1.369,0,0,0,1.046.425A1.369,1.369,0,0,0,.578-1.7a1.572,1.572,0,0,0,.4-1.122v-1.87A.06.06,0,0,0,.91-4.76H-.382a.15.15,0,0,1-.17-.17V-5.984a.15.15,0,0,1,.17-.17H2.44a.15.15,0,0,1,.17.17v3.145A2.855,2.855,0,0,1,1.76-.68,3.081,3.081,0,0,1-.467.136Zm0-12.818a1.85,1.85,0,0,1-1.3-.476,1.823,1.823,0,0,1-.586-1.224.15.15,0,0,1,.17-.17h.578a.168.168,0,0,1,.187.17,1.076,1.076,0,0,0,.315.663.883.883,0,0,0,.638.255.883.883,0,0,0,.638-.255,1,1,0,0,0,.3-.663.168.168,0,0,1,.187-.17h.578a.15.15,0,0,1,.17.17,1.84,1.84,0,0,1-.578,1.224A1.819,1.819,0,0,1-.467-12.682ZM7.455.136A2.874,2.874,0,0,1,5.219-.791a3.488,3.488,0,0,1-.842-2.44v-8.5a.15.15,0,0,1,.17-.17H5.84a.15.15,0,0,1,.17.17v8.67a1.989,1.989,0,0,0,.4,1.292,1.281,1.281,0,0,0,1.045.493,1.3,1.3,0,0,0,1.062-.493,1.989,1.989,0,0,0,.4-1.292v-8.67a.15.15,0,0,1,.17-.17h1.292a.15.15,0,0,1,.17.17v8.5A3.467,3.467,0,0,1,9.7-.791,2.9,2.9,0,0,1,7.455.136ZM12.741,0a.15.15,0,0,1-.17-.17V-11.73a.15.15,0,0,1,.17-.17h1.292a.15.15,0,0,1,.17.17v5.1q0,.051.034.059t.051-.043l2.89-5.168a.247.247,0,0,1,.2-.119h1.394a.143.143,0,0,1,.136.06.139.139,0,0,1-.017.144L16.278-6.97a.157.157,0,0,0,0,.1L19.117-.2l.017.068q0,.136-.153.136H17.569a.187.187,0,0,1-.187-.136l-2.21-5.3q-.017-.085-.085-.017L14.22-4.08A.134.134,0,0,0,14.2-4V-.17a.15.15,0,0,1-.17.17ZM-19.2,17.136a3,3,0,0,1-2.219-.841,3.022,3.022,0,0,1-.841-2.236V8.024A2.993,2.993,0,0,1-21.42,5.8,3.016,3.016,0,0,1-19.2,4.964a3.039,3.039,0,0,1,2.236.833,2.993,2.993,0,0,1,.841,2.227V8.3a.15.15,0,0,1-.17.17l-1.292.068a.15.15,0,0,1-.17-.17V7.922a1.572,1.572,0,0,0-.4-1.122A1.369,1.369,0,0,0-19.2,6.375a1.342,1.342,0,0,0-1.037.425,1.592,1.592,0,0,0-.391,1.122v6.256a1.592,1.592,0,0,0,.391,1.122,1.342,1.342,0,0,0,1.037.425,1.369,1.369,0,0,0,1.046-.425,1.572,1.572,0,0,0,.4-1.122v-.442a.15.15,0,0,1,.17-.17l1.292.068a.15.15,0,0,1,.17.17v.255a3.022,3.022,0,0,1-.841,2.236A3.022,3.022,0,0,1-19.2,17.136Zm7.854,0a2.874,2.874,0,0,1-2.235-.927,3.488,3.488,0,0,1-.842-2.439V5.27a.15.15,0,0,1,.17-.17h1.292a.15.15,0,0,1,.17.17v8.67a1.989,1.989,0,0,0,.4,1.292,1.281,1.281,0,0,0,1.045.493,1.3,1.3,0,0,0,1.063-.493,1.989,1.989,0,0,0,.4-1.292V5.27a.15.15,0,0,1,.17-.17h1.292a.15.15,0,0,1,.17.17v8.5a3.467,3.467,0,0,1-.85,2.439A2.9,2.9,0,0,1-11.347,17.136ZM-9.97,3.74a1.059,1.059,0,0,1-.782-.306,1.059,1.059,0,0,1-.306-.782,1.059,1.059,0,0,1,.306-.782,1.059,1.059,0,0,1,.782-.306,1.059,1.059,0,0,1,.782.306,1.059,1.059,0,0,1,.306.782,1.059,1.059,0,0,1-.306.782A1.059,1.059,0,0,1-9.97,3.74Zm-2.754,0a1.059,1.059,0,0,1-.782-.306,1.059,1.059,0,0,1-.306-.782,1.059,1.059,0,0,1,.306-.782,1.059,1.059,0,0,1,.782-.306,1.059,1.059,0,0,1,.782.306,1.059,1.059,0,0,1,.306.782,1.059,1.059,0,0,1-.306.782A1.059,1.059,0,0,1-12.724,3.74ZM-6.621,17a.15.15,0,0,1-.17-.17V15.691a.535.535,0,0,1,.051-.2L-2.8,6.6a.056.056,0,0,0,0-.059.057.057,0,0,0-.051-.025H-6.621a.15.15,0,0,1-.17-.17V5.27a.15.15,0,0,1,.17-.17H-1.2a.15.15,0,0,1,.17.17V6.409a.651.651,0,0,1-.051.2L-5.04,15.5a.056.056,0,0,0,0,.059.057.057,0,0,0,.051.026H-1.2a.15.15,0,0,1,.17.17V16.83A.15.15,0,0,1-1.2,17ZM.757,17a.15.15,0,0,1-.17-.17V5.27a.15.15,0,0,1,.17-.17H3.545a2.966,2.966,0,0,1,2.244.867,3.244,3.244,0,0,1,.833,2.346v5.474a3.244,3.244,0,0,1-.833,2.346A2.966,2.966,0,0,1,3.545,17Zm1.462-1.479a.06.06,0,0,0,.068.068l1.241-.017a1.25,1.25,0,0,0,1.037-.5A2.246,2.246,0,0,0,4.973,13.7V8.4a2.208,2.208,0,0,0-.391-1.377,1.259,1.259,0,0,0-1.054-.51H2.287a.06.06,0,0,0-.068.068ZM12.861,17a.175.175,0,0,1-.187-.153L12.3,14.892a.057.057,0,0,0-.026-.051.1.1,0,0,0-.059-.017H9.444a.1.1,0,0,0-.059.017.057.057,0,0,0-.026.051L9,16.847A.162.162,0,0,1,8.815,17H7.523a.143.143,0,0,1-.153-.187L9.9,5.253A.175.175,0,0,1,10.09,5.1H11.6a.162.162,0,0,1,.187.153l2.55,11.56v.034a.135.135,0,0,1-.153.153ZM9.648,13.464q0,.068.051.068H11.96q.051,0,.051-.068L10.855,7.429q-.017-.034-.034-.034t-.034.034ZM20.409,5.27a.15.15,0,0,1,.17-.17h1.275a.15.15,0,0,1,.17.17V16.83a.15.15,0,0,1-.17.17H20.392a.187.187,0,0,1-.187-.136l-2.89-7.769a.041.041,0,0,0-.051-.025.04.04,0,0,0-.034.042l.017,7.718a.15.15,0,0,1-.17.17H15.785a.15.15,0,0,1-.17-.17V5.27a.15.15,0,0,1,.17-.17H17.23a.187.187,0,0,1,.187.136L20.324,13q.017.051.051.043t.034-.059Z" transform="translate(999.209 627.667) rotate(90)" fill="#004378"/>
    <path id="Text-4" data-name="Text" d="M-13.32-10.659a.15.15,0,0,1-.17.17H-17.3a.06.06,0,0,0-.068.068v3.689a.06.06,0,0,0,.068.068h2.329a.15.15,0,0,1,.17.17v1.071a.15.15,0,0,1-.17.17H-17.3a.06.06,0,0,0-.068.068V-.17a.15.15,0,0,1-.17.17h-1.292A.15.15,0,0,1-19-.17V-11.73a.15.15,0,0,1,.17-.17h5.338a.15.15,0,0,1,.17.17ZM-7.931,0a.175.175,0,0,1-.187-.153l-.374-1.955a.057.057,0,0,0-.026-.051.1.1,0,0,0-.059-.017h-2.771a.1.1,0,0,0-.059.017.057.057,0,0,0-.026.051L-11.79-.153A.162.162,0,0,1-11.977,0h-1.292A.156.156,0,0,1-13.4-.051a.155.155,0,0,1-.026-.136l2.533-11.56A.175.175,0,0,1-10.7-11.9h1.513A.162.162,0,0,1-9-11.747l2.55,11.56v.034A.135.135,0,0,1-6.6,0Zm-3.213-3.536q0,.068.051.068h2.261q.051,0,.051-.068L-9.937-9.571Q-9.954-9.6-9.971-9.6T-10-9.571ZM-.451,0a.2.2,0,0,1-.2-.136L-2.219-5.2a.067.067,0,0,0-.068-.051h-1.19a.06.06,0,0,0-.068.068V-.17a.15.15,0,0,1-.17.17H-5.007a.15.15,0,0,1-.17-.17V-11.73a.15.15,0,0,1,.17-.17h3.043a2.773,2.773,0,0,1,1.53.425,2.81,2.81,0,0,1,1.029,1.2A4.071,4.071,0,0,1,.96-8.517,3.753,3.753,0,0,1,.518-6.656,2.65,2.65,0,0,1-.689-5.508a.1.1,0,0,0-.034.1L1.011-.187l.017.068Q1.028,0,.875,0ZM-3.477-10.489a.06.06,0,0,0-.068.068v3.808a.06.06,0,0,0,.068.068h1.258A1.362,1.362,0,0,0-1.1-7.081,2.218,2.218,0,0,0-.672-8.5,2.276,2.276,0,0,0-1.1-9.953a1.362,1.362,0,0,0-1.122-.536ZM2.694,0a.15.15,0,0,1-.17-.17V-11.73a.15.15,0,0,1,.17-.17H3.986a.15.15,0,0,1,.17.17v5.1q0,.051.034.059t.051-.043l2.89-5.168a.247.247,0,0,1,.2-.119H8.729a.143.143,0,0,1,.136.06.139.139,0,0,1-.017.144L6.23-6.97a.157.157,0,0,0,0,.1L9.069-.2l.017.068Q9.086,0,8.933,0H7.522a.187.187,0,0,1-.187-.136l-2.21-5.3q-.017-.085-.085-.017L4.173-4.08A.134.134,0,0,0,4.156-4V-.17a.15.15,0,0,1-.17.17Zm7.922,0a.15.15,0,0,1-.17-.17V-11.73a.15.15,0,0,1,.17-.17h1.292a.15.15,0,0,1,.17.17V-1.479a.06.06,0,0,0,.068.068h3.808a.15.15,0,0,1,.17.17V-.17a.15.15,0,0,1-.17.17Zm6.919,0a.15.15,0,0,1-.17-.17V-11.73a.15.15,0,0,1,.17-.17h1.292a.15.15,0,0,1,.17.17V-.17a.15.15,0,0,1-.17.17ZM-40.341,17a.15.15,0,0,1-.17-.17V5.27a.15.15,0,0,1,.17-.17h1.292a.15.15,0,0,1,.17.17V15.521a.06.06,0,0,0,.068.068H-35a.15.15,0,0,1,.17.17V16.83A.15.15,0,0,1-35,17Zm9.571.136a3.034,3.034,0,0,1-2.244-.85,3.056,3.056,0,0,1-.85-2.261V8.092a3.085,3.085,0,0,1,.85-2.269,3.017,3.017,0,0,1,2.244-.858,3.068,3.068,0,0,1,2.27.858,3.068,3.068,0,0,1,.858,2.269v5.933a3.039,3.039,0,0,1-.858,2.261A3.085,3.085,0,0,1-30.77,17.136Zm0-1.411a1.4,1.4,0,0,0,1.088-.451,1.692,1.692,0,0,0,.408-1.181V8.007a1.692,1.692,0,0,0-.408-1.181,1.4,1.4,0,0,0-1.088-.45,1.35,1.35,0,0,0-1.062.45,1.715,1.715,0,0,0-.4,1.181v6.086a1.715,1.715,0,0,0,.4,1.181A1.35,1.35,0,0,0-30.77,15.725ZM-25.6,17a.15.15,0,0,1-.17-.17V5.27a.15.15,0,0,1,.17-.17h1.292a.15.15,0,0,1,.17.17v5.1q0,.051.034.059t.051-.043l2.89-5.168a.247.247,0,0,1,.2-.119h1.394a.143.143,0,0,1,.136.06.139.139,0,0,1-.017.144l-2.618,4.726a.157.157,0,0,0,0,.1l2.839,6.664.017.068q0,.136-.153.136h-1.411a.187.187,0,0,1-.187-.136l-2.21-5.3q-.017-.085-.085-.017l-.867,1.377A.134.134,0,0,0-24.14,13V16.83a.15.15,0,0,1-.17.17Zm12.7,0a.175.175,0,0,1-.187-.153l-.374-1.955a.057.057,0,0,0-.026-.051.1.1,0,0,0-.059-.017H-16.32a.1.1,0,0,0-.059.017.057.057,0,0,0-.025.051l-.357,1.955a.162.162,0,0,1-.187.153h-1.292a.156.156,0,0,1-.128-.051.155.155,0,0,1-.025-.136l2.533-11.56a.175.175,0,0,1,.187-.153h1.513a.162.162,0,0,1,.187.153l2.55,11.56v.034a.135.135,0,0,1-.153.153Zm-3.213-3.536q0,.068.051.068H-13.8q.051,0,.051-.068l-1.156-6.035q-.017-.034-.034-.034t-.034.034Zm8.194,3.672a2.9,2.9,0,0,1-2.168-.841,3.011,3.011,0,0,1-.825-2.2v-.442a.15.15,0,0,1,.17-.17h1.258a.15.15,0,0,1,.17.17v.357a1.885,1.885,0,0,0,.391,1.25,1.249,1.249,0,0,0,1,.468,1.293,1.293,0,0,0,1.011-.451,1.715,1.715,0,0,0,.4-1.181,1.725,1.725,0,0,0-.213-.867,2.514,2.514,0,0,0-.561-.671q-.349-.3-1.13-.876a16.708,16.708,0,0,1-1.36-1.1,4.106,4.106,0,0,1-.833-1.1,3.2,3.2,0,0,1-.34-1.513,2.935,2.935,0,0,1,.816-2.185,2.891,2.891,0,0,1,2.125-.807,2.874,2.874,0,0,1,2.184.867A3.169,3.169,0,0,1-5,8.109v.425a.15.15,0,0,1-.17.17H-6.426a.15.15,0,0,1-.17-.17V8.075a1.858,1.858,0,0,0-.391-1.233,1.266,1.266,0,0,0-1.02-.467,1.242,1.242,0,0,0-.969.416A1.682,1.682,0,0,0-9.35,7.956,1.779,1.779,0,0,0-8.976,9.1a8.091,8.091,0,0,0,1.445,1.249q1.02.765,1.538,1.241a3.549,3.549,0,0,1,.8,1.045,3.028,3.028,0,0,1,.281,1.352,3.144,3.144,0,0,1-.833,2.286A2.9,2.9,0,0,1-7.922,17.136Zm6.358-.153a.15.15,0,0,1-.17-.17V11.951l-.017-.085L-4.114,5.287l-.017-.068q0-.119.153-.119h1.36a.2.2,0,0,1,.2.136L-.969,9.928a.054.054,0,0,0,.051.034.054.054,0,0,0,.051-.034L.578,5.236a.2.2,0,0,1,.2-.136h1.36q.187,0,.136.187L-.085,11.866l-.017.085v4.862a.15.15,0,0,1-.17.17Zm8.058.153a3.034,3.034,0,0,1-2.244-.85,3.056,3.056,0,0,1-.85-2.261V8.092a3.085,3.085,0,0,1,.85-2.269,3.017,3.017,0,0,1,2.244-.858,3.068,3.068,0,0,1,2.27.858,3.068,3.068,0,0,1,.858,2.269v5.933a3.039,3.039,0,0,1-.858,2.261A3.085,3.085,0,0,1,6.494,17.136Zm0-1.411a1.4,1.4,0,0,0,1.088-.451,1.692,1.692,0,0,0,.408-1.181V8.007a1.692,1.692,0,0,0-.408-1.181,1.4,1.4,0,0,0-1.088-.45,1.35,1.35,0,0,0-1.062.45,1.715,1.715,0,0,0-.4,1.181v6.086a1.715,1.715,0,0,0,.4,1.181A1.35,1.35,0,0,0,6.494,15.725ZM16.286,5.27a.15.15,0,0,1,.17-.17h1.275a.15.15,0,0,1,.17.17V16.83a.15.15,0,0,1-.17.17H16.269a.187.187,0,0,1-.187-.136l-2.89-7.769a.041.041,0,0,0-.051-.025.04.04,0,0,0-.034.042l.017,7.718a.15.15,0,0,1-.17.17H11.662a.15.15,0,0,1-.17-.17V5.27a.15.15,0,0,1,.17-.17h1.445a.187.187,0,0,1,.187.136L16.2,13q.017.051.051.043t.034-.059ZM20.179,17a.15.15,0,0,1-.17-.17V5.27a.15.15,0,0,1,.17-.17h1.292a.15.15,0,0,1,.17.17V15.521a.06.06,0,0,0,.068.068h3.808a.15.15,0,0,1,.17.17V16.83a.15.15,0,0,1-.17.17Zm11.985,0a.175.175,0,0,1-.187-.153L31.6,14.892a.057.057,0,0,0-.026-.051.1.1,0,0,0-.059-.017H28.747a.1.1,0,0,0-.059.017.057.057,0,0,0-.025.051L28.3,16.847a.162.162,0,0,1-.187.153H26.826a.143.143,0,0,1-.153-.187l2.533-11.56a.175.175,0,0,1,.187-.153h1.513a.162.162,0,0,1,.187.153l2.55,11.56v.034A.135.135,0,0,1,33.49,17Zm-3.213-3.536q0,.068.051.068h2.261q.051,0,.051-.068L30.158,7.429q-.017-.034-.034-.034t-.034.034ZM39.644,17a.2.2,0,0,1-.2-.136L37.876,11.8a.067.067,0,0,0-.068-.051h-1.19a.06.06,0,0,0-.068.068V16.83a.15.15,0,0,1-.17.17H35.088a.15.15,0,0,1-.17-.17V5.27a.15.15,0,0,1,.17-.17h3.043a2.773,2.773,0,0,1,1.53.425,2.81,2.81,0,0,1,1.028,1.2,4.071,4.071,0,0,1,.366,1.759,3.753,3.753,0,0,1-.442,1.862,2.65,2.65,0,0,1-1.207,1.148.1.1,0,0,0-.034.1l1.734,5.219.017.068q0,.119-.153.119ZM36.618,6.511a.06.06,0,0,0-.068.068v3.808a.06.06,0,0,0,.068.068h1.258A1.362,1.362,0,0,0,39,9.919,2.218,2.218,0,0,0,39.423,8.5,2.276,2.276,0,0,0,39,7.047a1.362,1.362,0,0,0-1.122-.536Z" transform="translate(999.209 731.667) rotate(90)" fill="#004378"/>
    <path id="Text-5" data-name="Text" d="M-25.866-1.5a.056.056,0,0,0,0,.06.057.057,0,0,0,.051.026h3.893a.15.15,0,0,1,.17.17V-.17a.15.15,0,0,1-.17.17h-5.712a.15.15,0,0,1-.17-.17V-1.292a.343.343,0,0,1,.068-.221l.527-.782q1.615-2.329,2.5-3.774a6.076,6.076,0,0,0,1.02-2.89,1.937,1.937,0,0,0-.348-1.215,1.1,1.1,0,0,0-.91-.45,1.081,1.081,0,0,0-.9.442,1.8,1.8,0,0,0-.323,1.173v.68a.15.15,0,0,1-.17.17h-1.326a.15.15,0,0,1-.17-.17v-.731a3.094,3.094,0,0,1,.867-2.159,2.831,2.831,0,0,1,2.091-.816,2.663,2.663,0,0,1,2.057.85,3.184,3.184,0,0,1,.782,2.244,5.144,5.144,0,0,1-.3,1.692,9.363,9.363,0,0,1-.91,1.845q-.425.68-1.785,2.7Zm5.185-2.992a.15.15,0,0,1-.17-.17V-5.729a.15.15,0,0,1,.17-.17h4.114a.15.15,0,0,1,.17.17v1.071a.15.15,0,0,1-.17.17Zm11.509-6.171a.15.15,0,0,1-.17.17H-13.15a.06.06,0,0,0-.068.068v3.689a.06.06,0,0,0,.068.068h2.329a.15.15,0,0,1,.17.17v1.071a.15.15,0,0,1-.17.17H-13.15a.06.06,0,0,0-.068.068V-.17a.15.15,0,0,1-.17.17H-14.68a.15.15,0,0,1-.17-.17V-11.73a.15.15,0,0,1,.17-.17h5.338a.15.15,0,0,1,.17.17ZM-3.783,0A.175.175,0,0,1-3.97-.153l-.374-1.955a.057.057,0,0,0-.025-.051.1.1,0,0,0-.06-.017H-7.2a.1.1,0,0,0-.059.017.057.057,0,0,0-.026.051L-7.642-.153A.162.162,0,0,1-7.829,0H-9.121a.156.156,0,0,1-.127-.051.155.155,0,0,1-.026-.136l2.533-11.56a.175.175,0,0,1,.187-.153h1.513a.162.162,0,0,1,.187.153L-2.3-.187v.034A.135.135,0,0,1-2.457,0ZM-7-3.536q0,.068.051.068h2.261q.051,0,.051-.068L-5.789-9.571Q-5.806-9.6-5.823-9.6t-.034.034ZM-.859,0a.15.15,0,0,1-.17-.17V-11.73a.15.15,0,0,1,.17-.17H.433a.15.15,0,0,1,.17.17v5.1q0,.051.034.059t.051-.043l2.89-5.168a.247.247,0,0,1,.2-.119H5.176a.143.143,0,0,1,.136.06A.139.139,0,0,1,5.3-11.7L2.677-6.97a.157.157,0,0,0,0,.1L5.516-.2l.017.068Q5.533,0,5.38,0H3.969a.187.187,0,0,1-.187-.136l-2.21-5.3q-.017-.085-.085-.017L.62-4.08A.134.134,0,0,0,.6-4V-.17A.15.15,0,0,1,.433,0ZM12.623-11.9a.15.15,0,0,1,.17.17v1.071a.15.15,0,0,1-.17.17H10.4a.06.06,0,0,0-.068.068V-.17a.15.15,0,0,1-.17.17H8.866A.15.15,0,0,1,8.7-.17V-10.421a.06.06,0,0,0-.068-.068H6.52a.15.15,0,0,1-.17-.17V-11.73a.15.15,0,0,1,.17-.17ZM16.754.136a3.034,3.034,0,0,1-2.244-.85,3.056,3.056,0,0,1-.85-2.261V-8.908a3.085,3.085,0,0,1,.85-2.269,3.017,3.017,0,0,1,2.244-.858,3.068,3.068,0,0,1,2.27.858,3.068,3.068,0,0,1,.858,2.269v5.933a3.039,3.039,0,0,1-.858,2.261A3.085,3.085,0,0,1,16.754.136Zm0-1.411a1.4,1.4,0,0,0,1.088-.451,1.692,1.692,0,0,0,.408-1.181V-8.993a1.692,1.692,0,0,0-.408-1.181,1.4,1.4,0,0,0-1.088-.45,1.35,1.35,0,0,0-1.062.45,1.715,1.715,0,0,0-.4,1.181v6.086a1.715,1.715,0,0,0,.4,1.181A1.35,1.35,0,0,0,16.754-1.275ZM18.131-13.26a1.059,1.059,0,0,1-.782-.306,1.059,1.059,0,0,1-.306-.782,1.059,1.059,0,0,1,.306-.782,1.059,1.059,0,0,1,.782-.306,1.059,1.059,0,0,1,.782.306,1.059,1.059,0,0,1,.306.782,1.059,1.059,0,0,1-.306.782A1.059,1.059,0,0,1,18.131-13.26Zm-2.754,0a1.059,1.059,0,0,1-.782-.306,1.059,1.059,0,0,1-.306-.782,1.059,1.059,0,0,1,.306-.782,1.059,1.059,0,0,1,.782-.306,1.059,1.059,0,0,1,.782.306,1.059,1.059,0,0,1,.306.782,1.059,1.059,0,0,1-.306.782A1.059,1.059,0,0,1,15.377-13.26ZM26.478,0a.2.2,0,0,1-.2-.136L24.71-5.2a.067.067,0,0,0-.068-.051h-1.19a.06.06,0,0,0-.068.068V-.17a.15.15,0,0,1-.17.17H21.922a.15.15,0,0,1-.17-.17V-11.73a.15.15,0,0,1,.17-.17h3.043a2.773,2.773,0,0,1,1.53.425,2.81,2.81,0,0,1,1.028,1.2,4.071,4.071,0,0,1,.365,1.759,3.753,3.753,0,0,1-.442,1.862A2.65,2.65,0,0,1,26.24-5.508a.1.1,0,0,0-.034.1L27.94-.187l.017.068Q27.957,0,27.8,0ZM23.452-10.489a.06.06,0,0,0-.068.068v3.808a.06.06,0,0,0,.068.068H24.71a1.362,1.362,0,0,0,1.122-.536A2.218,2.218,0,0,0,26.257-8.5a2.276,2.276,0,0,0-.425-1.453,1.362,1.362,0,0,0-1.122-.536ZM-34.136,17a.15.15,0,0,1-.17-.17V5.27a.15.15,0,0,1,.17-.17h2.788a2.966,2.966,0,0,1,2.244.867,3.244,3.244,0,0,1,.833,2.346v5.474a3.244,3.244,0,0,1-.833,2.346A2.966,2.966,0,0,1-31.348,17Zm1.462-1.479a.06.06,0,0,0,.068.068l1.241-.017a1.25,1.25,0,0,0,1.037-.5A2.246,2.246,0,0,0-29.92,13.7V8.4a2.208,2.208,0,0,0-.391-1.377,1.259,1.259,0,0,0-1.054-.51h-1.241a.06.06,0,0,0-.068.068Zm9.2,1.615a3.034,3.034,0,0,1-2.244-.85,3.056,3.056,0,0,1-.85-2.261V8.092a3.085,3.085,0,0,1,.85-2.269,3.017,3.017,0,0,1,2.244-.858,3.068,3.068,0,0,1,2.27.858,3.068,3.068,0,0,1,.858,2.269v5.933a3.039,3.039,0,0,1-.858,2.261A3.085,3.085,0,0,1-23.477,17.136Zm0-1.411a1.4,1.4,0,0,0,1.088-.451,1.692,1.692,0,0,0,.408-1.181V8.007a1.692,1.692,0,0,0-.408-1.181,1.4,1.4,0,0,0-1.088-.45,1.35,1.35,0,0,0-1.062.45,1.715,1.715,0,0,0-.4,1.181v6.086a1.715,1.715,0,0,0,.4,1.181A1.35,1.35,0,0,0-23.477,15.725Zm7.82,1.411a3.052,3.052,0,0,1-2.219-.816,2.87,2.87,0,0,1-.841-2.159V7.939a2.87,2.87,0,0,1,.841-2.159,3.052,3.052,0,0,1,2.219-.816,3.081,3.081,0,0,1,2.227.816,2.876,2.876,0,0,1,.85,2.176V8.67a.15.15,0,0,1-.17.17h-1.292a.15.15,0,0,1-.17-.17V7.922a1.572,1.572,0,0,0-.4-1.122,1.369,1.369,0,0,0-1.046-.425A1.369,1.369,0,0,0-16.7,6.8a1.572,1.572,0,0,0-.4,1.122v6.256a1.572,1.572,0,0,0,.4,1.122,1.369,1.369,0,0,0,1.046.425,1.369,1.369,0,0,0,1.046-.425,1.572,1.572,0,0,0,.4-1.122v-1.87a.06.06,0,0,0-.068-.068h-1.292a.15.15,0,0,1-.17-.17V11.016a.15.15,0,0,1,.17-.17h2.822a.15.15,0,0,1,.17.17v3.145a2.855,2.855,0,0,1-.85,2.159A3.081,3.081,0,0,1-15.657,17.136Zm0-12.818a1.85,1.85,0,0,1-1.3-.476,1.823,1.823,0,0,1-.587-1.224.15.15,0,0,1,.17-.17h.578a.168.168,0,0,1,.187.17,1.076,1.076,0,0,0,.315.663.883.883,0,0,0,.637.255.883.883,0,0,0,.637-.255,1,1,0,0,0,.3-.663.168.168,0,0,1,.187-.17h.578a.15.15,0,0,1,.17.17,1.84,1.84,0,0,1-.578,1.224A1.819,1.819,0,0,1-15.657,4.318ZM-6,17a.2.2,0,0,1-.2-.136L-7.769,11.8a.067.067,0,0,0-.068-.051h-1.19a.06.06,0,0,0-.068.068V16.83a.15.15,0,0,1-.17.17h-1.292a.15.15,0,0,1-.17-.17V5.27a.15.15,0,0,1,.17-.17h3.043a2.773,2.773,0,0,1,1.53.425,2.81,2.81,0,0,1,1.029,1.2A4.071,4.071,0,0,1-4.59,8.483a3.753,3.753,0,0,1-.442,1.862,2.65,2.65,0,0,1-1.207,1.148.1.1,0,0,0-.034.1l1.734,5.219.017.068q0,.119-.153.119ZM-9.027,6.511a.06.06,0,0,0-.068.068v3.808a.06.06,0,0,0,.068.068h1.258a1.362,1.362,0,0,0,1.122-.536A2.218,2.218,0,0,0-6.222,8.5a2.276,2.276,0,0,0-.425-1.453,1.362,1.362,0,0,0-1.122-.536ZM-.034,17.136a2.874,2.874,0,0,1-2.235-.927,3.488,3.488,0,0,1-.842-2.439V5.27a.15.15,0,0,1,.17-.17h1.292a.15.15,0,0,1,.17.17v8.67a1.989,1.989,0,0,0,.4,1.292,1.281,1.281,0,0,0,1.045.493,1.3,1.3,0,0,0,1.063-.493,1.989,1.989,0,0,0,.4-1.292V5.27A.15.15,0,0,1,1.6,5.1H2.89a.15.15,0,0,1,.17.17v8.5a3.467,3.467,0,0,1-.85,2.439A2.9,2.9,0,0,1-.034,17.136ZM5.253,17a.15.15,0,0,1-.17-.17V5.27a.15.15,0,0,1,.17-.17H6.545a.15.15,0,0,1,.17.17V15.521a.06.06,0,0,0,.068.068h3.808a.15.15,0,0,1,.17.17V16.83a.15.15,0,0,1-.17.17Zm11.985,0a.175.175,0,0,1-.187-.153l-.374-1.955a.057.057,0,0,0-.026-.051.1.1,0,0,0-.059-.017H13.821a.1.1,0,0,0-.059.017.057.057,0,0,0-.026.051l-.357,1.955a.162.162,0,0,1-.187.153H11.9a.143.143,0,0,1-.153-.187L14.28,5.253a.175.175,0,0,1,.187-.153H15.98a.162.162,0,0,1,.187.153l2.55,11.56v.034a.135.135,0,0,1-.153.153Zm-3.213-3.536q0,.068.051.068h2.261q.051,0,.051-.068L15.232,7.429Q15.215,7.4,15.2,7.4t-.034.034ZM25.279,5.219a.221.221,0,0,1,.2-.119h1.292a.15.15,0,0,1,.17.17V16.83a.15.15,0,0,1-.17.17H25.483a.15.15,0,0,1-.17-.17V8.4q0-.051-.025-.051a.093.093,0,0,0-.059.034L23.6,11.424a.158.158,0,0,1-.306,0L21.675,8.4a.093.093,0,0,0-.059-.034q-.026,0-.025.051V16.83a.15.15,0,0,1-.17.17H20.128a.15.15,0,0,1-.17-.17V5.27a.15.15,0,0,1,.17-.17H21.42a.247.247,0,0,1,.2.119l1.785,3.2a.085.085,0,0,0,.1,0ZM33.66,17a.175.175,0,0,1-.187-.153L33.1,14.892a.057.057,0,0,0-.026-.051.1.1,0,0,0-.06-.017H30.243a.1.1,0,0,0-.059.017.057.057,0,0,0-.025.051L29.8,16.847a.162.162,0,0,1-.187.153H28.322a.143.143,0,0,1-.153-.187L30.7,5.253a.175.175,0,0,1,.187-.153H32.4a.162.162,0,0,1,.187.153l2.55,11.56v.034a.135.135,0,0,1-.153.153Zm-3.213-3.536q0,.068.051.068h2.261q.051,0,.051-.068L31.654,7.429Q31.637,7.4,31.62,7.4t-.034.034Z" transform="translate(999.209 835.667) rotate(90)" fill="#004378"/>
    <g id="Big_Path" transform="translate(450.24 1557.142) rotate(-90)">
      <path id="Path" d="M676.049,618.945H664.778a2.569,2.569,0,0,0-2.569,2.569v95.874a2.569,2.569,0,0,0,2.569,2.569H885.3" transform="translate(0.427 0.012)" fill="none" stroke="#70a800" stroke-miterlimit="10" stroke-width="1.5"/>
      <path id="Path-2" data-name="Path" d="M977.01,719.957h220.6a2.568,2.568,0,0,0,2.568-2.569V621.514a2.568,2.568,0,0,0-2.568-2.569h-11.465" transform="translate(0.302 0.012)" fill="none" stroke="#70a800" stroke-miterlimit="10" stroke-width="1.5"/>
    </g>
    <g id="Circle" transform="translate(9 4)">
      <g id="Icon_05" transform="translate(0 -8)">
        <path id="Circle_Stroke" d="M7940.691,12311.651a.836.836,0,0,1-.306-1.163.847.847,0,0,1,1.141-.29,44.461,44.461,0,0,0,21.676,5.639,43.98,43.98,0,0,0,31.031-12.746,42.568,42.568,0,0,0,0-61.13,43.973,43.973,0,0,0-31.031-12.748,44.537,44.537,0,0,0-21.218,5.382.851.851,0,0,1-1.138-.3.833.833,0,0,1,.321-1.156,46.154,46.154,0,0,1,22.035-5.611c25.191,0,45.683,20.187,45.683,45s-20.492,45-45.683,45A46.124,46.124,0,0,1,7940.691,12311.651Zm-3.085-2a1.033,1.033,0,0,1-.47-.85.991.991,0,0,1,.188-.584,1,1,0,0,1,1.394-.223,1.019,1.019,0,0,1,.281,1.431,1.006,1.006,0,0,1-.813.415A.98.98,0,0,1,7937.606,12309.647Zm-4.275-2.661a1.04,1.04,0,0,1-.386-.795.984.984,0,0,1,.25-.661,1,1,0,0,1,1.41-.083,1.016,1.016,0,0,1,.136,1.452,1,1,0,0,1-1.41.087Zm-3.054-2.98a1.051,1.051,0,0,1-.312-.729,1,1,0,0,1,1.728-.677,1.019,1.019,0,0,1-.006,1.462,1,1,0,0,1-1.41-.056Zm-2.742-4.182a1.054,1.054,0,0,1-.244-.659.988.988,0,0,1,.4-.8.975.975,0,0,1,.6-.2,1,1,0,0,1,.8.4,1.025,1.025,0,0,1,.231.788.973.973,0,0,1-.386.659.993.993,0,0,1-1.394-.188Zm-2.408-3.719a1.055,1.055,0,0,1-.183-.578,1,1,0,0,1,1.846-.522,1.017,1.017,0,0,1-.293,1.434,1,1,0,0,1-1.37-.333Zm-2.046-3.948a1.072,1.072,0,0,1-.127-.494,1,1,0,0,1,1-1,1.007,1.007,0,0,1,.9.566,1.028,1.028,0,0,1,.071.822,1,1,0,0,1-1.839.1Zm-1.66-4.143a1.1,1.1,0,0,1-.083-.407,1,1,0,0,1,1.935-.341,1.018,1.018,0,0,1-.575,1.345.955.955,0,0,1-.34.06A1,1,0,0,1,7921.42,12288.015Zm-1.258-4.3a1.207,1.207,0,0,1-.049-.312,1,1,0,0,1,.751-.968.974.974,0,0,1,.247-.031,1,1,0,0,1,.968.754,1.018,1.018,0,0,1-.705,1.277.954.954,0,0,1-.247.03A1,1,0,0,1,7920.162,12283.715Zm-.847-4.411a1.585,1.585,0,0,1-.019-.216,1,1,0,0,1,.85-.986,1.064,1.064,0,0,1,.145-.01,1,1,0,0,1,.986.851,1.013,1.013,0,0,1-.825,1.2.91.91,0,0,1-.152.013A1.008,1.008,0,0,1,7919.315,12279.3Zm.572-3.53a1,1,0,0,1-1-.946l0-.12a1,1,0,0,1,.949-1h0a1.01,1.01,0,0,1,1.042.949,1.048,1.048,0,0,1-.254.785.983.983,0,0,1-.689.327Zm-.053-4.4a1,1,0,0,1-.949-1l.006-.12a1,1,0,0,1,1-.946,1.01,1.01,0,0,1,.739.328.988.988,0,0,1,.257.72,1.009,1.009,0,0,1-1,1.014Zm.309-4.39a1,1,0,0,1-.853-.985.8.8,0,0,1,.012-.148,1.024,1.024,0,0,1,1-.918.9.9,0,0,1,.151.012,1,1,0,0,1,.835,1.135,1.022,1.022,0,0,1-1,.918A1.093,1.093,0,0,1,7920.143,12266.981Zm.717-4.337a1,1,0,0,1-.751-.967,1.1,1.1,0,0,1,.028-.245,1.024,1.024,0,0,1,.986-.822,1.1,1.1,0,0,1,.245.031,1,1,0,0,1,.72,1.215,1.014,1.014,0,0,1-.98.816A1.106,1.106,0,0,1,7920.86,12262.645Zm1.128-4.238a1,1,0,0,1-.658-.939.983.983,0,0,1,.059-.337,1.035,1.035,0,0,1,.964-.727.984.984,0,0,1,.34.063.994.994,0,0,1,.593,1.279,1.025,1.025,0,0,1-.958.721A1.049,1.049,0,0,1,7921.989,12258.406Zm1.521-4.1a1,1,0,0,1-.562-.9.992.992,0,0,1,.1-.433,1.039,1.039,0,0,1,.931-.628.954.954,0,0,1,.433.1.994.994,0,0,1,.464,1.329,1.03,1.03,0,0,1-.928.627A1,1,0,0,1,7923.51,12254.308Zm1.907-3.917a1,1,0,0,1-.334-1.369,1.028,1.028,0,0,1,.887-.538,1,1,0,0,1,.85,1.518,1.021,1.021,0,0,1-.887.535A.982.982,0,0,1,7925.417,12250.391Zm2.26-3.693a1.008,1.008,0,0,1-.393-.795.985.985,0,0,1,.2-.6,1.029,1.029,0,0,1,.837-.451.97.97,0,0,1,.6.2,1,1,0,0,1,.195,1.4,1.027,1.027,0,0,1-.837.448A.989.989,0,0,1,7927.677,12246.7Zm2.6-4.18a1,1,0,0,1-.318-.732.977.977,0,0,1,.266-.674,1.043,1.043,0,0,1,.779-.374,1,1,0,0,1,.729,1.678,1.046,1.046,0,0,1-.779.368A.99.99,0,0,1,7930.276,12242.518Zm2.912-2.983a.994.994,0,0,1,.083-1.409,1.036,1.036,0,0,1,.711-.3,1,1,0,0,1,.662,1.746,1.053,1.053,0,0,1-.711.294A.992.992,0,0,1,7933.188,12239.534Zm4.127-2.687a.982.982,0,0,1-.188-.584.994.994,0,0,1,.414-.807,1.051,1.051,0,0,1,.637-.232,1,1,0,0,1,.584,1.809,1.04,1.04,0,0,1-.637.229A1,1,0,0,1,7937.315,12236.848Z" transform="translate(33.659 15429.726) rotate(-143)" fill="#70a800"/>
        <circle id="Circle-2" data-name="Circle" cx="38" cy="38" r="38" transform="translate(1021.209 797.667)" fill="#758ca3"/>
        <path id="_2FA_Icon" data-name="2FA_Icon" d="M11996.441,1403.836a.789.789,0,0,1-.2-1.081,28.014,28.014,0,0,0,4.617-12.507.758.758,0,0,1,.846-.681.772.772,0,0,1,.676.858,29.627,29.627,0,0,1-4.869,13.207.765.765,0,0,1-1.067.2Zm-6-.747a.789.789,0,0,1-.069-1.1,22.806,22.806,0,0,0,5.1-19.334.776.776,0,0,1,.6-.915.763.763,0,0,1,.9.606,24.4,24.4,0,0,1-5.454,20.671.758.758,0,0,1-1.082.072Zm12.778-.565a.777.777,0,0,1-.354-1.037,33.286,33.286,0,0,0,2.173-5.9.765.765,0,0,1,.939-.55.778.778,0,0,1,.542.952,34.99,34.99,0,0,1-2.277,6.177.753.753,0,0,1-1.023.356Zm-17.882-1.633a.778.778,0,0,1,.036-1.1,17.523,17.523,0,0,0,5.284-15,.765.765,0,1,1,1.515-.209,19.069,19.069,0,0,1-5.754,16.343.757.757,0,0,1-1.081-.037Zm-4.158-3.261a.784.784,0,0,1,.107-1.093,12.281,12.281,0,0,0,3.6-5.034.761.761,0,0,1,.993-.443.783.783,0,0,1,.436,1.006,13.825,13.825,0,0,1-4.062,5.674.75.75,0,0,1-.483.175A.764.764,0,0,1,11981.18,1397.631Zm29.348.2a.779.779,0,0,1-.544-.949,38.071,38.071,0,0,0,1.188-12.13.773.773,0,0,1,.719-.824.757.757,0,0,1,.812.724,39.742,39.742,0,0,1-1.234,12.629.77.77,0,0,1-.739.578A.746.746,0,0,1,12010.527,1397.834Zm-32.477-4.282a.783.783,0,0,1,.094-1.093,7.056,7.056,0,0,0,2.354-6.48l-.054-.253a17.31,17.31,0,0,1-.309-2.577.769.769,0,1,1,1.536-.065,14.593,14.593,0,0,0,.215,2.008l.067.325a8.613,8.613,0,0,1-2.822,8.226.754.754,0,0,1-.5.184A.768.768,0,0,1,11978.051,1393.552Zm28.29-.218a.777.777,0,0,1-.631-.894,32.979,32.979,0,0,0-.219-11.836,9.414,9.414,0,0,0-17.146-3.407,9.627,9.627,0,0,0-1.453,6.868l.074.327a14.1,14.1,0,0,1,.193,4.176.768.768,0,1,1-1.526-.162,12.265,12.265,0,0,0-.1-3.345l-.079-.359a11.165,11.165,0,0,1,1.619-8.363,10.942,10.942,0,0,1,19.928,3.96,34.716,34.716,0,0,1,.227,12.4.769.769,0,0,1-.755.649A.92.92,0,0,1,12006.341,1393.334Zm-5.312-6.277a28.191,28.191,0,0,0-.546-5.424l-.044-.225a4.341,4.341,0,0,0-8.478.2.768.768,0,1,1-1.5-.319,5.872,5.872,0,0,1,11.533.037l.185.931h-.021a29.422,29.422,0,0,1,.4,4.8.766.766,0,1,1-1.531,0Zm-25.59-.309a21.718,21.718,0,0,1,1.907-14.026.76.76,0,0,1,1.032-.334.778.778,0,0,1,.329,1.043,20.136,20.136,0,0,0-1.769,13.007.777.777,0,0,1-.6.915.637.637,0,0,1-.154.016A.764.764,0,0,1,11975.438,1386.748Zm35.4-5.19c-.095-.656-.206-1.315-.339-1.971a14.53,14.53,0,0,0-28.623.394.767.767,0,1,1-1.512-.266,16.06,16.06,0,0,1,31.636-.437c.135.687.256,1.371.354,2.052a.772.772,0,0,1-.645.88.732.732,0,0,1-.114.01A.769.769,0,0,1,12010.839,1381.557Zm4.66-3a19.778,19.778,0,0,0-7.978-12.367.789.789,0,0,1-.187-1.083.759.759,0,0,1,1.068-.19,21.346,21.346,0,0,1,8.6,13.338.776.776,0,0,1-.6.912.845.845,0,0,1-.15.016A.77.77,0,0,1,12015.5,1378.562Zm-36.228-7.641a.778.778,0,0,1-.166-1.084,21,21,0,0,1,26.446-6.624.785.785,0,0,1,.353,1.04.763.763,0,0,1-1.027.356,19.485,19.485,0,0,0-24.536,6.143.757.757,0,0,1-1.069.168Z" transform="translate(2441.225 -11160.353) rotate(90)" fill="#fff"/>
      </g>
      <g id="Icon_04" transform="translate(0 204)">
        <path id="Circle_Stroke-2" data-name="Circle_Stroke" d="M7940.691,12311.651a.836.836,0,0,1-.306-1.163.847.847,0,0,1,1.141-.29,44.461,44.461,0,0,0,21.676,5.639,43.98,43.98,0,0,0,31.031-12.746,42.568,42.568,0,0,0,0-61.13,43.973,43.973,0,0,0-31.031-12.748,44.537,44.537,0,0,0-21.218,5.382.851.851,0,0,1-1.138-.3.833.833,0,0,1,.321-1.156,46.154,46.154,0,0,1,22.035-5.611c25.191,0,45.683,20.187,45.683,45s-20.492,45-45.683,45A46.124,46.124,0,0,1,7940.691,12311.651Zm-3.085-2a1.033,1.033,0,0,1-.47-.85.991.991,0,0,1,.188-.584,1,1,0,0,1,1.394-.223,1.019,1.019,0,0,1,.281,1.431,1.006,1.006,0,0,1-.813.415A.98.98,0,0,1,7937.606,12309.647Zm-4.275-2.661a1.04,1.04,0,0,1-.386-.795.984.984,0,0,1,.25-.661,1,1,0,0,1,1.41-.083,1.016,1.016,0,0,1,.136,1.452,1,1,0,0,1-1.41.087Zm-3.054-2.98a1.051,1.051,0,0,1-.312-.729,1,1,0,0,1,1.728-.677,1.019,1.019,0,0,1-.006,1.462,1,1,0,0,1-1.41-.056Zm-2.742-4.182a1.054,1.054,0,0,1-.244-.659.988.988,0,0,1,.4-.8.975.975,0,0,1,.6-.2,1,1,0,0,1,.8.4,1.025,1.025,0,0,1,.231.788.973.973,0,0,1-.386.659.993.993,0,0,1-1.394-.188Zm-2.408-3.719a1.055,1.055,0,0,1-.183-.578,1,1,0,0,1,1.846-.522,1.017,1.017,0,0,1-.293,1.434,1,1,0,0,1-1.37-.333Zm-2.046-3.948a1.072,1.072,0,0,1-.127-.494,1,1,0,0,1,1-1,1.007,1.007,0,0,1,.9.566,1.028,1.028,0,0,1,.071.822,1,1,0,0,1-1.839.1Zm-1.66-4.143a1.1,1.1,0,0,1-.083-.407,1,1,0,0,1,1.935-.341,1.018,1.018,0,0,1-.575,1.345.955.955,0,0,1-.34.06A1,1,0,0,1,7921.42,12288.015Zm-1.258-4.3a1.207,1.207,0,0,1-.049-.312,1,1,0,0,1,.751-.968.974.974,0,0,1,.247-.031,1,1,0,0,1,.968.754,1.018,1.018,0,0,1-.705,1.277.954.954,0,0,1-.247.03A1,1,0,0,1,7920.162,12283.715Zm-.847-4.411a1.585,1.585,0,0,1-.019-.216,1,1,0,0,1,.85-.986,1.064,1.064,0,0,1,.145-.01,1,1,0,0,1,.986.851,1.013,1.013,0,0,1-.825,1.2.91.91,0,0,1-.152.013A1.008,1.008,0,0,1,7919.315,12279.3Zm.572-3.53a1,1,0,0,1-1-.946l0-.12a1,1,0,0,1,.949-1h0a1.01,1.01,0,0,1,1.042.949,1.048,1.048,0,0,1-.254.785.983.983,0,0,1-.689.327Zm-.053-4.4a1,1,0,0,1-.949-1l.006-.12a1,1,0,0,1,1-.946,1.01,1.01,0,0,1,.739.328.988.988,0,0,1,.257.72,1.009,1.009,0,0,1-1,1.014Zm.309-4.39a1,1,0,0,1-.853-.985.8.8,0,0,1,.012-.148,1.024,1.024,0,0,1,1-.918.9.9,0,0,1,.151.012,1,1,0,0,1,.835,1.135,1.022,1.022,0,0,1-1,.918A1.093,1.093,0,0,1,7920.143,12266.981Zm.717-4.337a1,1,0,0,1-.751-.967,1.1,1.1,0,0,1,.028-.245,1.024,1.024,0,0,1,.986-.822,1.1,1.1,0,0,1,.245.031,1,1,0,0,1,.72,1.215,1.014,1.014,0,0,1-.98.816A1.106,1.106,0,0,1,7920.86,12262.645Zm1.128-4.238a1,1,0,0,1-.658-.939.983.983,0,0,1,.059-.337,1.035,1.035,0,0,1,.964-.727.984.984,0,0,1,.34.063.994.994,0,0,1,.593,1.279,1.025,1.025,0,0,1-.958.721A1.049,1.049,0,0,1,7921.989,12258.406Zm1.521-4.1a1,1,0,0,1-.562-.9.992.992,0,0,1,.1-.433,1.039,1.039,0,0,1,.931-.628.954.954,0,0,1,.433.1.994.994,0,0,1,.464,1.329,1.03,1.03,0,0,1-.928.627A1,1,0,0,1,7923.51,12254.308Zm1.907-3.917a1,1,0,0,1-.334-1.369,1.028,1.028,0,0,1,.887-.538,1,1,0,0,1,.85,1.518,1.021,1.021,0,0,1-.887.535A.982.982,0,0,1,7925.417,12250.391Zm2.26-3.693a1.008,1.008,0,0,1-.393-.795.985.985,0,0,1,.2-.6,1.029,1.029,0,0,1,.837-.451.97.97,0,0,1,.6.2,1,1,0,0,1,.195,1.4,1.027,1.027,0,0,1-.837.448A.989.989,0,0,1,7927.677,12246.7Zm2.6-4.18a1,1,0,0,1-.318-.732.977.977,0,0,1,.266-.674,1.043,1.043,0,0,1,.779-.374,1,1,0,0,1,.729,1.678,1.046,1.046,0,0,1-.779.368A.99.99,0,0,1,7930.276,12242.518Zm2.912-2.983a.994.994,0,0,1,.083-1.409,1.036,1.036,0,0,1,.711-.3,1,1,0,0,1,.662,1.746,1.053,1.053,0,0,1-.711.294A.992.992,0,0,1,7933.188,12239.534Zm4.127-2.687a.982.982,0,0,1-.188-.584.994.994,0,0,1,.414-.807,1.051,1.051,0,0,1,.637-.232,1,1,0,0,1,.584,1.809,1.04,1.04,0,0,1-.637.229A1,1,0,0,1,7937.315,12236.848Z" transform="translate(-12087.99 -5897.236) rotate(-31)" fill="#70a800"/>
        <circle id="Circle-3" data-name="Circle" cx="38" cy="38" r="38" transform="translate(1021.209 482.667)" fill="#758ca3"/>
        <g id="Icon_Look" transform="translate(0 -210)">
          <g id="Circle-4" data-name="Circle" transform="translate(1074.209 715.667) rotate(90)" fill="none" stroke="#fff" stroke-width="1.5">
            <circle cx="12.5" cy="12.5" r="12.5" stroke="none"/>
            <circle cx="12.5" cy="12.5" r="11.75" fill="none"/>
          </g>
          <path id="Search_Icon" d="M30.516,34.167a15.516,15.516,0,1,1,3.652-3.652L42.25,38.6a2.544,2.544,0,0,1,0,3.609l-.043.043a2.554,2.554,0,0,1-3.609,0l-8.083-8.083Z" transform="translate(1083.209 706.667) rotate(90)" fill="none" stroke="#fff" stroke-width="1.5" fill-rule="evenodd"/>
          <path id="Path-3" data-name="Path" d="M332.853,278.985a3.479,3.479,0,0,0-1.131-2.541,3.885,3.885,0,0,0-.614-.469,3.535,3.535,0,0,0,.438-.349,3.208,3.208,0,0,0,0-4.743,3.681,3.681,0,0,0-2.316-.977v-1.478a.633.633,0,0,0-.649-.618.641.641,0,0,0-.658.618V269.9h-1.649v-1.471a.641.641,0,0,0-.658-.618.633.633,0,0,0-.649.618V269.9h-2.456a.634.634,0,0,0-.658.609.641.641,0,0,0,.658.618h.353v10.225h-.353a.641.641,0,0,0-.658.618.634.634,0,0,0,.658.609h2.456v1.472a.633.633,0,0,0,.649.618.641.641,0,0,0,.658-.618v-1.472h1.649v1.472a.641.641,0,0,0,.658.618.633.633,0,0,0,.649-.618v-1.477a3.924,3.924,0,0,0,2.492-1.047A3.48,3.48,0,0,0,332.853,278.985Zm-3.836-7.858a2.314,2.314,0,0,1,1.6.626,2.023,2.023,0,0,1,0,3,2.314,2.314,0,0,1-1.6.626h-4.837v-4.255Zm1.779,9.528a2.6,2.6,0,0,1-1.779.7h-4.837V276.61h4.732a.691.691,0,0,0,.1.009,2.559,2.559,0,0,1,1.779.7,2.254,2.254,0,0,1,0,3.341Z" transform="translate(1338.02 400.814) rotate(90)" fill="#fff"/>
        </g>
      </g>
      <g id="Icon_03" transform="translate(0 -4)">
        <path id="Circle_Stroke-3" data-name="Circle_Stroke" d="M7940.691,12311.651a.836.836,0,0,1-.306-1.163.847.847,0,0,1,1.141-.29,44.461,44.461,0,0,0,21.676,5.639,43.98,43.98,0,0,0,31.031-12.746,42.568,42.568,0,0,0,0-61.13,43.973,43.973,0,0,0-31.031-12.748,44.537,44.537,0,0,0-21.218,5.382.851.851,0,0,1-1.138-.3.833.833,0,0,1,.321-1.156,46.154,46.154,0,0,1,22.035-5.611c25.191,0,45.683,20.187,45.683,45s-20.492,45-45.683,45A46.124,46.124,0,0,1,7940.691,12311.651Zm-3.085-2a1.033,1.033,0,0,1-.47-.85.991.991,0,0,1,.188-.584,1,1,0,0,1,1.394-.223,1.019,1.019,0,0,1,.281,1.431,1.006,1.006,0,0,1-.813.415A.98.98,0,0,1,7937.606,12309.647Zm-4.275-2.661a1.04,1.04,0,0,1-.386-.795.984.984,0,0,1,.25-.661,1,1,0,0,1,1.41-.083,1.016,1.016,0,0,1,.136,1.452,1,1,0,0,1-1.41.087Zm-3.054-2.98a1.051,1.051,0,0,1-.312-.729,1,1,0,0,1,1.728-.677,1.019,1.019,0,0,1-.006,1.462,1,1,0,0,1-1.41-.056Zm-2.742-4.182a1.054,1.054,0,0,1-.244-.659.988.988,0,0,1,.4-.8.975.975,0,0,1,.6-.2,1,1,0,0,1,.8.4,1.025,1.025,0,0,1,.231.788.973.973,0,0,1-.386.659.993.993,0,0,1-1.394-.188Zm-2.408-3.719a1.055,1.055,0,0,1-.183-.578,1,1,0,0,1,1.846-.522,1.017,1.017,0,0,1-.293,1.434,1,1,0,0,1-1.37-.333Zm-2.046-3.948a1.072,1.072,0,0,1-.127-.494,1,1,0,0,1,1-1,1.007,1.007,0,0,1,.9.566,1.028,1.028,0,0,1,.071.822,1,1,0,0,1-1.839.1Zm-1.66-4.143a1.1,1.1,0,0,1-.083-.407,1,1,0,0,1,1.935-.341,1.018,1.018,0,0,1-.575,1.345.955.955,0,0,1-.34.06A1,1,0,0,1,7921.42,12288.015Zm-1.258-4.3a1.207,1.207,0,0,1-.049-.312,1,1,0,0,1,.751-.968.974.974,0,0,1,.247-.031,1,1,0,0,1,.968.754,1.018,1.018,0,0,1-.705,1.277.954.954,0,0,1-.247.03A1,1,0,0,1,7920.162,12283.715Zm-.847-4.411a1.585,1.585,0,0,1-.019-.216,1,1,0,0,1,.85-.986,1.064,1.064,0,0,1,.145-.01,1,1,0,0,1,.986.851,1.013,1.013,0,0,1-.825,1.2.91.91,0,0,1-.152.013A1.008,1.008,0,0,1,7919.315,12279.3Zm.572-3.53a1,1,0,0,1-1-.946l0-.12a1,1,0,0,1,.949-1h0a1.01,1.01,0,0,1,1.042.949,1.048,1.048,0,0,1-.254.785.983.983,0,0,1-.689.327Zm-.053-4.4a1,1,0,0,1-.949-1l.006-.12a1,1,0,0,1,1-.946,1.01,1.01,0,0,1,.739.328.988.988,0,0,1,.257.72,1.009,1.009,0,0,1-1,1.014Zm.309-4.39a1,1,0,0,1-.853-.985.8.8,0,0,1,.012-.148,1.024,1.024,0,0,1,1-.918.9.9,0,0,1,.151.012,1,1,0,0,1,.835,1.135,1.022,1.022,0,0,1-1,.918A1.093,1.093,0,0,1,7920.143,12266.981Zm.717-4.337a1,1,0,0,1-.751-.967,1.1,1.1,0,0,1,.028-.245,1.024,1.024,0,0,1,.986-.822,1.1,1.1,0,0,1,.245.031,1,1,0,0,1,.72,1.215,1.014,1.014,0,0,1-.98.816A1.106,1.106,0,0,1,7920.86,12262.645Zm1.128-4.238a1,1,0,0,1-.658-.939.983.983,0,0,1,.059-.337,1.035,1.035,0,0,1,.964-.727.984.984,0,0,1,.34.063.994.994,0,0,1,.593,1.279,1.025,1.025,0,0,1-.958.721A1.049,1.049,0,0,1,7921.989,12258.406Zm1.521-4.1a1,1,0,0,1-.562-.9.992.992,0,0,1,.1-.433,1.039,1.039,0,0,1,.931-.628.954.954,0,0,1,.433.1.994.994,0,0,1,.464,1.329,1.03,1.03,0,0,1-.928.627A1,1,0,0,1,7923.51,12254.308Zm1.907-3.917a1,1,0,0,1-.334-1.369,1.028,1.028,0,0,1,.887-.538,1,1,0,0,1,.85,1.518,1.021,1.021,0,0,1-.887.535A.982.982,0,0,1,7925.417,12250.391Zm2.26-3.693a1.008,1.008,0,0,1-.393-.795.985.985,0,0,1,.2-.6,1.029,1.029,0,0,1,.837-.451.97.97,0,0,1,.6.2,1,1,0,0,1,.195,1.4,1.027,1.027,0,0,1-.837.448A.989.989,0,0,1,7927.677,12246.7Zm2.6-4.18a1,1,0,0,1-.318-.732.977.977,0,0,1,.266-.674,1.043,1.043,0,0,1,.779-.374,1,1,0,0,1,.729,1.678,1.046,1.046,0,0,1-.779.368A.99.99,0,0,1,7930.276,12242.518Zm2.912-2.983a.994.994,0,0,1,.083-1.409,1.036,1.036,0,0,1,.711-.3,1,1,0,0,1,.662,1.746,1.053,1.053,0,0,1-.711.294A.992.992,0,0,1,7933.188,12239.534Zm4.127-2.687a.982.982,0,0,1-.188-.584.994.994,0,0,1,.414-.807,1.051,1.051,0,0,1,.637-.232,1,1,0,0,1,.584,1.809,1.04,1.04,0,0,1-.637.229A1,1,0,0,1,7937.315,12236.848Z" transform="translate(-5813.616 13540.876) rotate(-119)" fill="#70a800"/>
        <circle id="Circle-5" data-name="Circle" cx="38" cy="38" r="38" transform="translate(1021.209 587.667)" fill="#758ca3"/>
        <g id="Icon_Lock_Btc" transform="translate(1248.128 388.343) rotate(90)">
          <g id="Circle-6" data-name="Circle" transform="translate(219.324 177.919)" fill="none" stroke="#fff" stroke-width="1.5">
            <circle cx="17" cy="17" r="17" stroke="none"/>
            <circle cx="17" cy="17" r="16.25" fill="none"/>
          </g>
          <line id="Path-4" data-name="Path" x2="2" transform="translate(223.324 194.919)" fill="none" stroke="#fff" stroke-linecap="round" stroke-width="1.5"/>
          <line id="Path-5" data-name="Path" x2="2" transform="translate(247.324 194.919)" fill="none" stroke="#fff" stroke-linecap="round" stroke-width="1.5"/>
          <line id="Path-6" data-name="Path" x2="2" transform="translate(236.324 207.919) rotate(-90)" fill="none" stroke="#fff" stroke-linecap="round" stroke-width="1.5"/>
          <line id="Path-7" data-name="Path" x2="2" transform="translate(236.324 183.919) rotate(-90)" fill="none" stroke="#fff" stroke-linecap="round" stroke-width="1.5"/>
          <line id="Path-8" data-name="Path" x2="2" transform="translate(226.324 185.873) rotate(45)" fill="none" stroke="#fff" stroke-linecap="round" stroke-width="1.5"/>
          <line id="Path-9" data-name="Path" x2="2" transform="translate(243.749 203.844) rotate(45)" fill="none" stroke="#fff" stroke-linecap="round" stroke-width="1.5"/>
          <line id="Path-10" data-name="Path" x2="2" transform="translate(227.324 204.333) rotate(-45)" fill="none" stroke="#fff" stroke-linecap="round" stroke-width="1.5"/>
          <line id="Path-11" data-name="Path" x2="2" transform="translate(244.324 187.333) rotate(-45)" fill="none" stroke="#fff" stroke-linecap="round" stroke-width="1.5"/>
          <path id="Path-12" data-name="Path" d="M407.788,269.073v-5.26a9.3,9.3,0,1,0-18.6,0v5.264l-1.656,1.44v-6.7a10.954,10.954,0,1,1,21.908,0l.092,6.717Z" transform="translate(-162.212 -87.701)" fill="#fff"/>
          <path id="Path-13" data-name="Path" d="M332.853,278.985a3.479,3.479,0,0,0-1.131-2.541,3.885,3.885,0,0,0-.614-.469,3.535,3.535,0,0,0,.438-.349,3.208,3.208,0,0,0,0-4.743,3.681,3.681,0,0,0-2.316-.977v-1.478a.633.633,0,0,0-.649-.618.641.641,0,0,0-.658.618V269.9h-1.649v-1.471a.641.641,0,0,0-.658-.618.633.633,0,0,0-.649.618V269.9h-2.456a.634.634,0,0,0-.658.609.641.641,0,0,0,.658.618h.353v10.225h-.353a.641.641,0,0,0-.658.618.634.634,0,0,0,.658.609h2.456v1.472a.633.633,0,0,0,.649.618.641.641,0,0,0,.658-.618v-1.472h1.649v1.472a.641.641,0,0,0,.658.618.633.633,0,0,0,.649-.618v-1.477a3.924,3.924,0,0,0,2.492-1.047A3.48,3.48,0,0,0,332.853,278.985Zm-3.836-7.858a2.314,2.314,0,0,1,1.6.626,2.023,2.023,0,0,1,0,3,2.314,2.314,0,0,1-1.6.626h-4.837v-4.255Zm1.779,9.528a2.6,2.6,0,0,1-1.779.7h-4.837V276.61h4.732a.691.691,0,0,0,.1.009,2.559,2.559,0,0,1,1.779.7,2.254,2.254,0,0,1,0,3.341Z" transform="translate(-90.529 -80.892)" fill="#fff"/>
        </g>
      </g>
      <g id="Icon_02" transform="translate(0 -2)">
        <path id="Circle_Stroke-4" data-name="Circle_Stroke" d="M21.806,84.127a.836.836,0,0,1-.306-1.163.847.847,0,0,1,1.141-.29,44.461,44.461,0,0,0,21.676,5.639A43.98,43.98,0,0,0,75.348,75.566a42.568,42.568,0,0,0,0-61.13A43.974,43.974,0,0,0,44.316,1.688,44.537,44.537,0,0,0,23.1,7.07a.851.851,0,0,1-1.138-.3.833.833,0,0,1,.321-1.156A46.154,46.154,0,0,1,44.316,0C69.508,0,90,20.187,90,45S69.508,90,44.316,90A46.124,46.124,0,0,1,21.806,84.127Zm-3.085-2a1.033,1.033,0,0,1-.47-.85.991.991,0,0,1,.188-.584,1,1,0,0,1,1.394-.223,1.019,1.019,0,0,1,.281,1.431,1.006,1.006,0,0,1-.813.415A.98.98,0,0,1,18.721,82.123Zm-4.275-2.661a1.04,1.04,0,0,1-.386-.795.984.984,0,0,1,.25-.661,1,1,0,0,1,1.41-.083,1.016,1.016,0,0,1,.136,1.452,1,1,0,0,1-1.41.087Zm-3.054-2.98a1.051,1.051,0,0,1-.312-.729,1,1,0,0,1,1.728-.677,1.019,1.019,0,0,1-.006,1.462,1,1,0,0,1-1.41-.056ZM8.649,72.3a1.054,1.054,0,0,1-.244-.659.988.988,0,0,1,.4-.8.975.975,0,0,1,.6-.2,1,1,0,0,1,.8.4,1.025,1.025,0,0,1,.231.788.973.973,0,0,1-.386.659A.993.993,0,0,1,8.649,72.3ZM6.241,68.581A1.055,1.055,0,0,1,6.059,68,1,1,0,0,1,7.9,67.48a1.017,1.017,0,0,1-.293,1.434,1,1,0,0,1-1.37-.333ZM4.195,64.633a1.072,1.072,0,0,1-.127-.494,1,1,0,0,1,1-1,1.007,1.007,0,0,1,.9.566,1.028,1.028,0,0,1,.071.822,1,1,0,0,1-1.839.1ZM2.535,60.49a1.1,1.1,0,0,1-.083-.407,1,1,0,0,1,1.935-.341,1.018,1.018,0,0,1-.575,1.345.955.955,0,0,1-.34.06A1,1,0,0,1,2.535,60.49Zm-1.258-4.3a1.207,1.207,0,0,1-.049-.312,1,1,0,0,1,.751-.968.974.974,0,0,1,.247-.031,1,1,0,0,1,.968.754,1.018,1.018,0,0,1-.705,1.277.954.954,0,0,1-.247.03A1,1,0,0,1,1.276,56.19ZM.43,51.779a1.585,1.585,0,0,1-.019-.216,1,1,0,0,1,.85-.986,1.064,1.064,0,0,1,.145-.01,1,1,0,0,1,.986.851,1.013,1.013,0,0,1-.825,1.2.91.91,0,0,1-.152.013A1.008,1.008,0,0,1,.43,51.779ZM1,48.249a1,1,0,0,1-1-.946l0-.12a1,1,0,0,1,.949-1h0A1.01,1.01,0,0,1,2,47.137a1.048,1.048,0,0,1-.254.785.983.983,0,0,1-.689.327Zm-.053-4.4a1,1,0,0,1-.949-1l.006-.12a1,1,0,0,1,1-.946,1.01,1.01,0,0,1,.739.328.988.988,0,0,1,.257.72,1.009,1.009,0,0,1-1,1.014Zm.309-4.39A1,1,0,0,1,.4,38.472a.8.8,0,0,1,.012-.148,1.024,1.024,0,0,1,1-.918.9.9,0,0,1,.151.012A1,1,0,0,1,2.4,38.552a1.022,1.022,0,0,1-1,.918A1.093,1.093,0,0,1,1.258,39.457Zm.717-4.337a1,1,0,0,1-.751-.967,1.1,1.1,0,0,1,.028-.245,1.024,1.024,0,0,1,.986-.822,1.1,1.1,0,0,1,.245.031,1,1,0,0,1,.72,1.215,1.014,1.014,0,0,1-.98.816A1.106,1.106,0,0,1,1.975,35.12ZM3.1,30.882a1,1,0,0,1-.658-.939.983.983,0,0,1,.059-.337,1.035,1.035,0,0,1,.964-.727.984.984,0,0,1,.34.063A.994.994,0,0,1,4.4,30.221a1.025,1.025,0,0,1-.958.721A1.049,1.049,0,0,1,3.1,30.882Zm1.521-4.1a1,1,0,0,1-.562-.9.992.992,0,0,1,.1-.433,1.039,1.039,0,0,1,.931-.628.954.954,0,0,1,.433.1.994.994,0,0,1,.464,1.329,1.03,1.03,0,0,1-.928.627A1,1,0,0,1,4.625,26.783Zm1.907-3.917A1,1,0,0,1,6.2,21.5a1.028,1.028,0,0,1,.887-.538,1,1,0,0,1,.85,1.518,1.021,1.021,0,0,1-.887.535A.982.982,0,0,1,6.532,22.866Zm2.26-3.693a1.008,1.008,0,0,1-.393-.795.985.985,0,0,1,.2-.6,1.029,1.029,0,0,1,.837-.451.97.97,0,0,1,.6.2,1,1,0,0,1,.195,1.4,1.027,1.027,0,0,1-.837.448A.989.989,0,0,1,8.792,19.173Zm2.6-4.18a1,1,0,0,1-.318-.732.977.977,0,0,1,.266-.674,1.043,1.043,0,0,1,.779-.374,1,1,0,0,1,.729,1.678,1.046,1.046,0,0,1-.779.368A.99.99,0,0,1,11.391,14.993ZM14.3,12.01a.994.994,0,0,1,.083-1.409,1.036,1.036,0,0,1,.711-.3,1,1,0,0,1,.662,1.746,1.053,1.053,0,0,1-.711.294A.992.992,0,0,1,14.3,12.01ZM18.43,9.323a.982.982,0,0,1-.188-.584.994.994,0,0,1,.414-.807,1.051,1.051,0,0,1,.637-.232,1,1,0,0,1,.584,1.809,1.04,1.04,0,0,1-.637.229A1,1,0,0,1,18.43,9.323Z" transform="matrix(0.891, 0.454, -0.454, 0.891, 1039.543, 460.141)" fill="#70a800"/>
        <circle id="Circle-7" data-name="Circle" cx="38" cy="38" r="38" transform="translate(1021.209 482.667)" fill="#758ca3"/>
        <g id="Icon_Team" transform="translate(-1)">
          <g id="Path-14" data-name="Path" transform="translate(1268.13 233.482) rotate(90)" fill="none">
            <path d="M287.3,230.091a17.113,17.113,0,0,0,17.112-17.112V189.541a19.765,19.765,0,0,1-6.168.973,18.266,18.266,0,0,1-10.944-3.468,18.264,18.264,0,0,1-10.944,3.468,19.765,19.765,0,0,1-6.168-.973v23.439A17.113,17.113,0,0,0,287.3,230.091Z" stroke="none"/>
            <path d="M 287.2970581054688 228.5914916992188 C 291.4675903320313 228.5914916992188 295.387939453125 226.9675140380859 298.3362731933594 224.0184326171875 C 301.2851257324219 221.0703277587891 302.9091186523438 217.1499481201172 302.9091186523438 212.9794464111328 L 302.9091186523438 191.5076141357422 C 301.3972473144531 191.8441467285156 299.8343505859375 192.0140228271484 298.2410278320313 192.0140228271484 C 294.2080078125 192.0140228271484 290.3665161132813 190.9088592529297 287.2970886230469 188.8833465576172 C 284.2278442382813 190.9088745117188 280.3863220214844 192.0140228271484 276.35302734375 192.0140228271484 C 274.7597045898438 192.0140228271484 273.1968688964844 191.8441467285156 271.6849975585938 191.5076293945313 L 271.6849975585938 212.9794464111328 C 271.6849975585938 217.1499786376953 273.3089904785156 221.0703735351563 276.258056640625 224.0186920166016 C 279.2061462402344 226.9674987792969 283.1265563964844 228.5914916992188 287.2970581054688 228.5914916992188 M 287.2970581054688 230.0914916992188 C 282.7265014648438 230.0914916992188 278.428955078125 228.3116912841797 275.197265625 225.0792236328125 C 271.9647827148438 221.8475646972656 270.1849975585938 217.5500030517578 270.1849975585938 212.9794464111328 L 270.1849975585938 189.5405426025391 C 272.1136169433594 190.1773529052734 274.215087890625 190.5140228271484 276.35302734375 190.5140228271484 C 280.4683227539063 190.5140228271484 284.4052124023438 189.2444763183594 287.2970581054688 187.0460052490234 C 290.1881103515625 189.2436828613281 294.125 190.5140228271484 298.2410278320313 190.5140228271484 C 300.3789672851563 190.5140228271484 302.48046875 190.1773529052734 304.4091186523438 189.5405426025391 L 304.4091186523438 212.9794464111328 C 304.4091186523438 217.5500030517578 302.6292724609375 221.8475646972656 299.3967895507813 225.0792236328125 C 296.1651611328125 228.3116912841797 291.8676147460938 230.0914916992188 287.2970581054688 230.0914916992188 Z" stroke="none" fill="#fff"/>
          </g>
          <path id="Path-15" data-name="Path" d="M331.95,333l-4.944-2.562L322.062,333l.945-5.427-4-3.843,5.528-.792L327.006,318l2.472,4.938,5.528.792-4,3.843L331.95,333Z" transform="translate(1386.04 193.661) rotate(90)" fill="none" stroke="#fff" stroke-width="1.5"/>
        </g>
      </g>
      <g id="Icon_01">
        <path id="Circle_Stroke-5" data-name="Circle_Stroke" d="M7940.691,12311.651a.836.836,0,0,1-.306-1.163.847.847,0,0,1,1.141-.29,44.461,44.461,0,0,0,21.676,5.639,43.98,43.98,0,0,0,31.031-12.746,42.568,42.568,0,0,0,0-61.13,43.973,43.973,0,0,0-31.031-12.748,44.537,44.537,0,0,0-21.218,5.382.851.851,0,0,1-1.138-.3.833.833,0,0,1,.321-1.156,46.154,46.154,0,0,1,22.035-5.611c25.191,0,45.683,20.187,45.683,45s-20.492,45-45.683,45A46.124,46.124,0,0,1,7940.691,12311.651Zm-3.085-2a1.033,1.033,0,0,1-.47-.85.991.991,0,0,1,.188-.584,1,1,0,0,1,1.394-.223,1.019,1.019,0,0,1,.281,1.431,1.006,1.006,0,0,1-.813.415A.98.98,0,0,1,7937.606,12309.647Zm-4.275-2.661a1.04,1.04,0,0,1-.386-.795.984.984,0,0,1,.25-.661,1,1,0,0,1,1.41-.083,1.016,1.016,0,0,1,.136,1.452,1,1,0,0,1-1.41.087Zm-3.054-2.98a1.051,1.051,0,0,1-.312-.729,1,1,0,0,1,1.728-.677,1.019,1.019,0,0,1-.006,1.462,1,1,0,0,1-1.41-.056Zm-2.742-4.182a1.054,1.054,0,0,1-.244-.659.988.988,0,0,1,.4-.8.975.975,0,0,1,.6-.2,1,1,0,0,1,.8.4,1.025,1.025,0,0,1,.231.788.973.973,0,0,1-.386.659.993.993,0,0,1-1.394-.188Zm-2.408-3.719a1.055,1.055,0,0,1-.183-.578,1,1,0,0,1,1.846-.522,1.017,1.017,0,0,1-.293,1.434,1,1,0,0,1-1.37-.333Zm-2.046-3.948a1.072,1.072,0,0,1-.127-.494,1,1,0,0,1,1-1,1.007,1.007,0,0,1,.9.566,1.028,1.028,0,0,1,.071.822,1,1,0,0,1-1.839.1Zm-1.66-4.143a1.1,1.1,0,0,1-.083-.407,1,1,0,0,1,1.935-.341,1.018,1.018,0,0,1-.575,1.345.955.955,0,0,1-.34.06A1,1,0,0,1,7921.42,12288.015Zm-1.258-4.3a1.207,1.207,0,0,1-.049-.312,1,1,0,0,1,.751-.968.974.974,0,0,1,.247-.031,1,1,0,0,1,.968.754,1.018,1.018,0,0,1-.705,1.277.954.954,0,0,1-.247.03A1,1,0,0,1,7920.162,12283.715Zm-.847-4.411a1.585,1.585,0,0,1-.019-.216,1,1,0,0,1,.85-.986,1.064,1.064,0,0,1,.145-.01,1,1,0,0,1,.986.851,1.013,1.013,0,0,1-.825,1.2.91.91,0,0,1-.152.013A1.008,1.008,0,0,1,7919.315,12279.3Zm.572-3.53a1,1,0,0,1-1-.946l0-.12a1,1,0,0,1,.949-1h0a1.01,1.01,0,0,1,1.042.949,1.048,1.048,0,0,1-.254.785.983.983,0,0,1-.689.327Zm-.053-4.4a1,1,0,0,1-.949-1l.006-.12a1,1,0,0,1,1-.946,1.01,1.01,0,0,1,.739.328.988.988,0,0,1,.257.72,1.009,1.009,0,0,1-1,1.014Zm.309-4.39a1,1,0,0,1-.853-.985.8.8,0,0,1,.012-.148,1.024,1.024,0,0,1,1-.918.9.9,0,0,1,.151.012,1,1,0,0,1,.835,1.135,1.022,1.022,0,0,1-1,.918A1.093,1.093,0,0,1,7920.143,12266.981Zm.717-4.337a1,1,0,0,1-.751-.967,1.1,1.1,0,0,1,.028-.245,1.024,1.024,0,0,1,.986-.822,1.1,1.1,0,0,1,.245.031,1,1,0,0,1,.72,1.215,1.014,1.014,0,0,1-.98.816A1.106,1.106,0,0,1,7920.86,12262.645Zm1.128-4.238a1,1,0,0,1-.658-.939.983.983,0,0,1,.059-.337,1.035,1.035,0,0,1,.964-.727.984.984,0,0,1,.34.063.994.994,0,0,1,.593,1.279,1.025,1.025,0,0,1-.958.721A1.049,1.049,0,0,1,7921.989,12258.406Zm1.521-4.1a1,1,0,0,1-.562-.9.992.992,0,0,1,.1-.433,1.039,1.039,0,0,1,.931-.628.954.954,0,0,1,.433.1.994.994,0,0,1,.464,1.329,1.03,1.03,0,0,1-.928.627A1,1,0,0,1,7923.51,12254.308Zm1.907-3.917a1,1,0,0,1-.334-1.369,1.028,1.028,0,0,1,.887-.538,1,1,0,0,1,.85,1.518,1.021,1.021,0,0,1-.887.535A.982.982,0,0,1,7925.417,12250.391Zm2.26-3.693a1.008,1.008,0,0,1-.393-.795.985.985,0,0,1,.2-.6,1.029,1.029,0,0,1,.837-.451.97.97,0,0,1,.6.2,1,1,0,0,1,.195,1.4,1.027,1.027,0,0,1-.837.448A.989.989,0,0,1,7927.677,12246.7Zm2.6-4.18a1,1,0,0,1-.318-.732.977.977,0,0,1,.266-.674,1.043,1.043,0,0,1,.779-.374,1,1,0,0,1,.729,1.678,1.046,1.046,0,0,1-.779.368A.99.99,0,0,1,7930.276,12242.518Zm2.912-2.983a.994.994,0,0,1,.083-1.409,1.036,1.036,0,0,1,.711-.3,1,1,0,0,1,.662,1.746,1.053,1.053,0,0,1-.711.294A.992.992,0,0,1,7933.188,12239.534Zm4.127-2.687a.982.982,0,0,1-.188-.584.994.994,0,0,1,.414-.807,1.051,1.051,0,0,1,.637-.232,1,1,0,0,1,.584,1.809,1.04,1.04,0,0,1-.637.229A1,1,0,0,1,7937.315,12236.848Z" transform="translate(15669.47 -344.998) rotate(120)" fill="#70a800"/>
        <circle id="Circle-8" data-name="Circle" cx="38" cy="38" r="38" transform="translate(1021.209 377.667)" fill="#758ca3"/>
        <g id="Icon_Offline" transform="translate(-1)">
          <g id="Circle-9" data-name="Circle" transform="translate(1065.878 404.667) rotate(90)" fill="none" stroke="#fff" stroke-width="1.5">
            <circle cx="11" cy="11" r="11" stroke="none"/>
            <circle cx="11" cy="11" r="10.25" fill="none"/>
          </g>
          <path id="Icon_Check" d="M1728.5,203.5l3,3,7-8" transform="translate(1257.003 -1317.917) rotate(90)" fill="none" stroke="#fff" stroke-linecap="round" stroke-width="1.5"/>
          <path id="Path-16" data-name="Path" d="M40.9,16.574a10.2,10.2,0,0,0-11.757-5.981A13.739,13.739,0,0,0,17.682,4.5a13.9,13.9,0,0,0-13.8,13.114A9.493,9.493,0,0,0-.5,25.591v2.455H9.593V26.591H.955s0,3.41,0-1a8.036,8.036,0,0,1,4-6.929l.355-.205.009-.409A12.431,12.431,0,0,1,17.682,5.955,12.3,12.3,0,0,1,28.2,11.815l.294.471.531-.157a8.741,8.741,0,0,1,10.649,5.3l.131.348.358.1a8.016,8.016,0,0,1,5.885,7.718c0,4.41,0,1,0,1H36.789v1.455H47.5V25.591A9.477,9.477,0,0,0,40.9,16.574Z" transform="translate(1082.709 392.167) rotate(90)" fill="#fff"/>
        </g>
      </g>
    </g>
    <g id="Mini_Circle" transform="translate(450.24 1557.142) rotate(-90)">
      <g id="Mini_Circle-2" data-name="Mini_Circle" transform="translate(1732.723 -312.514) rotate(90)">
        <g id="Ellipse" transform="translate(926.482 545.248)" fill="#fff" stroke="#70a800" stroke-miterlimit="10" stroke-width="1.5">
          <circle cx="5" cy="5" r="5" stroke="none"/>
          <circle cx="5" cy="5" r="4.25" fill="none"/>
        </g>
        <circle id="Ellipse-2" data-name="Ellipse" cx="2.289" cy="2.289" r="2.289" transform="translate(929.194 547.959)" fill="#70a800"/>
      </g>
      <g id="Mini_Circle-3" data-name="Mini_Circle" transform="translate(1230.723 -312.514) rotate(90)">
        <g id="Ellipse-3" data-name="Ellipse" transform="translate(926.482 545.248)" fill="#fff" stroke="#70a800" stroke-miterlimit="10" stroke-width="1.5">
          <circle cx="5" cy="5" r="5" stroke="none"/>
          <circle cx="5" cy="5" r="4.25" fill="none"/>
        </g>
        <circle id="Ellipse-4" data-name="Ellipse" cx="2.289" cy="2.289" r="2.289" transform="translate(929.194 547.959)" fill="#70a800"/>
      </g>
      <g id="Mini_Circle-4" data-name="Mini_Circle" transform="translate(1437.723 -210.933) rotate(90)">
        <g id="Ellipse-5" data-name="Ellipse" transform="translate(926.482 545.248)" fill="#fff" stroke="#70a800" stroke-miterlimit="10" stroke-width="1.5">
          <circle cx="4.709" cy="4.709" r="4.709" stroke="none"/>
          <circle cx="4.709" cy="4.709" r="3.959" fill="none"/>
        </g>
        <circle id="Ellipse-6" data-name="Ellipse" cx="2.289" cy="2.289" r="2.289" transform="translate(928.903 547.669)" fill="#70a800"/>
      </g>
      <g id="Mini_Circle-5" data-name="Mini_Circle" transform="translate(1525.723 -211.514) rotate(90)">
        <g id="Ellipse-7" data-name="Ellipse" transform="translate(926.482 545.248)" fill="#fff" stroke="#70a800" stroke-miterlimit="10" stroke-width="1.5">
          <circle cx="5" cy="5" r="5" stroke="none"/>
          <circle cx="5" cy="5" r="4.25" fill="none"/>
        </g>
        <circle id="Ellipse-8" data-name="Ellipse" cx="2.289" cy="2.289" r="2.289" transform="translate(929.194 547.959)" fill="#70a800"/>
      </g>
    </g>
    <g id="Connect" transform="translate(1063.79 458.667)" clip-path="url(#clip-path)">
      <g id="Connect-2" data-name="Connect" transform="translate(-1054.79 -454.667)">
        <g id="Mini_Circle-6" data-name="Mini_Circle" transform="translate(1054.79 454.667)" clip-path="url(#clip-path-2)">
          <g id="Mini_Circle-7" data-name="Mini_Circle" transform="translate(-926.482 -545.248)">
            <g id="Ellipse-9" data-name="Ellipse" transform="translate(926.482 545.248)" fill="#fff" stroke="#70a800" stroke-miterlimit="10" stroke-width="1.5">
              <circle cx="5" cy="5" r="5" stroke="none"/>
              <circle cx="5" cy="5" r="4.25" fill="none"/>
            </g>
            <circle id="Ellipse-10" data-name="Ellipse" cx="2" cy="2" r="2" transform="translate(929.324 548.248)" fill="#70a800"/>
          </g>
          <g id="Mini_Circle-8" data-name="Mini_Circle" transform="translate(-926.482 -530.248)">
            <g id="Ellipse-11" data-name="Ellipse" transform="translate(926.482 545.248)" fill="#fff" stroke="#70a800" stroke-miterlimit="10" stroke-width="1.5">
              <circle cx="5" cy="5" r="5" stroke="none"/>
              <circle cx="5" cy="5" r="4.25" fill="none"/>
            </g>
            <circle id="Ellipse-12" data-name="Ellipse" cx="2" cy="2" r="2" transform="translate(929.324 548.248)" fill="#70a800"/>
          </g>
        </g>
        <line id="Line" y2="8" transform="translate(1059.709 463.167)" fill="none" stroke="#70a800" stroke-width="1.5"/>
      </g>
      <g id="Connect-3" data-name="Connect" transform="translate(-1054.79 -351.667)">
        <g id="Mini_Circle-9" data-name="Mini_Circle" transform="translate(1054.79 454.667)" clip-path="url(#clip-path-2)">
          <g id="Mini_Circle-10" data-name="Mini_Circle" transform="translate(-926.482 -545.248)">
            <g id="Ellipse-13" data-name="Ellipse" transform="translate(926.482 545.248)" fill="#fff" stroke="#70a800" stroke-miterlimit="10" stroke-width="1.5">
              <circle cx="5" cy="5" r="5" stroke="none"/>
              <circle cx="5" cy="5" r="4.25" fill="none"/>
            </g>
            <circle id="Ellipse-14" data-name="Ellipse" cx="2" cy="2" r="2" transform="translate(929.324 548.248)" fill="#70a800"/>
          </g>
          <g id="Mini_Circle-11" data-name="Mini_Circle" transform="translate(-926.482 -530.248)">
            <g id="Ellipse-15" data-name="Ellipse" transform="translate(926.482 545.248)" fill="#fff" stroke="#70a800" stroke-miterlimit="10" stroke-width="1.5">
              <circle cx="5" cy="5" r="5" stroke="none"/>
              <circle cx="5" cy="5" r="4.25" fill="none"/>
            </g>
            <circle id="Ellipse-16" data-name="Ellipse" cx="2" cy="2" r="2" transform="translate(929.324 548.248)" fill="#70a800"/>
          </g>
        </g>
        <line id="Line-2" data-name="Line" y2="8" transform="translate(1059.709 463.167)" fill="none" stroke="#70a800" stroke-width="1.5"/>
      </g>
      <g id="Connect-4" data-name="Connect" transform="translate(-1054.79 -248.667)">
        <g id="Mini_Circle-12" data-name="Mini_Circle" transform="translate(1054.79 454.667)" clip-path="url(#clip-path-2)">
          <g id="Mini_Circle-13" data-name="Mini_Circle" transform="translate(-926.482 -545.248)">
            <g id="Ellipse-17" data-name="Ellipse" transform="translate(926.482 545.248)" fill="#fff" stroke="#70a800" stroke-miterlimit="10" stroke-width="1.5">
              <circle cx="5" cy="5" r="5" stroke="none"/>
              <circle cx="5" cy="5" r="4.25" fill="none"/>
            </g>
            <circle id="Ellipse-18" data-name="Ellipse" cx="2" cy="2" r="2" transform="translate(929.324 548.248)" fill="#70a800"/>
          </g>
          <g id="Mini_Circle-14" data-name="Mini_Circle" transform="translate(-926.482 -530.248)">
            <g id="Ellipse-19" data-name="Ellipse" transform="translate(926.482 545.248)" fill="#fff" stroke="#70a800" stroke-miterlimit="10" stroke-width="1.5">
              <circle cx="5" cy="5" r="5" stroke="none"/>
              <circle cx="5" cy="5" r="4.25" fill="none"/>
            </g>
            <circle id="Ellipse-20" data-name="Ellipse" cx="2" cy="2" r="2" transform="translate(929.324 548.248)" fill="#70a800"/>
          </g>
        </g>
        <line id="Line-3" data-name="Line" y2="8" transform="translate(1059.709 463.167)" fill="none" stroke="#70a800" stroke-width="1.5"/>
      </g>
      <g id="Connect-5" data-name="Connect" transform="translate(-1054.79 -145.667)">
        <g id="Mini_Circle-15" data-name="Mini_Circle" transform="translate(1054.79 454.667)" clip-path="url(#clip-path-2)">
          <g id="Mini_Circle-16" data-name="Mini_Circle" transform="translate(-926.482 -545.248)">
            <g id="Ellipse-21" data-name="Ellipse" transform="translate(926.482 545.248)" fill="#fff" stroke="#70a800" stroke-miterlimit="10" stroke-width="1.5">
              <circle cx="5" cy="5" r="5" stroke="none"/>
              <circle cx="5" cy="5" r="4.25" fill="none"/>
            </g>
            <circle id="Ellipse-22" data-name="Ellipse" cx="2" cy="2" r="2" transform="translate(929.324 548.248)" fill="#70a800"/>
          </g>
          <g id="Mini_Circle-17" data-name="Mini_Circle" transform="translate(-926.482 -530.248)">
            <g id="Ellipse-23" data-name="Ellipse" transform="translate(926.482 545.248)" fill="#fff" stroke="#70a800" stroke-miterlimit="10" stroke-width="1.5">
              <circle cx="5" cy="5" r="5" stroke="none"/>
              <circle cx="5" cy="5" r="4.25" fill="none"/>
            </g>
            <circle id="Ellipse-24" data-name="Ellipse" cx="2" cy="2" r="2" transform="translate(929.324 548.248)" fill="#70a800"/>
          </g>
        </g>
        <line id="Line-4" data-name="Line" y2="8" transform="translate(1059.709 463.167)" fill="none" stroke="#70a800" stroke-width="1.5"/>
      </g>
    </g>
    <g id="Icon_Shield">
      <path id="Path-17" data-name="Path" d="M90.215,84.671h0c20.615-5.341,35-22.781,35-43.952V12.285L90.215.074l-35,12.211V40.719c0,21.171,14.385,38.611,35,43.952Z" transform="translate(1207.253 535.452) rotate(90)" fill="none" stroke="#70a800" stroke-width="1.3"/>
      <path id="Path-18" data-name="Path" d="M86.215,75.942h0a41.247,41.247,0,0,0,31-39.868V11.889l-31-10.815-31,10.815V36.074a41.247,41.247,0,0,0,31,39.868Z" transform="translate(1203.253 539.452) rotate(90)" fill="#70a800"/>
      <path id="Symbol" d="M7171.518,11709.578l-10.974-10.979-8.137,8.14a1.319,1.319,0,1,1-1.864-1.867l7.233-7.236a1.458,1.458,0,0,1,.148-.128c-.005,0-.007-.011,0-.019l1.678-1.679a1.337,1.337,0,0,1,1.885,0l11.946,11.951a1.32,1.32,0,0,1-.087,1.945,1.258,1.258,0,0,1-.818.293A1.437,1.437,0,0,1,7171.518,11709.578Zm-27.226-3.272a1.364,1.364,0,0,1,.128-1.827l10.976-10.979-8.139-8.141a1.323,1.323,0,0,1,.084-1.948,1.363,1.363,0,0,1,1.828.128l7.182,7.182a1.372,1.372,0,0,1,.137.161.013.013,0,0,1,.021,0l1.678,1.679a1.333,1.333,0,0,1,0,1.883l-11.948,11.953a1.319,1.319,0,0,1-1.945-.089Zm27.6-2.722-7.25-7.253a1.275,1.275,0,0,1-.131-.151.013.013,0,0,1-.019,0l-1.678-1.679a1.336,1.336,0,0,1,0-1.886l11.945-11.95a1.322,1.322,0,0,1,1.948.089,1.367,1.367,0,0,1-.128,1.825l-10.977,10.979,8.153,8.156a1.319,1.319,0,1,1-1.864,1.866Zm-12.313-12.394-11.948-11.951a1.319,1.319,0,0,1,.089-1.946,1.363,1.363,0,0,1,1.825.129l10.977,10.979,8.135-8.14a1.32,1.32,0,1,1,1.866,1.867l-7.239,7.241a1.3,1.3,0,0,1-.144.124.011.011,0,0,1,0,.018l-1.678,1.679a1.33,1.33,0,0,1-1.883,0Z" transform="translate(12861.209 -6535.331) rotate(90)" fill="#fff"/>
    </g>
  </g>
</svg>
