<svg xmlns="http://www.w3.org/2000/svg" xmlns:xlink="http://www.w3.org/1999/xlink" width="539.34" height="228.658" viewBox="0 0 539.34 228.658">
  <defs>
    <clipPath id="clip-path">
      <rect width="37" height="491" fill="none"/>
    </clipPath>
    <clipPath id="clip-path-2">
      <rect width="10" height="336" fill="none"/>
    </clipPath>
    <clipPath id="clip-path-3">
      <rect width="10" height="25" fill="none"/>
    </clipPath>
  </defs>
  <g id="Security_Schema" transform="translate(-355.917 1207.867) rotate(-90)">
    <g id="Big_Path" transform="translate(450.24 1557.142) rotate(-90)">
      <path id="Path" d="M676.049,618.945H664.778a2.569,2.569,0,0,0-2.569,2.569v95.874a2.569,2.569,0,0,0,2.569,2.569H885.3" transform="translate(0.427 0.012)" fill="none" stroke="#70a800" stroke-miterlimit="10" stroke-width="1.5"/>
      <path id="Path-2" data-name="Path" d="M977.01,719.957h220.6a2.568,2.568,0,0,0,2.568-2.569V621.514a2.568,2.568,0,0,0-2.568-2.569h-11.465" transform="translate(0.302 0.012)" fill="none" stroke="#70a800" stroke-miterlimit="10" stroke-width="1.5"/>
    </g>
    <g id="Circle" transform="translate(9 4)">
      <g id="Icon_05" transform="translate(0 -8)">
        <path id="Circle_Stroke" d="M7940.691,12311.651a.836.836,0,0,1-.306-1.163.847.847,0,0,1,1.141-.29,44.461,44.461,0,0,0,21.676,5.639,43.98,43.98,0,0,0,31.031-12.746,42.568,42.568,0,0,0,0-61.13,43.973,43.973,0,0,0-31.031-12.748,44.537,44.537,0,0,0-21.218,5.382.851.851,0,0,1-1.138-.3.833.833,0,0,1,.321-1.156,46.154,46.154,0,0,1,22.035-5.611c25.191,0,45.683,20.187,45.683,45s-20.492,45-45.683,45A46.124,46.124,0,0,1,7940.691,12311.651Zm-3.085-2a1.033,1.033,0,0,1-.47-.85.991.991,0,0,1,.188-.584,1,1,0,0,1,1.394-.223,1.019,1.019,0,0,1,.281,1.431,1.006,1.006,0,0,1-.813.415A.98.98,0,0,1,7937.606,12309.647Zm-4.275-2.661a1.04,1.04,0,0,1-.386-.795.984.984,0,0,1,.25-.661,1,1,0,0,1,1.41-.083,1.016,1.016,0,0,1,.136,1.452,1,1,0,0,1-1.41.087Zm-3.054-2.98a1.051,1.051,0,0,1-.312-.729,1,1,0,0,1,1.728-.677,1.019,1.019,0,0,1-.006,1.462,1,1,0,0,1-1.41-.056Zm-2.742-4.182a1.054,1.054,0,0,1-.244-.659.988.988,0,0,1,.4-.8.975.975,0,0,1,.6-.2,1,1,0,0,1,.8.4,1.025,1.025,0,0,1,.231.788.973.973,0,0,1-.386.659.993.993,0,0,1-1.394-.188Zm-2.408-3.719a1.055,1.055,0,0,1-.183-.578,1,1,0,0,1,1.846-.522,1.017,1.017,0,0,1-.293,1.434,1,1,0,0,1-1.37-.333Zm-2.046-3.948a1.072,1.072,0,0,1-.127-.494,1,1,0,0,1,1-1,1.007,1.007,0,0,1,.9.566,1.028,1.028,0,0,1,.071.822,1,1,0,0,1-1.839.1Zm-1.66-4.143a1.1,1.1,0,0,1-.083-.407,1,1,0,0,1,1.935-.341,1.018,1.018,0,0,1-.575,1.345.955.955,0,0,1-.34.06A1,1,0,0,1,7921.42,12288.015Zm-1.258-4.3a1.207,1.207,0,0,1-.049-.312,1,1,0,0,1,.751-.968.974.974,0,0,1,.247-.031,1,1,0,0,1,.968.754,1.018,1.018,0,0,1-.705,1.277.954.954,0,0,1-.247.03A1,1,0,0,1,7920.162,12283.715Zm-.847-4.411a1.585,1.585,0,0,1-.019-.216,1,1,0,0,1,.85-.986,1.064,1.064,0,0,1,.145-.01,1,1,0,0,1,.986.851,1.013,1.013,0,0,1-.825,1.2.91.91,0,0,1-.152.013A1.008,1.008,0,0,1,7919.315,12279.3Zm.572-3.53a1,1,0,0,1-1-.946l0-.12a1,1,0,0,1,.949-1h0a1.01,1.01,0,0,1,1.042.949,1.048,1.048,0,0,1-.254.785.983.983,0,0,1-.689.327Zm-.053-4.4a1,1,0,0,1-.949-1l.006-.12a1,1,0,0,1,1-.946,1.01,1.01,0,0,1,.739.328.988.988,0,0,1,.257.72,1.009,1.009,0,0,1-1,1.014Zm.309-4.39a1,1,0,0,1-.853-.985.8.8,0,0,1,.012-.148,1.024,1.024,0,0,1,1-.918.9.9,0,0,1,.151.012,1,1,0,0,1,.835,1.135,1.022,1.022,0,0,1-1,.918A1.093,1.093,0,0,1,7920.143,12266.981Zm.717-4.337a1,1,0,0,1-.751-.967,1.1,1.1,0,0,1,.028-.245,1.024,1.024,0,0,1,.986-.822,1.1,1.1,0,0,1,.245.031,1,1,0,0,1,.72,1.215,1.014,1.014,0,0,1-.98.816A1.106,1.106,0,0,1,7920.86,12262.645Zm1.128-4.238a1,1,0,0,1-.658-.939.983.983,0,0,1,.059-.337,1.035,1.035,0,0,1,.964-.727.984.984,0,0,1,.34.063.994.994,0,0,1,.593,1.279,1.025,1.025,0,0,1-.958.721A1.049,1.049,0,0,1,7921.989,12258.406Zm1.521-4.1a1,1,0,0,1-.562-.9.992.992,0,0,1,.1-.433,1.039,1.039,0,0,1,.931-.628.954.954,0,0,1,.433.1.994.994,0,0,1,.464,1.329,1.03,1.03,0,0,1-.928.627A1,1,0,0,1,7923.51,12254.308Zm1.907-3.917a1,1,0,0,1-.334-1.369,1.028,1.028,0,0,1,.887-.538,1,1,0,0,1,.85,1.518,1.021,1.021,0,0,1-.887.535A.982.982,0,0,1,7925.417,12250.391Zm2.26-3.693a1.008,1.008,0,0,1-.393-.795.985.985,0,0,1,.2-.6,1.029,1.029,0,0,1,.837-.451.97.97,0,0,1,.6.2,1,1,0,0,1,.195,1.4,1.027,1.027,0,0,1-.837.448A.989.989,0,0,1,7927.677,12246.7Zm2.6-4.18a1,1,0,0,1-.318-.732.977.977,0,0,1,.266-.674,1.043,1.043,0,0,1,.779-.374,1,1,0,0,1,.729,1.678,1.046,1.046,0,0,1-.779.368A.99.99,0,0,1,7930.276,12242.518Zm2.912-2.983a.994.994,0,0,1,.083-1.409,1.036,1.036,0,0,1,.711-.3,1,1,0,0,1,.662,1.746,1.053,1.053,0,0,1-.711.294A.992.992,0,0,1,7933.188,12239.534Zm4.127-2.687a.982.982,0,0,1-.188-.584.994.994,0,0,1,.414-.807,1.051,1.051,0,0,1,.637-.232,1,1,0,0,1,.584,1.809,1.04,1.04,0,0,1-.637.229A1,1,0,0,1,7937.315,12236.848Z" transform="translate(33.659 15429.726) rotate(-143)" fill="#70a800"/>
        <circle id="Circle-2" data-name="Circle" cx="38" cy="38" r="38" transform="translate(1021.209 797.667)" fill="#758ca3"/>
        <path id="_2FA_Icon" data-name="2FA_Icon" d="M11996.441,1403.836a.789.789,0,0,1-.2-1.081,28.014,28.014,0,0,0,4.617-12.507.758.758,0,0,1,.846-.681.772.772,0,0,1,.676.858,29.627,29.627,0,0,1-4.869,13.207.765.765,0,0,1-1.067.2Zm-6-.747a.789.789,0,0,1-.069-1.1,22.806,22.806,0,0,0,5.1-19.334.776.776,0,0,1,.6-.915.763.763,0,0,1,.9.606,24.4,24.4,0,0,1-5.454,20.671.758.758,0,0,1-1.082.072Zm12.778-.565a.777.777,0,0,1-.354-1.037,33.286,33.286,0,0,0,2.173-5.9.765.765,0,0,1,.939-.55.778.778,0,0,1,.542.952,34.99,34.99,0,0,1-2.277,6.177.753.753,0,0,1-1.023.356Zm-17.882-1.633a.778.778,0,0,1,.036-1.1,17.523,17.523,0,0,0,5.284-15,.765.765,0,1,1,1.515-.209,19.069,19.069,0,0,1-5.754,16.343.757.757,0,0,1-1.081-.037Zm-4.158-3.261a.784.784,0,0,1,.107-1.093,12.281,12.281,0,0,0,3.6-5.034.761.761,0,0,1,.993-.443.783.783,0,0,1,.436,1.006,13.825,13.825,0,0,1-4.062,5.674.75.75,0,0,1-.483.175A.764.764,0,0,1,11981.18,1397.631Zm29.348.2a.779.779,0,0,1-.544-.949,38.071,38.071,0,0,0,1.188-12.13.773.773,0,0,1,.719-.824.757.757,0,0,1,.812.724,39.742,39.742,0,0,1-1.234,12.629.77.77,0,0,1-.739.578A.746.746,0,0,1,12010.527,1397.834Zm-32.477-4.282a.783.783,0,0,1,.094-1.093,7.056,7.056,0,0,0,2.354-6.48l-.054-.253a17.31,17.31,0,0,1-.309-2.577.769.769,0,1,1,1.536-.065,14.593,14.593,0,0,0,.215,2.008l.067.325a8.613,8.613,0,0,1-2.822,8.226.754.754,0,0,1-.5.184A.768.768,0,0,1,11978.051,1393.552Zm28.29-.218a.777.777,0,0,1-.631-.894,32.979,32.979,0,0,0-.219-11.836,9.414,9.414,0,0,0-17.146-3.407,9.627,9.627,0,0,0-1.453,6.868l.074.327a14.1,14.1,0,0,1,.193,4.176.768.768,0,1,1-1.526-.162,12.265,12.265,0,0,0-.1-3.345l-.079-.359a11.165,11.165,0,0,1,1.619-8.363,10.942,10.942,0,0,1,19.928,3.96,34.716,34.716,0,0,1,.227,12.4.769.769,0,0,1-.755.649A.92.92,0,0,1,12006.341,1393.334Zm-5.312-6.277a28.191,28.191,0,0,0-.546-5.424l-.044-.225a4.341,4.341,0,0,0-8.478.2.768.768,0,1,1-1.5-.319,5.872,5.872,0,0,1,11.533.037l.185.931h-.021a29.422,29.422,0,0,1,.4,4.8.766.766,0,1,1-1.531,0Zm-25.59-.309a21.718,21.718,0,0,1,1.907-14.026.76.76,0,0,1,1.032-.334.778.778,0,0,1,.329,1.043,20.136,20.136,0,0,0-1.769,13.007.777.777,0,0,1-.6.915.637.637,0,0,1-.154.016A.764.764,0,0,1,11975.438,1386.748Zm35.4-5.19c-.095-.656-.206-1.315-.339-1.971a14.53,14.53,0,0,0-28.623.394.767.767,0,1,1-1.512-.266,16.06,16.06,0,0,1,31.636-.437c.135.687.256,1.371.354,2.052a.772.772,0,0,1-.645.88.732.732,0,0,1-.114.01A.769.769,0,0,1,12010.839,1381.557Zm4.66-3a19.778,19.778,0,0,0-7.978-12.367.789.789,0,0,1-.187-1.083.759.759,0,0,1,1.068-.19,21.346,21.346,0,0,1,8.6,13.338.776.776,0,0,1-.6.912.845.845,0,0,1-.15.016A.77.77,0,0,1,12015.5,1378.562Zm-36.228-7.641a.778.778,0,0,1-.166-1.084,21,21,0,0,1,26.446-6.624.785.785,0,0,1,.353,1.04.763.763,0,0,1-1.027.356,19.485,19.485,0,0,0-24.536,6.143.757.757,0,0,1-1.069.168Z" transform="translate(2441.225 -11160.353) rotate(90)" fill="#fff"/>
      </g>
      <g id="Icon_04" transform="translate(0 204)">
        <path id="Circle_Stroke-2" data-name="Circle_Stroke" d="M7940.691,12311.651a.836.836,0,0,1-.306-1.163.847.847,0,0,1,1.141-.29,44.461,44.461,0,0,0,21.676,5.639,43.98,43.98,0,0,0,31.031-12.746,42.568,42.568,0,0,0,0-61.13,43.973,43.973,0,0,0-31.031-12.748,44.537,44.537,0,0,0-21.218,5.382.851.851,0,0,1-1.138-.3.833.833,0,0,1,.321-1.156,46.154,46.154,0,0,1,22.035-5.611c25.191,0,45.683,20.187,45.683,45s-20.492,45-45.683,45A46.124,46.124,0,0,1,7940.691,12311.651Zm-3.085-2a1.033,1.033,0,0,1-.47-.85.991.991,0,0,1,.188-.584,1,1,0,0,1,1.394-.223,1.019,1.019,0,0,1,.281,1.431,1.006,1.006,0,0,1-.813.415A.98.98,0,0,1,7937.606,12309.647Zm-4.275-2.661a1.04,1.04,0,0,1-.386-.795.984.984,0,0,1,.25-.661,1,1,0,0,1,1.41-.083,1.016,1.016,0,0,1,.136,1.452,1,1,0,0,1-1.41.087Zm-3.054-2.98a1.051,1.051,0,0,1-.312-.729,1,1,0,0,1,1.728-.677,1.019,1.019,0,0,1-.006,1.462,1,1,0,0,1-1.41-.056Zm-2.742-4.182a1.054,1.054,0,0,1-.244-.659.988.988,0,0,1,.4-.8.975.975,0,0,1,.6-.2,1,1,0,0,1,.8.4,1.025,1.025,0,0,1,.231.788.973.973,0,0,1-.386.659.993.993,0,0,1-1.394-.188Zm-2.408-3.719a1.055,1.055,0,0,1-.183-.578,1,1,0,0,1,1.846-.522,1.017,1.017,0,0,1-.293,1.434,1,1,0,0,1-1.37-.333Zm-2.046-3.948a1.072,1.072,0,0,1-.127-.494,1,1,0,0,1,1-1,1.007,1.007,0,0,1,.9.566,1.028,1.028,0,0,1,.071.822,1,1,0,0,1-1.839.1Zm-1.66-4.143a1.1,1.1,0,0,1-.083-.407,1,1,0,0,1,1.935-.341,1.018,1.018,0,0,1-.575,1.345.955.955,0,0,1-.34.06A1,1,0,0,1,7921.42,12288.015Zm-1.258-4.3a1.207,1.207,0,0,1-.049-.312,1,1,0,0,1,.751-.968.974.974,0,0,1,.247-.031,1,1,0,0,1,.968.754,1.018,1.018,0,0,1-.705,1.277.954.954,0,0,1-.247.03A1,1,0,0,1,7920.162,12283.715Zm-.847-4.411a1.585,1.585,0,0,1-.019-.216,1,1,0,0,1,.85-.986,1.064,1.064,0,0,1,.145-.01,1,1,0,0,1,.986.851,1.013,1.013,0,0,1-.825,1.2.91.91,0,0,1-.152.013A1.008,1.008,0,0,1,7919.315,12279.3Zm.572-3.53a1,1,0,0,1-1-.946l0-.12a1,1,0,0,1,.949-1h0a1.01,1.01,0,0,1,1.042.949,1.048,1.048,0,0,1-.254.785.983.983,0,0,1-.689.327Zm-.053-4.4a1,1,0,0,1-.949-1l.006-.12a1,1,0,0,1,1-.946,1.01,1.01,0,0,1,.739.328.988.988,0,0,1,.257.72,1.009,1.009,0,0,1-1,1.014Zm.309-4.39a1,1,0,0,1-.853-.985.8.8,0,0,1,.012-.148,1.024,1.024,0,0,1,1-.918.9.9,0,0,1,.151.012,1,1,0,0,1,.835,1.135,1.022,1.022,0,0,1-1,.918A1.093,1.093,0,0,1,7920.143,12266.981Zm.717-4.337a1,1,0,0,1-.751-.967,1.1,1.1,0,0,1,.028-.245,1.024,1.024,0,0,1,.986-.822,1.1,1.1,0,0,1,.245.031,1,1,0,0,1,.72,1.215,1.014,1.014,0,0,1-.98.816A1.106,1.106,0,0,1,7920.86,12262.645Zm1.128-4.238a1,1,0,0,1-.658-.939.983.983,0,0,1,.059-.337,1.035,1.035,0,0,1,.964-.727.984.984,0,0,1,.34.063.994.994,0,0,1,.593,1.279,1.025,1.025,0,0,1-.958.721A1.049,1.049,0,0,1,7921.989,12258.406Zm1.521-4.1a1,1,0,0,1-.562-.9.992.992,0,0,1,.1-.433,1.039,1.039,0,0,1,.931-.628.954.954,0,0,1,.433.1.994.994,0,0,1,.464,1.329,1.03,1.03,0,0,1-.928.627A1,1,0,0,1,7923.51,12254.308Zm1.907-3.917a1,1,0,0,1-.334-1.369,1.028,1.028,0,0,1,.887-.538,1,1,0,0,1,.85,1.518,1.021,1.021,0,0,1-.887.535A.982.982,0,0,1,7925.417,12250.391Zm2.26-3.693a1.008,1.008,0,0,1-.393-.795.985.985,0,0,1,.2-.6,1.029,1.029,0,0,1,.837-.451.97.97,0,0,1,.6.2,1,1,0,0,1,.195,1.4,1.027,1.027,0,0,1-.837.448A.989.989,0,0,1,7927.677,12246.7Zm2.6-4.18a1,1,0,0,1-.318-.732.977.977,0,0,1,.266-.674,1.043,1.043,0,0,1,.779-.374,1,1,0,0,1,.729,1.678,1.046,1.046,0,0,1-.779.368A.99.99,0,0,1,7930.276,12242.518Zm2.912-2.983a.994.994,0,0,1,.083-1.409,1.036,1.036,0,0,1,.711-.3,1,1,0,0,1,.662,1.746,1.053,1.053,0,0,1-.711.294A.992.992,0,0,1,7933.188,12239.534Zm4.127-2.687a.982.982,0,0,1-.188-.584.994.994,0,0,1,.414-.807,1.051,1.051,0,0,1,.637-.232,1,1,0,0,1,.584,1.809,1.04,1.04,0,0,1-.637.229A1,1,0,0,1,7937.315,12236.848Z" transform="translate(-12087.99 -5897.236) rotate(-31)" fill="#70a800"/>
        <circle id="Circle-3" data-name="Circle" cx="38" cy="38" r="38" transform="translate(1021.209 482.667)" fill="#758ca3"/>
        <g id="Icon_Look" transform="translate(0 -210)">
          <g id="Circle-4" data-name="Circle" transform="translate(1074.209 715.667) rotate(90)" fill="none" stroke="#fff" stroke-width="1.5">
            <circle cx="12.5" cy="12.5" r="12.5" stroke="none"/>
            <circle cx="12.5" cy="12.5" r="11.75" fill="none"/>
          </g>
          <path id="Search_Icon" d="M30.516,34.167a15.516,15.516,0,1,1,3.652-3.652L42.25,38.6a2.544,2.544,0,0,1,0,3.609l-.043.043a2.554,2.554,0,0,1-3.609,0l-8.083-8.083Z" transform="translate(1083.209 706.667) rotate(90)" fill="none" stroke="#fff" stroke-width="1.5" fill-rule="evenodd"/>
          <path id="Path-3" data-name="Path" d="M332.853,278.985a3.479,3.479,0,0,0-1.131-2.541,3.885,3.885,0,0,0-.614-.469,3.535,3.535,0,0,0,.438-.349,3.208,3.208,0,0,0,0-4.743,3.681,3.681,0,0,0-2.316-.977v-1.478a.633.633,0,0,0-.649-.618.641.641,0,0,0-.658.618V269.9h-1.649v-1.471a.641.641,0,0,0-.658-.618.633.633,0,0,0-.649.618V269.9h-2.456a.634.634,0,0,0-.658.609.641.641,0,0,0,.658.618h.353v10.225h-.353a.641.641,0,0,0-.658.618.634.634,0,0,0,.658.609h2.456v1.472a.633.633,0,0,0,.649.618.641.641,0,0,0,.658-.618v-1.472h1.649v1.472a.641.641,0,0,0,.658.618.633.633,0,0,0,.649-.618v-1.477a3.924,3.924,0,0,0,2.492-1.047A3.48,3.48,0,0,0,332.853,278.985Zm-3.836-7.858a2.314,2.314,0,0,1,1.6.626,2.023,2.023,0,0,1,0,3,2.314,2.314,0,0,1-1.6.626h-4.837v-4.255Zm1.779,9.528a2.6,2.6,0,0,1-1.779.7h-4.837V276.61h4.732a.691.691,0,0,0,.1.009,2.559,2.559,0,0,1,1.779.7,2.254,2.254,0,0,1,0,3.341Z" transform="translate(1338.02 400.814) rotate(90)" fill="#fff"/>
        </g>
      </g>
      <g id="Icon_03" transform="translate(0 -4)">
        <path id="Circle_Stroke-3" data-name="Circle_Stroke" d="M7940.691,12311.651a.836.836,0,0,1-.306-1.163.847.847,0,0,1,1.141-.29,44.461,44.461,0,0,0,21.676,5.639,43.98,43.98,0,0,0,31.031-12.746,42.568,42.568,0,0,0,0-61.13,43.973,43.973,0,0,0-31.031-12.748,44.537,44.537,0,0,0-21.218,5.382.851.851,0,0,1-1.138-.3.833.833,0,0,1,.321-1.156,46.154,46.154,0,0,1,22.035-5.611c25.191,0,45.683,20.187,45.683,45s-20.492,45-45.683,45A46.124,46.124,0,0,1,7940.691,12311.651Zm-3.085-2a1.033,1.033,0,0,1-.47-.85.991.991,0,0,1,.188-.584,1,1,0,0,1,1.394-.223,1.019,1.019,0,0,1,.281,1.431,1.006,1.006,0,0,1-.813.415A.98.98,0,0,1,7937.606,12309.647Zm-4.275-2.661a1.04,1.04,0,0,1-.386-.795.984.984,0,0,1,.25-.661,1,1,0,0,1,1.41-.083,1.016,1.016,0,0,1,.136,1.452,1,1,0,0,1-1.41.087Zm-3.054-2.98a1.051,1.051,0,0,1-.312-.729,1,1,0,0,1,1.728-.677,1.019,1.019,0,0,1-.006,1.462,1,1,0,0,1-1.41-.056Zm-2.742-4.182a1.054,1.054,0,0,1-.244-.659.988.988,0,0,1,.4-.8.975.975,0,0,1,.6-.2,1,1,0,0,1,.8.4,1.025,1.025,0,0,1,.231.788.973.973,0,0,1-.386.659.993.993,0,0,1-1.394-.188Zm-2.408-3.719a1.055,1.055,0,0,1-.183-.578,1,1,0,0,1,1.846-.522,1.017,1.017,0,0,1-.293,1.434,1,1,0,0,1-1.37-.333Zm-2.046-3.948a1.072,1.072,0,0,1-.127-.494,1,1,0,0,1,1-1,1.007,1.007,0,0,1,.9.566,1.028,1.028,0,0,1,.071.822,1,1,0,0,1-1.839.1Zm-1.66-4.143a1.1,1.1,0,0,1-.083-.407,1,1,0,0,1,1.935-.341,1.018,1.018,0,0,1-.575,1.345.955.955,0,0,1-.34.06A1,1,0,0,1,7921.42,12288.015Zm-1.258-4.3a1.207,1.207,0,0,1-.049-.312,1,1,0,0,1,.751-.968.974.974,0,0,1,.247-.031,1,1,0,0,1,.968.754,1.018,1.018,0,0,1-.705,1.277.954.954,0,0,1-.247.03A1,1,0,0,1,7920.162,12283.715Zm-.847-4.411a1.585,1.585,0,0,1-.019-.216,1,1,0,0,1,.85-.986,1.064,1.064,0,0,1,.145-.01,1,1,0,0,1,.986.851,1.013,1.013,0,0,1-.825,1.2.91.91,0,0,1-.152.013A1.008,1.008,0,0,1,7919.315,12279.3Zm.572-3.53a1,1,0,0,1-1-.946l0-.12a1,1,0,0,1,.949-1h0a1.01,1.01,0,0,1,1.042.949,1.048,1.048,0,0,1-.254.785.983.983,0,0,1-.689.327Zm-.053-4.4a1,1,0,0,1-.949-1l.006-.12a1,1,0,0,1,1-.946,1.01,1.01,0,0,1,.739.328.988.988,0,0,1,.257.72,1.009,1.009,0,0,1-1,1.014Zm.309-4.39a1,1,0,0,1-.853-.985.8.8,0,0,1,.012-.148,1.024,1.024,0,0,1,1-.918.9.9,0,0,1,.151.012,1,1,0,0,1,.835,1.135,1.022,1.022,0,0,1-1,.918A1.093,1.093,0,0,1,7920.143,12266.981Zm.717-4.337a1,1,0,0,1-.751-.967,1.1,1.1,0,0,1,.028-.245,1.024,1.024,0,0,1,.986-.822,1.1,1.1,0,0,1,.245.031,1,1,0,0,1,.72,1.215,1.014,1.014,0,0,1-.98.816A1.106,1.106,0,0,1,7920.86,12262.645Zm1.128-4.238a1,1,0,0,1-.658-.939.983.983,0,0,1,.059-.337,1.035,1.035,0,0,1,.964-.727.984.984,0,0,1,.34.063.994.994,0,0,1,.593,1.279,1.025,1.025,0,0,1-.958.721A1.049,1.049,0,0,1,7921.989,12258.406Zm1.521-4.1a1,1,0,0,1-.562-.9.992.992,0,0,1,.1-.433,1.039,1.039,0,0,1,.931-.628.954.954,0,0,1,.433.1.994.994,0,0,1,.464,1.329,1.03,1.03,0,0,1-.928.627A1,1,0,0,1,7923.51,12254.308Zm1.907-3.917a1,1,0,0,1-.334-1.369,1.028,1.028,0,0,1,.887-.538,1,1,0,0,1,.85,1.518,1.021,1.021,0,0,1-.887.535A.982.982,0,0,1,7925.417,12250.391Zm2.26-3.693a1.008,1.008,0,0,1-.393-.795.985.985,0,0,1,.2-.6,1.029,1.029,0,0,1,.837-.451.97.97,0,0,1,.6.2,1,1,0,0,1,.195,1.4,1.027,1.027,0,0,1-.837.448A.989.989,0,0,1,7927.677,12246.7Zm2.6-4.18a1,1,0,0,1-.318-.732.977.977,0,0,1,.266-.674,1.043,1.043,0,0,1,.779-.374,1,1,0,0,1,.729,1.678,1.046,1.046,0,0,1-.779.368A.99.99,0,0,1,7930.276,12242.518Zm2.912-2.983a.994.994,0,0,1,.083-1.409,1.036,1.036,0,0,1,.711-.3,1,1,0,0,1,.662,1.746,1.053,1.053,0,0,1-.711.294A.992.992,0,0,1,7933.188,12239.534Zm4.127-2.687a.982.982,0,0,1-.188-.584.994.994,0,0,1,.414-.807,1.051,1.051,0,0,1,.637-.232,1,1,0,0,1,.584,1.809,1.04,1.04,0,0,1-.637.229A1,1,0,0,1,7937.315,12236.848Z" transform="translate(-5813.616 13540.876) rotate(-119)" fill="#70a800"/>
        <circle id="Circle-5" data-name="Circle" cx="38" cy="38" r="38" transform="translate(1021.209 587.667)" fill="#758ca3"/>
        <g id="Icon_Lock_Btc" transform="translate(1248.128 388.343) rotate(90)">
          <g id="Circle-6" data-name="Circle" transform="translate(219.324 177.919)" fill="none" stroke="#fff" stroke-width="1.5">
            <circle cx="17" cy="17" r="17" stroke="none"/>
            <circle cx="17" cy="17" r="16.25" fill="none"/>
          </g>
          <line id="Path-4" data-name="Path" x2="2" transform="translate(223.324 194.919)" fill="none" stroke="#fff" stroke-linecap="round" stroke-width="1.5"/>
          <line id="Path-5" data-name="Path" x2="2" transform="translate(247.324 194.919)" fill="none" stroke="#fff" stroke-linecap="round" stroke-width="1.5"/>
          <line id="Path-6" data-name="Path" x2="2" transform="translate(236.324 207.919) rotate(-90)" fill="none" stroke="#fff" stroke-linecap="round" stroke-width="1.5"/>
          <line id="Path-7" data-name="Path" x2="2" transform="translate(236.324 183.919) rotate(-90)" fill="none" stroke="#fff" stroke-linecap="round" stroke-width="1.5"/>
          <line id="Path-8" data-name="Path" x2="2" transform="translate(226.324 185.873) rotate(45)" fill="none" stroke="#fff" stroke-linecap="round" stroke-width="1.5"/>
          <line id="Path-9" data-name="Path" x2="2" transform="translate(243.749 203.844) rotate(45)" fill="none" stroke="#fff" stroke-linecap="round" stroke-width="1.5"/>
          <line id="Path-10" data-name="Path" x2="2" transform="translate(227.324 204.333) rotate(-45)" fill="none" stroke="#fff" stroke-linecap="round" stroke-width="1.5"/>
          <line id="Path-11" data-name="Path" x2="2" transform="translate(244.324 187.333) rotate(-45)" fill="none" stroke="#fff" stroke-linecap="round" stroke-width="1.5"/>
          <path id="Path-12" data-name="Path" d="M407.788,269.073v-5.26a9.3,9.3,0,1,0-18.6,0v5.264l-1.656,1.44v-6.7a10.954,10.954,0,1,1,21.908,0l.092,6.717Z" transform="translate(-162.212 -87.701)" fill="#fff"/>
          <path id="Path-13" data-name="Path" d="M332.853,278.985a3.479,3.479,0,0,0-1.131-2.541,3.885,3.885,0,0,0-.614-.469,3.535,3.535,0,0,0,.438-.349,3.208,3.208,0,0,0,0-4.743,3.681,3.681,0,0,0-2.316-.977v-1.478a.633.633,0,0,0-.649-.618.641.641,0,0,0-.658.618V269.9h-1.649v-1.471a.641.641,0,0,0-.658-.618.633.633,0,0,0-.649.618V269.9h-2.456a.634.634,0,0,0-.658.609.641.641,0,0,0,.658.618h.353v10.225h-.353a.641.641,0,0,0-.658.618.634.634,0,0,0,.658.609h2.456v1.472a.633.633,0,0,0,.649.618.641.641,0,0,0,.658-.618v-1.472h1.649v1.472a.641.641,0,0,0,.658.618.633.633,0,0,0,.649-.618v-1.477a3.924,3.924,0,0,0,2.492-1.047A3.48,3.48,0,0,0,332.853,278.985Zm-3.836-7.858a2.314,2.314,0,0,1,1.6.626,2.023,2.023,0,0,1,0,3,2.314,2.314,0,0,1-1.6.626h-4.837v-4.255Zm1.779,9.528a2.6,2.6,0,0,1-1.779.7h-4.837V276.61h4.732a.691.691,0,0,0,.1.009,2.559,2.559,0,0,1,1.779.7,2.254,2.254,0,0,1,0,3.341Z" transform="translate(-90.529 -80.892)" fill="#fff"/>
        </g>
      </g>
      <g id="Icon_02" transform="translate(0 -2)">
        <path id="Circle_Stroke-4" data-name="Circle_Stroke" d="M21.806,84.127a.836.836,0,0,1-.306-1.163.847.847,0,0,1,1.141-.29,44.461,44.461,0,0,0,21.676,5.639A43.98,43.98,0,0,0,75.348,75.566a42.568,42.568,0,0,0,0-61.13A43.974,43.974,0,0,0,44.316,1.688,44.537,44.537,0,0,0,23.1,7.07a.851.851,0,0,1-1.138-.3.833.833,0,0,1,.321-1.156A46.154,46.154,0,0,1,44.316,0C69.508,0,90,20.187,90,45S69.508,90,44.316,90A46.124,46.124,0,0,1,21.806,84.127Zm-3.085-2a1.033,1.033,0,0,1-.47-.85.991.991,0,0,1,.188-.584,1,1,0,0,1,1.394-.223,1.019,1.019,0,0,1,.281,1.431,1.006,1.006,0,0,1-.813.415A.98.98,0,0,1,18.721,82.123Zm-4.275-2.661a1.04,1.04,0,0,1-.386-.795.984.984,0,0,1,.25-.661,1,1,0,0,1,1.41-.083,1.016,1.016,0,0,1,.136,1.452,1,1,0,0,1-1.41.087Zm-3.054-2.98a1.051,1.051,0,0,1-.312-.729,1,1,0,0,1,1.728-.677,1.019,1.019,0,0,1-.006,1.462,1,1,0,0,1-1.41-.056ZM8.649,72.3a1.054,1.054,0,0,1-.244-.659.988.988,0,0,1,.4-.8.975.975,0,0,1,.6-.2,1,1,0,0,1,.8.4,1.025,1.025,0,0,1,.231.788.973.973,0,0,1-.386.659A.993.993,0,0,1,8.649,72.3ZM6.241,68.581A1.055,1.055,0,0,1,6.059,68,1,1,0,0,1,7.9,67.48a1.017,1.017,0,0,1-.293,1.434,1,1,0,0,1-1.37-.333ZM4.195,64.633a1.072,1.072,0,0,1-.127-.494,1,1,0,0,1,1-1,1.007,1.007,0,0,1,.9.566,1.028,1.028,0,0,1,.071.822,1,1,0,0,1-1.839.1ZM2.535,60.49a1.1,1.1,0,0,1-.083-.407,1,1,0,0,1,1.935-.341,1.018,1.018,0,0,1-.575,1.345.955.955,0,0,1-.34.06A1,1,0,0,1,2.535,60.49Zm-1.258-4.3a1.207,1.207,0,0,1-.049-.312,1,1,0,0,1,.751-.968.974.974,0,0,1,.247-.031,1,1,0,0,1,.968.754,1.018,1.018,0,0,1-.705,1.277.954.954,0,0,1-.247.03A1,1,0,0,1,1.276,56.19ZM.43,51.779a1.585,1.585,0,0,1-.019-.216,1,1,0,0,1,.85-.986,1.064,1.064,0,0,1,.145-.01,1,1,0,0,1,.986.851,1.013,1.013,0,0,1-.825,1.2.91.91,0,0,1-.152.013A1.008,1.008,0,0,1,.43,51.779ZM1,48.249a1,1,0,0,1-1-.946l0-.12a1,1,0,0,1,.949-1h0A1.01,1.01,0,0,1,2,47.137a1.048,1.048,0,0,1-.254.785.983.983,0,0,1-.689.327Zm-.053-4.4a1,1,0,0,1-.949-1l.006-.12a1,1,0,0,1,1-.946,1.01,1.01,0,0,1,.739.328.988.988,0,0,1,.257.72,1.009,1.009,0,0,1-1,1.014Zm.309-4.39A1,1,0,0,1,.4,38.472a.8.8,0,0,1,.012-.148,1.024,1.024,0,0,1,1-.918.9.9,0,0,1,.151.012A1,1,0,0,1,2.4,38.552a1.022,1.022,0,0,1-1,.918A1.093,1.093,0,0,1,1.258,39.457Zm.717-4.337a1,1,0,0,1-.751-.967,1.1,1.1,0,0,1,.028-.245,1.024,1.024,0,0,1,.986-.822,1.1,1.1,0,0,1,.245.031,1,1,0,0,1,.72,1.215,1.014,1.014,0,0,1-.98.816A1.106,1.106,0,0,1,1.975,35.12ZM3.1,30.882a1,1,0,0,1-.658-.939.983.983,0,0,1,.059-.337,1.035,1.035,0,0,1,.964-.727.984.984,0,0,1,.34.063A.994.994,0,0,1,4.4,30.221a1.025,1.025,0,0,1-.958.721A1.049,1.049,0,0,1,3.1,30.882Zm1.521-4.1a1,1,0,0,1-.562-.9.992.992,0,0,1,.1-.433,1.039,1.039,0,0,1,.931-.628.954.954,0,0,1,.433.1.994.994,0,0,1,.464,1.329,1.03,1.03,0,0,1-.928.627A1,1,0,0,1,4.625,26.783Zm1.907-3.917A1,1,0,0,1,6.2,21.5a1.028,1.028,0,0,1,.887-.538,1,1,0,0,1,.85,1.518,1.021,1.021,0,0,1-.887.535A.982.982,0,0,1,6.532,22.866Zm2.26-3.693a1.008,1.008,0,0,1-.393-.795.985.985,0,0,1,.2-.6,1.029,1.029,0,0,1,.837-.451.97.97,0,0,1,.6.2,1,1,0,0,1,.195,1.4,1.027,1.027,0,0,1-.837.448A.989.989,0,0,1,8.792,19.173Zm2.6-4.18a1,1,0,0,1-.318-.732.977.977,0,0,1,.266-.674,1.043,1.043,0,0,1,.779-.374,1,1,0,0,1,.729,1.678,1.046,1.046,0,0,1-.779.368A.99.99,0,0,1,11.391,14.993ZM14.3,12.01a.994.994,0,0,1,.083-1.409,1.036,1.036,0,0,1,.711-.3,1,1,0,0,1,.662,1.746,1.053,1.053,0,0,1-.711.294A.992.992,0,0,1,14.3,12.01ZM18.43,9.323a.982.982,0,0,1-.188-.584.994.994,0,0,1,.414-.807,1.051,1.051,0,0,1,.637-.232,1,1,0,0,1,.584,1.809,1.04,1.04,0,0,1-.637.229A1,1,0,0,1,18.43,9.323Z" transform="matrix(0.891, 0.454, -0.454, 0.891, 1039.543, 460.141)" fill="#70a800"/>
        <circle id="Circle-7" data-name="Circle" cx="38" cy="38" r="38" transform="translate(1021.209 482.667)" fill="#758ca3"/>
        <g id="Icon_Team" transform="translate(-1)">
          <g id="Path-14" data-name="Path" transform="translate(1268.13 233.482) rotate(90)" fill="none">
            <path d="M287.3,230.091a17.113,17.113,0,0,0,17.112-17.112V189.541a19.765,19.765,0,0,1-6.168.973,18.266,18.266,0,0,1-10.944-3.468,18.264,18.264,0,0,1-10.944,3.468,19.765,19.765,0,0,1-6.168-.973v23.439A17.113,17.113,0,0,0,287.3,230.091Z" stroke="none"/>
            <path d="M 287.2970581054688 228.5914916992188 C 291.4675903320313 228.5914916992188 295.387939453125 226.9675140380859 298.3362731933594 224.0184326171875 C 301.2851257324219 221.0703277587891 302.9091186523438 217.1499481201172 302.9091186523438 212.9794464111328 L 302.9091186523438 191.5076141357422 C 301.3972473144531 191.8441467285156 299.8343505859375 192.0140228271484 298.2410278320313 192.0140228271484 C 294.2080078125 192.0140228271484 290.3665161132813 190.9088592529297 287.2970886230469 188.8833465576172 C 284.2278442382813 190.9088745117188 280.3863220214844 192.0140228271484 276.35302734375 192.0140228271484 C 274.7597045898438 192.0140228271484 273.1968688964844 191.8441467285156 271.6849975585938 191.5076293945313 L 271.6849975585938 212.9794464111328 C 271.6849975585938 217.1499786376953 273.3089904785156 221.0703735351563 276.258056640625 224.0186920166016 C 279.2061462402344 226.9674987792969 283.1265563964844 228.5914916992188 287.2970581054688 228.5914916992188 M 287.2970581054688 230.0914916992188 C 282.7265014648438 230.0914916992188 278.428955078125 228.3116912841797 275.197265625 225.0792236328125 C 271.9647827148438 221.8475646972656 270.1849975585938 217.5500030517578 270.1849975585938 212.9794464111328 L 270.1849975585938 189.5405426025391 C 272.1136169433594 190.1773529052734 274.215087890625 190.5140228271484 276.35302734375 190.5140228271484 C 280.4683227539063 190.5140228271484 284.4052124023438 189.2444763183594 287.2970581054688 187.0460052490234 C 290.1881103515625 189.2436828613281 294.125 190.5140228271484 298.2410278320313 190.5140228271484 C 300.3789672851563 190.5140228271484 302.48046875 190.1773529052734 304.4091186523438 189.5405426025391 L 304.4091186523438 212.9794464111328 C 304.4091186523438 217.5500030517578 302.6292724609375 221.8475646972656 299.3967895507813 225.0792236328125 C 296.1651611328125 228.3116912841797 291.8676147460938 230.0914916992188 287.2970581054688 230.0914916992188 Z" stroke="none" fill="#fff"/>
          </g>
          <path id="Path-15" data-name="Path" d="M331.95,333l-4.944-2.562L322.062,333l.945-5.427-4-3.843,5.528-.792L327.006,318l2.472,4.938,5.528.792-4,3.843L331.95,333Z" transform="translate(1386.04 193.661) rotate(90)" fill="none" stroke="#fff" stroke-width="1.5"/>
        </g>
      </g>
      <g id="Icon_01">
        <path id="Circle_Stroke-5" data-name="Circle_Stroke" d="M7940.691,12311.651a.836.836,0,0,1-.306-1.163.847.847,0,0,1,1.141-.29,44.461,44.461,0,0,0,21.676,5.639,43.98,43.98,0,0,0,31.031-12.746,42.568,42.568,0,0,0,0-61.13,43.973,43.973,0,0,0-31.031-12.748,44.537,44.537,0,0,0-21.218,5.382.851.851,0,0,1-1.138-.3.833.833,0,0,1,.321-1.156,46.154,46.154,0,0,1,22.035-5.611c25.191,0,45.683,20.187,45.683,45s-20.492,45-45.683,45A46.124,46.124,0,0,1,7940.691,12311.651Zm-3.085-2a1.033,1.033,0,0,1-.47-.85.991.991,0,0,1,.188-.584,1,1,0,0,1,1.394-.223,1.019,1.019,0,0,1,.281,1.431,1.006,1.006,0,0,1-.813.415A.98.98,0,0,1,7937.606,12309.647Zm-4.275-2.661a1.04,1.04,0,0,1-.386-.795.984.984,0,0,1,.25-.661,1,1,0,0,1,1.41-.083,1.016,1.016,0,0,1,.136,1.452,1,1,0,0,1-1.41.087Zm-3.054-2.98a1.051,1.051,0,0,1-.312-.729,1,1,0,0,1,1.728-.677,1.019,1.019,0,0,1-.006,1.462,1,1,0,0,1-1.41-.056Zm-2.742-4.182a1.054,1.054,0,0,1-.244-.659.988.988,0,0,1,.4-.8.975.975,0,0,1,.6-.2,1,1,0,0,1,.8.4,1.025,1.025,0,0,1,.231.788.973.973,0,0,1-.386.659.993.993,0,0,1-1.394-.188Zm-2.408-3.719a1.055,1.055,0,0,1-.183-.578,1,1,0,0,1,1.846-.522,1.017,1.017,0,0,1-.293,1.434,1,1,0,0,1-1.37-.333Zm-2.046-3.948a1.072,1.072,0,0,1-.127-.494,1,1,0,0,1,1-1,1.007,1.007,0,0,1,.9.566,1.028,1.028,0,0,1,.071.822,1,1,0,0,1-1.839.1Zm-1.66-4.143a1.1,1.1,0,0,1-.083-.407,1,1,0,0,1,1.935-.341,1.018,1.018,0,0,1-.575,1.345.955.955,0,0,1-.34.06A1,1,0,0,1,7921.42,12288.015Zm-1.258-4.3a1.207,1.207,0,0,1-.049-.312,1,1,0,0,1,.751-.968.974.974,0,0,1,.247-.031,1,1,0,0,1,.968.754,1.018,1.018,0,0,1-.705,1.277.954.954,0,0,1-.247.03A1,1,0,0,1,7920.162,12283.715Zm-.847-4.411a1.585,1.585,0,0,1-.019-.216,1,1,0,0,1,.85-.986,1.064,1.064,0,0,1,.145-.01,1,1,0,0,1,.986.851,1.013,1.013,0,0,1-.825,1.2.91.91,0,0,1-.152.013A1.008,1.008,0,0,1,7919.315,12279.3Zm.572-3.53a1,1,0,0,1-1-.946l0-.12a1,1,0,0,1,.949-1h0a1.01,1.01,0,0,1,1.042.949,1.048,1.048,0,0,1-.254.785.983.983,0,0,1-.689.327Zm-.053-4.4a1,1,0,0,1-.949-1l.006-.12a1,1,0,0,1,1-.946,1.01,1.01,0,0,1,.739.328.988.988,0,0,1,.257.72,1.009,1.009,0,0,1-1,1.014Zm.309-4.39a1,1,0,0,1-.853-.985.8.8,0,0,1,.012-.148,1.024,1.024,0,0,1,1-.918.9.9,0,0,1,.151.012,1,1,0,0,1,.835,1.135,1.022,1.022,0,0,1-1,.918A1.093,1.093,0,0,1,7920.143,12266.981Zm.717-4.337a1,1,0,0,1-.751-.967,1.1,1.1,0,0,1,.028-.245,1.024,1.024,0,0,1,.986-.822,1.1,1.1,0,0,1,.245.031,1,1,0,0,1,.72,1.215,1.014,1.014,0,0,1-.98.816A1.106,1.106,0,0,1,7920.86,12262.645Zm1.128-4.238a1,1,0,0,1-.658-.939.983.983,0,0,1,.059-.337,1.035,1.035,0,0,1,.964-.727.984.984,0,0,1,.34.063.994.994,0,0,1,.593,1.279,1.025,1.025,0,0,1-.958.721A1.049,1.049,0,0,1,7921.989,12258.406Zm1.521-4.1a1,1,0,0,1-.562-.9.992.992,0,0,1,.1-.433,1.039,1.039,0,0,1,.931-.628.954.954,0,0,1,.433.1.994.994,0,0,1,.464,1.329,1.03,1.03,0,0,1-.928.627A1,1,0,0,1,7923.51,12254.308Zm1.907-3.917a1,1,0,0,1-.334-1.369,1.028,1.028,0,0,1,.887-.538,1,1,0,0,1,.85,1.518,1.021,1.021,0,0,1-.887.535A.982.982,0,0,1,7925.417,12250.391Zm2.26-3.693a1.008,1.008,0,0,1-.393-.795.985.985,0,0,1,.2-.6,1.029,1.029,0,0,1,.837-.451.97.97,0,0,1,.6.2,1,1,0,0,1,.195,1.4,1.027,1.027,0,0,1-.837.448A.989.989,0,0,1,7927.677,12246.7Zm2.6-4.18a1,1,0,0,1-.318-.732.977.977,0,0,1,.266-.674,1.043,1.043,0,0,1,.779-.374,1,1,0,0,1,.729,1.678,1.046,1.046,0,0,1-.779.368A.99.99,0,0,1,7930.276,12242.518Zm2.912-2.983a.994.994,0,0,1,.083-1.409,1.036,1.036,0,0,1,.711-.3,1,1,0,0,1,.662,1.746,1.053,1.053,0,0,1-.711.294A.992.992,0,0,1,7933.188,12239.534Zm4.127-2.687a.982.982,0,0,1-.188-.584.994.994,0,0,1,.414-.807,1.051,1.051,0,0,1,.637-.232,1,1,0,0,1,.584,1.809,1.04,1.04,0,0,1-.637.229A1,1,0,0,1,7937.315,12236.848Z" transform="translate(15669.47 -344.998) rotate(120)" fill="#70a800"/>
        <circle id="Circle-8" data-name="Circle" cx="38" cy="38" r="38" transform="translate(1021.209 377.667)" fill="#758ca3"/>
        <g id="Icon_Offline" transform="translate(-1)">
          <g id="Circle-9" data-name="Circle" transform="translate(1065.878 404.667) rotate(90)" fill="none" stroke="#fff" stroke-width="1.5">
            <circle cx="11" cy="11" r="11" stroke="none"/>
            <circle cx="11" cy="11" r="10.25" fill="none"/>
          </g>
          <path id="Icon_Check" d="M1728.5,203.5l3,3,7-8" transform="translate(1257.003 -1317.917) rotate(90)" fill="none" stroke="#fff" stroke-linecap="round" stroke-width="1.5"/>
          <path id="Path-16" data-name="Path" d="M40.9,16.574a10.2,10.2,0,0,0-11.757-5.981A13.739,13.739,0,0,0,17.682,4.5a13.9,13.9,0,0,0-13.8,13.114A9.493,9.493,0,0,0-.5,25.591v2.455H9.593V26.591H.955s0,3.41,0-1a8.036,8.036,0,0,1,4-6.929l.355-.205.009-.409A12.431,12.431,0,0,1,17.682,5.955,12.3,12.3,0,0,1,28.2,11.815l.294.471.531-.157a8.741,8.741,0,0,1,10.649,5.3l.131.348.358.1a8.016,8.016,0,0,1,5.885,7.718c0,4.41,0,1,0,1H36.789v1.455H47.5V25.591A9.477,9.477,0,0,0,40.9,16.574Z" transform="translate(1082.709 392.167) rotate(90)" fill="#fff"/>
        </g>
      </g>
      <g id="Schema_Text" transform="translate(970.209 374.667)" clip-path="url(#clip-path)">
        <g transform="translate(-1029.209 -378.667)">
          <path id="Text" d="M-29.589-8.7a.15.15,0,0,1-.17.17l-1.292.068a.15.15,0,0,1-.17-.17v-.442a1.572,1.572,0,0,0-.4-1.122,1.369,1.369,0,0,0-1.046-.425A1.342,1.342,0,0,0-33.7-10.2a1.592,1.592,0,0,0-.391,1.122v6.256A1.592,1.592,0,0,0-33.7-1.7a1.342,1.342,0,0,0,1.037.425A1.369,1.369,0,0,0-31.62-1.7a1.572,1.572,0,0,0,.4-1.122v-.442a.15.15,0,0,1,.17-.17l1.292.068a.15.15,0,0,1,.17.17v.255A3.122,3.122,0,0,1-30.243-.91,2.787,2.787,0,0,1-32.02.085q-.085.034-.034.085a2.15,2.15,0,0,1,.68,1.564,3.592,3.592,0,0,1-.034.391,1.23,1.23,0,0,1-.51.782,1.58,1.58,0,0,1-.867.238,2.221,2.221,0,0,1-.629-.085.176.176,0,0,1-.136-.2l.085-.544q.017-.153.2-.119a.715.715,0,0,0,.17.017.611.611,0,0,0,.451-.179.727.727,0,0,0,.178-.535A1.976,1.976,0,0,0-33.227.119q-.017-.034-.085-.034A2.775,2.775,0,0,1-35.071-.91a3.122,3.122,0,0,1-.655-2.032V-8.976a2.993,2.993,0,0,1,.842-2.227,3.016,3.016,0,0,1,2.218-.833,3.039,3.039,0,0,1,2.236.833,2.993,2.993,0,0,1,.841,2.227Zm7.48-1.955a.15.15,0,0,1-.17.17H-26.1a.06.06,0,0,0-.068.068v3.689a.06.06,0,0,0,.068.068h2.346a.15.15,0,0,1,.17.17v1.071a.15.15,0,0,1-.17.17H-26.1a.06.06,0,0,0-.068.068v3.706a.06.06,0,0,0,.068.068h3.825a.15.15,0,0,1,.17.17V-.17a.15.15,0,0,1-.17.17h-5.355a.15.15,0,0,1-.17-.17V-11.73a.15.15,0,0,1,.17-.17h5.355a.15.15,0,0,1,.17.17ZM-18.351,0a.175.175,0,0,1-.187-.153l-2.448-11.56v-.034a.135.135,0,0,1,.153-.153h1.411a.162.162,0,0,1,.187.153l1.615,8.823q.017.034.034.034t.034-.034l1.581-8.823a.175.175,0,0,1,.187-.153h1.36q.187,0,.153.187L-16.719-.153A.162.162,0,0,1-16.906,0Zm5.831,0a.15.15,0,0,1-.17-.17V-11.73a.15.15,0,0,1,.17-.17h1.292a.15.15,0,0,1,.17.17V-.17a.15.15,0,0,1-.17.17Zm.646-13.26a1.059,1.059,0,0,1-.782-.306,1.059,1.059,0,0,1-.306-.782,1.059,1.059,0,0,1,.306-.782,1.059,1.059,0,0,1,.782-.306,1.059,1.059,0,0,1,.782.306,1.059,1.059,0,0,1,.306.782,1.059,1.059,0,0,1-.306.782A1.059,1.059,0,0,1-11.874-13.26ZM-4.224,0a.2.2,0,0,1-.2-.136L-5.992-5.2a.067.067,0,0,0-.068-.051H-7.25a.06.06,0,0,0-.068.068V-.17a.15.15,0,0,1-.17.17H-8.78a.15.15,0,0,1-.17-.17V-11.73a.15.15,0,0,1,.17-.17h3.043a2.773,2.773,0,0,1,1.53.425,2.81,2.81,0,0,1,1.029,1.2,4.071,4.071,0,0,1,.365,1.759,3.753,3.753,0,0,1-.442,1.862A2.65,2.65,0,0,1-4.462-5.508a.1.1,0,0,0-.034.1L-2.762-.187l.017.068Q-2.745,0-2.9,0ZM-7.25-10.489a.06.06,0,0,0-.068.068v3.808a.06.06,0,0,0,.068.068h1.258A1.362,1.362,0,0,0-4.87-7.081,2.218,2.218,0,0,0-4.445-8.5,2.276,2.276,0,0,0-4.87-9.953a1.362,1.362,0,0,0-1.122-.536ZM-1.08,0a.15.15,0,0,1-.17-.17V-11.73a.15.15,0,0,1,.17-.17H.212a.15.15,0,0,1,.17.17V-.17A.15.15,0,0,1,.212,0Zm.646-13.26a1.059,1.059,0,0,1-.782-.306,1.059,1.059,0,0,1-.306-.782,1.059,1.059,0,0,1,.306-.782,1.059,1.059,0,0,1,.782-.306,1.059,1.059,0,0,1,.782.306,1.059,1.059,0,0,1,.306.782,1.059,1.059,0,0,1-.306.782A1.059,1.059,0,0,1-.434-13.26Zm8.211,1.479a.221.221,0,0,1,.2-.119H9.274a.15.15,0,0,1,.17.17V-.17a.15.15,0,0,1-.17.17H7.982a.15.15,0,0,1-.17-.17V-8.6q0-.051-.026-.051a.093.093,0,0,0-.06.034L6.095-5.576a.165.165,0,0,1-.153.119.165.165,0,0,1-.153-.119L4.174-8.6a.093.093,0,0,0-.06-.034q-.026,0-.026.051V-.17a.15.15,0,0,1-.17.17H2.627a.15.15,0,0,1-.17-.17V-11.73a.15.15,0,0,1,.17-.17H3.919a.247.247,0,0,1,.2.119l1.785,3.2a.069.069,0,0,0,.051.017.069.069,0,0,0,.051-.017ZM15.071,0a.15.15,0,0,1-.17-.17V-11.73a.15.15,0,0,1,.17-.17h2.788a2.966,2.966,0,0,1,2.244.867,3.244,3.244,0,0,1,.833,2.346v5.474A3.244,3.244,0,0,1,20.1-.867,2.966,2.966,0,0,1,17.859,0Zm1.462-1.479a.06.06,0,0,0,.068.068l1.241-.017a1.25,1.25,0,0,0,1.037-.5A2.246,2.246,0,0,0,19.287-3.3V-8.6A2.208,2.208,0,0,0,18.9-9.979a1.259,1.259,0,0,0-1.054-.51H16.6a.06.06,0,0,0-.068.068ZM23.044,0a.15.15,0,0,1-.17-.17V-11.73a.15.15,0,0,1,.17-.17h1.292a.15.15,0,0,1,.17.17V-.17a.15.15,0,0,1-.17.17Zm9.163-3.009a3.276,3.276,0,0,1-.637,2.065A2.737,2.737,0,0,1,29.844.085q-.1.017-.034.085a2.15,2.15,0,0,1,.68,1.564,3.592,3.592,0,0,1-.034.391,1.23,1.23,0,0,1-.51.782,1.58,1.58,0,0,1-.867.238,2.221,2.221,0,0,1-.629-.085.176.176,0,0,1-.136-.2l.085-.544q.017-.153.2-.119a.715.715,0,0,0,.17.017.611.611,0,0,0,.45-.179A.727.727,0,0,0,29.4,1.5,1.976,1.976,0,0,0,28.637.119Q28.62.085,28.552.085A2.684,2.684,0,0,1,26.843-.91a3.124,3.124,0,0,1-.638-2v-.442a.15.15,0,0,1,.17-.17h1.258a.15.15,0,0,1,.17.17v.357a1.885,1.885,0,0,0,.391,1.25,1.249,1.249,0,0,0,1,.467,1.293,1.293,0,0,0,1.011-.451,1.715,1.715,0,0,0,.4-1.181,1.725,1.725,0,0,0-.212-.867,2.514,2.514,0,0,0-.561-.671q-.349-.3-1.131-.876a16.708,16.708,0,0,1-1.36-1.105,4.106,4.106,0,0,1-.833-1.1,3.2,3.2,0,0,1-.34-1.513,2.935,2.935,0,0,1,.816-2.185,2.891,2.891,0,0,1,2.125-.807,2.874,2.874,0,0,1,2.184.867,3.169,3.169,0,0,1,.825,2.278v.425a.15.15,0,0,1-.17.17H30.694a.15.15,0,0,1-.17-.17v-.459a1.858,1.858,0,0,0-.391-1.233,1.266,1.266,0,0,0-1.02-.467,1.242,1.242,0,0,0-.969.416,1.682,1.682,0,0,0-.374,1.165A1.779,1.779,0,0,0,28.144-7.9a8.091,8.091,0,0,0,1.445,1.249q1.02.765,1.539,1.241a3.549,3.549,0,0,1,.8,1.045A3.028,3.028,0,0,1,32.207-3.009ZM34.026,0a.15.15,0,0,1-.17-.17V-11.73a.15.15,0,0,1,.17-.17h1.292a.15.15,0,0,1,.17.17V-.17a.15.15,0,0,1-.17.17ZM-13.43,5.27a.15.15,0,0,1,.17-.17h1.292a.15.15,0,0,1,.17.17V16.83a.15.15,0,0,1-.17.17H-13.26a.15.15,0,0,1-.17-.17V11.815a.06.06,0,0,0-.068-.068h-2.567a.06.06,0,0,0-.068.068V16.83a.15.15,0,0,1-.17.17H-17.6a.15.15,0,0,1-.17-.17V5.27a.15.15,0,0,1,.17-.17H-16.3a.15.15,0,0,1,.17.17v5a.06.06,0,0,0,.068.068H-13.5a.06.06,0,0,0,.068-.068ZM-4.1,6.341a.15.15,0,0,1-.17.17H-8.092a.06.06,0,0,0-.068.068v3.689a.06.06,0,0,0,.068.068h2.346a.15.15,0,0,1,.17.17v1.071a.15.15,0,0,1-.17.17H-8.092a.06.06,0,0,0-.068.068v3.706a.06.06,0,0,0,.068.068h3.825a.15.15,0,0,1,.17.17V16.83a.15.15,0,0,1-.17.17H-9.622a.15.15,0,0,1-.17-.17V5.27a.15.15,0,0,1,.17-.17h5.355a.15.15,0,0,1,.17.17Zm4.233,10.8a2.9,2.9,0,0,1-2.168-.841,3.011,3.011,0,0,1-.825-2.2v-.442a.15.15,0,0,1,.17-.17h1.258a.15.15,0,0,1,.17.17v.357a1.885,1.885,0,0,0,.391,1.25,1.249,1.249,0,0,0,1,.468,1.293,1.293,0,0,0,1.012-.451,1.715,1.715,0,0,0,.4-1.181,1.725,1.725,0,0,0-.213-.867,2.514,2.514,0,0,0-.561-.671q-.349-.3-1.131-.876a16.708,16.708,0,0,1-1.36-1.1,4.106,4.106,0,0,1-.833-1.1,3.2,3.2,0,0,1-.34-1.513,2.935,2.935,0,0,1,.816-2.185A2.891,2.891,0,0,1,.051,4.964a2.874,2.874,0,0,1,2.184.867A3.169,3.169,0,0,1,3.06,8.109v.425a.15.15,0,0,1-.17.17H1.632a.15.15,0,0,1-.17-.17V8.075a1.858,1.858,0,0,0-.391-1.233,1.266,1.266,0,0,0-1.02-.467,1.242,1.242,0,0,0-.969.416,1.682,1.682,0,0,0-.374,1.165A1.779,1.779,0,0,0-.918,9.1,8.091,8.091,0,0,0,.527,10.353q1.02.765,1.538,1.241a3.549,3.549,0,0,1,.8,1.045,3.028,3.028,0,0,1,.281,1.352,3.144,3.144,0,0,1-.833,2.286A2.9,2.9,0,0,1,.136,17.136ZM9.452,17a.175.175,0,0,1-.187-.153l-.374-1.955a.057.057,0,0,0-.026-.051.1.1,0,0,0-.059-.017H6.035a.1.1,0,0,0-.059.017.057.057,0,0,0-.026.051l-.357,1.955A.162.162,0,0,1,5.406,17H4.114a.143.143,0,0,1-.153-.187L6.494,5.253A.175.175,0,0,1,6.681,5.1H8.194a.162.162,0,0,1,.187.153l2.55,11.56v.034a.135.135,0,0,1-.153.153ZM6.239,13.464q0,.068.051.068H8.551q.051,0,.051-.068L7.446,7.429Q7.429,7.4,7.412,7.4t-.034.034ZM15.4,5.083a2.651,2.651,0,0,1,2.117.944A3.672,3.672,0,0,1,18.326,8.5a3.6,3.6,0,0,1-.782,2.414,2.571,2.571,0,0,1-2.057.918h-1.6a.06.06,0,0,0-.068.068v4.93a.15.15,0,0,1-.17.17H12.359a.15.15,0,0,1-.17-.17V5.253a.15.15,0,0,1,.17-.17Zm-.255,5.44a1.362,1.362,0,0,0,1.122-.536,2.276,2.276,0,0,0,.425-1.453,2.379,2.379,0,0,0-.425-1.487,1.347,1.347,0,0,0-1.122-.553H13.889a.06.06,0,0,0-.068.068v3.893a.06.06,0,0,0,.068.068Z" transform="translate(1049.209 415.667) rotate(90)" fill="#004378"/>
        </g>
        <g transform="translate(-1029.209 -274.667)">
          <path id="Text-2" data-name="Text" d="M-29.589-8.7a.15.15,0,0,1-.17.17l-1.292.068a.15.15,0,0,1-.17-.17v-.442a1.572,1.572,0,0,0-.4-1.122,1.369,1.369,0,0,0-1.046-.425A1.342,1.342,0,0,0-33.7-10.2a1.592,1.592,0,0,0-.391,1.122v6.256A1.592,1.592,0,0,0-33.7-1.7a1.342,1.342,0,0,0,1.037.425A1.369,1.369,0,0,0-31.62-1.7a1.572,1.572,0,0,0,.4-1.122v-.442a.15.15,0,0,1,.17-.17l1.292.068a.15.15,0,0,1,.17.17v.255A3.122,3.122,0,0,1-30.243-.91,2.787,2.787,0,0,1-32.02.085q-.085.034-.034.085a2.15,2.15,0,0,1,.68,1.564,3.592,3.592,0,0,1-.034.391,1.23,1.23,0,0,1-.51.782,1.58,1.58,0,0,1-.867.238,2.221,2.221,0,0,1-.629-.085.176.176,0,0,1-.136-.2l.085-.544q.017-.153.2-.119a.715.715,0,0,0,.17.017.611.611,0,0,0,.451-.179.727.727,0,0,0,.178-.535A1.976,1.976,0,0,0-33.227.119q-.017-.034-.085-.034A2.775,2.775,0,0,1-35.071-.91a3.122,3.122,0,0,1-.655-2.032V-8.976a2.993,2.993,0,0,1,.842-2.227,3.016,3.016,0,0,1,2.218-.833,3.039,3.039,0,0,1,2.236.833,2.993,2.993,0,0,1,.841,2.227Zm7.48-1.955a.15.15,0,0,1-.17.17H-26.1a.06.06,0,0,0-.068.068v3.689a.06.06,0,0,0,.068.068h2.346a.15.15,0,0,1,.17.17v1.071a.15.15,0,0,1-.17.17H-26.1a.06.06,0,0,0-.068.068v3.706a.06.06,0,0,0,.068.068h3.825a.15.15,0,0,1,.17.17V-.17a.15.15,0,0,1-.17.17h-5.355a.15.15,0,0,1-.17-.17V-11.73a.15.15,0,0,1,.17-.17h5.355a.15.15,0,0,1,.17.17ZM-18.351,0a.175.175,0,0,1-.187-.153l-2.448-11.56v-.034a.135.135,0,0,1,.153-.153h1.411a.162.162,0,0,1,.187.153l1.615,8.823q.017.034.034.034t.034-.034l1.581-8.823a.175.175,0,0,1,.187-.153h1.36q.187,0,.153.187L-16.719-.153A.162.162,0,0,1-16.906,0Zm5.831,0a.15.15,0,0,1-.17-.17V-11.73a.15.15,0,0,1,.17-.17h1.292a.15.15,0,0,1,.17.17V-.17a.15.15,0,0,1-.17.17Zm.646-13.26a1.059,1.059,0,0,1-.782-.306,1.059,1.059,0,0,1-.306-.782,1.059,1.059,0,0,1,.306-.782,1.059,1.059,0,0,1,.782-.306,1.059,1.059,0,0,1,.782.306,1.059,1.059,0,0,1,.306.782,1.059,1.059,0,0,1-.306.782A1.059,1.059,0,0,1-11.874-13.26ZM-4.224,0a.2.2,0,0,1-.2-.136L-5.992-5.2a.067.067,0,0,0-.068-.051H-7.25a.06.06,0,0,0-.068.068V-.17a.15.15,0,0,1-.17.17H-8.78a.15.15,0,0,1-.17-.17V-11.73a.15.15,0,0,1,.17-.17h3.043a2.773,2.773,0,0,1,1.53.425,2.81,2.81,0,0,1,1.029,1.2,4.071,4.071,0,0,1,.365,1.759,3.753,3.753,0,0,1-.442,1.862A2.65,2.65,0,0,1-4.462-5.508a.1.1,0,0,0-.034.1L-2.762-.187l.017.068Q-2.745,0-2.9,0ZM-7.25-10.489a.06.06,0,0,0-.068.068v3.808a.06.06,0,0,0,.068.068h1.258A1.362,1.362,0,0,0-4.87-7.081,2.218,2.218,0,0,0-4.445-8.5,2.276,2.276,0,0,0-4.87-9.953a1.362,1.362,0,0,0-1.122-.536ZM-1.08,0a.15.15,0,0,1-.17-.17V-11.73a.15.15,0,0,1,.17-.17H.212a.15.15,0,0,1,.17.17V-.17A.15.15,0,0,1,.212,0Zm.646-13.26a1.059,1.059,0,0,1-.782-.306,1.059,1.059,0,0,1-.306-.782,1.059,1.059,0,0,1,.306-.782,1.059,1.059,0,0,1,.782-.306,1.059,1.059,0,0,1,.782.306,1.059,1.059,0,0,1,.306.782,1.059,1.059,0,0,1-.306.782A1.059,1.059,0,0,1-.434-13.26Zm8.211,1.479a.221.221,0,0,1,.2-.119H9.274a.15.15,0,0,1,.17.17V-.17a.15.15,0,0,1-.17.17H7.982a.15.15,0,0,1-.17-.17V-8.6q0-.051-.026-.051a.093.093,0,0,0-.06.034L6.095-5.576a.165.165,0,0,1-.153.119.165.165,0,0,1-.153-.119L4.174-8.6a.093.093,0,0,0-.06-.034q-.026,0-.026.051V-.17a.15.15,0,0,1-.17.17H2.627a.15.15,0,0,1-.17-.17V-11.73a.15.15,0,0,1,.17-.17H3.919a.247.247,0,0,1,.2.119l1.785,3.2a.069.069,0,0,0,.051.017.069.069,0,0,0,.051-.017ZM15.071,0a.15.15,0,0,1-.17-.17V-11.73a.15.15,0,0,1,.17-.17h2.788a2.966,2.966,0,0,1,2.244.867,3.244,3.244,0,0,1,.833,2.346v5.474A3.244,3.244,0,0,1,20.1-.867,2.966,2.966,0,0,1,17.859,0Zm1.462-1.479a.06.06,0,0,0,.068.068l1.241-.017a1.25,1.25,0,0,0,1.037-.5A2.246,2.246,0,0,0,19.287-3.3V-8.6A2.208,2.208,0,0,0,18.9-9.979a1.259,1.259,0,0,0-1.054-.51H16.6a.06.06,0,0,0-.068.068ZM23.044,0a.15.15,0,0,1-.17-.17V-11.73a.15.15,0,0,1,.17-.17h1.292a.15.15,0,0,1,.17.17V-.17a.15.15,0,0,1-.17.17Zm9.163-3.009a3.276,3.276,0,0,1-.637,2.065A2.737,2.737,0,0,1,29.844.085q-.1.017-.034.085a2.15,2.15,0,0,1,.68,1.564,3.592,3.592,0,0,1-.034.391,1.23,1.23,0,0,1-.51.782,1.58,1.58,0,0,1-.867.238,2.221,2.221,0,0,1-.629-.085.176.176,0,0,1-.136-.2l.085-.544q.017-.153.2-.119a.715.715,0,0,0,.17.017.611.611,0,0,0,.45-.179A.727.727,0,0,0,29.4,1.5,1.976,1.976,0,0,0,28.637.119Q28.62.085,28.552.085A2.684,2.684,0,0,1,26.843-.91a3.124,3.124,0,0,1-.638-2v-.442a.15.15,0,0,1,.17-.17h1.258a.15.15,0,0,1,.17.17v.357a1.885,1.885,0,0,0,.391,1.25,1.249,1.249,0,0,0,1,.467,1.293,1.293,0,0,0,1.011-.451,1.715,1.715,0,0,0,.4-1.181,1.725,1.725,0,0,0-.212-.867,2.514,2.514,0,0,0-.561-.671q-.349-.3-1.131-.876a16.708,16.708,0,0,1-1.36-1.105,4.106,4.106,0,0,1-.833-1.1,3.2,3.2,0,0,1-.34-1.513,2.935,2.935,0,0,1,.816-2.185,2.891,2.891,0,0,1,2.125-.807,2.874,2.874,0,0,1,2.184.867,3.169,3.169,0,0,1,.825,2.278v.425a.15.15,0,0,1-.17.17H30.694a.15.15,0,0,1-.17-.17v-.459a1.858,1.858,0,0,0-.391-1.233,1.266,1.266,0,0,0-1.02-.467,1.242,1.242,0,0,0-.969.416,1.682,1.682,0,0,0-.374,1.165A1.779,1.779,0,0,0,28.144-7.9a8.091,8.091,0,0,0,1.445,1.249q1.02.765,1.539,1.241a3.549,3.549,0,0,1,.8,1.045A3.028,3.028,0,0,1,32.207-3.009ZM34.026,0a.15.15,0,0,1-.17-.17V-11.73a.15.15,0,0,1,.17-.17h1.292a.15.15,0,0,1,.17.17V-.17a.15.15,0,0,1-.17.17ZM-13.43,5.27a.15.15,0,0,1,.17-.17h1.292a.15.15,0,0,1,.17.17V16.83a.15.15,0,0,1-.17.17H-13.26a.15.15,0,0,1-.17-.17V11.815a.06.06,0,0,0-.068-.068h-2.567a.06.06,0,0,0-.068.068V16.83a.15.15,0,0,1-.17.17H-17.6a.15.15,0,0,1-.17-.17V5.27a.15.15,0,0,1,.17-.17H-16.3a.15.15,0,0,1,.17.17v5a.06.06,0,0,0,.068.068H-13.5a.06.06,0,0,0,.068-.068ZM-4.1,6.341a.15.15,0,0,1-.17.17H-8.092a.06.06,0,0,0-.068.068v3.689a.06.06,0,0,0,.068.068h2.346a.15.15,0,0,1,.17.17v1.071a.15.15,0,0,1-.17.17H-8.092a.06.06,0,0,0-.068.068v3.706a.06.06,0,0,0,.068.068h3.825a.15.15,0,0,1,.17.17V16.83a.15.15,0,0,1-.17.17H-9.622a.15.15,0,0,1-.17-.17V5.27a.15.15,0,0,1,.17-.17h5.355a.15.15,0,0,1,.17.17Zm4.233,10.8a2.9,2.9,0,0,1-2.168-.841,3.011,3.011,0,0,1-.825-2.2v-.442a.15.15,0,0,1,.17-.17h1.258a.15.15,0,0,1,.17.17v.357a1.885,1.885,0,0,0,.391,1.25,1.249,1.249,0,0,0,1,.468,1.293,1.293,0,0,0,1.012-.451,1.715,1.715,0,0,0,.4-1.181,1.725,1.725,0,0,0-.213-.867,2.514,2.514,0,0,0-.561-.671q-.349-.3-1.131-.876a16.708,16.708,0,0,1-1.36-1.1,4.106,4.106,0,0,1-.833-1.1,3.2,3.2,0,0,1-.34-1.513,2.935,2.935,0,0,1,.816-2.185A2.891,2.891,0,0,1,.051,4.964a2.874,2.874,0,0,1,2.184.867A3.169,3.169,0,0,1,3.06,8.109v.425a.15.15,0,0,1-.17.17H1.632a.15.15,0,0,1-.17-.17V8.075a1.858,1.858,0,0,0-.391-1.233,1.266,1.266,0,0,0-1.02-.467,1.242,1.242,0,0,0-.969.416,1.682,1.682,0,0,0-.374,1.165A1.779,1.779,0,0,0-.918,9.1,8.091,8.091,0,0,0,.527,10.353q1.02.765,1.538,1.241a3.549,3.549,0,0,1,.8,1.045,3.028,3.028,0,0,1,.281,1.352,3.144,3.144,0,0,1-.833,2.286A2.9,2.9,0,0,1,.136,17.136ZM9.452,17a.175.175,0,0,1-.187-.153l-.374-1.955a.057.057,0,0,0-.026-.051.1.1,0,0,0-.059-.017H6.035a.1.1,0,0,0-.059.017.057.057,0,0,0-.026.051l-.357,1.955A.162.162,0,0,1,5.406,17H4.114a.143.143,0,0,1-.153-.187L6.494,5.253A.175.175,0,0,1,6.681,5.1H8.194a.162.162,0,0,1,.187.153l2.55,11.56v.034a.135.135,0,0,1-.153.153ZM6.239,13.464q0,.068.051.068H8.551q.051,0,.051-.068L7.446,7.429Q7.429,7.4,7.412,7.4t-.034.034ZM15.4,5.083a2.651,2.651,0,0,1,2.117.944A3.672,3.672,0,0,1,18.326,8.5a3.6,3.6,0,0,1-.782,2.414,2.571,2.571,0,0,1-2.057.918h-1.6a.06.06,0,0,0-.068.068v4.93a.15.15,0,0,1-.17.17H12.359a.15.15,0,0,1-.17-.17V5.253a.15.15,0,0,1,.17-.17Zm-.255,5.44a1.362,1.362,0,0,0,1.122-.536,2.276,2.276,0,0,0,.425-1.453,2.379,2.379,0,0,0-.425-1.487,1.347,1.347,0,0,0-1.122-.553H13.889a.06.06,0,0,0-.068.068v3.893a.06.06,0,0,0,.068.068Z" transform="translate(1049.209 415.667) rotate(90)" fill="#004378"/>
        </g>
        <g transform="translate(-1029.209 -170.667)">
          <path id="Text-3" data-name="Text" d="M-29.589-8.7a.15.15,0,0,1-.17.17l-1.292.068a.15.15,0,0,1-.17-.17v-.442a1.572,1.572,0,0,0-.4-1.122,1.369,1.369,0,0,0-1.046-.425A1.342,1.342,0,0,0-33.7-10.2a1.592,1.592,0,0,0-.391,1.122v6.256A1.592,1.592,0,0,0-33.7-1.7a1.342,1.342,0,0,0,1.037.425A1.369,1.369,0,0,0-31.62-1.7a1.572,1.572,0,0,0,.4-1.122v-.442a.15.15,0,0,1,.17-.17l1.292.068a.15.15,0,0,1,.17.17v.255A3.122,3.122,0,0,1-30.243-.91,2.787,2.787,0,0,1-32.02.085q-.085.034-.034.085a2.15,2.15,0,0,1,.68,1.564,3.592,3.592,0,0,1-.034.391,1.23,1.23,0,0,1-.51.782,1.58,1.58,0,0,1-.867.238,2.221,2.221,0,0,1-.629-.085.176.176,0,0,1-.136-.2l.085-.544q.017-.153.2-.119a.715.715,0,0,0,.17.017.611.611,0,0,0,.451-.179.727.727,0,0,0,.178-.535A1.976,1.976,0,0,0-33.227.119q-.017-.034-.085-.034A2.775,2.775,0,0,1-35.071-.91a3.122,3.122,0,0,1-.655-2.032V-8.976a2.993,2.993,0,0,1,.842-2.227,3.016,3.016,0,0,1,2.218-.833,3.039,3.039,0,0,1,2.236.833,2.993,2.993,0,0,1,.841,2.227Zm7.48-1.955a.15.15,0,0,1-.17.17H-26.1a.06.06,0,0,0-.068.068v3.689a.06.06,0,0,0,.068.068h2.346a.15.15,0,0,1,.17.17v1.071a.15.15,0,0,1-.17.17H-26.1a.06.06,0,0,0-.068.068v3.706a.06.06,0,0,0,.068.068h3.825a.15.15,0,0,1,.17.17V-.17a.15.15,0,0,1-.17.17h-5.355a.15.15,0,0,1-.17-.17V-11.73a.15.15,0,0,1,.17-.17h5.355a.15.15,0,0,1,.17.17ZM-18.351,0a.175.175,0,0,1-.187-.153l-2.448-11.56v-.034a.135.135,0,0,1,.153-.153h1.411a.162.162,0,0,1,.187.153l1.615,8.823q.017.034.034.034t.034-.034l1.581-8.823a.175.175,0,0,1,.187-.153h1.36q.187,0,.153.187L-16.719-.153A.162.162,0,0,1-16.906,0Zm5.831,0a.15.15,0,0,1-.17-.17V-11.73a.15.15,0,0,1,.17-.17h1.292a.15.15,0,0,1,.17.17V-.17a.15.15,0,0,1-.17.17Zm.646-13.26a1.059,1.059,0,0,1-.782-.306,1.059,1.059,0,0,1-.306-.782,1.059,1.059,0,0,1,.306-.782,1.059,1.059,0,0,1,.782-.306,1.059,1.059,0,0,1,.782.306,1.059,1.059,0,0,1,.306.782,1.059,1.059,0,0,1-.306.782A1.059,1.059,0,0,1-11.874-13.26ZM-4.224,0a.2.2,0,0,1-.2-.136L-5.992-5.2a.067.067,0,0,0-.068-.051H-7.25a.06.06,0,0,0-.068.068V-.17a.15.15,0,0,1-.17.17H-8.78a.15.15,0,0,1-.17-.17V-11.73a.15.15,0,0,1,.17-.17h3.043a2.773,2.773,0,0,1,1.53.425,2.81,2.81,0,0,1,1.029,1.2,4.071,4.071,0,0,1,.365,1.759,3.753,3.753,0,0,1-.442,1.862A2.65,2.65,0,0,1-4.462-5.508a.1.1,0,0,0-.034.1L-2.762-.187l.017.068Q-2.745,0-2.9,0ZM-7.25-10.489a.06.06,0,0,0-.068.068v3.808a.06.06,0,0,0,.068.068h1.258A1.362,1.362,0,0,0-4.87-7.081,2.218,2.218,0,0,0-4.445-8.5,2.276,2.276,0,0,0-4.87-9.953a1.362,1.362,0,0,0-1.122-.536ZM-1.08,0a.15.15,0,0,1-.17-.17V-11.73a.15.15,0,0,1,.17-.17H.212a.15.15,0,0,1,.17.17V-.17A.15.15,0,0,1,.212,0Zm.646-13.26a1.059,1.059,0,0,1-.782-.306,1.059,1.059,0,0,1-.306-.782,1.059,1.059,0,0,1,.306-.782,1.059,1.059,0,0,1,.782-.306,1.059,1.059,0,0,1,.782.306,1.059,1.059,0,0,1,.306.782,1.059,1.059,0,0,1-.306.782A1.059,1.059,0,0,1-.434-13.26Zm8.211,1.479a.221.221,0,0,1,.2-.119H9.274a.15.15,0,0,1,.17.17V-.17a.15.15,0,0,1-.17.17H7.982a.15.15,0,0,1-.17-.17V-8.6q0-.051-.026-.051a.093.093,0,0,0-.06.034L6.095-5.576a.165.165,0,0,1-.153.119.165.165,0,0,1-.153-.119L4.174-8.6a.093.093,0,0,0-.06-.034q-.026,0-.026.051V-.17a.15.15,0,0,1-.17.17H2.627a.15.15,0,0,1-.17-.17V-11.73a.15.15,0,0,1,.17-.17H3.919a.247.247,0,0,1,.2.119l1.785,3.2a.069.069,0,0,0,.051.017.069.069,0,0,0,.051-.017ZM15.071,0a.15.15,0,0,1-.17-.17V-11.73a.15.15,0,0,1,.17-.17h2.788a2.966,2.966,0,0,1,2.244.867,3.244,3.244,0,0,1,.833,2.346v5.474A3.244,3.244,0,0,1,20.1-.867,2.966,2.966,0,0,1,17.859,0Zm1.462-1.479a.06.06,0,0,0,.068.068l1.241-.017a1.25,1.25,0,0,0,1.037-.5A2.246,2.246,0,0,0,19.287-3.3V-8.6A2.208,2.208,0,0,0,18.9-9.979a1.259,1.259,0,0,0-1.054-.51H16.6a.06.06,0,0,0-.068.068ZM23.044,0a.15.15,0,0,1-.17-.17V-11.73a.15.15,0,0,1,.17-.17h1.292a.15.15,0,0,1,.17.17V-.17a.15.15,0,0,1-.17.17Zm9.163-3.009a3.276,3.276,0,0,1-.637,2.065A2.737,2.737,0,0,1,29.844.085q-.1.017-.034.085a2.15,2.15,0,0,1,.68,1.564,3.592,3.592,0,0,1-.034.391,1.23,1.23,0,0,1-.51.782,1.58,1.58,0,0,1-.867.238,2.221,2.221,0,0,1-.629-.085.176.176,0,0,1-.136-.2l.085-.544q.017-.153.2-.119a.715.715,0,0,0,.17.017.611.611,0,0,0,.45-.179A.727.727,0,0,0,29.4,1.5,1.976,1.976,0,0,0,28.637.119Q28.62.085,28.552.085A2.684,2.684,0,0,1,26.843-.91a3.124,3.124,0,0,1-.638-2v-.442a.15.15,0,0,1,.17-.17h1.258a.15.15,0,0,1,.17.17v.357a1.885,1.885,0,0,0,.391,1.25,1.249,1.249,0,0,0,1,.467,1.293,1.293,0,0,0,1.011-.451,1.715,1.715,0,0,0,.4-1.181,1.725,1.725,0,0,0-.212-.867,2.514,2.514,0,0,0-.561-.671q-.349-.3-1.131-.876a16.708,16.708,0,0,1-1.36-1.105,4.106,4.106,0,0,1-.833-1.1,3.2,3.2,0,0,1-.34-1.513,2.935,2.935,0,0,1,.816-2.185,2.891,2.891,0,0,1,2.125-.807,2.874,2.874,0,0,1,2.184.867,3.169,3.169,0,0,1,.825,2.278v.425a.15.15,0,0,1-.17.17H30.694a.15.15,0,0,1-.17-.17v-.459a1.858,1.858,0,0,0-.391-1.233,1.266,1.266,0,0,0-1.02-.467,1.242,1.242,0,0,0-.969.416,1.682,1.682,0,0,0-.374,1.165A1.779,1.779,0,0,0,28.144-7.9a8.091,8.091,0,0,0,1.445,1.249q1.02.765,1.539,1.241a3.549,3.549,0,0,1,.8,1.045A3.028,3.028,0,0,1,32.207-3.009ZM34.026,0a.15.15,0,0,1-.17-.17V-11.73a.15.15,0,0,1,.17-.17h1.292a.15.15,0,0,1,.17.17V-.17a.15.15,0,0,1-.17.17ZM-13.43,5.27a.15.15,0,0,1,.17-.17h1.292a.15.15,0,0,1,.17.17V16.83a.15.15,0,0,1-.17.17H-13.26a.15.15,0,0,1-.17-.17V11.815a.06.06,0,0,0-.068-.068h-2.567a.06.06,0,0,0-.068.068V16.83a.15.15,0,0,1-.17.17H-17.6a.15.15,0,0,1-.17-.17V5.27a.15.15,0,0,1,.17-.17H-16.3a.15.15,0,0,1,.17.17v5a.06.06,0,0,0,.068.068H-13.5a.06.06,0,0,0,.068-.068ZM-4.1,6.341a.15.15,0,0,1-.17.17H-8.092a.06.06,0,0,0-.068.068v3.689a.06.06,0,0,0,.068.068h2.346a.15.15,0,0,1,.17.17v1.071a.15.15,0,0,1-.17.17H-8.092a.06.06,0,0,0-.068.068v3.706a.06.06,0,0,0,.068.068h3.825a.15.15,0,0,1,.17.17V16.83a.15.15,0,0,1-.17.17H-9.622a.15.15,0,0,1-.17-.17V5.27a.15.15,0,0,1,.17-.17h5.355a.15.15,0,0,1,.17.17Zm4.233,10.8a2.9,2.9,0,0,1-2.168-.841,3.011,3.011,0,0,1-.825-2.2v-.442a.15.15,0,0,1,.17-.17h1.258a.15.15,0,0,1,.17.17v.357a1.885,1.885,0,0,0,.391,1.25,1.249,1.249,0,0,0,1,.468,1.293,1.293,0,0,0,1.012-.451,1.715,1.715,0,0,0,.4-1.181,1.725,1.725,0,0,0-.213-.867,2.514,2.514,0,0,0-.561-.671q-.349-.3-1.131-.876a16.708,16.708,0,0,1-1.36-1.1,4.106,4.106,0,0,1-.833-1.1,3.2,3.2,0,0,1-.34-1.513,2.935,2.935,0,0,1,.816-2.185A2.891,2.891,0,0,1,.051,4.964a2.874,2.874,0,0,1,2.184.867A3.169,3.169,0,0,1,3.06,8.109v.425a.15.15,0,0,1-.17.17H1.632a.15.15,0,0,1-.17-.17V8.075a1.858,1.858,0,0,0-.391-1.233,1.266,1.266,0,0,0-1.02-.467,1.242,1.242,0,0,0-.969.416,1.682,1.682,0,0,0-.374,1.165A1.779,1.779,0,0,0-.918,9.1,8.091,8.091,0,0,0,.527,10.353q1.02.765,1.538,1.241a3.549,3.549,0,0,1,.8,1.045,3.028,3.028,0,0,1,.281,1.352,3.144,3.144,0,0,1-.833,2.286A2.9,2.9,0,0,1,.136,17.136ZM9.452,17a.175.175,0,0,1-.187-.153l-.374-1.955a.057.057,0,0,0-.026-.051.1.1,0,0,0-.059-.017H6.035a.1.1,0,0,0-.059.017.057.057,0,0,0-.026.051l-.357,1.955A.162.162,0,0,1,5.406,17H4.114a.143.143,0,0,1-.153-.187L6.494,5.253A.175.175,0,0,1,6.681,5.1H8.194a.162.162,0,0,1,.187.153l2.55,11.56v.034a.135.135,0,0,1-.153.153ZM6.239,13.464q0,.068.051.068H8.551q.051,0,.051-.068L7.446,7.429Q7.429,7.4,7.412,7.4t-.034.034ZM15.4,5.083a2.651,2.651,0,0,1,2.117.944A3.672,3.672,0,0,1,18.326,8.5a3.6,3.6,0,0,1-.782,2.414,2.571,2.571,0,0,1-2.057.918h-1.6a.06.06,0,0,0-.068.068v4.93a.15.15,0,0,1-.17.17H12.359a.15.15,0,0,1-.17-.17V5.253a.15.15,0,0,1,.17-.17Zm-.255,5.44a1.362,1.362,0,0,0,1.122-.536,2.276,2.276,0,0,0,.425-1.453,2.379,2.379,0,0,0-.425-1.487,1.347,1.347,0,0,0-1.122-.553H13.889a.06.06,0,0,0-.068.068v3.893a.06.06,0,0,0,.068.068Z" transform="translate(1049.209 415.667) rotate(90)" fill="#004378"/>
        </g>
        <g transform="translate(-1029.209 -66.667)">
          <path id="Text-4" data-name="Text" d="M-29.589-8.7a.15.15,0,0,1-.17.17l-1.292.068a.15.15,0,0,1-.17-.17v-.442a1.572,1.572,0,0,0-.4-1.122,1.369,1.369,0,0,0-1.046-.425A1.342,1.342,0,0,0-33.7-10.2a1.592,1.592,0,0,0-.391,1.122v6.256A1.592,1.592,0,0,0-33.7-1.7a1.342,1.342,0,0,0,1.037.425A1.369,1.369,0,0,0-31.62-1.7a1.572,1.572,0,0,0,.4-1.122v-.442a.15.15,0,0,1,.17-.17l1.292.068a.15.15,0,0,1,.17.17v.255A3.122,3.122,0,0,1-30.243-.91,2.787,2.787,0,0,1-32.02.085q-.085.034-.034.085a2.15,2.15,0,0,1,.68,1.564,3.592,3.592,0,0,1-.034.391,1.23,1.23,0,0,1-.51.782,1.58,1.58,0,0,1-.867.238,2.221,2.221,0,0,1-.629-.085.176.176,0,0,1-.136-.2l.085-.544q.017-.153.2-.119a.715.715,0,0,0,.17.017.611.611,0,0,0,.451-.179.727.727,0,0,0,.178-.535A1.976,1.976,0,0,0-33.227.119q-.017-.034-.085-.034A2.775,2.775,0,0,1-35.071-.91a3.122,3.122,0,0,1-.655-2.032V-8.976a2.993,2.993,0,0,1,.842-2.227,3.016,3.016,0,0,1,2.218-.833,3.039,3.039,0,0,1,2.236.833,2.993,2.993,0,0,1,.841,2.227Zm7.48-1.955a.15.15,0,0,1-.17.17H-26.1a.06.06,0,0,0-.068.068v3.689a.06.06,0,0,0,.068.068h2.346a.15.15,0,0,1,.17.17v1.071a.15.15,0,0,1-.17.17H-26.1a.06.06,0,0,0-.068.068v3.706a.06.06,0,0,0,.068.068h3.825a.15.15,0,0,1,.17.17V-.17a.15.15,0,0,1-.17.17h-5.355a.15.15,0,0,1-.17-.17V-11.73a.15.15,0,0,1,.17-.17h5.355a.15.15,0,0,1,.17.17ZM-18.351,0a.175.175,0,0,1-.187-.153l-2.448-11.56v-.034a.135.135,0,0,1,.153-.153h1.411a.162.162,0,0,1,.187.153l1.615,8.823q.017.034.034.034t.034-.034l1.581-8.823a.175.175,0,0,1,.187-.153h1.36q.187,0,.153.187L-16.719-.153A.162.162,0,0,1-16.906,0Zm5.831,0a.15.15,0,0,1-.17-.17V-11.73a.15.15,0,0,1,.17-.17h1.292a.15.15,0,0,1,.17.17V-.17a.15.15,0,0,1-.17.17Zm.646-13.26a1.059,1.059,0,0,1-.782-.306,1.059,1.059,0,0,1-.306-.782,1.059,1.059,0,0,1,.306-.782,1.059,1.059,0,0,1,.782-.306,1.059,1.059,0,0,1,.782.306,1.059,1.059,0,0,1,.306.782,1.059,1.059,0,0,1-.306.782A1.059,1.059,0,0,1-11.874-13.26ZM-4.224,0a.2.2,0,0,1-.2-.136L-5.992-5.2a.067.067,0,0,0-.068-.051H-7.25a.06.06,0,0,0-.068.068V-.17a.15.15,0,0,1-.17.17H-8.78a.15.15,0,0,1-.17-.17V-11.73a.15.15,0,0,1,.17-.17h3.043a2.773,2.773,0,0,1,1.53.425,2.81,2.81,0,0,1,1.029,1.2,4.071,4.071,0,0,1,.365,1.759,3.753,3.753,0,0,1-.442,1.862A2.65,2.65,0,0,1-4.462-5.508a.1.1,0,0,0-.034.1L-2.762-.187l.017.068Q-2.745,0-2.9,0ZM-7.25-10.489a.06.06,0,0,0-.068.068v3.808a.06.06,0,0,0,.068.068h1.258A1.362,1.362,0,0,0-4.87-7.081,2.218,2.218,0,0,0-4.445-8.5,2.276,2.276,0,0,0-4.87-9.953a1.362,1.362,0,0,0-1.122-.536ZM-1.08,0a.15.15,0,0,1-.17-.17V-11.73a.15.15,0,0,1,.17-.17H.212a.15.15,0,0,1,.17.17V-.17A.15.15,0,0,1,.212,0Zm.646-13.26a1.059,1.059,0,0,1-.782-.306,1.059,1.059,0,0,1-.306-.782,1.059,1.059,0,0,1,.306-.782,1.059,1.059,0,0,1,.782-.306,1.059,1.059,0,0,1,.782.306,1.059,1.059,0,0,1,.306.782,1.059,1.059,0,0,1-.306.782A1.059,1.059,0,0,1-.434-13.26Zm8.211,1.479a.221.221,0,0,1,.2-.119H9.274a.15.15,0,0,1,.17.17V-.17a.15.15,0,0,1-.17.17H7.982a.15.15,0,0,1-.17-.17V-8.6q0-.051-.026-.051a.093.093,0,0,0-.06.034L6.095-5.576a.165.165,0,0,1-.153.119.165.165,0,0,1-.153-.119L4.174-8.6a.093.093,0,0,0-.06-.034q-.026,0-.026.051V-.17a.15.15,0,0,1-.17.17H2.627a.15.15,0,0,1-.17-.17V-11.73a.15.15,0,0,1,.17-.17H3.919a.247.247,0,0,1,.2.119l1.785,3.2a.069.069,0,0,0,.051.017.069.069,0,0,0,.051-.017ZM15.071,0a.15.15,0,0,1-.17-.17V-11.73a.15.15,0,0,1,.17-.17h2.788a2.966,2.966,0,0,1,2.244.867,3.244,3.244,0,0,1,.833,2.346v5.474A3.244,3.244,0,0,1,20.1-.867,2.966,2.966,0,0,1,17.859,0Zm1.462-1.479a.06.06,0,0,0,.068.068l1.241-.017a1.25,1.25,0,0,0,1.037-.5A2.246,2.246,0,0,0,19.287-3.3V-8.6A2.208,2.208,0,0,0,18.9-9.979a1.259,1.259,0,0,0-1.054-.51H16.6a.06.06,0,0,0-.068.068ZM23.044,0a.15.15,0,0,1-.17-.17V-11.73a.15.15,0,0,1,.17-.17h1.292a.15.15,0,0,1,.17.17V-.17a.15.15,0,0,1-.17.17Zm9.163-3.009a3.276,3.276,0,0,1-.637,2.065A2.737,2.737,0,0,1,29.844.085q-.1.017-.034.085a2.15,2.15,0,0,1,.68,1.564,3.592,3.592,0,0,1-.034.391,1.23,1.23,0,0,1-.51.782,1.58,1.58,0,0,1-.867.238,2.221,2.221,0,0,1-.629-.085.176.176,0,0,1-.136-.2l.085-.544q.017-.153.2-.119a.715.715,0,0,0,.17.017.611.611,0,0,0,.45-.179A.727.727,0,0,0,29.4,1.5,1.976,1.976,0,0,0,28.637.119Q28.62.085,28.552.085A2.684,2.684,0,0,1,26.843-.91a3.124,3.124,0,0,1-.638-2v-.442a.15.15,0,0,1,.17-.17h1.258a.15.15,0,0,1,.17.17v.357a1.885,1.885,0,0,0,.391,1.25,1.249,1.249,0,0,0,1,.467,1.293,1.293,0,0,0,1.011-.451,1.715,1.715,0,0,0,.4-1.181,1.725,1.725,0,0,0-.212-.867,2.514,2.514,0,0,0-.561-.671q-.349-.3-1.131-.876a16.708,16.708,0,0,1-1.36-1.105,4.106,4.106,0,0,1-.833-1.1,3.2,3.2,0,0,1-.34-1.513,2.935,2.935,0,0,1,.816-2.185,2.891,2.891,0,0,1,2.125-.807,2.874,2.874,0,0,1,2.184.867,3.169,3.169,0,0,1,.825,2.278v.425a.15.15,0,0,1-.17.17H30.694a.15.15,0,0,1-.17-.17v-.459a1.858,1.858,0,0,0-.391-1.233,1.266,1.266,0,0,0-1.02-.467,1.242,1.242,0,0,0-.969.416,1.682,1.682,0,0,0-.374,1.165A1.779,1.779,0,0,0,28.144-7.9a8.091,8.091,0,0,0,1.445,1.249q1.02.765,1.539,1.241a3.549,3.549,0,0,1,.8,1.045A3.028,3.028,0,0,1,32.207-3.009ZM34.026,0a.15.15,0,0,1-.17-.17V-11.73a.15.15,0,0,1,.17-.17h1.292a.15.15,0,0,1,.17.17V-.17a.15.15,0,0,1-.17.17ZM-13.43,5.27a.15.15,0,0,1,.17-.17h1.292a.15.15,0,0,1,.17.17V16.83a.15.15,0,0,1-.17.17H-13.26a.15.15,0,0,1-.17-.17V11.815a.06.06,0,0,0-.068-.068h-2.567a.06.06,0,0,0-.068.068V16.83a.15.15,0,0,1-.17.17H-17.6a.15.15,0,0,1-.17-.17V5.27a.15.15,0,0,1,.17-.17H-16.3a.15.15,0,0,1,.17.17v5a.06.06,0,0,0,.068.068H-13.5a.06.06,0,0,0,.068-.068ZM-4.1,6.341a.15.15,0,0,1-.17.17H-8.092a.06.06,0,0,0-.068.068v3.689a.06.06,0,0,0,.068.068h2.346a.15.15,0,0,1,.17.17v1.071a.15.15,0,0,1-.17.17H-8.092a.06.06,0,0,0-.068.068v3.706a.06.06,0,0,0,.068.068h3.825a.15.15,0,0,1,.17.17V16.83a.15.15,0,0,1-.17.17H-9.622a.15.15,0,0,1-.17-.17V5.27a.15.15,0,0,1,.17-.17h5.355a.15.15,0,0,1,.17.17Zm4.233,10.8a2.9,2.9,0,0,1-2.168-.841,3.011,3.011,0,0,1-.825-2.2v-.442a.15.15,0,0,1,.17-.17h1.258a.15.15,0,0,1,.17.17v.357a1.885,1.885,0,0,0,.391,1.25,1.249,1.249,0,0,0,1,.468,1.293,1.293,0,0,0,1.012-.451,1.715,1.715,0,0,0,.4-1.181,1.725,1.725,0,0,0-.213-.867,2.514,2.514,0,0,0-.561-.671q-.349-.3-1.131-.876a16.708,16.708,0,0,1-1.36-1.1,4.106,4.106,0,0,1-.833-1.1,3.2,3.2,0,0,1-.34-1.513,2.935,2.935,0,0,1,.816-2.185A2.891,2.891,0,0,1,.051,4.964a2.874,2.874,0,0,1,2.184.867A3.169,3.169,0,0,1,3.06,8.109v.425a.15.15,0,0,1-.17.17H1.632a.15.15,0,0,1-.17-.17V8.075a1.858,1.858,0,0,0-.391-1.233,1.266,1.266,0,0,0-1.02-.467,1.242,1.242,0,0,0-.969.416,1.682,1.682,0,0,0-.374,1.165A1.779,1.779,0,0,0-.918,9.1,8.091,8.091,0,0,0,.527,10.353q1.02.765,1.538,1.241a3.549,3.549,0,0,1,.8,1.045,3.028,3.028,0,0,1,.281,1.352,3.144,3.144,0,0,1-.833,2.286A2.9,2.9,0,0,1,.136,17.136ZM9.452,17a.175.175,0,0,1-.187-.153l-.374-1.955a.057.057,0,0,0-.026-.051.1.1,0,0,0-.059-.017H6.035a.1.1,0,0,0-.059.017.057.057,0,0,0-.026.051l-.357,1.955A.162.162,0,0,1,5.406,17H4.114a.143.143,0,0,1-.153-.187L6.494,5.253A.175.175,0,0,1,6.681,5.1H8.194a.162.162,0,0,1,.187.153l2.55,11.56v.034a.135.135,0,0,1-.153.153ZM6.239,13.464q0,.068.051.068H8.551q.051,0,.051-.068L7.446,7.429Q7.429,7.4,7.412,7.4t-.034.034ZM15.4,5.083a2.651,2.651,0,0,1,2.117.944A3.672,3.672,0,0,1,18.326,8.5a3.6,3.6,0,0,1-.782,2.414,2.571,2.571,0,0,1-2.057.918h-1.6a.06.06,0,0,0-.068.068v4.93a.15.15,0,0,1-.17.17H12.359a.15.15,0,0,1-.17-.17V5.253a.15.15,0,0,1,.17-.17Zm-.255,5.44a1.362,1.362,0,0,0,1.122-.536,2.276,2.276,0,0,0,.425-1.453,2.379,2.379,0,0,0-.425-1.487,1.347,1.347,0,0,0-1.122-.553H13.889a.06.06,0,0,0-.068.068v3.893a.06.06,0,0,0,.068.068Z" transform="translate(1049.209 415.667) rotate(90)" fill="#004378"/>
        </g>
        <g transform="translate(-1029.209 37.333)">
          <path id="Text-5" data-name="Text" d="M-29.589-8.7a.15.15,0,0,1-.17.17l-1.292.068a.15.15,0,0,1-.17-.17v-.442a1.572,1.572,0,0,0-.4-1.122,1.369,1.369,0,0,0-1.046-.425A1.342,1.342,0,0,0-33.7-10.2a1.592,1.592,0,0,0-.391,1.122v6.256A1.592,1.592,0,0,0-33.7-1.7a1.342,1.342,0,0,0,1.037.425A1.369,1.369,0,0,0-31.62-1.7a1.572,1.572,0,0,0,.4-1.122v-.442a.15.15,0,0,1,.17-.17l1.292.068a.15.15,0,0,1,.17.17v.255A3.122,3.122,0,0,1-30.243-.91,2.787,2.787,0,0,1-32.02.085q-.085.034-.034.085a2.15,2.15,0,0,1,.68,1.564,3.592,3.592,0,0,1-.034.391,1.23,1.23,0,0,1-.51.782,1.58,1.58,0,0,1-.867.238,2.221,2.221,0,0,1-.629-.085.176.176,0,0,1-.136-.2l.085-.544q.017-.153.2-.119a.715.715,0,0,0,.17.017.611.611,0,0,0,.451-.179.727.727,0,0,0,.178-.535A1.976,1.976,0,0,0-33.227.119q-.017-.034-.085-.034A2.775,2.775,0,0,1-35.071-.91a3.122,3.122,0,0,1-.655-2.032V-8.976a2.993,2.993,0,0,1,.842-2.227,3.016,3.016,0,0,1,2.218-.833,3.039,3.039,0,0,1,2.236.833,2.993,2.993,0,0,1,.841,2.227Zm7.48-1.955a.15.15,0,0,1-.17.17H-26.1a.06.06,0,0,0-.068.068v3.689a.06.06,0,0,0,.068.068h2.346a.15.15,0,0,1,.17.17v1.071a.15.15,0,0,1-.17.17H-26.1a.06.06,0,0,0-.068.068v3.706a.06.06,0,0,0,.068.068h3.825a.15.15,0,0,1,.17.17V-.17a.15.15,0,0,1-.17.17h-5.355a.15.15,0,0,1-.17-.17V-11.73a.15.15,0,0,1,.17-.17h5.355a.15.15,0,0,1,.17.17ZM-18.351,0a.175.175,0,0,1-.187-.153l-2.448-11.56v-.034a.135.135,0,0,1,.153-.153h1.411a.162.162,0,0,1,.187.153l1.615,8.823q.017.034.034.034t.034-.034l1.581-8.823a.175.175,0,0,1,.187-.153h1.36q.187,0,.153.187L-16.719-.153A.162.162,0,0,1-16.906,0Zm5.831,0a.15.15,0,0,1-.17-.17V-11.73a.15.15,0,0,1,.17-.17h1.292a.15.15,0,0,1,.17.17V-.17a.15.15,0,0,1-.17.17Zm.646-13.26a1.059,1.059,0,0,1-.782-.306,1.059,1.059,0,0,1-.306-.782,1.059,1.059,0,0,1,.306-.782,1.059,1.059,0,0,1,.782-.306,1.059,1.059,0,0,1,.782.306,1.059,1.059,0,0,1,.306.782,1.059,1.059,0,0,1-.306.782A1.059,1.059,0,0,1-11.874-13.26ZM-4.224,0a.2.2,0,0,1-.2-.136L-5.992-5.2a.067.067,0,0,0-.068-.051H-7.25a.06.06,0,0,0-.068.068V-.17a.15.15,0,0,1-.17.17H-8.78a.15.15,0,0,1-.17-.17V-11.73a.15.15,0,0,1,.17-.17h3.043a2.773,2.773,0,0,1,1.53.425,2.81,2.81,0,0,1,1.029,1.2,4.071,4.071,0,0,1,.365,1.759,3.753,3.753,0,0,1-.442,1.862A2.65,2.65,0,0,1-4.462-5.508a.1.1,0,0,0-.034.1L-2.762-.187l.017.068Q-2.745,0-2.9,0ZM-7.25-10.489a.06.06,0,0,0-.068.068v3.808a.06.06,0,0,0,.068.068h1.258A1.362,1.362,0,0,0-4.87-7.081,2.218,2.218,0,0,0-4.445-8.5,2.276,2.276,0,0,0-4.87-9.953a1.362,1.362,0,0,0-1.122-.536ZM-1.08,0a.15.15,0,0,1-.17-.17V-11.73a.15.15,0,0,1,.17-.17H.212a.15.15,0,0,1,.17.17V-.17A.15.15,0,0,1,.212,0Zm.646-13.26a1.059,1.059,0,0,1-.782-.306,1.059,1.059,0,0,1-.306-.782,1.059,1.059,0,0,1,.306-.782,1.059,1.059,0,0,1,.782-.306,1.059,1.059,0,0,1,.782.306,1.059,1.059,0,0,1,.306.782,1.059,1.059,0,0,1-.306.782A1.059,1.059,0,0,1-.434-13.26Zm8.211,1.479a.221.221,0,0,1,.2-.119H9.274a.15.15,0,0,1,.17.17V-.17a.15.15,0,0,1-.17.17H7.982a.15.15,0,0,1-.17-.17V-8.6q0-.051-.026-.051a.093.093,0,0,0-.06.034L6.095-5.576a.165.165,0,0,1-.153.119.165.165,0,0,1-.153-.119L4.174-8.6a.093.093,0,0,0-.06-.034q-.026,0-.026.051V-.17a.15.15,0,0,1-.17.17H2.627a.15.15,0,0,1-.17-.17V-11.73a.15.15,0,0,1,.17-.17H3.919a.247.247,0,0,1,.2.119l1.785,3.2a.069.069,0,0,0,.051.017.069.069,0,0,0,.051-.017ZM15.071,0a.15.15,0,0,1-.17-.17V-11.73a.15.15,0,0,1,.17-.17h2.788a2.966,2.966,0,0,1,2.244.867,3.244,3.244,0,0,1,.833,2.346v5.474A3.244,3.244,0,0,1,20.1-.867,2.966,2.966,0,0,1,17.859,0Zm1.462-1.479a.06.06,0,0,0,.068.068l1.241-.017a1.25,1.25,0,0,0,1.037-.5A2.246,2.246,0,0,0,19.287-3.3V-8.6A2.208,2.208,0,0,0,18.9-9.979a1.259,1.259,0,0,0-1.054-.51H16.6a.06.06,0,0,0-.068.068ZM23.044,0a.15.15,0,0,1-.17-.17V-11.73a.15.15,0,0,1,.17-.17h1.292a.15.15,0,0,1,.17.17V-.17a.15.15,0,0,1-.17.17Zm9.163-3.009a3.276,3.276,0,0,1-.637,2.065A2.737,2.737,0,0,1,29.844.085q-.1.017-.034.085a2.15,2.15,0,0,1,.68,1.564,3.592,3.592,0,0,1-.034.391,1.23,1.23,0,0,1-.51.782,1.58,1.58,0,0,1-.867.238,2.221,2.221,0,0,1-.629-.085.176.176,0,0,1-.136-.2l.085-.544q.017-.153.2-.119a.715.715,0,0,0,.17.017.611.611,0,0,0,.45-.179A.727.727,0,0,0,29.4,1.5,1.976,1.976,0,0,0,28.637.119Q28.62.085,28.552.085A2.684,2.684,0,0,1,26.843-.91a3.124,3.124,0,0,1-.638-2v-.442a.15.15,0,0,1,.17-.17h1.258a.15.15,0,0,1,.17.17v.357a1.885,1.885,0,0,0,.391,1.25,1.249,1.249,0,0,0,1,.467,1.293,1.293,0,0,0,1.011-.451,1.715,1.715,0,0,0,.4-1.181,1.725,1.725,0,0,0-.212-.867,2.514,2.514,0,0,0-.561-.671q-.349-.3-1.131-.876a16.708,16.708,0,0,1-1.36-1.105,4.106,4.106,0,0,1-.833-1.1,3.2,3.2,0,0,1-.34-1.513,2.935,2.935,0,0,1,.816-2.185,2.891,2.891,0,0,1,2.125-.807,2.874,2.874,0,0,1,2.184.867,3.169,3.169,0,0,1,.825,2.278v.425a.15.15,0,0,1-.17.17H30.694a.15.15,0,0,1-.17-.17v-.459a1.858,1.858,0,0,0-.391-1.233,1.266,1.266,0,0,0-1.02-.467,1.242,1.242,0,0,0-.969.416,1.682,1.682,0,0,0-.374,1.165A1.779,1.779,0,0,0,28.144-7.9a8.091,8.091,0,0,0,1.445,1.249q1.02.765,1.539,1.241a3.549,3.549,0,0,1,.8,1.045A3.028,3.028,0,0,1,32.207-3.009ZM34.026,0a.15.15,0,0,1-.17-.17V-11.73a.15.15,0,0,1,.17-.17h1.292a.15.15,0,0,1,.17.17V-.17a.15.15,0,0,1-.17.17ZM-13.43,5.27a.15.15,0,0,1,.17-.17h1.292a.15.15,0,0,1,.17.17V16.83a.15.15,0,0,1-.17.17H-13.26a.15.15,0,0,1-.17-.17V11.815a.06.06,0,0,0-.068-.068h-2.567a.06.06,0,0,0-.068.068V16.83a.15.15,0,0,1-.17.17H-17.6a.15.15,0,0,1-.17-.17V5.27a.15.15,0,0,1,.17-.17H-16.3a.15.15,0,0,1,.17.17v5a.06.06,0,0,0,.068.068H-13.5a.06.06,0,0,0,.068-.068ZM-4.1,6.341a.15.15,0,0,1-.17.17H-8.092a.06.06,0,0,0-.068.068v3.689a.06.06,0,0,0,.068.068h2.346a.15.15,0,0,1,.17.17v1.071a.15.15,0,0,1-.17.17H-8.092a.06.06,0,0,0-.068.068v3.706a.06.06,0,0,0,.068.068h3.825a.15.15,0,0,1,.17.17V16.83a.15.15,0,0,1-.17.17H-9.622a.15.15,0,0,1-.17-.17V5.27a.15.15,0,0,1,.17-.17h5.355a.15.15,0,0,1,.17.17Zm4.233,10.8a2.9,2.9,0,0,1-2.168-.841,3.011,3.011,0,0,1-.825-2.2v-.442a.15.15,0,0,1,.17-.17h1.258a.15.15,0,0,1,.17.17v.357a1.885,1.885,0,0,0,.391,1.25,1.249,1.249,0,0,0,1,.468,1.293,1.293,0,0,0,1.012-.451,1.715,1.715,0,0,0,.4-1.181,1.725,1.725,0,0,0-.213-.867,2.514,2.514,0,0,0-.561-.671q-.349-.3-1.131-.876a16.708,16.708,0,0,1-1.36-1.1,4.106,4.106,0,0,1-.833-1.1,3.2,3.2,0,0,1-.34-1.513,2.935,2.935,0,0,1,.816-2.185A2.891,2.891,0,0,1,.051,4.964a2.874,2.874,0,0,1,2.184.867A3.169,3.169,0,0,1,3.06,8.109v.425a.15.15,0,0,1-.17.17H1.632a.15.15,0,0,1-.17-.17V8.075a1.858,1.858,0,0,0-.391-1.233,1.266,1.266,0,0,0-1.02-.467,1.242,1.242,0,0,0-.969.416,1.682,1.682,0,0,0-.374,1.165A1.779,1.779,0,0,0-.918,9.1,8.091,8.091,0,0,0,.527,10.353q1.02.765,1.538,1.241a3.549,3.549,0,0,1,.8,1.045,3.028,3.028,0,0,1,.281,1.352,3.144,3.144,0,0,1-.833,2.286A2.9,2.9,0,0,1,.136,17.136ZM9.452,17a.175.175,0,0,1-.187-.153l-.374-1.955a.057.057,0,0,0-.026-.051.1.1,0,0,0-.059-.017H6.035a.1.1,0,0,0-.059.017.057.057,0,0,0-.026.051l-.357,1.955A.162.162,0,0,1,5.406,17H4.114a.143.143,0,0,1-.153-.187L6.494,5.253A.175.175,0,0,1,6.681,5.1H8.194a.162.162,0,0,1,.187.153l2.55,11.56v.034a.135.135,0,0,1-.153.153ZM6.239,13.464q0,.068.051.068H8.551q.051,0,.051-.068L7.446,7.429Q7.429,7.4,7.412,7.4t-.034.034ZM15.4,5.083a2.651,2.651,0,0,1,2.117.944A3.672,3.672,0,0,1,18.326,8.5a3.6,3.6,0,0,1-.782,2.414,2.571,2.571,0,0,1-2.057.918h-1.6a.06.06,0,0,0-.068.068v4.93a.15.15,0,0,1-.17.17H12.359a.15.15,0,0,1-.17-.17V5.253a.15.15,0,0,1,.17-.17Zm-.255,5.44a1.362,1.362,0,0,0,1.122-.536,2.276,2.276,0,0,0,.425-1.453,2.379,2.379,0,0,0-.425-1.487,1.347,1.347,0,0,0-1.122-.553H13.889a.06.06,0,0,0-.068.068v3.893a.06.06,0,0,0,.068.068Z" transform="translate(1049.209 415.667) rotate(90)" fill="#004378"/>
        </g>
      </g>
    </g>
    <g id="Mini_Circle" transform="translate(450.24 1557.142) rotate(-90)">
      <g id="Mini_Circle-2" data-name="Mini_Circle" transform="translate(1732.723 -312.514) rotate(90)">
        <g id="Ellipse" transform="translate(926.482 545.248)" fill="#fff" stroke="#70a800" stroke-miterlimit="10" stroke-width="1.5">
          <circle cx="5" cy="5" r="5" stroke="none"/>
          <circle cx="5" cy="5" r="4.25" fill="none"/>
        </g>
        <circle id="Ellipse-2" data-name="Ellipse" cx="2.289" cy="2.289" r="2.289" transform="translate(929.194 547.959)" fill="#70a800"/>
      </g>
      <g id="Mini_Circle-3" data-name="Mini_Circle" transform="translate(1230.723 -312.514) rotate(90)">
        <g id="Ellipse-3" data-name="Ellipse" transform="translate(926.482 545.248)" fill="#fff" stroke="#70a800" stroke-miterlimit="10" stroke-width="1.5">
          <circle cx="5" cy="5" r="5" stroke="none"/>
          <circle cx="5" cy="5" r="4.25" fill="none"/>
        </g>
        <circle id="Ellipse-4" data-name="Ellipse" cx="2.289" cy="2.289" r="2.289" transform="translate(929.194 547.959)" fill="#70a800"/>
      </g>
      <g id="Mini_Circle-4" data-name="Mini_Circle" transform="translate(1437.723 -210.933) rotate(90)">
        <g id="Ellipse-5" data-name="Ellipse" transform="translate(926.482 545.248)" fill="#fff" stroke="#70a800" stroke-miterlimit="10" stroke-width="1.5">
          <circle cx="4.709" cy="4.709" r="4.709" stroke="none"/>
          <circle cx="4.709" cy="4.709" r="3.959" fill="none"/>
        </g>
        <circle id="Ellipse-6" data-name="Ellipse" cx="2.289" cy="2.289" r="2.289" transform="translate(928.903 547.669)" fill="#70a800"/>
      </g>
      <g id="Mini_Circle-5" data-name="Mini_Circle" transform="translate(1525.723 -211.514) rotate(90)">
        <g id="Ellipse-7" data-name="Ellipse" transform="translate(926.482 545.248)" fill="#fff" stroke="#70a800" stroke-miterlimit="10" stroke-width="1.5">
          <circle cx="5" cy="5" r="5" stroke="none"/>
          <circle cx="5" cy="5" r="4.25" fill="none"/>
        </g>
        <circle id="Ellipse-8" data-name="Ellipse" cx="2.289" cy="2.289" r="2.289" transform="translate(929.194 547.959)" fill="#70a800"/>
      </g>
    </g>
    <g id="Connect" transform="translate(1063.79 458.667)" clip-path="url(#clip-path-2)">
      <g id="Connect-2" data-name="Connect" transform="translate(-1054.79 -454.667)">
        <g id="Mini_Circle-6" data-name="Mini_Circle" transform="translate(1054.79 454.667)" clip-path="url(#clip-path-3)">
          <g id="Mini_Circle-7" data-name="Mini_Circle" transform="translate(-926.482 -545.248)">
            <g id="Ellipse-9" data-name="Ellipse" transform="translate(926.482 545.248)" fill="#fff" stroke="#70a800" stroke-miterlimit="10" stroke-width="1.5">
              <circle cx="5" cy="5" r="5" stroke="none"/>
              <circle cx="5" cy="5" r="4.25" fill="none"/>
            </g>
            <circle id="Ellipse-10" data-name="Ellipse" cx="2" cy="2" r="2" transform="translate(929.324 548.248)" fill="#70a800"/>
          </g>
          <g id="Mini_Circle-8" data-name="Mini_Circle" transform="translate(-926.482 -530.248)">
            <g id="Ellipse-11" data-name="Ellipse" transform="translate(926.482 545.248)" fill="#fff" stroke="#70a800" stroke-miterlimit="10" stroke-width="1.5">
              <circle cx="5" cy="5" r="5" stroke="none"/>
              <circle cx="5" cy="5" r="4.25" fill="none"/>
            </g>
            <circle id="Ellipse-12" data-name="Ellipse" cx="2" cy="2" r="2" transform="translate(929.324 548.248)" fill="#70a800"/>
          </g>
        </g>
        <line id="Line" y2="8" transform="translate(1059.709 463.167)" fill="none" stroke="#70a800" stroke-width="1.5"/>
      </g>
      <g id="Connect-3" data-name="Connect" transform="translate(-1054.79 -351.667)">
        <g id="Mini_Circle-9" data-name="Mini_Circle" transform="translate(1054.79 454.667)" clip-path="url(#clip-path-3)">
          <g id="Mini_Circle-10" data-name="Mini_Circle" transform="translate(-926.482 -545.248)">
            <g id="Ellipse-13" data-name="Ellipse" transform="translate(926.482 545.248)" fill="#fff" stroke="#70a800" stroke-miterlimit="10" stroke-width="1.5">
              <circle cx="5" cy="5" r="5" stroke="none"/>
              <circle cx="5" cy="5" r="4.25" fill="none"/>
            </g>
            <circle id="Ellipse-14" data-name="Ellipse" cx="2" cy="2" r="2" transform="translate(929.324 548.248)" fill="#70a800"/>
          </g>
          <g id="Mini_Circle-11" data-name="Mini_Circle" transform="translate(-926.482 -530.248)">
            <g id="Ellipse-15" data-name="Ellipse" transform="translate(926.482 545.248)" fill="#fff" stroke="#70a800" stroke-miterlimit="10" stroke-width="1.5">
              <circle cx="5" cy="5" r="5" stroke="none"/>
              <circle cx="5" cy="5" r="4.25" fill="none"/>
            </g>
            <circle id="Ellipse-16" data-name="Ellipse" cx="2" cy="2" r="2" transform="translate(929.324 548.248)" fill="#70a800"/>
          </g>
        </g>
        <line id="Line-2" data-name="Line" y2="8" transform="translate(1059.709 463.167)" fill="none" stroke="#70a800" stroke-width="1.5"/>
      </g>
      <g id="Connect-4" data-name="Connect" transform="translate(-1054.79 -248.667)">
        <g id="Mini_Circle-12" data-name="Mini_Circle" transform="translate(1054.79 454.667)" clip-path="url(#clip-path-3)">
          <g id="Mini_Circle-13" data-name="Mini_Circle" transform="translate(-926.482 -545.248)">
            <g id="Ellipse-17" data-name="Ellipse" transform="translate(926.482 545.248)" fill="#fff" stroke="#70a800" stroke-miterlimit="10" stroke-width="1.5">
              <circle cx="5" cy="5" r="5" stroke="none"/>
              <circle cx="5" cy="5" r="4.25" fill="none"/>
            </g>
            <circle id="Ellipse-18" data-name="Ellipse" cx="2" cy="2" r="2" transform="translate(929.324 548.248)" fill="#70a800"/>
          </g>
          <g id="Mini_Circle-14" data-name="Mini_Circle" transform="translate(-926.482 -530.248)">
            <g id="Ellipse-19" data-name="Ellipse" transform="translate(926.482 545.248)" fill="#fff" stroke="#70a800" stroke-miterlimit="10" stroke-width="1.5">
              <circle cx="5" cy="5" r="5" stroke="none"/>
              <circle cx="5" cy="5" r="4.25" fill="none"/>
            </g>
            <circle id="Ellipse-20" data-name="Ellipse" cx="2" cy="2" r="2" transform="translate(929.324 548.248)" fill="#70a800"/>
          </g>
        </g>
        <line id="Line-3" data-name="Line" y2="8" transform="translate(1059.709 463.167)" fill="none" stroke="#70a800" stroke-width="1.5"/>
      </g>
      <g id="Connect-5" data-name="Connect" transform="translate(-1054.79 -145.667)">
        <g id="Mini_Circle-15" data-name="Mini_Circle" transform="translate(1054.79 454.667)" clip-path="url(#clip-path-3)">
          <g id="Mini_Circle-16" data-name="Mini_Circle" transform="translate(-926.482 -545.248)">
            <g id="Ellipse-21" data-name="Ellipse" transform="translate(926.482 545.248)" fill="#fff" stroke="#70a800" stroke-miterlimit="10" stroke-width="1.5">
              <circle cx="5" cy="5" r="5" stroke="none"/>
              <circle cx="5" cy="5" r="4.25" fill="none"/>
            </g>
            <circle id="Ellipse-22" data-name="Ellipse" cx="2" cy="2" r="2" transform="translate(929.324 548.248)" fill="#70a800"/>
          </g>
          <g id="Mini_Circle-17" data-name="Mini_Circle" transform="translate(-926.482 -530.248)">
            <g id="Ellipse-23" data-name="Ellipse" transform="translate(926.482 545.248)" fill="#fff" stroke="#70a800" stroke-miterlimit="10" stroke-width="1.5">
              <circle cx="5" cy="5" r="5" stroke="none"/>
              <circle cx="5" cy="5" r="4.25" fill="none"/>
            </g>
            <circle id="Ellipse-24" data-name="Ellipse" cx="2" cy="2" r="2" transform="translate(929.324 548.248)" fill="#70a800"/>
          </g>
        </g>
        <line id="Line-4" data-name="Line" y2="8" transform="translate(1059.709 463.167)" fill="none" stroke="#70a800" stroke-width="1.5"/>
      </g>
    </g>
    <g id="Icon_Shield">
      <path id="Path-17" data-name="Path" d="M90.215,84.671h0c20.615-5.341,35-22.781,35-43.952V12.285L90.215.074l-35,12.211V40.719c0,21.171,14.385,38.611,35,43.952Z" transform="translate(1207.253 535.452) rotate(90)" fill="none" stroke="#70a800" stroke-width="1.3"/>
      <path id="Path-18" data-name="Path" d="M86.215,75.942h0a41.247,41.247,0,0,0,31-39.868V11.889l-31-10.815-31,10.815V36.074a41.247,41.247,0,0,0,31,39.868Z" transform="translate(1203.253 539.452) rotate(90)" fill="#70a800"/>
      <path id="Symbol" d="M7171.518,11709.578l-10.974-10.979-8.137,8.14a1.319,1.319,0,1,1-1.864-1.867l7.233-7.236a1.458,1.458,0,0,1,.148-.128c-.005,0-.007-.011,0-.019l1.678-1.679a1.337,1.337,0,0,1,1.885,0l11.946,11.951a1.32,1.32,0,0,1-.087,1.945,1.258,1.258,0,0,1-.818.293A1.437,1.437,0,0,1,7171.518,11709.578Zm-27.226-3.272a1.364,1.364,0,0,1,.128-1.827l10.976-10.979-8.139-8.141a1.323,1.323,0,0,1,.084-1.948,1.363,1.363,0,0,1,1.828.128l7.182,7.182a1.372,1.372,0,0,1,.137.161.013.013,0,0,1,.021,0l1.678,1.679a1.333,1.333,0,0,1,0,1.883l-11.948,11.953a1.319,1.319,0,0,1-1.945-.089Zm27.6-2.722-7.25-7.253a1.275,1.275,0,0,1-.131-.151.013.013,0,0,1-.019,0l-1.678-1.679a1.336,1.336,0,0,1,0-1.886l11.945-11.95a1.322,1.322,0,0,1,1.948.089,1.367,1.367,0,0,1-.128,1.825l-10.977,10.979,8.153,8.156a1.319,1.319,0,1,1-1.864,1.866Zm-12.313-12.394-11.948-11.951a1.319,1.319,0,0,1,.089-1.946,1.363,1.363,0,0,1,1.825.129l10.977,10.979,8.135-8.14a1.32,1.32,0,1,1,1.866,1.867l-7.239,7.241a1.3,1.3,0,0,1-.144.124.011.011,0,0,1,0,.018l-1.678,1.679a1.33,1.33,0,0,1-1.883,0Z" transform="translate(12861.209 -6535.331) rotate(90)" fill="#fff"/>
    </g>
  </g>
</svg>
