<svg xmlns="http://www.w3.org/2000/svg" width="104" height="12.876" viewBox="0 0 104 12.876">
  <defs>
    <style>
      .cls-1 {
        opacity: 0.9;
      }

      .cls-2 {
        fill: #e20613;
      }
    </style>
  </defs>
  <g id="Akbank_Logo" class="cls-1" transform="translate(0.001)">
    <path id="Akbank_Logo-2" data-name="Akbank_Logo" class="cls-2" d="M65.09,12.876,64,10.712H56.789l-1.075,2.12h-4.54L57.528.075h5.694l6.206,12.8ZM58.428,7.445h3.881L60.361,3.686l-.013-.031ZM43.142,12.876H36.064c-.013-4.267-.013-8.549-.027-12.832H47.816a2.98,2.98,0,0,1,2.458,2.209c.363,1.269.108,3.357-.873,4.118.712.328,1.2,1.567,1.263,2.85v.508a5.342,5.342,0,0,1-.081.657c-.256,1.417-1.263,2.491-2.069,2.491ZM39.759,7.968V9.31h6.3a.674.674,0,0,0,.645-.686.662.662,0,0,0-.645-.672H43.142Zm3.384-4.626-3.384.016V4.7H45.9a.664.664,0,0,0,.632-.686.664.664,0,0,0-.632-.686ZM13.9,12.876l-1.075-2.164H5.615L4.54,12.832H0L6.354.075h5.694l6.206,12.8ZM7.253,7.445h3.868L9.188,3.686l-.014-.031Zm72.879,5.4-5.87-8.609v8.595h-4.15V.075L76.479.045l5.99,8.967V.075h4.1V12.847Zm17.972,0-5-4.58H91.737v4.58h-4.1V.044L91.59.075V4.536h1.558L97.768,0h5.79L96.989,6.521,104,12.846Zm-68.77,0-5-4.58h-1.37v4.58H18.857V.044l3.949.031V4.536h1.572L29,0h5.79L28.207,6.521l7.025,6.324Z" transform="translate(0 0)"/>
  </g>
</svg>
