<svg id="Layer_1" data-name="Layer 1" xmlns="http://www.w3.org/2000/svg" xmlns:xlink="http://www.w3.org/1999/xlink" width="97.999" height="19.033" viewBox="0 0 97.999 19.033">
  <defs>
    <clipPath id="clip-path">
      <path id="Path_7" data-name="Path 7" d="M15.092,6.01,24.6,15.53l-11.1,1.65Z" transform="translate(-13.5 -6.01)" fill="none"/>
    </clipPath>
    <linearGradient id="linear-gradient" x1="13.517" y1="46.358" x2="13.523" y2="46.358" gradientUnits="objectBoundingBox">
      <stop offset="0" stop-color="#aecc4c"/>
      <stop offset="1" stop-color="#fff"/>
    </linearGradient>
    <clipPath id="clip-path-2">
      <path id="Path_8" data-name="Path 8" d="M11.868,19.14,13.46,27,3.94,17.49Z" transform="translate(-3.94 -17.49)" fill="none"/>
    </clipPath>
    <linearGradient id="linear-gradient-2" x1="17.469" y1="57.254" x2="17.475" y2="57.254" gradientUnits="objectBoundingBox">
      <stop offset="0" stop-color="#008dc9"/>
      <stop offset="1" stop-color="#a5cd39"/>
    </linearGradient>
    <clipPath id="clip-path-3">
      <path id="Path_9" data-name="Path 9" d="M24.6,17.49,15.092,27,13.5,19.14Z" transform="translate(-13.5 -17.49)" fill="none"/>
    </clipPath>
    <linearGradient id="linear-gradient-3" x1="14.737" y1="48.379" x2="14.741" y2="48.379" gradientUnits="objectBoundingBox">
      <stop offset="0" stop-color="#aecc4c"/>
      <stop offset="0.81" stop-color="#6faa98"/>
      <stop offset="1" stop-color="#008cc9"/>
    </linearGradient>
    <clipPath id="clip-path-4">
      <path id="Path_10" data-name="Path 10" d="M3.94,15.53l9.52-9.52L11.868,17.181Z" transform="translate(-3.94 -6.01)" fill="none"/>
    </clipPath>
    <linearGradient id="linear-gradient-4" x1="21.075" y1="60.22" x2="21.087" y2="60.22" gradientUnits="objectBoundingBox">
      <stop offset="0" stop-color="#008dc9"/>
      <stop offset="0.65" stop-color="#6baa90"/>
      <stop offset="1" stop-color="#a5cd39"/>
    </linearGradient>
  </defs>
  <g id="Group_1" data-name="Group 1" transform="translate(7.928)" clip-path="url(#clip-path)">
    <rect id="Rectangle_917" data-name="Rectangle 917" width="15.351" height="15.334" transform="translate(-5.016 8.038) rotate(-58.03)" fill="url(#linear-gradient)"/>
  </g>
  <g id="Group_2" data-name="Group 2" transform="translate(0 9.52)" clip-path="url(#clip-path-2)">
    <rect id="Rectangle_918" data-name="Rectangle 918" width="12.357" height="12.357" transform="translate(-3.258 8.211) rotate(-68.305)" fill="url(#linear-gradient-2)"/>
  </g>
  <g id="Group_3" data-name="Group 3" transform="translate(7.928 9.52)" clip-path="url(#clip-path-3)">
    <rect id="Rectangle_919" data-name="Rectangle 919" width="14.612" height="14.538" transform="translate(-4.748 4.433) rotate(-43.07)" fill="url(#linear-gradient-3)"/>
  </g>
  <g id="Group_4" data-name="Group 4" clip-path="url(#clip-path-4)">
    <rect id="Rectangle_920" data-name="Rectangle 920" width="10.159" height="11.71" transform="matrix(0.998, -0.059, 0.059, 0.998, -0.649, 0.043)" fill="url(#linear-gradient-4)"/>
  </g>
  <path id="Path_11" data-name="Path 11" d="M59.563,19.467c0-.73.282-.829.829-.829a5.341,5.341,0,0,1,1.518.224v1.484a5.233,5.233,0,0,1-1.982.108c-.415-.108-.381-.639-.365-.987m4.7-2.845c0-2.106-1.144-3.392-3.508-3.392a8.617,8.617,0,0,0-1.493.133l-.829.166c-.265.05-.348.332-.282.614s.332,1.468.663,1.418l.962-.149a6.336,6.336,0,0,1,.945-.083c.829,0,1.1.713,1.153,1.592a11.61,11.61,0,0,0-2.231-.232c-2.264,0-2.488,1.385-2.488,2.845,0,1.725.481,2.811,2.488,2.811.945,0,4.569-.083,4.569-1.468Zm4.039,3.5V15.793a5.059,5.059,0,0,1,1.808-.448c.829,0,.829.357.829,1.12v2.6c0,.224,0,.871-.315,1.062A4.171,4.171,0,0,1,68.3,20.122Zm2.488,2.256c2.488,0,2.488-1.584,2.488-3.317V16.573c0-1.742,0-3.317-2.488-3.317a8.666,8.666,0,0,0-2.488.5V10.436c0-.265-.3-.431-.614-.431s-1.742,0-1.742.381V20.91a.746.746,0,0,0,.464.73c1.111.672,3.425.738,4.379.738Zm6-2.911c0-.73.282-.829.829-.829a5.249,5.249,0,0,1,1.468.224v1.484a5.192,5.192,0,0,1-1.974.108c-.381-.108-.348-.639-.332-.987Zm4.694-2.845c0-2.106-1.144-3.392-3.508-3.392a8.716,8.716,0,0,0-1.5.133l-.829.166c-.265.05-.348.332-.282.614s.332,1.468.663,1.418l.97-.149a6.336,6.336,0,0,1,.945-.083c.829,0,1.095.713,1.144,1.592a11.428,11.428,0,0,0-2.223-.232c-2.264,0-2.488,1.385-2.488,2.845,0,1.725.481,2.811,2.488,2.811.945,0,4.569-.083,4.569-1.468ZM50.8,20.089v-4.3a4.976,4.976,0,0,1,1.808-.448c.829,0,.829.357.829,1.12v2.6c0,.224,0,.871-.315,1.062a4.084,4.084,0,0,1-2.3,0Zm2.488,2.256c2.488,0,2.488-1.584,2.488-3.317V16.54c0-1.742,0-3.317-2.488-3.317a8.558,8.558,0,0,0-2.488.5V10.4c0-.265-.3-.431-.622-.431s-1.742,0-1.742.381V20.91a.746.746,0,0,0,.464.73,10.918,10.918,0,0,0,4.478.738Zm-15-5.4h3.732c.348,0,.365-1.252.365-1.659s-.166-.581-.415-.581H38.283V12.219h4.694c.348,0,.373-1.244.373-1.659s-.174-.581-.423-.581H36.384c-.315,0-.614.166-.614.431V21.889c0,.365,1.46.464,1.9.464a.6.6,0,0,0,.614-.514Zm8.525,4.976V13.678c0-.265-.3-.431-.614-.431s-1.891,0-1.891.381v8.343c0,.365,1.46.39,1.891.39s.614-.166.614-.431ZM44.32,12.078c0,.365,1.31.381,1.742.381s.614-.166.614-.431V10.37c0-.274-.3-.44-.614-.44s-1.742,0-1.742.39ZM88,16.274v5.7c0,.365,1.31.39,1.742.39s.614-.174.614-.44V16.573c0-1.717-.1-3.243-2.488-3.243-2.629,0-4.827.937-4.827,1.567V21.98c0,.373,1.319.39,1.75.39s.614-.166.614-.44V15.793a6.916,6.916,0,0,1,1.824-.448c.44,0,.8.158.8.937Zm6.634.829V10.469c0-.265-.307-.431-.622-.431s-1.742,0-1.742.365v11.61c0,.365,1.31.381,1.742.381s.622-.166.622-.431V17.817l2.637,4.088c.307.473,1.36.464,1.659.464.73,0,1.062-.149,1.062-.415s0-.191-.4-.763l-2.488-3.815,1.866-3.019c.241-.381.44-.6.44-.829s-.332-.4-1.078-.4c-.415,0-1.252,0-1.518.44Zm8.028,2.364c0-.73.282-.829.829-.829a5.275,5.275,0,0,1,1.518.224v1.484a5.2,5.2,0,0,1-1.974.108c-.415-.108-.381-.639-.365-.987Zm4.71-2.845c0-2.106-1.144-3.392-3.508-3.392a8.616,8.616,0,0,0-1.493.133l-.829.166c-.265.05-.348.332-.282.614s.332,1.468.663,1.418l.962-.149a6.336,6.336,0,0,1,.945-.083c.829,0,1.1.713,1.153,1.592a11.519,11.519,0,0,0-2.231-.232c-2.256,0-2.488,1.385-2.488,2.845,0,1.725.481,2.811,2.488,2.811.945,0,4.569-.083,4.569-1.468Z" transform="translate(-9.373 -6.679)" fill="#fff"/>
</svg>
