<svg xmlns="http://www.w3.org/2000/svg" width="100" height="18.663" viewBox="0 0 100 18.663">
  <defs>
    <style>
      .cls-1 {
        fill: #fff;
      }
    </style>
  </defs>
  <g id="Odeabank_Logo" transform="translate(-979 -4320.865)">
    <path id="Odeabank_Logo-2" data-name="Odeabank_Logo" class="cls-1" d="M23.959,157.6c-.008,2.532-1.261,3.808-2.888,3.8-1.92-.006-2.881-1.31-2.873-3.868s1.464-3.655,2.944-3.651c1.943.006,2.822,1.312,2.816,3.715m3.413-.163c.012-4.28-2.337-6.244-5.992-6.254a6.357,6.357,0,0,0-6.6,6.668c-.012,4.436,2.341,6.273,5.992,6.282a6.393,6.393,0,0,0,6.6-6.7m9.154.014c-.006,2.122-1.046,4.071-2.776,4.067-1.5-.006-2.2-1.206-2.19-3.534.008-3.074,1.36-4.22,3.247-4.215a7.776,7.776,0,0,1,1.729.21Zm.35,6.481,2.953.008.05-18.286-3.321-.011-.016,5.68a11.519,11.519,0,0,0-1.625-.1c-4.262-.012-6.8,2.878-6.817,7.083-.01,3.55,1.527,5.855,4.663,5.863a4.315,4.315,0,0,0,4.065-2.341l.054,0Zm12.2-7.847-4.732-.011a2.529,2.529,0,0,1,2.516-2.473,2.143,2.143,0,0,1,2.215,2.484m3.174,2.187a10.331,10.331,0,0,0,.11-1.453c.008-3.079-1.639-5.553-5.389-5.563-3.856-.011-6.035,2.78-6.047,6.582-.012,4.372,2.26,6.36,6.343,6.372a13.21,13.21,0,0,0,4.6-.788l-.3-2.48a9.433,9.433,0,0,1-3.748.767c-2.382-.007-3.568-1.135-3.532-3.458Zm8.422.521a2.9,2.9,0,0,1-2.752,2.994c-.955-.005-1.518-.532-1.516-1.33,0-1,.78-1.975,4.268-1.965ZM61.051,164l2.925.008c0-.251,0-2.45,0-2.45l.018-5.933c.006-2.722-1.15-4.324-5.286-4.335a14.533,14.533,0,0,0-4.607.756l.278,2.679a8.7,8.7,0,0,1,3.8-.967c1.861.006,2.507.685,2.5,1.988l0,.672c-4.367-.013-7.425,1.556-7.433,4.531-.006,2,1.338,3.283,3.657,3.289a4.371,4.371,0,0,0,4.124-2.368h.03Zm13.159-6.492c-.008,3.074-1.356,4.225-3.242,4.218a5.583,5.583,0,0,1-1.71-.231l.01-3.5c.006-2.076,1.046-4,2.752-3.993,1.5.006,2.2,1.181,2.19,3.508m3.494-.32c.013-3.675-1.639-5.849-4.716-5.86a4.189,4.189,0,0,0-3.706,1.857l.005-2.072L69.3,147.3l0-1.561-3.319-.01-.05,17.934a17.6,17.6,0,0,0,4.792.615c4.425.013,6.97-2.886,6.98-7.088m7.96,1.678a2.9,2.9,0,0,1-2.748,2.991c-.957,0-1.527-.529-1.525-1.33,0-1,.784-1.975,4.273-1.965Zm.372,5.2,2.929.008c0-.252-.007-2.45-.007-2.45l.018-5.934c.006-2.722-1.144-4.322-5.281-4.335a14.569,14.569,0,0,0-4.613.756l.282,2.679a8.65,8.65,0,0,1,3.8-.966c1.862,0,2.508.684,2.5,1.985l0,.672c-4.367-.012-7.428,1.557-7.437,4.532-.006,2,1.334,3.282,3.661,3.288a4.375,4.375,0,0,0,4.124-2.366h.024Zm12.384.036,3.323.008.024-8.732c.006-2.173-.956-3.975-3.851-3.983a4.716,4.716,0,0,0-4.379,2.486l-.024-.028.006-2.226-2.936-.006-.019,12.459,3.318.008.016-6c.006-2.175,1.294-4.021,2.973-4.017,1.215,0,1.577.779,1.573,2.077Zm11.52-6.723,4.556-5.693-4.029-.011-3.788,5.2.029-11.034-3.312-.01-.05,18.286,3.313.009.017-6.157,3.966,6.168,4.14.013Z" transform="translate(964.217 4175.223)"/>
  </g>
</svg>
