<svg id="Papara_Logo" xmlns="http://www.w3.org/2000/svg" xmlns:xlink="http://www.w3.org/1999/xlink" width="72" height="18.981" viewBox="0 0 72 18.981">
  <defs>
    <style>
      .cls-1 {
        fill: url(#linear-gradient);
      }
    </style>
    <linearGradient id="linear-gradient" y1="0.329" x2="1" y2="0.348" gradientUnits="objectBoundingBox">
      <stop offset="0" stop-color="#db4757"/>
      <stop offset="1" stop-color="#900f9c"/>
    </linearGradient>
  </defs>
  <path id="Papara_Logo-2" data-name="Papara_Logo" class="cls-1" d="M-458.028,20.249a1.659,1.659,0,0,1-.529,1.232,1.754,1.754,0,0,1-1.272.512h-1.8V9.219q0-3.592,2.171-4.9a8.976,8.976,0,0,1,4.712-1.309,7.814,7.814,0,0,1,2.674.488,4.975,4.975,0,0,1,2.144,1.412,7.994,7.994,0,0,1,1.588,5.13,8.165,8.165,0,0,1-1.588,5.233,5.023,5.023,0,0,1-4.077,1.95,5.515,5.515,0,0,1-2.329-.462,3.91,3.91,0,0,1-1.694-1.591Zm6.035-10.054a5.11,5.11,0,0,0-.8-3.077,2.658,2.658,0,0,0-2.277-1.077,2.6,2.6,0,0,0-2.223,1.077,5.1,5.1,0,0,0-.741,3.077,4.549,4.549,0,0,0,.8,2.924,2.656,2.656,0,0,0,2.277,1.077,2.552,2.552,0,0,0,2.171-1.077A4.851,4.851,0,0,0-451.993,10.195Zm13.286,6.207a6.654,6.654,0,0,1-2.356.694,21.734,21.734,0,0,1-2.2.127,5.667,5.667,0,0,1-3.336-1,3.754,3.754,0,0,1-1.43-3.309,3.518,3.518,0,0,1,1.3-3.079A7.6,7.6,0,0,1-443.419,8.6a3.259,3.259,0,0,0,.635-.077c.246-.05.529-.094.847-.129q2.331-.309,2.329-1.333a.978.978,0,0,0-.82-1,5.605,5.605,0,0,0-1.507-.228,3.941,3.941,0,0,0-1.324.206,1.428,1.428,0,0,0-.847.77h-3.546a3.911,3.911,0,0,1,1.482-2.618,6.249,6.249,0,0,1,4.077-1.18,8.18,8.18,0,0,1,4.448.974,3.268,3.268,0,0,1,1.536,2.874V11.53a5.736,5.736,0,0,1-.768,3.206A4.646,4.646,0,0,1-438.707,16.4Zm-.847-6.31a10.232,10.232,0,0,1-2.065.668l-1.217.256a3.154,3.154,0,0,0-1.376.668,2.052,2.052,0,0,0-.37,1.129,1.637,1.637,0,0,0,.477,1.232,2.053,2.053,0,0,0,1.376.411,3.2,3.2,0,0,0,2.329-.821,3,3,0,0,0,.847-2.259Zm7.571,10.157a1.659,1.659,0,0,1-.529,1.232,1.754,1.754,0,0,1-1.272.512h-1.8V9.219q0-3.592,2.171-4.9A8.976,8.976,0,0,1-428.7,3.012a7.813,7.813,0,0,1,2.674.488,4.974,4.974,0,0,1,2.144,1.412,7.988,7.988,0,0,1,1.588,5.128,8.164,8.164,0,0,1-1.588,5.233,5.023,5.023,0,0,1-4.077,1.95,5.514,5.514,0,0,1-2.329-.462,3.91,3.91,0,0,1-1.694-1.591Zm6.035-10.054a5.11,5.11,0,0,0-.8-3.077,2.659,2.659,0,0,0-2.277-1.077,2.6,2.6,0,0,0-2.223,1.077,5.1,5.1,0,0,0-.741,3.077,4.549,4.549,0,0,0,.8,2.924,2.654,2.654,0,0,0,2.275,1.077,2.552,2.552,0,0,0,2.171-1.077A4.82,4.82,0,0,0-425.947,10.195Zm13.288,6.207a6.665,6.665,0,0,1-2.356.692,21.8,21.8,0,0,1-2.2.129,5.667,5.667,0,0,1-3.336-1,3.75,3.75,0,0,1-1.427-3.309,3.518,3.518,0,0,1,1.3-3.079A7.6,7.6,0,0,1-417.371,8.6a3.258,3.258,0,0,0,.635-.077c.246-.05.528-.094.847-.129q2.331-.309,2.329-1.333a.978.978,0,0,0-.82-1,5.62,5.62,0,0,0-1.509-.228,3.94,3.94,0,0,0-1.324.206,1.428,1.428,0,0,0-.847.77h-3.546A3.921,3.921,0,0,1-420.124,4.2a6.249,6.249,0,0,1,4.077-1.18,8.179,8.179,0,0,1,4.447.974,3.267,3.267,0,0,1,1.536,2.874v4.668a5.736,5.736,0,0,1-.768,3.206A4.651,4.651,0,0,1-412.659,16.4Zm-.847-6.31a10.278,10.278,0,0,1-2.065.668l-1.217.256a3.154,3.154,0,0,0-1.376.668,2.051,2.051,0,0,0-.37,1.129,1.638,1.638,0,0,0,.477,1.232,2.053,2.053,0,0,0,1.376.411,3.2,3.2,0,0,0,2.329-.821,3,3,0,0,0,.847-2.259Zm3.969,6.874V10.348a8.2,8.2,0,0,1,.61-3.36,5.6,5.6,0,0,1,1.667-2.18A6.687,6.687,0,0,1-404.9,3.679a10.705,10.705,0,0,1,2.778-.359h.529V6.962h-1.217a3.163,3.163,0,0,0-2.277.718,3.022,3.022,0,0,0-.741,2.256v7.028h-3.7Zm17.313-.565a6.664,6.664,0,0,1-2.356.692,21.766,21.766,0,0,1-2.2.129,5.666,5.666,0,0,1-3.336-1,3.754,3.754,0,0,1-1.43-3.309,3.518,3.518,0,0,1,1.3-3.079A7.6,7.6,0,0,1-396.938,8.6a3.259,3.259,0,0,0,.635-.077c.246-.05.529-.094.847-.129q2.331-.309,2.329-1.333a.978.978,0,0,0-.82-1,5.6,5.6,0,0,0-1.507-.228,3.941,3.941,0,0,0-1.324.206,1.428,1.428,0,0,0-.847.77h-3.546A3.921,3.921,0,0,1-399.689,4.2a6.249,6.249,0,0,1,4.077-1.18,8.179,8.179,0,0,1,4.447.974,3.268,3.268,0,0,1,1.536,2.874v4.668a5.736,5.736,0,0,1-.768,3.206A4.65,4.65,0,0,1-392.224,16.4Zm-.847-6.31a10.281,10.281,0,0,1-2.065.668l-1.217.256a3.154,3.154,0,0,0-1.376.668,2.052,2.052,0,0,0-.37,1.129,1.637,1.637,0,0,0,.477,1.232,2.053,2.053,0,0,0,1.375.411,3.2,3.2,0,0,0,2.329-.821,3,3,0,0,0,.847-2.259Z" transform="translate(461.629 -3.012)"/>
</svg>
