<svg xmlns="http://www.w3.org/2000/svg" width="77.965" height="24.042" viewBox="0 0 77.965 24.042">
  <g id="Vakifbank_Logo" transform="translate(-139 -345)">
    <path id="Path_7" data-name="Path 7" d="M139,396.92l2.355,12.225,1.566.024h.662l6.731-12.248h-2.552l-4.845,9.655-1.007-9.654H139Z" transform="translate(0 -40.128)" fill="#fff" fill-rule="evenodd"/>
    <path id="Path_8" data-name="Path 8" d="M181.684,418.435c.382-2,.745-3.928,1.127-5.931.255-1.712-.59-2.61-2.188-2.952a6.974,6.974,0,0,0-4.445.382l-.66,1.389a7.758,7.758,0,0,1,3.612-.556q1.912.2,1.285,1.979c-3.2.042-5.586.721-6.529,2.535a2.151,2.151,0,0,0,.59,2.431,6.382,6.382,0,0,0,3.6.861,29.751,29.751,0,0,0,3.612-.139Zm-1.477-4.749-.683,3.845c-1.1-.016-3.4.228-3.516-1.366a2.315,2.315,0,0,1,1.8-2.1,8.5,8.5,0,0,1,2.4-.379Z" transform="translate(-26.367 -49.565)" fill="#fff" fill-rule="evenodd"/>
    <path id="Path_9" data-name="Path 9" d="M217.065,396.92l-2.34,12.249h2.431l.865-4.526,2.808,4.526h2.743l-3.223-4.817,4.445-4.028-2.466-.035-4.227,3.93,1.394-7.3Z" transform="translate(-58.078 -40.128)" fill="#fff" fill-rule="evenodd"/>
    <path id="Path_10" data-name="Path 10" d="M257.167,411.035l-1.69,8.845h2.193l1.69-8.845Z" transform="translate(-89.256 -50.839)" fill="#fff" fill-rule="evenodd"/>
    <path id="Path_11" data-name="Path 11" d="M278.261,398.422l-.187.978-1.518,0-.263,1.274,1.538,0-1.439,7.531h2.431c.473-2.508.929-5.017,1.394-7.525l1.769,0,.263-1.274-1.794,0,.082-.434.094-.5c.1-1.346,1.154-1.862,2.785-1.627l.055-.05a1.459,1.459,0,0,1,1.077-.953c-2.528-.489-4.745-.091-5.971,1.723a1.949,1.949,0,0,0-.315.858Z" transform="translate(-105.269 -39.163)" fill="#fff" fill-rule="evenodd"/>
    <path id="Path_12" data-name="Path 12" d="M303.36,397.011l-2.063,10.8h0l0,.013-.015.066H302.4l4.234-.035c2.767-.022,5.183-1.03,5.27-3.906a2.878,2.878,0,0,0-2.513-2.728v-.039h0c1.585-.069,3.183-1.364,3.116-2.916-.062-1.422-1.017-2.416-3.03-2.893-1.522-.295-5.493-.284-6.116,1.638Zm1.537,4.922.022-.111c2.307-.108,4.278-.084,4.366,2.027-.162,1.817-1.36,2.57-3.2,2.661l-2.026-.036.839-4.54Zm.244-1.259.754-3.892c.092-.028.191-.054.295-.08a5.432,5.432,0,0,1,2.121-.159l.048.008a1.736,1.736,0,0,1,1.7,1.508,3.018,3.018,0,0,1-.214,1.153,1.944,1.944,0,0,1-.6.8,3.839,3.839,0,0,1-2.264.689l-1.843-.028Z" transform="translate(-124.485 -38.848)" fill="#fff" fill-rule="evenodd"/>
    <path id="Path_13" data-name="Path 13" d="M356.14,418.435c.382-2,.745-3.928,1.127-5.931.255-1.712-.59-2.61-2.188-2.952a6.974,6.974,0,0,0-4.445.382l-.66,1.389a7.757,7.757,0,0,1,3.612-.556q1.911.2,1.285,1.979c-3.2.042-5.586.721-6.529,2.535a2.151,2.151,0,0,0,.59,2.431,6.381,6.381,0,0,0,3.6.861,29.746,29.746,0,0,0,3.612-.139Zm-1.477-4.749-.683,3.845c-1.1-.016-3.4.228-3.516-1.366a2.315,2.315,0,0,1,1.8-2.1,8.5,8.5,0,0,1,2.4-.379Z" transform="translate(-160.426 -49.565)" fill="#fff" fill-rule="evenodd"/>
    <path id="Path_14" data-name="Path 14" d="M396.686,418.9c.38-1.992.7-4,1.124-5.98a4.471,4.471,0,0,0,.111-.8c.093-3.4-6.638-2.308-8.23-1.667l-1.552,8.446,2.249.018h.175l1.316-7.41c.809-.332,3.723-.83,3.657.9l-1.227,6.509h.932l1.444-.016Z" transform="translate(-191.421 -49.873)" fill="#fff" fill-rule="evenodd"/>
    <path id="Path_15" data-name="Path 15" d="M432.683,396.92l-2.34,12.249h2.431l.865-4.526,2.808,4.526h2.743l-3.223-4.817,4.445-4.028-2.466-.035-4.227,3.93,1.394-7.3Z" transform="translate(-223.447 -40.128)" fill="#fff" fill-rule="evenodd"/>
    <path id="Path_16" data-name="Path 16" d="M367,357.282l4.208-.026a3.838,3.838,0,0,0,4.139-3.738c-.066-1.563-1.2-2.39-2.63-2.767v-.039h0c1.585-.069,3.183-1.364,3.115-2.915-.076-1.739-1.979-2.789-3.55-2.789H371.8L370.687,345H362.5a4.115,4.115,0,0,0-3.316,2.062,1.513,1.513,0,0,0-.2.523l-2.17,9.7Zm-7.042-9.014-1.871,8.038a5.692,5.692,0,0,0,4.115-.834,8.961,8.961,0,0,0,1.263-1.245l4.378-5.284a10.5,10.5,0,0,1,3.432-3.073,7.987,7.987,0,0,0-3.8.974,3.328,3.328,0,0,0-.941.8l-5.714,6.379c.334-1.554.733-3.436,1.148-5.109.029-.117.066-.23.087-.343a3.006,3.006,0,0,1,2.213-2.564,3.557,3.557,0,0,0-4.311,2.257Z" transform="translate(-167.653)" fill="#ffdb45" fill-rule="evenodd"/>
  </g>
</svg>
