<svg xmlns="http://www.w3.org/2000/svg" width="120.5" height="27.612" viewBox="0 0 120.5 27.612">
  <defs>
    <style>
      .cls-1 {
        fill: #fff;
      }

      .cls-2 {
        fill: #e50019;
        stroke: rgba(0,0,0,0);
      }
    </style>
  </defs>
  <g id="Ziraat_Logo" transform="translate(-198.551 -372.34)">
    <path id="Type" class="cls-1" d="M28.451,11.889A3.447,3.447,0,0,1,31.14,8.221a11.64,11.64,0,0,1,3.193-.34V6.862a1.332,1.332,0,0,0-1.423-1.233,13.256,13.256,0,0,0-2.789.506l.513-2.127a13.415,13.415,0,0,1,2.845-.371c1.384,0,3.225.775,3.225,3.612v7.257H34.427v-.5h-.395a3.732,3.732,0,0,1-2.178.7C30.543,14.7,28.451,14.261,28.451,11.889Zm4.093-2.4a1.908,1.908,0,0,0-1.816,1.91,1.534,1.534,0,0,0,1.7,1.476c1.264,0,1.844-.668,1.844-1.08V9.475S33.755,9.489,32.544,9.489Zm-13.015,2.4a3.447,3.447,0,0,1,2.687-3.668,11.646,11.646,0,0,1,3.194-.34V6.862a1.333,1.333,0,0,0-1.423-1.233,13.272,13.272,0,0,0-2.791.506l.514-2.127a13.4,13.4,0,0,1,2.845-.371c1.383,0,3.225.775,3.225,3.612v7.257H25.5v-.5h-.394a3.74,3.74,0,0,1-2.179.7C21.619,14.7,19.53,14.261,19.53,11.889Zm4.091-2.4a1.907,1.907,0,0,0-1.815,1.91,1.534,1.534,0,0,0,1.7,1.476c1.264,0,1.844-.668,1.844-1.08V9.475S24.833,9.489,23.621,9.489Zm65.766,5.175v-.815a5.221,5.221,0,0,1-2.545.815c-1.33,0-3.7-.527-3.7-3.106a3.526,3.526,0,0,1,3.674-3.675h2.438v-1.4c0-.7-.832-1.6-2.4-1.3a9.54,9.54,0,0,0-2.609.883l.184-1.594a9.39,9.39,0,0,1,3.319-.79,3.122,3.122,0,0,1,3.214,3.1v7.888Zm-4.638-3.371c0,.922.054,2.15,1.977,2.15s2.5-1.475,2.5-2.755V8.975H87.49C85.356,8.975,84.749,10.371,84.749,11.293ZM63.13,14.663v-.815a5.225,5.225,0,0,1-2.546.815c-1.33,0-3.7-.527-3.7-3.106A3.527,3.527,0,0,1,60.56,7.882H63v-1.4c0-.7-.832-1.6-2.4-1.3a9.54,9.54,0,0,0-2.609.883l.184-1.594a9.392,9.392,0,0,1,3.319-.79,3.122,3.122,0,0,1,3.214,3.1v7.888Zm-4.639-3.371c0,.922.054,2.15,1.977,2.15s2.5-1.475,2.5-2.755V8.975h-1.74C59.1,8.975,58.491,10.371,58.491,11.293Zm33.648,2.345.527-1.411a5.62,5.62,0,0,0,2.845.832c1.607,0,2.161-1,2.161-1.555s-.369-1.132-2.265-1.581-3-1.528-3-3.319,1.712-2.82,3.347-2.82a7.019,7.019,0,0,1,3.016.757l-.381,1.27A6.959,6.959,0,0,0,96.2,5.286c-.949,0-1.976.421-1.976,1.291s.632,1.476,2.055,1.765,3.109,1.371,3.109,2.924a3.658,3.658,0,0,1-3.664,3.294A7.588,7.588,0,0,1,92.139,13.637Zm-20.473.907V7.02c0-.506-.032-1.422-1.422-1.422S67.62,6.64,67.62,7.3v7.241h-1.8V3.965l1.707-.36V5a4.045,4.045,0,0,1,3.035-1.36,3.131,3.131,0,0,1,3,2.719v8.189Zm-24.82-.024V.095h4.546c2.2,0,4.347,1.225,4.347,3.281a4.657,4.657,0,0,1-1.976,3.4,3.756,3.756,0,0,1,2.609,3.6,4.081,4.081,0,0,1-3.391,4.15Zm1.859-1.68h3.248a2.412,2.412,0,0,0,2.655-2.3A2.477,2.477,0,0,0,52.332,7.81H48.705Zm.059-6.7h2.905a2.209,2.209,0,0,0,2.272-2.233A2.277,2.277,0,0,0,51.51,1.716H48.764Zm25.97,8.37,0-14.45h2.021V7.841h.411l3.478-4.426h2.561L78.686,8.4l5,6.023H80.915l-3.746-5.5h-.444v5.6ZM0,14.508V12.331L6.139,2.282H.527L1.16,0H9.486V2.256L3.32,12.331H9.459L8.59,14.508ZM100.379,14.5V3.929h1.7V14.5Zm-89.793,0V3.929h2.272V14.5Zm30.056-.019a2.117,2.117,0,0,1-2.173-2.055V5.589H37.4V3.968h1.148V1.163h2.2V4.008h2.529l-.568,1.621H40.776V11.7c0,.79.143,1.241.893,1.241h1.3v1.541Zm-25.76,0V3.968h1.889V5.154a3.546,3.546,0,0,1,1.557-.948,3.749,3.749,0,0,1,1.707-.032V6.2H18.549c-.6,0-1.707.822-1.707,1.613v6.671ZM10.277,1.7a1.417,1.417,0,1,1,1.417,1.417A1.416,1.416,0,0,1,10.277,1.7Z" transform="translate(216.973 379.282)"/>
    <path id="Symbol" class="cls-2" d="M6.492,21.094l.639-.5V18.529l-.639.5V14.592l.639-.495V12.036l-.639.494V8.089L7.729,7.12,9.584,5.657l2.463-1.927V11.9a1.2,1.2,0,0,1-.474,1.031,1.062,1.062,0,0,1,.474.794v7.45L9.584,23.1,7.729,24.567l-1.237.968Zm4.039-5.223-.948.732L8.007,17.849V19.91l1.577-1.247,1.092-.855c.34-.268.495-.443.495-.836v-.947c0-.206-.111-.312-.267-.312A.622.622,0,0,0,10.531,15.87Zm0-6.5-.948.731L8.007,11.347v2.06L9.584,12.16l1.092-.856c.34-.268.495-.443.495-.834V9.522c0-.206-.111-.313-.267-.313A.619.619,0,0,0,10.531,9.368Zm-6.214,15.2L0,21.177V16.735l1.174-1.144L0,14.675V10.233l3.679,2.886.639-.629.515-.515-.515-.4L0,8.171V3.729L4.318,7.121l1.226.968V12.53L4.39,13.675l1.154.917v4.442l-1.226-.969L1.886,16.148.721,17.293l3.6,2.833,1.226.968v4.442ZM6.492,1.978,7.729.989,8.955,0V1.587l-1.226.989-.36.289V4.524l.36-.288,1.226-.98V4.842l-1.226.991-1.237.989ZM4.318,5.915l-.742-.608V3.72l.309.247V2.226l-.794-.639V0L4.318.989l1.226.99V3.566L4.75,2.927V4.679l.319.257V6.522Z" transform="translate(199.051 373.385)"/>
  </g>
</svg>
