<svg xmlns="http://www.w3.org/2000/svg" width="40" height="40.375" viewBox="0 0 40 40.375">
  <defs>
    <style>
      .cls-1 {
        fill: #004378;
      }
    </style>
  </defs>
  <path id="_2FA_Icon" data-name="2FA_Icon" class="cls-1" d="M11995.42,1401.265a.736.736,0,0,1-.191-1.016,26.122,26.122,0,0,0,4.4-11.756.72.72,0,0,1,.806-.64.728.728,0,0,1,.644.807,27.634,27.634,0,0,1-4.637,12.414.732.732,0,0,1-.6.317A.743.743,0,0,1,11995.42,1401.265Zm-5.714-.7a.734.734,0,0,1-.065-1.033,21.24,21.24,0,0,0,4.861-18.173.729.729,0,1,1,1.43-.291,22.723,22.723,0,0,1-5.194,19.429.73.73,0,0,1-1.031.067Zm12.17-.531a.726.726,0,0,1-.337-.975,31.015,31.015,0,0,0,2.069-5.545.731.731,0,1,1,1.411.379,32.56,32.56,0,0,1-2.169,5.806.722.722,0,0,1-.975.335Zm-17.03-1.535a.724.724,0,0,1,.035-1.03,16.346,16.346,0,0,0,5.031-14.1.728.728,0,1,1,1.442-.2,17.784,17.784,0,0,1-5.479,15.361.727.727,0,0,1-1.029-.035Zm-3.961-3.065a.731.731,0,0,1,.1-1.027,11.551,11.551,0,0,0,3.432-4.732.73.73,0,1,1,1.36.529,13.007,13.007,0,0,1-3.868,5.333.723.723,0,0,1-.461.165A.732.732,0,0,1,11980.885,1395.432Zm27.951.191a.73.73,0,0,1-.518-.892,35.376,35.376,0,0,0,1.131-11.4.73.73,0,0,1,.684-.775.718.718,0,0,1,.773.681,36.916,36.916,0,0,1-1.176,11.87.731.731,0,0,1-.7.543A.722.722,0,0,1,12008.836,1395.622Zm-30.931-4.025a.729.729,0,0,1,.089-1.027,6.584,6.584,0,0,0,2.243-6.091l-.052-.238a16.027,16.027,0,0,1-.293-2.422.732.732,0,0,1,1.462-.062,13.616,13.616,0,0,0,.206,1.887l.063.306a8.034,8.034,0,0,1-2.688,7.732.719.719,0,0,1-.472.173A.735.735,0,0,1,11977.905,1391.6Zm26.943-.205a.732.732,0,0,1-.6-.84,30.587,30.587,0,0,0-.208-11.125,9.006,9.006,0,0,0-17.713,3.253l.069.308a13.046,13.046,0,0,1,.185,3.925.731.731,0,1,1-1.453-.153,11.346,11.346,0,0,0-.1-3.144l-.075-.337a10.467,10.467,0,0,1,20.521-4.139,32.2,32.2,0,0,1,.216,11.651.729.729,0,0,1-.719.611A.874.874,0,0,1,12004.849,1391.393Zm-5.06-5.9a26.232,26.232,0,0,0-.52-5.1l-.042-.211a4.146,4.146,0,0,0-8.074.185.73.73,0,1,1-1.43-.3,5.606,5.606,0,0,1,10.983.035l.176.875h-.02a27.323,27.323,0,0,1,.385,4.512.729.729,0,0,1-1.459,0Zm-24.372-.29a20.178,20.178,0,0,1,1.817-13.183.729.729,0,1,1,1.3.666,18.7,18.7,0,0,0-1.684,12.226.731.731,0,0,1-.57.86.607.607,0,0,1-.146.015A.727.727,0,0,1,11975.417,1385.2Zm33.716-4.879c-.091-.617-.2-1.236-.323-1.852a13.87,13.87,0,0,0-27.261.37.73.73,0,0,1-1.438-.25,15.33,15.33,0,0,1,30.129-.411c.128.646.243,1.288.337,1.929a.726.726,0,0,1-.613.828.715.715,0,0,1-.108.009A.729.729,0,0,1,12009.133,1380.323Zm4.438-2.815a18.568,18.568,0,0,0-7.6-11.624.731.731,0,1,1,.838-1.2,20.04,20.04,0,0,1,8.192,12.537.73.73,0,0,1-.574.857.806.806,0,0,1-.144.015A.731.731,0,0,1,12013.57,1377.508Zm-34.5-7.183a.725.725,0,0,1-.158-1.019,20.168,20.168,0,0,1,25.188-6.226.731.731,0,1,1-.644,1.312,18.707,18.707,0,0,0-23.367,5.774.722.722,0,0,1-.591.3A.73.73,0,0,1,11979.068,1370.325Z" transform="translate(-11975.017 -1361.016)"/>
</svg>
