<svg xmlns="http://www.w3.org/2000/svg" width="134.801" height="37.49" viewBox="0 0 134.801 37.49">
  <defs>
    <style>
      .cls-1, .cls-2 {
        fill: #004378;
      }

      .cls-2 {
        font-size: 13px;
        font-family: BarlowCondensed-Medium, Barlow;
        font-weight: 500;
      }
    </style>
  </defs>
  <g id="App_Store_Button" transform="translate(0 0.052)">
    <path id="App_Store" data-name="App Store" class="cls-1" d="M30.7,19.955H28.321V4.562h2.3V6.486h.044a4.115,4.115,0,0,1,3.551-2.046l.132,0c2.959,0,4.87,2.318,4.87,5.905s-1.895,5.9-4.827,5.9c-.068,0-.137.005-.205.005a3.919,3.919,0,0,1-3.434-2.029H30.7v5.728Zm3.024-13.49c-1.815,0-3.034,1.56-3.034,3.882s1.219,3.891,3.034,3.891c1.857,0,3.057-1.527,3.057-3.891S35.577,6.465,33.719,6.465ZM17.965,19.955H15.591V4.562h2.3V6.486h.044a4.115,4.115,0,0,1,3.551-2.046l.132,0c2.959,0,4.87,2.318,4.87,5.905s-1.895,5.9-4.827,5.9c-.068,0-.137.005-.205.005a3.919,3.919,0,0,1-3.434-2.029h-.055v5.728Zm3.024-13.49c-1.815,0-3.034,1.56-3.034,3.882s1.219,3.891,3.034,3.891c1.857,0,3.057-1.527,3.057-3.891S22.846,6.465,20.989,6.465Zm30.257,9.928c-3.522,0-5.9-1.839-6.047-4.685h2.431c.174,1.56,1.7,2.607,3.792,2.607,1.994,0,3.441-1.031,3.441-2.451,0-1.23-.874-1.97-2.924-2.474l-2.057-.5c-2.909-.7-4.265-2.062-4.265-4.276C45.618,1.9,47.992,0,51.39,0c3.347,0,5.649,1.856,5.728,4.617h-2.4c-.141-1.566-1.43-2.539-3.364-2.539-1.9,0-3.222.976-3.222,2.374,0,1.118.835,1.781,2.881,2.287l1.748.429c3.229.763,4.607,2.078,4.607,4.4C57.371,14.544,55.025,16.393,51.247,16.393Zm39.533-.121c-3.364,0-5.453-2.25-5.453-5.872s2.1-5.981,5.353-5.981c3.216,0,5.213,2.186,5.213,5.705v.814H87.723v.144a3.012,3.012,0,0,0,3,3.278l.112,0c.081.008.164.012.246.012a2.6,2.6,0,0,0,2.425-1.638H95.76C95.443,14.817,93.394,16.273,90.779,16.273Zm-.117-9.928a2.911,2.911,0,0,0-2.067.853,2.955,2.955,0,0,0-.861,2.082h5.783a2.781,2.781,0,0,0-2.776-2.936h-.079ZM71.454,16.273c-3.384,0-5.486-2.271-5.486-5.926a6.218,6.218,0,0,1,1.489-4.329,5.8,5.8,0,0,1,8,0,6.222,6.222,0,0,1,1.486,4.329C76.941,14,74.838,16.273,71.454,16.273Zm0-9.9c-1.92,0-3.066,1.484-3.066,3.97s1.146,3.968,3.066,3.968,3.068-1.483,3.068-3.968S73.375,6.377,71.454,6.377ZM63.484,16.2h-.119c-2.342,0-3.255-.876-3.255-3.123V6.442H58.428V4.562H60.11V1.826h2.385V4.562h2.2v1.88h-2.2v6.377c0,.991.447,1.452,1.407,1.452a7.452,7.452,0,0,0,.782-.055v1.87A6.6,6.6,0,0,1,63.484,16.2ZM2.561,16.13H0L5.728.264H8.389l5.728,15.863-2.6,0L10.061,11.84H4.014L2.562,16.129ZM7,2.9,4.639,9.863H9.433L7.07,2.9ZM81.273,16.129H78.9V4.562h2.264V6.531h.055A2.756,2.756,0,0,1,83.895,4.44l.106,0h.015a3.653,3.653,0,0,1,.8.089V6.75a3.318,3.318,0,0,0-.964-.144l-.1,0-.1,0a2.391,2.391,0,0,0-2.375,2.663v6.859Z" transform="translate(38.908 17.484)"/>
    <path id="Apple_Icon" class="cls-1" d="M8.768,33.891c-2.221,0-3.955-2.478-5.221-4.287A21.593,21.593,0,0,1,.278,21.437c-.427-2.419-.574-5.93,1.15-8.916A8.318,8.318,0,0,1,8.39,8.275h.1a9.328,9.328,0,0,1,3.41.881,6.381,6.381,0,0,0,2.112.612,6.547,6.547,0,0,0,2.029-.6,10.886,10.886,0,0,1,3.906-.992,5.223,5.223,0,0,1,.543.028A7.923,7.923,0,0,1,26.7,11.561a7.664,7.664,0,0,0-3.668,6.461,7.434,7.434,0,0,0,4.544,6.847,17.035,17.035,0,0,1-2.363,4.813c-1.5,2.251-2.933,4.118-5.169,4.155h-.123a5.868,5.868,0,0,1-2.5-.623,6.863,6.863,0,0,0-2.97-.7,7.273,7.273,0,0,0-3.125.727,6.541,6.541,0,0,1-2.445.649ZM13.8,7.815h-.064a7.163,7.163,0,0,1,1.78-5.232A7.7,7.7,0,0,1,20.513,0a7.544,7.544,0,0,1-1.735,5.432A6.349,6.349,0,0,1,13.8,7.815Z" transform="translate(0 0)"/>
    <text id="Coming_Soon" class="cls-2" transform="translate(39.179 12.948)"><tspan x="0" y="0">ÇOK YAKINDA</tspan></text>
  </g>
</svg>
