<svg xmlns="http://www.w3.org/2000/svg" width="25" height="25" viewBox="0 0 25 25">
  <g id="Link_Twitter" transform="translate(-2481 -4513)">
    <circle id="Circle_Background" cx="12.5" cy="12.5" r="12.5" transform="translate(2481 4513)" fill="#098cdf"/>
    <path id="Twitter_Logo" d="M5.827,2.66l.026.433L5.419,3.04A7.029,7.029,0,0,1,1.292.992L.72.418.572.842A2.563,2.563,0,0,0,1.11,3.455c.347.371.269.424-.329.2a1.015,1.015,0,0,0-.408-.1A3.184,3.184,0,0,0,.685,4.743a2.81,2.81,0,0,0,1.188,1.13l.425.2-.5.009c-.486,0-.5.009-.451.194A2.629,2.629,0,0,0,2.965,7.727l.538.185-.468.282a4.851,4.851,0,0,1-2.324.653A2.547,2.547,0,0,0,0,8.919,6.572,6.572,0,0,0,1.673,9.7a7.27,7.27,0,0,0,5.688-.653,7.659,7.659,0,0,0,2.887-3.425,9.17,9.17,0,0,0,.59-2.648c0-.406.026-.459.512-.945a5.749,5.749,0,0,0,.607-.68c.087-.168.078-.168-.364-.018-.737.265-.841.23-.477-.168a2.572,2.572,0,0,0,.59-.945c0-.026-.13.018-.277.1a4.813,4.813,0,0,1-.763.3L10.2.762,9.772.471A3.519,3.519,0,0,0,9.035.083,2.938,2.938,0,0,0,7.517.118,2.527,2.527,0,0,0,5.827,2.66Z" transform="translate(2487.844 4520.766)" fill="#fff"/>
  </g>
</svg>
