<svg xmlns="http://www.w3.org/2000/svg" width="40" height="40" viewBox="0 0 40 40">
  <defs>
    <style>
      .cls-1 {
        fill: #0080be;
      }

      .cls-2 {
        fill: #fff;
      }
    </style>
  </defs>
  <g id="Icon_Xrp" transform="translate(-350 -266)">
    <circle id="Path" class="cls-1" cx="20" cy="20" r="20" transform="translate(350 266)"/>
    <path id="Symbol" class="cls-2" d="M0,19.8c.271-.282.555-.55.825-.833.556-.519,1.068-1.076,1.623-1.593,1.416-1.422,2.85-2.823,4.272-4.24.286-.267.55-.558.845-.814a6.717,6.717,0,0,1,3.113-1.531,9.09,9.09,0,0,1,1.124-.133,3.59,3.59,0,0,1,.628.022A6.68,6.68,0,0,1,16.74,12.6c.37.37.748.732,1.116,1.105.349.363.724.7,1.073,1.06.384.393.788.766,1.172,1.159.889.893,1.793,1.772,2.681,2.666.417.389.815.8,1.219,1.206H20.5q-1.333-1.313-2.657-2.643c-.48-.428-.9-.917-1.383-1.348-.377-.379-.753-.757-1.134-1.132a5.21,5.21,0,0,0-1.037-.889,4.265,4.265,0,0,0-5.208.478c-.519.519-1.036,1.027-1.551,1.545-.476.437-.907.919-1.383,1.354Q4.83,18.487,3.494,19.8ZM8.465,8.021A6.989,6.989,0,0,1,7.021,6.835c-.477-.46-.93-.945-1.417-1.394-.353-.347-.69-.707-1.052-1.041-.389-.39-.775-.784-1.175-1.164C2.3,2.153,1.2,1.083.119,0h3.5c1.235,1.243,2.494,2.461,3.73,3.7C7.89,4.21,8.4,4.741,8.926,5.259a4.286,4.286,0,0,0,4.783.948A4.424,4.424,0,0,0,15,5.338c.246-.268.518-.512.769-.775.284-.27.547-.562.839-.823.406-.4.8-.814,1.214-1.2.836-.845,1.692-1.672,2.53-2.518L20.393,0h3.482c-.413.4-.81.823-1.232,1.216-1,1.008-2.018,2-3.02,3-.479.444-.922.929-1.4,1.375q-.8.8-1.609,1.6a6.64,6.64,0,0,1-1.77,1.193A6.7,6.7,0,0,1,12,9.009,6.724,6.724,0,0,1,8.465,8.021Z" transform="translate(357.904 275.943)"/>
  </g>
</svg>
