<svg xmlns="http://www.w3.org/2000/svg" width="12" height="9" viewBox="0 0 12 9">
  <defs>
    <style>
      .cls-1 {
        fill: #004378;
      }
    </style>
  </defs>
  <path id="Icon_Approximately" class="cls-1" d="M1.884-13a3.547,3.547,0,0,1-1.47-.277,13.374,13.374,0,0,1-1.5-.832q-.7-.424-1.149-.636a2.282,2.282,0,0,0-1-.212,2.457,2.457,0,0,0-2.206,1.338q-.153.326-.429.131l-.827-.522a.367.367,0,0,1-.153-.457,4.556,4.556,0,0,1,1.394-1.843,3.237,3.237,0,0,1,2.037-.7,3.462,3.462,0,0,1,1.3.228,6.1,6.1,0,0,1,1.179.653,9.984,9.984,0,0,0,1.409.816,3.186,3.186,0,0,0,1.317.261,1.605,1.605,0,0,0,1.026-.326,4.128,4.128,0,0,0,.842-.979.28.28,0,0,1,.429-.1l.888.62a.281.281,0,0,1,.092.424Q3.722-13,1.884-13Zm0,4.987a3.547,3.547,0,0,1-1.47-.277,13.373,13.373,0,0,1-1.5-.832q-.7-.424-1.149-.636a2.282,2.282,0,0,0-1-.212A2.457,2.457,0,0,0-5.437-8.63q-.153.326-.429.131l-.827-.522a.367.367,0,0,1-.153-.457,4.556,4.556,0,0,1,1.394-1.843,3.237,3.237,0,0,1,2.037-.7,3.462,3.462,0,0,1,1.3.228,6.1,6.1,0,0,1,1.179.653,9.984,9.984,0,0,0,1.409.816,3.186,3.186,0,0,0,1.317.261,1.605,1.605,0,0,0,1.026-.326,4.128,4.128,0,0,0,.842-.979.28.28,0,0,1,.429-.1l.888.62a.281.281,0,0,1,.092.424Q3.722-8.01,1.884-8.01Z" transform="translate(6.871 17.01)"/>
</svg>
