<svg xmlns="http://www.w3.org/2000/svg" width="94" height="94" viewBox="0 0 94 94">
  <g id="innovation" transform="translate(-687.209 -385.668)">
    <circle id="Circle" cx="47" cy="47" r="47" transform="translate(687.209 385.668)" fill="#357ce1"/>
    <g id="innovation-2" data-name="innovation" transform="translate(698.724 397.183)">
      <path id="Path_422" data-name="Path 422" d="M14.107,45.041a4.1,4.1,0,0,0,.675-8.153,3.4,3.4,0,0,1,3.344-2.83H34.36v4.7a10.726,10.726,0,0,0-2.16.358.624.624,0,0,0-.409.852,1.937,1.937,0,0,1-3.34,1.922A.626.626,0,0,0,28,41.636a.639.639,0,0,0-.488.18,10.614,10.614,0,0,0-2.78,4.829.625.625,0,0,0,.533.78,1.937,1.937,0,0,1,0,3.852.625.625,0,0,0-.533.78,10.619,10.619,0,0,0,2.78,4.83.624.624,0,0,0,.943-.074,1.937,1.937,0,0,1,3.34,1.922.624.624,0,0,0,.409.852,10.365,10.365,0,0,0,5.569,0,.624.624,0,0,0,.409-.852,1.937,1.937,0,0,1,3.34-1.922.624.624,0,0,0,.943.074,10.619,10.619,0,0,0,2.78-4.83.625.625,0,0,0-.533-.78,1.937,1.937,0,0,1,0-3.852.625.625,0,0,0,.533-.78,10.614,10.614,0,0,0-2.78-4.829.635.635,0,0,0-.488-.18.626.626,0,0,0-.455.253,1.937,1.937,0,0,1-3.34-1.922.624.624,0,0,0-.409-.852,10.726,10.726,0,0,0-2.16-.358v-4.7H51.843a3.4,3.4,0,0,1,3.344,2.83,4.108,4.108,0,1,0,1.26-.014,4.647,4.647,0,0,0-4.6-4.066H35.609V27.79h6.1a4.647,4.647,0,0,0,4.6-4.066,4.106,4.106,0,1,0-1.26-.014,3.4,3.4,0,0,1-3.344,2.83h-6.1V18.16a4.107,4.107,0,1,0-1.249,0v8.38h-6.1a3.4,3.4,0,0,1-3.344-2.83,4.108,4.108,0,1,0-1.26.014,4.647,4.647,0,0,0,4.6,4.066h6.1v5.019H18.125a4.647,4.647,0,0,0-4.6,4.066,4.1,4.1,0,0,0,.585,8.167Zm24.249-1.53a3.189,3.189,0,0,0,3.665-.341,9.363,9.363,0,0,1,1.828,3.179,3.184,3.184,0,0,0,0,6,9.357,9.357,0,0,1-1.828,3.179,3.184,3.184,0,0,0-5.2,3,9,9,0,0,1-3.666,0,3.188,3.188,0,0,0-1.538-3.339h0a3.187,3.187,0,0,0-3.665.341,9.357,9.357,0,0,1-1.828-3.179,3.184,3.184,0,0,0,0-6,9.363,9.363,0,0,1,1.828-3.179,3.184,3.184,0,0,0,5.2-3,9.017,9.017,0,0,1,3.666,0A3.189,3.189,0,0,0,38.356,43.511Zm20.363-2.576a2.857,2.857,0,1,1-2.858-2.858A2.861,2.861,0,0,1,58.719,40.935ZM42.873,19.664a2.858,2.858,0,1,1,2.858,2.858A2.861,2.861,0,0,1,42.873,19.664ZM32.127,14.107a2.858,2.858,0,1,1,2.858,2.857A2.861,2.861,0,0,1,32.127,14.107ZM21.38,19.664a2.858,2.858,0,1,1,2.858,2.858A2.861,2.861,0,0,1,21.38,19.664ZM14.107,38.077a2.858,2.858,0,1,1-2.858,2.858A2.86,2.86,0,0,1,14.107,38.077Z" transform="translate(0 0)" fill="#fff"/>
      <path id="Path_423" data-name="Path 423" d="M42.473,70.176a4.7,4.7,0,1,0,4.7-4.7A4.707,4.707,0,0,0,42.473,70.176Zm8.154,0a3.452,3.452,0,1,1-3.452-3.452A3.456,3.456,0,0,1,50.627,70.176Z" transform="translate(-12.19 -20.825)" fill="#fff"/>
    </g>
  </g>
</svg>
