<svg xmlns="http://www.w3.org/2000/svg" width="94" height="94" viewBox="0 0 94 94">
  <g id="Icon_01" transform="translate(-687.209 -385.668)">
    <circle id="Circle" cx="47" cy="47" r="47" transform="translate(687.209 385.668)" fill="#357ce1"/>
    <g id="Drop" transform="translate(712.21 408.669)">
      <path id="Path_446" data-name="Path 446" d="M136.873,73.408a16.354,16.354,0,0,0,16.353,16.375h.006A16.371,16.371,0,0,0,169.575,73.44c.165-1.272,1.112-12.7-15.565-31.771a1.069,1.069,0,0,0-.749-.336h-.035a1.07,1.07,0,0,0-.737.292l-.051.05C135.785,60.721,136.712,72.166,136.873,73.408Zm16.164-29.252.191-.223.19.223c15.5,18.211,14.118,28.908,14.1,29.015v.007a.97.97,0,0,0-.015.171,14.278,14.278,0,0,1-28.556,0,1.28,1.28,0,0,0-.013-.162C138.919,73.073,137.566,62.335,153.037,44.156Z" transform="translate(-136.811 -40.789)" fill="#fff"/>
      <path id="Path_447" data-name="Path 447" d="M142.929,70.11c-.073.421-.125.835-.158,1.225a9.834,9.834,0,0,0-.035,1.107,4.031,4.031,0,0,0,.032.442,10.509,10.509,0,0,0,10.461,10.47c.085,0,.172-.006.267-.015h.112a1.108,1.108,0,0,0,.7-1.9,1.084,1.084,0,0,0-.788-.313l-.064,0c-.041,0-.082.007-.123.007a.551.551,0,0,1-.1,0,8.261,8.261,0,0,1-8.25-8.245,1.927,1.927,0,0,0-.019-.273,1.674,1.674,0,0,1-.017-.253,7.506,7.506,0,0,1,.03-.851c.027-.327.072-.676.134-1.038a21.425,21.425,0,0,1,1.537-4.883,1.108,1.108,0,0,0-2.035-.875A23.633,23.633,0,0,0,142.929,70.11Z" transform="translate(-136.811 -40.789)" fill="#fff"/>
      <path id="Path_448" data-name="Path 448" d="M174.6,78a12.834,12.834,0,0,0,7.163-11.576l.023-.228a9.248,9.248,0,0,0,.021-.955,17.825,17.825,0,0,0-.333-2.81c-.1-.518-.211-.995-.333-1.46-.131-.5-.281-1.018-.445-1.529-.087-.269-.18-.547-.28-.832-.139-.4-.3-.814-.467-1.242-.193-.486-.4-.986-.635-1.512a62.659,62.659,0,0,0-9.669-14.7,1.139,1.139,0,0,0-1.688,0c-1.716,2.014-3.292,4.049-4.686,6.049a1.108,1.108,0,0,0,1.817,1.267c1.062-1.525,2.245-3.086,3.516-4.639l.191-.232.193.229a58.468,58.468,0,0,1,8.3,12.925c.222.5.418.97.6,1.428.158.4.3.791.436,1.162.093.263.18.521.261.772.153.482.294.963.41,1.409s.214.871.3,1.327a15.317,15.317,0,0,1,.292,2.387v.064a7.113,7.113,0,0,1-.013.717,2.511,2.511,0,0,0-.032.388,10.641,10.641,0,0,1-5.939,9.61,1.109,1.109,0,0,0-.285,1.772A1.125,1.125,0,0,0,174.6,78Z" transform="translate(-136.811 -40.789)" fill="#fff"/>
    </g>
  </g>
</svg>
