<svg xmlns="http://www.w3.org/2000/svg" width="75" height="14" viewBox="0 0 75 14">
  <defs>
    <style>
      .cls-1 {
        fill: #758ca3;
      }
    </style>
  </defs>
  <g id="Odeabank_Logo" transform="translate(0 0)">
    <path id="Odeabank_Logo-2" data-name="Odeabank_Logo" class="cls-1" d="M21.665,154.612c-.006,1.9-.946,2.857-2.166,2.853-1.44,0-2.161-.983-2.154-2.9s1.1-2.742,2.208-2.739c1.458,0,2.117.984,2.112,2.787m2.56-.122c.009-3.211-1.753-4.684-4.494-4.692a4.768,4.768,0,0,0-4.948,5c-.009,3.327,1.756,4.706,4.494,4.713a4.8,4.8,0,0,0,4.948-5.023m6.866.011c0,1.592-.784,3.054-2.082,3.051-1.124,0-1.647-.9-1.643-2.651.006-2.306,1.02-3.166,2.435-3.162a5.833,5.833,0,0,1,1.3.158Zm.262,4.862,2.215.006.038-13.718-2.491-.008L31.1,149.9a8.636,8.636,0,0,0-1.219-.076c-3.2-.009-5.1,2.159-5.113,5.313-.007,2.663,1.145,4.392,3.5,4.4a3.236,3.236,0,0,0,3.049-1.756l.041,0Zm9.15-5.887-3.549-.009a1.9,1.9,0,0,1,1.887-1.855,1.607,1.607,0,0,1,1.661,1.864m2.38,1.641a7.754,7.754,0,0,0,.083-1.09c.006-2.31-1.229-4.166-4.041-4.173-2.892-.009-4.526,2.085-4.535,4.938-.009,3.28,1.695,4.771,4.757,4.78a9.906,9.906,0,0,0,3.452-.591l-.225-1.861a7.073,7.073,0,0,1-2.811.575c-1.786-.005-2.676-.851-2.649-2.594Zm6.316.391a2.176,2.176,0,0,1-2.064,2.246c-.716,0-1.139-.4-1.137-1,0-.751.585-1.482,3.2-1.474Zm.284,3.905,2.194.006c0-.189,0-1.838,0-1.838l.013-4.451c0-2.042-.863-3.244-3.964-3.252a10.9,10.9,0,0,0-3.455.567l.208,2.01a6.52,6.52,0,0,1,2.851-.725c1.4,0,1.88.514,1.877,1.491v.5c-3.275-.01-5.569,1.167-5.575,3.4,0,1.5,1,2.463,2.743,2.467a3.278,3.278,0,0,0,3.093-1.776h.023Zm9.869-4.87c-.006,2.306-1.017,3.169-2.431,3.164a4.187,4.187,0,0,1-1.283-.173l.008-2.627c0-1.558.784-3,2.064-3,1.128,0,1.647.886,1.643,2.632m2.62-.24c.01-2.757-1.229-4.388-3.537-4.4a3.141,3.141,0,0,0-2.779,1.393l0-1.554.008-2.862,0-1.171-2.489-.007-.038,13.454a13.2,13.2,0,0,0,3.594.462c3.319.01,5.228-2.165,5.235-5.317m5.97,1.259a2.175,2.175,0,0,1-2.061,2.244c-.718,0-1.145-.4-1.144-1,0-.749.588-1.482,3.2-1.474Zm.279,3.9,2.2.006c0-.189,0-1.838,0-1.838l.013-4.451c0-2.042-.858-3.243-3.961-3.252a10.925,10.925,0,0,0-3.46.567l.211,2.01a6.487,6.487,0,0,1,2.853-.725c1.4,0,1.881.513,1.878,1.489v.5c-3.275-.009-5.571,1.168-5.577,3.4,0,1.5,1,2.462,2.745,2.466a3.281,3.281,0,0,0,3.093-1.775h.018Zm9.288.027L80,159.5l.018-6.551c0-1.63-.717-2.982-2.889-2.988a3.536,3.536,0,0,0-3.285,1.865l-.018-.021,0-1.67-2.2,0-.014,9.347,2.488.006.012-4.5c0-1.631.97-3.017,2.229-3.014.911,0,1.183.584,1.18,1.558Zm8.64-5.043,3.417-4.271-3.022-.009-2.841,3.9.022-8.277-2.484-.008L81.206,159.5l2.485.007.012-4.619,2.975,4.627,3.1.01Z" transform="translate(-14.783 -145.643)"/>
  </g>
</svg>
