<svg xmlns="http://www.w3.org/2000/svg" width="54" height="14" viewBox="0 0 54 14">
    <defs>
        <style>
            .cls-1{fill:url(#linear-gradient)}
        </style>
        <linearGradient id="linear-gradient" x2="1" y1=".375" y2=".36" gradientUnits="objectBoundingBox">
            <stop offset="0" stop-color="#db4757"/>
            <stop offset="1" stop-color="#900f9c"/>
        </linearGradient>
    </defs>
    <g id="Papara_Logo" transform="translate(0 -4)">
        <path id="Papara_Logo-2" d="M-458.929 15.725a1.214 1.214 0 0 1-.4.909 1.327 1.327 0 0 1-.954.378h-1.35V7.59q0-2.649 1.628-3.613a6.818 6.818 0 0 1 3.534-.965 5.949 5.949 0 0 1 2.006.36 3.736 3.736 0 0 1 1.608 1.041 5.83 5.83 0 0 1 1.194 3.787 5.953 5.953 0 0 1-1.191 3.86 3.791 3.791 0 0 1-3.058 1.438 4.2 4.2 0 0 1-1.747-.341 2.913 2.913 0 0 1-1.271-1.174zm4.527-7.416a3.722 3.722 0 0 0-.6-2.27 2.006 2.006 0 0 0-1.708-.794 1.963 1.963 0 0 0-1.667.794 3.712 3.712 0 0 0-.556 2.27 3.315 3.315 0 0 0 .6 2.157 2 2 0 0 0 1.708.794 1.925 1.925 0 0 0 1.625-.794 3.534 3.534 0 0 0 .6-2.157zm9.964 4.578a5.053 5.053 0 0 1-1.767.512 16.57 16.57 0 0 1-1.647.094 4.3 4.3 0 0 1-2.5-.738 2.75 2.75 0 0 1-1.072-2.441 2.576 2.576 0 0 1 .972-2.271 5.761 5.761 0 0 1 2.482-.909 2.484 2.484 0 0 0 .476-.056c.185-.037.4-.069.635-.1q1.748-.228 1.747-.983a.725.725 0 0 0-.615-.738 4.269 4.269 0 0 0-1.13-.168 3 3 0 0 0-.993.152 1.065 1.065 0 0 0-.635.568h-2.66a2.874 2.874 0 0 1 1.111-1.931 4.743 4.743 0 0 1 3.058-.87 6.219 6.219 0 0 1 3.336.718 2.4 2.4 0 0 1 1.152 2.119v3.449a4.175 4.175 0 0 1-.576 2.365 3.465 3.465 0 0 1-1.373 1.228zm-.635-4.654a7.765 7.765 0 0 1-1.548.492l-.913.189a2.381 2.381 0 0 0-1.032.492 1.5 1.5 0 0 0-.278.833 1.2 1.2 0 0 0 .358.909 1.557 1.557 0 0 0 1.032.3 2.426 2.426 0 0 0 1.747-.605 2.192 2.192 0 0 0 .635-1.666zm5.678 7.492a1.214 1.214 0 0 1-.4.909 1.327 1.327 0 0 1-.954.378h-1.35V7.59q0-2.649 1.628-3.613a6.818 6.818 0 0 1 3.534-.965 5.948 5.948 0 0 1 2.006.36 3.736 3.736 0 0 1 1.608 1.041 5.825 5.825 0 0 1 1.191 3.782 5.953 5.953 0 0 1-1.191 3.86 3.791 3.791 0 0 1-3.058 1.438 4.2 4.2 0 0 1-1.747-.341 2.913 2.913 0 0 1-1.271-1.174zm4.527-7.416a3.722 3.722 0 0 0-.6-2.27 2.006 2.006 0 0 0-1.708-.794 1.963 1.963 0 0 0-1.667.794 3.712 3.712 0 0 0-.556 2.27 3.315 3.315 0 0 0 .6 2.157 2 2 0 0 0 1.706.794 1.925 1.925 0 0 0 1.628-.794 3.511 3.511 0 0 0 .597-2.157zm9.966 4.578a5.063 5.063 0 0 1-1.767.51c-.622.063-1.172.1-1.648.1a4.3 4.3 0 0 1-2.5-.738 2.747 2.747 0 0 1-1.071-2.441 2.576 2.576 0 0 1 .972-2.271 5.761 5.761 0 0 1 2.482-.909 2.483 2.483 0 0 0 .476-.056c.185-.037.4-.069.635-.1q1.748-.228 1.747-.983a.725.725 0 0 0-.615-.738 4.281 4.281 0 0 0-1.132-.168 3 3 0 0 0-.993.152 1.064 1.064 0 0 0-.635.568h-2.66a2.881 2.881 0 0 1 1.111-1.928 4.743 4.743 0 0 1 3.058-.87 6.219 6.219 0 0 1 3.336.718 2.4 2.4 0 0 1 1.152 2.119V9.3a4.176 4.176 0 0 1-.576 2.365 3.47 3.47 0 0 1-1.37 1.222zm-.635-4.654a7.8 7.8 0 0 1-1.548.492l-.913.189a2.381 2.381 0 0 0-1.032.492 1.5 1.5 0 0 0-.278.833 1.2 1.2 0 0 0 .358.909 1.557 1.557 0 0 0 1.032.3 2.427 2.427 0 0 0 1.747-.605 2.191 2.191 0 0 0 .635-1.666zm2.976 5.07V8.422a5.963 5.963 0 0 1 .457-2.478 4.139 4.139 0 0 1 1.25-1.608 5.052 5.052 0 0 1 1.767-.833A8.156 8.156 0 0 1-417 3.239h.4v2.686h-.913a2.4 2.4 0 0 0-1.708.529 2.206 2.206 0 0 0-.556 1.664V13.3h-2.778zm12.985-.416a5.062 5.062 0 0 1-1.767.51q-.933.094-1.649.1a4.3 4.3 0 0 1-2.5-.738 2.75 2.75 0 0 1-1.072-2.441 2.576 2.576 0 0 1 .972-2.271 5.762 5.762 0 0 1 2.482-.909 2.483 2.483 0 0 0 .476-.056c.185-.037.4-.069.635-.1q1.748-.228 1.747-.983a.724.724 0 0 0-.615-.738A4.268 4.268 0 0 0-412 5.094a3 3 0 0 0-.993.152 1.065 1.065 0 0 0-.635.568h-2.66a2.881 2.881 0 0 1 1.111-1.929 4.742 4.742 0 0 1 3.058-.87 6.219 6.219 0 0 1 3.336.718 2.4 2.4 0 0 1 1.152 2.119V9.3a4.175 4.175 0 0 1-.576 2.365 3.467 3.467 0 0 1-1.368 1.222zm-.635-4.654a7.806 7.806 0 0 1-1.548.492l-.913.189a2.381 2.381 0 0 0-1.032.492 1.5 1.5 0 0 0-.278.833 1.2 1.2 0 0 0 .357.909 1.557 1.557 0 0 0 1.032.3 2.426 2.426 0 0 0 1.747-.605 2.191 2.191 0 0 0 .635-1.666z" class="cls-1" data-name="Papara_Logo" transform="translate(461.629 .988)"/>
    </g>
</svg>
