<svg xmlns="http://www.w3.org/2000/svg" width="14" height="11.569" viewBox="0 0 14 11.569">
  <defs>
    <style>
      .cls-1 {
        fill: #fff;
      }
    </style>
  </defs>
  <path id="Twitter_Logo" class="cls-1" d="M6.8,3.078l.03.5-.506-.061A8.227,8.227,0,0,1,1.507,1.148L.84.484.668.974A2.947,2.947,0,0,0,1.295,4c.4.429.314.49-.384.235a1.193,1.193,0,0,0-.475-.112A3.659,3.659,0,0,0,.8,5.488,3.267,3.267,0,0,0,2.185,6.8l.5.235-.587.01c-.566,0-.587.01-.526.225A3.058,3.058,0,0,0,3.46,8.94l.627.214-.546.327a5.7,5.7,0,0,1-2.711.756A3,3,0,0,0,0,10.318a7.7,7.7,0,0,0,1.952.9,8.545,8.545,0,0,0,6.636-.756A8.881,8.881,0,0,0,11.957,6.5a10.534,10.534,0,0,0,.688-3.064c0-.47.03-.531.6-1.093a6.669,6.669,0,0,0,.708-.786c.1-.194.091-.194-.425-.02-.86.306-.981.266-.556-.194A2.971,2.971,0,0,0,13.656.249c0-.031-.152.02-.324.112a5.643,5.643,0,0,1-.89.347L11.9.882,11.4.545A4.117,4.117,0,0,0,10.541.1,3.456,3.456,0,0,0,8.77.136,2.924,2.924,0,0,0,6.8,3.078Z" transform="translate(0 0)"/>
</svg>
