<svg xmlns="http://www.w3.org/2000/svg" width="71.346" height="22" viewBox="0 0 71.346 22">
  <g id="VakifBank" transform="translate(-139 -345)">
    <path id="Path_7" data-name="Path 7" d="M139,396.92l2.155,11.187,1.433.022h.606l6.16-11.208h-2.335l-4.433,8.835-.922-8.834H139Z" transform="translate(0 -41.129)" fill="#fff" fill-rule="evenodd"/>
    <path id="Path_8" data-name="Path 8" d="M181.01,417.664c.35-1.833.681-3.595,1.031-5.427.234-1.566-.54-2.388-2-2.7a6.382,6.382,0,0,0-4.068.35l-.6,1.271a7.1,7.1,0,0,1,3.3-.508q1.749.187,1.176,1.811c-2.927.038-5.112.659-5.974,2.32a1.968,1.968,0,0,0,.54,2.224,5.84,5.84,0,0,0,3.291.788,27.225,27.225,0,0,0,3.3-.127Zm-1.351-4.346-.625,3.518c-1.01-.015-3.115.209-3.217-1.25a2.119,2.119,0,0,1,1.643-1.921,7.78,7.78,0,0,1,2.2-.347Z" transform="translate(-27.078 -50.82)" fill="#fff" fill-rule="evenodd"/>
    <path id="Path_9" data-name="Path 9" d="M216.866,396.92l-2.141,11.209h2.224l.791-4.142,2.57,4.142h2.51l-2.949-4.408,4.068-3.686L221.683,400l-3.868,3.6,1.276-6.679Z" transform="translate(-59.576 -41.129)" fill="#fff" fill-rule="evenodd"/>
    <path id="Path_10" data-name="Path 10" d="M257.023,411.035l-1.546,8.094h2.006l1.546-8.094Z" transform="translate(-91.567 -52.129)" fill="#fff" fill-rule="evenodd"/>
    <path id="Path_11" data-name="Path 11" d="M278.094,398.186l-.171.895-1.389,0-.241,1.166,1.407,0-1.316,6.891h2.225c.433-2.3.85-4.591,1.276-6.886l1.618,0,.241-1.166-1.642,0,.075-.4.086-.458c.09-1.232,1.056-1.7,2.548-1.488l.05-.046a1.335,1.335,0,0,1,.985-.872c-2.313-.448-4.342-.084-5.464,1.576a1.784,1.784,0,0,0-.289.785Z" transform="translate(-107.988 -40.139)" fill="#fff" fill-rule="evenodd"/>
    <path id="Path_12" data-name="Path 12" d="M303.183,396.86l-1.888,9.882h0l0,.012-.014.06h1.02l3.874-.032c2.532-.021,4.743-.942,4.822-3.575a2.633,2.633,0,0,0-2.3-2.5v-.036h0a2.888,2.888,0,0,0,2.851-2.668c-.057-1.3-.93-2.211-2.773-2.647-1.393-.27-5.027-.259-5.6,1.5Zm1.407,4.5.02-.1c2.111-.1,3.915-.077,4,1.855-.148,1.663-1.245,2.351-2.929,2.435l-1.854-.033.767-4.155Zm.223-1.152.69-3.562c.085-.025.175-.05.27-.073a4.971,4.971,0,0,1,1.941-.145l.044.008a1.589,1.589,0,0,1,1.554,1.38,2.762,2.762,0,0,1-.2,1.055,1.779,1.779,0,0,1-.546.733,3.513,3.513,0,0,1-2.072.631l-1.686-.025Z" transform="translate(-127.694 -39.814)" fill="#fff" fill-rule="evenodd"/>
    <path id="Path_13" data-name="Path 13" d="M355.466,417.664c.35-1.833.682-3.595,1.031-5.427.233-1.566-.54-2.388-2-2.7a6.382,6.382,0,0,0-4.068.35l-.6,1.271a7.1,7.1,0,0,1,3.3-.508q1.749.187,1.176,1.811c-2.927.038-5.112.659-5.974,2.32a1.968,1.968,0,0,0,.54,2.224,5.839,5.839,0,0,0,3.291.788,27.221,27.221,0,0,0,3.3-.127Zm-1.351-4.346-.625,3.518c-1.01-.015-3.115.209-3.217-1.25a2.119,2.119,0,0,1,1.643-1.921,7.782,7.782,0,0,1,2.2-.347Z" transform="translate(-164.567 -50.82)" fill="#fff" fill-rule="evenodd"/>
    <path id="Path_14" data-name="Path 14" d="M395.96,418.123c.348-1.823.642-3.657,1.029-5.472a4.088,4.088,0,0,0,.1-.733c.085-3.108-6.074-2.112-7.531-1.525l-1.42,7.729,2.058.016h.16l1.2-6.781c.74-.3,3.407-.759,3.347.824l-1.122,5.956h.853l1.322-.015Z" transform="translate(-196.321 -51.137)" fill="#fff" fill-rule="evenodd"/>
    <path id="Path_15" data-name="Path 15" d="M432.485,396.92l-2.141,11.209h2.224l.791-4.142,2.57,4.142h2.51l-2.949-4.408,4.068-3.686L437.3,400l-3.868,3.6,1.276-6.679Z" transform="translate(-229.212 -41.129)" fill="#fff" fill-rule="evenodd"/>
    <path id="Path_16" data-name="Path 16" d="M366.137,356.239l3.851-.023a3.512,3.512,0,0,0,3.787-3.42,2.773,2.773,0,0,0-2.407-2.532v-.035h0a2.888,2.888,0,0,0,2.851-2.668c-.069-1.591-1.811-2.552-3.248-2.552h-.445L369.51,345h-7.491a3.765,3.765,0,0,0-3.034,1.887,1.385,1.385,0,0,0-.18.479l-1.986,8.874Zm-6.444-8.248-1.712,7.355a5.209,5.209,0,0,0,3.766-.763,8.2,8.2,0,0,0,1.155-1.139l4.006-4.835a9.606,9.606,0,0,1,3.141-2.812,7.309,7.309,0,0,0-3.476.892,3.046,3.046,0,0,0-.862.734l-5.229,5.837c.306-1.422.671-3.144,1.05-4.675.026-.107.06-.211.08-.314a2.75,2.75,0,0,1,2.025-2.346,3.255,3.255,0,0,0-3.945,2.066Z" transform="translate(-171.912 0)" fill="#ffdb45" fill-rule="evenodd"/>
  </g>
</svg>
