<svg xmlns="http://www.w3.org/2000/svg" width="99.188" height="20.281" viewBox="0 0 99.188 20.281">
    <defs>
        <style>
            .cls-1{fill:#fff}.cls-2{fill:#e50019}
        </style>
    </defs>
    <g id="Ziraat_Logo">
        <path id="Type" d="M23.691 9.7a2.825 2.825 0 0 1 2.239-2.99 9.882 9.882 0 0 1 2.659-.277V5.6A1.1 1.1 0 0 0 27.4 4.594a11.237 11.237 0 0 0-2.323.413l.427-1.736a11.382 11.382 0 0 1 2.369-.3 2.606 2.606 0 0 1 2.685 2.948v5.923h-1.9v-.407h-.329a3.146 3.146 0 0 1-1.804.565c-1.093 0-2.834-.361-2.834-2.3zM27.1 7.744A1.569 1.569 0 0 0 25.587 9.3 1.267 1.267 0 0 0 27 10.507c1.053 0 1.535-.545 1.535-.881V7.733s-.428.011-1.435.011zM16.262 9.7A2.824 2.824 0 0 1 18.5 6.71a9.887 9.887 0 0 1 2.659-.277V5.6a1.1 1.1 0 0 0-1.185-1.006 11.251 11.251 0 0 0-2.324.413l.428-1.736a11.373 11.373 0 0 1 2.369-.3 2.606 2.606 0 0 1 2.685 2.948v5.923h-1.9v-.407h-.322A3.153 3.153 0 0 1 19.1 12c-1.1 0-2.838-.361-2.838-2.3zm3.407-1.959A1.568 1.568 0 0 0 18.158 9.3a1.267 1.267 0 0 0 1.413 1.2c1.053 0 1.535-.545 1.535-.881V7.733s-.428.011-1.437.011zm54.763 4.223V11.3a4.4 4.4 0 0 1-2.119.665c-1.107 0-3.08-.43-3.08-2.535a2.908 2.908 0 0 1 3.059-3h2.03V5.291c0-.568-.693-1.3-2-1.063a8.048 8.048 0 0 0-2.172.72l.153-1.3A7.945 7.945 0 0 1 73.071 3a2.577 2.577 0 0 1 2.677 2.527v6.438zM70.57 9.217c0 .753.045 1.754 1.646 1.754A2.009 2.009 0 0 0 74.3 8.722v-1.4h-1.448c-1.777.003-2.282 1.143-2.282 1.895zm-18 2.751V11.3a4.407 4.407 0 0 1-2.12.665c-1.107 0-3.08-.43-3.08-2.535a2.909 2.909 0 0 1 3.06-3h2.03V5.291c0-.568-.693-1.3-2-1.063a8.049 8.049 0 0 0-2.172.72l.153-1.3A7.947 7.947 0 0 1 51.207 3a2.577 2.577 0 0 1 2.677 2.527v6.438zm-3.865-2.751c0 .753.045 1.754 1.646 1.754a2.009 2.009 0 0 0 2.085-2.249v-1.4h-1.448c-1.776.003-2.283 1.143-2.283 1.895zm28.018 1.913l.439-1.151a4.744 4.744 0 0 0 2.369.679c1.338 0 1.8-.817 1.8-1.269s-.307-.924-1.886-1.29-2.5-1.247-2.5-2.709a2.557 2.557 0 0 1 2.787-2.3 5.935 5.935 0 0 1 2.511.618l-.317 1.036a5.889 5.889 0 0 0-1.826-.429c-.79 0-1.645.343-1.645 1.053s.526 1.2 1.712 1.44 2.59 1.119 2.59 2.392a3.022 3.022 0 0 1-3.051 2.689 6.413 6.413 0 0 1-2.983-.759zm-17.048.74V5.729c0-.413-.026-1.161-1.184-1.161s-2.185.851-2.185 1.393v5.91h-1.5V3.236l1.422-.294v1.136a3.391 3.391 0 0 1 2.528-1.11 2.584 2.584 0 0 1 2.5 2.219v6.683zm-20.667-.019V.078h3.785c1.835 0 3.62 1 3.62 2.677a3.8 3.8 0 0 1-1.645 2.774 3.083 3.083 0 0 1 2.173 2.935 3.356 3.356 0 0 1-2.824 3.387zm1.548-1.371h2.7a2 2 0 0 0 2.211-1.874 2.035 2.035 0 0 0-1.9-2.232h-3.02zm.049-5.467h2.419a1.825 1.825 0 0 0 1.892-1.823 1.884 1.884 0 0 0-2.024-1.79h-2.287zm21.625 6.832V.052h1.683V6.4h.342l2.9-3.612h2.133l-3.767 4.064 4.159 4.916h-2.3l-3.12-4.49h-.369v4.568zM0 11.841v-1.777l5.112-8.2H.439L.966 0H7.9v1.841l-5.135 8.223h5.111l-.724 1.777zm83.585-.006V3.207H85v8.628zm-74.77 0V3.207h1.892v8.628zm25.027-.016a1.751 1.751 0 0 1-1.81-1.678V4.562h-.889V3.239h.957V.949h1.829v2.322h2.106l-.475 1.323h-1.606v4.955c0 .645.119 1.013.744 1.013h1.086v1.258zm-21.45 0v-8.58h1.573v.968a2.959 2.959 0 0 1 1.3-.774 3.183 3.183 0 0 1 1.421-.026v1.651h-1.24c-.5 0-1.421.671-1.421 1.316v5.445zM8.558 1.389a1.18 1.18 0 0 1 2.359 0 1.18 1.18 0 0 1-2.359 0z" class="cls-1" transform="translate(14.188 5.684)"/>
        <path id="Symbol" d="M5.139 16.753l.506-.4v-1.637l-.506.4v-3.527l.506-.393V9.56l-.506.392V6.424l.979-.769 1.469-1.162 1.95-1.531v6.491a.955.955 0 0 1-.375.819.844.844 0 0 1 .375.63v5.917l-1.95 1.531-1.469 1.162-.979.769zm3.2-4.149l-.75.581-1.248.99v1.637l1.248-.991.865-.679c.269-.213.392-.352.392-.664v-.752c0-.164-.088-.248-.212-.248a.491.491 0 0 0-.297.122zm0-5.165l-.75.581-1.248.991v1.636l1.248-.99.865-.68c.269-.213.392-.351.392-.663v-.751c0-.164-.088-.249-.212-.249a.489.489 0 0 0-.297.126zM3.418 19.512L0 16.819v-3.528l.929-.909L0 11.655V8.127l2.912 2.292.506-.5.408-.409-.408-.32L0 6.49V2.962l3.418 2.694.971.769v3.527l-.914.909.914.728v3.528l-.971-.769-1.925-1.523-.922.909 2.847 2.25.971.769v3.528zM5.139 1.571l.979-.786L7.089 0v1.26l-.971.785-.285.23v1.318l.285-.229.971-.779v1.26l-.971.787-.979.785zM3.418 4.7l-.587-.483V2.954l.245.2V1.768l-.629-.508V0l.971.785.971.786v1.261l-.628-.507v1.391l.253.2V5.18z" class="cls-2"/>
    </g>
</svg>
