<svg xmlns="http://www.w3.org/2000/svg" width="42" height="42" viewBox="0 0 42 42">
  <defs>
    <style>
      .cls-1 {
        fill: #004378;
      }
    </style>
  </defs>
  <path id="API_Icon" class="cls-1" d="M-2928.879,1017.831a1.667,1.667,0,0,1,.853-1.457l.247-.141v-5.276l-.246-.142a1.664,1.664,0,0,1-.854-1.456,1.688,1.688,0,0,1,1.687-1.687,1.688,1.688,0,0,1,1.686,1.687,1.664,1.664,0,0,1-.854,1.456l-.246.142v5.276l.246.141a1.686,1.686,0,0,1,.854,1.457,1.688,1.688,0,0,1-1.686,1.687A1.689,1.689,0,0,1-2928.879,1017.831Zm12.518-3.814a1.634,1.634,0,0,1,.075-.464l.079-.274-10.853-11.092-7.681,7.854.082.276a1.641,1.641,0,0,1,.08.48,1.688,1.688,0,0,1-1.686,1.687,1.689,1.689,0,0,1-1.687-1.687,1.69,1.69,0,0,1,1.688-1.687,1.623,1.623,0,0,1,.411.059l.273.068,8.129-8.308a.53.53,0,0,1,.392-.168.533.533,0,0,1,.395.168l11.29,11.537.274-.073a1.682,1.682,0,0,1,.428-.063,1.689,1.689,0,0,1,1.686,1.687,1.689,1.689,0,0,1-1.686,1.688A1.689,1.689,0,0,1-2916.361,1014.017Zm-27.848-3.15a1.69,1.69,0,0,1,1.687-1.687,1.654,1.654,0,0,1,.464.076l.275.079,11.091-10.853-7.854-7.682-.276.083a1.671,1.671,0,0,1-.48.08,1.689,1.689,0,0,1-1.687-1.687,1.688,1.688,0,0,1,1.688-1.686,1.688,1.688,0,0,1,1.686,1.686,1.639,1.639,0,0,1-.058.413l-.069.273,8.309,8.129a.533.533,0,0,1,.167.393.536.536,0,0,1-.167.394l-11.537,11.289.072.275a1.653,1.653,0,0,1,.063.427,1.688,1.688,0,0,1-1.686,1.687A1.688,1.688,0,0,1-2944.209,1010.867Zm27.777-3.106a1.661,1.661,0,0,1,.058-.411l.069-.273-8.308-8.129a.536.536,0,0,1-.168-.393.539.539,0,0,1,.168-.394l11.535-11.289-.072-.275a1.655,1.655,0,0,1-.063-.427,1.69,1.69,0,0,1,1.687-1.687,1.689,1.689,0,0,1,1.688,1.687,1.69,1.69,0,0,1-1.688,1.687,1.64,1.64,0,0,1-.465-.076l-.275-.078-11.091,10.852,7.855,7.683.276-.083a1.668,1.668,0,0,1,.48-.081,1.689,1.689,0,0,1,1.687,1.687,1.688,1.688,0,0,1-1.687,1.687A1.689,1.689,0,0,1-2916.432,1007.762Zm7.1-8.411-.142-.246h-5.276l-.141.246a1.666,1.666,0,0,1-1.456.854,1.688,1.688,0,0,1-1.688-1.686,1.689,1.689,0,0,1,1.688-1.687,1.668,1.668,0,0,1,1.456.855l.141.246h5.276l.142-.246a1.689,1.689,0,0,1,1.457-.855,1.689,1.689,0,0,1,1.687,1.687,1.689,1.689,0,0,1-1.687,1.686A1.687,1.687,0,0,1-2909.336,999.351Zm-30.154,0-.141-.246h-5.276l-.142.246a1.665,1.665,0,0,1-1.457.854,1.688,1.688,0,0,1-1.687-1.686,1.688,1.688,0,0,1,1.687-1.687,1.666,1.666,0,0,1,1.457.854l.142.247h5.276l.141-.247a1.667,1.667,0,0,1,1.457-.854,1.689,1.689,0,0,1,1.687,1.687,1.688,1.688,0,0,1-1.687,1.686A1.666,1.666,0,0,1-2939.49,999.351Zm12.108-3.244-11.288-11.536-.276.073a1.674,1.674,0,0,1-.427.063,1.689,1.689,0,0,1-1.687-1.687,1.688,1.688,0,0,1,1.687-1.687,1.688,1.688,0,0,1,1.687,1.687,1.661,1.661,0,0,1-.074.465l-.08.273,10.853,11.092L-2919.3,987l-.083-.277a1.658,1.658,0,0,1-.079-.48,1.689,1.689,0,0,1,1.688-1.687,1.689,1.689,0,0,1,1.686,1.688,1.69,1.69,0,0,1-1.686,1.688,1.6,1.6,0,0,1-.41-.059l-.275-.07-8.131,8.308a.529.529,0,0,1-.391.169A.534.534,0,0,1-2927.381,996.107Zm-1.5-8.428a1.665,1.665,0,0,1,.853-1.458l.247-.141V980.8l-.247-.141a1.667,1.667,0,0,1-.853-1.458,1.689,1.689,0,0,1,1.687-1.686,1.688,1.688,0,0,1,1.686,1.686,1.666,1.666,0,0,1-.854,1.458l-.246.141v5.276l.246.141a1.666,1.666,0,0,1,.854,1.458,1.688,1.688,0,0,1-1.686,1.686A1.688,1.688,0,0,1-2928.879,987.679Z" transform="translate(2948.192 -977.519)"/>
</svg>
