<svg xmlns="http://www.w3.org/2000/svg" width="146.172" height="36.244" viewBox="0 0 146.172 36.244">
  <g id="Google_Play_Button" transform="translate(0 0.564)">
    <path id="Type" d="M46.493,21.723a5.155,5.155,0,0,1-4.784-3.206l2.082-.869a2.989,2.989,0,0,0,2.733,1.929c1.844,0,2.9-1.164,2.9-3.194V15.6h-.077a3.7,3.7,0,0,1-2.8,1.278h-.062a5.442,5.442,0,0,1,0-10.871,3.842,3.842,0,0,1,2.862,1.277h.09V6.393h2.2v9.671A5.843,5.843,0,0,1,50.129,20.4a5,5,0,0,1-3.6,1.325ZM46.7,8.207h0a3.309,3.309,0,0,0,0,6.591l-.008,0,.013,0a3.04,3.04,0,0,0,2.9-3.3,3.067,3.067,0,0,0-2.9-3.3Zm55.279,13.249H99.491l2.427-5.379L97.664,6.393h2.555l2.836,6.924h.077l2.733-6.924h2.658l-6.541,15.061Zm-39.77-4.522A5.314,5.314,0,0,1,56.9,11.5,5.111,5.111,0,0,1,62,6.074h.008a5.138,5.138,0,0,1,4.65,3.462l.269.575-7.269,3a2.76,2.76,0,0,0,2.526,1.65l.1,0H62.3a3.122,3.122,0,0,0,2.664-1.507l1.852,1.277a5.4,5.4,0,0,1-4.5,2.4h-.1Zm.014-8.756c-.047,0-.094,0-.141,0a2.975,2.975,0,0,0-2.836,3.168L64.1,9.332A2.1,2.1,0,0,0,62.226,8.178ZM34.86,16.933a5.43,5.43,0,0,1-.025-10.86h.1a5.318,5.318,0,0,1,3.776,1.559,5.463,5.463,0,0,1-3.845,9.3Zm-.254-8.718a3.3,3.3,0,1,0,0,6.592c.076,0,.154,0,.231-.008A3.141,3.141,0,0,0,37.9,11.5a3.3,3.3,0,0,0-3.295-3.289ZM22.958,16.933h0a5.43,5.43,0,0,1-.013-10.86h.089a5.324,5.324,0,0,1,3.777,1.559,5.463,5.463,0,0,1-3.849,9.3ZM22.7,8.217a3.3,3.3,0,0,0,0,6.592c.081,0,.163,0,.244-.009h-.013A3.143,3.143,0,0,0,26,11.5a3.3,3.3,0,0,0-3.3-3.287ZM9.121,16.89h0c-.115,0-.232,0-.347-.008s-.221.006-.331.006A8.444,8.444,0,0,1,8.443,0c.11,0,.221,0,.331.006h.072a8.081,8.081,0,0,1,5.715,2.388L12.938,4.017A5.848,5.848,0,0,0,8.857,2.368h-.1a6.132,6.132,0,0,0,0,12.265c.075,0,.15,0,.224,0a5.681,5.681,0,0,0,4.03-1.691,4.833,4.833,0,0,0,1.277-2.9H8.774v-2.3l7.755-.064a7.617,7.617,0,0,1,.128,1.444,7.63,7.63,0,0,1-1.994,5.391A7.7,7.7,0,0,1,9.121,16.89Zm82.649-.01a3.692,3.692,0,0,1-3.687-3.523c0-2.332,2.37-3.591,4.6-3.591H92.7a5.3,5.3,0,0,1,2.471.614v-.167a2.3,2.3,0,0,0-2.556-2.057c-.061,0-.122-.007-.183-.007a2.261,2.261,0,0,0-1.988,1.184l-2.12-.882A4.449,4.449,0,0,1,92.31,6c.089,0,.18,0,.269.008l.063.038c2.9,0,4.843,1.777,4.843,4.421v6.144h-2.3V15.336h-.077a3.346,3.346,0,0,1-2.824,1.541c-.08,0-.162,0-.242-.009S91.86,16.879,91.77,16.879Zm1.309-5.173h-.1c-1.235,0-2.555.446-2.555,1.7,0,.987,1.144,1.354,1.865,1.354l.064.038a2.9,2.9,0,0,0,2.8-2.555A4.25,4.25,0,0,0,93.078,11.706Zm-6.3,4.907H84.391V.645H86.78V16.613Zm-12.252,0H72.139V.645h5.724c.118-.009.239-.013.357-.013a4.969,4.969,0,0,1,4.242,7.556,5,5,0,0,1-4.242,2.383c-.119,0-.239,0-.357-.013H74.528v6.055ZM74.515,2.867V8.31H77.85l.051.038a2.74,2.74,0,1,0,0-5.481ZM55.735,16.614H53.347V.645h2.388V16.613Z" transform="translate(37.648 13.956)" fill="#004378"/>
    <path id="Google_Icon" d="M16.71,16.756l4.152,4.014L14.928,24.2,1.178,31.771ZM.015.617,15.926,16,0,31.393ZM17.495,16l4.76-4.6,5.787,3.34a1.091,1.091,0,0,1,0,1.89l-6.2,3.577ZM.946,0,14.9,7.153l6.369,3.677-4.562,4.41Z" transform="translate(0 0.9)" fill="#004378"/>
    <path id="Coming_Soon" d="M5.317-6.656a.115.115,0,0,1-.13.13L4.2-6.474a.115.115,0,0,1-.13-.13v-.338A1.2,1.2,0,0,0,3.764-7.8a1.047,1.047,0,0,0-.8-.325,1.026,1.026,0,0,0-.793.325,1.217,1.217,0,0,0-.3.858v4.784a1.217,1.217,0,0,0,.3.858,1.026,1.026,0,0,0,.793.325,1.047,1.047,0,0,0,.8-.325,1.2,1.2,0,0,0,.305-.858V-2.5a.115.115,0,0,1,.13-.13l.988.052a.115.115,0,0,1,.13.13v.195A2.387,2.387,0,0,1,4.817-.7,2.131,2.131,0,0,1,3.458.065Q3.393.091,3.432.13a1.644,1.644,0,0,1,.52,1.2,2.747,2.747,0,0,1-.026.3.94.94,0,0,1-.39.6,1.208,1.208,0,0,1-.663.182,1.7,1.7,0,0,1-.481-.065.135.135,0,0,1-.1-.156l.065-.416q.013-.117.156-.091a.547.547,0,0,0,.13.013.467.467,0,0,0,.345-.137.556.556,0,0,0,.136-.41A1.511,1.511,0,0,0,2.535.091Q2.522.065,2.47.065A2.122,2.122,0,0,1,1.125-.7a2.387,2.387,0,0,1-.5-1.553V-6.864a2.289,2.289,0,0,1,.644-1.7,2.307,2.307,0,0,1,1.7-.637,2.324,2.324,0,0,1,1.709.637,2.289,2.289,0,0,1,.643,1.7ZM8.866.1A2.32,2.32,0,0,1,7.15-.546,2.337,2.337,0,0,1,6.5-2.275V-6.812a2.359,2.359,0,0,1,.65-1.735A2.307,2.307,0,0,1,8.866-9.2a2.346,2.346,0,0,1,1.736.656,2.346,2.346,0,0,1,.656,1.735v4.537A2.324,2.324,0,0,1,10.6-.546,2.359,2.359,0,0,1,8.866.1Zm0-1.079A1.068,1.068,0,0,0,9.7-1.32a1.294,1.294,0,0,0,.312-.9V-6.877a1.294,1.294,0,0,0-.312-.9,1.068,1.068,0,0,0-.832-.344,1.033,1.033,0,0,0-.812.344,1.311,1.311,0,0,0-.306.9v4.654a1.311,1.311,0,0,0,.306.9A1.033,1.033,0,0,0,8.866-.975ZM12.818,0a.115.115,0,0,1-.13-.13V-8.97a.115.115,0,0,1,.13-.13h.988a.115.115,0,0,1,.13.13v3.9q0,.039.026.045T14-5.057l2.21-3.952a.189.189,0,0,1,.156-.091h1.066a.109.109,0,0,1,.1.046.106.106,0,0,1-.013.11l-2,3.614a.12.12,0,0,0,0,.078l2.171,5.1.013.052q0,.1-.117.1H16.51a.143.143,0,0,1-.143-.1L14.677-4.16q-.013-.065-.065-.013L13.949-3.12a.1.1,0,0,0-.013.065V-.13a.115.115,0,0,1-.13.13Zm10.1-.013a.115.115,0,0,1-.13-.13V-3.861l-.013-.065L20.969-8.957l-.013-.052q0-.091.117-.091h1.04a.152.152,0,0,1,.156.1l1.1,3.588a.042.042,0,0,0,.039.026.042.042,0,0,0,.039-.026L24.557-9a.152.152,0,0,1,.156-.1h1.04q.143,0,.1.143L24.05-3.926l-.013.065V-.143a.115.115,0,0,1-.13.13ZM29.9,0a.134.134,0,0,1-.143-.117l-.286-1.5a.044.044,0,0,0-.019-.039.08.08,0,0,0-.045-.013H27.287a.08.08,0,0,0-.046.013.044.044,0,0,0-.019.039l-.273,1.5A.124.124,0,0,1,26.806,0h-.988a.12.12,0,0,1-.1-.039.119.119,0,0,1-.019-.1l1.937-8.84a.134.134,0,0,1,.143-.117h1.157a.124.124,0,0,1,.143.117l1.95,8.84v.026A.1.1,0,0,1,30.914,0ZM27.443-2.7q0,.052.039.052h1.729q.039,0,.039-.052l-.884-4.615q-.013-.026-.026-.026t-.026.026ZM32.136,0a.115.115,0,0,1-.13-.13V-8.97a.115.115,0,0,1,.13-.13h.988a.115.115,0,0,1,.13.13v3.9q0,.039.026.045t.039-.032l2.21-3.952a.189.189,0,0,1,.156-.091h1.066a.109.109,0,0,1,.1.046.106.106,0,0,1-.013.11l-2,3.614a.12.12,0,0,0,0,.078l2.171,5.1.013.052q0,.1-.117.1H35.828a.143.143,0,0,1-.143-.1L34-4.16q-.013-.065-.065-.013L33.267-3.12a.1.1,0,0,0-.013.065V-.13a.115.115,0,0,1-.13.13Zm6.058,0a.115.115,0,0,1-.13-.13V-8.97a.115.115,0,0,1,.13-.13h.988a.115.115,0,0,1,.13.13V-.13a.115.115,0,0,1-.13.13Zm6.4-8.97a.115.115,0,0,1,.13-.13h.975a.115.115,0,0,1,.13.13V-.13a.115.115,0,0,1-.13.13H44.577a.143.143,0,0,1-.143-.1l-2.21-5.941a.032.032,0,0,0-.039-.019.031.031,0,0,0-.026.033l.013,5.9a.115.115,0,0,1-.13.13h-.988a.115.115,0,0,1-.13-.13V-8.97a.115.115,0,0,1,.13-.13h1.1A.143.143,0,0,1,42.3-9l2.223,5.941q.013.039.039.033t.026-.046ZM47.567,0a.115.115,0,0,1-.13-.13V-8.97a.115.115,0,0,1,.13-.13H49.7a2.268,2.268,0,0,1,1.716.663,2.481,2.481,0,0,1,.637,1.794v4.186a2.481,2.481,0,0,1-.637,1.794A2.268,2.268,0,0,1,49.7,0Zm1.118-1.131a.046.046,0,0,0,.052.052l.949-.013a.956.956,0,0,0,.793-.383,1.717,1.717,0,0,0,.312-1.046V-6.578a1.689,1.689,0,0,0-.3-1.053.963.963,0,0,0-.806-.39h-.949a.046.046,0,0,0-.052.052ZM56.823,0a.134.134,0,0,1-.143-.117l-.286-1.5a.044.044,0,0,0-.019-.039.08.08,0,0,0-.046-.013H54.21a.08.08,0,0,0-.046.013.044.044,0,0,0-.02.039l-.273,1.5A.124.124,0,0,1,53.729,0h-.988a.12.12,0,0,1-.1-.039.119.119,0,0,1-.02-.1l1.937-8.84A.134.134,0,0,1,54.7-9.1h1.157A.124.124,0,0,1,56-8.983l1.95,8.84v.026A.1.1,0,0,1,57.837,0ZM54.366-2.7q0,.052.039.052h1.729q.039,0,.039-.052l-.884-4.615q-.013-.026-.026-.026t-.026.026Z" transform="translate(37.351 8.64)" fill="#004378"/>
  </g>
</svg>
