<?xml version="1.0" encoding="utf-8"?>
<!-- Generator: Adobe Illustrator 22.0.0, SVG Export Plug-In . SVG Version: 6.00 Build 0)  -->
<svg version="1.1" id="Layer_1" xmlns="http://www.w3.org/2000/svg" xmlns:xlink="http://www.w3.org/1999/xlink" x="0px" y="0px"
	 viewBox="0 0 134.8 37.4" style="enable-background:new 0 0 134.8 37.4;" xml:space="preserve">
<style type="text/css">
	.st0{fill:#004378;}
	.st1{fill:#0A93EA;}
</style>
<g id="App_Store_Button" transform="translate(0)">
	<path id="App_Store" class="st0" d="M69.6,37.4h-2.4V22h2.3V24h0c0.7-1.3,2.1-2,3.6-2h0.1c3,0,4.9,2.3,4.9,5.9
		c0,3.6-1.9,5.9-4.8,5.9c-0.1,0-0.1,0-0.2,0c-1.4,0-2.7-0.8-3.4-2h-0.1V37.4L69.6,37.4z M72.6,23.9c-1.8,0-3,1.6-3,3.9
		s1.2,3.9,3,3.9c1.9,0,3.1-1.5,3.1-3.9S74.5,23.9,72.6,23.9L72.6,23.9z M56.9,37.4h-2.4V22h2.3V24h0c0.7-1.3,2.1-2,3.6-2h0.1
		c3,0,4.9,2.3,4.9,5.9c0,3.6-1.9,5.9-4.8,5.9c-0.1,0-0.1,0-0.2,0c-1.4,0-2.7-0.8-3.4-2h-0.1L56.9,37.4L56.9,37.4z M59.9,23.9
		c-1.8,0-3,1.6-3,3.9s1.2,3.9,3,3.9c1.9,0,3.1-1.5,3.1-3.9S61.8,23.9,59.9,23.9z M90.2,33.9c-3.5,0-5.9-1.8-6-4.7h2.4
		c0.2,1.6,1.7,2.6,3.8,2.6c2,0,3.4-1,3.4-2.5c0-1.2-0.9-2-2.9-2.5l-2.1-0.5c-2.9-0.7-4.3-2.1-4.3-4.3c0-2.7,2.4-4.6,5.8-4.6
		c3.3,0,5.6,1.9,5.7,4.6h-2.4c-0.1-1.6-1.4-2.5-3.4-2.5c-1.9,0-3.2,1-3.2,2.4c0,1.1,0.8,1.8,2.9,2.3l1.7,0.4
		c3.2,0.8,4.6,2.1,4.6,4.4C96.3,32,93.9,33.9,90.2,33.9L90.2,33.9z M129.7,33.8c-3.4,0-5.5-2.3-5.5-5.9s2.1-6,5.4-6
		c3.2,0,5.2,2.2,5.2,5.7v0.8h-8.2v0.1c-0.1,1.7,1.1,3.1,2.7,3.3c0.1,0,0.2,0,0.3,0h0.1c0.1,0,0.2,0,0.2,0c1.1,0,2-0.6,2.4-1.6h2.3
		C134.4,32.3,132.3,33.8,129.7,33.8L129.7,33.8z M129.6,23.8c-0.8,0-1.5,0.3-2.1,0.9c-0.6,0.6-0.9,1.3-0.9,2.1h5.8
		c0.1-1.5-1.1-2.8-2.6-2.9C129.8,23.8,129.7,23.8,129.6,23.8L129.6,23.8L129.6,23.8z M110.4,33.8c-3.4,0-5.5-2.3-5.5-5.9
		c-0.1-1.6,0.5-3.1,1.5-4.3c2.2-2.1,5.8-2.1,8,0c1,1.2,1.6,2.7,1.5,4.3C115.8,31.5,113.7,33.8,110.4,33.8z M110.4,23.9
		c-1.9,0-3.1,1.5-3.1,4s1.1,4,3.1,4s3.1-1.5,3.1-4S112.3,23.9,110.4,23.9L110.4,23.9z M102.4,33.7h-0.1c-2.3,0-3.3-0.9-3.3-3.1v-6.6
		h-1.7V22H99v-2.7h2.4V22h2.2v1.9h-2.2v6.4c0,1,0.4,1.5,1.4,1.5c0.3,0,0.5,0,0.8-0.1v1.9C103.2,33.6,102.8,33.7,102.4,33.7z
		 M41.5,33.6h-2.6l5.7-15.9h2.7L53,33.6h-2.6L49,29.3h-6L41.5,33.6L41.5,33.6z M45.9,20.4l-2.4,7h4.8L45.9,20.4L45.9,20.4z
		 M120.2,33.6h-2.4V22h2.3v2h0.1c0.3-1.2,1.4-2.1,2.7-2.1h0.1h0c0.3,0,0.5,0,0.8,0.1v2.2c-0.3-0.1-0.6-0.1-1-0.1h-0.1h-0.1
		c-1.3,0-2.4,1.1-2.4,2.4c0,0.1,0,0.2,0,0.3L120.2,33.6L120.2,33.6z"/>
	<path id="Apple_Icon" class="st1" d="M8.8,33.9c-2.2,0-4-2.5-5.2-4.3c-1.6-2.5-2.8-5.2-3.3-8.2c-0.4-2.4-0.6-5.9,1.1-8.9
		c1.4-2.5,4.1-4.1,7-4.2h0.1c1.2,0.1,2.3,0.4,3.4,0.9c0.7,0.3,1.4,0.5,2.1,0.6c0.7-0.1,1.4-0.3,2-0.6c1.2-0.6,2.6-0.9,3.9-1
		c0.2,0,0.4,0,0.5,0c2.5,0.1,4.8,1.3,6.2,3.4c-2.3,1.4-3.6,3.8-3.7,6.5c0,3,1.8,5.7,4.5,6.8c-0.5,1.7-1.3,3.3-2.4,4.8
		c-1.5,2.3-2.9,4.1-5.2,4.2h-0.1c-0.9,0-1.7-0.2-2.5-0.6c-0.9-0.5-1.9-0.7-3-0.7c-1.1,0-2.2,0.3-3.1,0.7c-0.8,0.4-1.6,0.6-2.4,0.6
		L8.8,33.9z M13.8,7.8L13.8,7.8c-0.2-1.9,0.4-3.8,1.7-5.2c1.3-1.5,3.1-2.4,5-2.6c0.2,2-0.5,3.9-1.7,5.4C17.6,6.9,15.7,7.8,13.8,7.8z
		"/>
	<path id="Coming_Soon" class="st0" d="M44.5,6.3c0,0.1,0,0.1-0.1,0.1c0,0,0,0,0,0l-1,0.1c-0.1,0-0.1,0-0.1-0.1c0,0,0,0,0,0V6
		c0-0.3-0.1-0.6-0.3-0.9c-0.2-0.2-0.5-0.3-0.8-0.3c-0.3,0-0.6,0.1-0.8,0.3C41.1,5.4,41,5.7,41,6v4.8c0,0.3,0.1,0.6,0.3,0.9
		c0.2,0.2,0.5,0.3,0.8,0.3c0.3,0,0.6-0.1,0.8-0.3c0.2-0.2,0.3-0.5,0.3-0.9v-0.3c0-0.1,0-0.1,0.1-0.1c0,0,0,0,0,0l1,0.1
		c0.1,0,0.1,0,0.1,0.1c0,0,0,0,0,0v0.2c0,0.6-0.2,1.1-0.5,1.6c-0.3,0.4-0.8,0.7-1.4,0.8c0,0-0.1,0,0,0.1c0.3,0.3,0.5,0.7,0.5,1.2
		c0,0.1,0,0.2,0,0.3c0,0.2-0.2,0.5-0.4,0.6c-0.2,0.1-0.4,0.2-0.7,0.2c-0.2,0-0.3,0-0.5-0.1c-0.1,0-0.1-0.1-0.1-0.2l0.1-0.4
		c0-0.1,0.1-0.1,0.2-0.1c0,0,0.1,0,0.1,0c0.1,0,0.3,0,0.3-0.1c0.1-0.1,0.1-0.3,0.1-0.4c0-0.4-0.3-0.8-0.6-1.1c0,0,0,0-0.1,0
		c-0.5-0.1-1-0.3-1.3-0.8c-0.3-0.4-0.5-1-0.5-1.6V6.1c0-0.6,0.2-1.2,0.6-1.7c0.5-0.4,1.1-0.7,1.7-0.6c0.6,0,1.2,0.2,1.7,0.6
		c0.4,0.5,0.7,1.1,0.6,1.7L44.5,6.3z M48,13c-0.6,0-1.3-0.2-1.7-0.6c-0.4-0.5-0.7-1.1-0.7-1.7V6.1c0-0.6,0.2-1.3,0.7-1.7
		C46.8,4,47.4,3.7,48,3.7c0.6,0,1.3,0.2,1.7,0.7c0.4,0.5,0.7,1.1,0.7,1.7v4.5c0,0.6-0.2,1.3-0.7,1.7C49.3,12.8,48.7,13.1,48,13z
		 M48,12c0.3,0,0.6-0.1,0.8-0.3c0.2-0.2,0.3-0.6,0.3-0.9V6.1c0-0.3-0.1-0.7-0.3-0.9c-0.2-0.2-0.5-0.4-0.8-0.3
		c-0.3,0-0.6,0.1-0.8,0.3c-0.2,0.3-0.3,0.6-0.3,0.9v4.7c0,0.3,0.1,0.6,0.3,0.9C47.4,11.9,47.7,12,48,12L48,12z M52,12.9
		c-0.1,0-0.1,0-0.1-0.1c0,0,0,0,0,0V4c0-0.1,0-0.1,0.1-0.1c0,0,0,0,0,0h1c0.1,0,0.1,0,0.1,0.1c0,0,0,0,0,0v3.9c0,0,0,0,0,0
		c0,0,0,0,0,0l2.2-4c0-0.1,0.1-0.1,0.2-0.1h1.1c0,0,0.1,0,0.1,0c0,0,0,0.1,0,0.1l-2,3.6c0,0,0,0.1,0,0.1l2.2,5.1l0,0.1
		c0,0.1,0,0.1-0.1,0.1h-1.1c-0.1,0-0.1,0-0.1-0.1l-1.7-4.1c0,0,0,0-0.1,0l-0.7,1.1c0,0,0,0,0,0.1v2.9c0,0.1,0,0.1-0.1,0.1
		c0,0,0,0,0,0H52z M62.1,12.9c-0.1,0-0.1,0-0.1-0.1c0,0,0,0,0,0V9.1L62,9l-1.8-5l0-0.1c0-0.1,0-0.1,0.1-0.1h1c0.1,0,0.1,0,0.2,0.1
		l1.1,3.6c0,0,0,0,0,0c0,0,0,0,0,0l1.1-3.6c0-0.1,0.1-0.1,0.2-0.1h1c0.1,0,0.1,0,0.1,0.1l-1.8,5l0,0.1v3.7c0,0.1,0,0.1-0.1,0.1
		c0,0,0,0,0,0L62.1,12.9z M69.1,12.9c-0.1,0-0.1,0-0.1-0.1l-0.3-1.5c0,0,0,0,0,0c0,0,0,0,0,0h-2.1c0,0,0,0,0,0c0,0,0,0,0,0l-0.3,1.5
		c0,0.1-0.1,0.1-0.1,0.1c0,0,0,0,0,0h-1c0,0-0.1,0-0.1,0c0,0,0-0.1,0-0.1L66.8,4c0-0.1,0.1-0.1,0.1-0.1h1.2c0.1,0,0.1,0,0.1,0.1
		c0,0,0,0,0,0l2,8.8v0c0,0.1,0,0.1-0.1,0.1c0,0,0,0,0,0H69.1z M66.6,10.2C66.6,10.3,66.6,10.3,66.6,10.2l1.8,0.1c0,0,0,0,0-0.1
		l-0.9-4.6c0,0,0,0,0,0c0,0,0,0,0,0L66.6,10.2z M71.3,12.9c-0.1,0-0.1,0-0.1-0.1c0,0,0,0,0,0V4c0-0.1,0-0.1,0.1-0.1c0,0,0,0,0,0h1
		c0.1,0,0.1,0,0.1,0.1c0,0,0,0,0,0v3.9c0,0,0,0,0,0c0,0,0,0,0,0l2.2-4c0-0.1,0.1-0.1,0.2-0.1h1.1c0,0,0.1,0,0.1,0c0,0,0,0.1,0,0.1
		l-2,3.6c0,0,0,0.1,0,0.1l2.2,5.1l0,0.1c0,0.1,0,0.1-0.1,0.1H75c-0.1,0-0.1,0-0.1-0.1l-1.7-4.1c0,0,0,0-0.1,0l-0.7,1.1
		c0,0,0,0,0,0.1v2.9c0,0.1,0,0.1-0.1,0.1c0,0,0,0,0,0H71.3z M77.4,12.9c-0.1,0-0.1,0-0.1-0.1c0,0,0,0,0,0V4c0-0.1,0-0.1,0.1-0.1
		c0,0,0,0,0,0h1c0.1,0,0.1,0,0.1,0.1c0,0,0,0,0,0v8.8c0,0.1,0,0.1-0.1,0.1c0,0,0,0,0,0H77.4z M83.8,4c0-0.1,0-0.1,0.1-0.1
		c0,0,0,0,0,0h1c0.1,0,0.1,0,0.1,0.1c0,0,0,0,0,0v8.8c0,0.1,0,0.1-0.1,0.1c0,0,0,0,0,0h-1.1c-0.1,0-0.1,0-0.1-0.1l-2.2-5.9
		c0,0,0,0,0,0c0,0,0,0,0,0l0,5.9c0,0.1,0,0.1-0.1,0.1c0,0,0,0,0,0h-1c-0.1,0-0.1,0-0.1-0.1c0,0,0,0,0,0V4c0-0.1,0-0.1,0.1-0.1
		c0,0,0,0,0,0h1.1c0.1,0,0.1,0,0.1,0.1l2.2,5.9c0,0,0,0,0,0s0,0,0,0L83.8,4z M86.7,12.9c-0.1,0-0.1,0-0.1-0.1c0,0,0,0,0,0V4
		c0-0.1,0-0.1,0.1-0.1c0,0,0,0,0,0h2.1c0.6,0,1.3,0.2,1.7,0.7C91,5,91.3,5.6,91.2,6.3v4.2c0,0.7-0.2,1.3-0.6,1.8
		c-0.5,0.5-1.1,0.7-1.7,0.7H86.7z M87.9,11.8C87.9,11.8,87.9,11.9,87.9,11.8C87.9,11.9,87.9,11.9,87.9,11.8l1,0
		c0.3,0,0.6-0.1,0.8-0.4c0.2-0.3,0.3-0.7,0.3-1V6.4c0-0.4-0.1-0.7-0.3-1.1c-0.2-0.3-0.5-0.4-0.8-0.4h-0.9c0,0,0,0-0.1,0c0,0,0,0,0,0
		L87.9,11.8z M96,12.9c-0.1,0-0.1,0-0.1-0.1l-0.3-1.5c0,0,0,0,0,0c0,0,0,0,0,0h-2.1c0,0,0,0,0,0c0,0,0,0,0,0l-0.3,1.5
		c0,0.1-0.1,0.1-0.1,0.1c0,0,0,0,0,0h-1c0,0-0.1,0-0.1,0c0,0,0-0.1,0-0.1L93.7,4c0-0.1,0.1-0.1,0.1-0.1H95c0.1,0,0.1,0,0.1,0.1
		c0,0,0,0,0,0l1.9,8.8v0c0,0.1,0,0.1-0.1,0.1c0,0,0,0,0,0H96z M93.5,10.2C93.5,10.3,93.6,10.3,93.5,10.2l1.8,0.1c0,0,0,0,0-0.1
		l-0.9-4.6c0,0,0,0,0,0s0,0,0,0L93.5,10.2z"/>
</g>
</svg>
