<svg xmlns="http://www.w3.org/2000/svg" width="146.172" height="40.04" viewBox="0 0 146.172 40.04">
  <g id="Google_Play_Button" transform="translate(0 4.36)">
    <path id="Type" d="M46.493,21.723a5.155,5.155,0,0,1-4.784-3.206l2.082-.869a2.989,2.989,0,0,0,2.733,1.929c1.844,0,2.9-1.164,2.9-3.194V15.6h-.077a3.7,3.7,0,0,1-2.8,1.278h-.062a5.442,5.442,0,0,1,0-10.871,3.842,3.842,0,0,1,2.862,1.277h.09V6.393h2.2v9.671A5.843,5.843,0,0,1,50.129,20.4a5,5,0,0,1-3.6,1.325ZM46.7,8.207h0a3.309,3.309,0,0,0,0,6.591l-.008,0,.013,0a3.04,3.04,0,0,0,2.9-3.3,3.067,3.067,0,0,0-2.9-3.3Zm55.279,13.249H99.491l2.427-5.379L97.664,6.393h2.555l2.836,6.924h.077l2.733-6.924h2.658l-6.541,15.061Zm-39.77-4.522A5.314,5.314,0,0,1,56.9,11.5,5.111,5.111,0,0,1,62,6.074h.008a5.138,5.138,0,0,1,4.65,3.462l.269.575-7.269,3a2.76,2.76,0,0,0,2.526,1.65l.1,0H62.3a3.122,3.122,0,0,0,2.664-1.507l1.852,1.277a5.4,5.4,0,0,1-4.5,2.4h-.1Zm.014-8.756c-.047,0-.094,0-.141,0a2.975,2.975,0,0,0-2.836,3.168L64.1,9.332A2.1,2.1,0,0,0,62.226,8.178ZM34.86,16.933a5.43,5.43,0,0,1-.025-10.86h.1a5.318,5.318,0,0,1,3.776,1.559,5.463,5.463,0,0,1-3.845,9.3Zm-.254-8.718a3.3,3.3,0,1,0,0,6.592c.076,0,.154,0,.231-.008A3.141,3.141,0,0,0,37.9,11.5a3.3,3.3,0,0,0-3.295-3.289ZM22.958,16.933h0a5.43,5.43,0,0,1-.013-10.86h.089a5.324,5.324,0,0,1,3.777,1.559,5.463,5.463,0,0,1-3.849,9.3ZM22.7,8.217a3.3,3.3,0,0,0,0,6.592c.081,0,.163,0,.244-.009h-.013A3.143,3.143,0,0,0,26,11.5a3.3,3.3,0,0,0-3.3-3.287ZM9.121,16.89h0c-.115,0-.232,0-.347-.008s-.221.006-.331.006A8.444,8.444,0,0,1,8.443,0c.11,0,.221,0,.331.006h.072a8.081,8.081,0,0,1,5.715,2.388L12.938,4.017A5.848,5.848,0,0,0,8.857,2.368h-.1a6.132,6.132,0,0,0,0,12.265c.075,0,.15,0,.224,0a5.681,5.681,0,0,0,4.03-1.691,4.833,4.833,0,0,0,1.277-2.9H8.774v-2.3l7.755-.064a7.617,7.617,0,0,1,.128,1.444,7.63,7.63,0,0,1-1.994,5.391A7.7,7.7,0,0,1,9.121,16.89Zm82.649-.01a3.692,3.692,0,0,1-3.687-3.523c0-2.332,2.37-3.591,4.6-3.591H92.7a5.3,5.3,0,0,1,2.471.614v-.167a2.3,2.3,0,0,0-2.556-2.057c-.061,0-.122-.007-.183-.007a2.261,2.261,0,0,0-1.988,1.184l-2.12-.882A4.449,4.449,0,0,1,92.31,6c.089,0,.18,0,.269.008l.063.038c2.9,0,4.843,1.777,4.843,4.421v6.144h-2.3V15.336h-.077a3.346,3.346,0,0,1-2.824,1.541c-.08,0-.162,0-.242-.009S91.86,16.879,91.77,16.879Zm1.309-5.173h-.1c-1.235,0-2.555.446-2.555,1.7,0,.987,1.144,1.354,1.865,1.354l.064.038a2.9,2.9,0,0,0,2.8-2.555A4.25,4.25,0,0,0,93.078,11.706Zm-6.3,4.907H84.391V.645H86.78V16.613Zm-12.252,0H72.139V.645h5.724c.118-.009.239-.013.357-.013a4.969,4.969,0,0,1,4.242,7.556,5,5,0,0,1-4.242,2.383c-.119,0-.239,0-.357-.013H74.528v6.055ZM74.515,2.867V8.31H77.85l.051.038a2.74,2.74,0,1,0,0-5.481ZM55.735,16.614H53.347V.645h2.388V16.613Z" transform="translate(37.648 13.956)" fill="#004378"/>
    <path id="Google_Icon" d="M16.71,16.756l4.152,4.014L14.928,24.2,1.178,31.771ZM.015.617,15.926,16,0,31.393ZM17.495,16l4.76-4.6,5.787,3.34a1.091,1.091,0,0,1,0,1.89l-6.2,3.577ZM.946,0,14.9,7.153l6.369,3.677-4.562,4.41Z" transform="translate(0 0.9)" fill="#098cdf"/>
    <text id="Coming_Soon" transform="translate(37.351 8.64)" fill="#004378" font-size="13" font-family="BarlowCondensed-Medium, Barlow" font-weight="500"><tspan x="0" y="0">ÇOK YAKINDA</tspan></text>
  </g>
</svg>
