<?xml version="1.0" encoding="utf-8"?>
<!-- Generator: Adobe Illustrator 22.0.0, SVG Export Plug-In . SVG Version: 6.00 Build 0)  -->
<svg version="1.1" id="Layer_1" xmlns="http://www.w3.org/2000/svg" xmlns:xlink="http://www.w3.org/1999/xlink" x="0px" y="0px"
	 viewBox="0 0 146.2 36.2" style="enable-background:new 0 0 146.2 36.2;" xml:space="preserve">
<style type="text/css">
	.st0{fill:#004378;}
	.st1{fill:#0A93EA;}
</style>
<g id="Google_Play_Button" transform="translate(0 0.564)">
	<path id="Type" class="st0" d="M84.1,35.7c-2.1,0-4-1.3-4.8-3.2l2.1-0.9c0.4,1.1,1.5,1.9,2.7,1.9c1.8,0,2.9-1.2,2.9-3.2v-0.8H87
		c-0.7,0.8-1.7,1.3-2.8,1.3h-0.1c-3-0.1-5.3-2.7-5.2-5.7c0.1-2.8,2.4-5,5.2-5.2c1.1,0,2.1,0.5,2.9,1.3h0.1v-0.9h2.2V30
		c0.1,1.6-0.4,3.2-1.5,4.3C86.8,35.3,85.5,35.7,84.1,35.7L84.1,35.7z M84.3,22.2L84.3,22.2c-1.8,0.2-3.2,1.8-3,3.6
		c0.1,1.6,1.4,2.9,3,3h0h0c1.7-0.1,3-1.5,2.9-3.2c0,0,0-0.1,0-0.1C87.4,23.8,86.1,22.3,84.3,22.2C84.4,22.2,84.4,22.2,84.3,22.2
		L84.3,22.2z M139.6,35.4h-2.5l2.4-5.4l-4.3-9.7h2.6l2.8,6.9h0.1l2.7-6.9h2.7L139.6,35.4L139.6,35.4z M99.9,30.9
		c-2.9,0-5.3-2.4-5.3-5.3c0,0,0-0.1,0-0.1c-0.2-2.8,2-5.2,4.8-5.4c0.1,0,0.2,0,0.3,0h0c2.1,0.1,4,1.5,4.7,3.5l0.3,0.6l-7.3,3
		c0.4,1,1.4,1.6,2.5,1.6h0.1h0c1.1,0,2.1-0.6,2.7-1.5l1.9,1.3c-1,1.5-2.7,2.4-4.5,2.4L99.9,30.9L99.9,30.9z M99.9,22.1
		c0,0-0.1,0-0.1,0c-1.6,0.1-2.9,1.5-2.8,3.1c0,0,0,0,0,0.1l4.9-2C101.4,22.6,100.7,22.1,99.9,22.1L99.9,22.1z M72.5,30.9
		c-3,0-5.4-2.4-5.4-5.4s2.4-5.4,5.4-5.4h0.1c1.4,0,2.8,0.6,3.8,1.6c2.1,2.1,2.1,5.6-0.1,7.7C75.3,30.3,73.9,30.9,72.5,30.9
		L72.5,30.9z M72.3,22.2c-1.8-0.1-3.4,1.3-3.5,3.1c-0.1,1.8,1.3,3.4,3.1,3.5c0.1,0,0.2,0,0.3,0c0.1,0,0.2,0,0.2,0
		c1.7,0,3.1-1.5,3.1-3.2c0,0,0-0.1,0-0.1C75.5,23.6,74.1,22.2,72.3,22.2L72.3,22.2z M60.6,30.9L60.6,30.9c-3,0-5.4-2.4-5.4-5.4
		s2.4-5.4,5.4-5.4h0.1c1.4,0,2.8,0.6,3.8,1.6c2.1,2.1,2.1,5.6-0.1,7.7C63.4,30.3,62,30.9,60.6,30.9L60.6,30.9z M60.3,22.2
		c-1.8,0.1-3.2,1.6-3.1,3.5c0.1,1.7,1.4,3.1,3.1,3.1c0.1,0,0.2,0,0.2,0h0c1.7,0,3.1-1.5,3.1-3.2c0,0,0-0.1,0-0.1
		C63.6,23.6,62.2,22.2,60.3,22.2L60.3,22.2z M46.8,30.8L46.8,30.8c-0.1,0-0.2,0-0.3,0c-0.1,0-0.2,0-0.3,0c-4.7,0-8.4-3.8-8.4-8.4
		s3.8-8.4,8.4-8.4c0.1,0,0.2,0,0.3,0h0.1c2.1,0,4.2,0.9,5.7,2.4L50.6,18c-1.1-1.1-2.6-1.7-4.1-1.6h-0.1c-3.4,0-6.1,2.7-6.1,6.1
		s2.7,6.1,6.1,6.1c0.1,0,0.2,0,0.2,0c1.5,0,3-0.6,4-1.7c0.7-0.8,1.2-1.8,1.3-2.9h-5.5v-2.3l7.8-0.1c0.1,0.5,0.1,1,0.1,1.4
		c0.1,2-0.7,3.9-2,5.4C50.9,30,48.9,30.8,46.8,30.8z M129.4,30.8c-2,0-3.6-1.6-3.7-3.5c0-2.3,2.4-3.6,4.6-3.6h0
		c0.9,0,1.7,0.2,2.5,0.6v-0.2c-0.1-1.3-1.3-2.2-2.5-2.1c0,0,0,0,0,0c-0.1,0-0.1,0-0.2,0c-0.8,0-1.6,0.5-2,1.2l-2.1-0.9
		c0.8-1.5,2.3-2.5,4-2.5c0.1,0,0.2,0,0.3,0l0.1,0c2.9,0,4.8,1.8,4.8,4.4v6.1h-2.3v-1.3h-0.1c-0.6,1-1.7,1.5-2.8,1.5
		c-0.1,0-0.2,0-0.2,0C129.6,30.8,129.5,30.8,129.4,30.8L129.4,30.8z M130.7,25.7h-0.1c-1.2,0-2.6,0.4-2.6,1.7c0,1,1.1,1.4,1.9,1.4
		l0.1,0c1.4,0,2.6-1.1,2.8-2.6C132.2,25.8,131.5,25.7,130.7,25.7L130.7,25.7z M124.4,30.6H122v-16h2.4L124.4,30.6L124.4,30.6z
		 M112.2,30.6h-2.4v-16h5.7c0.1,0,0.2,0,0.4,0c2.7,0,5,2.2,5,5c0,0.9-0.3,1.8-0.7,2.6c-0.9,1.5-2.5,2.4-4.2,2.4c-0.1,0-0.2,0-0.4,0
		h-3.3L112.2,30.6L112.2,30.6z M112.2,16.8v5.4h3.3l0.1,0c1.5,0,2.7-1.2,2.7-2.7s-1.2-2.7-2.7-2.7L112.2,16.8z M93.4,30.6H91v-16
		h2.4V30.6L93.4,30.6z"/>
	<path id="Google_Icon" class="st1" d="M16.7,17.7l4.2,4l-5.9,3.4L1.2,32.7L16.7,17.7z M0,1.5l15.9,15.4L0,32.3L0,1.5z M17.5,16.9
		l4.8-4.6l5.8,3.3c0.5,0.3,0.7,1,0.4,1.5c-0.1,0.2-0.2,0.3-0.4,0.4l-6.2,3.6L17.5,16.9z M0.9,0.9l14,7.2l6.4,3.7l-4.6,4.4L0.9,0.9z"
		/>
	<path id="Coming_Soon" class="st0" d="M42.7,2c0,0.1,0,0.1-0.1,0.1c0,0,0,0,0,0l-1,0.1c-0.1,0-0.1,0-0.1-0.1c0,0,0,0,0,0V1.7
		c0-0.3-0.1-0.6-0.3-0.9c-0.2-0.2-0.5-0.3-0.8-0.3c-0.3,0-0.6,0.1-0.8,0.3c-0.2,0.2-0.3,0.5-0.3,0.9v4.8c0,0.3,0.1,0.6,0.3,0.9
		c0.2,0.2,0.5,0.3,0.8,0.3c0.3,0,0.6-0.1,0.8-0.3c0.2-0.2,0.3-0.5,0.3-0.9V6.1c0-0.1,0-0.1,0.1-0.1c0,0,0,0,0,0l1,0.1
		c0.1,0,0.1,0,0.1,0.1c0,0,0,0,0,0v0.2c0,0.6-0.2,1.1-0.5,1.6c-0.3,0.4-0.8,0.7-1.4,0.8c0,0-0.1,0,0,0.1c0.3,0.3,0.5,0.7,0.5,1.2
		c0,0.1,0,0.2,0,0.3c0,0.2-0.2,0.5-0.4,0.6c-0.2,0.1-0.4,0.2-0.7,0.2c-0.2,0-0.3,0-0.5-0.1c-0.1,0-0.1-0.1-0.1-0.2l0.1-0.4
		c0-0.1,0.1-0.1,0.2-0.1c0,0,0.1,0,0.1,0c0.1,0,0.3,0,0.3-0.1c0.1-0.1,0.1-0.3,0.1-0.4c0-0.4-0.3-0.8-0.6-1.1c0,0,0,0-0.1,0
		c-0.5-0.1-1-0.3-1.3-0.8c-0.3-0.4-0.5-1-0.5-1.6V1.8c0-0.6,0.2-1.2,0.6-1.7c0.5-0.4,1.1-0.7,1.7-0.6c0.6,0,1.2,0.2,1.7,0.6
		c0.4,0.5,0.7,1.1,0.6,1.7L42.7,2z M46.2,8.7c-0.6,0-1.3-0.2-1.7-0.6c-0.4-0.5-0.7-1.1-0.7-1.7V1.8c0-0.6,0.2-1.3,0.7-1.7
		c0.5-0.4,1.1-0.7,1.7-0.7c0.6,0,1.3,0.2,1.7,0.7c0.4,0.5,0.7,1.1,0.7,1.7v4.5c0,0.6-0.2,1.3-0.7,1.7C47.5,8.5,46.9,8.8,46.2,8.7z
		 M46.2,7.7c0.3,0,0.6-0.1,0.8-0.3c0.2-0.2,0.3-0.6,0.3-0.9V1.8c0-0.3-0.1-0.7-0.3-0.9c-0.2-0.2-0.5-0.4-0.8-0.3
		c-0.3,0-0.6,0.1-0.8,0.3c-0.2,0.3-0.3,0.6-0.3,0.9v4.7c0,0.3,0.1,0.6,0.3,0.9C45.6,7.5,45.9,7.7,46.2,7.7L46.2,7.7z M50.2,8.6
		c-0.1,0-0.1,0-0.1-0.1c0,0,0,0,0,0v-8.8c0-0.1,0-0.1,0.1-0.1c0,0,0,0,0,0h1c0.1,0,0.1,0,0.1,0.1c0,0,0,0,0,0v3.9c0,0,0,0,0,0
		c0,0,0,0,0,0l2.2-4c0-0.1,0.1-0.1,0.2-0.1h1.1c0,0,0.1,0,0.1,0c0,0,0,0.1,0,0.1l-2,3.6c0,0,0,0.1,0,0.1L55,8.5l0,0.1
		c0,0.1,0,0.1-0.1,0.1h-1.1c-0.1,0-0.1,0-0.1-0.1L52,4.5c0,0,0,0-0.1,0l-0.7,1.1c0,0,0,0,0,0.1v2.9c0,0.1,0,0.1-0.1,0.1c0,0,0,0,0,0
		H50.2z M60.3,8.6c-0.1,0-0.1,0-0.1-0.1c0,0,0,0,0,0V4.8l0-0.1l-1.8-5l0-0.1c0-0.1,0-0.1,0.1-0.1h1c0.1,0,0.1,0,0.2,0.1l1.1,3.6
		c0,0,0,0,0,0c0,0,0,0,0,0l1.1-3.6c0-0.1,0.1-0.1,0.2-0.1h1c0.1,0,0.1,0,0.1,0.1l-1.8,5l0,0.1v3.7c0,0.1,0,0.1-0.1,0.1c0,0,0,0,0,0
		H60.3z M67.3,8.6c-0.1,0-0.1,0-0.1-0.1L66.8,7c0,0,0,0,0,0c0,0,0,0,0,0h-2.1c0,0,0,0,0,0c0,0,0,0,0,0l-0.3,1.5
		c0,0.1-0.1,0.1-0.1,0.1c0,0,0,0,0,0h-1c0,0-0.1,0-0.1,0c0,0,0-0.1,0-0.1L65-0.3c0-0.1,0.1-0.1,0.1-0.1h1.2c0.1,0,0.1,0,0.1,0.1
		c0,0,0,0,0,0l2,8.8v0c0,0.1,0,0.1-0.1,0.1c0,0,0,0,0,0H67.3z M64.8,5.9C64.8,6,64.8,6,64.8,5.9L66.6,6c0,0,0,0,0-0.1l-0.9-4.6
		c0,0,0,0,0,0s0,0,0,0L64.8,5.9z M69.5,8.6c-0.1,0-0.1,0-0.1-0.1c0,0,0,0,0,0v-8.8c0-0.1,0-0.1,0.1-0.1c0,0,0,0,0,0h1
		c0.1,0,0.1,0,0.1,0.1c0,0,0,0,0,0v3.9c0,0,0,0,0,0c0,0,0,0,0,0l2.2-4c0-0.1,0.1-0.1,0.2-0.1h1.1c0,0,0.1,0,0.1,0c0,0,0,0.1,0,0.1
		l-2,3.6c0,0,0,0.1,0,0.1l2.2,5.1l0,0.1c0,0.1,0,0.1-0.1,0.1h-1.1c-0.1,0-0.1,0-0.1-0.1l-1.7-4.1c0,0,0,0-0.1,0l-0.7,1.1
		c0,0,0,0,0,0.1v2.9c0,0.1,0,0.1-0.1,0.1c0,0,0,0,0,0H69.5z M75.5,8.6c-0.1,0-0.1,0-0.1-0.1c0,0,0,0,0,0v-8.8c0-0.1,0-0.1,0.1-0.1
		c0,0,0,0,0,0h1c0.1,0,0.1,0,0.1,0.1c0,0,0,0,0,0v8.8c0,0.1,0,0.1-0.1,0.1c0,0,0,0,0,0H75.5z M81.9-0.3c0-0.1,0-0.1,0.1-0.1
		c0,0,0,0,0,0h1c0.1,0,0.1,0,0.1,0.1c0,0,0,0,0,0v8.8c0,0.1,0,0.1-0.1,0.1c0,0,0,0,0,0h-1.1c-0.1,0-0.1,0-0.1-0.1l-2.2-5.9
		c0,0,0,0,0,0c0,0,0,0,0,0l0,5.9c0,0.1,0,0.1-0.1,0.1c0,0,0,0,0,0h-1c-0.1,0-0.1,0-0.1-0.1c0,0,0,0,0,0v-8.8c0-0.1,0-0.1,0.1-0.1
		c0,0,0,0,0,0h1.1c0.1,0,0.1,0,0.1,0.1l2.2,5.9c0,0,0,0,0,0c0,0,0,0,0,0L81.9-0.3z M84.9,8.6c-0.1,0-0.1,0-0.1-0.1c0,0,0,0,0,0v-8.8
		c0-0.1,0-0.1,0.1-0.1c0,0,0,0,0,0h2.1c0.6,0,1.3,0.2,1.7,0.7c0.4,0.5,0.7,1.1,0.6,1.8v4.2c0,0.7-0.2,1.3-0.6,1.8
		c-0.5,0.5-1.1,0.7-1.7,0.7H84.9z M86,7.5C86,7.5,86,7.6,86,7.5C86.1,7.6,86.1,7.6,86,7.5l1,0c0.3,0,0.6-0.1,0.8-0.4
		c0.2-0.3,0.3-0.7,0.3-1V2.1c0-0.4-0.1-0.7-0.3-1.1c-0.2-0.3-0.5-0.4-0.8-0.4h-0.9c0,0,0,0-0.1,0c0,0,0,0,0,0L86,7.5z M94.2,8.6
		c-0.1,0-0.1,0-0.1-0.1L93.7,7c0,0,0,0,0,0c0,0,0,0,0,0h-2.1c0,0,0,0,0,0c0,0,0,0,0,0l-0.3,1.5c0,0.1-0.1,0.1-0.1,0.1c0,0,0,0,0,0
		h-1c0,0-0.1,0-0.1,0c0,0,0-0.1,0-0.1l1.9-8.8c0-0.1,0.1-0.1,0.1-0.1h1.2c0.1,0,0.1,0,0.1,0.1c0,0,0,0,0,0l2,8.8v0
		c0,0.1,0,0.1-0.1,0.1c0,0,0,0,0,0H94.2z M91.7,5.9C91.7,6,91.7,6,91.7,5.9L93.5,6c0,0,0,0,0-0.1l-0.9-4.6c0,0,0,0,0,0s0,0,0,0
		L91.7,5.9z"/>
</g>
</svg>
