<svg xmlns="http://www.w3.org/2000/svg" width="25" height="25" viewBox="0 0 25 25">
  <g id="Link_Whitepaper" transform="translate(-2481 -4513)">
    <circle id="Circle_Background" cx="12.5" cy="12.5" r="12.5" transform="translate(2481 4513)" fill="#098cdf"/>
    <g id="Icon_Whitepaper" transform="translate(2481 4515)">
      <path id="Path" d="M1,0H5V4H9v7a1,1,0,0,1-1,1H1a1,1,0,0,1-1-1V1A1,1,0,0,1,1,0Z" transform="translate(8 4)" fill="#fff"/>
      <path id="Path-2" data-name="Path" d="M0,0,3,3H0Z" transform="translate(14 4)" fill="#fff"/>
      <line id="Path-3" data-name="Path" x2="6" transform="translate(9.5 12.5)" fill="none" stroke="#098cdf" stroke-width="1"/>
      <line id="Path-4" data-name="Path" x2="6" transform="translate(9.5 10.5)" fill="none" stroke="#098cdf" stroke-width="1"/>
      <line id="Path-5" data-name="Path" x2="2" transform="translate(9.5 8.5)" fill="none" stroke="#098cdf" stroke-width="1"/>
      <line id="Path-6" data-name="Path" x2="2" transform="translate(9.5 6.5)" fill="none" stroke="#098cdf" stroke-width="1"/>
    </g>
  </g>
</svg>
