<svg xmlns="http://www.w3.org/2000/svg" width="25" height="25" viewBox="0 0 25 25">
  <g id="Link_Linkedin" transform="translate(-2481 -4513)">
    <circle id="Circle_Background" cx="12.5" cy="12.5" r="12.5" transform="translate(2481 4513)" fill="#098cdf"/>
    <path id="Linkedin_Logo" d="M3.8,11s.031-6.726,0-7.423H6.159V4.628A2.333,2.333,0,0,1,8.286,3.4C9.836,3.4,11,4.463,11,6.744V11H8.642V7.028c0-1-.342-1.677-1.195-1.677a1.3,1.3,0,0,0-1.21.9,1.737,1.737,0,0,0-.079.6V11ZM.138,11V3.577H2.5V11ZM1.3,2.565A1.247,1.247,0,0,1,0,1.282,1.255,1.255,0,0,1,1.333,0a1.253,1.253,0,0,1,1.32,1.282A1.257,1.257,0,0,1,1.318,2.565Z" transform="translate(2488 4520)" fill="#fff"/>
  </g>
</svg>
