<svg id="Usdt_Icon" xmlns="http://www.w3.org/2000/svg" width="35.054" height="35.054" viewBox="0 0 35.054 35.054">
  <circle id="Ellipse" cx="17.527" cy="17.527" r="17.527" transform="translate(0 0)" fill="#06518c" opacity="0"/>
  <path id="Path_8" data-name="Path 8" d="M404.027,496.993v-2.24h5.09V491.34h-13.86v3.413h5.09v2.238c-4.137.191-7.247,1.016-7.247,2s3.112,1.812,7.247,2v7.176h3.681V501c4.129-.192,7.234-1.016,7.234-2s-3.1-1.811-7.234-2m0,3.4h0c-.1.007-.637.039-1.825.039-.95,0-1.618-.027-1.853-.04h0c-3.655-.163-6.383-.8-6.383-1.57s2.728-1.406,6.383-1.569v2.5c.239.017.924.057,1.869.057,1.135,0,1.706-.048,1.81-.057v-2.5c3.648.164,6.37.8,6.37,1.569s-2.723,1.4-6.37,1.569" transform="translate(-384.6 -482.007)" fill="#fff"/>
</svg>
