<svg xmlns="http://www.w3.org/2000/svg" width="35.055" height="35.055" viewBox="0 0 35.055 35.055">
  <g id="Try_Icon" transform="translate(0)">
    <circle id="Ellipse" cx="17.527" cy="17.527" r="17.527" fill="#06518c" opacity="0"/>
    <path id="Try_Icon-2" data-name="Try_Icon" d="M332.019,137.849a12.245,12.245,0,0,1-.986,4.938,9,9,0,0,1-2.676,3.588,5.852,5.852,0,0,1-3.683,1.322H323a.287.287,0,0,1-.24-.126.524.524,0,0,1-.094-.322V138.7l-2.243.923a.241.241,0,0,1-.094.014.294.294,0,0,1-.2-.084.5.5,0,0,1-.136-.364V137.4a.432.432,0,0,1,.24-.434l2.431-.993v-1.3l-2.243.923a.241.241,0,0,1-.094.014.294.294,0,0,1-.2-.084.5.5,0,0,1-.136-.364v-1.791a.432.432,0,0,1,.24-.434l2.431-.993v-3.5a.524.524,0,0,1,.094-.322A.287.287,0,0,1,323,128h1.669a.287.287,0,0,1,.24.126.524.524,0,0,1,.094.322v2.532l3.912-1.623a.242.242,0,0,1,.292.07.5.5,0,0,1,.136.364v1.791a.432.432,0,0,1-.24.434l-4.1,1.693v1.3l3.912-1.623a.242.242,0,0,1,.292.07.5.5,0,0,1,.136.364v1.791a.432.432,0,0,1-.24.434l-4.1,1.693v6.813a4.51,4.51,0,0,0,3.318-2.112,7.777,7.777,0,0,0,1.356-4.589.524.524,0,0,1,.094-.322.287.287,0,0,1,.24-.126h1.669a.287.287,0,0,1,.24.126A.524.524,0,0,1,332.019,137.849Z" transform="translate(-308.486 -120.547)" fill="#fff"/>
  </g>
</svg>
