<svg id="Currency_Icon_Hot" xmlns="http://www.w3.org/2000/svg" width="35.05" height="35.05" viewBox="0 0 35.05 35.05">
  <circle id="Bg" cx="17.525" cy="17.525" r="17.525" fill="#b748ff" opacity="0"/>
  <path id="holo" d="M19.668,12.773a6.288,6.288,0,0,1-2.21-.4,7.156,7.156,0,0,1-1.017-.486,4.234,4.234,0,0,1-.884-.663A5.493,5.493,0,0,1,14.276,9.5a4.69,4.69,0,0,1-.309-.84h1.68l1.017-2.3H13.922a5.2,5.2,0,0,1,.309-.884,6.039,6.039,0,0,1,1.282-1.723,4.191,4.191,0,0,1,.884-.663,7.156,7.156,0,0,1,1.017-.486,6.374,6.374,0,0,1,2.254-.4h.354L20.95.133A11.6,11.6,0,0,0,19.712.044a8.494,8.494,0,0,0-2.961.486,7.7,7.7,0,0,0-1.37.619,12.642,12.642,0,0,0-1.282.84,6.892,6.892,0,0,0-1.149,1.1,6.759,6.759,0,0,0-.84,1.326,6.089,6.089,0,0,0-.531,1.5V6.1l-.044.177v.044H9.547V6.189L9.5,6.012V5.834a8.608,8.608,0,0,0-.531-1.5,6.753,6.753,0,0,0-.84-1.325,6.53,6.53,0,0,0-1.1-1.1,8.045,8.045,0,0,0-1.282-.84A9.285,9.285,0,0,0,4.375.442,11.431,11.431,0,0,0,1.237,0,10.977,10.977,0,0,0,.044.088L.972,2.21h.265a6.288,6.288,0,0,1,2.21.4,4.281,4.281,0,0,1,1.017.486,4.234,4.234,0,0,1,.884.663A5.493,5.493,0,0,1,6.629,5.48a3.833,3.833,0,0,1,.309.928H5.215L4.2,8.706h2.7l-.265.8a6.039,6.039,0,0,1-1.282,1.723,4.191,4.191,0,0,1-.884.663,7.156,7.156,0,0,1-1.017.486,6.31,6.31,0,0,1-2.21.4H.884L0,14.807a11.6,11.6,0,0,0,1.237.088A8.494,8.494,0,0,0,4.2,14.409a7.7,7.7,0,0,0,1.37-.619,12.736,12.736,0,0,0,1.282-.84,8.759,8.759,0,0,0,1.1-1.1,6.784,6.784,0,0,0,.84-1.326,6.089,6.089,0,0,0,.531-1.5V8.84l.044-.177H11.4l.044.177v.177a8.608,8.608,0,0,0,.531,1.5,6.784,6.784,0,0,0,.84,1.326,6.53,6.53,0,0,0,1.1,1.1,8.007,8.007,0,0,0,1.282.84,9.366,9.366,0,0,0,1.37.619,9.668,9.668,0,0,0,2.961.486,10.993,10.993,0,0,0,1.194-.088L19.8,12.685c.043.088-.046.088-.134.088Z" transform="translate(7.051 10.25)" fill="#fff"/>
</svg>
