<svg id="Xrp_Icon" xmlns="http://www.w3.org/2000/svg" width="35.055" height="35.055" viewBox="0 0 35.055 35.055">
  <circle id="Path" cx="17.527" cy="17.527" r="17.527" fill="#0080be" opacity="0"/>
  <path id="Symbol" d="M0,17.351c.238-.247.487-.482.723-.73.487-.455.936-.943,1.423-1.4,1.241-1.246,2.5-2.474,3.744-3.716.25-.234.482-.489.74-.714A5.887,5.887,0,0,1,9.358,9.453a7.966,7.966,0,0,1,.985-.117,3.146,3.146,0,0,1,.55.02,5.854,5.854,0,0,1,3.777,1.686c.324.324.655.642.978.969.306.318.635.612.94.929.337.345.691.672,1.027,1.015.779.783,1.571,1.553,2.349,2.337.366.341.714.7,1.068,1.057H17.969Q16.8,16.2,15.641,15.033c-.421-.375-.793-.8-1.212-1.181-.33-.332-.66-.663-.994-.992a4.566,4.566,0,0,0-.909-.779,3.738,3.738,0,0,0-4.564.419c-.455.455-.908.9-1.36,1.354-.417.383-.795.805-1.212,1.187Q4.233,16.2,3.062,17.351ZM7.419,7.029A6.125,6.125,0,0,1,6.153,5.99c-.418-.4-.815-.828-1.242-1.222-.309-.3-.6-.619-.922-.912-.341-.342-.679-.687-1.029-1.02C2.012,1.887,1.056.949.1,0H3.175C4.258,1.089,5.36,2.156,6.444,3.246c.47.444.917.909,1.379,1.363a3.756,3.756,0,0,0,4.192.83,3.877,3.877,0,0,0,1.13-.761c.216-.235.454-.449.674-.68.249-.237.48-.493.736-.721.356-.349.7-.714,1.064-1.051C16.351,1.485,17.1.76,17.836.018L17.872,0h3.052c-.362.354-.71.721-1.08,1.066-.877.883-1.769,1.752-2.646,2.633-.42.389-.808.814-1.226,1.205q-.7.7-1.41,1.4a5.819,5.819,0,0,1-1.551,1.046A5.868,5.868,0,0,1,10.52,7.9,5.893,5.893,0,0,1,7.419,7.029Z" transform="translate(6.926 8.713)" fill="#fff"/>
</svg>
