<svg id="Currency_Icon_Dot" xmlns="http://www.w3.org/2000/svg" width="35.054" height="35.054" viewBox="0 0 35.054 35.054">
  <circle id="Ellipse" cx="17.527" cy="17.527" r="17.527" transform="translate(0 0)" fill="#06518c" opacity="0"/>
  <g id="polkadot" transform="translate(10.6 8)">
    <path id="Path_1" data-name="Path 1" d="M7.378,0A7.408,7.408,0,0,0,0,7.378a7.579,7.579,0,0,0,.389,2.4,1.055,1.055,0,0,0,1.3.647,1.05,1.05,0,0,0,.627-1.293,4.868,4.868,0,0,1-.287-1.881A5.322,5.322,0,1,1,7.67,12.72s-1.036.063-1.551.126a5.357,5.357,0,0,0-.564.112.068.068,0,0,1-.1,0h0a.068.068,0,0,1,0-.082L5.618,12,6.59,7.626A1.011,1.011,0,0,0,4.613,7.2S2.3,17.91,2.3,18.008A.972.972,0,0,0,3,19.189l.017,0h.054a.972.972,0,0,0,1.184-.7.263.263,0,0,0,.006-.026.25.25,0,0,1,0-.048c.029-.126.321-1.551.321-1.551A2.625,2.625,0,0,1,6.756,14.8c.223-.034,1.162-.1,1.162-.1A7.373,7.373,0,0,0,7.378,0Z" fill="#fff"/>
    <path id="Path_2" data-name="Path 2" d="M816.145,2182.975a1.23,1.23,0,0,0-1.454.953c0,.007,0,.013,0,.019a1.224,1.224,0,0,0,.936,1.457h.036a1.2,1.2,0,0,0,1.454-.888s0-.01,0-.015v-.067A1.275,1.275,0,0,0,816.145,2182.975Z" transform="translate(-808.32 -2165.964)" fill="#e6007a"/>
  </g>
</svg>
