<svg xmlns="http://www.w3.org/2000/svg" width="35.055" height="35.055" viewBox="0 0 35.055 35.055">
  <g id="Usd_Icon" transform="translate(0)">
    <circle id="Ellipse" cx="17.527" cy="17.527" r="17.527" fill="#06518c" opacity="0"/>
    <path id="Usd_Icon-2" data-name="Usd_Icon" d="M173.793,268.258a9.68,9.68,0,0,0,4.634,1.759v1.4a.993.993,0,0,0,.99.974.959.959,0,0,0,.974-.974v-1.351c2.875-.267,4.823-1.917,4.823-4.414a4.051,4.051,0,0,0-.44-1.948c-.66-1.272-2.089-2.105-4.477-2.7v-4.336a7.966,7.966,0,0,1,2.325.99,1.26,1.26,0,0,0,1.948-1.037,1.218,1.218,0,0,0-.676-1.084,8.131,8.131,0,0,0-3.5-1.241v-.518a.969.969,0,0,0-.974-.974.982.982,0,0,0-.99.974v.471a6.43,6.43,0,0,0-2.372.628,4.264,4.264,0,0,0-1.9,1.775,3.893,3.893,0,0,0-.471,1.917,3.977,3.977,0,0,0,.77,2.529,7.392,7.392,0,0,0,4.069,2.137v4.462a7.953,7.953,0,0,1-3.346-1.508,1.232,1.232,0,0,0-.738-.251,1.215,1.215,0,0,0-1.241,1.241A1.187,1.187,0,0,0,173.793,268.258Zm6.5-4.6c.031.016.079.016.11.031,1.65.534,2.137,1.147,2.137,2.121,0,1.084-.786,1.807-2.231,1.964v-4.116Zm-2.686-3.487h0a1.787,1.787,0,0,1-1.273-1.759c0-.99.723-1.759,2.168-1.9v4.006A6.307,6.307,0,0,1,177.61,260.168Z" transform="translate(-161.585 -244.868)" fill="#fff"/>
  </g>
</svg>
