<svg id="Btc_Icon" xmlns="http://www.w3.org/2000/svg" width="35.055" height="35.055" viewBox="0 0 35.055 35.055">
  <circle id="Ellipse" cx="17.527" cy="17.527" r="17.527" fill="#f7931a" opacity="0"/>
  <path id="Btc_Icon-2" data-name="Btc_Icon" d="M24.624,14.786c.344-2.3-1.405-3.531-3.8-4.354L21.6,7.32l-1.893-.471-.756,3.029c-.5-.125-1.008-.241-1.517-.357L18.2,6.472,16.306,6l-.776,3.11c-.412-.094-.817-.186-1.209-.285l0-.01-2.612-.652-.5,2.022s1.405.322,1.376.342a1.008,1.008,0,0,1,.882,1.1l-.883,3.544a1.684,1.684,0,0,1,.2.062l-.2-.049-1.238,4.965a.691.691,0,0,1-.869.449c.02.027-1.376-.343-1.376-.343l-.94,2.167,2.465.615c.458.115.907.236,1.349.348l-.783,3.146L13.079,27l.776-3.111c.517.139,1.019.268,1.51.391l-.773,3.1,1.893.471.783-3.14c3.229.611,5.657.365,6.679-2.556.824-2.351-.041-3.708-1.74-4.592a3.018,3.018,0,0,0,2.418-2.78ZM20.3,20.852c-.584,2.352-4.544,1.08-5.828.761l1.041-4.168C16.794,17.766,20.909,18.4,20.3,20.852Zm.586-6.1c-.533,2.139-3.829,1.052-4.9.785l.942-3.779C18,12.024,21.439,12.52,20.883,14.752Z" transform="translate(0.779 0.573)" fill="#fff"/>
</svg>
