<svg id="Avax_Icon" xmlns="http://www.w3.org/2000/svg" width="35.054" height="35.054" viewBox="0 0 35.054 35.054">
  <circle id="Ellipse" cx="17.527" cy="17.527" r="17.527" transform="translate(0 0)" fill="#06518c" opacity="0"/>
  <path id="Ico" d="M12.848,17.267a.828.828,0,0,1-.753-1.235l3.329-5.558a.9.9,0,0,1,1.517,0l3.335,5.559a.828.828,0,0,1-.759,1.235ZM.888,17.256a1.124,1.124,0,0,1-.678-.287.938.938,0,0,1-.182-.849S9.083,1.027,9.277.613a.911.911,0,0,1,.777-.608,1,1,0,0,1,.739.241c.2.141,2.5,3.982,2.847,4.613a2.789,2.789,0,0,1,0,1.756s-5.137,8.55-5.718,9.5A2.84,2.84,0,0,1,6.08,17.255Z" transform="translate(7.506 7.498)" fill="#fff"/>
</svg>
