<svg id="Currency_Icon_Algo" xmlns="http://www.w3.org/2000/svg" width="35.054" height="35.054" viewBox="0 0 35.054 35.054">
  <circle id="Ellipse" cx="17.527" cy="17.527" r="17.527" transform="translate(0 0)" fill="#06518c" opacity="0"/>
  <path id="algorand-algo-logo" d="M3.37,19.5l2.82-4.883,2.82-4.865,2.8-4.883.464-.774.206.774.86,3.215-.963,1.668-2.82,4.865L6.757,19.5h3.37l2.82-4.883,1.461-2.527.688,2.527L16.4,19.5h3.026l-1.307-4.883L16.814,9.748,16.47,8.493l2.1-3.628h-3.06L15.4,4.5,14.338.516,14.2,0h-2.94l-.069.1L8.441,4.865,5.622,9.748l-2.8,4.865L0,19.5Z" transform="translate(7.25 7.247)" fill="#fff"/>
</svg>
