<svg id="Currency_Icon_Aave" xmlns="http://www.w3.org/2000/svg" width="35.05" height="35.05" viewBox="0 0 35.05 35.05">
  <circle id="Bg" cx="17.525" cy="17.525" r="17.525" fill="#b6509e" opacity="0"/>
  <path id="Aave" d="M23.217,22.742,16.867,7.4a1.707,1.707,0,0,0-1.591-1.181h-.562A1.707,1.707,0,0,0,13.124,7.4l-2.763,6.686H8.271a1.144,1.144,0,0,0-1.139,1.134v.016a1.144,1.144,0,0,0,1.139,1.134H9.394L6.759,22.742a1.345,1.345,0,0,0-.078.435,1.2,1.2,0,0,0,.313.856,1.1,1.1,0,0,0,.843.327,1.14,1.14,0,0,0,.655-.217,1.384,1.384,0,0,0,.452-.576l2.9-7.2h2.013a1.144,1.144,0,0,0,1.139-1.134V15.2a1.144,1.144,0,0,0-1.139-1.134H12.781l2.214-5.521,6.037,15.018a1.384,1.384,0,0,0,.452.576,1.14,1.14,0,0,0,.655.217,1.1,1.1,0,0,0,.843-.327,1.2,1.2,0,0,0,.313-.856,1.028,1.028,0,0,0-.078-.435Z" transform="translate(2.537 1.784)" fill="#fff"/>
</svg>
