<svg id="Xlm_Icon" xmlns="http://www.w3.org/2000/svg" width="35.054" height="35.054" viewBox="0 0 35.054 35.054">
  <circle id="Ellipse" cx="17.527" cy="17.527" r="17.527" transform="translate(0 0)" fill="#06518c" opacity="0"/>
  <path id="Union_2" data-name="Union 2" d="M-670.687-266.1l1.58-.791.091-.047a7.433,7.433,0,0,0,7.278-.065,7.17,7.17,0,0,0,3.625-6.2,7.142,7.142,0,0,0-.062-.954L-670.48-268l-2.545,1.28-2.976,1.49v-1.8l3-1.5,1.456-.731,16.688-8.35v1.794l-.77.385a1.594,1.594,0,0,0-.882,1.545c.016.226.026.448.026.675a8.773,8.773,0,0,1-4.886,7.828,9.063,9.063,0,0,1-4.057.957A9.047,9.047,0,0,1-670.687-266.1ZM-676-270.609l.768-.385a1.6,1.6,0,0,0,.884-1.545q-.026-.333-.026-.669a8.772,8.772,0,0,1,4.881-7.832,9.075,9.075,0,0,1,9.316.717l-.217.109-1.457.73a7.43,7.43,0,0,0-7.678.326,7.145,7.145,0,0,0-3.152,6.888l12.292-6.153,2.545-1.274,2.984-1.5v1.8l-3.009,1.507-1.456.729-12.96,6.491-.722.359-.731.368L-676-268.814Z" transform="translate(683 290.5)" fill="#fff"/>
</svg>
