<svg xmlns="http://www.w3.org/2000/svg" width="35.055" height="35.055" viewBox="0 0 35.055 35.055">
  <g id="Icon_Mpay" transform="translate(0)">
    <circle id="Ellipse" cx="17.527" cy="17.527" r="17.527" transform="translate(0)" fill="#e7094a" opacity="0"/>
    <path id="Path" d="M324.833,207.43v12.019a1.713,1.713,0,0,1-1.7,1.717h0a1.713,1.713,0,0,1-1.7-1.717V207.43a1.713,1.713,0,0,1,1.7-1.717h0A1.713,1.713,0,0,1,324.833,207.43Zm-6.793-4.292a1.713,1.713,0,0,0-1.7,1.717v4.292h-1.7a1.717,1.717,0,0,0,0,3.434h1.7v4.292a1.7,1.7,0,1,0,3.4,0V204.855A1.713,1.713,0,0,0,318.04,203.138Zm13.586,6.009h-1.7v-4.292a1.7,1.7,0,1,0-3.4,0v12.019a1.7,1.7,0,1,0,3.4,0v-4.292h1.7a1.717,1.717,0,0,0,0-3.434Z" transform="translate(-305.809 -194.374)" fill="#fff"/>
  </g>
</svg>
