<svg id="Currency_Icon_Shib" xmlns="http://www.w3.org/2000/svg" width="35.05" height="35.05" viewBox="0 0 35.05 35.05">
  <circle id="Bg" cx="17.525" cy="17.525" r="17.525" fill="#f00500" opacity="0"/>
  <g id="Group_938" transform="translate(-948.108 -225.999)">
    <g id="Group_931" transform="translate(953.47 232.772)">
      <path id="Path_8575" d="M1343.454,516.351a1.283,1.283,0,0,1-.37.377,6.373,6.373,0,0,1-2.424.915,2.979,2.979,0,0,1-1.254.034c-.107-.053-.122-.1-.084-.233a1.853,1.853,0,0,1,.743-.892c.206-.149,1.041-.656,1.429-.869a5.05,5.05,0,0,1,1.51-.61.774.774,0,0,1,.286,0c.069.027.145.229.175.473A6.2,6.2,0,0,1,1343.454,516.351Z" transform="translate(-1324.595 -505.079)"/>
      <path id="Path_8576" d="M1105.922,518.612a.414.414,0,0,1-.267.114,4.314,4.314,0,0,1-.751-.019,7.894,7.894,0,0,1-2.291-.659,2.884,2.884,0,0,1-.789-.53l-.107-.111-.011-.145a3.983,3.983,0,0,1,.015-.789,1.037,1.037,0,0,1,.118-.335c.031-.038.031-.038.168-.038a1.649,1.649,0,0,1,.537.1,10.492,10.492,0,0,1,2.016,1.006,3.5,3.5,0,0,1,1.167.907A.761.761,0,0,1,1105.922,518.612Z" transform="translate(-1096.044 -506.078)"/>
      <path id="Path_8577" d="M1213.766,630.879c0,.011-.046.194-.1.412s-.1.393-.1.4a.653.653,0,0,1-.122,0h-.122l-.168.4c-.091.217-.175.419-.187.45l-.023.053-.08-.13-.08-.13v-1.056l-.031.008c-.065.015-.526.076-.728.1a10.389,10.389,0,0,1-2.5-.053c-.134-.019-.248-.034-.252-.03s0,.248.008.549l.011.541-.065.1c-.034.053-.069.1-.069.1s-.05-.05-.137-.225a2.575,2.575,0,0,1-.214-.579l-.027-.111-.118.008-.118.011-.031-.141c-.015-.076-.034-.194-.042-.259l-.011-.122-.1-.088c-.057-.05-.114-.1-.126-.107a.083.083,0,0,1-.027-.065v-.046l.477,0,.476,0,.015.05.015.05.164.008c.091,0,.381.011.64.019l.476.011.122-.191.126-.191h.16l0-.4,0-.4-.21-.091a2.045,2.045,0,0,1-1.22-1.048,1.459,1.459,0,0,1-.038-.5,1.51,1.51,0,0,1,.023-.5.554.554,0,0,1,.393-.389,9.085,9.085,0,0,1,1.136-.019l1.06,0,.118.057a.662.662,0,0,1,.286.225.629.629,0,0,1,.118.45,3.358,3.358,0,0,1-.057.732,1.584,1.584,0,0,1-.221.438,2.031,2.031,0,0,1-.854.6l-.092.034,0,.4,0,.4.084.008.084.008.114.172.11.172h.511c.282,0,.53,0,.553.008.038.008.046,0,.084-.061l.046-.069h.438A1.381,1.381,0,0,1,1213.766,630.879Z" transform="translate(-1198.49 -613.039)"/>
      <path id="Path_8578" d="M1254.171,741.724c-.072.042-.122.061-.133.053s-.065-.05-.122-.091l-.1-.084-.107.114c-.232.252-.24.263-.309.267-.107.011-.13-.008-.259-.2-.069-.1-.122-.183-.122-.183s-.05-.008-.107-.011l-.107-.011-.049.1-.05.1-.088-.027a1.856,1.856,0,0,1-.2-.08l-.114-.057V741.4l1.014,0,1.014,0,0,.1C1254.335,741.633,1254.339,741.629,1254.171,741.724Z" transform="translate(-1240.909 -722.79)"/>
    </g>
    <path id="Path_8579" d="M1015.946,581.826c0-.015,0-.042-.008-.084a8.106,8.106,0,0,0-5.95,1.841,4.617,4.617,0,0,0-4.441-3.583c-3.659,0-5.016,3.583-5.016,3.583a6.588,6.588,0,0,0-5.786-1.9c0,.023,0,.05,0,.072a3.32,3.32,0,0,0,.076,1.163,7.458,7.458,0,0,0,2.546,3.457,14.683,14.683,0,0,0,7.647,3.469c2.421.164,5.992-1.25,8.371-3.316a11.969,11.969,0,0,0,1.052-1.056,5.787,5.787,0,0,0,.56-.747c-.008,0,0-.008.015-.015s.023-.019.015-.027,0-.015.015-.019.019-.011.015-.019,0-.015.015-.019a.017.017,0,0,0,.011-.023c0-.008,0-.015.008-.015s.015-.011.015-.019.008-.019.015-.019a.016.016,0,0,0,.015-.015.4.4,0,0,1,.05-.088c.057-.088.286-.5.316-.564a5.26,5.26,0,0,0,.419-1.368A4.621,4.621,0,0,0,1015.946,581.826Zm-9.53,4.651c-.072.042-.122.061-.133.053s-.065-.05-.122-.091l-.1-.084-.107.114c-.233.252-.24.263-.309.267-.107.011-.13-.008-.259-.2-.069-.1-.122-.183-.122-.183s-.05-.008-.107-.011l-.107-.011-.05.1-.05.1-.088-.027a1.852,1.852,0,0,1-.2-.08l-.114-.057v-.217l1.014,0,1.014,0,0,.1C1006.58,586.385,1006.584,586.381,1006.416,586.476Zm1.906-.686c-.057.217-.1.393-.1.4a.652.652,0,0,1-.122,0h-.122l-.164.4c-.091.217-.175.419-.187.45l-.023.053-.08-.13-.08-.13v-1.056l-.03.008c-.065.015-.526.076-.728.1a10.389,10.389,0,0,1-2.5-.053c-.133-.019-.248-.034-.252-.03s0,.248.008.549l.011.541-.065.1c-.034.053-.069.1-.069.1s-.05-.05-.137-.225a2.575,2.575,0,0,1-.214-.579l-.027-.111-.118.008-.118.011-.031-.141c-.015-.076-.034-.194-.042-.259l-.011-.122-.1-.088c-.057-.05-.114-.1-.126-.107a.084.084,0,0,1-.027-.065v-.046l.477,0,.476,0,.015.05.015.05.164.008c.091,0,.381.011.64.019l.477.011.122-.191.126-.191h.16l0-.4,0-.4-.21-.091a2.045,2.045,0,0,1-1.22-1.048,1.459,1.459,0,0,1-.038-.5,1.514,1.514,0,0,1,.023-.5.554.554,0,0,1,.393-.389,9.085,9.085,0,0,1,1.136-.019l1.06,0,.118.057a.662.662,0,0,1,.286.225.63.63,0,0,1,.118.45,3.357,3.357,0,0,1-.057.732,1.579,1.579,0,0,1-.221.438,2.031,2.031,0,0,1-.854.6l-.091.034,0,.4,0,.4.084.008.084.008.114.172.111.172h.511c.282,0,.53,0,.553.008.038.008.046,0,.084-.061l.046-.069H1008a1.841,1.841,0,0,1,.438.015A2.618,2.618,0,0,0,1008.322,585.79Z" transform="translate(-39.683 -334.771)" fill="#fff"/>
    <path id="Path_8580" d="M985.381,624.1a3.531,3.531,0,0,0-.381.072" transform="translate(-30.328 -377.189)" fill="none"/>
    <path id="Path_8581" d="M1551.539,625.75s-.122-.027-.339-.05" transform="translate(-574.945 -378.729)" fill="none"/>
    <path id="Path_8582" d="M1016.179,246.667c-.008-.172-.023-.412-.034-.53a11.183,11.183,0,0,0-1.445-4.643,1.313,1.313,0,0,1-.084-.16.221.221,0,0,1-.015-.03h0c.118-.355.6-1.837.987-3.534.522-2.3.854-4.994-.16-5.8,0,0-1.754-.13-4.1,2.173a15.756,15.756,0,0,0-1.738,2.062l-.164-.053a11.9,11.9,0,0,0-2.912-.564c-.3-.023-1.407-.023-1.769,0a10.287,10.287,0,0,0-2.886.568c-.038.015-.072.027-.107.038a15.519,15.519,0,0,0-1.8-2.047c-2.443-2.314-4.262-2.18-4.262-2.18-1.075.835-.709,3.648-.152,6.027.366,1.574.816,2.958.984,3.457a.88.88,0,0,1-.042.084A13.822,13.822,0,0,0,995,246.911a6.583,6.583,0,0,1,5.79,1.9s1.357-3.583,5.016-3.583a4.618,4.618,0,0,1,4.441,3.583,8.124,8.124,0,0,1,5.95-1.841C1016.194,246.9,1016.187,246.781,1016.179,246.667Zm-18.934-6.656s-1.426-3.564-1.06-5.6h0a1.964,1.964,0,0,1,.355-.873s1.616.16,4.224,3.057a7.452,7.452,0,0,0-1.159.751.013.013,0,0,1-.008,0,9.164,9.164,0,0,0-2.352,2.661Zm6.049,5.295a.414.414,0,0,1-.267.114,4.311,4.311,0,0,1-.751-.019,7.892,7.892,0,0,1-2.291-.659,2.885,2.885,0,0,1-.789-.53l-.107-.111-.011-.145a3.983,3.983,0,0,1,.015-.789,1.035,1.035,0,0,1,.118-.335c.031-.038.031-.038.168-.038a1.65,1.65,0,0,1,.537.1,10.5,10.5,0,0,1,2.017,1.006,3.5,3.5,0,0,1,1.166.907A.762.762,0,0,1,1003.295,245.306Zm8.981-1.262a1.284,1.284,0,0,1-.37.377,6.372,6.372,0,0,1-2.424.915,2.98,2.98,0,0,1-1.254.034c-.107-.053-.122-.1-.084-.233a1.854,1.854,0,0,1,.743-.892c.206-.149,1.041-.656,1.429-.869a5.051,5.051,0,0,1,1.51-.61.775.775,0,0,1,.286,0c.069.027.145.229.175.473A6.233,6.233,0,0,1,1012.276,244.044Zm-.633-6.7-.008,0a7.118,7.118,0,0,0-1.121-.751c2.52-2.9,4.079-3.057,4.079-3.057a2.068,2.068,0,0,1,.343.873h0c.354,2.036-1.022,5.6-1.022,5.6a9.08,9.08,0,0,0-2.272-2.665Z" transform="translate(-39.947 0)" fill="#ffa409"/>
    <path id="Path_8583" d="M1377.119,343.2c-.008.008-.011.019-.019.027" transform="translate(-407.482 -106.997)" fill="none"/>
    <path id="Path_8584" d="M1508.427,476.9c-.019.053-.027.08-.027.08" transform="translate(-533.777 -235.601)" fill="none"/>
    <g id="Group_934" transform="translate(970.567 233.535)">
      <g id="Group_933" transform="translate(0)">
        <g id="Group_932">
          <path id="Path_8585" d="M1406.426,274.073c-.3-.038-1.7-.046-3.3,2.939l-.008,0a7.115,7.115,0,0,0-1.121-.751c2.52-2.9,4.079-3.057,4.079-3.057A2.022,2.022,0,0,1,1406.426,274.073Z" transform="translate(-1402 -273.2)" fill="#ff9300"/>
        </g>
        <path id="Path_8586" d="M1433.876,301.512a9.043,9.043,0,0,0-2.276-2.665c1.593-2.985,3-2.977,3.3-2.939h0C1435.252,297.948,1433.876,301.512,1433.876,301.512Z" transform="translate(-1430.472 -295.036)" fill="#ff8300"/>
        <path id="Path_8587" d="M1518.157,296.111l-.057-.011Z" transform="translate(-1513.674 -295.227)" fill="#ff8300"/>
      </g>
    </g>
    <path id="Path_8588" d="M1172.118,343.06c-.038-.053-.08-.107-.118-.16" transform="translate(-210.2 -106.709)" fill="none"/>
    <path id="Path_8589" d="M1035,480.8c.042.13.069.2.069.2" transform="translate(-78.423 -239.352)" fill="none"/>
    <g id="Group_937" transform="translate(956.177 233.535)">
      <g id="Group_936" transform="translate(0)">
        <g id="Group_935" transform="translate(0.057)">
          <path id="Path_8590" d="M1030.582,276.257a7.454,7.454,0,0,0-1.159.751.013.013,0,0,1-.008,0c-1.651-2.989-3.1-2.977-3.416-2.939a1.964,1.964,0,0,1,.354-.873S1027.975,273.36,1030.582,276.257Z" transform="translate(-1026 -273.2)" fill="#ff9300"/>
        </g>
        <path id="Path_8591" d="M1028,298.848a9.137,9.137,0,0,0-2.356,2.665s-1.426-3.564-1.06-5.6h0C1024.893,295.871,1026.349,295.863,1028,298.848Z" transform="translate(-1024.523 -295.036)" fill="#ff8300"/>
        <path id="Path_8592" d="M1024.561,296.1l-.061.011Z" transform="translate(-1024.5 -295.227)" fill="#ff8300"/>
      </g>
    </g>
    <path id="Path_8593" d="M1362.834,446.75s-1.22.076-1.067-.877a1.259,1.259,0,0,1,1.372-1.029c.267.038,1.334.419,1.144,1.22s-.458.648-.61.686A6.042,6.042,0,0,1,1362.834,446.75Z" transform="translate(-392.721 -204.761)" fill="#fff"/>
    <path id="Path_8594" d="M1126.834,446.75s-1.22.076-1.067-.877a1.259,1.259,0,0,1,1.372-1.029c.267.038,1.334.419,1.144,1.22s-.457.648-.61.686A6.044,6.044,0,0,1,1126.834,446.75Z" transform="translate(-165.717 -204.761)" fill="#fff"/>
  </g>
</svg>
