<svg xmlns="http://www.w3.org/2000/svg" width="17.1" height="13.575" viewBox="0 0 17.1 13.575">
  <g id="Youtube_Logo" transform="translate(-1257 -321)">
    <g id="Path" transform="translate(68.77 -75.105)" fill="none">
      <path d="M1203.536,399.257a1.834,1.834,0,0,0-1.247-1.336,48.226,48.226,0,0,0-11.018,0,1.834,1.834,0,0,0-1.247,1.336,22.591,22.591,0,0,0,0,7.272,1.833,1.833,0,0,0,1.247,1.336,48.235,48.235,0,0,0,11.018,0,1.833,1.833,0,0,0,1.247-1.336,22.591,22.591,0,0,0,0-7.272Z" stroke="none"/>
      <path d="M 1196.779907226563 397.6059265136719 C 1196.779907226563 397.6059265136719 1192.370849609375 397.6059265136719 1191.271240234375 397.9216003417969 C 1190.664672851563 398.0954895019531 1190.186767578125 398.607421875 1190.024536132813 399.2574462890625 C 1189.72998046875 400.4354248046875 1189.72998046875 402.8934936523438 1189.72998046875 402.8934936523438 C 1189.72998046875 402.8934936523438 1189.72998046875 405.3516235351563 1190.024536132813 406.5298156738281 C 1190.186767578125 407.1798095703125 1190.664672851563 407.6918640136719 1191.271240234375 407.8653869628906 C 1192.370849609375 408.1809997558594 1196.779907226563 408.1809997558594 1196.779907226563 408.1809997558594 C 1196.779907226563 408.1809997558594 1201.189331054688 408.1809997558594 1202.288940429688 407.8653869628906 C 1202.8955078125 407.6918640136719 1203.373413085938 407.1798095703125 1203.535522460938 406.5298156738281 C 1203.830078125 405.3516235351563 1203.830078125 402.8934936523438 1203.830078125 402.8934936523438 C 1203.830078125 402.8934936523438 1203.830078125 400.4354248046875 1203.535522460938 399.2574462890625 C 1203.373413085938 398.607421875 1202.8955078125 398.0954895019531 1202.288940429688 397.9216003417969 C 1201.189331054688 397.6059265136719 1196.779907226563 397.6059265136719 1196.779907226563 397.6059265136719 M 1196.779907226563 396.1059265136719 C 1197.86376953125 396.1059265136719 1201.494262695313 396.1328735351563 1202.702880859375 396.4798278808594 C 1203.822631835938 396.8008422851563 1204.699584960938 397.7261352539063 1204.990966796875 398.8944702148438 C 1205.320556640625 400.212646484375 1205.330078125 402.6229858398438 1205.330078125 402.8934936523438 C 1205.330078125 403.1640014648438 1205.320556640625 405.5743713378906 1204.99072265625 406.8936462402344 C 1204.699462890625 408.0616760253906 1203.822143554688 408.9869384765625 1202.701538085938 409.3075256347656 C 1201.494262695313 409.654052734375 1197.86376953125 409.6809997558594 1196.779907226563 409.6809997558594 C 1195.696044921875 409.6809997558594 1192.06591796875 409.654052734375 1190.857421875 409.3071594238281 C 1189.738159179688 408.9869995117188 1188.86083984375 408.0617980957031 1188.569213867188 406.8930358886719 C 1188.239501953125 405.5743713378906 1188.22998046875 403.1640014648438 1188.22998046875 402.8934936523438 C 1188.22998046875 402.6229858398438 1188.239501953125 400.212646484375 1188.5693359375 398.8935546875 C 1188.860717773438 397.7260131835938 1189.737670898438 396.8008117675781 1190.85791015625 396.4796752929688 C 1192.06591796875 396.1328735351563 1195.696044921875 396.1059265136719 1196.779907226563 396.1059265136719 Z" stroke="none" fill="#fff"/>
    </g>
    <path id="Path-2" data-name="Path" d="M1212.562,414.58v-5.288l4.406,2.644Z" transform="translate(51.225 -84.149)" fill="#fff"/>
  </g>
</svg>
