<svg xmlns="http://www.w3.org/2000/svg" width="13" height="12.331" viewBox="0 0 13 12.331">
  <defs>
    <style>
      .cls-1 {
        fill: #fff;
      }
    </style>
  </defs>
  <path id="Linkedin_Logo" class="cls-1" d="M4.493,12.331s.036-7.539,0-8.321H7.278V5.188A2.778,2.778,0,0,1,9.792,3.814C11.624,3.814,13,5,13,7.56v4.769H10.213V7.879C10.213,6.76,9.809,6,8.8,6a1.521,1.521,0,0,0-1.43,1.009,1.854,1.854,0,0,0-.093.674v4.648Zm-4.33,0V4.01H2.95v8.318ZM1.539,2.875A1.442,1.442,0,1,1,1.575,0a1.443,1.443,0,1,1-.018,2.875Z"/>
</svg>
