<svg xmlns="http://www.w3.org/2000/svg" id="Pin" width="30" height="54.546" viewBox="0 0 30 54.546">
    <defs>
        <style>
            .cls-1{fill:url(#linear-gradient)}.cls-2{fill:#fff;stroke:rgba(0,0,0,0)}
        </style>
        <linearGradient id="linear-gradient" x1=".5" x2=".5" y2="1" gradientUnits="objectBoundingBox">
            <stop offset="0" stop-color="#0a93ea"/>
            <stop offset="1" stop-color="#00387c"/>
        </linearGradient>
    </defs>
    <path id="Shape" d="M13.982 54.545v-2.66a74.531 74.531 0 0 0-2.641-12.124c-1.642-4.8-6.664-13.03-8.567-16.069a15 15 0 1 1 24.447.007c-1.964 3.109-7 11.3-8.63 16.062a74.532 74.532 0 0 0-2.641 12.124v2.66z" class="cls-1"/>
    <path id="Symbol" d="M14.176 16.781l-5.652-5.655-4.192 4.192a.68.68 0 1 1-.962-.962l3.73-3.727a.691.691 0 0 1 .077-.066v-.01l.864-.864a.688.688 0 0 1 .971 0l6.153 6.156a.681.681 0 0 1-.043 1A.661.661 0 0 1 14.7 17a.743.743 0 0 1-.524-.219zM.151 15.095a.7.7 0 0 1 .066-.941L5.872 8.5 1.679 4.3a.681.681 0 0 1 .044-1 .7.7 0 0 1 .94.067l3.7 3.7a.528.528 0 0 1 .071.083.007.007 0 0 1 .011 0l.864.864a.688.688 0 0 1 0 .971l-6.156 6.157a.672.672 0 0 1-.479.2.681.681 0 0 1-.523-.247zm14.218-1.4l-3.735-3.739a.691.691 0 0 1-.066-.077s-.006.005-.01 0l-.865-.864a.689.689 0 0 1 0-.971l6.154-6.156a.678.678 0 0 1 1 .044.7.7 0 0 1-.066.941l-5.652 5.658 4.2 4.2a.679.679 0 1 1-.959.961zM8.027 7.308L1.871 1.152a.68.68 0 0 1 .046-1 .7.7 0 0 1 .939.067l5.655 5.652L12.7 1.679a.679.679 0 1 1 .96.962L9.935 6.37a.854.854 0 0 1-.075.065v.009L9 7.308a.682.682 0 0 1-.969 0z" class="cls-2" transform="translate(6.455 6.457)"/>
</svg>
