<svg id="Icon_Usdt" xmlns="http://www.w3.org/2000/svg" width="40" height="40" viewBox="0 0 40 40">
  <path id="Path_7" data-name="Path 7" d="M20,0A20,20,0,1,1,0,20,20,20,0,0,1,20,0" fill="#53ae94"/>
  <path id="Path_8" data-name="Path 8" d="M407.69,498.861v-2.98h6.8V491.34H395.98v4.541h6.8v2.978c-5.524.254-9.677,1.351-9.677,2.666s4.155,2.411,9.677,2.667v9.546h4.915v-9.547c5.514-.255,9.659-1.352,9.659-2.665s-4.145-2.409-9.659-2.664m0,4.52v0c-.139.009-.851.052-2.437.052-1.268,0-2.16-.036-2.475-.053v0c-4.88-.217-8.523-1.069-8.523-2.089s3.643-1.871,8.523-2.088v3.328c.32.022,1.234.076,2.5.076,1.516,0,2.278-.063,2.417-.076v-3.328c4.871.218,8.505,1.071,8.505,2.087s-3.636,1.87-8.505,2.087" transform="translate(-385.225 -481.534)" fill="#fff"/>
</svg>
