<svg id="Icon_Algo" xmlns="http://www.w3.org/2000/svg" width="40" height="40" viewBox="0 0 40 40">
  <circle id="Bg" cx="20" cy="20" r="20"/>
  <path id="algorand-algo-logo" d="M3.874,22.412,7.115,16.8l3.241-5.593,3.222-5.613.534-.889.237.889.988,3.7L14.23,11.206,10.989,16.8,7.767,22.412h3.874L14.882,16.8l1.68-2.905.791,2.905,1.5,5.613h3.478l-1.5-5.613-1.5-5.593-.4-1.443,2.411-4.17H17.827l-.119-.415L16.483.593,16.325,0h-3.38l-.079.119L9.7,5.593,6.463,11.206,3.241,16.8,0,22.412Z" transform="translate(9 8)" fill="#fff"/>
</svg>
