<svg id="Icon_Shib" xmlns="http://www.w3.org/2000/svg" width="40" height="40" viewBox="0 0 40 40">
  <circle id="Bg" cx="20" cy="20" r="20" fill="#f00500"/>
  <g id="Group_938" transform="translate(-947.38 -225.034)">
    <g id="Group_931" transform="translate(953.47 232.883)">
      <path id="Path_8573" d="M1137.833,254.752a17.917,17.917,0,0,0-1.977,2.346l-.186-.061a13.533,13.533,0,0,0-3.312-.642c-.338-.026-1.6-.026-2.012,0a11.7,11.7,0,0,0-3.282.646c-.043.017-.082.03-.121.043a17.664,17.664,0,0,0-2.042-2.328,14.2,14.2,0,0,1,11.576-.611c.4.152.8.33,1.184.52Z" transform="translate(-1117.467 -253.196)" fill="#f00500"/>
      <path id="Path_8574" d="M980.548,396.618a13.541,13.541,0,0,1-2.428,4.258,15.1,15.1,0,0,1-1.9,1.86,14.011,14.011,0,0,1-5.476,2.7,14.351,14.351,0,0,1-6.729,0,13.981,13.981,0,0,1-5.476-2.7,15.087,15.087,0,0,1-1.9-1.86,13.381,13.381,0,0,1-2.428-13.042,14.157,14.157,0,0,1,1.106-2.385c.2-.347.455-.737.577-.9.416,1.791.928,3.365,1.119,3.933a.982.982,0,0,1-.048.1,15.722,15.722,0,0,0-1.687,6.118c0,.026,0,.056,0,.082a3.776,3.776,0,0,0,.087,1.322,8.483,8.483,0,0,0,2.9,3.933,16.7,16.7,0,0,0,8.7,3.946c2.753.186,6.816-1.422,9.521-3.772a13.585,13.585,0,0,0,1.2-1.2,6.57,6.57,0,0,0,.637-.85c-.009,0,0-.009.017-.017s.026-.022.017-.03,0-.017.017-.022.022-.013.017-.022,0-.017.017-.022a.019.019,0,0,0,.013-.026c0-.009,0-.017.009-.017s.017-.013.017-.022.009-.022.017-.022a.019.019,0,0,0,.017-.017.456.456,0,0,1,.056-.1c.065-.1.325-.564.36-.642a5.982,5.982,0,0,0,.477-1.557,4.426,4.426,0,0,0,.039-.78c0-.017,0-.048-.009-.1-.009-.087-.013-.217-.022-.347-.009-.2-.026-.468-.039-.6a12.721,12.721,0,0,0-1.643-5.281,1.5,1.5,0,0,1-.1-.182.259.259,0,0,1-.017-.035h0c.134-.4.685-2.09,1.123-4.019l.009.009.065.087c.113.152.412.6.546.819a13.318,13.318,0,0,1,1.227,11.4Z" transform="translate(-953.47 -378.616)" fill="#f00500"/>
      <path id="Path_8575" d="M1344.024,516.529a1.463,1.463,0,0,1-.421.429,7.247,7.247,0,0,1-2.758,1.041,3.39,3.39,0,0,1-1.427.039c-.121-.061-.139-.108-.1-.265a2.109,2.109,0,0,1,.845-1.015c.234-.169,1.184-.746,1.626-.989a5.744,5.744,0,0,1,1.717-.694.881.881,0,0,1,.325,0c.078.03.165.26.2.538A7.114,7.114,0,0,1,1344.024,516.529Z" transform="translate(-1322.574 -503.708)"/>
      <path id="Path_8576" d="M1106.5,518.957a.471.471,0,0,1-.3.13,4.908,4.908,0,0,1-.854-.022,8.975,8.975,0,0,1-2.606-.75,3.278,3.278,0,0,1-.9-.6l-.122-.126-.013-.165a4.521,4.521,0,0,1,.017-.9,1.177,1.177,0,0,1,.135-.382c.035-.043.035-.043.191-.043a1.876,1.876,0,0,1,.611.113,11.933,11.933,0,0,1,2.294,1.145,3.976,3.976,0,0,1,1.327,1.032A.866.866,0,0,1,1106.5,518.957Z" transform="translate(-1095.268 -504.701)"/>
      <path id="Path_8577" d="M1214.53,631.371c0,.013-.052.221-.117.468s-.117.447-.117.455a.742.742,0,0,1-.139,0h-.139l-.191.451c-.1.247-.2.477-.212.512l-.026.061-.091-.147-.091-.147v-1.2l-.035.009c-.074.017-.6.087-.828.108a11.817,11.817,0,0,1-2.849-.061c-.152-.022-.282-.039-.286-.035s0,.282.009.624l.013.616-.074.113c-.039.061-.078.113-.078.117s-.056-.056-.156-.256a2.93,2.93,0,0,1-.243-.659l-.03-.126-.134.009-.134.013-.035-.16c-.017-.087-.039-.221-.048-.295l-.013-.139-.113-.1c-.065-.056-.13-.113-.143-.121a.1.1,0,0,1-.03-.074v-.052l.542,0,.542,0,.017.056.017.056.187.009c.1,0,.433.013.728.022l.542.013.139-.217.143-.217h.182l0-.451,0-.451-.239-.1a2.326,2.326,0,0,1-1.387-1.192,1.657,1.657,0,0,1-.043-.564,1.719,1.719,0,0,1,.026-.564.63.63,0,0,1,.447-.442,10.3,10.3,0,0,1,1.292-.022l1.205,0,.134.065a.753.753,0,0,1,.325.256.716.716,0,0,1,.134.512,3.825,3.825,0,0,1-.065.832,1.8,1.8,0,0,1-.251.5,2.309,2.309,0,0,1-.971.681l-.1.039,0,.455,0,.455.1.009.1.009.13.2.126.2h.581c.321,0,.6,0,.629.009.043.009.052,0,.1-.069l.052-.078h.5A1.572,1.572,0,0,1,1214.53,631.371Z" transform="translate(-1197.156 -611.079)"/>
      <path id="Path_8578" d="M1254.429,741.769c-.082.048-.139.069-.152.061s-.074-.056-.139-.1l-.117-.1-.121.13c-.264.286-.273.3-.351.3-.121.013-.147-.009-.295-.23-.078-.113-.139-.208-.139-.208s-.056-.009-.122-.013l-.121-.013-.057.117-.056.117-.1-.03a2.117,2.117,0,0,1-.23-.091l-.13-.065V741.4l1.153,0,1.153,0,0,.117C1254.615,741.665,1254.62,741.66,1254.429,741.769Z" transform="translate(-1239.343 -720.233)"/>
    </g>
    <path id="Path_8579" d="M1018.862,582.077c0-.017,0-.048-.009-.1a9.221,9.221,0,0,0-6.768,2.094,5.252,5.252,0,0,0-5.051-4.076c-4.162,0-5.706,4.076-5.706,4.076a7.494,7.494,0,0,0-6.582-2.164c0,.026,0,.056,0,.082a3.778,3.778,0,0,0,.087,1.322,8.484,8.484,0,0,0,2.9,3.933,16.7,16.7,0,0,0,8.7,3.945c2.753.186,6.816-1.422,9.521-3.772a13.583,13.583,0,0,0,1.2-1.2,6.565,6.565,0,0,0,.637-.85c-.009,0,0-.009.017-.017s.026-.022.017-.03,0-.017.017-.022.022-.013.017-.022,0-.017.017-.022a.019.019,0,0,0,.013-.026c0-.009,0-.017.009-.017s.017-.013.017-.022.009-.022.017-.022a.019.019,0,0,0,.017-.017.451.451,0,0,1,.056-.1c.065-.1.325-.564.36-.642a5.981,5.981,0,0,0,.477-1.557A5.265,5.265,0,0,0,1018.862,582.077Zm-10.839,5.29c-.082.048-.139.069-.152.061s-.074-.056-.139-.1l-.117-.1-.121.13c-.264.286-.273.3-.351.3-.121.013-.147-.009-.295-.23-.078-.113-.139-.208-.139-.208s-.056-.009-.121-.013l-.121-.013-.056.117-.056.117-.1-.03a2.114,2.114,0,0,1-.23-.091l-.13-.065V587l1.153,0,1.153,0,0,.117C1008.209,587.262,1008.213,587.258,1008.022,587.367Zm2.168-.781c-.065.247-.117.447-.117.455a.748.748,0,0,1-.139,0h-.139l-.187.455c-.1.247-.2.477-.212.512l-.026.061-.091-.147-.091-.147v-1.2l-.035.009c-.074.017-.6.087-.828.108a11.816,11.816,0,0,1-2.849-.061c-.152-.022-.282-.039-.286-.035s0,.282.009.624l.013.616-.074.113c-.039.061-.078.113-.078.117s-.056-.056-.156-.256a2.936,2.936,0,0,1-.243-.659l-.03-.126-.134.009-.135.013-.035-.16c-.017-.087-.039-.221-.048-.295l-.013-.139-.113-.1c-.065-.056-.13-.113-.143-.121a.1.1,0,0,1-.03-.074v-.052l.542,0,.542,0,.017.056.017.056.186.009c.1,0,.434.013.728.022l.542.013.139-.217.143-.217h.182l0-.451,0-.451-.238-.1a2.326,2.326,0,0,1-1.387-1.192,1.658,1.658,0,0,1-.043-.564,1.723,1.723,0,0,1,.026-.564.63.63,0,0,1,.446-.442,10.3,10.3,0,0,1,1.292-.022l1.205,0,.134.065a.753.753,0,0,1,.325.256.716.716,0,0,1,.134.512,3.813,3.813,0,0,1-.065.832,1.8,1.8,0,0,1-.251.5,2.309,2.309,0,0,1-.971.681l-.1.039,0,.455,0,.455.1.009.1.009.13.2.126.2h.581c.321,0,.6,0,.629.009.043.009.052,0,.1-.069l.052-.078h.5a2.1,2.1,0,0,1,.5.017A2.98,2.98,0,0,0,1010.19,586.586Z" transform="translate(-39.467 -332.947)" fill="#fff"/>
    <path id="Path_8580" d="M985.434,624.1a4.006,4.006,0,0,0-.434.082" transform="translate(-30.163 -375.135)" fill="none"/>
    <path id="Path_8581" d="M1551.586,625.756s-.139-.03-.386-.056" transform="translate(-571.814 -376.666)" fill="none"/>
    <path id="Path_8582" d="M1019.09,248.687c-.009-.2-.026-.468-.039-.6a12.721,12.721,0,0,0-1.643-5.281,1.511,1.511,0,0,1-.1-.182.265.265,0,0,1-.017-.035h0c.134-.4.685-2.09,1.123-4.019.594-2.619.971-5.68-.182-6.6,0,0-1.994-.147-4.665,2.471a17.906,17.906,0,0,0-1.977,2.346l-.187-.061a13.534,13.534,0,0,0-3.312-.642c-.338-.026-1.6-.026-2.012,0a11.7,11.7,0,0,0-3.282.646c-.043.017-.082.03-.122.043a17.64,17.64,0,0,0-2.042-2.328c-2.779-2.632-4.847-2.48-4.847-2.48-1.223.95-.806,4.149-.173,6.855.416,1.791.928,3.365,1.119,3.933a.971.971,0,0,1-.048.1A15.721,15.721,0,0,0,995,248.965a7.488,7.488,0,0,1,6.586,2.164s1.544-4.076,5.706-4.076a5.252,5.252,0,0,1,5.051,4.076,9.241,9.241,0,0,1,6.768-2.094C1019.107,248.947,1019.1,248.817,1019.09,248.687Zm-21.536-7.57s-1.622-4.054-1.205-6.369h0a2.234,2.234,0,0,1,.4-.993s1.839.182,4.8,3.477a8.474,8.474,0,0,0-1.318.854.015.015,0,0,1-.009,0,10.424,10.424,0,0,0-2.675,3.026Zm6.881,6.022a.471.471,0,0,1-.3.13,4.9,4.9,0,0,1-.854-.022,8.976,8.976,0,0,1-2.606-.75,3.282,3.282,0,0,1-.9-.6l-.121-.126-.013-.165a4.533,4.533,0,0,1,.017-.9,1.18,1.18,0,0,1,.134-.382c.035-.043.035-.043.191-.043a1.876,1.876,0,0,1,.611.113,11.936,11.936,0,0,1,2.294,1.145,3.978,3.978,0,0,1,1.327,1.032A.867.867,0,0,1,1004.435,247.139Zm10.215-1.435a1.457,1.457,0,0,1-.421.429,7.247,7.247,0,0,1-2.757,1.041,3.39,3.39,0,0,1-1.427.039c-.121-.061-.139-.108-.1-.264a2.109,2.109,0,0,1,.846-1.015c.234-.169,1.184-.746,1.626-.989a5.747,5.747,0,0,1,1.717-.694.882.882,0,0,1,.325,0c.078.03.165.26.2.538A7.059,7.059,0,0,1,1014.65,245.7Zm-.72-7.618-.009,0a8.1,8.1,0,0,0-1.275-.854c2.866-3.3,4.639-3.477,4.639-3.477a2.352,2.352,0,0,1,.39.993h0c.4,2.315-1.162,6.374-1.162,6.374a10.327,10.327,0,0,0-2.584-3.031Z" transform="translate(-39.73)" fill="#ffa409"/>
    <path id="Path_8583" d="M1377.122,343.2c-.009.009-.013.022-.022.03" transform="translate(-405.263 -106.414)" fill="none"/>
    <path id="Path_8584" d="M1508.43,476.9c-.021.061-.03.091-.03.091" transform="translate(-530.87 -234.317)" fill="none"/>
    <g id="Group_934" transform="translate(972.917 233.751)">
      <g id="Group_933">
        <g id="Group_932">
          <path id="Path_8585" d="M1407.034,274.193c-.338-.043-1.938-.052-3.75,3.343l-.009,0a8.1,8.1,0,0,0-1.275-.854c2.866-3.3,4.639-3.477,4.639-3.477A2.3,2.3,0,0,1,1407.034,274.193Z" transform="translate(-1402 -273.2)" fill="#ff9300"/>
        </g>
        <path id="Path_8586" d="M1434.188,302.284a10.286,10.286,0,0,0-2.588-3.031c1.812-3.395,3.408-3.386,3.75-3.343h0C1435.754,298.23,1434.188,302.284,1434.188,302.284Z" transform="translate(-1430.317 -294.917)" fill="#ff8300"/>
        <path id="Path_8587" d="M1518.165,296.113l-.065-.013Z" transform="translate(-1513.066 -295.107)" fill="#ff8300"/>
      </g>
    </g>
    <path id="Path_8588" d="M1172.134,343.082c-.043-.061-.091-.121-.134-.182" transform="translate(-209.055 -106.127)" fill="none"/>
    <path id="Path_8589" d="M1035,480.8c.048.147.078.225.078.225" transform="translate(-77.995 -238.048)" fill="none"/>
    <g id="Group_937" transform="translate(956.549 233.751)">
      <g id="Group_936" transform="translate(0)">
        <g id="Group_935" transform="translate(0.065)">
          <path id="Path_8590" d="M1031.212,276.677a8.481,8.481,0,0,0-1.318.854.015.015,0,0,1-.009,0c-1.877-3.4-3.529-3.386-3.885-3.343a2.231,2.231,0,0,1,.4-.993S1028.246,273.382,1031.212,276.677Z" transform="translate(-1026 -273.2)" fill="#ff9300"/>
        </g>
        <path id="Path_8591" d="M1028.477,299.253a10.393,10.393,0,0,0-2.68,3.031s-1.622-4.054-1.205-6.374h0C1024.944,295.867,1026.6,295.858,1028.477,299.253Z" transform="translate(-1024.523 -294.917)" fill="#ff8300"/>
        <path id="Path_8592" d="M1024.569,296.1l-.069.013Z" transform="translate(-1024.5 -295.107)" fill="#ff8300"/>
      </g>
    </g>
    <path id="Path_8593" d="M1362.983,447.013s-1.387.087-1.214-1a1.432,1.432,0,0,1,1.561-1.171c.3.043,1.518.477,1.3,1.387s-.52.737-.694.78A6.861,6.861,0,0,1,1362.983,447.013Z" transform="translate(-390.582 -203.646)" fill="#fff"/>
    <path id="Path_8594" d="M1126.983,447.013s-1.388.087-1.214-1a1.432,1.432,0,0,1,1.561-1.171c.3.043,1.518.477,1.3,1.387s-.52.737-.694.78A6.864,6.864,0,0,1,1126.983,447.013Z" transform="translate(-164.814 -203.646)" fill="#fff"/>
  </g>
</svg>
