<svg xmlns="http://www.w3.org/2000/svg" width="16" height="12" viewBox="0 0 16 12">
  <defs>
    <style>
      .cls-1 {
        fill: #098cdf;
      }
    </style>
  </defs>
  <path id="Icon_Approximately" class="cls-1" d="M4.8-11.659a4.729,4.729,0,0,1-1.96-.37,17.832,17.832,0,0,1-2-1.109Q-.1-13.7-.691-13.987a3.042,3.042,0,0,0-1.327-.283,3.276,3.276,0,0,0-2.941,1.784q-.2.435-.572.174l-1.1-.7a.489.489,0,0,1-.2-.609,6.075,6.075,0,0,1,1.858-2.458,4.316,4.316,0,0,1,2.716-.935,4.617,4.617,0,0,1,1.736.3,8.131,8.131,0,0,1,1.572.87,13.312,13.312,0,0,0,1.879,1.088A4.248,4.248,0,0,0,4.68-14.4a2.141,2.141,0,0,0,1.368-.435A5.5,5.5,0,0,0,7.172-16.14a.373.373,0,0,1,.572-.13l1.184.827a.375.375,0,0,1,.123.566Q7.253-11.659,4.8-11.659Zm0,6.649a4.729,4.729,0,0,1-1.96-.37,17.831,17.831,0,0,1-2-1.109Q-.1-7.055-.691-7.337A3.042,3.042,0,0,0-2.018-7.62,3.276,3.276,0,0,0-4.959-5.837q-.2.435-.572.174l-1.1-.7a.489.489,0,0,1-.2-.609A6.075,6.075,0,0,1-4.979-9.425a4.316,4.316,0,0,1,2.716-.935,4.616,4.616,0,0,1,1.736.3,8.131,8.131,0,0,1,1.572.87A13.312,13.312,0,0,0,2.924-8.1a4.248,4.248,0,0,0,1.756.348,2.141,2.141,0,0,0,1.368-.435A5.5,5.5,0,0,0,7.172-9.491a.373.373,0,0,1,.572-.131l1.184.827a.375.375,0,0,1,.123.566Q7.253-5.01,4.8-5.01Z" transform="translate(6.871 17.01)"/>
</svg>
