<svg xmlns="http://www.w3.org/2000/svg" width="40" height="40" viewBox="0 0 40 40">
  <g id="Icon_Mpay" transform="translate(-636.945 -199.138)">
    <circle id="Ellipse" cx="20" cy="20" r="20" transform="translate(636.945 199.138)" fill="#e7094a"/>
    <path id="Path" d="M328.112,208.614v15.333a2.185,2.185,0,0,1-2.167,2.19h0a2.185,2.185,0,0,1-2.167-2.19V208.614a2.185,2.185,0,0,1,2.167-2.19h0A2.185,2.185,0,0,1,328.112,208.614Zm-8.667-5.476a2.185,2.185,0,0,0-2.167,2.19V210.8h-2.167a2.191,2.191,0,0,0,0,4.381h2.167v5.476a2.167,2.167,0,1,0,4.333,0V205.328A2.185,2.185,0,0,0,319.445,203.138Zm17.333,7.667h-2.167v-5.476a2.167,2.167,0,1,0-4.333,0v15.333a2.167,2.167,0,1,0,4.333,0v-5.476h2.167a2.191,2.191,0,0,0,0-4.381Z" transform="translate(331 6)" fill="#fff"/>
  </g>
</svg>
