<svg id="Icon_Xlm" xmlns="http://www.w3.org/2000/svg" width="40" height="40" viewBox="0 0 40 40">
  <defs>
    <style>
      .cls-1 {
        fill: #14b6e7;
      }

      .cls-2 {
        fill: #fff;
        fill-rule: evenodd;
      }
    </style>
  </defs>
  <circle id="Bg" class="cls-1" cx="20" cy="20" r="20"/>
  <path id="Path" class="cls-2" d="M14.463,15.374q1.291-2.3,2.637-4.57c2.629-4.416,9.655-4.875,10.038-4.6l0,.008,0-.005c.382.275,2.325,7.188-.86,11.2q-1.626,2.046-3.3,4.051c1.162,1.828,1.955,4.914-.781,9.264-.13.2-.375.372-.394-.053a7.45,7.45,0,0,0-2.379-5.021L19.3,25.8c-.606.73-1.111.631-1.945.031l-.066-.049a3.3,3.3,0,0,1-.471,1.024c-.025.035-.052.068-.079.1-1.85,2.6-4.459,3.885-5.881,2.858s-1.125-3.972.647-6.633c.024-.037.044-.075.069-.112a3.247,3.247,0,0,1,.775-.793h0c-.834-.6-1.094-1.054-.626-1.884l.066-.12a7.291,7.291,0,0,0-5.44-.529c-.406.129-.332-.166-.182-.363,3.09-4.029,6.187-4.4,8.3-3.958Zm-1.308,7.434a2.279,2.279,0,0,0-.317.363c-.018.025-.031.05-.048.075-1.25,1.831-1.469,3.851-.477,4.55s2.817-.19,4.12-1.983c.019-.025.039-.046.056-.071a2.252,2.252,0,0,0,.216-.379l-1.854-1.335-1.695-1.22ZM19.32,11.845a2.921,2.921,0,0,0,.686,4.024,2.806,2.806,0,0,0,3.955-.7,2.92,2.92,0,0,0-.688-4.025,2.806,2.806,0,0,0-3.954.7Z" transform="translate(1.511 1.535)"/>
</svg>
