<svg id="Icon_Aave" xmlns="http://www.w3.org/2000/svg" xmlns:xlink="http://www.w3.org/1999/xlink" width="40" height="40" viewBox="0 0 40 40">
  <defs>
    <linearGradient id="linear-gradient" x1="0.907" y1="0.227" x2="0.163" y2="0.853" gradientUnits="objectBoundingBox">
      <stop offset="0" stop-color="#b6509e"/>
      <stop offset="1" stop-color="#2ebac6"/>
    </linearGradient>
  </defs>
  <circle id="Bg" cx="20" cy="20" r="20" fill="url(#linear-gradient)"/>
  <path id="Aave" d="M26.123,25.646,18.657,7.6a2.007,2.007,0,0,0-1.87-1.389h-.66A2.007,2.007,0,0,0,14.256,7.6l-3.248,7.861H8.551A1.344,1.344,0,0,0,7.212,16.8v.018a1.344,1.344,0,0,0,1.339,1.333H9.872l-3.1,7.495a1.582,1.582,0,0,0-.092.511,1.411,1.411,0,0,0,.368,1.006,1.287,1.287,0,0,0,.991.384,1.341,1.341,0,0,0,.771-.256,1.628,1.628,0,0,0,.532-.677l3.408-8.462h2.367a1.344,1.344,0,0,0,1.339-1.333v-.037a1.344,1.344,0,0,0-1.339-1.333H13.853l2.6-6.491,7.1,17.657a1.628,1.628,0,0,0,.532.677,1.341,1.341,0,0,0,.771.256,1.287,1.287,0,0,0,.991-.384,1.411,1.411,0,0,0,.368-1.006,1.208,1.208,0,0,0-.092-.511Z" transform="translate(3.552 2.784)" fill="#fff"/>
</svg>
