<svg id="Icon_Title_Xlm" xmlns="http://www.w3.org/2000/svg" width="40" height="40" viewBox="0 0 40 40">
  <circle id="Bg" cx="20" cy="20" r="20"/>
  <g id="Layer_2" data-name="Layer 2" transform="translate(8 10.011)">
    <g id="Layer_1" data-name="Layer 1" transform="translate(0 -0.011)">
      <path id="Path_1" data-name="Path 1" d="M19.874,2.551l-2.786,1.42L3.633,10.824A8.014,8.014,0,0,1,15.488,2.79l1.595-.813.238-.121A9.79,9.79,0,0,0,1.78,9.78q0,.374.028.745a1.781,1.781,0,0,1-.967,1.721L0,12.675v2l2.476-1.262h0l.8-.409.79-.4h0L18.252,5.375l1.594-.812L23.14,2.884v-2Z" transform="translate(0 0.011)" fill="#fff"/>
      <path id="Path_2" data-name="Path 2" d="M23.14,50,4.874,59.3l-1.594.814L0,61.785v2l3.257-1.659L6.043,60.7l13.468-6.863A8.17,8.17,0,0,1,19.58,54.9,8.015,8.015,0,0,1,7.645,61.881l-.1.052-1.729.881A9.79,9.79,0,0,0,21.36,54.9c0-.252-.01-.5-.028-.752a1.782,1.782,0,0,1,.966-1.721l.842-.429Z" transform="translate(0 -45.104)" fill="#fff"/>
    </g>
  </g>
</svg>
