<svg xmlns="http://www.w3.org/2000/svg" width="48" height="48" viewBox="0 0 48 48">
  <defs>
    <style>
      .cls-1 {
        fill: #098cdf;
      }
    </style>
  </defs>
  <path id="Icon_2FA" class="cls-1" d="M11999.5,1408.865a.87.87,0,0,1-.229-1.208,30.881,30.881,0,0,0,5.276-13.976.875.875,0,0,1,1.738.2,32.645,32.645,0,0,1-5.564,14.758.88.88,0,0,1-.725.377A.9.9,0,0,1,11999.5,1408.865Zm-6.855-.834a.867.867,0,0,1-.079-1.228,25.08,25.08,0,0,0,5.833-21.6.876.876,0,0,1,1.717-.345,26.834,26.834,0,0,1-6.232,23.1.882.882,0,0,1-1.238.08Zm14.6-.632a.859.859,0,0,1-.405-1.159,36.635,36.635,0,0,0,2.484-6.592.876.876,0,0,1,1.693.45,38.6,38.6,0,0,1-2.6,6.9.871.871,0,0,1-1.17.4Zm-20.437-1.825a.855.855,0,0,1,.042-1.225,19.33,19.33,0,0,0,6.037-16.761.874.874,0,0,1,1.731-.234,21.03,21.03,0,0,1-6.576,18.262.877.877,0,0,1-1.234-.042Zm-4.753-3.644a.864.864,0,0,1,.124-1.221,13.753,13.753,0,0,0,4.119-5.625.874.874,0,0,1,1.631.628,15.461,15.461,0,0,1-4.642,6.341.867.867,0,0,1-.552.2A.882.882,0,0,1,11982.06,1401.931Zm33.54.227a.866.866,0,0,1-.619-1.06,41.7,41.7,0,0,0,1.356-13.554.87.87,0,0,1,.819-.921.859.859,0,0,1,.928.81,43.485,43.485,0,0,1-1.41,14.112.876.876,0,0,1-.845.646A.886.886,0,0,1,12015.6,1402.157Zm-37.115-4.785a.861.861,0,0,1,.106-1.221,7.79,7.79,0,0,0,2.692-7.241l-.063-.283a19.033,19.033,0,0,1-.352-2.879.878.878,0,0,1,1.755-.073,16.191,16.191,0,0,0,.247,2.244l.076.363a9.5,9.5,0,0,1-3.226,9.192.87.87,0,0,1-.566.206A.887.887,0,0,1,11978.484,1397.373Zm32.331-.244a.873.873,0,0,1-.723-1,36.023,36.023,0,0,0-.248-13.226,10.843,10.843,0,0,0-19.6-3.807,10.553,10.553,0,0,0-1.658,7.674l.082.366a15.342,15.342,0,0,1,.222,4.666.877.877,0,0,1-1.744-.181,13.32,13.32,0,0,0-.12-3.738l-.09-.4a12.258,12.258,0,0,1,1.851-9.346,12.6,12.6,0,0,1,22.774,4.425,37.914,37.914,0,0,1,.259,13.851.873.873,0,0,1-.863.726A1.061,1.061,0,0,1,12010.815,1397.129Zm-6.07-7.014a30.85,30.85,0,0,0-.625-6.062l-.05-.251a4.985,4.985,0,0,0-9.688.22.886.886,0,0,1-1.038.673.867.867,0,0,1-.678-1.03,6.74,6.74,0,0,1,13.18.042l.212,1.04h-.023a32.207,32.207,0,0,1,.461,5.364.875.875,0,0,1-1.75,0Zm-29.247-.345a23.793,23.793,0,0,1,2.181-15.672.878.878,0,0,1,1.18-.374.861.861,0,0,1,.376,1.166,22.047,22.047,0,0,0-2.021,14.535.869.869,0,0,1-.685,1.022.739.739,0,0,1-.175.018A.87.87,0,0,1,11975.5,1389.769Zm40.459-5.8c-.109-.733-.237-1.47-.389-2.2a16.657,16.657,0,0,0-19.61-12.9,16.457,16.457,0,0,0-13.1,13.338.879.879,0,0,1-1.015.7.864.864,0,0,1-.712-1,18.181,18.181,0,0,1,14.479-14.74,18.416,18.416,0,0,1,21.675,14.252c.154.767.292,1.532.4,2.293a.863.863,0,0,1-.735.984.869.869,0,0,1-1-.729Zm5.325-3.347a22.066,22.066,0,0,0-9.117-13.819.87.87,0,0,1-.215-1.211.881.881,0,0,1,1.222-.213,23.809,23.809,0,0,1,9.83,14.9.869.869,0,0,1-.688,1.019.987.987,0,0,1-.174.017A.873.873,0,0,1,12021.282,1380.623Zm-41.4-8.539a.857.857,0,0,1-.191-1.211,24.343,24.343,0,0,1,30.226-7.4.867.867,0,0,1,.4,1.162.881.881,0,0,1-1.175.4,22.579,22.579,0,0,0-28.04,6.865.868.868,0,0,1-.708.356A.877.877,0,0,1,11979.881,1372.083Z" transform="translate(-11975.02 -1361.016)"/>
</svg>
