<svg xmlns="http://www.w3.org/2000/svg" width="40" height="40" viewBox="0 0 40 40">
  <defs>
    <style>
      .cls-1 {
        fill: #8dc351;
      }

      .cls-2 {
        fill: #fff;
      }
    </style>
  </defs>
  <g id="Icon_Bch" transform="translate(1.002 2)">
    <circle id="Ellipse" class="cls-1" cx="20" cy="20" r="20" transform="translate(-1.002 -2)"/>
    <path id="Path" class="cls-2" d="M26.947,16.025c.393-2.62-1.6-4.029-4.331-4.969l.885-3.55-2.16-.537-.863,3.456c-.568-.143-1.15-.275-1.731-.408l.869-3.479L17.456,6l-.885,3.549c-.47-.108-.932-.213-1.38-.325l0-.011-2.98-.744-.575,2.307s1.6.367,1.57.39a1.15,1.15,0,0,1,1.006,1.258l-1.007,4.044a1.921,1.921,0,0,1,.225.071l-.229-.056-1.413,5.665a.788.788,0,0,1-.991.513c.022.031-1.57-.391-1.57-.391L8.157,24.741l2.812.7c.523.131,1.035.269,1.539.4l-.894,3.59,2.159.537.885-3.55c.59.159,1.162.306,1.722.446L15.5,30.4l2.16.537.894-3.582c3.685.7,6.455.416,7.621-2.916.94-2.683-.046-4.231-1.985-5.24a3.444,3.444,0,0,0,2.759-3.173Zm-4.937,6.922c-.666,2.684-5.185,1.233-6.65.869l1.187-4.756C18.012,19.426,22.708,20.15,22.009,22.947Zm.669-6.961c-.609,2.441-4.369,1.2-5.587.9l1.075-4.312C19.384,12.874,23.313,13.44,22.678,15.986Z" transform="translate(-5.842 10.763) rotate(-30)"/>
  </g>
</svg>
