<svg id="Icon_Dot" xmlns="http://www.w3.org/2000/svg" width="40" height="40" viewBox="0 0 40 40">
  <circle id="Bg" cx="20" cy="20" r="20"/>
  <g id="polkadot" transform="translate(11.161 8.216)">
    <path id="Path_1" data-name="Path 1" d="M9.162,0A9.2,9.2,0,0,0,0,9.162a9.411,9.411,0,0,0,.483,2.976,1.31,1.31,0,0,0,1.612.8,1.3,1.3,0,0,0,.779-1.606A6.045,6.045,0,0,1,2.517,9a6.609,6.609,0,1,1,7.007,6.8s-1.286.078-1.926.157a6.652,6.652,0,0,0-.7.139.084.084,0,0,1-.12,0h0a.084.084,0,0,1,0-.1l.2-1.086L8.184,9.47a1.256,1.256,0,1,0-2.456-.526s-2.873,13.3-2.873,13.417a1.207,1.207,0,0,0,.873,1.468l.021,0h.067a1.206,1.206,0,0,0,1.471-.867.327.327,0,0,0,.008-.033.31.31,0,0,1,0-.06c.036-.157.4-1.926.4-1.926a3.259,3.259,0,0,1,2.7-2.565c.277-.043,1.443-.121,1.443-.121A9.155,9.155,0,0,0,9.162,0Z" fill="#fff"/>
    <path id="Path_2" data-name="Path 2" d="M816.5,2182.982a1.526,1.526,0,0,0-1.806,1.183c0,.008,0,.016,0,.023a1.521,1.521,0,0,0,1.162,1.81h.045a1.5,1.5,0,0,0,1.806-1.1c0-.006,0-.013,0-.019v-.084A1.583,1.583,0,0,0,816.5,2182.982Z" transform="translate(-806.787 -2161.857)" fill="#e6007a"/>
  </g>
</svg>
