<svg id="AAA" xmlns="http://www.w3.org/2000/svg" width="18" height="18" viewBox="0 0 18 18">
  <path id="Path_7" data-name="Path 7" d="M9.111,0H9.1L9,0a9.186,9.186,0,1,0,.11,0Zm.241,6.286a9.728,9.728,0,0,0,3.314-.725,8.987,8.987,0,0,1,.682,3.084h-4V6.289Zm-.7,2.359h-4a9,9,0,0,1,.681-3.085,9.725,9.725,0,0,0,3.315.726Zm-4.7,0H.712A8.247,8.247,0,0,1,2.477,3.883a12.175,12.175,0,0,0,2.214,1.4A9.74,9.74,0,0,0,3.951,8.648Zm0,.7a9.773,9.773,0,0,0,.745,3.369,12.174,12.174,0,0,0-2.216,1.4A8.244,8.244,0,0,1,.712,9.352Zm.7,0h4v2.359a9.71,9.71,0,0,0-3.3.718A9,9,0,0,1,4.653,9.352Zm4.7,0h4a9,9,0,0,1-.7,3.078,9.714,9.714,0,0,0-3.3-.718V9.352Zm4.7,0h3.237a8.248,8.248,0,0,1-1.765,4.765,12.182,12.182,0,0,0-2.218-1.4A9.777,9.777,0,0,0,14.051,9.352Zm0-.7a9.768,9.768,0,0,0-.733-3.375,12.169,12.169,0,0,0,2.2-1.39,8.245,8.245,0,0,1,1.765,4.765H14.052Zm1.012-5.3a11.466,11.466,0,0,1-2.032,1.282A12.9,12.9,0,0,0,10.078.776,8.287,8.287,0,0,1,15.064,3.349ZM12.375,4.923a9.033,9.033,0,0,1-3.023.662v-4.5A12.6,12.6,0,0,1,12.375,4.923ZM8.648,1.084v4.5a9.026,9.026,0,0,1-3.025-.663A12.558,12.558,0,0,1,8.648,1.084ZM7.931.775a15,15,0,0,0-1.56,1.662,12.2,12.2,0,0,0-1.391,2.2A11.474,11.474,0,0,1,2.936,3.349,8.285,8.285,0,0,1,7.931.775Zm-5,13.876a11.455,11.455,0,0,1,2.047-1.289,12.81,12.81,0,0,0,3,3.871A8.291,8.291,0,0,1,2.935,14.651ZM5.643,13.07a9.027,9.027,0,0,1,3.005-.655v4.457A12.6,12.6,0,0,1,5.643,13.07Zm3.709,3.8V12.415a9.03,9.03,0,0,1,3,.655A12.626,12.626,0,0,1,9.352,16.872Zm.669.359a12.933,12.933,0,0,0,2.994-3.87,11.474,11.474,0,0,1,2.049,1.29A8.282,8.282,0,0,1,10.021,17.231Z" fill="#758ca3"/>
</svg>
