<svg id="Icon_Title_Dot" xmlns="http://www.w3.org/2000/svg" width="40" height="40" viewBox="0 0 40 40">
  <circle id="Bg" cx="20" cy="20" r="20"/>
  <g id="polkadot" transform="translate(11.903 9.208)">
    <path id="Path_1" data-name="Path 1" d="M8.41,0A8.444,8.444,0,0,0,0,8.41a8.639,8.639,0,0,0,.443,2.732,1.2,1.2,0,0,0,1.479.737A1.2,1.2,0,0,0,2.638,10.4,5.549,5.549,0,0,1,2.31,8.261,6.067,6.067,0,1,1,8.743,14.5s-1.181.072-1.768.144a6.106,6.106,0,0,0-.643.128.077.077,0,0,1-.11,0h0a.077.077,0,0,1,0-.094l.183-1L7.512,8.693A1.153,1.153,0,1,0,5.258,8.21S2.621,20.416,2.621,20.526a1.108,1.108,0,0,0,.8,1.347l.02,0H3.5a1.107,1.107,0,0,0,1.35-.8.3.3,0,0,0,.007-.03.285.285,0,0,1,0-.055c.033-.144.365-1.768.365-1.768A2.992,2.992,0,0,1,7.7,16.875c.255-.039,1.324-.111,1.324-.111A8.4,8.4,0,0,0,8.41,0Z" fill="#fff"/>
    <path id="Path_2" data-name="Path 2" d="M816.353,2182.979a1.4,1.4,0,0,0-1.658,1.086c0,.007,0,.014,0,.021a1.4,1.4,0,0,0,1.067,1.661h.042a1.373,1.373,0,0,0,1.658-1.013c0-.005,0-.012,0-.017v-.077A1.453,1.453,0,0,0,816.353,2182.979Z" transform="translate(-807.433 -2163.588)" fill="#e6007a"/>
  </g>
</svg>
