<svg xmlns="http://www.w3.org/2000/svg" width="30" height="30" viewBox="0 0 30 30">
  <g id="Icon_Title_Avax" transform="translate(0.25 0.25)">
    <circle id="Ellipse_1" data-name="Ellipse 1" cx="15" cy="15" r="15" transform="translate(-0.25 -0.25)" fill="#e84242"/>
    <path id="Ico" d="M11.579,15.563A.746.746,0,0,1,10.9,14.45L13.9,9.441a.808.808,0,0,1,1.367,0l3.006,5.01a.746.746,0,0,1-.684,1.113ZM.8,15.553a1.013,1.013,0,0,1-.611-.259.845.845,0,0,1-.164-.765S8.186.926,8.361.553a.821.821,0,0,1,.7-.548.9.9,0,0,1,.666.217c.179.127,2.249,3.589,2.566,4.158a2.514,2.514,0,0,1,0,1.583s-4.63,7.706-5.154,8.565a2.56,2.56,0,0,1-1.66,1.024Z" transform="translate(5.75 5.75)" fill="#fff"/>
  </g>
</svg>
