<svg xmlns="http://www.w3.org/2000/svg" width="30" height="30" viewBox="0 0 30 30">
  <defs>
    <style>
      .cls-1 {
        fill: #f7931a;
      }

      .cls-2 {
        fill: #fff;
      }
    </style>
  </defs>
  <g id="Btc_Icon" transform="translate(-251 -1231)">
    <circle id="Ellipse" class="cls-1" cx="15" cy="15" r="15" transform="translate(251 1231)"/>
    <path id="Path" class="cls-2" d="M22.25,13.519c.294-1.965-1.2-3.022-3.248-3.727l.664-2.662-1.62-.4L17.4,9.319c-.426-.107-.862-.206-1.3-.306L16.751,6.4,15.131,6l-.664,2.662c-.352-.081-.7-.159-1.035-.244l0-.008L11.2,7.852l-.431,1.731s1.2.276,1.178.292a.862.862,0,0,1,.755.943l-.756,3.033a1.441,1.441,0,0,1,.169.053l-.172-.042-1.059,4.249a.591.591,0,0,1-.743.384c.017.023-1.177-.293-1.177-.293l-.8,1.854,2.109.526c.392.1.776.2,1.154.3l-.67,2.693,1.619.4.664-2.663c.442.119.872.23,1.292.335L13.663,24.3l1.62.4.67-2.687c2.764.523,4.841.312,5.716-2.187A2.843,2.843,0,0,0,20.18,15.9a2.583,2.583,0,0,0,2.069-2.379Zm-3.7,5.192c-.5,2.013-3.889.924-4.987.652L14.45,15.8C15.548,16.07,19.07,16.613,18.546,18.711Zm.5-5.221c-.457,1.831-3.277.9-4.191.672l.806-3.234C16.578,11.155,19.524,11.58,19.048,13.49Z" transform="translate(250.49 1230.625)"/>
  </g>
</svg>
