<svg id="Icon_Title_Algo" xmlns="http://www.w3.org/2000/svg" width="40" height="40" viewBox="0 0 40 40">
  <circle id="Bg" cx="20" cy="20" r="20"/>
  <path id="algorand-algo-logo" d="M3.785,21.9l3.167-5.485L10.12,10.95l3.148-5.485.521-.869.232.869.966,3.611L13.9,10.95l-3.167,5.465L7.59,21.9h3.785l3.167-5.485,1.642-2.839.772,2.839L18.424,21.9h3.4l-1.468-5.485L18.887,10.95,18.5,9.54l2.356-4.075H17.42L17.3,5.06l-1.2-4.48L15.952,0h-3.3l-.077.116L9.482,5.465,6.315,10.95,3.167,16.415,0,21.9Z" transform="translate(9 8)" fill="#fff"/>
</svg>
