<svg id="Icon_Hot" xmlns="http://www.w3.org/2000/svg" width="40" height="40" viewBox="0 0 40 40">
  <circle id="Bg" cx="20" cy="20" r="20" fill="#b748ff"/>
  <path id="holo" d="M22.259,14.456a7.116,7.116,0,0,1-2.5-.451,8.1,8.1,0,0,1-1.151-.55,4.792,4.792,0,0,1-1-.75,6.217,6.217,0,0,1-1.45-1.95,5.308,5.308,0,0,1-.35-.951h1.9l1.151-2.6h-3.1a5.887,5.887,0,0,1,.35-1,6.835,6.835,0,0,1,1.45-1.95,4.743,4.743,0,0,1,1-.75,8.1,8.1,0,0,1,1.151-.55A7.214,7.214,0,0,1,22.259,2.5h.4L23.71.15a13.124,13.124,0,0,0-1.4-.1A9.613,9.613,0,0,0,18.958.6a8.711,8.711,0,0,0-1.551.7,14.307,14.307,0,0,0-1.45.951,7.8,7.8,0,0,0-1.3,1.25A7.65,7.65,0,0,0,13.705,5a6.891,6.891,0,0,0-.6,1.7v.2l-.05.2v.05H10.8V7l-.05-.2V6.6a9.743,9.743,0,0,0-.6-1.7A7.642,7.642,0,0,0,9.2,3.4a7.39,7.39,0,0,0-1.25-1.25A9.1,9.1,0,0,0,6.5,1.2,10.508,10.508,0,0,0,4.951.5,12.937,12.937,0,0,0,1.4,0,12.423,12.423,0,0,0,.05.1L1.1,2.5h.3a7.116,7.116,0,0,1,2.5.451,4.845,4.845,0,0,1,1.151.55,4.792,4.792,0,0,1,1,.75A6.217,6.217,0,0,1,7.5,6.2a4.338,4.338,0,0,1,.35,1.05H5.9l-1.151,2.6H7.8l-.3.9a6.835,6.835,0,0,1-1.45,1.95,4.743,4.743,0,0,1-1,.75A8.1,8.1,0,0,1,3.9,14a7.141,7.141,0,0,1-2.5.451H1l-1,2.3a13.124,13.124,0,0,0,1.4.1,9.613,9.613,0,0,0,3.352-.55,8.71,8.71,0,0,0,1.551-.7,14.414,14.414,0,0,0,1.45-.951A9.913,9.913,0,0,0,9,13.406a7.678,7.678,0,0,0,.951-1.5,6.891,6.891,0,0,0,.6-1.7V10l.05-.2h2.3l.05.2v.2a9.743,9.743,0,0,0,.6,1.7,7.678,7.678,0,0,0,.951,1.5,7.39,7.39,0,0,0,1.25,1.25,9.062,9.062,0,0,0,1.45.951,10.6,10.6,0,0,0,1.551.7,10.942,10.942,0,0,0,3.352.55,12.441,12.441,0,0,0,1.351-.1l-1.05-2.4c.048.1-.052.1-.152.1Z" transform="translate(8.145 11.75)" fill="#fff"/>
</svg>
