<svg xmlns="http://www.w3.org/2000/svg" width="40" height="53" viewBox="0 0 40 53">
  <defs>
    <style>
      .cls-1 {
        fill: none;
        stroke: #098cdf;
        stroke-miterlimit: 10;
        stroke-width: 2px;
      }

      .cls-2 {
        fill: #098cdf;
      }
    </style>
  </defs>
  <g id="Icon_Login" transform="translate(-1774 -432)">
    <path id="Path" class="cls-1" d="M59.53,31.949H25.51A1.99,1.99,0,0,0,23.5,33.92V58.981a4.992,4.992,0,0,0,4.992,4.968H56.546A4.961,4.961,0,0,0,61.5,58.981V33.92A1.959,1.959,0,0,0,59.53,31.949Z" transform="translate(1751.498 420.051)"/>
    <path id="Path-2" data-name="Path" class="cls-1" d="M29.2,30.733v-5.8c0-7.289,5.6-13.2,12.5-13.2s12.5,5.909,12.5,13.2v5.8" transform="translate(1751.799 421.268)"/>
    <path id="Symbol" class="cls-2" d="M16.679,19.745l-6.652-6.654L5.1,18.023a.8.8,0,1,1-1.13-1.131L8.35,12.506a.808.808,0,0,1,.09-.078.007.007,0,0,1,0-.011L9.456,11.4a.807.807,0,0,1,1.142,0l7.241,7.244a.8.8,0,0,1-.053,1.179.763.763,0,0,1-.5.177A.87.87,0,0,1,16.679,19.745ZM.177,17.761a.828.828,0,0,1,.078-1.107L6.907,10,1.975,5.066a.8.8,0,0,1,.051-1.181.828.828,0,0,1,1.107.078L7.485,8.317a.814.814,0,0,1,.083.1.007.007,0,0,1,.012,0L8.6,9.429a.807.807,0,0,1,0,1.142L1.356,17.815a.8.8,0,0,1-1.179-.053ZM16.9,16.111l-4.393-4.394a.823.823,0,0,1-.079-.092.007.007,0,0,1-.012,0L11.4,10.608a.808.808,0,0,1,0-1.142l7.241-7.243a.8.8,0,0,1,1.179.053.828.828,0,0,1-.078,1.107l-6.652,6.654,4.942,4.943a.8.8,0,0,1,0,1.135.794.794,0,0,1-.564.233A.8.8,0,0,1,16.9,16.111ZM9.441,8.6,2.2,1.357A.8.8,0,0,1,2.254.177.827.827,0,0,1,3.36.255l6.652,6.654,4.932-4.933a.8.8,0,1,1,1.13,1.131L11.687,7.5a.816.816,0,0,1-.087.075.007.007,0,0,1,0,.011L10.583,8.6a.807.807,0,0,1-1.142,0Z" transform="translate(1783.666 457.666)"/>
  </g>
</svg>
