<svg xmlns="http://www.w3.org/2000/svg" xmlns:xlink="http://www.w3.org/1999/xlink" width="50.502" height="30.002" viewBox="0 0 50.502 30.002">
  <defs>
    <clipPath id="clip-path">
      <rect width="31" height="14" fill="none"/>
    </clipPath>
  </defs>
  <g id="Icon_Forgot_Password" transform="translate(-1977.999 -446.499)">
    <g id="Shape" transform="translate(1977.999 456.001)" clip-path="url(#clip-path)">
      <g id="Shape-2" data-name="Shape" transform="translate(-1871.999 -445.001)">
        <line id="Path" y2="12" stroke-width="2" transform="translate(1879 446.001)" stroke="#098cdf" stroke-linecap="round" stroke-linejoin="round" fill="none"/>
        <line id="Path-2" data-name="Path" x2="8" y2="8" transform="translate(1875 448)" fill="none" stroke="#098cdf" stroke-linecap="round" stroke-linejoin="round" stroke-width="2"/>
        <line id="Path-3" data-name="Path" x2="12" transform="translate(1872.999 452)" fill="none" stroke="#098cdf" stroke-linecap="round" stroke-linejoin="round" stroke-width="2"/>
        <line id="Path-4" data-name="Path" y1="8" x2="8" transform="translate(1875 448)" fill="none" stroke="#098cdf" stroke-linecap="round" stroke-linejoin="round" stroke-width="2"/>
      </g>
      <g id="Shape-3" data-name="Shape" transform="translate(-1855.999 -445.001)">
        <line id="Path-5" data-name="Path" y2="12" transform="translate(1879 446.001)" fill="none" stroke="#098cdf" stroke-linecap="round" stroke-linejoin="round" stroke-width="2"/>
        <line id="Path-6" data-name="Path" x2="8" y2="8" transform="translate(1875 448)" fill="none" stroke="#098cdf" stroke-linecap="round" stroke-linejoin="round" stroke-width="2"/>
        <line id="Path-7" data-name="Path" x2="12" transform="translate(1872.999 452)" fill="none" stroke="#098cdf" stroke-linecap="round" stroke-linejoin="round" stroke-width="2"/>
        <line id="Path-8" data-name="Path" y1="8" x2="8" transform="translate(1875 448)" fill="none" stroke="#098cdf" stroke-linecap="round" stroke-linejoin="round" stroke-width="2"/>
      </g>
    </g>
    <path id="Quesiton_Mark" d="M12007.5,12027.5a1.5,1.5,0,1,1,1.5,1.5A1.5,1.5,0,0,1,12007.5,12027.5Zm.172-4.351v-6.479a1.328,1.328,0,0,1,1.328-1.325,6.346,6.346,0,1,0-6.346-6.346,1.328,1.328,0,1,1-2.656,0,9,9,0,1,1,10.327,8.9v5.246a1.327,1.327,0,0,1-2.653,0Z" transform="translate(-9990 -11553)" fill="#098cdf" stroke="rgba(0,0,0,0)" stroke-width="1"/>
  </g>
</svg>
