<svg xmlns="http://www.w3.org/2000/svg" width="40" height="40" viewBox="0 0 40 40">
  <g id="Icon_Avax" transform="translate(0.25 0.25)">
    <circle id="Ellipse_1" data-name="Ellipse 1" cx="20" cy="20" r="20" transform="translate(-0.25 -0.25)" fill="#e84242"/>
    <path id="Ico" d="M15.439,20.751a.994.994,0,0,1-.911-1.484l4.008-6.679a1.078,1.078,0,0,1,1.823,0l4.008,6.679a.994.994,0,0,1-.911,1.484ZM1.072,20.737a1.351,1.351,0,0,1-.815-.345,1.127,1.127,0,0,1-.218-1.021S10.915,1.235,11.148.738a1.1,1.1,0,0,1,.932-.731,1.2,1.2,0,0,1,.888.29c.238.169,3,4.786,3.421,5.544a3.351,3.351,0,0,1,0,2.11s-6.173,10.275-6.872,11.42A3.414,3.414,0,0,1,7.3,20.737Z" transform="translate(7.75 7.75)" fill="#fff"/>
  </g>
</svg>
