<svg xmlns="http://www.w3.org/2000/svg" width="40" height="40" viewBox="0 0 40 40">
  <defs>
    <style>
      .cls-1 {
        fill: #fff;
      }
    </style>
  </defs>
  <g id="Icon_Tron" transform="translate(1.002 2)">
    <circle id="Ellipse" cx="20" cy="20" r="20" transform="translate(-1.002 -2)"/>
    <path id="Path" class="cls-1" d="M27.7,13.223c-.94-.67-1.946-1.385-2.929-2.094-.022-.017-.044-.033-.071-.05a1.316,1.316,0,0,0-.386-.221l-.012-.006C21.672,10.205,19,9.541,16.409,8.9L9.369,7.153,9.185,7.1a1.78,1.78,0,0,0-.718-.095.494.494,0,0,0-.2.078L8.2,7.142a.816.816,0,0,0-.185.3L8,7.486V7.74l.012.039c1.482,4.237,3,8.535,4.473,12.694,1.131,3.2,2.306,6.519,3.452,9.776a.577.577,0,0,0,.522.388h.054a.61.61,0,0,0,.544-.3l4.306-6.4q1.572-2.335,3.147-4.674L25.8,17.343c.706-1.052,1.435-2.138,2.159-3.2l.038-.054v-.067a.847.847,0,0,0-.294-.8m-5.045,2.333c-1.012.537-2.044,1.091-3.082,1.639l1.816-1.983c.755-.831,1.544-1.69,2.315-2.531l.016-.017a2.457,2.457,0,0,1,.234-.26c.059-.06.125-.122.185-.194.4.284.809.571,1.2.853q.424.307.865.615-1.781.927-3.551,1.878m-2.6-.266c-.778.858-1.582,1.738-2.381,2.608q-2.325-2.874-4.665-5.737L10.919,9.6l0-.006c-.158-.182-.311-.382-.462-.57-.1-.128-.2-.249-.3-.377.631.165,1.267.321,1.892.47.549.134,1.12.272,1.68.416l9.465,2.342c-1.049,1.142-2.1,2.3-3.126,3.418M17.322,26.084c.06-.581.126-1.179.18-1.767.049-.472.1-.953.147-1.412.075-.737.158-1.5.224-2.249l.015-.132c.054-.477.108-.969.141-1.463a1.62,1.62,0,0,1,.2-.095,2.324,2.324,0,0,0,.244-.121q1.885-1.007,3.773-2.005c1.256-.664,2.545-1.352,3.822-2.033q-1.739,2.565-3.463,5.141c-.973,1.444-1.973,2.934-2.968,4.4-.391.587-.8,1.185-1.185,1.761-.435.643-.881,1.3-1.315,1.962.054-.665.119-1.335.189-1.989M9.746,9.95c-.071-.2-.148-.4-.213-.6,1.468,1.806,2.946,3.622,4.387,5.383.745.914,1.489,1.822,2.234,2.742.147.171.294.355.435.532.185.227.369.466.571.693-.066.57-.12,1.146-.18,1.7-.038.388-.075.776-.119,1.17v0c-.016.248-.049.5-.076.742l-.125,1.1-.006.038c-.1,1.119-.218,2.249-.332,3.346-.048.454-.092.919-.141,1.385-.027-.083-.059-.167-.087-.245q-.124-.339-.239-.681l-.582-1.645L9.745,9.95" transform="translate(0.998)"/>
  </g>
</svg>
