<svg xmlns="http://www.w3.org/2000/svg" width="64" height="64" viewBox="0 0 64 64">
  <g id="Icrypex_Icon_v2_64" transform="translate(-505 -239.652)">
    <circle id="Bg" cx="32" cy="32" r="32" transform="translate(505 239.652)" fill="#2a3553" opacity="0"/>
    <g id="Symbol" transform="translate(516.403 248.652)">
      <path id="X_Blue" d="M-2110.191,174.775v0l-4.463-6.23,6.134-8.563a7.294,7.294,0,0,1,5.933-3.061h5.169l-12.769,17.854Z" transform="translate(2138.614 -156.919)" fill="#357ce1"/>
      <path id="Type" d="M282,46.247a1.128,1.128,0,0,1-.917-.472L269.872,30.113a.56.56,0,0,0-.91,0L257.756,45.775a1.129,1.129,0,0,1-.918.472h-7.247a.563.563,0,0,1-.324-.108.57.57,0,0,1-.131-.8l15.43-21.537a.959.959,0,0,0,0-1.117L249.136,1.152a.571.571,0,0,1,.455-.9h7.226a1.128,1.128,0,0,1,.917.471L289.7,45.342a.573.573,0,0,1-.457.9Z" transform="translate(-249.029 -0.247)" fill="#fff"/>
    </g>
  </g>
</svg>
