<svg xmlns="http://www.w3.org/2000/svg" xmlns:xlink="http://www.w3.org/1999/xlink" width="52.254" height="21.656" viewBox="0 0 52.254 21.656">
  <defs>
    <style>
      .cls-1 {
        fill: url(#linear-gradient);
      }
    </style>
    <linearGradient id="linear-gradient" y1="0.584" x2="1" y2="0.59" gradientUnits="objectBoundingBox">
      <stop offset="0" stop-color="#758ca3"/>
      <stop offset="0.4" stop-color="#758ca3"/>
      <stop offset="0.444" stop-color="#b82c0d"/>
      <stop offset="0.702" stop-color="#b82c0d"/>
      <stop offset="0.761" stop-color="#4caf50"/>
      <stop offset="1" stop-color="#4caf50"/>
    </linearGradient>
  </defs>
  <path id="Mini_Chart" class="cls-1" d="M165.823,98.46l-.045.016a.8.8,0,0,0-.079.033,2.385,2.385,0,0,1-.64.254.32.32,0,0,1-.063-.023,1.121,1.121,0,0,0-.563-.076l-.08.011a30.662,30.662,0,0,1-.748-5.789c-.011-.152-.279-.272-.608-.272h0c-.328,0-.6.12-.606.273-.159,2.247-.31,3.706-.443,4.65a.879.879,0,0,0-.51-.126c-.317,0-.579.115-.6.261a28.893,28.893,0,0,1-.624,2.925c-.125.487-.251.981-.378,1.588-.1-.329-.2-.606-.292-.88a13.581,13.581,0,0,1-.565-1.974c-.031-.144-.292-.255-.605-.255h0c-.315,0-.576.113-.6.259a16.774,16.774,0,0,1-.811,3.061c-.058.163-.116.328-.175.5a11.655,11.655,0,0,1-.8-3.134c-.023-.148-.287-.263-.607-.263h0c-.32,0-.585.116-.605.264a16.564,16.564,0,0,1-.99,4.261l0,.006a4.85,4.85,0,0,1-.692-1.693c-.036-.142-.3-.249-.6-.249h-.006c-.311,0-.57.111-.6.255a8.717,8.717,0,0,1-.923,2.685c-.052.1-.1.2-.158.306a1.51,1.51,0,0,0-.3-.021,1.114,1.114,0,0,0-1.081.7,1.673,1.673,0,0,0-.2,0c-.425.014-.737.025-1.027,1.018a1.139,1.139,0,0,0-.424-.05.754.754,0,0,0-.737.337.862.862,0,0,0-.492-.4,1.893,1.893,0,0,0-.812-.067.822.822,0,0,0-.42.132l-.109.08a2.271,2.271,0,0,0-.871,1.08,1.9,1.9,0,0,0-.192-.007c-.436.009-.713.061-.958.847-.093-.118-.184-.227-.276-.334a4.841,4.841,0,0,1-1.032-1.792c-.048-.139-.308-.235-.611-.237s-.555.108-.592.247a19.388,19.388,0,0,1-.713,2.121,17.5,17.5,0,0,0-.751,2.3.807.807,0,0,0-.808-.379.851.851,0,0,0-.877.478,1.364,1.364,0,0,0-1.352-.512l-.052,0a.958.958,0,0,0-.465.113l-.181.111a3.363,3.363,0,0,0-1.481,1.44.824.824,0,0,0-.311-.069.982.982,0,0,0-.5-.163,1.548,1.548,0,0,0-.373.009,4.512,4.512,0,0,0-.544-.961,6.8,6.8,0,0,1-.4-.627.638.638,0,0,0-.5-.209,1.128,1.128,0,0,0-.5.07,2.7,2.7,0,0,1-.523-.558.59.59,0,0,0-.371-.174,1.255,1.255,0,0,0-.524.025,1.237,1.237,0,0,1-.128.023,1.742,1.742,0,0,0-1.052.447c-.04-.23-.079-.449-.117-.664a41.494,41.494,0,0,1-.608-4.856c-.012-.151-.279-.271-.606-.272h0c-.326,0-.594.119-.608.271a34.352,34.352,0,0,1-.512,3.858c-.176-.281-.39-.287-.674-.295h-.039c-.034-.1-.067-.2-.1-.3a16.786,16.786,0,0,1-.823-4.076c-.017-.15-.283-.266-.6-.267h0c-.321,0-.587.116-.607.265-.062.484-.122.865-.179,1.165a1.061,1.061,0,0,0-.406-.079,1.24,1.24,0,0,0-.323.038,14.578,14.578,0,0,1-.327-1.635c-.023-.146-.285-.261-.6-.262a.989.989,0,0,0-.5.117c-.052-.31-.108-.683-.165-1.133-.019-.148-.283-.265-.6-.265h0c-.32,0-.585.115-.607.263l-.009.062q-.031-.2-.064-.426c-.021-.148-.284-.262-.6-.263h0c-.317,0-.581.113-.606.26-.043.254-.084.472-.124.659a.766.766,0,0,0-.555-.183,1.307,1.307,0,0,0-.167.009,38.278,38.278,0,0,1-.546-4.817c-.011-.152-.279-.272-.607-.273h0c-.327,0-.6.12-.608.272a25.7,25.7,0,0,1-.673,4.91c-.138-.228-.34,1.695-.043,1.7s.557-.092.614-.227a4.858,4.858,0,0,1,.224-.446,4.4,4.4,0,0,0,.438-1.04c.244,1,.528,1,.934,1.017h.072a.91.91,0,0,0,.974.659,1.081,1.081,0,0,0,.5-.092.772.772,0,0,0,.85.557,1.249,1.249,0,0,0,.405-.044c.236.783.5.784.918.787a1.538,1.538,0,0,0,.3-.022c.269.911.56.97,1.022.981.057,0,.11,0,.16,0a.819.819,0,0,0,.865.469,1.117,1.117,0,0,0,.453-.073,13.284,13.284,0,0,0,.43,1.519c.116.346.225.674.336,1.123.035.14.288.247.592.25a1.355,1.355,0,0,0,.145-.007,29.812,29.812,0,0,1,.383,3.163c.013.151.28.271.606.271h0c.326,0,.593-.119.608-.27.141-1.537.282-2.458.42-3.233q.024.131.047.261c.138.767.269,1.492.4,2.688.016.146.27.262.585.267s.587-.1.625-.247c.35-1.31.673-1.752.9-1.909a1.81,1.81,0,0,0,1.326.687c.035,0,.076,0,.12,0,.07.107.137.206.2.3a4.061,4.061,0,0,1,.708,1.513c.033.127.247.228.521.245a1.186,1.186,0,0,0,.443-.052c0,.064.007.138.007.221,0,.16.285.288.634.282q.042.13.088.289c.041.141.3.239.611.244s.563-.11.6-.252a3.229,3.229,0,0,1,1.618-2.51,4.661,4.661,0,0,1,.661,1.821c.032.144.281.258.61.253.313,0,.573-.113.6-.258.069-.365.135-.663.2-.9.094.372.2.875.312,1.554.025.147.289.261.606.261h0c.319,0,.582-.116.6-.263a19.016,19.016,0,0,1,1.234-4.887c.085-.22.171-.444.258-.682.121.164.242.307.361.449a5.3,5.3,0,0,1,1.08,1.844c.052.141.321.24.63.234s.555-.12.576-.262c.087-.584.17-1.005.244-1.308a1.322,1.322,0,0,0,.326.041c.3,0,.556-.108.594-.248a3.213,3.213,0,0,1,.716-1.553,9.564,9.564,0,0,1,.541,2.44c.02.148.286.264.607.264h0c.321,0,.587-.117.6-.266.031-.249.061-.475.09-.679.048.134.3.235.6.235h0c.32,0,.585-.117.6-.264a16.217,16.217,0,0,1,.422-2.27,1.1,1.1,0,0,0,.324.038c.294,0,.539-.1.584-.239a5.2,5.2,0,0,1,.238-.611.881.881,0,0,0,.554.144c.287-.005.527-.1.576-.233a8.146,8.146,0,0,1,.459-1,8.881,8.881,0,0,0,.461-.993c.038.06.078.118.117.176a4.394,4.394,0,0,1,.6,1.182c.048.138.295.237.611.237s.556-.108.593-.247a13.921,13.921,0,0,1,.459-1.4,14.724,14.724,0,0,0,.474-1.447c.078.2.156.384.233.563a9.387,9.387,0,0,1,.574,1.666c.035.142.3.25.6.25h.006c.311,0,.57-.112.6-.256a15.908,15.908,0,0,1,.686-2.411c.092-.263.186-.528.28-.826a18.062,18.062,0,0,1,.856,4.146c.018.15.285.266.608.266h0c.323,0,.589-.118.605-.268a31.71,31.71,0,0,1,.914-5.141c.086-.336.174-.676.262-1.055a1.535,1.535,0,0,0,.353.028c.449-.005.747-.009,1.008-1.307.288,1.157.605,1.18,1.015,1.209a1.118,1.118,0,0,0,.817-.218c.07,0,.133.006.191.006a3.33,3.33,0,0,0,1.485-.413l.005,0c.048-.016.109-.038.163-.055C166.8,98.92,166.118,98.358,165.823,98.46Z" transform="translate(-114.471 -92.614)"/>
</svg>
