<svg id="Icon_Chat" xmlns="http://www.w3.org/2000/svg" width="20" height="20" viewBox="0 0 20 20">
  <g id="Path" fill="none">
    <path d="M4.444,15.556H18.889A1.3,1.3,0,0,0,20,14.444V1.111A1.427,1.427,0,0,0,18.889,0H1.111A1.427,1.427,0,0,0,0,1.111V20Z" stroke="none"/>
    <path d="M 1.75 15.77511978149414 L 3.207000017166138 14.31812000274658 L 3.71956992149353 13.80556011199951 L 4.444439888000488 13.80556011199951 L 18.25 13.80556011199951 L 18.25 1.75 L 1.75 1.75 L 1.75 15.77511978149414 M 0 20 L 0 1.111109972000122 C 0 0.666670024394989 0.6666600108146667 0 1.111109972000122 0 L 18.88888931274414 0 C 19.33333015441895 0 20 0.666670024394989 20 1.111109972000122 L 20 14.44443988800049 C 20 14.88889026641846 19.4444408416748 15.55556011199951 18.88888931274414 15.55556011199951 L 4.444439888000488 15.55556011199951 L 0 20 Z" stroke="none" fill="#fff"/>
  </g>
  <path id="Path-2" data-name="Path" d="M11.75,10.5A1.75,1.75,0,1,1,13.5,8.75,1.755,1.755,0,0,1,11.75,10.5Z" transform="translate(-1.951 -1.084)" fill="#fff"/>
  <path id="Path-3" data-name="Path" d="M6.75,10.5A1.75,1.75,0,1,1,8.5,8.75,1.755,1.755,0,0,1,6.75,10.5Z" transform="translate(7.272 -1.084)" fill="#fff"/>
  <path id="Path-4" data-name="Path" d="M16.75,10.5A1.75,1.75,0,1,1,18.5,8.75,1.755,1.755,0,0,1,16.75,10.5Z" transform="translate(-11.178 -1.084)" fill="#fff"/>
</svg>
