<svg xmlns="http://www.w3.org/2000/svg" xmlns:xlink="http://www.w3.org/1999/xlink" width="149.998" height="43.663" viewBox="0 0 149.998 43.663">
  <defs>
    <linearGradient id="linear-gradient" x1="0.042" y1="0.956" x2="0.906" y2="0.044" gradientUnits="objectBoundingBox">
      <stop offset="0" stop-color="#0a93eb"/>
      <stop offset="1" stop-color="#00387c"/>
    </linearGradient>
    <linearGradient id="linear-gradient-2" x1="0.945" y1="0.993" x2="0.084" y2="0.054" gradientUnits="objectBoundingBox">
      <stop offset="0" stop-color="#00387c"/>
      <stop offset="1" stop-color="#0a93eb"/>
    </linearGradient>
    <linearGradient id="linear-gradient-3" x1="0.112" y1="0.936" x2="0.973" y2="0.028" xlink:href="#linear-gradient-2"/>
    <linearGradient id="linear-gradient-4" x1="0.052" y1="0.004" x2="0.919" y2="0.949" xlink:href="#linear-gradient-2"/>
    <linearGradient id="linear-gradient-5" x1="0.029" y1="0.026" x2="0.945" y2="0.896" xlink:href="#linear-gradient"/>
    <linearGradient id="linear-gradient-6" x1="0.008" y1="0.944" x2="0.948" y2="0.082" xlink:href="#linear-gradient-2"/>
    <linearGradient id="linear-gradient-7" x1="0.039" y1="0.089" x2="0.959" y2="0.961" xlink:href="#linear-gradient-2"/>
    <linearGradient id="linear-gradient-8" x1="0.04" y1="0.929" x2="0.979" y2="0.068" xlink:href="#linear-gradient"/>
  </defs>
  <g id="Logo" transform="translate(-837.003 -29.002)">
    <path id="Title" d="M3.355,1.78a2.66,2.66,0,0,1-1.98-.759A2.744,2.744,0,0,1,.624-1V-6.443a2.718,2.718,0,0,1,.751-2.01A2.675,2.675,0,0,1,3.355-9.2a2.7,2.7,0,0,1,1.995.752A2.718,2.718,0,0,1,6.1-6.443V-6.2a.135.135,0,0,1-.038.114.135.135,0,0,1-.114.039L4.8-5.982a.135.135,0,0,1-.114-.039.135.135,0,0,1-.038-.114v-.4a1.428,1.428,0,0,0-.356-1.013,1.214,1.214,0,0,0-.933-.384,1.191,1.191,0,0,0-.925.384A1.446,1.446,0,0,0,2.08-6.535V-.889A1.447,1.447,0,0,0,2.429.123a1.191,1.191,0,0,0,.925.384A1.214,1.214,0,0,0,4.287.123,1.428,1.428,0,0,0,4.644-.889v-.4A.135.135,0,0,1,4.683-1.4.135.135,0,0,1,4.8-1.441l1.153.061a.135.135,0,0,1,.114.039.135.135,0,0,1,.038.114V-1a2.744,2.744,0,0,1-.751,2.017,2.68,2.68,0,0,1-2,.763Zm8.556-.123a.177.177,0,0,1-.182-.123l-1.4-4.572a.06.06,0,0,0-.061-.046H9.21a.054.054,0,0,0-.046.015.054.054,0,0,0-.015.046V1.5A.135.135,0,0,1,9,1.658H7.845A.135.135,0,0,1,7.693,1.5V-8.928a.135.135,0,0,1,.038-.114.135.135,0,0,1,.114-.039H10.56a2.454,2.454,0,0,1,1.365.384,2.528,2.528,0,0,1,.918,1.082,3.709,3.709,0,0,1,.326,1.588,3.418,3.418,0,0,1-.394,1.68A2.376,2.376,0,0,1,11.7-3.313a.088.088,0,0,0-.03.092l1.547,4.71.015.061q0,.107-.137.107ZM9.21-7.808a.054.054,0,0,0-.046.015.054.054,0,0,0-.015.046V-4.31a.054.054,0,0,0,.015.046.054.054,0,0,0,.046.015h1.123a1.21,1.21,0,0,0,1-.483,2.017,2.017,0,0,0,.379-1.281,2.07,2.07,0,0,0-.379-1.312,1.21,1.21,0,0,0-1-.483Zm6.933,9.45a.135.135,0,0,1-.152-.153V-2.9l-.015-.077L13.867-8.913l-.015-.061q0-.107.137-.107H15.2a.177.177,0,0,1,.182.123l1.289,4.234a.049.049,0,0,0,.046.031.049.049,0,0,0,.046-.031l1.289-4.234a.177.177,0,0,1,.182-.123H19.45q.167,0,.121.169L17.462-2.975l-.015.077V1.489a.135.135,0,0,1-.152.153ZM23.606-9.1a2.355,2.355,0,0,1,1.889.851,3.338,3.338,0,0,1,.721,2.232,3.268,3.268,0,0,1-.7,2.178,2.283,2.283,0,0,1-1.836.828H22.256A.054.054,0,0,0,22.21-3a.054.054,0,0,0-.015.046V1.5a.135.135,0,0,1-.152.153H20.891a.135.135,0,0,1-.152-.153V-8.943a.135.135,0,0,1,.038-.114.135.135,0,0,1,.114-.039Zm-.228,4.909a1.21,1.21,0,0,0,1-.483,2.07,2.07,0,0,0,.379-1.312,2.164,2.164,0,0,0-.379-1.342,1.2,1.2,0,0,0-1-.5H22.256a.054.054,0,0,0-.046.015.054.054,0,0,0-.015.046v3.513a.054.054,0,0,0,.015.046.054.054,0,0,0,.046.015Zm9.329-4.894a.135.135,0,0,1,.114.039.135.135,0,0,1,.038.114v.966a.135.135,0,0,1-.038.114.135.135,0,0,1-.114.039H30.721a.054.054,0,0,0-.046.015.054.054,0,0,0-.015.046V1.5a.135.135,0,0,1-.152.153H29.355A.135.135,0,0,1,29.2,1.5V-7.747a.054.054,0,0,0-.015-.046.054.054,0,0,0-.046-.015H27.262a.135.135,0,0,1-.114-.039.135.135,0,0,1-.038-.114v-.966a.135.135,0,0,1,.038-.114.135.135,0,0,1,.114-.039ZM36.394,1.78a2.69,2.69,0,0,1-2-.767,2.775,2.775,0,0,1-.758-2.04V-6.381a2.8,2.8,0,0,1,.758-2.048,2.676,2.676,0,0,1,2-.775,2.721,2.721,0,0,1,2.025.775,2.786,2.786,0,0,1,.766,2.048v5.354a2.76,2.76,0,0,1-.766,2.04,2.736,2.736,0,0,1-2.025.767Zm0-1.273A1.239,1.239,0,0,0,37.365.1a1.538,1.538,0,0,0,.364-1.066V-6.458a1.538,1.538,0,0,0-.364-1.066,1.239,1.239,0,0,0-.971-.407,1.2,1.2,0,0,0-.948.407,1.558,1.558,0,0,0-.356,1.066V-.966A1.558,1.558,0,0,0,35.446.1,1.2,1.2,0,0,0,36.394.507ZM48.97-7.961a.135.135,0,0,1-.038.114.135.135,0,0,1-.114.039H45.4a.054.054,0,0,0-.046.015.054.054,0,0,0-.015.046v3.329a.054.054,0,0,0,.015.046.054.054,0,0,0,.046.015h2.1a.135.135,0,0,1,.114.039.135.135,0,0,1,.038.114v.966a.135.135,0,0,1-.038.114.135.135,0,0,1-.114.039H45.4a.054.054,0,0,0-.046.015.054.054,0,0,0-.015.046V.323A.054.054,0,0,0,45.4.384h3.413a.135.135,0,0,1,.152.153V1.5a.135.135,0,0,1-.152.153H44.04a.135.135,0,0,1-.152-.153V-8.928a.135.135,0,0,1,.038-.114.135.135,0,0,1,.114-.039h4.778a.135.135,0,0,1,.114.039.135.135,0,0,1,.038.114Zm1.168,9.619a.126.126,0,0,1-.121-.184l2.109-5.139a.077.077,0,0,0,0-.092L50.017-8.9,50-8.959q0-.123.137-.123H51.32a.167.167,0,0,1,.167.123l1.38,3.7q.015.046.046.046t.046-.046l1.365-3.7a.167.167,0,0,1,.167-.123h1.183a.13.13,0,0,1,.114.054.131.131,0,0,1,.008.13L53.688-3.743a.143.143,0,0,0,0,.092L55.8,1.473l.015.061q0,.123-.137.123H54.507a.167.167,0,0,1-.167-.123L52.96-2.148q-.015-.046-.046-.046t-.046.046l-1.38,3.682a.167.167,0,0,1-.167.123Zm9.481.123a2.66,2.66,0,0,1-1.98-.759A2.744,2.744,0,0,1,56.888-1V-6.443a2.718,2.718,0,0,1,.751-2.01,2.675,2.675,0,0,1,1.98-.752,2.7,2.7,0,0,1,1.995.752,2.718,2.718,0,0,1,.751,2.01V-6.2a.135.135,0,0,1-.038.114.135.135,0,0,1-.114.039l-1.153.061a.135.135,0,0,1-.114-.039.135.135,0,0,1-.038-.114v-.4a1.428,1.428,0,0,0-.356-1.013,1.214,1.214,0,0,0-.933-.384,1.191,1.191,0,0,0-.925.384,1.447,1.447,0,0,0-.349,1.013v5.65A1.447,1.447,0,0,0,58.694.123a1.191,1.191,0,0,0,.925.384,1.214,1.214,0,0,0,.933-.384A1.428,1.428,0,0,0,60.908-.89v-.4a.135.135,0,0,1,.038-.114.135.135,0,0,1,.114-.039l1.153.061a.135.135,0,0,1,.114.039.135.135,0,0,1,.038.114V-1a2.744,2.744,0,0,1-.751,2.017,2.68,2.68,0,0,1-2,.763ZM67.826-8.928a.135.135,0,0,1,.038-.114.135.135,0,0,1,.114-.039H69.13a.135.135,0,0,1,.114.039.135.135,0,0,1,.038.114V1.5a.135.135,0,0,1-.152.153H67.977a.135.135,0,0,1-.152-.153V-3.022a.054.054,0,0,0-.015-.046.054.054,0,0,0-.046-.015h-2.29a.054.054,0,0,0-.046.015.054.054,0,0,0-.015.046V1.5a.135.135,0,0,1-.152.153H64.109a.135.135,0,0,1-.152-.153V-8.928a.135.135,0,0,1,.038-.114.135.135,0,0,1,.114-.039h1.153a.135.135,0,0,1,.114.039.135.135,0,0,1,.038.114v4.51a.054.054,0,0,0,.015.046.054.054,0,0,0,.046.015h2.291a.054.054,0,0,0,.046-.015.054.054,0,0,0,.015-.046ZM75.32,1.658a.156.156,0,0,1-.167-.138L74.819-.245A.052.052,0,0,0,74.8-.291a.093.093,0,0,0-.053-.015H72.27a.093.093,0,0,0-.053.015.052.052,0,0,0-.023.046l-.319,1.764a.145.145,0,0,1-.167.138H70.556a.139.139,0,0,1-.114-.046.141.141,0,0,1-.023-.123L72.68-8.943a.156.156,0,0,1,.167-.138H74.2a.145.145,0,0,1,.114.032.145.145,0,0,1,.053.106L76.639,1.489V1.52a.121.121,0,0,1-.137.138ZM72.452-1.533q0,.061.046.061h2.018q.046,0,.046-.061L73.53-6.98q-.015-.031-.03-.031t-.03.031Zm9.6-7.394a.135.135,0,0,1,.038-.114A.135.135,0,0,1,82.2-9.08h1.138a.135.135,0,0,1,.114.039.135.135,0,0,1,.038.114V1.5a.135.135,0,0,1-.152.153h-1.3a.167.167,0,0,1-.167-.123L79.294-5.476a.037.037,0,0,0-.046-.023.036.036,0,0,0-.03.038L79.233,1.5a.135.135,0,0,1-.152.153H77.929a.135.135,0,0,1-.152-.153V-8.928a.135.135,0,0,1,.038-.114.135.135,0,0,1,.114-.039h1.289a.167.167,0,0,1,.167.123l2.594,7.011q.015.046.046.038t.03-.054ZM87.9,1.78a2.706,2.706,0,0,1-1.98-.736A2.606,2.606,0,0,1,85.165-.9V-6.519a2.606,2.606,0,0,1,.751-1.948A2.706,2.706,0,0,1,87.9-9.2a2.732,2.732,0,0,1,1.987.736A2.611,2.611,0,0,1,90.641-6.5v.644a.135.135,0,0,1-.038.114.135.135,0,0,1-.114.039H89.336a.135.135,0,0,1-.114-.039.135.135,0,0,1-.038-.114v-.675a1.428,1.428,0,0,0-.356-1.013,1.214,1.214,0,0,0-.933-.384,1.214,1.214,0,0,0-.933.384,1.428,1.428,0,0,0-.356,1.013V-.889A1.428,1.428,0,0,0,86.962.123,1.214,1.214,0,0,0,87.9.507a1.214,1.214,0,0,0,.933-.384A1.428,1.428,0,0,0,89.189-.89V-2.577a.054.054,0,0,0-.015-.046.054.054,0,0,0-.046-.015H87.971a.135.135,0,0,1-.114-.039.135.135,0,0,1-.038-.114v-.951a.135.135,0,0,1,.038-.114.135.135,0,0,1,.114-.039h2.518a.135.135,0,0,1,.114.039.135.135,0,0,1,.038.114V-.9a2.592,2.592,0,0,1-.758,1.948A2.732,2.732,0,0,1,87.9,1.78Zm9.5-9.742a.135.135,0,0,1-.038.114.135.135,0,0,1-.114.039H93.827a.054.054,0,0,0-.046.015.054.054,0,0,0-.015.046v3.329a.054.054,0,0,0,.015.046.054.054,0,0,0,.046.015H95.92a.135.135,0,0,1,.114.039.135.135,0,0,1,.038.114v.966a.135.135,0,0,1-.038.114.135.135,0,0,1-.114.039H93.827a.054.054,0,0,0-.046.015.054.054,0,0,0-.015.046V.323a.054.054,0,0,0,.061.061H97.24a.135.135,0,0,1,.152.153V1.5a.135.135,0,0,1-.152.153H92.461A.135.135,0,0,1,92.31,1.5V-8.928a.135.135,0,0,1,.038-.114.135.135,0,0,1,.114-.039H97.24a.135.135,0,0,1,.114.039.135.135,0,0,1,.038.114Z" transform="translate(889.48 70.366)" fill="#00387c"/>
    <path id="Type" d="M2.724,3.825a.313.313,0,0,1-.354-.354V-20.6a.313.313,0,0,1,.089-.265.313.313,0,0,1,.265-.089H3.892a.313.313,0,0,1,.265.089.313.313,0,0,1,.089.265V3.471a.313.313,0,0,1-.354.354Zm12.816.283A5.556,5.556,0,0,1,11.38,2.5,5.887,5.887,0,0,1,9.8-1.8V-15.4a5.778,5.778,0,0,1,1.575-4.248,5.589,5.589,0,0,1,4.16-1.593,5.635,5.635,0,0,1,4.2,1.593A5.778,5.778,0,0,1,21.31-15.4v.673a.383.383,0,0,1-.106.283.34.34,0,0,1-.248.106l-1.168.071a.313.313,0,0,1-.265-.089.313.313,0,0,1-.089-.265V-15.5a4.109,4.109,0,0,0-1.062-2.956,3.728,3.728,0,0,0-2.832-1.115,3.684,3.684,0,0,0-2.8,1.115A4.109,4.109,0,0,0,11.681-15.5V-1.662a4.172,4.172,0,0,0,1.062,2.974,3.655,3.655,0,0,0,2.8,1.133,3.712,3.712,0,0,0,2.815-1.133,4.132,4.132,0,0,0,1.08-2.974v-.814a.313.313,0,0,1,.089-.265.313.313,0,0,1,.265-.089l1.168.071a.313.313,0,0,1,.265.089.313.313,0,0,1,.089.265v.6a5.887,5.887,0,0,1-1.575,4.3,5.6,5.6,0,0,1-4.2,1.613Zm21.1-.283a.413.413,0,0,1-.425-.283L32.321-7.681a.139.139,0,0,0-.142-.106h-3.5a.125.125,0,0,0-.107.035.125.125,0,0,0-.035.107V3.471a.313.313,0,0,1-.354.354H27.01a.313.313,0,0,1-.354-.354V-20.6a.313.313,0,0,1,.089-.265.313.313,0,0,1,.265-.089H32.5a4.938,4.938,0,0,1,4,1.841A7.31,7.31,0,0,1,38.021-14.3a7.541,7.541,0,0,1-1.027,4.036A5.17,5.17,0,0,1,34.2-8a.129.129,0,0,0-.1.062.129.129,0,0,0-.009.115l4,11.258.035.142q0,.248-.319.248ZM28.674-19.293a.125.125,0,0,0-.107.035.125.125,0,0,0-.035.107v9.665a.125.125,0,0,0,.035.107.125.125,0,0,0,.107.035h3.611a3.374,3.374,0,0,0,2.8-1.363A5.684,5.684,0,0,0,36.144-14.3a5.745,5.745,0,0,0-1.062-3.629,3.374,3.374,0,0,0-2.8-1.363ZM46.34,3.825a.313.313,0,0,1-.354-.354V-7.5a.28.28,0,0,0-.035-.177L41.065-20.532l-.035-.142q0-.283.319-.283h1.239a.413.413,0,0,1,.425.283L46.836-9.84a.113.113,0,0,0,.106.071.113.113,0,0,0,.106-.071l3.788-10.833a.413.413,0,0,1,.425-.283H52.5a.3.3,0,0,1,.266.124.3.3,0,0,1,.018.3L47.9-7.681a.28.28,0,0,0-.035.177V3.471a.313.313,0,0,1-.354.354ZM62.59-21.028a4.92,4.92,0,0,1,4,1.859A7.438,7.438,0,0,1,68.113-14.3a7.28,7.28,0,0,1-1.5,4.815,4.889,4.889,0,0,1-3.947,1.806h-3.93a.125.125,0,0,0-.107.035.125.125,0,0,0-.035.107V3.471a.313.313,0,0,1-.354.354H57.067a.313.313,0,0,1-.354-.354V-20.674a.313.313,0,0,1,.089-.265.313.313,0,0,1,.265-.089ZM62.378-9.239a3.359,3.359,0,0,0,2.8-1.381,5.821,5.821,0,0,0,1.062-3.646,5.883,5.883,0,0,0-1.062-3.682,3.359,3.359,0,0,0-2.8-1.381H58.731a.125.125,0,0,0-.107.035.125.125,0,0,0-.035.107V-9.38a.125.125,0,0,0,.035.107.125.125,0,0,0,.107.035Zm21.17-10.408a.313.313,0,0,1-.089.265.313.313,0,0,1-.265.089H74.8a.125.125,0,0,0-.107.035.125.125,0,0,0-.035.107v9.594a.125.125,0,0,0,.035.107.125.125,0,0,0,.107.035h5.381a.313.313,0,0,1,.265.089.313.313,0,0,1,.089.265V-8.1a.313.313,0,0,1-.089.265.313.313,0,0,1-.265.089H74.8a.125.125,0,0,0-.107.035.125.125,0,0,0-.035.107V2.02a.125.125,0,0,0,.142.142h8.39a.313.313,0,0,1,.354.354v.956a.313.313,0,0,1-.354.354H73.14a.313.313,0,0,1-.354-.354V-20.6a.313.313,0,0,1,.089-.265.313.313,0,0,1,.265-.089H83.194a.313.313,0,0,1,.265.089.313.313,0,0,1,.089.265ZM87.443,3.825a.29.29,0,0,1-.284-.424L92.187-8.46a.177.177,0,0,0,0-.212L87.16-20.532l-.035-.142q0-.283.319-.283h1.275a.389.389,0,0,1,.389.283l4,10.09q.035.106.106.106t.106-.106l4-10.09a.389.389,0,0,1,.389-.283h1.239a.3.3,0,0,1,.266.124.3.3,0,0,1,.018.3L94.2-8.637a.328.328,0,0,0,0,.212L99.232,3.4l.035.142q0,.283-.319.283H97.71a.389.389,0,0,1-.389-.283l-4-10.054q-.035-.106-.106-.089a.158.158,0,0,0-.106.089L89.071,3.542a.389.389,0,0,1-.389.283Z" transform="translate(887.734 53.497)" fill="#00387c"/>
    <g id="Symbol" transform="translate(837.001 29)">
      <path id="Path" d="M788.535,555.392a1.748,1.748,0,0,0-2.473,0l-9.573,9.576a1.746,1.746,0,1,0,2.469,2.469l10.8-10.8a.017.017,0,0,0,0-.024Z" transform="translate(-767.833 -528.092)" fill="url(#linear-gradient)"/>
      <path id="Path-2" data-name="Path" d="M827.365,563.957l-15.808-15.814a1.762,1.762,0,0,0-2.493,0l-2.221,2.222a.016.016,0,0,0,.021.024,1.746,1.746,0,0,1,2.212.212l15.757,15.762a1.806,1.806,0,0,0,2.416.17,1.747,1.747,0,0,0,.116-2.576Z" transform="translate(-788.419 -523.253)" fill="url(#linear-gradient-2)"/>
      <path id="Path-3" data-name="Path" d="M818.261,498.431a1.749,1.749,0,0,0,2.474-.005l9.578-9.582a1.746,1.746,0,1,0-2.468-2.469l-10.806,10.81a.017.017,0,0,0,0,.024Z" transform="translate(-795.22 -482.06)" fill="url(#linear-gradient-3)"/>
      <path id="Path-4" data-name="Path" d="M764.925,477.415l15.808,15.814a1.762,1.762,0,0,0,2.493,0l2.221-2.222a.016.016,0,0,0-.021-.024,1.746,1.746,0,0,1-2.212-.212l-15.757-15.762a1.806,1.806,0,0,0-2.416-.17,1.747,1.747,0,0,0-.116,2.576Z" transform="translate(-760.121 -474.453)" fill="url(#linear-gradient-4)"/>
      <path id="Path-5" data-name="Path" d="M775.471,511.312a1.764,1.764,0,0,0,0-2.494l-9.5-9.5a1.807,1.807,0,0,0-2.418-.17,1.749,1.749,0,0,0-.111,2.579l10.8,10.8a.017.017,0,0,0,.024,0Z" transform="translate(-759.129 -490.661)" fill="url(#linear-gradient-5)"/>
      <path id="Path-6" data-name="Path" d="M754.482,550.1l15.808-15.814a1.764,1.764,0,0,0,0-2.493l-2.221-2.221a.016.016,0,0,0-.02,0,.016.016,0,0,0,0,.02,1.747,1.747,0,0,1-.212,2.213l-15.757,15.762a1.807,1.807,0,0,0-.169,2.417,1.745,1.745,0,0,0,2.574.115Z" transform="translate(-751.521 -511.211)" fill="url(#linear-gradient-6)"/>
      <path id="Path-7" data-name="Path" d="M832.511,541.362a1.751,1.751,0,0,0,.007,2.476l9.591,9.594a1.746,1.746,0,1,0,2.468-2.47l-10.82-10.824a.017.017,0,0,0-.024,0Z" transform="translate(-805.205 -518.256)" fill="url(#linear-gradient-7)"/>
      <path id="Path-8" data-name="Path" d="M841.059,488l-15.808,15.814a1.764,1.764,0,0,0,0,2.494l2.221,2.221a.016.016,0,0,0,.024-.021,1.747,1.747,0,0,1,.212-2.213l15.757-15.762a1.807,1.807,0,0,0,.169-2.417,1.745,1.745,0,0,0-2.575-.116Z" transform="translate(-800.357 -483.146)" fill="url(#linear-gradient-8)"/>
    </g>
  </g>
</svg>
