<?xml version="1.0" encoding="utf-8"?>
<!-- Generator: Adobe Illustrator 22.0.0, SVG Export Plug-In . SVG Version: 6.00 Build 0)  -->
<svg version="1.1" id="Layer_1" xmlns="http://www.w3.org/2000/svg" xmlns:xlink="http://www.w3.org/1999/xlink" x="0px" y="0px"
	 viewBox="0 0 17 17" style="enable-background:new 0 0 17 17;" xml:space="preserve">
<style type="text/css">
	.st0{fill:#0A93EA;}
</style>
<path id="Search_Icon" class="st0" d="M10.7,12.2c-3,2.2-7.2,1.4-9.4-1.6s-1.4-7.2,1.6-9.4s7.2-1.4,9.4,1.6c1.7,2.3,1.7,5.5,0,7.8
	l4.4,4.4c0.4,0.4,0.4,1.1,0,1.6c0,0,0,0,0,0l0,0c-0.4,0.4-1.1,0.4-1.6,0C15.1,16.7,10.7,12.2,10.7,12.2z M6.7,11.9
	c2.8,0,5.2-2.3,5.2-5.2S9.6,1.6,6.7,1.6S1.6,3.9,1.6,6.7C1.6,9.6,3.9,11.9,6.7,11.9L6.7,11.9z"/>
</svg>
