<svg xmlns="http://www.w3.org/2000/svg" width="50" height="34.098" viewBox="0 0 50 34.098">
  <defs>
    <style>
      .cls-1 {
        fill: #004378;
      }
    </style>
  </defs>
  <path id="Segwit_Icon" class="cls-1" d="M794.175,877.861l-7.951,7.951-7.951-7.951-17.061,17.061,17.037,17.037,7.951-7.951,4.573,4.568,3.378,3.382,17.061-17.06Zm-.024,32.415L778.8,894.922l3.352-3.352-.841-.841-4.193,4.193,8.245,8.245-7.11,7.109-15.354-15.354,15.379-15.379L793.628,894.9l-2.258,2.258c-.45.45-.83.836-1.108,1.122.124.127.269.275.433.439l.4.4,4.217-4.217-8.245-8.245,7.11-7.11L809.53,894.9Z" transform="translate(-761.214 -877.861)"/>
</svg>
