<svg xmlns="http://www.w3.org/2000/svg" width="38" height="41.895" viewBox="0 0 38 41.895">
  <defs>
    <style>
      .cls-1 {
        fill: #004378;
        stroke: rgba(0,0,0,0);
      }
    </style>
  </defs>
  <path id="Speed_Icon" class="cls-1" d="M18472,18638.717a18.321,18.321,0,0,1,17.574-18.125v-2.771h-4.621V18616h11.1v1.82h-4.621v2.771a18.556,18.556,0,0,1,11.459,4.668l3.225-3.164,1.307,1.285-3.223,3.164a17.919,17.919,0,0,1,4.8,12.172,18.5,18.5,0,0,1-37,0Zm1.854,0a16.651,16.651,0,1,0,16.646-16.357A16.523,16.523,0,0,0,18473.85,18638.717Zm12.518.164a3.879,3.879,0,0,1,5.857-3.281l6.67-6.557,1.377,1.355-6.67,6.555a3.715,3.715,0,0,1,.553,1.928,3.894,3.894,0,0,1-7.787,0Zm1.947,0a1.947,1.947,0,1,0,1.945-1.908A1.935,1.935,0,0,0,18488.314,18638.881Zm-10.77.27a13.529,13.529,0,0,1,13.631-13.395,13.711,13.711,0,0,1,6.027,1.377l-.861,1.719a11.716,11.716,0,0,0-5.166-1.18,11.6,11.6,0,0,0-11.684,11.479Z" transform="translate(-18471.496 -18615.5)"/>
</svg>
