<svg xmlns="http://www.w3.org/2000/svg" width="134.8" height="86.439" viewBox="0 0 134.8 86.439">
  <g id="App_Store_Button" transform="translate(-1324.821 -1342.052)">
    <g id="App_Store_Button-2" data-name="App_Store_Button" transform="translate(1324.821 1342.052)">
      <path id="App_Store" data-name="App Store" d="M30.7,19.955H28.321V4.562h2.3V6.486h.044A4.115,4.115,0,0,1,34.216,4.44h.132c2.959,0,4.87,2.318,4.87,5.905s-1.9,5.9-4.827,5.9c-.068,0-.137,0-.205,0a3.919,3.919,0,0,1-3.434-2.03H30.7v5.728Zm3.024-13.49c-1.815,0-3.034,1.56-3.034,3.882s1.219,3.891,3.034,3.891c1.857,0,3.057-1.527,3.057-3.891s-1.2-3.882-3.062-3.882ZM17.965,19.955H15.591V4.562h2.3V6.486h.044A4.115,4.115,0,0,1,21.486,4.44h.132c2.959,0,4.87,2.318,4.87,5.905s-1.9,5.9-4.827,5.9c-.068,0-.137,0-.2,0a3.919,3.919,0,0,1-3.434-2.03h-.055v5.728Zm3.024-13.49c-1.815,0-3.034,1.56-3.034,3.882s1.219,3.891,3.034,3.891c1.857,0,3.057-1.527,3.057-3.891S22.846,6.465,20.989,6.465Zm30.257,9.928c-3.522,0-5.9-1.839-6.047-4.685H47.63c.174,1.56,1.7,2.607,3.792,2.607,1.994,0,3.441-1.031,3.441-2.451,0-1.23-.874-1.97-2.924-2.474l-2.057-.5c-2.909-.7-4.265-2.062-4.265-4.276C45.618,1.9,47.992,0,51.39,0c3.347,0,5.649,1.856,5.728,4.617h-2.4c-.141-1.566-1.43-2.539-3.364-2.539-1.9,0-3.222.976-3.222,2.374,0,1.118.835,1.781,2.881,2.287l1.748.429c3.229.763,4.607,2.078,4.607,4.4,0,2.976-2.343,4.825-6.121,4.825Zm39.533-.121c-3.364,0-5.453-2.25-5.453-5.872s2.1-5.981,5.353-5.981c3.216,0,5.213,2.186,5.213,5.7v.814H87.723v.144a3.012,3.012,0,0,0,3,3.278h.112c.081.008.164.012.246.012a2.6,2.6,0,0,0,2.425-1.638H95.76c-.317,2.083-2.366,3.539-4.981,3.539Zm-.117-9.928A2.911,2.911,0,0,0,88.6,7.2a2.955,2.955,0,0,0-.861,2.082h5.783a2.781,2.781,0,0,0-2.776-2.936h-.079ZM71.454,16.273c-3.384,0-5.486-2.271-5.486-5.926a6.218,6.218,0,0,1,1.489-4.329,5.8,5.8,0,0,1,8,0,6.222,6.222,0,0,1,1.486,4.329C76.941,14,74.838,16.273,71.454,16.273Zm0-9.9c-1.92,0-3.066,1.484-3.066,3.97s1.146,3.968,3.066,3.968,3.068-1.483,3.068-3.968-1.147-3.966-3.068-3.966ZM63.484,16.2h-.119c-2.342,0-3.255-.876-3.255-3.123V6.442H58.428V4.562H60.11V1.826h2.385V4.562h2.2v1.88h-2.2v6.377c0,.991.447,1.452,1.407,1.452a7.452,7.452,0,0,0,.782-.055v1.87a6.6,6.6,0,0,1-1.2.114ZM2.561,16.13H0L5.728.264H8.389l5.728,15.863h-2.6L10.061,11.84H4.014L2.562,16.129ZM7,2.9,4.639,9.863H9.433L7.07,2.9ZM81.273,16.129H78.9V4.562h2.264V6.531h.055A2.756,2.756,0,0,1,83.895,4.44h.121a3.653,3.653,0,0,1,.8.089V6.75a3.318,3.318,0,0,0-.964-.144h-.2a2.391,2.391,0,0,0-2.375,2.663v6.859Z" transform="translate(38.908 17.484)" fill="#004378"/>
      <path id="Apple_Icon" d="M8.768,33.891c-2.221,0-3.955-2.478-5.221-4.287A21.593,21.593,0,0,1,.278,21.437c-.427-2.419-.574-5.93,1.15-8.916A8.318,8.318,0,0,1,8.39,8.275h.1a9.328,9.328,0,0,1,3.41.881,6.381,6.381,0,0,0,2.112.612,6.547,6.547,0,0,0,2.029-.6,10.886,10.886,0,0,1,3.906-.992,5.223,5.223,0,0,1,.543.028,7.923,7.923,0,0,1,6.21,3.357,7.664,7.664,0,0,0-3.668,6.461,7.434,7.434,0,0,0,4.544,6.847,17.035,17.035,0,0,1-2.363,4.813c-1.5,2.251-2.933,4.118-5.169,4.155h-.123a5.868,5.868,0,0,1-2.5-.623,6.863,6.863,0,0,0-2.97-.7,7.273,7.273,0,0,0-3.125.727,6.541,6.541,0,0,1-2.445.649ZM13.8,7.815h-.064a7.163,7.163,0,0,1,1.78-5.232,7.7,7.7,0,0,1,5-2.583,7.544,7.544,0,0,1-1.735,5.432A6.349,6.349,0,0,1,13.8,7.815Z" fill="#004378"/>
      <path id="Path_1" data-name="Path 1" d="M.811,14.15V12.606a2.035,2.035,0,0,0,.416.34,2.958,2.958,0,0,0,.511.255,3.512,3.512,0,0,0,.54.161,2.437,2.437,0,0,0,.5.057A1.86,1.86,0,0,0,3.96,13.1a1.107,1.107,0,0,0,.389-.914,1.141,1.141,0,0,0-.13-.558,1.52,1.52,0,0,0-.363-.432,3.717,3.717,0,0,0-.548-.375q-.315-.18-.675-.375-.387-.246-.72-.5a3.275,3.275,0,0,1-.58-.558,2.4,2.4,0,0,1-.387-.69,2.625,2.625,0,0,1-.14-.9A2.392,2.392,0,0,1,1.047,6.7a2.284,2.284,0,0,1,.636-.775,2.692,2.692,0,0,1,.9-.454,3.622,3.622,0,0,1,1.028-.148,3.562,3.562,0,0,1,1.737.321V7.124a2.464,2.464,0,0,0-1.663-.555,2.521,2.521,0,0,0-.559.063,1.5,1.5,0,0,0-.5.208,1.162,1.162,0,0,0-.358.372,1.037,1.037,0,0,0-.138.548,1.2,1.2,0,0,0,.106.523,1.3,1.3,0,0,0,.31.4,3.117,3.117,0,0,0,.5.356q.294.173.681.375a8.954,8.954,0,0,1,.75.517,3.736,3.736,0,0,1,.62.6,2.691,2.691,0,0,1,.424.728,2.488,2.488,0,0,1,.156.911,2.6,2.6,0,0,1-.233,1.159,2.109,2.109,0,0,1-.628.769,2.559,2.559,0,0,1-.908.429,4.339,4.339,0,0,1-1.086.132,3.9,3.9,0,0,1-.469-.035q-.278-.035-.569-.1a4.561,4.561,0,0,1-.551-.161A1.615,1.615,0,0,1,.811,14.15Zm8.682.51a3.168,3.168,0,0,1-2.63-1.267,5.2,5.2,0,0,1-.988-3.3A5.529,5.529,0,0,1,6.881,6.619a3.274,3.274,0,0,1,2.733-1.3,3.1,3.1,0,0,1,2.577,1.26,5.228,5.228,0,0,1,.977,3.3,5.55,5.55,0,0,1-1,3.5A3.218,3.218,0,0,1,9.492,14.66Zm.058-8.022a2,2,0,0,0-1.7.926A4.141,4.141,0,0,0,7.2,10a4.189,4.189,0,0,0,.636,2.426,1.939,1.939,0,0,0,1.663.92,2.009,2.009,0,0,0,1.722-.876,4.139,4.139,0,0,0,.63-2.451,4.356,4.356,0,0,0-.612-2.5A1.943,1.943,0,0,0,9.551,6.638Zm7.437,8.022a3.168,3.168,0,0,1-2.63-1.267,5.2,5.2,0,0,1-.988-3.3,5.529,5.529,0,0,1,1.006-3.478,3.274,3.274,0,0,1,2.733-1.3,3.1,3.1,0,0,1,2.577,1.26,5.228,5.228,0,0,1,.977,3.3,5.55,5.55,0,0,1-1,3.5A3.218,3.218,0,0,1,16.987,14.66Zm.058-8.022a2,2,0,0,0-1.7.926A4.141,4.141,0,0,0,14.694,10a4.189,4.189,0,0,0,.636,2.426,1.939,1.939,0,0,0,1.663.92,2.009,2.009,0,0,0,1.722-.876,4.139,4.139,0,0,0,.63-2.451,4.356,4.356,0,0,0-.612-2.5A1.943,1.943,0,0,0,17.046,6.638Zm10.747,7.871H26.416L22.787,7.867a3.181,3.181,0,0,1-.228-.523h-.032a11.053,11.053,0,0,1,.042,1.241v5.923H21.352V5.473h1.467l3.507,6.484q.222.4.286.555h.021A9.534,9.534,0,0,1,26.58,11.3V5.473h1.213Z" transform="translate(39 -1.577)" fill="#004378"/>
    </g>
    <g id="App_Store_Button-3" data-name="App_Store_Button" transform="translate(1324.821 1391.052)">
      <path id="App_Store-2" data-name="App Store" d="M30.7,19.955H28.321V4.562h2.3V6.486h.044A4.115,4.115,0,0,1,34.216,4.44h.132c2.959,0,4.87,2.318,4.87,5.905s-1.9,5.9-4.827,5.9c-.068,0-.137,0-.205,0a3.919,3.919,0,0,1-3.434-2.03H30.7v5.728Zm3.024-13.49c-1.815,0-3.034,1.56-3.034,3.882s1.219,3.891,3.034,3.891c1.857,0,3.057-1.527,3.057-3.891s-1.2-3.882-3.062-3.882ZM17.965,19.955H15.591V4.562h2.3V6.486h.044A4.115,4.115,0,0,1,21.486,4.44h.132c2.959,0,4.87,2.318,4.87,5.905s-1.9,5.9-4.827,5.9c-.068,0-.137,0-.2,0a3.919,3.919,0,0,1-3.434-2.03h-.055v5.728Zm3.024-13.49c-1.815,0-3.034,1.56-3.034,3.882s1.219,3.891,3.034,3.891c1.857,0,3.057-1.527,3.057-3.891S22.846,6.465,20.989,6.465Zm30.257,9.928c-3.522,0-5.9-1.839-6.047-4.685H47.63c.174,1.56,1.7,2.607,3.792,2.607,1.994,0,3.441-1.031,3.441-2.451,0-1.23-.874-1.97-2.924-2.474l-2.057-.5c-2.909-.7-4.265-2.062-4.265-4.276C45.618,1.9,47.992,0,51.39,0c3.347,0,5.649,1.856,5.728,4.617h-2.4c-.141-1.566-1.43-2.539-3.364-2.539-1.9,0-3.222.976-3.222,2.374,0,1.118.835,1.781,2.881,2.287l1.748.429c3.229.763,4.607,2.078,4.607,4.4,0,2.976-2.343,4.825-6.121,4.825Zm39.533-.121c-3.364,0-5.453-2.25-5.453-5.872s2.1-5.981,5.353-5.981c3.216,0,5.213,2.186,5.213,5.7v.814H87.723v.144a3.012,3.012,0,0,0,3,3.278h.112c.081.008.164.012.246.012a2.6,2.6,0,0,0,2.425-1.638H95.76c-.317,2.083-2.366,3.539-4.981,3.539Zm-.117-9.928A2.911,2.911,0,0,0,88.6,7.2a2.955,2.955,0,0,0-.861,2.082h5.783a2.781,2.781,0,0,0-2.776-2.936h-.079ZM71.454,16.273c-3.384,0-5.486-2.271-5.486-5.926a6.218,6.218,0,0,1,1.489-4.329,5.8,5.8,0,0,1,8,0,6.222,6.222,0,0,1,1.486,4.329C76.941,14,74.838,16.273,71.454,16.273Zm0-9.9c-1.92,0-3.066,1.484-3.066,3.97s1.146,3.968,3.066,3.968,3.068-1.483,3.068-3.968-1.147-3.966-3.068-3.966ZM63.484,16.2h-.119c-2.342,0-3.255-.876-3.255-3.123V6.442H58.428V4.562H60.11V1.826h2.385V4.562h2.2v1.88h-2.2v6.377c0,.991.447,1.452,1.407,1.452a7.452,7.452,0,0,0,.782-.055v1.87a6.6,6.6,0,0,1-1.2.114ZM2.561,16.13H0L5.728.264H8.389l5.728,15.863h-2.6L10.061,11.84H4.014L2.562,16.129ZM7,2.9,4.639,9.863H9.433L7.07,2.9ZM81.273,16.129H78.9V4.562h2.264V6.531h.055A2.756,2.756,0,0,1,83.895,4.44h.121a3.653,3.653,0,0,1,.8.089V6.75a3.318,3.318,0,0,0-.964-.144h-.2a2.391,2.391,0,0,0-2.375,2.663v6.859Z" transform="translate(38.908 17.484)" fill="#004378"/>
      <path id="Apple_Icon-2" data-name="Apple_Icon" d="M8.768,33.891c-2.221,0-3.955-2.478-5.221-4.287A21.593,21.593,0,0,1,.278,21.437c-.427-2.419-.574-5.93,1.15-8.916A8.318,8.318,0,0,1,8.39,8.275h.1a9.328,9.328,0,0,1,3.41.881,6.381,6.381,0,0,0,2.112.612,6.547,6.547,0,0,0,2.029-.6,10.886,10.886,0,0,1,3.906-.992,5.223,5.223,0,0,1,.543.028,7.923,7.923,0,0,1,6.21,3.357,7.664,7.664,0,0,0-3.668,6.461,7.434,7.434,0,0,0,4.544,6.847,17.035,17.035,0,0,1-2.363,4.813c-1.5,2.251-2.933,4.118-5.169,4.155h-.123a5.868,5.868,0,0,1-2.5-.623,6.863,6.863,0,0,0-2.97-.7,7.273,7.273,0,0,0-3.125.727,6.541,6.541,0,0,1-2.445.649ZM13.8,7.815h-.064a7.163,7.163,0,0,1,1.78-5.232,7.7,7.7,0,0,1,5-2.583,7.544,7.544,0,0,1-1.735,5.432A6.349,6.349,0,0,1,13.8,7.815Z" fill="#098cdf"/>
      <path id="Path_2" data-name="Path 2" d="M.811,14.15V12.606a2.035,2.035,0,0,0,.416.34,2.958,2.958,0,0,0,.511.255,3.512,3.512,0,0,0,.54.161,2.437,2.437,0,0,0,.5.057A1.86,1.86,0,0,0,3.96,13.1a1.107,1.107,0,0,0,.389-.914,1.141,1.141,0,0,0-.13-.558,1.52,1.52,0,0,0-.363-.432,3.717,3.717,0,0,0-.548-.375q-.315-.18-.675-.375-.387-.246-.72-.5a3.275,3.275,0,0,1-.58-.558,2.4,2.4,0,0,1-.387-.69,2.625,2.625,0,0,1-.14-.9A2.392,2.392,0,0,1,1.047,6.7a2.284,2.284,0,0,1,.636-.775,2.692,2.692,0,0,1,.9-.454,3.622,3.622,0,0,1,1.028-.148,3.562,3.562,0,0,1,1.737.321V7.124a2.464,2.464,0,0,0-1.663-.555,2.521,2.521,0,0,0-.559.063,1.5,1.5,0,0,0-.5.208,1.162,1.162,0,0,0-.358.372,1.037,1.037,0,0,0-.138.548,1.2,1.2,0,0,0,.106.523,1.3,1.3,0,0,0,.31.4,3.117,3.117,0,0,0,.5.356q.294.173.681.375a8.954,8.954,0,0,1,.75.517,3.736,3.736,0,0,1,.62.6,2.691,2.691,0,0,1,.424.728,2.488,2.488,0,0,1,.156.911,2.6,2.6,0,0,1-.233,1.159,2.109,2.109,0,0,1-.628.769,2.559,2.559,0,0,1-.908.429,4.339,4.339,0,0,1-1.086.132,3.9,3.9,0,0,1-.469-.035q-.278-.035-.569-.1a4.561,4.561,0,0,1-.551-.161A1.615,1.615,0,0,1,.811,14.15Zm8.682.51a3.168,3.168,0,0,1-2.63-1.267,5.2,5.2,0,0,1-.988-3.3A5.529,5.529,0,0,1,6.881,6.619a3.274,3.274,0,0,1,2.733-1.3,3.1,3.1,0,0,1,2.577,1.26,5.228,5.228,0,0,1,.977,3.3,5.55,5.55,0,0,1-1,3.5A3.218,3.218,0,0,1,9.492,14.66Zm.058-8.022a2,2,0,0,0-1.7.926A4.141,4.141,0,0,0,7.2,10a4.189,4.189,0,0,0,.636,2.426,1.939,1.939,0,0,0,1.663.92,2.009,2.009,0,0,0,1.722-.876,4.139,4.139,0,0,0,.63-2.451,4.356,4.356,0,0,0-.612-2.5A1.943,1.943,0,0,0,9.551,6.638Zm7.437,8.022a3.168,3.168,0,0,1-2.63-1.267,5.2,5.2,0,0,1-.988-3.3,5.529,5.529,0,0,1,1.006-3.478,3.274,3.274,0,0,1,2.733-1.3,3.1,3.1,0,0,1,2.577,1.26,5.228,5.228,0,0,1,.977,3.3,5.55,5.55,0,0,1-1,3.5A3.218,3.218,0,0,1,16.987,14.66Zm.058-8.022a2,2,0,0,0-1.7.926A4.141,4.141,0,0,0,14.694,10a4.189,4.189,0,0,0,.636,2.426,1.939,1.939,0,0,0,1.663.92,2.009,2.009,0,0,0,1.722-.876,4.139,4.139,0,0,0,.63-2.451,4.356,4.356,0,0,0-.612-2.5A1.943,1.943,0,0,0,17.046,6.638Zm10.747,7.871H26.416L22.787,7.867a3.181,3.181,0,0,1-.228-.523h-.032a11.053,11.053,0,0,1,.042,1.241v5.923H21.352V5.473h1.467l3.507,6.484q.222.4.286.555h.021A9.534,9.534,0,0,1,26.58,11.3V5.473h1.213Z" transform="translate(39 -1.577)" fill="#004378"/>
    </g>
  </g>
</svg>
