<svg xmlns="http://www.w3.org/2000/svg" width="134.8" height="86.439" viewBox="0 0 134.8 86.439">
  <g id="App_Store_Button" transform="translate(-1324.821 -1342.052)">
    <g id="App_Store_Button-2" data-name="App_Store_Button" transform="translate(1324.821 1342.052)">
      <path id="App_Store" data-name="App Store" d="M30.7,19.955H28.321V4.562h2.3V6.486h.044A4.115,4.115,0,0,1,34.216,4.44h.132c2.959,0,4.87,2.318,4.87,5.905s-1.9,5.9-4.827,5.9h-.205a3.919,3.919,0,0,1-3.434-2.03H30.7v5.728Zm3.024-13.49c-1.815,0-3.034,1.56-3.034,3.882s1.219,3.891,3.034,3.891c1.857,0,3.057-1.527,3.057-3.891s-1.2-3.882-3.062-3.882ZM17.965,19.955H15.591V4.562h2.3V6.486h.044A4.115,4.115,0,0,1,21.486,4.44h.132c2.959,0,4.87,2.318,4.87,5.905s-1.9,5.9-4.827,5.9h-.2a3.919,3.919,0,0,1-3.434-2.03h-.055v5.728Zm3.024-13.49c-1.815,0-3.034,1.56-3.034,3.882s1.219,3.891,3.034,3.891c1.857,0,3.057-1.527,3.057-3.891S22.846,6.465,20.989,6.465Zm30.257,9.928c-3.522,0-5.9-1.839-6.047-4.685H47.63c.174,1.56,1.7,2.607,3.792,2.607,1.994,0,3.441-1.031,3.441-2.451,0-1.23-.874-1.97-2.924-2.474l-2.057-.5c-2.909-.7-4.265-2.062-4.265-4.276C45.618,1.9,47.992,0,51.39,0c3.347,0,5.649,1.856,5.728,4.617h-2.4c-.141-1.566-1.43-2.539-3.364-2.539-1.9,0-3.222.976-3.222,2.374,0,1.118.835,1.781,2.881,2.287l1.748.429c3.229.763,4.607,2.078,4.607,4.4,0,2.976-2.343,4.825-6.121,4.825Zm39.533-.121c-3.364,0-5.453-2.25-5.453-5.872s2.1-5.981,5.353-5.981c3.216,0,5.213,2.186,5.213,5.7v.814H87.723v.144a3.012,3.012,0,0,0,3,3.278h.112c.081.008.164.012.246.012a2.6,2.6,0,0,0,2.425-1.638H95.76c-.317,2.083-2.366,3.539-4.981,3.539Zm-.117-9.928A2.911,2.911,0,0,0,88.6,7.2a2.955,2.955,0,0,0-.861,2.082h5.783a2.781,2.781,0,0,0-2.776-2.936h-.079ZM71.454,16.273c-3.384,0-5.486-2.271-5.486-5.926a6.218,6.218,0,0,1,1.489-4.329,5.8,5.8,0,0,1,8,0,6.222,6.222,0,0,1,1.486,4.329C76.941,14,74.838,16.273,71.454,16.273Zm0-9.9c-1.92,0-3.066,1.484-3.066,3.97s1.146,3.968,3.066,3.968,3.068-1.483,3.068-3.968-1.147-3.966-3.068-3.966ZM63.484,16.2h-.119c-2.342,0-3.255-.876-3.255-3.123V6.442H58.428V4.562H60.11V1.826h2.385V4.562h2.2v1.88h-2.2v6.377c0,.991.447,1.452,1.407,1.452a7.452,7.452,0,0,0,.782-.055v1.87A6.6,6.6,0,0,1,63.484,16.2ZM2.561,16.13H0L5.728.264H8.389l5.728,15.863h-2.6L10.061,11.84H4.014L2.562,16.129ZM7,2.9,4.639,9.863H9.433L7.07,2.9ZM81.273,16.129H78.9V4.562h2.264V6.531h.055A2.756,2.756,0,0,1,83.895,4.44h.121a3.653,3.653,0,0,1,.8.089V6.75a3.318,3.318,0,0,0-.964-.144h-.2a2.391,2.391,0,0,0-2.375,2.663v6.859Z" transform="translate(38.908 17.484)" fill="#004378"/>
      <path id="Apple_Icon" d="M8.768,33.891c-2.221,0-3.955-2.478-5.221-4.287A21.593,21.593,0,0,1,.278,21.437c-.427-2.419-.574-5.93,1.15-8.916A8.318,8.318,0,0,1,8.39,8.275h.1a9.328,9.328,0,0,1,3.41.881,6.381,6.381,0,0,0,2.112.612,6.547,6.547,0,0,0,2.029-.6,10.886,10.886,0,0,1,3.906-.992,5.223,5.223,0,0,1,.543.028,7.923,7.923,0,0,1,6.21,3.357,7.664,7.664,0,0,0-3.668,6.461,7.434,7.434,0,0,0,4.544,6.847,17.035,17.035,0,0,1-2.363,4.813c-1.5,2.251-2.933,4.118-5.169,4.155h-.123a5.868,5.868,0,0,1-2.5-.623,6.863,6.863,0,0,0-2.97-.7,7.273,7.273,0,0,0-3.125.727,6.541,6.541,0,0,1-2.445.649ZM13.8,7.815h-.064a7.163,7.163,0,0,1,1.78-5.232,7.7,7.7,0,0,1,5-2.583,7.544,7.544,0,0,1-1.735,5.432A6.349,6.349,0,0,1,13.8,7.815Z" fill="#004378"/>
      <path id="Download" d="M1.008,0a.124.124,0,0,1-.14-.14V-9.66a.124.124,0,0,1,.14-.14H3.3a2.443,2.443,0,0,1,1.848.714,2.672,2.672,0,0,1,.686,1.932v4.508A2.672,2.672,0,0,1,5.152-.714,2.443,2.443,0,0,1,3.3,0Zm1.2-1.218a.049.049,0,0,0,.056.056L3.29-1.176a1.029,1.029,0,0,0,.854-.413A1.849,1.849,0,0,0,4.48-2.716V-7.084a1.819,1.819,0,0,0-.322-1.134,1.037,1.037,0,0,0-.868-.42H2.268a.049.049,0,0,0-.056.056ZM9.786.112a2.5,2.5,0,0,1-1.848-.7,2.517,2.517,0,0,1-.7-1.862V-7.336a2.541,2.541,0,0,1,.7-1.869,2.485,2.485,0,0,1,1.848-.707,2.527,2.527,0,0,1,1.869.707,2.527,2.527,0,0,1,.707,1.869V-2.45a2.5,2.5,0,0,1-.707,1.862A2.541,2.541,0,0,1,9.786.112Zm0-1.162a1.15,1.15,0,0,0,.9-.371,1.394,1.394,0,0,0,.336-.973V-7.406a1.394,1.394,0,0,0-.336-.973,1.15,1.15,0,0,0-.9-.371,1.112,1.112,0,0,0-.875.371,1.412,1.412,0,0,0-.329.973v5.012a1.412,1.412,0,0,0,.329.973A1.112,1.112,0,0,0,9.786-1.05ZM15.386,0a.144.144,0,0,1-.154-.126L13.37-9.646v-.028A.111.111,0,0,1,13.5-9.8H14.6a.134.134,0,0,1,.154.126L15.89-3.108q.014.028.028.028t.028-.028l1.008-6.566a.126.126,0,0,1,.14-.126h.938a.126.126,0,0,1,.14.126L19.25-3.108q.014.028.028.028t.028-.028l1.036-6.566a.137.137,0,0,1,.14-.126h1.092a.129.129,0,0,1,.1.042.128.128,0,0,1,.021.112L19.936-.126A.134.134,0,0,1,19.782,0h-.994a.137.137,0,0,1-.14-.126L17.584-6.748q-.014-.028-.035-.028t-.021.028L16.52-.126A.126.126,0,0,1,16.38,0Zm11.48-9.66a.124.124,0,0,1,.14-.14h1.05a.124.124,0,0,1,.14.14V-.14a.124.124,0,0,1-.14.14h-1.2A.154.154,0,0,1,26.7-.112l-2.38-6.4a.034.034,0,0,0-.042-.021.033.033,0,0,0-.028.035L24.262-.14a.124.124,0,0,1-.14.14H23.058a.124.124,0,0,1-.14-.14V-9.66a.124.124,0,0,1,.14-.14h1.19a.154.154,0,0,1,.154.112L26.8-3.29q.014.042.042.035t.028-.049ZM30.072,0a.124.124,0,0,1-.14-.14V-9.66a.124.124,0,0,1,.14-.14h1.064a.124.124,0,0,1,.14.14v8.442a.049.049,0,0,0,.056.056h3.136a.124.124,0,0,1,.14.14V-.14a.124.124,0,0,1-.14.14Zm7.882.112a2.5,2.5,0,0,1-1.848-.7,2.517,2.517,0,0,1-.7-1.862V-7.336a2.541,2.541,0,0,1,.7-1.869,2.485,2.485,0,0,1,1.848-.707,2.527,2.527,0,0,1,1.869.707,2.527,2.527,0,0,1,.707,1.869V-2.45a2.5,2.5,0,0,1-.707,1.862A2.541,2.541,0,0,1,37.954.112Zm0-1.162a1.15,1.15,0,0,0,.9-.371,1.394,1.394,0,0,0,.336-.973V-7.406a1.394,1.394,0,0,0-.336-.973,1.15,1.15,0,0,0-.9-.371,1.112,1.112,0,0,0-.875.371,1.412,1.412,0,0,0-.329.973v5.012a1.412,1.412,0,0,0,.329.973A1.112,1.112,0,0,0,37.954-1.05ZM45.822,0a.144.144,0,0,1-.154-.126l-.308-1.61a.047.047,0,0,0-.021-.042.086.086,0,0,0-.049-.014H43.008a.086.086,0,0,0-.049.014.047.047,0,0,0-.021.042l-.294,1.61A.134.134,0,0,1,42.49,0H41.426a.129.129,0,0,1-.1-.042A.128.128,0,0,1,41.3-.154l2.086-9.52A.144.144,0,0,1,43.54-9.8h1.246a.134.134,0,0,1,.154.126l2.1,9.52v.028A.111.111,0,0,1,46.914,0ZM43.176-2.912q0,.056.042.056H45.08q.042,0,.042-.056l-.952-4.97q-.014-.028-.028-.028t-.028.028ZM48.23,0a.124.124,0,0,1-.14-.14V-9.66a.124.124,0,0,1,.14-.14h2.3a2.443,2.443,0,0,1,1.848.714,2.672,2.672,0,0,1,.686,1.932v4.508a2.672,2.672,0,0,1-.686,1.932A2.443,2.443,0,0,1,50.526,0Zm1.2-1.218a.049.049,0,0,0,.056.056l1.022-.014a1.029,1.029,0,0,0,.854-.413A1.849,1.849,0,0,0,51.7-2.716V-7.084a1.819,1.819,0,0,0-.322-1.134,1.037,1.037,0,0,0-.868-.42H49.49a.049.049,0,0,0-.056.056ZM59.808.112a2.5,2.5,0,0,1-1.848-.7,2.517,2.517,0,0,1-.7-1.862V-7.336a2.541,2.541,0,0,1,.7-1.869,2.485,2.485,0,0,1,1.848-.707,2.527,2.527,0,0,1,1.869.707,2.527,2.527,0,0,1,.707,1.869V-2.45a2.5,2.5,0,0,1-.707,1.862A2.541,2.541,0,0,1,59.808.112Zm0-1.162a1.15,1.15,0,0,0,.9-.371,1.394,1.394,0,0,0,.336-.973V-7.406a1.394,1.394,0,0,0-.336-.973,1.15,1.15,0,0,0-.9-.371,1.112,1.112,0,0,0-.875.371,1.412,1.412,0,0,0-.329.973v5.012a1.412,1.412,0,0,0,.329.973A1.112,1.112,0,0,0,59.808-1.05Zm8.064-8.61a.124.124,0,0,1,.14-.14h1.05a.124.124,0,0,1,.14.14V-.14a.124.124,0,0,1-.14.14h-1.2A.154.154,0,0,1,67.7-.112l-2.38-6.4a.034.034,0,0,0-.042-.021.033.033,0,0,0-.028.035L65.268-.14a.124.124,0,0,1-.14.14H64.064a.124.124,0,0,1-.14-.14V-9.66a.124.124,0,0,1,.14-.14h1.19a.154.154,0,0,1,.154.112L67.8-3.29q.014.042.042.035t.028-.049ZM78.456-9.8a.124.124,0,0,1,.14.14v.882a.124.124,0,0,1-.14.14H76.622a.049.049,0,0,0-.056.056V-.14a.124.124,0,0,1-.14.14H75.362a.124.124,0,0,1-.14-.14V-8.582a.049.049,0,0,0-.056-.056H73.43a.124.124,0,0,1-.14-.14V-9.66a.124.124,0,0,1,.14-.14Zm5,.14a.124.124,0,0,1,.14-.14h1.064a.124.124,0,0,1,.14.14V-.14a.124.124,0,0,1-.14.14H83.594a.124.124,0,0,1-.14-.14V-4.27a.049.049,0,0,0-.056-.056H81.284a.049.049,0,0,0-.056.056V-.14a.124.124,0,0,1-.14.14H80.024a.124.124,0,0,1-.14-.14V-9.66a.124.124,0,0,1,.14-.14h1.064a.124.124,0,0,1,.14.14v4.116a.049.049,0,0,0,.056.056H83.4a.049.049,0,0,0,.056-.056Zm7.686.882a.124.124,0,0,1-.14.14H87.85a.049.049,0,0,0-.056.056v3.038a.049.049,0,0,0,.056.056h1.932a.124.124,0,0,1,.14.14v.882a.124.124,0,0,1-.14.14H87.85a.049.049,0,0,0-.056.056v3.052a.049.049,0,0,0,.056.056H91a.124.124,0,0,1,.14.14V-.14A.124.124,0,0,1,91,0H86.59a.124.124,0,0,1-.14-.14V-9.66a.124.124,0,0,1,.14-.14H91a.124.124,0,0,1,.14.14Z" transform="translate(39 13)" fill="#004378"/>
    </g>
    <g id="App_Store_Button-3" data-name="App_Store_Button" transform="translate(1324.821 1391.052)">
      <path id="App_Store-2" data-name="App Store" d="M30.7,19.955H28.321V4.562h2.3V6.486h.044A4.115,4.115,0,0,1,34.216,4.44h.132c2.959,0,4.87,2.318,4.87,5.905s-1.9,5.9-4.827,5.9h-.205a3.919,3.919,0,0,1-3.434-2.03H30.7v5.728Zm3.024-13.49c-1.815,0-3.034,1.56-3.034,3.882s1.219,3.891,3.034,3.891c1.857,0,3.057-1.527,3.057-3.891s-1.2-3.882-3.062-3.882ZM17.965,19.955H15.591V4.562h2.3V6.486h.044A4.115,4.115,0,0,1,21.486,4.44h.132c2.959,0,4.87,2.318,4.87,5.905s-1.9,5.9-4.827,5.9h-.2a3.919,3.919,0,0,1-3.434-2.03h-.055v5.728Zm3.024-13.49c-1.815,0-3.034,1.56-3.034,3.882s1.219,3.891,3.034,3.891c1.857,0,3.057-1.527,3.057-3.891S22.846,6.465,20.989,6.465Zm30.257,9.928c-3.522,0-5.9-1.839-6.047-4.685H47.63c.174,1.56,1.7,2.607,3.792,2.607,1.994,0,3.441-1.031,3.441-2.451,0-1.23-.874-1.97-2.924-2.474l-2.057-.5c-2.909-.7-4.265-2.062-4.265-4.276C45.618,1.9,47.992,0,51.39,0c3.347,0,5.649,1.856,5.728,4.617h-2.4c-.141-1.566-1.43-2.539-3.364-2.539-1.9,0-3.222.976-3.222,2.374,0,1.118.835,1.781,2.881,2.287l1.748.429c3.229.763,4.607,2.078,4.607,4.4,0,2.976-2.343,4.825-6.121,4.825Zm39.533-.121c-3.364,0-5.453-2.25-5.453-5.872s2.1-5.981,5.353-5.981c3.216,0,5.213,2.186,5.213,5.7v.814H87.723v.144a3.012,3.012,0,0,0,3,3.278h.112c.081.008.164.012.246.012a2.6,2.6,0,0,0,2.425-1.638H95.76c-.317,2.083-2.366,3.539-4.981,3.539Zm-.117-9.928A2.911,2.911,0,0,0,88.6,7.2a2.955,2.955,0,0,0-.861,2.082h5.783a2.781,2.781,0,0,0-2.776-2.936h-.079ZM71.454,16.273c-3.384,0-5.486-2.271-5.486-5.926a6.218,6.218,0,0,1,1.489-4.329,5.8,5.8,0,0,1,8,0,6.222,6.222,0,0,1,1.486,4.329C76.941,14,74.838,16.273,71.454,16.273Zm0-9.9c-1.92,0-3.066,1.484-3.066,3.97s1.146,3.968,3.066,3.968,3.068-1.483,3.068-3.968-1.147-3.966-3.068-3.966ZM63.484,16.2h-.119c-2.342,0-3.255-.876-3.255-3.123V6.442H58.428V4.562H60.11V1.826h2.385V4.562h2.2v1.88h-2.2v6.377c0,.991.447,1.452,1.407,1.452a7.452,7.452,0,0,0,.782-.055v1.87A6.6,6.6,0,0,1,63.484,16.2ZM2.561,16.13H0L5.728.264H8.389l5.728,15.863h-2.6L10.061,11.84H4.014L2.562,16.129ZM7,2.9,4.639,9.863H9.433L7.07,2.9ZM81.273,16.129H78.9V4.562h2.264V6.531h.055A2.756,2.756,0,0,1,83.895,4.44h.121a3.653,3.653,0,0,1,.8.089V6.75a3.318,3.318,0,0,0-.964-.144h-.2a2.391,2.391,0,0,0-2.375,2.663v6.859Z" transform="translate(38.908 17.484)" fill="#004378"/>
      <path id="Apple_Icon-2" data-name="Apple_Icon" d="M8.768,33.891c-2.221,0-3.955-2.478-5.221-4.287A21.593,21.593,0,0,1,.278,21.437c-.427-2.419-.574-5.93,1.15-8.916A8.318,8.318,0,0,1,8.39,8.275h.1a9.328,9.328,0,0,1,3.41.881,6.381,6.381,0,0,0,2.112.612,6.547,6.547,0,0,0,2.029-.6,10.886,10.886,0,0,1,3.906-.992,5.223,5.223,0,0,1,.543.028,7.923,7.923,0,0,1,6.21,3.357,7.664,7.664,0,0,0-3.668,6.461,7.434,7.434,0,0,0,4.544,6.847,17.035,17.035,0,0,1-2.363,4.813c-1.5,2.251-2.933,4.118-5.169,4.155h-.123a5.868,5.868,0,0,1-2.5-.623,6.863,6.863,0,0,0-2.97-.7,7.273,7.273,0,0,0-3.125.727,6.541,6.541,0,0,1-2.445.649ZM13.8,7.815h-.064a7.163,7.163,0,0,1,1.78-5.232,7.7,7.7,0,0,1,5-2.583,7.544,7.544,0,0,1-1.735,5.432A6.349,6.349,0,0,1,13.8,7.815Z" fill="#098cdf"/>
      <path id="Download-2" data-name="Download" d="M1.008,0a.124.124,0,0,1-.14-.14V-9.66a.124.124,0,0,1,.14-.14H3.3a2.443,2.443,0,0,1,1.848.714,2.672,2.672,0,0,1,.686,1.932v4.508A2.672,2.672,0,0,1,5.152-.714,2.443,2.443,0,0,1,3.3,0Zm1.2-1.218a.049.049,0,0,0,.056.056L3.29-1.176a1.029,1.029,0,0,0,.854-.413A1.849,1.849,0,0,0,4.48-2.716V-7.084a1.819,1.819,0,0,0-.322-1.134,1.037,1.037,0,0,0-.868-.42H2.268a.049.049,0,0,0-.056.056ZM9.786.112a2.5,2.5,0,0,1-1.848-.7,2.517,2.517,0,0,1-.7-1.862V-7.336a2.541,2.541,0,0,1,.7-1.869,2.485,2.485,0,0,1,1.848-.707,2.527,2.527,0,0,1,1.869.707,2.527,2.527,0,0,1,.707,1.869V-2.45a2.5,2.5,0,0,1-.707,1.862A2.541,2.541,0,0,1,9.786.112Zm0-1.162a1.15,1.15,0,0,0,.9-.371,1.394,1.394,0,0,0,.336-.973V-7.406a1.394,1.394,0,0,0-.336-.973,1.15,1.15,0,0,0-.9-.371,1.112,1.112,0,0,0-.875.371,1.412,1.412,0,0,0-.329.973v5.012a1.412,1.412,0,0,0,.329.973A1.112,1.112,0,0,0,9.786-1.05ZM15.386,0a.144.144,0,0,1-.154-.126L13.37-9.646v-.028A.111.111,0,0,1,13.5-9.8H14.6a.134.134,0,0,1,.154.126L15.89-3.108q.014.028.028.028t.028-.028l1.008-6.566a.126.126,0,0,1,.14-.126h.938a.126.126,0,0,1,.14.126L19.25-3.108q.014.028.028.028t.028-.028l1.036-6.566a.137.137,0,0,1,.14-.126h1.092a.129.129,0,0,1,.1.042.128.128,0,0,1,.021.112L19.936-.126A.134.134,0,0,1,19.782,0h-.994a.137.137,0,0,1-.14-.126L17.584-6.748q-.014-.028-.035-.028t-.021.028L16.52-.126A.126.126,0,0,1,16.38,0Zm11.48-9.66a.124.124,0,0,1,.14-.14h1.05a.124.124,0,0,1,.14.14V-.14a.124.124,0,0,1-.14.14h-1.2A.154.154,0,0,1,26.7-.112l-2.38-6.4a.034.034,0,0,0-.042-.021.033.033,0,0,0-.028.035L24.262-.14a.124.124,0,0,1-.14.14H23.058a.124.124,0,0,1-.14-.14V-9.66a.124.124,0,0,1,.14-.14h1.19a.154.154,0,0,1,.154.112L26.8-3.29q.014.042.042.035t.028-.049ZM30.072,0a.124.124,0,0,1-.14-.14V-9.66a.124.124,0,0,1,.14-.14h1.064a.124.124,0,0,1,.14.14v8.442a.049.049,0,0,0,.056.056h3.136a.124.124,0,0,1,.14.14V-.14a.124.124,0,0,1-.14.14Zm7.882.112a2.5,2.5,0,0,1-1.848-.7,2.517,2.517,0,0,1-.7-1.862V-7.336a2.541,2.541,0,0,1,.7-1.869,2.485,2.485,0,0,1,1.848-.707,2.527,2.527,0,0,1,1.869.707,2.527,2.527,0,0,1,.707,1.869V-2.45a2.5,2.5,0,0,1-.707,1.862A2.541,2.541,0,0,1,37.954.112Zm0-1.162a1.15,1.15,0,0,0,.9-.371,1.394,1.394,0,0,0,.336-.973V-7.406a1.394,1.394,0,0,0-.336-.973,1.15,1.15,0,0,0-.9-.371,1.112,1.112,0,0,0-.875.371,1.412,1.412,0,0,0-.329.973v5.012a1.412,1.412,0,0,0,.329.973A1.112,1.112,0,0,0,37.954-1.05ZM45.822,0a.144.144,0,0,1-.154-.126l-.308-1.61a.047.047,0,0,0-.021-.042.086.086,0,0,0-.049-.014H43.008a.086.086,0,0,0-.049.014.047.047,0,0,0-.021.042l-.294,1.61A.134.134,0,0,1,42.49,0H41.426a.129.129,0,0,1-.1-.042A.128.128,0,0,1,41.3-.154l2.086-9.52A.144.144,0,0,1,43.54-9.8h1.246a.134.134,0,0,1,.154.126l2.1,9.52v.028A.111.111,0,0,1,46.914,0ZM43.176-2.912q0,.056.042.056H45.08q.042,0,.042-.056l-.952-4.97q-.014-.028-.028-.028t-.028.028ZM48.23,0a.124.124,0,0,1-.14-.14V-9.66a.124.124,0,0,1,.14-.14h2.3a2.443,2.443,0,0,1,1.848.714,2.672,2.672,0,0,1,.686,1.932v4.508a2.672,2.672,0,0,1-.686,1.932A2.443,2.443,0,0,1,50.526,0Zm1.2-1.218a.049.049,0,0,0,.056.056l1.022-.014a1.029,1.029,0,0,0,.854-.413A1.849,1.849,0,0,0,51.7-2.716V-7.084a1.819,1.819,0,0,0-.322-1.134,1.037,1.037,0,0,0-.868-.42H49.49a.049.049,0,0,0-.056.056ZM59.808.112a2.5,2.5,0,0,1-1.848-.7,2.517,2.517,0,0,1-.7-1.862V-7.336a2.541,2.541,0,0,1,.7-1.869,2.485,2.485,0,0,1,1.848-.707,2.527,2.527,0,0,1,1.869.707,2.527,2.527,0,0,1,.707,1.869V-2.45a2.5,2.5,0,0,1-.707,1.862A2.541,2.541,0,0,1,59.808.112Zm0-1.162a1.15,1.15,0,0,0,.9-.371,1.394,1.394,0,0,0,.336-.973V-7.406a1.394,1.394,0,0,0-.336-.973,1.15,1.15,0,0,0-.9-.371,1.112,1.112,0,0,0-.875.371,1.412,1.412,0,0,0-.329.973v5.012a1.412,1.412,0,0,0,.329.973A1.112,1.112,0,0,0,59.808-1.05Zm8.064-8.61a.124.124,0,0,1,.14-.14h1.05a.124.124,0,0,1,.14.14V-.14a.124.124,0,0,1-.14.14h-1.2A.154.154,0,0,1,67.7-.112l-2.38-6.4a.034.034,0,0,0-.042-.021.033.033,0,0,0-.028.035L65.268-.14a.124.124,0,0,1-.14.14H64.064a.124.124,0,0,1-.14-.14V-9.66a.124.124,0,0,1,.14-.14h1.19a.154.154,0,0,1,.154.112L67.8-3.29q.014.042.042.035t.028-.049ZM78.456-9.8a.124.124,0,0,1,.14.14v.882a.124.124,0,0,1-.14.14H76.622a.049.049,0,0,0-.056.056V-.14a.124.124,0,0,1-.14.14H75.362a.124.124,0,0,1-.14-.14V-8.582a.049.049,0,0,0-.056-.056H73.43a.124.124,0,0,1-.14-.14V-9.66a.124.124,0,0,1,.14-.14Zm5,.14a.124.124,0,0,1,.14-.14h1.064a.124.124,0,0,1,.14.14V-.14a.124.124,0,0,1-.14.14H83.594a.124.124,0,0,1-.14-.14V-4.27a.049.049,0,0,0-.056-.056H81.284a.049.049,0,0,0-.056.056V-.14a.124.124,0,0,1-.14.14H80.024a.124.124,0,0,1-.14-.14V-9.66a.124.124,0,0,1,.14-.14h1.064a.124.124,0,0,1,.14.14v4.116a.049.049,0,0,0,.056.056H83.4a.049.049,0,0,0,.056-.056Zm7.686.882a.124.124,0,0,1-.14.14H87.85a.049.049,0,0,0-.056.056v3.038a.049.049,0,0,0,.056.056h1.932a.124.124,0,0,1,.14.14v.882a.124.124,0,0,1-.14.14H87.85a.049.049,0,0,0-.056.056v3.052a.049.049,0,0,0,.056.056H91a.124.124,0,0,1,.14.14V-.14A.124.124,0,0,1,91,0H86.59a.124.124,0,0,1-.14-.14V-9.66a.124.124,0,0,1,.14-.14H91a.124.124,0,0,1,.14.14Z" transform="translate(39 13)" fill="#004378"/>
    </g>
  </g>
</svg>
