<svg xmlns="http://www.w3.org/2000/svg" width="146.171" height="85.504" viewBox="0 0 146.171 85.504">
  <g id="Google_Play_Button" transform="translate(-1496.649 -1344.541)">
    <g id="Google_Play_Button-2" data-name="Google_Play_Button" transform="translate(1496.649 1345.36)">
      <path id="Type" d="M46.493,21.723a5.155,5.155,0,0,1-4.784-3.206l2.082-.869a2.989,2.989,0,0,0,2.733,1.929c1.844,0,2.9-1.164,2.9-3.194V15.6h-.077a3.7,3.7,0,0,1-2.8,1.278h-.062a5.442,5.442,0,0,1,0-10.871,3.842,3.842,0,0,1,2.862,1.277h.09V6.393h2.2v9.671A5.843,5.843,0,0,1,50.129,20.4a5,5,0,0,1-3.6,1.325ZM46.7,8.207h0a3.309,3.309,0,0,0,0,6.591h.005a3.04,3.04,0,0,0,2.9-3.3,3.067,3.067,0,0,0-2.9-3.3Zm55.279,13.249H99.491l2.427-5.379L97.664,6.393h2.555l2.836,6.924h.077l2.733-6.924h2.658l-6.541,15.061Zm-39.77-4.522A5.314,5.314,0,0,1,56.9,11.5,5.111,5.111,0,0,1,62,6.074h.008a5.138,5.138,0,0,1,4.65,3.462l.269.575-7.269,3a2.76,2.76,0,0,0,2.526,1.65H62.3a3.122,3.122,0,0,0,2.664-1.507l1.852,1.277a5.4,5.4,0,0,1-4.5,2.4h-.1Zm.014-8.756h-.141a2.975,2.975,0,0,0-2.836,3.168L64.1,9.332a2.1,2.1,0,0,0-1.874-1.154ZM34.86,16.933a5.43,5.43,0,1,1-.025-10.86h.1a5.318,5.318,0,0,1,3.776,1.559,5.463,5.463,0,0,1-3.845,9.3Zm-.254-8.718a3.3,3.3,0,1,0,0,6.592,2.239,2.239,0,0,0,.231-.008A3.141,3.141,0,0,0,37.9,11.5a3.3,3.3,0,0,0-3.3-3.289ZM22.958,16.933h0a5.43,5.43,0,0,1-.013-10.86h.089a5.324,5.324,0,0,1,3.777,1.559,5.463,5.463,0,0,1-3.849,9.3ZM22.7,8.217a3.3,3.3,0,0,0,0,6.592,2.211,2.211,0,0,0,.244-.009h-.013A3.143,3.143,0,0,0,26,11.5a3.3,3.3,0,0,0-3.3-3.287ZM9.121,16.89h0c-.115,0-.232,0-.347-.008s-.221.006-.331.006A8.444,8.444,0,0,1,8.443,0c.11,0,.221,0,.331.006h.072a8.081,8.081,0,0,1,5.715,2.388L12.938,4.017A5.848,5.848,0,0,0,8.857,2.368h-.1a6.132,6.132,0,1,0,0,12.265h.224a5.681,5.681,0,0,0,4.03-1.691,4.833,4.833,0,0,0,1.277-2.9H8.774v-2.3l7.755-.064a7.617,7.617,0,0,1,.128,1.444,7.63,7.63,0,0,1-1.994,5.391A7.7,7.7,0,0,1,9.121,16.89Zm82.649-.01a3.692,3.692,0,0,1-3.687-3.523c0-2.332,2.37-3.591,4.6-3.591H92.7a5.3,5.3,0,0,1,2.471.614v-.167a2.3,2.3,0,0,0-2.556-2.057c-.061,0-.122-.007-.183-.007a2.261,2.261,0,0,0-1.988,1.184l-2.12-.882A4.449,4.449,0,0,1,92.31,6c.089,0,.18,0,.269.008l.063.038c2.9,0,4.843,1.777,4.843,4.421v6.144h-2.3V15.336h-.077a3.346,3.346,0,0,1-2.824,1.541,2.174,2.174,0,0,1-.242-.009c-.08-.009-.182.011-.272.011Zm1.309-5.173h-.1c-1.235,0-2.555.446-2.555,1.7,0,.987,1.144,1.354,1.865,1.354l.064.038a2.9,2.9,0,0,0,2.8-2.555,4.25,4.25,0,0,0-2.075-.538Zm-6.3,4.907H84.391V.645H86.78V16.613Zm-12.252,0H72.139V.645h5.724c.118-.009.239-.013.357-.013a4.97,4.97,0,0,1,0,9.939,3.268,3.268,0,0,1-.357-.013H74.528v6.055ZM74.515,2.867V8.31H77.85l.051.038a2.74,2.74,0,1,0,0-5.481ZM55.735,16.614H53.347V.645h2.388V16.613Z" transform="translate(37.648 13.956)" fill="#004378"/>
      <path id="Google_Icon" d="M16.71,16.756l4.152,4.014L14.928,24.2,1.178,31.771ZM.015.617,15.926,16,0,31.393ZM17.5,16l4.76-4.6,5.787,3.34a1.091,1.091,0,0,1,0,1.89l-6.2,3.577ZM.946,0,14.9,7.153l6.369,3.677-4.562,4.41Z" transform="translate(0 0.9)" fill="#004378"/>
      <path id="Path_3" data-name="Path 3" d="M.811,14.15V12.606a2.035,2.035,0,0,0,.416.34,2.958,2.958,0,0,0,.511.255,3.512,3.512,0,0,0,.54.161,2.437,2.437,0,0,0,.5.057A1.86,1.86,0,0,0,3.96,13.1a1.107,1.107,0,0,0,.389-.914,1.141,1.141,0,0,0-.13-.558,1.52,1.52,0,0,0-.363-.432,3.717,3.717,0,0,0-.548-.375q-.315-.18-.675-.375-.387-.246-.72-.5a3.275,3.275,0,0,1-.58-.558,2.4,2.4,0,0,1-.387-.69,2.625,2.625,0,0,1-.14-.9A2.392,2.392,0,0,1,1.047,6.7a2.284,2.284,0,0,1,.636-.775,2.692,2.692,0,0,1,.9-.454,3.622,3.622,0,0,1,1.028-.148,3.562,3.562,0,0,1,1.737.321V7.124a2.464,2.464,0,0,0-1.663-.555,2.521,2.521,0,0,0-.559.063,1.5,1.5,0,0,0-.5.208,1.162,1.162,0,0,0-.358.372,1.037,1.037,0,0,0-.138.548,1.2,1.2,0,0,0,.106.523,1.3,1.3,0,0,0,.31.4,3.117,3.117,0,0,0,.5.356q.294.173.681.375a8.954,8.954,0,0,1,.75.517,3.736,3.736,0,0,1,.62.6,2.691,2.691,0,0,1,.424.728,2.488,2.488,0,0,1,.156.911,2.6,2.6,0,0,1-.233,1.159,2.109,2.109,0,0,1-.628.769,2.559,2.559,0,0,1-.908.429,4.339,4.339,0,0,1-1.086.132,3.9,3.9,0,0,1-.469-.035q-.278-.035-.569-.1a4.561,4.561,0,0,1-.551-.161A1.615,1.615,0,0,1,.811,14.15Zm8.682.51a3.168,3.168,0,0,1-2.63-1.267,5.2,5.2,0,0,1-.988-3.3A5.529,5.529,0,0,1,6.881,6.619a3.274,3.274,0,0,1,2.733-1.3,3.1,3.1,0,0,1,2.577,1.26,5.228,5.228,0,0,1,.977,3.3,5.55,5.55,0,0,1-1,3.5A3.218,3.218,0,0,1,9.492,14.66Zm.058-8.022a2,2,0,0,0-1.7.926A4.141,4.141,0,0,0,7.2,10a4.189,4.189,0,0,0,.636,2.426,1.939,1.939,0,0,0,1.663.92,2.009,2.009,0,0,0,1.722-.876,4.139,4.139,0,0,0,.63-2.451,4.356,4.356,0,0,0-.612-2.5A1.943,1.943,0,0,0,9.551,6.638Zm7.437,8.022a3.168,3.168,0,0,1-2.63-1.267,5.2,5.2,0,0,1-.988-3.3,5.529,5.529,0,0,1,1.006-3.478,3.274,3.274,0,0,1,2.733-1.3,3.1,3.1,0,0,1,2.577,1.26,5.228,5.228,0,0,1,.977,3.3,5.55,5.55,0,0,1-1,3.5A3.218,3.218,0,0,1,16.987,14.66Zm.058-8.022a2,2,0,0,0-1.7.926A4.141,4.141,0,0,0,14.694,10a4.189,4.189,0,0,0,.636,2.426,1.939,1.939,0,0,0,1.663.92,2.009,2.009,0,0,0,1.722-.876,4.139,4.139,0,0,0,.63-2.451,4.356,4.356,0,0,0-.612-2.5A1.943,1.943,0,0,0,17.046,6.638Zm10.747,7.871H26.416L22.787,7.867a3.181,3.181,0,0,1-.228-.523h-.032a11.053,11.053,0,0,1,.042,1.241v5.923H21.352V5.473h1.467l3.507,6.484q.222.4.286.555h.021A9.534,9.534,0,0,1,26.58,11.3V5.473h1.213Z" transform="translate(37 -6.14)" fill="#004378"/>
    </g>
    <g id="Google_Play_Button-3" data-name="Google_Play_Button" transform="translate(1496.649 1394.36)">
      <path id="Type-2" data-name="Type" d="M46.493,21.723a5.155,5.155,0,0,1-4.784-3.206l2.082-.869a2.989,2.989,0,0,0,2.733,1.929c1.844,0,2.9-1.164,2.9-3.194V15.6h-.077a3.7,3.7,0,0,1-2.8,1.278h-.062a5.442,5.442,0,0,1,0-10.871,3.842,3.842,0,0,1,2.862,1.277h.09V6.393h2.2v9.671A5.843,5.843,0,0,1,50.129,20.4a5,5,0,0,1-3.6,1.325ZM46.7,8.207h0a3.309,3.309,0,0,0,0,6.591h.005a3.04,3.04,0,0,0,2.9-3.3,3.067,3.067,0,0,0-2.9-3.3Zm55.279,13.249H99.491l2.427-5.379L97.664,6.393h2.555l2.836,6.924h.077l2.733-6.924h2.658l-6.541,15.061Zm-39.77-4.522A5.314,5.314,0,0,1,56.9,11.5,5.111,5.111,0,0,1,62,6.074h.008a5.138,5.138,0,0,1,4.65,3.462l.269.575-7.269,3a2.76,2.76,0,0,0,2.526,1.65H62.3a3.122,3.122,0,0,0,2.664-1.507l1.852,1.277a5.4,5.4,0,0,1-4.5,2.4h-.1Zm.014-8.756h-.141a2.975,2.975,0,0,0-2.836,3.168L64.1,9.332a2.1,2.1,0,0,0-1.874-1.154ZM34.86,16.933a5.43,5.43,0,1,1-.025-10.86h.1a5.318,5.318,0,0,1,3.776,1.559,5.463,5.463,0,0,1-3.845,9.3Zm-.254-8.718a3.3,3.3,0,1,0,0,6.592,2.239,2.239,0,0,0,.231-.008A3.141,3.141,0,0,0,37.9,11.5a3.3,3.3,0,0,0-3.3-3.289ZM22.958,16.933h0a5.43,5.43,0,0,1-.013-10.86h.089a5.324,5.324,0,0,1,3.777,1.559,5.463,5.463,0,0,1-3.849,9.3ZM22.7,8.217a3.3,3.3,0,0,0,0,6.592,2.211,2.211,0,0,0,.244-.009h-.013A3.143,3.143,0,0,0,26,11.5a3.3,3.3,0,0,0-3.3-3.287ZM9.121,16.89h0c-.115,0-.232,0-.347-.008s-.221.006-.331.006A8.444,8.444,0,0,1,8.443,0c.11,0,.221,0,.331.006h.072a8.081,8.081,0,0,1,5.715,2.388L12.938,4.017A5.848,5.848,0,0,0,8.857,2.368h-.1a6.132,6.132,0,1,0,0,12.265h.224a5.681,5.681,0,0,0,4.03-1.691,4.833,4.833,0,0,0,1.277-2.9H8.774v-2.3l7.755-.064a7.617,7.617,0,0,1,.128,1.444,7.63,7.63,0,0,1-1.994,5.391A7.7,7.7,0,0,1,9.121,16.89Zm82.649-.01a3.692,3.692,0,0,1-3.687-3.523c0-2.332,2.37-3.591,4.6-3.591H92.7a5.3,5.3,0,0,1,2.471.614v-.167a2.3,2.3,0,0,0-2.556-2.057c-.061,0-.122-.007-.183-.007a2.261,2.261,0,0,0-1.988,1.184l-2.12-.882A4.449,4.449,0,0,1,92.31,6c.089,0,.18,0,.269.008l.063.038c2.9,0,4.843,1.777,4.843,4.421v6.144h-2.3V15.336h-.077a3.346,3.346,0,0,1-2.824,1.541,2.174,2.174,0,0,1-.242-.009c-.08-.009-.182.011-.272.011Zm1.309-5.173h-.1c-1.235,0-2.555.446-2.555,1.7,0,.987,1.144,1.354,1.865,1.354l.064.038a2.9,2.9,0,0,0,2.8-2.555,4.25,4.25,0,0,0-2.075-.538Zm-6.3,4.907H84.391V.645H86.78V16.613Zm-12.252,0H72.139V.645h5.724c.118-.009.239-.013.357-.013a4.97,4.97,0,0,1,0,9.939,3.268,3.268,0,0,1-.357-.013H74.528v6.055ZM74.515,2.867V8.31H77.85l.051.038a2.74,2.74,0,1,0,0-5.481ZM55.735,16.614H53.347V.645h2.388V16.613Z" transform="translate(37.648 13.956)" fill="#004378"/>
      <path id="Google_Icon-2" data-name="Google_Icon" d="M16.71,16.756l4.152,4.014L14.928,24.2,1.178,31.771ZM.015.617,15.926,16,0,31.393ZM17.5,16l4.76-4.6,5.787,3.34a1.091,1.091,0,0,1,0,1.89l-6.2,3.577ZM.946,0,14.9,7.153l6.369,3.677-4.562,4.41Z" transform="translate(0 0.9)" fill="#098cdf"/>
      <path id="Path_4" data-name="Path 4" d="M.811,14.15V12.606a2.035,2.035,0,0,0,.416.34,2.958,2.958,0,0,0,.511.255,3.512,3.512,0,0,0,.54.161,2.437,2.437,0,0,0,.5.057A1.86,1.86,0,0,0,3.96,13.1a1.107,1.107,0,0,0,.389-.914,1.141,1.141,0,0,0-.13-.558,1.52,1.52,0,0,0-.363-.432,3.717,3.717,0,0,0-.548-.375q-.315-.18-.675-.375-.387-.246-.72-.5a3.275,3.275,0,0,1-.58-.558,2.4,2.4,0,0,1-.387-.69,2.625,2.625,0,0,1-.14-.9A2.392,2.392,0,0,1,1.047,6.7a2.284,2.284,0,0,1,.636-.775,2.692,2.692,0,0,1,.9-.454,3.622,3.622,0,0,1,1.028-.148,3.562,3.562,0,0,1,1.737.321V7.124a2.464,2.464,0,0,0-1.663-.555,2.521,2.521,0,0,0-.559.063,1.5,1.5,0,0,0-.5.208,1.162,1.162,0,0,0-.358.372,1.037,1.037,0,0,0-.138.548,1.2,1.2,0,0,0,.106.523,1.3,1.3,0,0,0,.31.4,3.117,3.117,0,0,0,.5.356q.294.173.681.375a8.954,8.954,0,0,1,.75.517,3.736,3.736,0,0,1,.62.6,2.691,2.691,0,0,1,.424.728,2.488,2.488,0,0,1,.156.911,2.6,2.6,0,0,1-.233,1.159,2.109,2.109,0,0,1-.628.769,2.559,2.559,0,0,1-.908.429,4.339,4.339,0,0,1-1.086.132,3.9,3.9,0,0,1-.469-.035q-.278-.035-.569-.1a4.561,4.561,0,0,1-.551-.161A1.615,1.615,0,0,1,.811,14.15Zm8.682.51a3.168,3.168,0,0,1-2.63-1.267,5.2,5.2,0,0,1-.988-3.3A5.529,5.529,0,0,1,6.881,6.619a3.274,3.274,0,0,1,2.733-1.3,3.1,3.1,0,0,1,2.577,1.26,5.228,5.228,0,0,1,.977,3.3,5.55,5.55,0,0,1-1,3.5A3.218,3.218,0,0,1,9.492,14.66Zm.058-8.022a2,2,0,0,0-1.7.926A4.141,4.141,0,0,0,7.2,10a4.189,4.189,0,0,0,.636,2.426,1.939,1.939,0,0,0,1.663.92,2.009,2.009,0,0,0,1.722-.876,4.139,4.139,0,0,0,.63-2.451,4.356,4.356,0,0,0-.612-2.5A1.943,1.943,0,0,0,9.551,6.638Zm7.437,8.022a3.168,3.168,0,0,1-2.63-1.267,5.2,5.2,0,0,1-.988-3.3,5.529,5.529,0,0,1,1.006-3.478,3.274,3.274,0,0,1,2.733-1.3,3.1,3.1,0,0,1,2.577,1.26,5.228,5.228,0,0,1,.977,3.3,5.55,5.55,0,0,1-1,3.5A3.218,3.218,0,0,1,16.987,14.66Zm.058-8.022a2,2,0,0,0-1.7.926A4.141,4.141,0,0,0,14.694,10a4.189,4.189,0,0,0,.636,2.426,1.939,1.939,0,0,0,1.663.92,2.009,2.009,0,0,0,1.722-.876,4.139,4.139,0,0,0,.63-2.451,4.356,4.356,0,0,0-.612-2.5A1.943,1.943,0,0,0,17.046,6.638Zm10.747,7.871H26.416L22.787,7.867a3.181,3.181,0,0,1-.228-.523h-.032a11.053,11.053,0,0,1,.042,1.241v5.923H21.352V5.473h1.467l3.507,6.484q.222.4.286.555h.021A9.534,9.534,0,0,1,26.58,11.3V5.473h1.213Z" transform="translate(37 -6.14)" fill="#004378"/>
    </g>
  </g>
</svg>
