<svg xmlns="http://www.w3.org/2000/svg" width="134.8" height="86.439" viewBox="0 0 134.8 86.439">
  <g id="App_Store_Button" transform="translate(-1324.821 -1342.052)">
    <g id="App_Store_Button-2" data-name="App_Store_Button" transform="translate(1324.821 1342.052)">
      <path id="App_Store" data-name="App Store" d="M30.7,19.955H28.321V4.562h2.3V6.486h.044A4.115,4.115,0,0,1,34.216,4.44h.132c2.959,0,4.87,2.318,4.87,5.905s-1.9,5.9-4.827,5.9c-.068,0-.137,0-.205,0a3.919,3.919,0,0,1-3.434-2.03H30.7v5.728Zm3.024-13.49c-1.815,0-3.034,1.56-3.034,3.882s1.219,3.891,3.034,3.891c1.857,0,3.057-1.527,3.057-3.891s-1.2-3.882-3.062-3.882ZM17.965,19.955H15.591V4.562h2.3V6.486h.044A4.115,4.115,0,0,1,21.486,4.44h.132c2.959,0,4.87,2.318,4.87,5.905s-1.9,5.9-4.827,5.9c-.068,0-.137,0-.2,0a3.919,3.919,0,0,1-3.434-2.03h-.055v5.728Zm3.024-13.49c-1.815,0-3.034,1.56-3.034,3.882s1.219,3.891,3.034,3.891c1.857,0,3.057-1.527,3.057-3.891S22.846,6.465,20.989,6.465Zm30.257,9.928c-3.522,0-5.9-1.839-6.047-4.685H47.63c.174,1.56,1.7,2.607,3.792,2.607,1.994,0,3.441-1.031,3.441-2.451,0-1.23-.874-1.97-2.924-2.474l-2.057-.5c-2.909-.7-4.265-2.062-4.265-4.276C45.618,1.9,47.992,0,51.39,0c3.347,0,5.649,1.856,5.728,4.617h-2.4c-.141-1.566-1.43-2.539-3.364-2.539-1.9,0-3.222.976-3.222,2.374,0,1.118.835,1.781,2.881,2.287l1.748.429c3.229.763,4.607,2.078,4.607,4.4,0,2.976-2.343,4.825-6.121,4.825Zm39.533-.121c-3.364,0-5.453-2.25-5.453-5.872s2.1-5.981,5.353-5.981c3.216,0,5.213,2.186,5.213,5.7v.814H87.723v.144a3.012,3.012,0,0,0,3,3.278h.112c.081.008.164.012.246.012a2.6,2.6,0,0,0,2.425-1.638H95.76c-.317,2.083-2.366,3.539-4.981,3.539Zm-.117-9.928A2.911,2.911,0,0,0,88.6,7.2a2.955,2.955,0,0,0-.861,2.082h5.783a2.781,2.781,0,0,0-2.776-2.936h-.079ZM71.454,16.273c-3.384,0-5.486-2.271-5.486-5.926a6.218,6.218,0,0,1,1.489-4.329,5.8,5.8,0,0,1,8,0,6.222,6.222,0,0,1,1.486,4.329C76.941,14,74.838,16.273,71.454,16.273Zm0-9.9c-1.92,0-3.066,1.484-3.066,3.97s1.146,3.968,3.066,3.968,3.068-1.483,3.068-3.968-1.147-3.966-3.068-3.966ZM63.484,16.2h-.119c-2.342,0-3.255-.876-3.255-3.123V6.442H58.428V4.562H60.11V1.826h2.385V4.562h2.2v1.88h-2.2v6.377c0,.991.447,1.452,1.407,1.452a7.452,7.452,0,0,0,.782-.055v1.87a6.6,6.6,0,0,1-1.2.114ZM2.561,16.13H0L5.728.264H8.389l5.728,15.863h-2.6L10.061,11.84H4.014L2.562,16.129ZM7,2.9,4.639,9.863H9.433L7.07,2.9ZM81.273,16.129H78.9V4.562h2.264V6.531h.055A2.756,2.756,0,0,1,83.895,4.44h.121a3.653,3.653,0,0,1,.8.089V6.75a3.318,3.318,0,0,0-.964-.144h-.2a2.391,2.391,0,0,0-2.375,2.663v6.859Z" transform="translate(38.908 17.484)" fill="#004378"/>
      <path id="Apple_Icon" d="M8.768,33.891c-2.221,0-3.955-2.478-5.221-4.287A21.593,21.593,0,0,1,.278,21.437c-.427-2.419-.574-5.93,1.15-8.916A8.318,8.318,0,0,1,8.39,8.275h.1a9.328,9.328,0,0,1,3.41.881,6.381,6.381,0,0,0,2.112.612,6.547,6.547,0,0,0,2.029-.6,10.886,10.886,0,0,1,3.906-.992,5.223,5.223,0,0,1,.543.028,7.923,7.923,0,0,1,6.21,3.357,7.664,7.664,0,0,0-3.668,6.461,7.434,7.434,0,0,0,4.544,6.847,17.035,17.035,0,0,1-2.363,4.813c-1.5,2.251-2.933,4.118-5.169,4.155h-.123a5.868,5.868,0,0,1-2.5-.623,6.863,6.863,0,0,0-2.97-.7,7.273,7.273,0,0,0-3.125.727,6.541,6.541,0,0,1-2.445.649ZM13.8,7.815h-.064a7.163,7.163,0,0,1,1.78-5.232,7.7,7.7,0,0,1,5-2.583,7.544,7.544,0,0,1-1.735,5.432A6.349,6.349,0,0,1,13.8,7.815Z" fill="#004378"/>
      <path id="Download" d="M5.474-2.478a2.7,2.7,0,0,1-.525,1.7A2.254,2.254,0,0,1,3.528.07Q3.444.084,3.5.14a1.77,1.77,0,0,1,.56,1.288,2.958,2.958,0,0,1-.028.322,1.013,1.013,0,0,1-.42.644,1.3,1.3,0,0,1-.714.2,1.829,1.829,0,0,1-.518-.07.145.145,0,0,1-.112-.168l.07-.448q.014-.126.168-.1a.589.589,0,0,0,.14.014.5.5,0,0,0,.371-.147.6.6,0,0,0,.147-.441A1.628,1.628,0,0,0,2.534.1Q2.52.07,2.464.07A2.21,2.21,0,0,1,1.057-.749,2.572,2.572,0,0,1,.532-2.394v-.364a.124.124,0,0,1,.14-.14H1.708a.124.124,0,0,1,.14.14v.294A1.552,1.552,0,0,0,2.17-1.435,1.028,1.028,0,0,0,3-1.05a1.065,1.065,0,0,0,.833-.371,1.412,1.412,0,0,0,.329-.973,1.42,1.42,0,0,0-.175-.714,2.07,2.07,0,0,0-.462-.553q-.287-.245-.931-.721a13.759,13.759,0,0,1-1.12-.91A3.382,3.382,0,0,1,.784-6.2,2.638,2.638,0,0,1,.5-7.448a2.417,2.417,0,0,1,.672-1.8,2.381,2.381,0,0,1,1.75-.665,2.367,2.367,0,0,1,1.8.714A2.61,2.61,0,0,1,5.4-7.322v.35a.124.124,0,0,1-.14.14H4.228a.124.124,0,0,1-.14-.14V-7.35a1.53,1.53,0,0,0-.322-1.015,1.043,1.043,0,0,0-.84-.385,1.023,1.023,0,0,0-.8.343,1.385,1.385,0,0,0-.308.959,1.465,1.465,0,0,0,.308.945,6.663,6.663,0,0,0,1.19,1.029q.84.63,1.267,1.022a2.923,2.923,0,0,1,.658.861A2.494,2.494,0,0,1,5.474-2.478ZM6.972,0a.124.124,0,0,1-.14-.14V-9.66a.124.124,0,0,1,.14-.14H8.036a.124.124,0,0,1,.14.14V-.14a.124.124,0,0,1-.14.14ZM7.5-10.92a.872.872,0,0,1-.644-.252.872.872,0,0,1-.252-.644.872.872,0,0,1,.252-.644.872.872,0,0,1,.644-.252.872.872,0,0,1,.644.252.872.872,0,0,1,.252.644.872.872,0,0,1-.252.644A.872.872,0,0,1,7.5-10.92ZM14.266-9.7a.182.182,0,0,1,.168-.1H15.5a.124.124,0,0,1,.14.14V-.14A.124.124,0,0,1,15.5,0H14.434a.124.124,0,0,1-.14-.14V-7.084q0-.042-.021-.042a.077.077,0,0,0-.049.028L12.88-4.592a.136.136,0,0,1-.126.1.136.136,0,0,1-.126-.1L11.3-7.084a.077.077,0,0,0-.049-.028q-.021,0-.021.042V-.14a.124.124,0,0,1-.14.14H10.024a.124.124,0,0,1-.14-.14V-9.66a.124.124,0,0,1,.14-.14h1.064a.2.2,0,0,1,.168.1l1.47,2.632a.057.057,0,0,0,.042.014.057.057,0,0,0,.042-.014ZM17.472,0a.124.124,0,0,1-.14-.14V-9.66a.124.124,0,0,1,.14-.14h2.3a2.443,2.443,0,0,1,1.848.714A2.672,2.672,0,0,1,22.3-7.154v4.508a2.672,2.672,0,0,1-.686,1.932A2.443,2.443,0,0,1,19.768,0Zm1.2-1.218a.049.049,0,0,0,.056.056l1.022-.014a1.029,1.029,0,0,0,.854-.413,1.849,1.849,0,0,0,.336-1.127V-7.084a1.819,1.819,0,0,0-.322-1.134,1.037,1.037,0,0,0-.868-.42H18.732a.049.049,0,0,0-.056.056ZM24.038,0a.124.124,0,0,1-.14-.14V-9.66a.124.124,0,0,1,.14-.14H25.1a.124.124,0,0,1,.14.14V-.14A.124.124,0,0,1,25.1,0Zm.532-10.92a.872.872,0,0,1-.644-.252.872.872,0,0,1-.252-.644.872.872,0,0,1,.252-.644.872.872,0,0,1,.644-.252.872.872,0,0,1,.644.252.872.872,0,0,1,.252.644.872.872,0,0,1-.252.644A.872.872,0,0,1,24.57-10.92ZM29.918,0a.124.124,0,0,1-.14-.14V-9.66a.124.124,0,0,1,.14-.14h1.064a.124.124,0,0,1,.14.14V-.14a.124.124,0,0,1-.14.14Zm.532-10.92a.872.872,0,0,1-.644-.252.872.872,0,0,1-.252-.644.872.872,0,0,1,.252-.644.872.872,0,0,1,.644-.252.872.872,0,0,1,.644.252.872.872,0,0,1,.252.644.872.872,0,0,1-.252.644A.872.872,0,0,1,30.45-10.92Zm6.356,1.26a.124.124,0,0,1,.14-.14H38a.124.124,0,0,1,.14.14V-.14A.124.124,0,0,1,38,0h-1.2a.154.154,0,0,1-.154-.112l-2.38-6.4a.034.034,0,0,0-.042-.021.033.033,0,0,0-.028.035L34.2-.14a.124.124,0,0,1-.14.14H33a.124.124,0,0,1-.14-.14V-9.66A.124.124,0,0,1,33-9.8h1.19a.154.154,0,0,1,.154.112l2.394,6.4q.014.042.042.035t.028-.049ZM40.012,0a.124.124,0,0,1-.14-.14V-9.66a.124.124,0,0,1,.14-.14h2.3a2.443,2.443,0,0,1,1.848.714,2.672,2.672,0,0,1,.686,1.932v4.508a2.672,2.672,0,0,1-.686,1.932A2.443,2.443,0,0,1,42.308,0Zm1.2-1.218a.049.049,0,0,0,.056.056l1.022-.014a1.029,1.029,0,0,0,.854-.413,1.849,1.849,0,0,0,.336-1.127V-7.084a1.819,1.819,0,0,0-.322-1.134,1.037,1.037,0,0,0-.868-.42H41.272a.049.049,0,0,0-.056.056ZM46.578,0a.124.124,0,0,1-.14-.14V-9.66a.124.124,0,0,1,.14-.14h1.064a.124.124,0,0,1,.14.14V-.14a.124.124,0,0,1-.14.14Zm.532-10.92a.872.872,0,0,1-.644-.252.872.872,0,0,1-.252-.644.872.872,0,0,1,.252-.644.872.872,0,0,1,.644-.252.872.872,0,0,1,.644.252.872.872,0,0,1,.252.644.872.872,0,0,1-.252.644A.872.872,0,0,1,47.11-10.92ZM53.41,0a.163.163,0,0,1-.168-.112L51.954-4.284a.055.055,0,0,0-.056-.042h-.98a.049.049,0,0,0-.056.056V-.14a.124.124,0,0,1-.14.14H49.658a.124.124,0,0,1-.14-.14V-9.66a.124.124,0,0,1,.14-.14h2.506a2.284,2.284,0,0,1,1.26.35,2.314,2.314,0,0,1,.847.987,3.352,3.352,0,0,1,.3,1.449,3.091,3.091,0,0,1-.364,1.533,2.182,2.182,0,0,1-.994.945.08.08,0,0,0-.028.084l1.428,4.3.014.056q0,.1-.126.1ZM50.918-8.638a.049.049,0,0,0-.056.056v3.136a.049.049,0,0,0,.056.056h1.036a1.122,1.122,0,0,0,.924-.441A1.826,1.826,0,0,0,53.228-7a1.874,1.874,0,0,0-.35-1.2,1.122,1.122,0,0,0-.924-.441Z" transform="translate(39 13)" fill="#004378"/>
    </g>
    <g id="App_Store_Button-3" data-name="App_Store_Button" transform="translate(1324.821 1391.052)">
      <path id="App_Store-2" data-name="App Store" d="M30.7,19.955H28.321V4.562h2.3V6.486h.044A4.115,4.115,0,0,1,34.216,4.44h.132c2.959,0,4.87,2.318,4.87,5.905s-1.9,5.9-4.827,5.9c-.068,0-.137,0-.205,0a3.919,3.919,0,0,1-3.434-2.03H30.7v5.728Zm3.024-13.49c-1.815,0-3.034,1.56-3.034,3.882s1.219,3.891,3.034,3.891c1.857,0,3.057-1.527,3.057-3.891s-1.2-3.882-3.062-3.882ZM17.965,19.955H15.591V4.562h2.3V6.486h.044A4.115,4.115,0,0,1,21.486,4.44h.132c2.959,0,4.87,2.318,4.87,5.905s-1.9,5.9-4.827,5.9c-.068,0-.137,0-.2,0a3.919,3.919,0,0,1-3.434-2.03h-.055v5.728Zm3.024-13.49c-1.815,0-3.034,1.56-3.034,3.882s1.219,3.891,3.034,3.891c1.857,0,3.057-1.527,3.057-3.891S22.846,6.465,20.989,6.465Zm30.257,9.928c-3.522,0-5.9-1.839-6.047-4.685H47.63c.174,1.56,1.7,2.607,3.792,2.607,1.994,0,3.441-1.031,3.441-2.451,0-1.23-.874-1.97-2.924-2.474l-2.057-.5c-2.909-.7-4.265-2.062-4.265-4.276C45.618,1.9,47.992,0,51.39,0c3.347,0,5.649,1.856,5.728,4.617h-2.4c-.141-1.566-1.43-2.539-3.364-2.539-1.9,0-3.222.976-3.222,2.374,0,1.118.835,1.781,2.881,2.287l1.748.429c3.229.763,4.607,2.078,4.607,4.4,0,2.976-2.343,4.825-6.121,4.825Zm39.533-.121c-3.364,0-5.453-2.25-5.453-5.872s2.1-5.981,5.353-5.981c3.216,0,5.213,2.186,5.213,5.7v.814H87.723v.144a3.012,3.012,0,0,0,3,3.278h.112c.081.008.164.012.246.012a2.6,2.6,0,0,0,2.425-1.638H95.76c-.317,2.083-2.366,3.539-4.981,3.539Zm-.117-9.928A2.911,2.911,0,0,0,88.6,7.2a2.955,2.955,0,0,0-.861,2.082h5.783a2.781,2.781,0,0,0-2.776-2.936h-.079ZM71.454,16.273c-3.384,0-5.486-2.271-5.486-5.926a6.218,6.218,0,0,1,1.489-4.329,5.8,5.8,0,0,1,8,0,6.222,6.222,0,0,1,1.486,4.329C76.941,14,74.838,16.273,71.454,16.273Zm0-9.9c-1.92,0-3.066,1.484-3.066,3.97s1.146,3.968,3.066,3.968,3.068-1.483,3.068-3.968-1.147-3.966-3.068-3.966ZM63.484,16.2h-.119c-2.342,0-3.255-.876-3.255-3.123V6.442H58.428V4.562H60.11V1.826h2.385V4.562h2.2v1.88h-2.2v6.377c0,.991.447,1.452,1.407,1.452a7.452,7.452,0,0,0,.782-.055v1.87a6.6,6.6,0,0,1-1.2.114ZM2.561,16.13H0L5.728.264H8.389l5.728,15.863h-2.6L10.061,11.84H4.014L2.562,16.129ZM7,2.9,4.639,9.863H9.433L7.07,2.9ZM81.273,16.129H78.9V4.562h2.264V6.531h.055A2.756,2.756,0,0,1,83.895,4.44h.121a3.653,3.653,0,0,1,.8.089V6.75a3.318,3.318,0,0,0-.964-.144h-.2a2.391,2.391,0,0,0-2.375,2.663v6.859Z" transform="translate(38.908 17.484)" fill="#004378"/>
      <path id="Apple_Icon-2" data-name="Apple_Icon" d="M8.768,33.891c-2.221,0-3.955-2.478-5.221-4.287A21.593,21.593,0,0,1,.278,21.437c-.427-2.419-.574-5.93,1.15-8.916A8.318,8.318,0,0,1,8.39,8.275h.1a9.328,9.328,0,0,1,3.41.881,6.381,6.381,0,0,0,2.112.612,6.547,6.547,0,0,0,2.029-.6,10.886,10.886,0,0,1,3.906-.992,5.223,5.223,0,0,1,.543.028,7.923,7.923,0,0,1,6.21,3.357,7.664,7.664,0,0,0-3.668,6.461,7.434,7.434,0,0,0,4.544,6.847,17.035,17.035,0,0,1-2.363,4.813c-1.5,2.251-2.933,4.118-5.169,4.155h-.123a5.868,5.868,0,0,1-2.5-.623,6.863,6.863,0,0,0-2.97-.7,7.273,7.273,0,0,0-3.125.727,6.541,6.541,0,0,1-2.445.649ZM13.8,7.815h-.064a7.163,7.163,0,0,1,1.78-5.232,7.7,7.7,0,0,1,5-2.583,7.544,7.544,0,0,1-1.735,5.432A6.349,6.349,0,0,1,13.8,7.815Z" fill="#098cdf"/>
      <path id="Download-2" data-name="Download" d="M5.474-2.478a2.7,2.7,0,0,1-.525,1.7A2.254,2.254,0,0,1,3.528.07Q3.444.084,3.5.14a1.77,1.77,0,0,1,.56,1.288,2.958,2.958,0,0,1-.028.322,1.013,1.013,0,0,1-.42.644,1.3,1.3,0,0,1-.714.2,1.829,1.829,0,0,1-.518-.07.145.145,0,0,1-.112-.168l.07-.448q.014-.126.168-.1a.589.589,0,0,0,.14.014.5.5,0,0,0,.371-.147.6.6,0,0,0,.147-.441A1.628,1.628,0,0,0,2.534.1Q2.52.07,2.464.07A2.21,2.21,0,0,1,1.057-.749,2.572,2.572,0,0,1,.532-2.394v-.364a.124.124,0,0,1,.14-.14H1.708a.124.124,0,0,1,.14.14v.294A1.552,1.552,0,0,0,2.17-1.435,1.028,1.028,0,0,0,3-1.05a1.065,1.065,0,0,0,.833-.371,1.412,1.412,0,0,0,.329-.973,1.42,1.42,0,0,0-.175-.714,2.07,2.07,0,0,0-.462-.553q-.287-.245-.931-.721a13.759,13.759,0,0,1-1.12-.91A3.382,3.382,0,0,1,.784-6.2,2.638,2.638,0,0,1,.5-7.448a2.417,2.417,0,0,1,.672-1.8,2.381,2.381,0,0,1,1.75-.665,2.367,2.367,0,0,1,1.8.714A2.61,2.61,0,0,1,5.4-7.322v.35a.124.124,0,0,1-.14.14H4.228a.124.124,0,0,1-.14-.14V-7.35a1.53,1.53,0,0,0-.322-1.015,1.043,1.043,0,0,0-.84-.385,1.023,1.023,0,0,0-.8.343,1.385,1.385,0,0,0-.308.959,1.465,1.465,0,0,0,.308.945,6.663,6.663,0,0,0,1.19,1.029q.84.63,1.267,1.022a2.923,2.923,0,0,1,.658.861A2.494,2.494,0,0,1,5.474-2.478ZM6.972,0a.124.124,0,0,1-.14-.14V-9.66a.124.124,0,0,1,.14-.14H8.036a.124.124,0,0,1,.14.14V-.14a.124.124,0,0,1-.14.14ZM7.5-10.92a.872.872,0,0,1-.644-.252.872.872,0,0,1-.252-.644.872.872,0,0,1,.252-.644.872.872,0,0,1,.644-.252.872.872,0,0,1,.644.252.872.872,0,0,1,.252.644.872.872,0,0,1-.252.644A.872.872,0,0,1,7.5-10.92ZM14.266-9.7a.182.182,0,0,1,.168-.1H15.5a.124.124,0,0,1,.14.14V-.14A.124.124,0,0,1,15.5,0H14.434a.124.124,0,0,1-.14-.14V-7.084q0-.042-.021-.042a.077.077,0,0,0-.049.028L12.88-4.592a.136.136,0,0,1-.126.1.136.136,0,0,1-.126-.1L11.3-7.084a.077.077,0,0,0-.049-.028q-.021,0-.021.042V-.14a.124.124,0,0,1-.14.14H10.024a.124.124,0,0,1-.14-.14V-9.66a.124.124,0,0,1,.14-.14h1.064a.2.2,0,0,1,.168.1l1.47,2.632a.057.057,0,0,0,.042.014.057.057,0,0,0,.042-.014ZM17.472,0a.124.124,0,0,1-.14-.14V-9.66a.124.124,0,0,1,.14-.14h2.3a2.443,2.443,0,0,1,1.848.714A2.672,2.672,0,0,1,22.3-7.154v4.508a2.672,2.672,0,0,1-.686,1.932A2.443,2.443,0,0,1,19.768,0Zm1.2-1.218a.049.049,0,0,0,.056.056l1.022-.014a1.029,1.029,0,0,0,.854-.413,1.849,1.849,0,0,0,.336-1.127V-7.084a1.819,1.819,0,0,0-.322-1.134,1.037,1.037,0,0,0-.868-.42H18.732a.049.049,0,0,0-.056.056ZM24.038,0a.124.124,0,0,1-.14-.14V-9.66a.124.124,0,0,1,.14-.14H25.1a.124.124,0,0,1,.14.14V-.14A.124.124,0,0,1,25.1,0Zm.532-10.92a.872.872,0,0,1-.644-.252.872.872,0,0,1-.252-.644.872.872,0,0,1,.252-.644.872.872,0,0,1,.644-.252.872.872,0,0,1,.644.252.872.872,0,0,1,.252.644.872.872,0,0,1-.252.644A.872.872,0,0,1,24.57-10.92ZM29.918,0a.124.124,0,0,1-.14-.14V-9.66a.124.124,0,0,1,.14-.14h1.064a.124.124,0,0,1,.14.14V-.14a.124.124,0,0,1-.14.14Zm.532-10.92a.872.872,0,0,1-.644-.252.872.872,0,0,1-.252-.644.872.872,0,0,1,.252-.644.872.872,0,0,1,.644-.252.872.872,0,0,1,.644.252.872.872,0,0,1,.252.644.872.872,0,0,1-.252.644A.872.872,0,0,1,30.45-10.92Zm6.356,1.26a.124.124,0,0,1,.14-.14H38a.124.124,0,0,1,.14.14V-.14A.124.124,0,0,1,38,0h-1.2a.154.154,0,0,1-.154-.112l-2.38-6.4a.034.034,0,0,0-.042-.021.033.033,0,0,0-.028.035L34.2-.14a.124.124,0,0,1-.14.14H33a.124.124,0,0,1-.14-.14V-9.66A.124.124,0,0,1,33-9.8h1.19a.154.154,0,0,1,.154.112l2.394,6.4q.014.042.042.035t.028-.049ZM40.012,0a.124.124,0,0,1-.14-.14V-9.66a.124.124,0,0,1,.14-.14h2.3a2.443,2.443,0,0,1,1.848.714,2.672,2.672,0,0,1,.686,1.932v4.508a2.672,2.672,0,0,1-.686,1.932A2.443,2.443,0,0,1,42.308,0Zm1.2-1.218a.049.049,0,0,0,.056.056l1.022-.014a1.029,1.029,0,0,0,.854-.413,1.849,1.849,0,0,0,.336-1.127V-7.084a1.819,1.819,0,0,0-.322-1.134,1.037,1.037,0,0,0-.868-.42H41.272a.049.049,0,0,0-.056.056ZM46.578,0a.124.124,0,0,1-.14-.14V-9.66a.124.124,0,0,1,.14-.14h1.064a.124.124,0,0,1,.14.14V-.14a.124.124,0,0,1-.14.14Zm.532-10.92a.872.872,0,0,1-.644-.252.872.872,0,0,1-.252-.644.872.872,0,0,1,.252-.644.872.872,0,0,1,.644-.252.872.872,0,0,1,.644.252.872.872,0,0,1,.252.644.872.872,0,0,1-.252.644A.872.872,0,0,1,47.11-10.92ZM53.41,0a.163.163,0,0,1-.168-.112L51.954-4.284a.055.055,0,0,0-.056-.042h-.98a.049.049,0,0,0-.056.056V-.14a.124.124,0,0,1-.14.14H49.658a.124.124,0,0,1-.14-.14V-9.66a.124.124,0,0,1,.14-.14h2.506a2.284,2.284,0,0,1,1.26.35,2.314,2.314,0,0,1,.847.987,3.352,3.352,0,0,1,.3,1.449,3.091,3.091,0,0,1-.364,1.533,2.182,2.182,0,0,1-.994.945.08.08,0,0,0-.028.084l1.428,4.3.014.056q0,.1-.126.1ZM50.918-8.638a.049.049,0,0,0-.056.056v3.136a.049.049,0,0,0,.056.056h1.036a1.122,1.122,0,0,0,.924-.441A1.826,1.826,0,0,0,53.228-7a1.874,1.874,0,0,0-.35-1.2,1.122,1.122,0,0,0-.924-.441Z" transform="translate(39 13)" fill="#004378"/>
    </g>
  </g>
</svg>
