<?xml version="1.0" encoding="iso-8859-1"?>
<!-- Generator: Adobe Illustrator 22.0.0, SVG Export Plug-In . SVG Version: 6.00 Build 0)  -->
<svg version="1.1" id="Layer_1" xmlns="http://www.w3.org/2000/svg" xmlns:xlink="http://www.w3.org/1999/xlink" x="0px" y="0px"
	 viewBox="0 0 96 96" style="enable-background:new 0 0 96 96;" xml:space="preserve">
<rect style="fill:#06518C;" width="96" height="96"/>
<g>
	<path style="fill:none;stroke:#0A93EA;stroke-width:3;stroke-miterlimit:10;" d="M58.679,34.905c0,5.896-4.78,10.679-10.679,10.679
		c-3.178,0-6.035-1.391-7.991-3.595c-1.672-1.885-2.689-4.367-2.689-7.084c0-5.898,4.782-10.68,10.679-10.68
		C53.898,24.225,58.679,29.006,58.679,34.905z"/>
	<path style="fill:none;stroke:#0A93EA;stroke-width:3;stroke-linecap:round;stroke-linejoin:round;stroke-miterlimit:10;" d="
		M66.247,62.794c-0.073-0.149-0.149-0.298-0.226-0.446C62.622,55.866,55.828,51.442,48,51.442c-11.229,0-20.333,9.105-20.333,20.333
		h40.667c0-1.948-0.274-3.833-0.785-5.616"/>
</g>
</svg>
