<svg xmlns="http://www.w3.org/2000/svg" width="52" height="39" viewBox="0 0 52 39">
  <defs>
    <style>
      .cls-1, .cls-2, .cls-5 {
        fill: none;
      }

      .cls-1, .cls-2 {
        stroke: #004378;
        stroke-width: 2px;
      }

      .cls-1 {
        stroke-miterlimit: 10;
      }

      .cls-2 {
        stroke-linejoin: round;
      }

      .cls-3 {
        fill: #004378;
      }

      .cls-4 {
        stroke: none;
      }
    </style>
  </defs>
  <g id="Icon_Digital_Wallet" transform="translate(-3 -5)">
    <g id="Path">
      <path id="Path-2" data-name="Path" class="cls-1" d="M51,19.645V8.921A2.938,2.938,0,0,0,48.063,6H6.938A2.938,2.938,0,0,0,4,8.921V40.079A2.938,2.938,0,0,0,6.938,43H48.063A2.938,2.938,0,0,0,51,40.079V30.342"/>
      <g id="Path-3" data-name="Path" class="cls-1" transform="translate(33 19.001)">
        <path class="cls-4" d="M6,0H19a3,3,0,0,1,3,3V9a3,3,0,0,1-3,3H6A6,6,0,0,1,0,6V6A6,6,0,0,1,6,0Z"/>
        <path class="cls-5" d="M6,1H19a2,2,0,0,1,2,2V9a2,2,0,0,1-2,2H6A5,5,0,0,1,1,6V6A5,5,0,0,1,6,1Z"/>
      </g>
      <line id="Path-4" data-name="Path" class="cls-1" x2="16" transform="translate(4 15)"/>
      <line id="Path-5" data-name="Path" class="cls-1" y2="5" transform="translate(27 7)"/>
      <line id="Path-6" data-name="Path" class="cls-1" y2="7" transform="translate(33 7)"/>
      <path id="Path-7" data-name="Path" class="cls-2" d="M40,6.719v8h5" transform="translate(-1 -0.719)"/>
      <line id="Path-8" data-name="Path" class="cls-1" x2="23" transform="translate(4 21.999)"/>
      <line id="Path-9" data-name="Path" class="cls-1" x2="16" transform="translate(4 35.999)"/>
      <line id="Path-10" data-name="Path" class="cls-1" y1="5" transform="translate(27 38)"/>
      <line id="Path-11" data-name="Path" class="cls-1" y1="7" transform="translate(33 36)"/>
      <path id="Path-12" data-name="Path" class="cls-2" d="M39.5,43.859v-8h5" transform="translate(-0.5 0.141)"/>
      <line id="Path-13" data-name="Path" class="cls-1" x2="23" transform="translate(4 29)"/>
    </g>
    <g id="Circle">
      <circle id="Circle-2" data-name="Circle" class="cls-3" cx="2" cy="2" r="2" transform="translate(18 13)"/>
      <circle id="Circle-3" data-name="Circle" class="cls-3" cx="2" cy="2" r="2" transform="translate(25 20)"/>
      <circle id="Circle-4" data-name="Circle" class="cls-3" cx="2" cy="2" r="2" transform="translate(25 11)"/>
      <circle id="Circle-5" data-name="Circle" class="cls-3" cx="2" cy="2" r="2" transform="translate(31 13)"/>
      <circle id="Circle-6" data-name="Circle" class="cls-3" cx="2" cy="2" r="2" transform="translate(42 12)"/>
      <circle id="Circle-7" data-name="Circle" class="cls-3" cx="2" cy="2" r="2" transform="translate(18 34)"/>
      <circle id="Circle-8" data-name="Circle" class="cls-3" cx="2" cy="2" r="2" transform="translate(25 27)"/>
      <circle id="Circle-9" data-name="Circle" class="cls-3" cx="2" cy="2" r="2" transform="translate(25 35)"/>
      <circle id="Circle-10" data-name="Circle" class="cls-3" cx="2" cy="2" r="2" transform="translate(31 33)"/>
      <circle id="Circle-11" data-name="Circle" class="cls-3" cx="2" cy="2" r="2" transform="translate(43 34)"/>
      <circle id="Circle-12" data-name="Circle" class="cls-3" cx="2" cy="2" r="2" transform="translate(37 23)"/>
    </g>
  </g>
</svg>
