<svg id="Papara_Logo" xmlns="http://www.w3.org/2000/svg" xmlns:xlink="http://www.w3.org/1999/xlink" width="100" height="26" viewBox="0 0 100 26">
  <defs>
    <style>
      .cls-1 {
        fill: url(#linear-gradient);
      }
    </style>
    <linearGradient id="linear-gradient" y1="0.329" x2="1" y2="0.348" gradientUnits="objectBoundingBox">
      <stop offset="0" stop-color="#db4757"/>
      <stop offset="1" stop-color="#900f9c"/>
    </linearGradient>
  </defs>
  <path id="Papara_Logo-2" data-name="Papara_Logo" class="cls-1" d="M-456.628,26.622a2.257,2.257,0,0,1-.734,1.688,2.454,2.454,0,0,1-1.766.7h-2.5v-17.5q0-4.919,3.015-6.709a12.6,12.6,0,0,1,6.544-1.793,10.988,10.988,0,0,1,3.714.669,6.917,6.917,0,0,1,2.977,1.934,10.848,10.848,0,0,1,2.206,7.027,11.077,11.077,0,0,1-2.206,7.168,7.013,7.013,0,0,1-5.663,2.671,7.752,7.752,0,0,1-3.234-.633,5.4,5.4,0,0,1-2.353-2.179Zm8.383-13.772a6.927,6.927,0,0,0-1.1-4.215,3.711,3.711,0,0,0-3.162-1.475A3.631,3.631,0,0,0-455.6,8.636a6.908,6.908,0,0,0-1.029,4.215,6.168,6.168,0,0,0,1.1,4.005,3.707,3.707,0,0,0,3.162,1.475,3.561,3.561,0,0,0,3.015-1.475A6.577,6.577,0,0,0-448.246,12.85Zm18.453,8.5a9.337,9.337,0,0,1-3.272.95c-1.154.117-2.168.174-3.049.174a7.948,7.948,0,0,1-4.634-1.37,5.113,5.113,0,0,1-1.986-4.533,4.79,4.79,0,0,1,1.8-4.218,10.651,10.651,0,0,1,4.6-1.688,4.587,4.587,0,0,0,.882-.1c.342-.069.734-.129,1.176-.177q3.238-.423,3.234-1.826a1.345,1.345,0,0,0-1.139-1.37,7.886,7.886,0,0,0-2.093-.312,5.543,5.543,0,0,0-1.838.282,1.974,1.974,0,0,0-1.176,1.055h-4.925a5.341,5.341,0,0,1,2.058-3.585A8.765,8.765,0,0,1-434.5,3.015a11.49,11.49,0,0,1,6.177,1.334,4.46,4.46,0,0,1,2.133,3.936v6.394a7.771,7.771,0,0,1-1.067,4.392A6.422,6.422,0,0,1-429.793,21.352Zm-1.176-8.643a14.355,14.355,0,0,1-2.867.914l-1.691.351a4.4,4.4,0,0,0-1.91.914,2.785,2.785,0,0,0-.515,1.547,2.226,2.226,0,0,0,.662,1.688,2.878,2.878,0,0,0,1.911.564,4.485,4.485,0,0,0,3.234-1.124,4.076,4.076,0,0,0,1.177-3.094Zm10.516,13.913a2.257,2.257,0,0,1-.734,1.688,2.455,2.455,0,0,1-1.766.7h-2.5v-17.5q0-4.919,3.015-6.709A12.6,12.6,0,0,1-415.9,3.012a10.987,10.987,0,0,1,3.714.669A6.916,6.916,0,0,1-409.2,5.614,10.839,10.839,0,0,1-407,12.638a11.077,11.077,0,0,1-2.206,7.168,7.013,7.013,0,0,1-5.663,2.671,7.75,7.75,0,0,1-3.234-.633,5.4,5.4,0,0,1-2.353-2.179Zm8.382-13.772a6.927,6.927,0,0,0-1.1-4.215,3.712,3.712,0,0,0-3.162-1.475,3.63,3.63,0,0,0-3.087,1.475,6.909,6.909,0,0,0-1.029,4.215,6.168,6.168,0,0,0,1.1,4.005,3.705,3.705,0,0,0,3.159,1.475,3.561,3.561,0,0,0,3.015-1.475A6.535,6.535,0,0,0-412.071,12.85Zm18.456,8.5a9.354,9.354,0,0,1-3.272.947c-1.151.117-2.171.177-3.052.177a7.948,7.948,0,0,1-4.634-1.37q-1.986-1.372-1.983-4.533a4.79,4.79,0,0,1,1.8-4.218,10.649,10.649,0,0,1,4.6-1.688,4.586,4.586,0,0,0,.881-.1c.342-.069.734-.129,1.176-.177q3.238-.423,3.235-1.826a1.345,1.345,0,0,0-1.139-1.37,7.907,7.907,0,0,0-2.1-.312,5.543,5.543,0,0,0-1.838.282,1.973,1.973,0,0,0-1.176,1.055h-4.925a5.353,5.353,0,0,1,2.058-3.582,8.765,8.765,0,0,1,5.663-1.616,11.489,11.489,0,0,1,6.177,1.334,4.46,4.46,0,0,1,2.133,3.936v6.394a7.772,7.772,0,0,1-1.067,4.392A6.43,6.43,0,0,1-393.615,21.352Zm-1.176-8.643a14.416,14.416,0,0,1-2.867.914l-1.691.351a4.4,4.4,0,0,0-1.911.914,2.784,2.784,0,0,0-.515,1.547,2.227,2.227,0,0,0,.662,1.688,2.878,2.878,0,0,0,1.911.564,4.486,4.486,0,0,0,3.234-1.124,4.076,4.076,0,0,0,1.176-3.094Zm5.512,9.416V13.06a11.1,11.1,0,0,1,.847-4.6,7.683,7.683,0,0,1,2.315-2.986,9.343,9.343,0,0,1,3.272-1.547,15.064,15.064,0,0,1,3.859-.492h.734V8.423h-1.691a4.433,4.433,0,0,0-3.162.983,4.1,4.1,0,0,0-1.029,3.091v9.626h-5.145Zm24.046-.773a9.353,9.353,0,0,1-3.272.947q-1.727.175-3.053.177a7.948,7.948,0,0,1-4.633-1.37,5.112,5.112,0,0,1-1.986-4.533,4.79,4.79,0,0,1,1.8-4.218,10.651,10.651,0,0,1,4.6-1.688,4.588,4.588,0,0,0,.882-.1c.342-.069.734-.129,1.176-.177q3.238-.423,3.234-1.826a1.344,1.344,0,0,0-1.139-1.37,7.884,7.884,0,0,0-2.093-.312,5.544,5.544,0,0,0-1.838.282,1.974,1.974,0,0,0-1.176,1.055h-4.925A5.354,5.354,0,0,1-375.6,4.633a8.765,8.765,0,0,1,5.663-1.616,11.489,11.489,0,0,1,6.177,1.334,4.46,4.46,0,0,1,2.133,3.936v6.394a7.772,7.772,0,0,1-1.067,4.392A6.427,6.427,0,0,1-365.233,21.352Zm-1.176-8.643a14.423,14.423,0,0,1-2.867.914l-1.691.351a4.4,4.4,0,0,0-1.911.914,2.784,2.784,0,0,0-.515,1.547,2.226,2.226,0,0,0,.662,1.688,2.878,2.878,0,0,0,1.91.564,4.485,4.485,0,0,0,3.234-1.124,4.076,4.076,0,0,0,1.177-3.094Z" transform="translate(461.629 -3.012)"/>
</svg>
