<svg id="Bell" xmlns="http://www.w3.org/2000/svg" width="17" height="19" viewBox="0 0 17 19">
  <defs>
    <style>
      .cls-1, .cls-4 {
        fill: #758ca3;
      }

      .cls-2 {
        fill: none;
      }

      .cls-3, .cls-4 {
        stroke: none;
      }
    </style>
  </defs>
  <path id="Path" class="cls-1" d="M8.5,20a2.006,2.006,0,0,0,2-2h-4A2.006,2.006,0,0,0,8.5,20Z" transform="translate(0 -1)"/>
  <g id="Path-2" data-name="Path" class="cls-2">
    <path class="cls-3" d="M15,13V8.5a6.52,6.52,0,0,0-5-6.3V1.5a1.5,1.5,0,0,0-3,0v.7A6.52,6.52,0,0,0,2,8.5V13L0,15v1H17V15Z"/>
    <path class="cls-4" d="M 14.37868022918701 14.5 L 13.93933963775635 14.06066036224365 L 13.5 13.62131977081299 L 13.5 13 L 13.5 8.5 C 13.5 7.392849922180176 13.11464023590088 6.300059795379639 12.41491031646729 5.422929763793945 C 11.71601963043213 4.546860218048096 10.73338985443115 3.920109987258911 9.648039817810059 3.658119916915894 L 8.5 3.381010055541992 L 8.5 2.200000047683716 L 8.5 1.523042559623718 L 8.5 2.200000047683716 L 8.5 3.381010055541992 L 7.351960182189941 3.658119916915894 C 6.266610145568848 3.920109987258911 5.283979892730713 4.546860218048096 4.585090160369873 5.422929763793945 C 3.8853600025177 6.300059795379639 3.5 7.392849922180176 3.5 8.5 L 3.5 13 L 3.5 13.62131977081299 L 3.060659885406494 14.06066036224365 L 2.621320009231567 14.5 L 14.37868022918701 14.5 M 17 16 L 0 16 L 0 15 L 2 13 L 2 8.5 C 2 5.5 4.099999904632568 2.900000095367432 7 2.200000047683716 L 7 1.5 C 7 0.699999988079071 7.699999809265137 0 8.5 0 C 9.300000190734863 0 10 0.699999988079071 10 1.5 L 10 2.200000047683716 C 12.89999961853027 2.900000095367432 15 5.5 15 8.5 L 15 13 L 17 15 L 17 16 Z"/>
  </g>
</svg>
