<svg xmlns="http://www.w3.org/2000/svg" width="30" height="30" viewBox="0 0 30 30">
  <defs>
    <style>
      .cls-1 {
        fill: #0080be;
      }

      .cls-2 {
        fill: #fff;
      }
    </style>
  </defs>
  <g id="Xrp_Icon" transform="translate(-644 -1231)">
    <circle id="Path" class="cls-1" cx="15" cy="15" r="15" transform="translate(644 1231)"/>
    <path id="Symbol" class="cls-2" d="M0,14.849c.2-.212.416-.412.619-.625.417-.389.8-.807,1.217-1.195,1.062-1.066,2.138-2.117,3.2-3.18.214-.2.413-.418.634-.611A5.038,5.038,0,0,1,8.009,8.09a6.818,6.818,0,0,1,.843-.1,2.693,2.693,0,0,1,.471.017A5.01,5.01,0,0,1,12.555,9.45c.277.277.561.549.837.829s.543.524.8.795c.288.295.591.575.879.869.667.67,1.345,1.329,2.011,2,.313.292.611.6.914.9H15.378q-1-.985-1.993-1.982c-.36-.321-.678-.687-1.037-1.011-.283-.284-.565-.567-.851-.849a3.908,3.908,0,0,0-.778-.667,3.2,3.2,0,0,0-3.906.358c-.389.389-.777.771-1.164,1.159-.357.327-.68.689-1.038,1.016q-.99.993-1.992,1.977ZM6.349,6.016a5.242,5.242,0,0,1-1.083-.889c-.358-.345-.7-.709-1.063-1.046-.265-.26-.517-.53-.789-.781-.292-.292-.581-.588-.881-.873C1.722,1.615.9.812.089,0H2.717c.927.932,1.87,1.845,2.8,2.778.4.38.785.778,1.18,1.166a3.215,3.215,0,0,0,3.588.711A3.318,3.318,0,0,0,11.25,4c.185-.2.388-.384.577-.582.213-.2.411-.422.629-.617.3-.3.6-.611.911-.9.627-.634,1.269-1.254,1.9-1.889L15.3,0h2.612c-.31.3-.608.617-.924.912-.751.756-1.514,1.5-2.265,2.254-.359.333-.691.7-1.049,1.032q-.6.6-1.207,1.2a4.98,4.98,0,0,1-1.327.895A5.022,5.022,0,0,1,9,6.757,5.043,5.043,0,0,1,6.349,6.016Z" transform="translate(649.928 1238.457)"/>
  </g>
</svg>
