<svg xmlns="http://www.w3.org/2000/svg" width="140" height="140" viewBox="0 0 140 140">
  <g id="Pie_Chart" transform="translate(-217.788 -15.701)">
    <g id="Colors" transform="translate(217.788 15.701)">
      <g id="Path" transform="translate(-212.867 11.214)" fill="#627eea">
        <path d="M 282.867919921875 128.0358123779297 C 260.6387023925781 128.0358123779297 239.7047729492188 117.3122787475586 226.7134399414063 99.30978393554688 L 282.1535034179688 60.2066764831543 L 283.8619995117188 128.0283050537109 C 283.5241394042969 128.0333404541016 283.1949157714844 128.0358123779297 282.867919921875 128.0358123779297 Z" stroke="none"/>
        <path d="M 281.4390869140625 61.62836456298828 L 227.7687072753906 99.48325347900391 C 240.6494750976563 116.9205322265625 261.1332397460938 127.2858123779297 282.867919921875 127.2858123779297 C 282.9428100585938 127.2858123779297 283.017822265625 127.2856750488281 283.093017578125 127.2854156494141 L 281.4390869140625 61.62836456298828 M 282.867919921875 58.78498840332031 L 284.6307373046875 128.7630767822266 C 284.0426025390625 128.7776794433594 283.4559936523438 128.7858123779297 282.867919921875 128.7858123779297 C 260.1332702636719 128.7858123779297 238.7683410644531 117.7101287841797 225.6649475097656 99.13150787353516 L 282.867919921875 58.78498840332031 Z" stroke="none" fill="#fff"/>
      </g>
      <g id="Path-2" data-name="Path" transform="translate(-190.872 11.214)" fill="#cd9b21">
        <path d="M 263.31201171875 127.9924697875977 L 261.6568908691406 60.16400909423828 L 319.09033203125 96.28607940673828 C 316.1461486816406 100.8556213378906 312.666015625 105.0725708007813 308.7372131347656 108.8300933837891 C 304.6275329589844 112.7606506347656 300.037353515625 116.1783752441406 295.0941772460938 118.9883041381836 C 290.152099609375 121.7980346679688 284.867431640625 123.9936370849609 279.386962890625 125.5141448974609 C 274.1484069824219 126.967529296875 268.7445678710938 127.8004379272461 263.31201171875 127.9924697875977 Z" stroke="none"/>
        <path d="M 262.4407653808594 61.54299926757813 L 264.0431823730469 127.2119445800781 C 269.1612854003906 126.97412109375 274.2484130859375 126.1614532470703 279.1864624023438 124.7914352416992 C 284.6075744628906 123.2873916625977 289.8349609375 121.1155853271484 294.7235412597656 118.3362731933594 C 299.6131591796875 115.5567855834961 304.1536254882813 112.1760711669922 308.2188415527344 108.2880859375 C 311.9222412109375 104.7461318969727 315.2229614257813 100.7909469604492 318.0456237792969 96.51502227783203 L 262.4407653808594 61.54299926757813 M 260.8730163574219 58.78498840332031 L 320.1279907226563 96.05270385742188 C 313.9784545898438 105.8286056518555 305.5055541992188 113.9326705932617 295.4648132324219 119.6403121948242 C 285.4256286621094 125.3479156494141 274.1257934570313 128.4819946289063 262.5806274414063 128.7646789550781 L 260.8730163574219 58.78498840332031 Z" stroke="none" fill="#fff"/>
      </g>
      <g id="Path-3" data-name="Path" transform="translate(-190.872 6.969)" fill="#0080be">
        <path d="M 319.8794860839844 99.27651214599609 L 262.9586791992188 63.45690155029297 L 329.3700866699219 52.84856033325195 C 329.8693237304688 56.21082305908203 330.1222229003906 59.63229751586914 330.1222229003906 63.03055191040039 C 330.1222229003906 75.84945678710938 326.5825500488281 88.36567687988281 319.8794860839844 99.27651214599609 Z" stroke="none"/>
        <path d="M 328.7354125976563 53.70943450927734 L 265.0443725585938 63.88324737548828 L 319.6337585449219 98.23573303222656 C 326.0098876953125 87.59652709960938 329.3722229003906 75.45812225341797 329.3722229003906 63.03055572509766 C 329.3722229003906 59.92172241210938 329.1582336425781 56.79304504394531 328.7354125976563 53.70943450927734 M 329.9964904785156 51.98898315429688 C 330.5797424316406 55.64134216308594 330.8722229003906 59.33271026611328 330.8722229003906 63.03055572509766 C 330.8722229003906 76.22160339355469 327.1434936523438 89.14945983886719 320.1182250976563 100.3128814697266 L 260.8730163574219 63.03055572509766 L 329.9964904785156 51.98898315429688 Z" stroke="none" fill="#fff"/>
      </g>
      <g id="Path-4" data-name="Path" transform="translate(-190.872 -14.617)" fill="#8dc351">
        <path d="M 261.92578125 83.68951416015625 L 281.0465087890625 18.3703556060791 C 293.3566589355469 22.11792182922363 304.3402404785156 29.19055557250977 312.8500671386719 38.85787582397461 C 321.3602600097656 48.52216720581055 326.9839782714844 60.31405258178711 329.1421508789063 73.00283050537109 L 261.92578125 83.68951416015625 Z" stroke="none"/>
        <path d="M 262.9785766601563 82.76271820068359 L 328.2715148925781 72.3818359375 C 326.0459289550781 60.11457061767578 320.5380859375 48.7233772277832 312.287109375 39.35342788696289 C 304.0365295410156 29.98063278198242 293.435791015625 23.0737361907959 281.5521545410156 19.31264114379883 L 262.9785766601563 82.76271820068359 M 260.8730163574219 84.61631774902344 L 280.5385437011719 17.43599700927734 C 293.2551574707031 21.15821647644043 304.6574401855469 28.41581726074219 313.4130249023438 38.3623161315918 C 322.1702880859375 48.30719757080078 327.92333984375 60.53804779052734 330.0046081542969 73.62512969970703 L 260.8730163574219 84.61631774902344 Z" stroke="none" fill="#fff"/>
      </g>
      <g id="Path-5" data-name="Path" transform="translate(-217.788 -15.701)" fill="#f7931a">
        <path d="M 230.8964691162109 125.1822509765625 C 226.9650268554688 119.5171966552734 223.9107971191406 113.3173751831055 221.8135375976563 106.7426452636719 C 219.6401062011719 99.92901611328125 218.5380706787109 92.84931945800781 218.5380706787109 85.70020294189453 C 218.5380706787109 76.41980743408203 220.3809204101563 67.38835906982422 224.0154418945313 58.85671997070313 C 225.7606964111328 54.75990295410156 227.9195709228516 50.80364608764648 230.4320678710938 47.09784698486328 C 232.9202423095703 43.42790222167969 235.7753753662109 39.97360229492188 238.9181213378906 36.83089065551758 C 242.0608978271484 33.68817520141602 245.5152587890625 30.83307456970215 249.1852722167969 28.34493255615234 C 252.8911590576172 25.83246040344238 256.8475036621094 23.67360305786133 260.9444274902344 21.9283618927002 C 269.476318359375 18.29384613037109 278.5080871582031 16.45100402832031 287.7888488769531 16.45100402832031 C 294.1534729003906 16.45100402832031 300.4754943847656 17.32613563537598 306.5920715332031 19.05290222167969 L 287.1426086425781 85.23925018310547 L 230.8964691162109 125.1822509765625 Z" stroke="none"/>
        <path d="M 231.0837860107422 124.1293487548828 L 286.4963073730469 84.77833557128906 L 305.6575927734375 19.57275581359863 C 299.835205078125 17.99847793579102 293.831298828125 17.20099830627441 287.7888488769531 17.20099830627441 C 278.6096801757813 17.20099830627441 269.6767883300781 19.02366065979004 261.2383728027344 22.61835289001465 C 257.185791015625 24.3447208404541 253.2721405029297 26.48027610778809 249.6061248779297 28.96570587158203 C 245.9752960205078 31.42730522155762 242.5577545166016 34.25196838378906 239.4484558105469 37.36121368408203 C 236.3391571044922 40.47047424316406 233.5144653320313 43.8879508972168 231.0528411865234 47.51872253417969 C 228.5673828125 51.18464279174805 226.4318084716797 55.09818267822266 224.7054290771484 59.15066146850586 C 221.1107330322266 67.58882904052734 219.2880706787109 76.52140045166016 219.2880706787109 85.7001953125 C 219.2880706787109 92.77185821533203 220.3781585693359 99.77487182617188 222.528076171875 106.5147247314453 C 224.5257263183594 112.7772216796875 227.4010772705078 118.6957778930664 231.0837860107422 124.1293487548828 M 230.7159118652344 126.230354309082 C 222.3079833984375 114.3894119262695 217.7880706787109 100.2219085693359 217.7880706787109 85.7001953125 C 217.7880706787109 47.30007553100586 249.3871002197266 15.70099830627441 287.7888488769531 15.70099830627441 C 294.4696044921875 15.70099830627441 301.11474609375 16.65633773803711 307.5242004394531 18.5409984588623 L 287.7888488769531 85.7001953125 L 230.7159118652344 126.230354309082 Z" stroke="none" fill="#fff"/>
      </g>
    </g>
    <circle id="Mask" cx="66" cy="66" r="66" transform="translate(221.788 19.701)" fill="#fff"/>
  </g>
</svg>
