<svg xmlns="http://www.w3.org/2000/svg" width="144" height="144" viewBox="0 0 144 144">
  <g id="Qr_Code_Sample" transform="translate(-1004.001 -364)">
    <path id="Mini_Rectangle" d="M135,144v-4h5v4Zm-4,0v-4h4v4Zm-13,0v-4h5v4Zm-9,0v-4h5v4Zm-4,0v-4h4v4Zm-5,0v-4h5v4Zm-22,0v-4h5v4Zm-4,0v-4h4v4Zm-8,0v-4h4v4Zm-18,0v-4h4v4Zm-4,0v-4h4v4Zm-5,0v-4h5v4Zm92-4v-5h4v5Zm-5,0v-5h5v5Zm-3,0v-5h3v5Zm-5,0v-5h5v5Zm-4,0v-5h4v5Zm-5,0v-5h5v5Zm-9,0v-5h5v5Zm-8,0v-5h4v5Zm-5,0v-5h5v5Zm-9,0v-5h5v5Zm-21,0v-5h4v5Zm-5,0v-5h5v5Zm88-5v-4h4v4Zm-5,0v-4h5v4Zm-12,0v-4h3v4Zm-18,0v-4h4v4Zm-5,0v-4h5v4Zm-4,0v-4h4v4Zm-9,0v-4h5v4Zm-4,0v-4h4v4Zm-5,0v-4h5v4Zm-4,0v-4h4v4Zm-4,0v-4h4v4Zm-9,0v-4h5v4Zm-13,0v-4h4v4Zm92-4v-5h4v5Zm-17,0v-5h3v5Zm-14,0v-5h5v5Zm-9,0v-5h5v5Zm-8,0v-5h4v5Zm-9,0v-5h4v5Zm-5,0v-5h5v5Zm-8,0v-5h4v5Zm-4,0v-5h4v5Zm-5,0v-5h5v5Zm-4,0v-5h4v5Zm-5,0v-5h5v5Zm-4,0v-5h4v5Zm-4,0v-5h4v5Zm-5,0v-5h5v5Zm92-5v-3h4v3Zm-5,0v-3h5v3Zm-3,0v-3h3v3Zm-5,0v-3h5v3Zm-4,0v-3h4v3Zm-5,0v-3h5v3Zm-4,0v-3h4v3Zm-13,0v-3h4v3Zm-9,0v-3h4v3Zm-9,0v-3h4v3Zm-8,0v-3h4v3Zm-9,0v-3h4v3Zm-5,0v-3h5v3Zm-4,0v-3h4v3Zm-9,0v-3h5v3Zm92-3v-5h4v5Zm-5,0v-5h5v5Zm-3,0v-5h3v5Zm-18,0v-5h4v5Zm-5,0v-5h5v5Zm-4,0v-5h4v5Zm-30,0v-5h4v5Zm-5,0v-5h5v5Zm-9,0v-5h5v5Zm-17,0v-5h4v5Zm100-5v-4h5v4Zm-12,0v-4h3v4Zm-9,0v-4h4v4Zm-9,0v-4h4v4Zm-22,0v-4h4v4Zm-5,0v-4h5v4Zm-4,0v-4h4v4Zm-4,0v-4h4v4Zm-13,0v-4h4v4Zm-5,0v-4h5v4Zm-4,0v-4h4v4Zm-9,0v-4h5v4Zm96-4v-5h5v5Zm-4,0v-5h4v5Zm-5,0v-5h5v5Zm-3,0v-5h3v5Zm-18,0v-5h4v5Zm-5,0v-5h5v5Zm-4,0v-5h4v5Zm-9,0v-5h5v5Zm-4,0v-5h4v5Zm-9,0v-5h4v5Zm-4,0v-5h4v5Zm-4,0v-5h4v5Zm-5,0v-5h5v5Zm-9,0v-5h5v5Zm-8,0v-5h4v5Zm-9,0v-5h4v5Zm105-5v-4h4v4Zm-14,0v-4h5v4Zm-3,0v-4h3v4Zm-5,0v-4h5v4Zm-4,0v-4h4v4Zm-5,0v-4h5v4Zm-4,0v-4h4v4Zm-5,0v-4h5v4Zm-8,0v-4h4v4Zm-14,0v-4h5v4Zm-4,0v-4h4v4Zm-22,0v-4h5v4Zm-8,0v-4h4v4Zm-5,0v-4h5v4Zm-13,0v-4h4v4Zm-5,0v-4h5v4Zm-8,0v-4h5v4Zm-9,0v-4H9v4Zm-4,0v-4H4v4Zm135-4v-5h5v5Zm-4,0v-5h4v5Zm-5,0v-5h5v5Zm-17,0v-5h5v5Zm-4,0v-5h4v5Zm-9,0v-5h4v5Zm-22,0v-5h4v5Zm-4,0v-5h4v5Zm-9,0v-5h5v5Zm-9,0v-5h5v5Zm-8,0v-5h4v5Zm-9,0v-5h4v5Zm-5,0v-5h5v5Zm-9,0v-5h5v5Zm-8,0v-5h5v5ZM0,105v-5H4v5Zm135-5V96h5v4Zm-4,0V96h4v4Zm-8,0V96h3v4Zm-36,0V96h5v4Zm-13,0V96h4v4Zm-8,0V96h4v4Zm-9,0V96h4v4Zm-5,0V96h5v4Zm-4,0V96h4v4Zm-4,0V96h4v4Zm-5,0V96h5v4Zm-13,0V96h4v4Zm-5,0V96h5v4Zm-3,0V96h3v4ZM0,100V96H4v4Zm140-4V92h4v4Zm-5,0V92h5v4Zm-4,0V92h4v4Zm-8,0V92h3v4Zm-5,0V92h5v4Zm-13,0V92h4v4Zm-5,0V92h5v4Zm-4,0V92h4v4Zm-4,0V92h4v4ZM61,96V92h5v4Zm-4,0V92h4v4Zm-9,0V92h4v4Zm-9,0V92h5v4Zm-4,0V92h4v4Zm-5,0V92h5v4Zm-9,0V92h5v4ZM9,96V92h4v4ZM0,96V92H4v4Zm131-4V87h4v5Zm-22,0V87h5v5ZM96,92V87h4v5ZM83,92V87h4v5Zm-5,0V87h5v5Zm-4,0V87h4v5Zm-8,0V87h4v5Zm-5,0V87h5v5Zm-4,0V87h4v5ZM44,92V87h4v5Zm-5,0V87h5v5Zm-9,0V87h5v5Zm-4,0V87h4v5ZM9,92V87h4v5ZM4,92V87H9v5Zm127-5V83h4v4Zm-5,0V83h5v4Zm-8,0V83h5v4ZM87,87V83h5v4ZM70,87V83h4v4Zm-9,0V83h5v4Zm-9,0V83h5v4Zm-8,0V83h4v4ZM18,87V83h3v4ZM4,87V83H9v4Zm136-4V78h4v5Zm-9,0V78h4v5Zm-22,0V78h5v5Zm-9,0V78h5v5Zm-4,0V78h4v5Zm-4,0V78h4v5Zm-5,0V78h5v5Zm-9,0V78h5v5ZM61,83V78h5v5Zm-4,0V78h4v5ZM44,83V78h4v5Zm-5,0V78h5v5Zm-4,0V78h4v5Zm-9,0V78h4v5Zm-5,0V78h5v5Zm-3,0V78h3v5ZM9,83V78h4v5ZM4,83V78H9v5Zm136-5V74h4v4Zm-5,0V74h5v4Zm-4,0V74h4v4Zm-13,0V74h5v4Zm-9,0V74h5v4Zm-9,0V74h5v4Zm-4,0V74h4v4Zm-4,0V74h4v4ZM78,78V74h5v4Zm-4,0V74h4v4Zm-8,0V74h4v4Zm-5,0V74h5v4ZM48,78V74h4v4Zm-4,0V74h4v4Zm-5,0V74h5v4Zm-4,0V74h4v4ZM9,78V74h4v4ZM4,78V74H9v4ZM0,78V74H4v4Zm131-4V70h4v4Zm-8,0V70h3v4Zm-5,0V70h5v4Zm-9,0V70h5v4Zm-4,0V70h4v4Zm-9,0V70h4v4Zm-9,0V70h5v4ZM70,74V70h4v4Zm-9,0V70h5v4Zm-4,0V70h4v4ZM26,74V70h4v4Zm-5,0V70h5v4Zm-3,0V70h3v4ZM0,74V70H4v4Zm131-4V66h4v4Zm-5,0V66h5v4Zm-3,0V66h3v4Zm-5,0V66h5v4Zm-4,0V66h4v4Zm-5,0V66h5v4Zm-4,0V66h4v4ZM87,70V66h5v4Zm-4,0V66h4v4Zm-5,0V66h5v4Zm-4,0V66h4v4ZM61,70V66h5v4Zm-9,0V66h5v4Zm-8,0V66h4v4Zm-5,0V66h5v4Zm-4,0V66h4v4ZM18,70V66h3v4Zm-5,0V66h5v4ZM4,70V66H9v4Zm122-4V61h5v5Zm-8,0V61h5v5Zm-9,0V61h5v5Zm-4,0V61h4v5ZM92,66V61h4v5Zm-5,0V61h5v5Zm-4,0V61h4v5Zm-9,0V61h4v5Zm-4,0V61h4v5Zm-9,0V61h5v5Zm-4,0V61h4v5ZM44,66V61h4v5Zm-9,0V61h4v5Zm-5,0V61h5v5Zm-4,0V61h4v5Zm-5,0V61h5v5Zm-8,0V61h5v5ZM9,66V61h4v5ZM0,66V61H4v5Zm140-5V57h4v4Zm-5,0V57h5v4Zm-4,0V57h4v4Zm-13,0V57h5v4Zm-4,0V57h4v4ZM87,61V57h5v4ZM70,61V57h4v4Zm-4,0V57h4v4Zm-9,0V57h4v4Zm-5,0V57h5v4Zm-8,0V57h4v4Zm-9,0V57h4v4Zm-5,0V57h5v4ZM4,61V57H9v4ZM0,61V57H4v4Zm140-4V52h4v5Zm-9,0V52h4v5Zm-13,0V52h5v5Zm-4,0V52h4v5Zm-9,0V52h4v5Zm-5,0V52h5v5ZM78,57V52h5v5Zm-4,0V52h4v5ZM52,57V52h5v5Zm-4,0V52h4v5Zm-9,0V52h5v5Zm-9,0V52h5v5Zm-4,0V52h4v5Zm-8,0V52h3v5Zm-5,0V52h5v5ZM4,57V52H9v5Zm136-5V48h4v4Zm-9,0V48h4v4Zm-5,0V48h5v4Zm-8,0V48h5v4Zm-13,0V48h4v4ZM87,52V48h5v4ZM70,52V48h4v4Zm-9,0V48h5v4ZM48,52V48h4v4Zm-4,0V48h4v4Zm-5,0V48h5v4Zm-9,0V48h5v4ZM0,52V48H4v4Zm135-4V44h5v4Zm-4,0V44h4v4Zm-5,0V44h5v4Zm-3,0V44h3v4Zm-5,0V44h5v4Zm-4,0V44h4v4Zm-9,0V44h4v4Zm-9,0V44h4v4Zm-9,0V44h5v4ZM74,48V44h4v4Zm-4,0V44h4v4Zm-4,0V44h4v4ZM52,48V44h5v4Zm-4,0V44h4v4ZM35,48V44h4v4Zm-5,0V44h5v4Zm-4,0V44h4v4Zm-5,0V44h5v4Zm-8,0V44h5v4ZM4,48V44H9v4Zm131-4V39h5v5Zm-4,0V39h4v5Zm-5,0V39h5v5Zm-3,0V39h3v5Zm-5,0V39h5v5Zm-13,0V39h4v5Zm-5,0V39h5v5Zm-4,0V39h4v5Zm-4,0V39h4v5ZM74,44V39h4v5Zm-8,0V39h4v5Zm-5,0V39h5v5Zm-4,0V39h4v5ZM30,44V39h5v5Zm-9,0V39h5v5Zm-3,0V39h3v5ZM9,44V39h4v5ZM4,44V39H9v5Zm136-5V35h4v4Zm-9,0V35h4v4Zm-8,0V35h3v4Zm-9,0V35h4v4ZM96,39V35h4v4Zm-4,0V35h4v4Zm-5,0V35h5v4Zm-4,0V35h4v4ZM61,39V35h5v4Zm-4,0V35h4v4Zm-9,0V35h4v4ZM26,39V35h4v4Zm-5,0V35h5v4Zm84-4V30h4v5Zm-9,0V30h4v5Zm-9,0V30h5v5Zm-4,0V30h4v5Zm-5,0V30h5v5ZM66,35V30h4v5ZM52,35V30h5v5Zm-8,0V30h4v5Zm-5,0V30h5v5Zm-4,0V30h4v5Zm70-5V26h4v4Zm-9,0V26h4v4Zm-9,0V26h5v4Zm-9,0V26h5v4Zm-8,0V26h4v4Zm-9,0V26h5v4Zm-9,0V26h5v4Zm-8,0V26h4v4Zm-9,0V26h4v4Zm52-4V21h5v5ZM74,26V21h4v5Zm-4,0V21h4v5ZM57,26V21h4v5Zm-5,0V21h5v5Zm40-5V18h4v3Zm-9,0V18h4v3Zm-9,0V18h4v3Zm-4,0V18h4v3Zm-4,0V18h4v3Zm-5,0V18h5v3Zm-4,0V18h4v3Zm-5,0V18h5v3ZM35,21V18h4v3Zm70-3V13h4v5Zm-5,0V13h5v5Zm-8,0V13h4v5Zm-9,0V13h4v5Zm-5,0V13h5v5Zm-4,0V13h4v5Zm-4,0V13h4v5Zm-9,0V13h5v5Zm-4,0V13h4v5Zm-5,0V13h5v5Zm-4,0V13h4v5Zm52-5V9h5v4Zm-8,0V9h4v4Zm-5,0V9h5v4Zm-4,0V9h4v4Zm-5,0V9h5v4Zm-8,0V9h4v4Zm-4,0V9h4v4Zm-5,0V9h5v4ZM48,13V9h4v4Zm-4,0V9h4v4Zm-9,0V9h4v4Zm70-4V4h4V9ZM96,9V4h4V9ZM83,9V4h4V9ZM78,9V4h5V9ZM66,9V4h4V9ZM57,9V4h4V9ZM44,9V4h4V9ZM87,4V0h5V4ZM83,4V0h4V4ZM66,4V0h4V4ZM57,4V0h4V4ZM48,4V0h4V4ZM39,4V0h5V4ZM35,4V0h4V4Z" transform="translate(1004 364)"/>
    <path id="Rectangle" d="M26,30.317H0v-30H30v30Zm-22-4H26v-22H4Zm5-5v-12H21v12Z" transform="translate(1004 477.683)"/>
    <path id="Rectangle-2" data-name="Rectangle" d="M26.318,30h-26V0h30V30Zm-22-4h22V4h-22Zm5-5V9h12V21Z" transform="translate(1117.684 364)"/>
    <path id="Rectangle-3" data-name="Rectangle" d="M26,30H0V0H30V30ZM4,26H26V4H4Zm5-5V9H21V21Z" transform="translate(1004 364)"/>
    <g id="Symbol" transform="translate(1053.895 413.894)">
      <circle id="Circle_Bg" cx="22" cy="22" r="22" transform="translate(0.106 0.106)" fill="#fff"/>
      <g id="Circle_Bg-2" data-name="Circle_Bg" transform="translate(2.106 2.106)" fill="none" stroke="#000" stroke-width="2">
        <circle cx="20" cy="20" r="20" stroke="none"/>
        <circle cx="20" cy="20" r="19" fill="none"/>
      </g>
      <path id="Symbol-2" data-name="Symbol" d="M19.181,22.707l-7.65-7.652L5.86,20.727a.919.919,0,1,1-1.3-1.3L9.6,14.382a.93.93,0,0,1,.1-.089.008.008,0,0,1,0-.013l1.17-1.17a.928.928,0,0,1,1.313,0l8.327,8.33a.92.92,0,0,1-.062,1.356.878.878,0,0,1-.57.2A1,1,0,0,1,19.181,22.707ZM.2,20.425a.952.952,0,0,1,.089-1.273L7.943,11.5,2.271,5.826A.921.921,0,0,1,2.33,4.468a.952.952,0,0,1,1.273.09l5,5.006a.936.936,0,0,1,.1.112.008.008,0,0,1,.014,0l1.17,1.17a.928.928,0,0,1,0,1.313L1.56,20.487A.92.92,0,0,1,.2,20.425Zm19.236-1.9-5.052-5.053a.946.946,0,0,1-.091-.106.008.008,0,0,1-.013,0l-1.17-1.17a.929.929,0,0,1,0-1.314l8.327-8.33a.92.92,0,0,1,1.356.061.952.952,0,0,1-.089,1.273l-7.65,7.652,5.683,5.684a.923.923,0,0,1,0,1.3.913.913,0,0,1-.648.268A.925.925,0,0,1,19.439,18.528ZM10.858,9.89,2.53,1.56A.92.92,0,0,1,2.592.2a.951.951,0,0,1,1.272.09l7.65,7.652,5.671-5.673a.919.919,0,1,1,1.3,1.3L13.44,8.621a.938.938,0,0,1-.1.086.008.008,0,0,1,0,.013l-1.17,1.17a.928.928,0,0,1-1.313,0Z" transform="translate(10.771 10.771)"/>
    </g>
  </g>
</svg>
