<svg id="Recaptcha" xmlns="http://www.w3.org/2000/svg" width="300" height="76" viewBox="0 0 300 76">
  <rect id="Background" width="300" height="76" rx="3" fill="#fafafa"/>
  <g id="Logo" transform="translate(237 11)">
    <text id="Recaptcha-2" data-name="Recaptcha" transform="translate(0 33.446)" fill="#a5a5a5" font-size="12" font-family="BarlowCondensed-Regular, Barlow"><tspan x="5.246" y="12">reCAPTCHA</tspan></text>
    <text id="Privacy_-_Terms" data-name="Privacy - Terms" transform="translate(0 44.978)" fill="#a5a5a5" font-size="10" font-family="BarlowCondensed-Regular, Barlow"><tspan x="1.53" y="10">Privacy - Terms</tspan></text>
    <g id="Symbol" transform="translate(11.422)">
      <path id="Shape" d="M21.99,14.709h0l-11.865-.1,3.83-3.924A8.463,8.463,0,0,0,7.845,7.275c-.215-.021-.433-.032-.647-.032A7.042,7.042,0,0,0,4.27,7.9L0,2.041A15.04,15.04,0,0,1,7.636,0,14.488,14.488,0,0,1,19.068,5.446l2.767-2.834.155,12.1Z" transform="translate(8.738)" fill="#2b4cb9"/>
      <path id="Shape-2" data-name="Shape" d="M.257,17.238h0A15.525,15.525,0,0,1,0,14.413,14.461,14.461,0,0,1,2.589,6.037,13.355,13.355,0,0,1,5.467,2.965L2.589.155,14.687,0l-.1,11.867L10.709,8.08A8.41,8.41,0,0,0,7.275,14.2,6.744,6.744,0,0,0,7.6,17.021l-7.346.217Z" transform="translate(0.963 0.041)" fill="#5a96f6"/>
      <path id="Shape-3" data-name="Shape" d="M2.921,9.263.155,12.1,0,0,11.866.1,8.037,4.022a8.466,8.466,0,0,0,6.108,3.413c4.279.423,7.18-3.488,7.18-3.488l4.694,5.332a15.147,15.147,0,0,1-11.665,5.431A14.5,14.5,0,0,1,2.921,9.263Z" transform="translate(1 15.173)" fill="#bebebe"/>
    </g>
  </g>
  <text id="I_m_not_a_robot" data-name="I’m not a robot" transform="translate(56 44)" fill="#191e2b" font-size="17" font-family="BarlowCondensed-Regular, Barlow"><tspan x="0" y="0">I’m not a robot</tspan></text>
  <g id="Check_Box" transform="translate(20 24)" fill="none" stroke="#c1c1c1" stroke-linecap="round" stroke-linejoin="round" stroke-miterlimit="10" stroke-width="2">
    <rect width="28" height="28" rx="2" stroke="none"/>
    <rect x="1" y="1" width="26" height="26" rx="1" fill="none"/>
  </g>
</svg>
