<svg xmlns="http://www.w3.org/2000/svg" width="94" height="94" viewBox="0 0 94 94">
  <g id="Icon_01" transform="translate(-687.209 -385.668)">
    <circle id="Circle" cx="47" cy="47" r="47" transform="translate(687.209 385.668)" fill="#357ce1"/>
    <g id="client" transform="translate(637.099 385.609)">
      <path id="Path_424" data-name="Path 424" d="M104.622,52.295A7.748,7.748,0,0,0,99.9,45.163l-.4-.172.354-.259a6.75,6.75,0,1,0-7.966,0l.353.259-.4.172a7.752,7.752,0,0,0-4.717,7.132v4a.752.752,0,0,0,.75.75h16a.752.752,0,0,0,.75-.75ZM90.685,39.875l-.026-.2,0,0,0-.017a2.379,2.379,0,0,1-.029-.329,5.172,5.172,0,0,1,.243-1.565l-.041.018.232-.576a5.257,5.257,0,0,1,3.758-3.036,4.547,4.547,0,0,1,2.019-.018c.09.017.178.038.267.06a5.814,5.814,0,0,1,.561.17c.153.056.3.108.439.173l.066.035a5.26,5.26,0,1,1-7.49,5.292Zm12.437,15.67h-14.5v-3.25a6.237,6.237,0,0,1,5.589-6.215l.454-.048H97.08l.454.048a6.234,6.234,0,0,1,5.588,6.214Z" fill="#fff"/>
      <path id="Path_425" data-name="Path 425" d="M73.26,38.2V23.208H88.25" fill="none" stroke="#fff" stroke-linecap="round" stroke-linejoin="round" stroke-width="1.5"/>
      <path id="Path_426" data-name="Path 426" d="M87.25,69.908H73.26V54.918" fill="none" stroke="#fff" stroke-linecap="round" stroke-linejoin="round" stroke-width="1.5"/>
      <path id="Path_427" data-name="Path 427" d="M119.96,54.918v14.99H104.97" fill="none" stroke="#fff" stroke-linecap="round" stroke-linejoin="round" stroke-width="1.5"/>
      <path id="Path_428" data-name="Path 428" d="M104.97,23.208h14.99V38.2" fill="none" stroke="#fff" stroke-linecap="round" stroke-linejoin="round" stroke-width="1.5"/>
    </g>
  </g>
</svg>
