<svg xmlns="http://www.w3.org/2000/svg" width="94" height="94" viewBox="0 0 94 94">
  <g id="Icon_03" transform="translate(-687.209 -385.668)">
    <circle id="Circle" cx="47" cy="47" r="47" transform="translate(687.209 385.668)" fill="#357ce1"/>
    <path id="Professional_Icon_Blue" d="M1448.761,1261.867h-12.47v-2.454a2.9,2.9,0,0,0-2.887-2.887h-9.233a2.9,2.9,0,0,0-2.892,2.892v2.449h-12.47a1.972,1.972,0,0,0-1.973,1.973v15.206h.726V1293a1.974,1.974,0,0,0,1.974,1.974h38.5a1.974,1.974,0,0,0,1.974-1.974v-13.951h.726v-15.2A1.973,1.973,0,0,0,1448.761,1261.867Zm-25.838-2.041a1.514,1.514,0,0,1,1.512-1.512h8.963a1.25,1.25,0,0,1,1.249,1.249v2.332h-11.724Zm25.438,33.17a.33.33,0,0,1-.329.329h-38.5a.33.33,0,0,1-.329-.329v-13.72h16.757l2.828-4.465,2.827,4.465h16.744Zm.728-15.662h-16.012l-4.286-6.761-4.287,6.761H1408.48v-13.493a.33.33,0,0,1,.329-.33h39.953a.331.331,0,0,1,.329.33Z" transform="translate(-695.076 -845.818)" fill="#fff"/>
  </g>
</svg>
