<svg xmlns="http://www.w3.org/2000/svg" xmlns:xlink="http://www.w3.org/1999/xlink" width="901" height="500" viewBox="0 0 901 500">
  <defs>
    <clipPath id="clip-path">
      <rect id="Mask" width="900" height="500" transform="translate(508 -0.087)" fill="#b82c0d"/>
    </clipPath>
    <clipPath id="clip-path-2">
      <rect width="11" height="59.4" fill="none"/>
    </clipPath>
    <clipPath id="clip-path-4">
      <rect width="11" height="27" fill="none"/>
    </clipPath>
  </defs>
  <g id="Departments" transform="translate(-510 -1730.913)">
    <rect id="Bg" width="900" height="500" transform="translate(511 1730.913)" fill="#173658"/>
    <g id="Circles" transform="translate(2 1731)" clip-path="url(#clip-path)">
      <g id="Circles-2" data-name="Circles" transform="translate(741 31.006)">
        <circle id="Circle_03" cx="219" cy="219" r="219" transform="translate(0 -0.093)" fill="#758ca3" opacity="0.1"/>
        <circle id="Circle_02" cx="169" cy="169" r="169" transform="translate(50 49.907)" fill="#758ca3" opacity="0.1"/>
        <circle id="Circle_01" cx="119" cy="119" r="119" transform="translate(100 99.907)" fill="#758ca3" opacity="0.1"/>
      </g>
    </g>
    <g id="Lines" transform="translate(818.5 2349.456) rotate(-90)">
      <g id="Left" transform="translate(726.542 284) rotate(180)">
        <path id="Path" d="M7544.5-18948.5h-35.814L7467.5-18729h-42.458" transform="translate(-7236.5 19106.5)" fill="none" stroke="#546e89" stroke-linecap="round" stroke-width="1.5"/>
        <path id="Path-2" data-name="Path" d="M7509.458-18893.5H7390" transform="translate(-7201.458 19035.5)" fill="none" stroke="#546e89" stroke-linecap="round" stroke-width="1.5"/>
        <path id="Path-3" data-name="Path" d="M7544-18734.5h-35.814l-41.186-214h-42.458" transform="translate(-7236 18860.498)" fill="none" stroke="#546e89" stroke-linecap="round" stroke-width="1.5"/>
        <path id="Path-4" data-name="Path" d="M0,163.5,36.544,47.262,51.4,0" transform="translate(353.902 364.999) rotate(180)" fill="none" stroke="#546e89" stroke-linecap="round" stroke-linejoin="round" stroke-width="1.5"/>
        <path id="Path-5" data-name="Path" d="M53,163.5,15.32,47.262,0,0" transform="translate(369.5 201.5)" fill="none" stroke="#546e89" stroke-linecap="round" stroke-linejoin="round" stroke-width="1.5"/>
        <path id="Path-6" data-name="Path" d="M0,163.5,36.544,47.262,51.4,0" transform="translate(368.097 -83.5)" fill="none" stroke="#546e89" stroke-linecap="round" stroke-linejoin="round" stroke-width="1.5"/>
        <path id="Path-7" data-name="Path" d="M53,163.5,15.32,47.262,0,0" transform="translate(352.5 80) rotate(180)" fill="none" stroke="#546e89" stroke-linecap="round" stroke-linejoin="round" stroke-width="1.5"/>
      </g>
      <g id="Left-2" data-name="Left" transform="translate(5)">
        <path id="Path-8" data-name="Path" d="M7544.5-18948.5h-35.814L7467.5-18729h-42.458" transform="translate(-7236.5 19106.5)" fill="none" stroke="#546e89" stroke-linecap="round" stroke-width="1.5"/>
        <path id="Path-9" data-name="Path" d="M7509.458-18893.5H7390" transform="translate(-7201.458 19035.5)" fill="none" stroke="#546e89" stroke-linecap="round" stroke-width="1.5"/>
        <path id="Path-10" data-name="Path" d="M7544-18734.5h-35.814l-41.186-214h-42.458" transform="translate(-7236 18860.498)" fill="none" stroke="#546e89" stroke-linecap="round" stroke-width="1.5"/>
      </g>
    </g>
    <g id="Logo_Chip" transform="translate(902.511 2040.955) rotate(-90)">
      <rect id="Bg_Stroke" width="115" height="115" rx="10" fill="none" stroke="#546e89" stroke-width="1.5"/>
      <rect id="Bg-2" data-name="Bg" width="99" height="99" rx="5" transform="translate(8 8)" fill="#173658"/>
      <g id="Symbol" transform="translate(90.385 28.384) rotate(90)">
        <path id="X_Blue" d="M708.532-415.3a10.251,10.251,0,0,0-8.361,4.311L689.2-395.676l6.288,8.777L715.8-415.3Z" transform="translate(-657.802 415.303)" fill="#357ce1"/>
        <path id="Type" d="M439.418,65.169a1.588,1.588,0,0,1-1.291-.664l-15.78-22.053a.788.788,0,0,0-1.281,0L405.288,64.505a1.589,1.589,0,0,1-1.292.664h-10.2a.792.792,0,0,1-.457-.152.8.8,0,0,1-.184-1.121l21.725-30.324a1.35,1.35,0,0,0,0-1.572L393.151,1.676A.8.8,0,0,1,393.792.4h10.175a1.588,1.588,0,0,1,1.292.663L450.264,63.9a.807.807,0,0,1-.643,1.274Z" transform="translate(-393 -0.401)" fill="#fff"/>
      </g>
    </g>
    <g id="Mini_Circle" transform="translate(923 1931.456) rotate(-90)" clip-path="url(#clip-path-2)">
      <g id="Mini_Circle-2" data-name="Mini_Circle" transform="translate(-1049.042 -426.6)">
        <g id="Ellipse" transform="translate(1049.041 426.6)" fill="#314d6d" stroke="#546e89" stroke-miterlimit="10" stroke-width="1.5">
          <circle cx="5.5" cy="5.5" r="5.5" stroke="none"/>
          <circle cx="5.5" cy="5.5" r="4.75" fill="none"/>
        </g>
        <circle id="Ellipse-2" data-name="Ellipse" cx="2.5" cy="2.5" r="2.5" transform="translate(1052.042 429.599)" fill="#546e89"/>
      </g>
      <g id="Mini_Circle-3" data-name="Mini_Circle" transform="translate(-1049.042 -410.6)">
        <g id="Ellipse-3" data-name="Ellipse" transform="translate(1049.041 426.6)" fill="#314d6d" stroke="#546e89" stroke-miterlimit="10" stroke-width="1.5">
          <circle cx="5.5" cy="5.5" r="5.5" stroke="none"/>
          <circle cx="5.5" cy="5.5" r="4.75" fill="none"/>
        </g>
        <circle id="Ellipse-4" data-name="Ellipse" cx="2.5" cy="2.5" r="2.5" transform="translate(1052.042 429.599)" fill="#546e89"/>
      </g>
      <g id="Mini_Circle-4" data-name="Mini_Circle" transform="translate(-1049.042 -394.6)">
        <g id="Ellipse-5" data-name="Ellipse" transform="translate(1049.041 426.6)" fill="#314d6d" stroke="#546e89" stroke-miterlimit="10" stroke-width="1.5">
          <circle cx="5.5" cy="5.5" r="5.5" stroke="none"/>
          <circle cx="5.5" cy="5.5" r="4.75" fill="none"/>
        </g>
        <circle id="Ellipse-6" data-name="Ellipse" cx="2.5" cy="2.5" r="2.5" transform="translate(1052.042 429.599)" fill="#546e89"/>
      </g>
      <g id="Mini_Circle-5" data-name="Mini_Circle" transform="translate(-1049.042 -378.6)">
        <g id="Ellipse-7" data-name="Ellipse" transform="translate(1049.041 426.6)" fill="#314d6d" stroke="#546e89" stroke-miterlimit="10" stroke-width="1.5">
          <circle cx="5.5" cy="5.5" r="5.5" stroke="none"/>
          <circle cx="5.5" cy="5.5" r="4.75" fill="none"/>
        </g>
        <circle id="Ellipse-8" data-name="Ellipse" cx="2.5" cy="2.5" r="2.5" transform="translate(1052.042 429.599)" fill="#546e89"/>
      </g>
    </g>
    <g id="Mini_Circle-6" data-name="Mini_Circle" transform="translate(923 2046.456) rotate(-90)" clip-path="url(#clip-path-2)">
      <g id="Mini_Circle-7" data-name="Mini_Circle" transform="translate(-1049.042 -426.6)">
        <g id="Ellipse-9" data-name="Ellipse" transform="translate(1049.041 426.6)" fill="#314d6d" stroke="#546e89" stroke-miterlimit="10" stroke-width="1.5">
          <circle cx="5.5" cy="5.5" r="5.5" stroke="none"/>
          <circle cx="5.5" cy="5.5" r="4.75" fill="none"/>
        </g>
        <circle id="Ellipse-10" data-name="Ellipse" cx="2.5" cy="2.5" r="2.5" transform="translate(1052.042 429.599)" fill="#546e89"/>
      </g>
      <g id="Mini_Circle-8" data-name="Mini_Circle" transform="translate(-1049.042 -410.6)">
        <g id="Ellipse-11" data-name="Ellipse" transform="translate(1049.041 426.6)" fill="#314d6d" stroke="#546e89" stroke-miterlimit="10" stroke-width="1.5">
          <circle cx="5.5" cy="5.5" r="5.5" stroke="none"/>
          <circle cx="5.5" cy="5.5" r="4.75" fill="none"/>
        </g>
        <circle id="Ellipse-12" data-name="Ellipse" cx="2.5" cy="2.5" r="2.5" transform="translate(1052.042 429.599)" fill="#546e89"/>
      </g>
      <g id="Mini_Circle-9" data-name="Mini_Circle" transform="translate(-1049.042 -394.6)">
        <g id="Ellipse-13" data-name="Ellipse" transform="translate(1049.041 426.6)" fill="#314d6d" stroke="#546e89" stroke-miterlimit="10" stroke-width="1.5">
          <circle cx="5.5" cy="5.5" r="5.5" stroke="none"/>
          <circle cx="5.5" cy="5.5" r="4.75" fill="none"/>
        </g>
        <circle id="Ellipse-14" data-name="Ellipse" cx="2.5" cy="2.5" r="2.5" transform="translate(1052.042 429.599)" fill="#546e89"/>
      </g>
      <g id="Mini_Circle-10" data-name="Mini_Circle" transform="translate(-1049.042 -378.6)">
        <g id="Ellipse-15" data-name="Ellipse" transform="translate(1049.041 426.6)" fill="#314d6d" stroke="#546e89" stroke-miterlimit="10" stroke-width="1.5">
          <circle cx="5.5" cy="5.5" r="5.5" stroke="none"/>
          <circle cx="5.5" cy="5.5" r="4.75" fill="none"/>
        </g>
        <circle id="Ellipse-16" data-name="Ellipse" cx="2.5" cy="2.5" r="2.5" transform="translate(1052.042 429.599)" fill="#546e89"/>
      </g>
    </g>
    <g id="Group_133" data-name="Group 133">
      <g id="Dept_Name" transform="translate(1185 1896.913)">
        <g id="Bg_Stroke-2" data-name="Bg_Stroke" transform="translate(5)" fill="none" stroke="#546e89" stroke-width="1.5">
          <rect width="205" height="51" rx="25.5" stroke="none"/>
          <rect x="0.75" y="0.75" width="203.5" height="49.5" rx="24.75" fill="none"/>
        </g>
        <rect id="Bg-3" data-name="Bg" width="189" height="35" rx="17.5" transform="translate(13 8)" fill="#2d4a6a"/>
        <g id="Mini_Circle-11" data-name="Mini_Circle" transform="translate(0 20)">
          <g id="Ellipse-17" data-name="Ellipse" transform="translate(0 0)" fill="#173658" stroke="#546e89" stroke-miterlimit="10" stroke-width="1.5">
            <circle cx="5.5" cy="5.5" r="5.5" stroke="none"/>
            <circle cx="5.5" cy="5.5" r="4.75" fill="none"/>
          </g>
          <circle id="Ellipse-18" data-name="Ellipse" cx="2.5" cy="2.5" r="2.5" transform="translate(3.001 3)" fill="#546e89"/>
        </g>
        <path id="Text" d="M1.224,0a.15.15,0,0,1-.17-.17V-11.73a.15.15,0,0,1,.17-.17H2.516a.15.15,0,0,1,.17.17v5.1q0,.051.034.059t.051-.043l2.89-5.168a.247.247,0,0,1,.2-.119H7.259a.143.143,0,0,1,.136.06.139.139,0,0,1-.017.144L4.76-6.97a.157.157,0,0,0,0,.1L7.6-.2l.017.068Q7.616,0,7.463,0H6.052a.187.187,0,0,1-.187-.136l-2.21-5.3q-.017-.085-.085-.017L2.7-4.08A.134.134,0,0,0,2.686-4V-.17a.15.15,0,0,1-.17.17Zm10.37-8.789a2.766,2.766,0,0,1,2.031.782,2.765,2.765,0,0,1,.791,2.057V-.17a.15.15,0,0,1-.17.17H12.954a.15.15,0,0,1-.17-.17V-.544A.057.057,0,0,0,12.759-.6q-.026-.017-.059.017a2.149,2.149,0,0,1-1.751.714A2.778,2.778,0,0,1,9.24-.417,2.3,2.3,0,0,1,8.5-2.38a2.565,2.565,0,0,1,.893-2.168,3.722,3.722,0,0,1,2.337-.689h.986a.06.06,0,0,0,.068-.068V-5.8a1.807,1.807,0,0,0-.34-1.148,1.072,1.072,0,0,0-.884-.433.97.97,0,0,0-.714.289,1.211,1.211,0,0,0-.34.748.15.15,0,0,1-.17.17H8.959a.15.15,0,0,1-.17-.17,2.507,2.507,0,0,1,.867-1.768A2.849,2.849,0,0,1,11.594-8.789Zm-.289,7.5a1.555,1.555,0,0,0,1.037-.374,1.3,1.3,0,0,0,.442-1.054V-3.876a.06.06,0,0,0-.068-.068H11.679a1.57,1.57,0,0,0-1.088.365,1.353,1.353,0,0,0-.408,1.063,1.247,1.247,0,0,0,.306.918A1.1,1.1,0,0,0,11.305-1.292ZM16.133,0a.15.15,0,0,1-.17-.17V-11.73a.15.15,0,0,1,.17-.17h1.292a.15.15,0,0,1,.17.17V-.17a.15.15,0,0,1-.17.17Zm4.046-10.013a1.059,1.059,0,0,1-.782-.306,1.059,1.059,0,0,1-.306-.782,1.059,1.059,0,0,1,.306-.782,1.059,1.059,0,0,1,.782-.306,1.068,1.068,0,0,1,.791.3,1.068,1.068,0,0,1,.3.79,1.059,1.059,0,0,1-.306.782A1.059,1.059,0,0,1,20.179-10.013ZM19.55,0a.15.15,0,0,1-.17-.17V-8.483a.15.15,0,0,1,.17-.17h1.292a.15.15,0,0,1,.17.17V-.17a.15.15,0,0,1-.17.17Zm6.715-7.633a.15.15,0,0,1-.17.17h-1.19a.06.06,0,0,0-.068.068v4.777a1.423,1.423,0,0,0,.238.944.917.917,0,0,0,.748.247h.153a.15.15,0,0,1,.17.17V-.17a.15.15,0,0,1-.17.17h-.527a2.663,2.663,0,0,1-1.64-.425,1.944,1.944,0,0,1-.553-1.615V-7.4a.06.06,0,0,0-.068-.068h-.663a.15.15,0,0,1-.17-.17v-.85a.15.15,0,0,1,.17-.17h.663a.06.06,0,0,0,.068-.068v-1.921a.15.15,0,0,1,.17-.17h1.241a.15.15,0,0,1,.17.17v1.921a.06.06,0,0,0,.068.068H26.1a.15.15,0,0,1,.17.17Zm6.851,3.808a.15.15,0,0,1-.17.17H29.1a.06.06,0,0,0-.068.068v.918a1.473,1.473,0,0,0,.34,1,1.116,1.116,0,0,0,.884.391,1.154,1.154,0,0,0,.8-.289,1.286,1.286,0,0,0,.408-.748.187.187,0,0,1,.187-.136l1.258.068a.156.156,0,0,1,.127.051.128.128,0,0,1,.026.119,2.531,2.531,0,0,1-.842,1.726A2.914,2.914,0,0,1,30.26.136,2.908,2.908,0,0,1,28.177-.6,2.563,2.563,0,0,1,27.4-2.55V-6.086a2.6,2.6,0,0,1,.773-1.955,2.869,2.869,0,0,1,2.083-.748,2.862,2.862,0,0,1,2.091.748,2.612,2.612,0,0,1,.765,1.955ZM30.26-7.378a1.116,1.116,0,0,0-.884.391,1.473,1.473,0,0,0-.34,1v.9a.06.06,0,0,0,.068.068h2.329a.06.06,0,0,0,.068-.068v-.9a1.473,1.473,0,0,0-.34-1A1.135,1.135,0,0,0,30.26-7.378ZM46-.2a.139.139,0,0,1,.034.1A.1.1,0,0,1,46-.034.139.139,0,0,1,45.9,0H44.506a.309.309,0,0,1-.221-.1l-.578-.833a.064.064,0,0,0-.1,0,4.287,4.287,0,0,1-1.318.825,4.176,4.176,0,0,1-1.5.264,3.135,3.135,0,0,1-2.2-.74,2.748,2.748,0,0,1-.807-2.134A3.515,3.515,0,0,1,38.3-4.683a6.628,6.628,0,0,1,1.445-1.539q.051-.017.017-.085-.6-.85-.875-1.335a3.6,3.6,0,0,1-.374-.833,3.056,3.056,0,0,1-.094-.79,2.74,2.74,0,0,1,.748-2.014,2.628,2.628,0,0,1,1.955-.757,2.749,2.749,0,0,1,2.006.765,2.7,2.7,0,0,1,.782,2.023,3.024,3.024,0,0,1-.535,1.793,7.411,7.411,0,0,1-1.487,1.5q-.051.017-.017.085l.816,1.156.986,1.343q.034.068.1,0a3.217,3.217,0,0,1,.187-.306q.408-.68.612-1.054a.152.152,0,0,1,.1-.085.192.192,0,0,1,.136.017l.952.544a.169.169,0,0,1,.068.238,17.783,17.783,0,0,1-1.173,1.887.157.157,0,0,0,0,.1ZM41.174-10.557a1.017,1.017,0,0,0-.808.366,1.447,1.447,0,0,0-.314.977,2.026,2.026,0,0,0,.153.791,8.91,8.91,0,0,0,.7,1.2q.051.068.1.017a5.245,5.245,0,0,0,.952-.995,1.8,1.8,0,0,0,.323-1.045,1.42,1.42,0,0,0-.306-.943A.992.992,0,0,0,41.174-10.557Zm-.221,9.3a2.622,2.622,0,0,0,1.785-.867.074.074,0,0,0,.017-.1L40.732-4.964q-.034-.051-.085,0a5.107,5.107,0,0,0-.918,1.029,2.014,2.014,0,0,0-.323,1.114,1.6,1.6,0,0,0,.4,1.13A1.483,1.483,0,0,0,40.953-1.258ZM51.374,0a.15.15,0,0,1-.17-.17V-11.73a.15.15,0,0,1,.17-.17h1.292a.15.15,0,0,1,.17.17V-.17a.15.15,0,0,1-.17.17Zm.646-13.26a1.059,1.059,0,0,1-.782-.306,1.059,1.059,0,0,1-.306-.782,1.059,1.059,0,0,1,.306-.782,1.059,1.059,0,0,1,.782-.306,1.059,1.059,0,0,1,.782.306,1.059,1.059,0,0,1,.306.782,1.059,1.059,0,0,1-.306.782A1.059,1.059,0,0,1,52.02-13.26Zm8.33,7.208a.15.15,0,0,1-.17.17l-1.292.051a.15.15,0,0,1-.17-.17v-.17a1.161,1.161,0,0,0-.357-.85,1.2,1.2,0,0,0-.884-.357,1.116,1.116,0,0,0-.884.391,1.473,1.473,0,0,0-.34,1v3.315a1.473,1.473,0,0,0,.34,1,1.116,1.116,0,0,0,.884.391,1.2,1.2,0,0,0,.884-.357,1.161,1.161,0,0,0,.357-.85v-.17a.15.15,0,0,1,.17-.17l1.292.017a.15.15,0,0,1,.17.17v.255a2.363,2.363,0,0,1-.595,1.624A2.663,2.663,0,0,1,58.14.085q-.085.034-.034.085a2.176,2.176,0,0,1,.663,1.564,1.309,1.309,0,0,1-.408,1.088,1.566,1.566,0,0,1-1,.323,2.158,2.158,0,0,1-.612-.085.176.176,0,0,1-.136-.2l.068-.527a.2.2,0,0,1,.068-.111.155.155,0,0,1,.136-.026.715.715,0,0,0,.17.017.611.611,0,0,0,.451-.179.727.727,0,0,0,.179-.535,1.447,1.447,0,0,0-.2-.7A2.53,2.53,0,0,0,56.95.136Q56.933.1,56.865.1a2.614,2.614,0,0,1-1.649-.876,2.686,2.686,0,0,1-.6-1.794V-6.086a2.6,2.6,0,0,1,.774-1.955,2.869,2.869,0,0,1,2.083-.748A3.324,3.324,0,0,1,59-8.458a2.428,2.428,0,0,1,1,.9,2.41,2.41,0,0,1,.348,1.284ZM65.535,0a.15.15,0,0,1-.17-.17V-11.73a.15.15,0,0,1,.17-.17h1.292a.15.15,0,0,1,.17.17v5.1q0,.051.034.059t.051-.043l2.89-5.168a.247.247,0,0,1,.2-.119H71.57a.143.143,0,0,1,.136.06.139.139,0,0,1-.017.144L69.071-6.97a.157.157,0,0,0,0,.1L71.91-.2l.017.068q0,.136-.153.136H70.363a.187.187,0,0,1-.187-.136l-2.21-5.3q-.017-.085-.085-.017L67.014-4.08A.134.134,0,0,0,67-4V-.17a.15.15,0,0,1-.17.17Zm10.3.136a2.912,2.912,0,0,1-2.1-.74,2.59,2.59,0,0,1-.773-1.964V-6.086a2.582,2.582,0,0,1,.782-1.955,2.9,2.9,0,0,1,2.091-.748,2.923,2.923,0,0,1,2.108.748,2.582,2.582,0,0,1,.782,1.955v3.519A2.576,2.576,0,0,1,77.945-.6,2.943,2.943,0,0,1,75.837.136Zm0-1.428a1.18,1.18,0,0,0,.9-.383A1.423,1.423,0,0,0,77.1-2.686v-3.3a1.43,1.43,0,0,0-.357-1,1.168,1.168,0,0,0-.9-.391,1.142,1.142,0,0,0-.893.391,1.451,1.451,0,0,0-.349,1v3.3a1.444,1.444,0,0,0,.349,1.012A1.153,1.153,0,0,0,75.837-1.292Zm7.939-7.48a1.965,1.965,0,0,1,1.641.722A3.24,3.24,0,0,1,85.986-6V-.17a.15.15,0,0,1-.17.17H84.524a.15.15,0,0,1-.17-.17v-5.7a1.756,1.756,0,0,0-.306-1.1,1.019,1.019,0,0,0-.85-.391,1.071,1.071,0,0,0-.876.383,1.8,1.8,0,0,0-.349,1.08q0,.1-.017.1V-.17a.15.15,0,0,1-.17.17H80.5a.15.15,0,0,1-.17-.17V-8.483a.15.15,0,0,1,.17-.17h1.292a.15.15,0,0,1,.17.17v.459a.04.04,0,0,0,.034.042q.034.009.068-.042A2.094,2.094,0,0,1,83.776-8.772Zm7.276,1.139a.15.15,0,0,1-.17.17h-1.19a.06.06,0,0,0-.068.068v4.777a1.423,1.423,0,0,0,.238.944.917.917,0,0,0,.748.247h.153a.15.15,0,0,1,.17.17V-.17a.15.15,0,0,1-.17.17h-.527A2.663,2.663,0,0,1,88.6-.425a1.944,1.944,0,0,1-.552-1.615V-7.4a.06.06,0,0,0-.068-.068h-.663a.15.15,0,0,1-.17-.17v-.85a.15.15,0,0,1,.17-.17h.663a.06.06,0,0,0,.068-.068v-1.921a.15.15,0,0,1,.17-.17h1.241a.15.15,0,0,1,.17.17v1.921a.06.06,0,0,0,.068.068h1.19a.15.15,0,0,1,.17.17Zm4.573-1.1a1.375,1.375,0,0,1,.731.187.183.183,0,0,1,.085.221l-.255,1.292q-.017.153-.2.1a1.315,1.315,0,0,0-.476-.085,2.046,2.046,0,0,0-.306.034,1.169,1.169,0,0,0-.875.578,2.259,2.259,0,0,0-.349,1.275V-.17a.15.15,0,0,1-.17.17H92.514a.15.15,0,0,1-.17-.17V-8.483a.15.15,0,0,1,.17-.17h1.292a.15.15,0,0,1,.17.17V-7.5q0,.051.026.059t.042-.043A1.668,1.668,0,0,1,95.625-8.738ZM100.147.136a2.912,2.912,0,0,1-2.1-.74,2.59,2.59,0,0,1-.773-1.964V-6.086a2.582,2.582,0,0,1,.782-1.955,2.9,2.9,0,0,1,2.091-.748,2.923,2.923,0,0,1,2.108.748,2.582,2.582,0,0,1,.782,1.955v3.519A2.576,2.576,0,0,1,102.255-.6,2.943,2.943,0,0,1,100.147.136Zm0-1.428a1.18,1.18,0,0,0,.9-.383,1.423,1.423,0,0,0,.357-1.012v-3.3a1.43,1.43,0,0,0-.357-1,1.168,1.168,0,0,0-.9-.391,1.142,1.142,0,0,0-.892.391,1.451,1.451,0,0,0-.349,1v3.3a1.444,1.444,0,0,0,.349,1.012A1.153,1.153,0,0,0,100.147-1.292ZM104.737,0a.15.15,0,0,1-.17-.17V-11.73a.15.15,0,0,1,.17-.17h1.292a.15.15,0,0,1,.17.17V-.17a.15.15,0,0,1-.17.17Z" transform="translate(54 31)" fill="#fff"/>
      </g>
      <g id="Dept_Name-2" data-name="Dept_Name" transform="translate(1088 1756.913)">
        <g id="Bg_Stroke-3" data-name="Bg_Stroke" fill="none" stroke="#546e89" stroke-width="1.5">
          <rect width="205" height="51" rx="25.5" stroke="none"/>
          <rect x="0.75" y="0.75" width="203.5" height="49.5" rx="24.75" fill="none"/>
        </g>
        <rect id="Bg-4" data-name="Bg" width="189" height="35" rx="17.5" transform="translate(8 8)" fill="#2d4a6a"/>
        <g id="Mini_Circle-12" data-name="Mini_Circle" transform="translate(97 46)">
          <g id="Ellipse-19" data-name="Ellipse" transform="translate(0 0)" fill="#173658" stroke="#546e89" stroke-miterlimit="10" stroke-width="1.5">
            <circle cx="5.5" cy="5.5" r="5.5" stroke="none"/>
            <circle cx="5.5" cy="5.5" r="4.75" fill="none"/>
          </g>
          <circle id="Ellipse-20" data-name="Ellipse" cx="2.5" cy="2.5" r="2.5" transform="translate(3.001 3)" fill="#546e89"/>
        </g>
        <path id="Text-2" data-name="Text" d="M5.389-11.73a.15.15,0,0,1,.17-.17H6.851a.15.15,0,0,1,.17.17V-.17a.15.15,0,0,1-.17.17H5.559a.15.15,0,0,1-.17-.17V-5.185a.06.06,0,0,0-.068-.068H2.754a.06.06,0,0,0-.068.068V-.17a.15.15,0,0,1-.17.17H1.224a.15.15,0,0,1-.17-.17V-11.73a.15.15,0,0,1,.17-.17H2.516a.15.15,0,0,1,.17.17v5a.06.06,0,0,0,.068.068H5.321a.06.06,0,0,0,.068-.068Zm6.358,2.941a2.766,2.766,0,0,1,2.031.782,2.765,2.765,0,0,1,.791,2.057V-.17A.15.15,0,0,1,14.4,0H13.107a.15.15,0,0,1-.17-.17V-.544A.057.057,0,0,0,12.912-.6q-.025-.017-.059.017A2.149,2.149,0,0,1,11.1.136,2.778,2.778,0,0,1,9.393-.417a2.3,2.3,0,0,1-.74-1.964,2.565,2.565,0,0,1,.892-2.168,3.722,3.722,0,0,1,2.338-.689h.986a.06.06,0,0,0,.068-.068V-5.8a1.807,1.807,0,0,0-.34-1.148,1.072,1.072,0,0,0-.884-.433A.97.97,0,0,0,11-7.089a1.211,1.211,0,0,0-.34.748.15.15,0,0,1-.17.17H9.112a.15.15,0,0,1-.17-.17,2.507,2.507,0,0,1,.867-1.768A2.849,2.849,0,0,1,11.747-8.789Zm-.289,7.5A1.555,1.555,0,0,0,12.5-1.666a1.3,1.3,0,0,0,.442-1.054V-3.876a.06.06,0,0,0-.068-.068H11.832a1.57,1.57,0,0,0-1.088.365,1.353,1.353,0,0,0-.408,1.063,1.247,1.247,0,0,0,.306.918A1.1,1.1,0,0,0,11.458-1.292ZM15.946,0a.15.15,0,0,1-.17-.17V-1.36a.487.487,0,0,1,.051-.221l3.179-5.491a.056.056,0,0,0,0-.06.057.057,0,0,0-.051-.026H16.014a.15.15,0,0,1-.17-.17V-8.483a.15.15,0,0,1,.17-.17h4.811a.15.15,0,0,1,.17.17v1.207a.487.487,0,0,1-.051.221L17.68-1.564a.056.056,0,0,0,0,.06.057.057,0,0,0,.051.025h3.145a.15.15,0,0,1,.17.17V-.17a.15.15,0,0,1-.17.17ZM23.29-10.013a1.059,1.059,0,0,1-.782-.306A1.059,1.059,0,0,1,22.2-11.1a1.059,1.059,0,0,1,.306-.782,1.059,1.059,0,0,1,.782-.306,1.068,1.068,0,0,1,.791.3,1.068,1.068,0,0,1,.3.79,1.059,1.059,0,0,1-.306.782A1.059,1.059,0,0,1,23.29-10.013ZM22.661,0a.15.15,0,0,1-.17-.17V-8.483a.15.15,0,0,1,.17-.17h1.292a.15.15,0,0,1,.17.17V-.17a.15.15,0,0,1-.17.17Zm6.783-8.772a1.965,1.965,0,0,1,1.64.722A3.24,3.24,0,0,1,31.654-6V-.17a.15.15,0,0,1-.17.17H30.192a.15.15,0,0,1-.17-.17v-5.7a1.756,1.756,0,0,0-.306-1.1,1.019,1.019,0,0,0-.85-.391,1.071,1.071,0,0,0-.875.383,1.8,1.8,0,0,0-.348,1.08q0,.1-.017.1V-.17a.15.15,0,0,1-.17.17H26.163a.15.15,0,0,1-.17-.17V-8.483a.15.15,0,0,1,.17-.17h1.292a.15.15,0,0,1,.17.17v.459a.04.04,0,0,0,.034.042q.034.009.068-.042A2.094,2.094,0,0,1,29.444-8.772ZM38.9-3.825a.15.15,0,0,1-.17.17H34.884a.06.06,0,0,0-.068.068v.918a1.473,1.473,0,0,0,.34,1,1.116,1.116,0,0,0,.884.391,1.154,1.154,0,0,0,.8-.289,1.286,1.286,0,0,0,.408-.748.187.187,0,0,1,.187-.136l1.258.068a.156.156,0,0,1,.128.051.128.128,0,0,1,.025.119A2.531,2.531,0,0,1,38-.485,2.914,2.914,0,0,1,36.04.136,2.908,2.908,0,0,1,33.958-.6a2.563,2.563,0,0,1-.774-1.955V-6.086a2.6,2.6,0,0,1,.774-1.955,2.869,2.869,0,0,1,2.083-.748,2.862,2.862,0,0,1,2.091.748A2.612,2.612,0,0,1,38.9-6.086ZM36.04-7.378a1.116,1.116,0,0,0-.884.391,1.473,1.473,0,0,0-.34,1v.9a.06.06,0,0,0,.068.068h2.329a.06.06,0,0,0,.068-.068v-.9a1.473,1.473,0,0,0-.34-1A1.135,1.135,0,0,0,36.04-7.378ZM51.782-.2a.139.139,0,0,1,.034.1.1.1,0,0,1-.034.068.139.139,0,0,1-.1.034H50.286a.309.309,0,0,1-.221-.1l-.578-.833a.064.064,0,0,0-.1,0,4.287,4.287,0,0,1-1.318.825,4.176,4.176,0,0,1-1.5.264,3.135,3.135,0,0,1-2.2-.74,2.748,2.748,0,0,1-.807-2.134,3.515,3.515,0,0,1,.527-1.963,6.628,6.628,0,0,1,1.445-1.539q.051-.017.017-.085-.6-.85-.876-1.335a3.6,3.6,0,0,1-.374-.833,3.056,3.056,0,0,1-.094-.79,2.74,2.74,0,0,1,.748-2.014,2.628,2.628,0,0,1,1.955-.757,2.749,2.749,0,0,1,2.006.765,2.7,2.7,0,0,1,.782,2.023,3.024,3.024,0,0,1-.535,1.793,7.411,7.411,0,0,1-1.487,1.5q-.051.017-.017.085l.816,1.156.986,1.343q.034.068.1,0a3.217,3.217,0,0,1,.187-.306q.408-.68.612-1.054a.152.152,0,0,1,.1-.085.192.192,0,0,1,.136.017l.952.544a.169.169,0,0,1,.068.238,17.783,17.783,0,0,1-1.173,1.887.157.157,0,0,0,0,.1ZM46.954-10.557a1.017,1.017,0,0,0-.808.366,1.447,1.447,0,0,0-.314.977,2.026,2.026,0,0,0,.153.791,8.91,8.91,0,0,0,.7,1.2q.051.068.1.017a5.245,5.245,0,0,0,.952-.995,1.8,1.8,0,0,0,.323-1.045,1.42,1.42,0,0,0-.306-.943A.992.992,0,0,0,46.954-10.557Zm-.221,9.3a2.622,2.622,0,0,0,1.785-.867.074.074,0,0,0,.017-.1L46.512-4.964q-.034-.051-.085,0a5.107,5.107,0,0,0-.918,1.029,2.014,2.014,0,0,0-.323,1.114,1.6,1.6,0,0,0,.4,1.13A1.483,1.483,0,0,0,46.733-1.258ZM59.84.136A3.034,3.034,0,0,1,57.6-.714a3.056,3.056,0,0,1-.85-2.261V-8.908a3.085,3.085,0,0,1,.85-2.269,3.017,3.017,0,0,1,2.244-.858,3.068,3.068,0,0,1,2.27.858,3.068,3.068,0,0,1,.859,2.269v5.933A3.039,3.039,0,0,1,62.11-.714,3.085,3.085,0,0,1,59.84.136Zm0-1.411a1.4,1.4,0,0,0,1.088-.451,1.692,1.692,0,0,0,.408-1.181V-8.993a1.692,1.692,0,0,0-.408-1.181,1.4,1.4,0,0,0-1.088-.45,1.35,1.35,0,0,0-1.062.45,1.715,1.715,0,0,0-.4,1.181v6.086a1.715,1.715,0,0,0,.4,1.181A1.35,1.35,0,0,0,59.84-1.275Zm8.194-7.514a2.232,2.232,0,0,1,1.759.74A2.829,2.829,0,0,1,70.448-6.1v3.536a2.841,2.841,0,0,1-.654,1.981,2.257,2.257,0,0,1-1.759.723,2.379,2.379,0,0,1-.825-.153,2.022,2.022,0,0,1-.74-.476q-.085-.051-.085.034V3.077a.15.15,0,0,1-.17.17H64.923a.15.15,0,0,1-.17-.17V-8.483a.15.15,0,0,1,.17-.17h1.292a.15.15,0,0,1,.17.17v.272a.04.04,0,0,0,.034.043.071.071,0,0,0,.068-.026,2.047,2.047,0,0,1,.731-.451A2.43,2.43,0,0,1,68.034-8.789Zm.8,2.8a1.451,1.451,0,0,0-.348-1,1.142,1.142,0,0,0-.893-.391,1.1,1.1,0,0,0-.867.391,1.473,1.473,0,0,0-.34,1v3.315a1.473,1.473,0,0,0,.34,1,1.1,1.1,0,0,0,.867.391,1.142,1.142,0,0,0,.893-.391,1.451,1.451,0,0,0,.348-1Zm8.789,2.159a.15.15,0,0,1-.17.17H73.61a.06.06,0,0,0-.068.068v.918a1.473,1.473,0,0,0,.34,1,1.116,1.116,0,0,0,.884.391,1.154,1.154,0,0,0,.8-.289,1.286,1.286,0,0,0,.408-.748.187.187,0,0,1,.187-.136l1.258.068a.156.156,0,0,1,.128.051.128.128,0,0,1,.025.119A2.531,2.531,0,0,1,76.73-.485a2.914,2.914,0,0,1-1.964.621A2.908,2.908,0,0,1,72.684-.6,2.563,2.563,0,0,1,71.91-2.55V-6.086a2.6,2.6,0,0,1,.773-1.955,2.869,2.869,0,0,1,2.082-.748,2.862,2.862,0,0,1,2.091.748,2.612,2.612,0,0,1,.765,1.955ZM74.766-7.378a1.116,1.116,0,0,0-.884.391,1.473,1.473,0,0,0-.34,1v.9a.06.06,0,0,0,.068.068h2.329a.06.06,0,0,0,.068-.068v-.9a1.473,1.473,0,0,0-.34-1A1.135,1.135,0,0,0,74.766-7.378Zm7.667-1.36a1.375,1.375,0,0,1,.731.187.183.183,0,0,1,.085.221l-.255,1.292q-.017.153-.2.1a1.315,1.315,0,0,0-.476-.085,2.046,2.046,0,0,0-.306.034,1.169,1.169,0,0,0-.875.578,2.259,2.259,0,0,0-.349,1.275V-.17a.15.15,0,0,1-.17.17H79.322a.15.15,0,0,1-.17-.17V-8.483a.15.15,0,0,1,.17-.17h1.292a.15.15,0,0,1,.17.17V-7.5q0,.051.026.059t.042-.043A1.668,1.668,0,0,1,82.433-8.738Zm4.624-.051a2.766,2.766,0,0,1,2.032.782,2.765,2.765,0,0,1,.791,2.057V-.17a.15.15,0,0,1-.17.17H88.417a.15.15,0,0,1-.17-.17V-.544A.057.057,0,0,0,88.222-.6q-.026-.017-.06.017a2.149,2.149,0,0,1-1.751.714A2.778,2.778,0,0,1,84.7-.417a2.3,2.3,0,0,1-.739-1.964,2.565,2.565,0,0,1,.892-2.168,3.722,3.722,0,0,1,2.338-.689h.986a.06.06,0,0,0,.068-.068V-5.8a1.807,1.807,0,0,0-.34-1.148,1.072,1.072,0,0,0-.884-.433.97.97,0,0,0-.714.289,1.211,1.211,0,0,0-.34.748.15.15,0,0,1-.17.17H84.422a.15.15,0,0,1-.17-.17,2.507,2.507,0,0,1,.867-1.768A2.849,2.849,0,0,1,87.057-8.789Zm-.289,7.5a1.555,1.555,0,0,0,1.037-.374,1.3,1.3,0,0,0,.442-1.054V-3.876a.06.06,0,0,0-.068-.068H87.142a1.57,1.57,0,0,0-1.088.365,1.353,1.353,0,0,0-.408,1.063,1.247,1.247,0,0,0,.306.918A1.1,1.1,0,0,0,86.768-1.292ZM93.959.1a3.037,3.037,0,0,1-2.014-.621,2.073,2.073,0,0,1-.74-1.675v-.153a.15.15,0,0,1,.17-.17h1.207a.15.15,0,0,1,.17.17v.119a.991.991,0,0,0,.357.774,1.289,1.289,0,0,0,.884.314,1.132,1.132,0,0,0,.825-.306,1.044,1.044,0,0,0,.314-.782.927.927,0,0,0-.221-.629,1.613,1.613,0,0,0-.519-.4q-.3-.144-.91-.4a8.433,8.433,0,0,1-1.1-.561A2.611,2.611,0,0,1,91.613-5a2.283,2.283,0,0,1-.34-1.292A2.292,2.292,0,0,1,92-8.092a2.813,2.813,0,0,1,1.947-.646,2.818,2.818,0,0,1,1.98.663,2.325,2.325,0,0,1,.723,1.8v.051a.15.15,0,0,1-.17.17H95.3a.15.15,0,0,1-.17-.17v-.119a1.065,1.065,0,0,0-.323-.782,1.127,1.127,0,0,0-.833-.323,1.093,1.093,0,0,0-.833.323,1.1,1.1,0,0,0-.306.782.882.882,0,0,0,.2.6,1.561,1.561,0,0,0,.493.382q.289.145.918.417a9.828,9.828,0,0,1,1.156.586,2.673,2.673,0,0,1,.807.791A2.209,2.209,0,0,1,96.764-2.3a2.183,2.183,0,0,1-.757,1.751A3.05,3.05,0,0,1,93.959.1Zm3.723,3.281q-.034,0-.068-.051a.209.209,0,0,1-.034-.119v-1a.15.15,0,0,1,.17-.17,2.147,2.147,0,0,0,.859-.17,1.13,1.13,0,0,0,.51-.578A5.126,5.126,0,0,0,99.45.051l-.017-.085L97.257-8.466l-.017-.051q0-.136.17-.136H98.8a.162.162,0,0,1,.187.153l1.241,6.137q.017.051.034.051t.034-.051L101.524-8.5a.175.175,0,0,1,.187-.153l1.411.017a.156.156,0,0,1,.128.051.127.127,0,0,1,.008.136L100.929.6a8.068,8.068,0,0,1-.646,1.743,1.812,1.812,0,0,1-.893.807,4.362,4.362,0,0,1-1.623.238Zm9.3-3.247a2.912,2.912,0,0,1-2.1-.74,2.59,2.59,0,0,1-.773-1.964V-6.086a2.582,2.582,0,0,1,.782-1.955,2.9,2.9,0,0,1,2.091-.748,2.923,2.923,0,0,1,2.108.748,2.582,2.582,0,0,1,.782,1.955v3.519A2.576,2.576,0,0,1,109.089-.6,2.943,2.943,0,0,1,106.981.136Zm0-1.428a1.18,1.18,0,0,0,.9-.383,1.423,1.423,0,0,0,.357-1.012v-3.3a1.43,1.43,0,0,0-.357-1,1.168,1.168,0,0,0-.9-.391,1.142,1.142,0,0,0-.893.391,1.451,1.451,0,0,0-.349,1v3.3a1.444,1.444,0,0,0,.349,1.012A1.153,1.153,0,0,0,106.981-1.292Zm7.939-7.48a1.965,1.965,0,0,1,1.641.722A3.24,3.24,0,0,1,117.13-6V-.17a.15.15,0,0,1-.17.17h-1.292a.15.15,0,0,1-.17-.17v-5.7a1.756,1.756,0,0,0-.306-1.1,1.019,1.019,0,0,0-.85-.391,1.071,1.071,0,0,0-.876.383,1.8,1.8,0,0,0-.349,1.08q0,.1-.017.1V-.17a.15.15,0,0,1-.17.17h-1.292a.15.15,0,0,1-.17-.17V-8.483a.15.15,0,0,1,.17-.17h1.292a.15.15,0,0,1,.17.17v.459a.04.04,0,0,0,.034.042q.034.009.068-.042A2.094,2.094,0,0,1,114.92-8.772Z" transform="translate(44 31)" fill="#fff"/>
      </g>
      <g id="Dept_Name-3" data-name="Dept_Name" transform="translate(856 1756.913)">
        <g id="Bg_Stroke-4" data-name="Bg_Stroke" fill="none" stroke="#546e89" stroke-width="1.5">
          <rect width="205" height="51" rx="25.5" stroke="none"/>
          <rect x="0.75" y="0.75" width="203.5" height="49.5" rx="24.75" fill="none"/>
        </g>
        <rect id="Bg-5" data-name="Bg" width="189" height="35" rx="17.5" transform="translate(8 8)" fill="#2d4a6a"/>
        <g id="Mini_Circle-13" data-name="Mini_Circle" transform="translate(100 46)">
          <g id="Ellipse-21" data-name="Ellipse" transform="translate(0 0)" fill="#173658" stroke="#546e89" stroke-miterlimit="10" stroke-width="1.5">
            <circle cx="5.5" cy="5.5" r="5.5" stroke="none"/>
            <circle cx="5.5" cy="5.5" r="4.75" fill="none"/>
          </g>
          <circle id="Ellipse-22" data-name="Ellipse" cx="2.5" cy="2.5" r="2.5" transform="translate(3.001 3)" fill="#546e89"/>
        </g>
        <path id="Text-3" data-name="Text" d="M1.224,0a.15.15,0,0,1-.17-.17V-11.73a.15.15,0,0,1,.17-.17H4.012a2.966,2.966,0,0,1,2.244.867,3.244,3.244,0,0,1,.833,2.346v5.474A3.244,3.244,0,0,1,6.256-.867,2.966,2.966,0,0,1,4.012,0ZM2.686-1.479a.06.06,0,0,0,.068.068L4-1.428a1.25,1.25,0,0,0,1.037-.5A2.246,2.246,0,0,0,5.44-3.3V-8.6a2.208,2.208,0,0,0-.391-1.377A1.259,1.259,0,0,0,4-10.489H2.754a.06.06,0,0,0-.068.068Zm7.072-8.534a1.059,1.059,0,0,1-.782-.306A1.059,1.059,0,0,1,8.67-11.1a1.059,1.059,0,0,1,.306-.782,1.059,1.059,0,0,1,.782-.306,1.068,1.068,0,0,1,.79.3,1.068,1.068,0,0,1,.3.79,1.059,1.059,0,0,1-.306.782A1.059,1.059,0,0,1,9.758-10.013Zm3.434,0a1.059,1.059,0,0,1-.782-.306A1.059,1.059,0,0,1,12.1-11.1a1.059,1.059,0,0,1,.306-.782,1.059,1.059,0,0,1,.782-.306,1.068,1.068,0,0,1,.79.3,1.068,1.068,0,0,1,.3.79,1.059,1.059,0,0,1-.306.782A1.059,1.059,0,0,1,13.192-10.013ZM9.129,0a.15.15,0,0,1-.17-.17V-8.483a.15.15,0,0,1,.17-.17h1.292a.15.15,0,0,1,.17.17V-.17a.15.15,0,0,1-.17.17Zm1.9,3.519q-.221,0-.221-.17V2.278a.15.15,0,0,1,.17-.17q1.394-.017,1.394-1.632V-8.483a.15.15,0,0,1,.17-.17h1.292a.15.15,0,0,1,.17.17V.476a5.3,5.3,0,0,1-.221,1.692,1.787,1.787,0,0,1-.867.994A3.984,3.984,0,0,1,11.033,3.519Zm5.746-13.532A1.059,1.059,0,0,1,16-10.319a1.059,1.059,0,0,1-.306-.782A1.059,1.059,0,0,1,16-11.883a1.059,1.059,0,0,1,.782-.306,1.068,1.068,0,0,1,.791.3,1.068,1.068,0,0,1,.3.79,1.059,1.059,0,0,1-.306.782A1.059,1.059,0,0,1,16.779-10.013ZM16.15,0a.15.15,0,0,1-.17-.17V-8.483a.15.15,0,0,1,.17-.17h1.292a.15.15,0,0,1,.17.17V-.17a.15.15,0,0,1-.17.17Zm6.715-7.633a.15.15,0,0,1-.17.17h-1.19a.06.06,0,0,0-.068.068v4.777a1.423,1.423,0,0,0,.238.944.917.917,0,0,0,.748.247h.153a.15.15,0,0,1,.17.17V-.17a.15.15,0,0,1-.17.17h-.527a2.663,2.663,0,0,1-1.641-.425,1.944,1.944,0,0,1-.552-1.615V-7.4a.06.06,0,0,0-.068-.068h-.663a.15.15,0,0,1-.17-.17v-.85a.15.15,0,0,1,.17-.17h.663a.06.06,0,0,0,.068-.068v-1.921a.15.15,0,0,1,.17-.17h1.241a.15.15,0,0,1,.17.17v1.921a.06.06,0,0,0,.068.068H22.7a.15.15,0,0,1,.17.17Zm4.08-1.156a2.766,2.766,0,0,1,2.031.782,2.765,2.765,0,0,1,.791,2.057V-.17A.15.15,0,0,1,29.6,0H28.305a.15.15,0,0,1-.17-.17V-.544A.057.057,0,0,0,28.11-.6q-.026-.017-.059.017A2.149,2.149,0,0,1,26.3.136a2.778,2.778,0,0,1-1.709-.553,2.3,2.3,0,0,1-.74-1.964,2.565,2.565,0,0,1,.893-2.168,3.722,3.722,0,0,1,2.337-.689h.986a.06.06,0,0,0,.068-.068V-5.8a1.807,1.807,0,0,0-.34-1.148,1.072,1.072,0,0,0-.884-.433.97.97,0,0,0-.714.289,1.211,1.211,0,0,0-.34.748.15.15,0,0,1-.17.17H24.31a.15.15,0,0,1-.17-.17,2.507,2.507,0,0,1,.867-1.768A2.849,2.849,0,0,1,26.945-8.789Zm-.289,7.5a1.555,1.555,0,0,0,1.037-.374,1.3,1.3,0,0,0,.442-1.054V-3.876a.06.06,0,0,0-.068-.068H27.03a1.57,1.57,0,0,0-1.088.365,1.353,1.353,0,0,0-.408,1.063,1.247,1.247,0,0,0,.306.918A1.1,1.1,0,0,0,26.656-1.292ZM31.484,0a.15.15,0,0,1-.17-.17V-11.73a.15.15,0,0,1,.17-.17h1.292a.15.15,0,0,1,.17.17V-.17a.15.15,0,0,1-.17.17ZM41.4-11.917a2.651,2.651,0,0,1,2.117.944A3.672,3.672,0,0,1,44.319-8.5a3.6,3.6,0,0,1-.782,2.414,2.571,2.571,0,0,1-2.057.918h-1.6a.06.06,0,0,0-.068.068V-.17a.15.15,0,0,1-.17.17H38.352a.15.15,0,0,1-.17-.17V-11.747a.15.15,0,0,1,.17-.17Zm-.255,5.44a1.362,1.362,0,0,0,1.122-.536,2.276,2.276,0,0,0,.425-1.454,2.379,2.379,0,0,0-.425-1.487,1.347,1.347,0,0,0-1.122-.553H39.882a.06.06,0,0,0-.068.068v3.893a.06.06,0,0,0,.068.068Zm7.344-2.312a2.766,2.766,0,0,1,2.031.782,2.765,2.765,0,0,1,.791,2.057V-.17a.15.15,0,0,1-.17.17H49.844a.15.15,0,0,1-.17-.17V-.544A.057.057,0,0,0,49.649-.6q-.026-.017-.06.017a2.149,2.149,0,0,1-1.751.714A2.778,2.778,0,0,1,46.13-.417a2.3,2.3,0,0,1-.74-1.964,2.565,2.565,0,0,1,.893-2.168,3.722,3.722,0,0,1,2.337-.689h.986a.06.06,0,0,0,.068-.068V-5.8a1.807,1.807,0,0,0-.34-1.148,1.072,1.072,0,0,0-.884-.433.97.97,0,0,0-.714.289,1.211,1.211,0,0,0-.34.748.15.15,0,0,1-.17.17H45.849a.15.15,0,0,1-.17-.17,2.507,2.507,0,0,1,.867-1.768A2.849,2.849,0,0,1,48.484-8.789Zm-.289,7.5a1.555,1.555,0,0,0,1.037-.374,1.3,1.3,0,0,0,.442-1.054V-3.876a.06.06,0,0,0-.068-.068H48.569a1.57,1.57,0,0,0-1.088.365,1.353,1.353,0,0,0-.408,1.063,1.247,1.247,0,0,0,.306.918A1.1,1.1,0,0,0,48.2-1.292ZM52.683,0a.15.15,0,0,1-.17-.17V-1.36a.487.487,0,0,1,.051-.221l3.179-5.491a.056.056,0,0,0,0-.06.057.057,0,0,0-.051-.026H52.751a.15.15,0,0,1-.17-.17V-8.483a.15.15,0,0,1,.17-.17h4.811a.15.15,0,0,1,.17.17v1.207a.487.487,0,0,1-.051.221L54.417-1.564a.056.056,0,0,0,0,.06.057.057,0,0,0,.051.025h3.145a.15.15,0,0,1,.17.17V-.17a.15.15,0,0,1-.17.17Zm9.231-8.789a2.766,2.766,0,0,1,2.031.782,2.765,2.765,0,0,1,.791,2.057V-.17a.15.15,0,0,1-.17.17H63.274a.15.15,0,0,1-.17-.17V-.544A.057.057,0,0,0,63.079-.6q-.026-.017-.06.017a2.149,2.149,0,0,1-1.751.714A2.778,2.778,0,0,1,59.56-.417a2.3,2.3,0,0,1-.74-1.964,2.565,2.565,0,0,1,.893-2.168,3.722,3.722,0,0,1,2.337-.689h.986A.06.06,0,0,0,63.1-5.3V-5.8a1.807,1.807,0,0,0-.34-1.148,1.072,1.072,0,0,0-.884-.433.97.97,0,0,0-.714.289,1.211,1.211,0,0,0-.34.748.15.15,0,0,1-.17.17H59.279a.15.15,0,0,1-.17-.17,2.507,2.507,0,0,1,.867-1.768A2.849,2.849,0,0,1,61.914-8.789Zm-.289,7.5a1.555,1.555,0,0,0,1.037-.374A1.3,1.3,0,0,0,63.1-2.72V-3.876a.06.06,0,0,0-.068-.068H62a1.57,1.57,0,0,0-1.088.365A1.353,1.353,0,0,0,60.5-2.516a1.247,1.247,0,0,0,.306.918A1.1,1.1,0,0,0,61.625-1.292Zm8.007-7.446a1.375,1.375,0,0,1,.731.187.183.183,0,0,1,.085.221l-.255,1.292q-.017.153-.2.1a1.315,1.315,0,0,0-.476-.085,2.046,2.046,0,0,0-.306.034,1.169,1.169,0,0,0-.875.578,2.259,2.259,0,0,0-.349,1.275V-.17a.15.15,0,0,1-.17.17H66.521a.15.15,0,0,1-.17-.17V-8.483a.15.15,0,0,1,.17-.17h1.292a.15.15,0,0,1,.17.17V-7.5q0,.051.025.059t.043-.043A1.668,1.668,0,0,1,69.632-8.738ZM71.621,0a.15.15,0,0,1-.17-.17V-11.73a.15.15,0,0,1,.17-.17h1.292a.15.15,0,0,1,.17.17V-.17a.15.15,0,0,1-.17.17Zm5.933-8.789a2.766,2.766,0,0,1,2.032.782,2.765,2.765,0,0,1,.791,2.057V-.17a.15.15,0,0,1-.17.17H78.914a.15.15,0,0,1-.17-.17V-.544A.057.057,0,0,0,78.719-.6q-.026-.017-.06.017a2.149,2.149,0,0,1-1.751.714A2.778,2.778,0,0,1,75.2-.417,2.3,2.3,0,0,1,74.46-2.38a2.565,2.565,0,0,1,.892-2.168,3.722,3.722,0,0,1,2.338-.689h.986a.06.06,0,0,0,.068-.068V-5.8a1.807,1.807,0,0,0-.34-1.148,1.072,1.072,0,0,0-.884-.433.97.97,0,0,0-.714.289,1.211,1.211,0,0,0-.34.748.15.15,0,0,1-.17.17H74.919a.15.15,0,0,1-.17-.17,2.507,2.507,0,0,1,.867-1.768A2.849,2.849,0,0,1,77.554-8.789Zm-.289,7.5A1.555,1.555,0,0,0,78.3-1.666a1.3,1.3,0,0,0,.442-1.054V-3.876a.06.06,0,0,0-.068-.068H77.639a1.57,1.57,0,0,0-1.088.365,1.353,1.353,0,0,0-.408,1.063,1.247,1.247,0,0,0,.306.918A1.1,1.1,0,0,0,77.265-1.292Zm12-7.48a1.911,1.911,0,0,1,1.624.757A3.455,3.455,0,0,1,91.46-5.9V-.17a.15.15,0,0,1-.17.17H90.015a.15.15,0,0,1-.17-.17V-5.78a1.936,1.936,0,0,0-.306-1.165.963.963,0,0,0-.816-.417,1.041,1.041,0,0,0-.867.417A1.829,1.829,0,0,0,87.533-5.8V-.17a.15.15,0,0,1-.17.17H86.088a.15.15,0,0,1-.17-.17V-5.78a1.936,1.936,0,0,0-.306-1.165.963.963,0,0,0-.816-.417,1.041,1.041,0,0,0-.867.417A1.829,1.829,0,0,0,83.606-5.8V-.17a.15.15,0,0,1-.17.17H82.161a.15.15,0,0,1-.17-.17V-8.483a.15.15,0,0,1,.17-.17h1.275a.15.15,0,0,1,.17.17v.425a.057.057,0,0,0,.025.051q.026.017.06-.017a2.217,2.217,0,0,1,.782-.561,2.253,2.253,0,0,1,.884-.187A1.917,1.917,0,0,1,87.21-7.633a.041.041,0,0,0,.051.025q.034-.008.051-.076a2.037,2.037,0,0,1,.867-.833A2.47,2.47,0,0,1,89.267-8.772Zm6.681-.017a2.766,2.766,0,0,1,2.032.782A2.765,2.765,0,0,1,98.77-5.95V-.17A.15.15,0,0,1,98.6,0H97.308a.15.15,0,0,1-.17-.17V-.544A.057.057,0,0,0,97.113-.6q-.026-.017-.06.017A2.149,2.149,0,0,1,95.3.136a2.778,2.778,0,0,1-1.709-.553,2.3,2.3,0,0,1-.739-1.964,2.565,2.565,0,0,1,.892-2.168,3.722,3.722,0,0,1,2.338-.689h.986a.06.06,0,0,0,.068-.068V-5.8a1.807,1.807,0,0,0-.34-1.148,1.072,1.072,0,0,0-.884-.433.97.97,0,0,0-.714.289,1.211,1.211,0,0,0-.34.748.15.15,0,0,1-.17.17H93.313a.15.15,0,0,1-.17-.17,2.507,2.507,0,0,1,.867-1.768A2.849,2.849,0,0,1,95.948-8.789Zm-.289,7.5A1.555,1.555,0,0,0,96.7-1.666a1.3,1.3,0,0,0,.442-1.054V-3.876a.06.06,0,0,0-.068-.068H96.033a1.57,1.57,0,0,0-1.088.365,1.353,1.353,0,0,0-.408,1.063,1.247,1.247,0,0,0,.306.918A1.1,1.1,0,0,0,95.659-1.292Z" transform="translate(53 31)" fill="#fff"/>
      </g>
      <g id="Dept_Name-4" data-name="Dept_Name" transform="translate(623 1756.913)">
        <g id="Bg_Stroke-5" data-name="Bg_Stroke" fill="none" stroke="#546e89" stroke-width="1.5">
          <rect width="205" height="51" rx="25.5" stroke="none"/>
          <rect x="0.75" y="0.75" width="203.5" height="49.5" rx="24.75" fill="none"/>
        </g>
        <rect id="Bg-6" data-name="Bg" width="189" height="35" rx="17.5" transform="translate(8 8)" fill="#2d4a6a"/>
        <g id="Mini_Circle-14" data-name="Mini_Circle" transform="translate(97 46)">
          <g id="Ellipse-23" data-name="Ellipse" transform="translate(0 0)" fill="#173658" stroke="#546e89" stroke-miterlimit="10" stroke-width="1.5">
            <circle cx="5.5" cy="5.5" r="5.5" stroke="none"/>
            <circle cx="5.5" cy="5.5" r="4.75" fill="none"/>
          </g>
          <circle id="Ellipse-24" data-name="Ellipse" cx="2.5" cy="2.5" r="2.5" transform="translate(3.001 3)" fill="#546e89"/>
        </g>
        <path id="Text-4" data-name="Text" d="M7.242-3.247a3.187,3.187,0,0,1-.876,2.4,3.166,3.166,0,0,1-2.3.85H1.224a.15.15,0,0,1-.17-.17V-11.73a.15.15,0,0,1,.17-.17h2.6a3.437,3.437,0,0,1,2.422.807,3.045,3.045,0,0,1,.876,2.355A2.611,2.611,0,0,1,5.814-6.2q-.085.051-.017.085A2.825,2.825,0,0,1,6.86-4.981,3.693,3.693,0,0,1,7.242-3.247ZM2.754-10.489a.06.06,0,0,0-.068.068v3.6a.06.06,0,0,0,.068.068H3.842a1.6,1.6,0,0,0,1.241-.484,1.932,1.932,0,0,0,.442-1.352,2.051,2.051,0,0,0-.442-1.4,1.567,1.567,0,0,0-1.241-.5ZM3.927-1.428A1.536,1.536,0,0,0,5.16-1.955a2.236,2.236,0,0,0,.45-1.5A2.4,2.4,0,0,0,5.168-4.99a1.481,1.481,0,0,0-1.224-.553H2.754a.06.06,0,0,0-.068.068V-1.5a.06.06,0,0,0,.068.068Zm5.61-8.585a1.059,1.059,0,0,1-.782-.306,1.059,1.059,0,0,1-.306-.782,1.059,1.059,0,0,1,.306-.782,1.059,1.059,0,0,1,.782-.306,1.068,1.068,0,0,1,.79.3,1.068,1.068,0,0,1,.3.79,1.059,1.059,0,0,1-.306.782A1.059,1.059,0,0,1,9.537-10.013ZM8.908,0a.15.15,0,0,1-.17-.17V-8.483a.15.15,0,0,1,.17-.17H10.2a.15.15,0,0,1,.17.17V-.17A.15.15,0,0,1,10.2,0Zm3.434,0a.15.15,0,0,1-.17-.17V-11.73a.15.15,0,0,1,.17-.17h1.292a.15.15,0,0,1,.17.17V-.17a.15.15,0,0,1-.17.17ZM19.4-8.483a.15.15,0,0,1,.17-.17h1.292a.15.15,0,0,1,.17.17V-.255a4.194,4.194,0,0,1-.816,2.763,3.48,3.48,0,0,1-2.805.977l-.459-.017a.168.168,0,0,1-.17-.187V2.193q0-.17.187-.17a2.325,2.325,0,0,0,1.913-.552A2.839,2.839,0,0,0,19.4-.408V-.765a.039.039,0,0,0-.025-.043q-.026-.008-.06.025A1.928,1.928,0,0,1,17.663,0a2.122,2.122,0,0,1-1.725-.723,2.968,2.968,0,0,1-.6-1.964v-3.4a2.968,2.968,0,0,1,.612-1.981,2.127,2.127,0,0,1,1.717-.722,1.874,1.874,0,0,1,1.649.782q.034.034.06.017a.057.057,0,0,0,.025-.051ZM18.19-1.411a1.1,1.1,0,0,0,.875-.383,1.464,1.464,0,0,0,.332-.995v-3.2a1.5,1.5,0,0,0-.332-1,1.091,1.091,0,0,0-.875-.391,1.116,1.116,0,0,0-.884.391,1.473,1.473,0,0,0-.34,1v3.2a1.441,1.441,0,0,0,.34.995A1.127,1.127,0,0,0,18.19-1.411Zm5.474-8.6a1.059,1.059,0,0,1-.782-.306,1.059,1.059,0,0,1-.306-.782,1.059,1.059,0,0,1,.306-.782,1.059,1.059,0,0,1,.782-.306,1.068,1.068,0,0,1,.791.3,1.068,1.068,0,0,1,.3.79,1.059,1.059,0,0,1-.306.782A1.059,1.059,0,0,1,23.664-10.013ZM23.035,0a.15.15,0,0,1-.17-.17V-8.483a.15.15,0,0,1,.17-.17h1.292a.15.15,0,0,1,.17.17V-.17a.15.15,0,0,1-.17.17ZM35.666-11.9a.15.15,0,0,1,.17.17v1.071a.15.15,0,0,1-.17.17H33.439a.06.06,0,0,0-.068.068V-.17A.15.15,0,0,1,33.2,0H31.909a.15.15,0,0,1-.17-.17V-10.421a.06.06,0,0,0-.068-.068H29.563a.15.15,0,0,1-.17-.17V-11.73a.15.15,0,0,1,.17-.17ZM41.8-3.825a.15.15,0,0,1-.17.17H37.791a.06.06,0,0,0-.068.068v.918a1.473,1.473,0,0,0,.34,1,1.116,1.116,0,0,0,.884.391,1.154,1.154,0,0,0,.8-.289,1.286,1.286,0,0,0,.408-.748.187.187,0,0,1,.187-.136L41.6-2.38a.156.156,0,0,1,.128.051.128.128,0,0,1,.025.119A2.531,2.531,0,0,1,40.91-.485a2.914,2.914,0,0,1-1.963.621A2.908,2.908,0,0,1,36.865-.6a2.563,2.563,0,0,1-.774-1.955V-6.086a2.6,2.6,0,0,1,.774-1.955,2.869,2.869,0,0,1,2.083-.748,2.862,2.862,0,0,1,2.091.748A2.612,2.612,0,0,1,41.8-6.086ZM38.947-7.378a1.116,1.116,0,0,0-.884.391,1.473,1.473,0,0,0-.34,1v.9a.06.06,0,0,0,.068.068H40.12a.06.06,0,0,0,.068-.068v-.9a1.473,1.473,0,0,0-.34-1A1.135,1.135,0,0,0,38.947-7.378ZM43.5,0a.15.15,0,0,1-.17-.17V-11.73a.15.15,0,0,1,.17-.17H44.8a.15.15,0,0,1,.17.17v6.443A.069.069,0,0,0,45-5.219q.034.017.051-.034l2.193-3.3a.257.257,0,0,1,.2-.1h1.326a.143.143,0,0,1,.136.059.139.139,0,0,1-.017.144L47.141-5.865a.074.074,0,0,0-.017.1l2.04,5.576.017.068q0,.119-.153.119H47.685a.2.2,0,0,1-.2-.136L46.121-4.4q-.017-.1-.1-.017L45-2.941a.115.115,0,0,0-.034.085V-.17A.15.15,0,0,1,44.8,0ZM53.941-8.772a1.965,1.965,0,0,1,1.641.722A3.24,3.24,0,0,1,56.151-6V-.17a.15.15,0,0,1-.17.17H54.689a.15.15,0,0,1-.17-.17v-5.7a1.756,1.756,0,0,0-.306-1.1,1.019,1.019,0,0,0-.85-.391,1.071,1.071,0,0,0-.875.383,1.8,1.8,0,0,0-.348,1.08q0,.1-.017.1V-.17a.15.15,0,0,1-.17.17H50.66a.15.15,0,0,1-.17-.17V-8.483a.15.15,0,0,1,.17-.17h1.292a.15.15,0,0,1,.17.17v.459a.04.04,0,0,0,.034.042q.034.009.068-.042A2.094,2.094,0,0,1,53.941-8.772ZM60.554.136a2.912,2.912,0,0,1-2.1-.74,2.59,2.59,0,0,1-.774-1.964V-6.086a2.582,2.582,0,0,1,.782-1.955,2.9,2.9,0,0,1,2.091-.748,2.923,2.923,0,0,1,2.108.748,2.582,2.582,0,0,1,.782,1.955v3.519A2.576,2.576,0,0,1,62.662-.6,2.943,2.943,0,0,1,60.554.136Zm0-1.428a1.18,1.18,0,0,0,.9-.383,1.423,1.423,0,0,0,.357-1.012v-3.3a1.43,1.43,0,0,0-.357-1,1.168,1.168,0,0,0-.9-.391,1.142,1.142,0,0,0-.892.391,1.451,1.451,0,0,0-.349,1v3.3a1.444,1.444,0,0,0,.349,1.012A1.153,1.153,0,0,0,60.554-1.292ZM65.144,0a.15.15,0,0,1-.17-.17V-11.73a.15.15,0,0,1,.17-.17h1.292a.15.15,0,0,1,.17.17V-.17a.15.15,0,0,1-.17.17Zm5.865.136a2.912,2.912,0,0,1-2.1-.74,2.59,2.59,0,0,1-.773-1.964V-6.086a2.582,2.582,0,0,1,.782-1.955,2.9,2.9,0,0,1,2.091-.748,2.923,2.923,0,0,1,2.108.748A2.582,2.582,0,0,1,73.9-6.086v3.519A2.576,2.576,0,0,1,73.117-.6,2.943,2.943,0,0,1,71.009.136Zm0-1.428a1.18,1.18,0,0,0,.9-.383,1.423,1.423,0,0,0,.357-1.012v-3.3a1.43,1.43,0,0,0-.357-1,1.168,1.168,0,0,0-.9-.391,1.142,1.142,0,0,0-.892.391,1.451,1.451,0,0,0-.349,1v3.3a1.444,1.444,0,0,0,.349,1.012A1.153,1.153,0,0,0,71.009-1.292Zm5.3-8.721a1.059,1.059,0,0,1-.782-.306,1.059,1.059,0,0,1-.306-.782,1.059,1.059,0,0,1,.306-.782,1.059,1.059,0,0,1,.782-.306,1.081,1.081,0,0,1,.8.306,1.059,1.059,0,0,1,.306.782,1.044,1.044,0,0,1-.314.782A1.088,1.088,0,0,1,76.313-10.013ZM74.171,3.519q-.221,0-.221-.17V2.278a.15.15,0,0,1,.17-.17Q75.5,2.091,75.5.476V-8.483a.15.15,0,0,1,.17-.17h1.292a.15.15,0,0,1,.17.17V.476a5.493,5.493,0,0,1-.213,1.692,1.75,1.75,0,0,1-.858.994A3.984,3.984,0,0,1,74.171,3.519ZM79.9-10.013a1.059,1.059,0,0,1-.782-.306,1.059,1.059,0,0,1-.306-.782,1.059,1.059,0,0,1,.306-.782,1.059,1.059,0,0,1,.782-.306,1.068,1.068,0,0,1,.79.3,1.068,1.068,0,0,1,.3.79,1.059,1.059,0,0,1-.306.782A1.059,1.059,0,0,1,79.9-10.013ZM79.271,0a.15.15,0,0,1-.17-.17V-8.483a.15.15,0,0,1,.17-.17h1.292a.15.15,0,0,1,.17.17V-.17a.15.15,0,0,1-.17.17Zm3.434,0a.15.15,0,0,1-.17-.17V-11.73a.15.15,0,0,1,.17-.17H84a.15.15,0,0,1,.17.17V-.17A.15.15,0,0,1,84,0Zm8.7-3.825a.15.15,0,0,1-.17.17H87.4a.06.06,0,0,0-.068.068v.918a1.473,1.473,0,0,0,.34,1,1.116,1.116,0,0,0,.884.391,1.154,1.154,0,0,0,.8-.289,1.286,1.286,0,0,0,.408-.748.187.187,0,0,1,.187-.136l1.258.068a.156.156,0,0,1,.128.051.128.128,0,0,1,.025.119,2.531,2.531,0,0,1-.841,1.726,2.914,2.914,0,0,1-1.964.621A2.908,2.908,0,0,1,86.471-.6,2.563,2.563,0,0,1,85.7-2.55V-6.086a2.6,2.6,0,0,1,.773-1.955,2.869,2.869,0,0,1,2.082-.748,2.862,2.862,0,0,1,2.091.748,2.612,2.612,0,0,1,.765,1.955ZM88.553-7.378a1.116,1.116,0,0,0-.884.391,1.473,1.473,0,0,0-.34,1v.9a.06.06,0,0,0,.068.068h2.329a.06.06,0,0,0,.068-.068v-.9a1.473,1.473,0,0,0-.34-1A1.135,1.135,0,0,0,88.553-7.378Zm7.667-1.36a1.375,1.375,0,0,1,.731.187.183.183,0,0,1,.085.221l-.255,1.292q-.017.153-.2.1a1.315,1.315,0,0,0-.476-.085,2.046,2.046,0,0,0-.306.034,1.169,1.169,0,0,0-.875.578,2.259,2.259,0,0,0-.349,1.275V-.17A.15.15,0,0,1,94.4,0H93.109a.15.15,0,0,1-.17-.17V-8.483a.15.15,0,0,1,.17-.17H94.4a.15.15,0,0,1,.17.17V-7.5q0,.051.026.059t.042-.043A1.668,1.668,0,0,1,96.22-8.738Zm2.788-1.275a1.059,1.059,0,0,1-.782-.306,1.059,1.059,0,0,1-.306-.782,1.059,1.059,0,0,1,.306-.782,1.059,1.059,0,0,1,.782-.306,1.068,1.068,0,0,1,.79.3,1.068,1.068,0,0,1,.3.79,1.059,1.059,0,0,1-.306.782A1.059,1.059,0,0,1,99.008-10.013ZM98.379,0a.15.15,0,0,1-.17-.17V-8.483a.15.15,0,0,1,.17-.17h1.292a.15.15,0,0,1,.17.17V-.17a.15.15,0,0,1-.17.17Z" transform="translate(52 31)" fill="#fff"/>
      </g>
      <g id="Dept_Name-5" data-name="Dept_Name" transform="translate(531 1896.913)">
        <g id="Bg_Stroke-6" data-name="Bg_Stroke" fill="none" stroke="#546e89" stroke-width="1.5">
          <rect width="205" height="51" rx="25.5" stroke="none"/>
          <rect x="0.75" y="0.75" width="203.5" height="49.5" rx="24.75" fill="none"/>
        </g>
        <rect id="Bg-7" data-name="Bg" width="189" height="35" rx="17.5" transform="translate(8 8)" fill="#2d4a6a"/>
        <g id="Mini_Circle-15" data-name="Mini_Circle" transform="translate(200 23)">
          <g id="Ellipse-25" data-name="Ellipse" transform="translate(0 0)" fill="#173658" stroke="#546e89" stroke-miterlimit="10" stroke-width="1.5">
            <circle cx="5.5" cy="5.5" r="5.5" stroke="none"/>
            <circle cx="5.5" cy="5.5" r="4.75" fill="none"/>
          </g>
          <circle id="Ellipse-26" data-name="Ellipse" cx="2.5" cy="2.5" r="2.5" transform="translate(3.001 3)" fill="#546e89"/>
        </g>
        <path id="Text-5" data-name="Text" d="M5.712,0a.175.175,0,0,1-.187-.153L5.151-2.108a.057.057,0,0,0-.025-.051.1.1,0,0,0-.06-.017H2.3a.1.1,0,0,0-.059.017.057.057,0,0,0-.025.051L1.853-.153A.162.162,0,0,1,1.666,0H.374A.156.156,0,0,1,.247-.051.155.155,0,0,1,.221-.187l2.533-11.56a.175.175,0,0,1,.187-.153H4.454a.162.162,0,0,1,.187.153L7.191-.187v.034A.135.135,0,0,1,7.038,0ZM2.5-3.536q0,.068.051.068H4.811q.051,0,.051-.068L3.706-9.571Q3.689-9.6,3.672-9.6t-.034.034Zm9.078-5.2a1.375,1.375,0,0,1,.731.187.183.183,0,0,1,.085.221l-.255,1.292q-.017.153-.2.1a1.315,1.315,0,0,0-.476-.085,2.046,2.046,0,0,0-.306.034,1.169,1.169,0,0,0-.875.578,2.259,2.259,0,0,0-.349,1.275V-.17a.15.15,0,0,1-.17.17H8.466A.15.15,0,0,1,8.3-.17V-8.483a.15.15,0,0,1,.17-.17H9.758a.15.15,0,0,1,.17.17V-7.5q0,.051.026.059T10-7.48A1.668,1.668,0,0,1,11.577-8.738ZM16.2-8.789a2.766,2.766,0,0,1,2.031.782,2.765,2.765,0,0,1,.791,2.057V-.17a.15.15,0,0,1-.17.17H17.561a.15.15,0,0,1-.17-.17V-.544A.057.057,0,0,0,17.366-.6q-.026-.017-.06.017a2.149,2.149,0,0,1-1.751.714,2.778,2.778,0,0,1-1.708-.553,2.3,2.3,0,0,1-.74-1.964A2.565,2.565,0,0,1,14-4.548a3.722,3.722,0,0,1,2.337-.689h.986a.06.06,0,0,0,.068-.068V-5.8a1.807,1.807,0,0,0-.34-1.148,1.072,1.072,0,0,0-.884-.433.97.97,0,0,0-.714.289,1.211,1.211,0,0,0-.34.748.15.15,0,0,1-.17.17H13.566a.15.15,0,0,1-.17-.17,2.507,2.507,0,0,1,.867-1.768A2.849,2.849,0,0,1,16.2-8.789Zm-.289,7.5a1.555,1.555,0,0,0,1.037-.374,1.3,1.3,0,0,0,.442-1.054V-3.876a.06.06,0,0,0-.068-.068H16.286a1.57,1.57,0,0,0-1.088.365,1.353,1.353,0,0,0-.408,1.063A1.247,1.247,0,0,0,15.1-1.6,1.1,1.1,0,0,0,15.912-1.292Zm10-1a2.221,2.221,0,0,1-.552,1.547,2.575,2.575,0,0,1-1.522.782q-.085.034-.034.085a2.236,2.236,0,0,1,.663,1.547,1.357,1.357,0,0,1-.408,1.114,1.539,1.539,0,0,1-1,.332,2.158,2.158,0,0,1-.612-.085.176.176,0,0,1-.136-.2l.085-.544q.017-.153.2-.119a.715.715,0,0,0,.17.017A.583.583,0,0,0,23.205,2a.777.777,0,0,0,.17-.553A1.862,1.862,0,0,0,22.661.119a.115.115,0,0,0-.085-.034,2.706,2.706,0,0,1-1.632-.74,2.1,2.1,0,0,1-.6-1.539v-.153a.15.15,0,0,1,.17-.17h1.207a.15.15,0,0,1,.17.17v.119a.991.991,0,0,0,.357.774,1.289,1.289,0,0,0,.884.314,1.132,1.132,0,0,0,.825-.306,1.044,1.044,0,0,0,.314-.782.927.927,0,0,0-.221-.629,1.613,1.613,0,0,0-.518-.4q-.3-.144-.91-.4a8.433,8.433,0,0,1-1.1-.561A2.61,2.61,0,0,1,20.757-5a2.283,2.283,0,0,1-.34-1.292,2.292,2.292,0,0,1,.722-1.8,2.813,2.813,0,0,1,1.947-.646,2.818,2.818,0,0,1,1.98.663,2.325,2.325,0,0,1,.722,1.8v.051a.15.15,0,0,1-.17.17H24.446a.15.15,0,0,1-.17-.17v-.119a1.065,1.065,0,0,0-.323-.782,1.127,1.127,0,0,0-.833-.323,1.093,1.093,0,0,0-.833.323,1.1,1.1,0,0,0-.306.782.882.882,0,0,0,.2.6,1.561,1.561,0,0,0,.493.382q.289.145.918.417a9.828,9.828,0,0,1,1.156.586,2.673,2.673,0,0,1,.807.791A2.209,2.209,0,0,1,25.908-2.3Zm4.709-5.338a.15.15,0,0,1-.17.17h-1.19a.06.06,0,0,0-.068.068v4.777a1.423,1.423,0,0,0,.238.944.917.917,0,0,0,.748.247h.153a.15.15,0,0,1,.17.17V-.17a.15.15,0,0,1-.17.17H29.8a2.663,2.663,0,0,1-1.64-.425,1.944,1.944,0,0,1-.553-1.615V-7.4a.06.06,0,0,0-.068-.068h-.663a.15.15,0,0,1-.17-.17v-.85a.15.15,0,0,1,.17-.17h.663a.06.06,0,0,0,.068-.068v-1.921a.15.15,0,0,1,.17-.17h1.241a.15.15,0,0,1,.17.17v1.921a.06.06,0,0,0,.068.068h1.19a.15.15,0,0,1,.17.17ZM31.875,0a.15.15,0,0,1-.17-.17V-8.483a.15.15,0,0,1,.17-.17h1.292a.15.15,0,0,1,.17.17V-.17a.15.15,0,0,1-.17.17Zm6.307-8.738a1.375,1.375,0,0,1,.731.187A.183.183,0,0,1,39-8.33l-.255,1.292q-.017.153-.2.1a1.315,1.315,0,0,0-.476-.085,2.046,2.046,0,0,0-.306.034,1.169,1.169,0,0,0-.876.578,2.259,2.259,0,0,0-.348,1.275V-.17a.15.15,0,0,1-.17.17H35.071a.15.15,0,0,1-.17-.17V-8.483a.15.15,0,0,1,.17-.17h1.292a.15.15,0,0,1,.17.17V-7.5q0,.051.026.059T36.6-7.48A1.668,1.668,0,0,1,38.182-8.738Zm9.163-.034a1.911,1.911,0,0,1,1.624.757A3.455,3.455,0,0,1,49.538-5.9V-.17a.15.15,0,0,1-.17.17H48.093a.15.15,0,0,1-.17-.17V-5.78a1.936,1.936,0,0,0-.306-1.165.963.963,0,0,0-.816-.417,1.041,1.041,0,0,0-.867.417A1.829,1.829,0,0,0,45.611-5.8V-.17a.15.15,0,0,1-.17.17H44.166A.15.15,0,0,1,44-.17V-5.78a1.936,1.936,0,0,0-.306-1.165.963.963,0,0,0-.816-.417,1.041,1.041,0,0,0-.867.417A1.829,1.829,0,0,0,41.684-5.8V-.17a.15.15,0,0,1-.17.17H40.239a.15.15,0,0,1-.17-.17V-8.483a.15.15,0,0,1,.17-.17h1.275a.15.15,0,0,1,.17.17v.425a.057.057,0,0,0,.026.051q.025.017.059-.017a2.217,2.217,0,0,1,.782-.561,2.253,2.253,0,0,1,.884-.187,1.917,1.917,0,0,1,1.853,1.139.041.041,0,0,0,.051.025q.034-.008.051-.076a2.037,2.037,0,0,1,.867-.833A2.47,2.47,0,0,1,47.345-8.772Zm6.681-.017a2.766,2.766,0,0,1,2.031.782,2.765,2.765,0,0,1,.791,2.057V-.17a.15.15,0,0,1-.17.17H55.386a.15.15,0,0,1-.17-.17V-.544A.057.057,0,0,0,55.191-.6q-.026-.017-.06.017A2.149,2.149,0,0,1,53.38.136a2.778,2.778,0,0,1-1.708-.553,2.3,2.3,0,0,1-.74-1.964,2.565,2.565,0,0,1,.893-2.168,3.722,3.722,0,0,1,2.337-.689h.986a.06.06,0,0,0,.068-.068V-5.8a1.807,1.807,0,0,0-.34-1.148,1.072,1.072,0,0,0-.884-.433.97.97,0,0,0-.714.289,1.211,1.211,0,0,0-.34.748.15.15,0,0,1-.17.17H51.391a.15.15,0,0,1-.17-.17,2.507,2.507,0,0,1,.867-1.768A2.849,2.849,0,0,1,54.026-8.789Zm-.289,7.5a1.555,1.555,0,0,0,1.037-.374,1.3,1.3,0,0,0,.442-1.054V-3.876a.06.06,0,0,0-.068-.068H54.111a1.57,1.57,0,0,0-1.088.365,1.353,1.353,0,0,0-.408,1.063,1.247,1.247,0,0,0,.306.918A1.1,1.1,0,0,0,53.737-1.292Z" transform="translate(74 31)" fill="#fff"/>
      </g>
    </g>
    <g id="Group_134" data-name="Group 134" transform="translate(0 399)">
      <g id="Dept_Name-6" data-name="Dept_Name" transform="translate(1185 1616.913)">
        <g id="Bg_Stroke-7" data-name="Bg_Stroke" transform="translate(5)" fill="none" stroke="#546e89" stroke-width="1.5">
          <rect width="205" height="51" rx="25.5" stroke="none"/>
          <rect x="0.75" y="0.75" width="203.5" height="49.5" rx="24.75" fill="none"/>
        </g>
        <rect id="Bg-8" data-name="Bg" width="189" height="35" rx="17.5" transform="translate(13 8)" fill="#2d4a6a"/>
        <g id="Mini_Circle-16" data-name="Mini_Circle" transform="translate(0 20)">
          <g id="Ellipse-27" data-name="Ellipse" transform="translate(0 0)" fill="#173658" stroke="#546e89" stroke-miterlimit="10" stroke-width="1.5">
            <circle cx="5.5" cy="5.5" r="5.5" stroke="none"/>
            <circle cx="5.5" cy="5.5" r="4.75" fill="none"/>
          </g>
          <circle id="Ellipse-28" data-name="Ellipse" cx="2.5" cy="2.5" r="2.5" transform="translate(3.001 3)" fill="#546e89"/>
        </g>
        <path id="Text-6" data-name="Text" d="M1.224,0a.15.15,0,0,1-.17-.17V-11.73a.15.15,0,0,1,.17-.17H2.516a.15.15,0,0,1,.17.17V-.17a.15.15,0,0,1-.17.17ZM1.87-13.26a1.059,1.059,0,0,1-.782-.306,1.059,1.059,0,0,1-.306-.782,1.059,1.059,0,0,1,.306-.782,1.059,1.059,0,0,1,.782-.306,1.059,1.059,0,0,1,.782.306,1.059,1.059,0,0,1,.306.782,1.059,1.059,0,0,1-.306.782A1.059,1.059,0,0,1,1.87-13.26ZM8.075-8.772a1.965,1.965,0,0,1,1.64.722A3.24,3.24,0,0,1,10.285-6V-.17a.15.15,0,0,1-.17.17H8.823a.15.15,0,0,1-.17-.17v-5.7a1.756,1.756,0,0,0-.306-1.1,1.019,1.019,0,0,0-.85-.391,1.071,1.071,0,0,0-.876.383A1.8,1.8,0,0,0,6.273-5.9q0,.1-.017.1V-.17a.15.15,0,0,1-.17.17H4.794a.15.15,0,0,1-.17-.17V-8.483a.15.15,0,0,1,.17-.17H6.086a.15.15,0,0,1,.17.17v.459a.04.04,0,0,0,.034.042q.034.009.068-.042A2.094,2.094,0,0,1,8.075-8.772ZM14.433.1a3.037,3.037,0,0,1-2.014-.621,2.073,2.073,0,0,1-.74-1.675v-.153a.15.15,0,0,1,.17-.17h1.207a.15.15,0,0,1,.17.17v.119a.991.991,0,0,0,.357.774,1.289,1.289,0,0,0,.884.314,1.132,1.132,0,0,0,.825-.306,1.044,1.044,0,0,0,.314-.782.927.927,0,0,0-.221-.629,1.613,1.613,0,0,0-.519-.4q-.3-.144-.91-.4a8.433,8.433,0,0,1-1.1-.561A2.61,2.61,0,0,1,12.087-5a2.283,2.283,0,0,1-.34-1.292,2.292,2.292,0,0,1,.722-1.8,2.813,2.813,0,0,1,1.946-.646,2.818,2.818,0,0,1,1.98.663,2.325,2.325,0,0,1,.723,1.8v.051a.15.15,0,0,1-.17.17H15.776a.15.15,0,0,1-.17-.17v-.119a1.065,1.065,0,0,0-.323-.782,1.127,1.127,0,0,0-.833-.323,1.093,1.093,0,0,0-.833.323,1.1,1.1,0,0,0-.306.782.882.882,0,0,0,.2.6,1.561,1.561,0,0,0,.493.382q.289.145.918.417a9.828,9.828,0,0,1,1.156.586,2.673,2.673,0,0,1,.807.791A2.209,2.209,0,0,1,17.238-2.3a2.183,2.183,0,0,1-.757,1.751A3.05,3.05,0,0,1,14.433.1Zm6.9-8.891a2.766,2.766,0,0,1,2.031.782,2.765,2.765,0,0,1,.791,2.057V-.17a.15.15,0,0,1-.17.17H22.7a.15.15,0,0,1-.17-.17V-.544A.057.057,0,0,0,22.5-.6q-.026-.017-.059.017a2.149,2.149,0,0,1-1.751.714,2.778,2.778,0,0,1-1.709-.553,2.3,2.3,0,0,1-.74-1.964,2.565,2.565,0,0,1,.893-2.168,3.722,3.722,0,0,1,2.337-.689h.986a.06.06,0,0,0,.068-.068V-5.8a1.807,1.807,0,0,0-.34-1.148,1.072,1.072,0,0,0-.884-.433.97.97,0,0,0-.714.289,1.211,1.211,0,0,0-.34.748.15.15,0,0,1-.17.17H18.7a.15.15,0,0,1-.17-.17A2.507,2.507,0,0,1,19.4-8.109,2.849,2.849,0,0,1,21.335-8.789Zm-.289,7.5a1.555,1.555,0,0,0,1.037-.374,1.3,1.3,0,0,0,.442-1.054V-3.876a.06.06,0,0,0-.068-.068H21.42a1.57,1.57,0,0,0-1.088.365,1.353,1.353,0,0,0-.408,1.063,1.247,1.247,0,0,0,.306.918A1.1,1.1,0,0,0,21.046-1.292Zm8.177-7.48a1.965,1.965,0,0,1,1.64.722A3.24,3.24,0,0,1,31.433-6V-.17a.15.15,0,0,1-.17.17H29.971a.15.15,0,0,1-.17-.17v-5.7a1.756,1.756,0,0,0-.306-1.1,1.019,1.019,0,0,0-.85-.391,1.071,1.071,0,0,0-.875.383,1.8,1.8,0,0,0-.349,1.08q0,.1-.017.1V-.17a.15.15,0,0,1-.17.17H25.942a.15.15,0,0,1-.17-.17V-8.483a.15.15,0,0,1,.17-.17h1.292a.15.15,0,0,1,.17.17v.459a.04.04,0,0,0,.034.042q.034.009.068-.042A2.094,2.094,0,0,1,29.223-8.772ZM36.856,0a.15.15,0,0,1-.17-.17V-11.73a.15.15,0,0,1,.17-.17h1.292a.15.15,0,0,1,.17.17v5.1q0,.051.034.059t.051-.043l2.89-5.168a.247.247,0,0,1,.2-.119h1.394a.143.143,0,0,1,.136.06.139.139,0,0,1-.017.144L40.392-6.97a.157.157,0,0,0,0,.1L43.231-.2l.017.068Q43.248,0,43.1,0H41.684A.187.187,0,0,1,41.5-.136l-2.21-5.3q-.017-.085-.085-.017L38.335-4.08A.134.134,0,0,0,38.318-4V-.17a.15.15,0,0,1-.17.17Zm10.37-8.789a2.766,2.766,0,0,1,2.031.782,2.765,2.765,0,0,1,.791,2.057V-.17a.15.15,0,0,1-.17.17H48.586a.15.15,0,0,1-.17-.17V-.544A.057.057,0,0,0,48.391-.6q-.025-.017-.059.017A2.149,2.149,0,0,1,46.58.136a2.778,2.778,0,0,1-1.708-.553,2.3,2.3,0,0,1-.74-1.964,2.565,2.565,0,0,1,.893-2.168,3.722,3.722,0,0,1,2.337-.689h.986a.06.06,0,0,0,.068-.068V-5.8a1.807,1.807,0,0,0-.34-1.148,1.072,1.072,0,0,0-.884-.433.97.97,0,0,0-.714.289,1.211,1.211,0,0,0-.34.748.15.15,0,0,1-.17.17H44.591a.15.15,0,0,1-.17-.17,2.507,2.507,0,0,1,.867-1.768A2.849,2.849,0,0,1,47.226-8.789Zm-.289,7.5a1.555,1.555,0,0,0,1.037-.374,1.3,1.3,0,0,0,.442-1.054V-3.876a.06.06,0,0,0-.068-.068H47.311a1.57,1.57,0,0,0-1.088.365,1.353,1.353,0,0,0-.408,1.063,1.247,1.247,0,0,0,.306.918A1.1,1.1,0,0,0,46.937-1.292Zm4.4,4.675q-.034,0-.068-.051a.209.209,0,0,1-.034-.119v-1a.15.15,0,0,1,.17-.17,2.147,2.147,0,0,0,.858-.17,1.13,1.13,0,0,0,.51-.578A5.125,5.125,0,0,0,53.108.051l-.017-.085L50.915-8.466,50.9-8.517q0-.136.17-.136h1.394a.162.162,0,0,1,.187.153L53.89-2.363q.017.051.034.051t.034-.051L55.182-8.5a.175.175,0,0,1,.187-.153l1.411.017a.156.156,0,0,1,.128.051.127.127,0,0,1,.008.136L54.587.6a8.068,8.068,0,0,1-.646,1.743,1.812,1.812,0,0,1-.892.807,4.362,4.362,0,0,1-1.624.238ZM61.54-8.772a1.965,1.965,0,0,1,1.641.722A3.24,3.24,0,0,1,63.75-6V-.17a.15.15,0,0,1-.17.17H62.288a.15.15,0,0,1-.17-.17v-5.7a1.756,1.756,0,0,0-.306-1.1,1.019,1.019,0,0,0-.85-.391,1.071,1.071,0,0,0-.875.383,1.8,1.8,0,0,0-.348,1.08q0,.1-.017.1V-.17a.15.15,0,0,1-.17.17H58.259a.15.15,0,0,1-.17-.17V-8.483a.15.15,0,0,1,.17-.17h1.292a.15.15,0,0,1,.17.17v.459a.04.04,0,0,0,.034.042q.034.009.068-.042A2.094,2.094,0,0,1,61.54-8.772Zm6.681-.017a2.766,2.766,0,0,1,2.032.782,2.765,2.765,0,0,1,.791,2.057V-.17a.15.15,0,0,1-.17.17H69.581a.15.15,0,0,1-.17-.17V-.544A.057.057,0,0,0,69.386-.6q-.026-.017-.06.017a2.149,2.149,0,0,1-1.751.714,2.778,2.778,0,0,1-1.709-.553,2.3,2.3,0,0,1-.739-1.964,2.565,2.565,0,0,1,.892-2.168,3.722,3.722,0,0,1,2.338-.689h.986a.06.06,0,0,0,.068-.068V-5.8a1.807,1.807,0,0,0-.34-1.148,1.072,1.072,0,0,0-.884-.433.97.97,0,0,0-.714.289,1.211,1.211,0,0,0-.34.748.15.15,0,0,1-.17.17H65.586a.15.15,0,0,1-.17-.17,2.507,2.507,0,0,1,.867-1.768A2.849,2.849,0,0,1,68.221-8.789Zm-.289,7.5a1.555,1.555,0,0,0,1.037-.374,1.3,1.3,0,0,0,.442-1.054V-3.876a.06.06,0,0,0-.068-.068H68.306a1.57,1.57,0,0,0-1.088.365,1.353,1.353,0,0,0-.408,1.063,1.247,1.247,0,0,0,.306.918A1.1,1.1,0,0,0,67.932-1.292ZM72.828,0a.15.15,0,0,1-.17-.17V-11.73a.15.15,0,0,1,.17-.17H74.12a.15.15,0,0,1,.17.17v6.443a.069.069,0,0,0,.034.068q.034.017.051-.034l2.193-3.3a.257.257,0,0,1,.2-.1H78.1a.143.143,0,0,1,.136.059.139.139,0,0,1-.017.144L76.466-5.865a.074.074,0,0,0-.017.1l2.04,5.576.017.068q0,.119-.153.119H77.01a.2.2,0,0,1-.2-.136L75.446-4.4q-.017-.1-.1-.017l-1.02,1.479a.115.115,0,0,0-.034.085V-.17a.15.15,0,0,1-.17.17Zm7.089,0a.15.15,0,0,1-.17-.17V-11.73a.15.15,0,0,1,.17-.17h1.292a.15.15,0,0,1,.17.17V-.17a.15.15,0,0,1-.17.17ZM85.85-8.789a2.766,2.766,0,0,1,2.032.782,2.765,2.765,0,0,1,.791,2.057V-.17A.15.15,0,0,1,88.5,0H87.21a.15.15,0,0,1-.17-.17V-.544A.057.057,0,0,0,87.015-.6q-.026-.017-.06.017A2.149,2.149,0,0,1,85.2.136,2.778,2.778,0,0,1,83.5-.417a2.3,2.3,0,0,1-.739-1.964,2.565,2.565,0,0,1,.892-2.168,3.722,3.722,0,0,1,2.338-.689h.986A.06.06,0,0,0,87.04-5.3V-5.8a1.807,1.807,0,0,0-.34-1.148,1.072,1.072,0,0,0-.884-.433.97.97,0,0,0-.714.289,1.211,1.211,0,0,0-.34.748.15.15,0,0,1-.17.17H83.215a.15.15,0,0,1-.17-.17,2.507,2.507,0,0,1,.867-1.768A2.849,2.849,0,0,1,85.85-8.789Zm-.289,7.5A1.555,1.555,0,0,0,86.6-1.666,1.3,1.3,0,0,0,87.04-2.72V-3.876a.06.06,0,0,0-.068-.068H85.935a1.57,1.57,0,0,0-1.088.365,1.353,1.353,0,0,0-.408,1.063,1.247,1.247,0,0,0,.306.918A1.1,1.1,0,0,0,85.561-1.292Zm8.007-7.446a1.375,1.375,0,0,1,.731.187.183.183,0,0,1,.085.221l-.255,1.292q-.017.153-.2.1a1.315,1.315,0,0,0-.476-.085,2.046,2.046,0,0,0-.306.034,1.169,1.169,0,0,0-.875.578,2.259,2.259,0,0,0-.349,1.275V-.17a.15.15,0,0,1-.17.17H90.457a.15.15,0,0,1-.17-.17V-8.483a.15.15,0,0,1,.17-.17h1.292a.15.15,0,0,1,.17.17V-7.5q0,.051.025.059t.043-.043A1.668,1.668,0,0,1,93.568-8.738ZM95.421,0a.15.15,0,0,1-.17-.17V-8.483a.15.15,0,0,1,.17-.17h1.292a.15.15,0,0,1,.17.17V-.17a.15.15,0,0,1-.17.17Z" transform="translate(62 31)" fill="#fff"/>
      </g>
      <g id="Dept_Name-7" data-name="Dept_Name" transform="translate(1088 1751.913)">
        <g id="Bg_Stroke-8" data-name="Bg_Stroke" transform="translate(0 5)" fill="none" stroke="#546e89" stroke-width="1.5">
          <rect width="205" height="51" rx="25.5" stroke="none"/>
          <rect x="0.75" y="0.75" width="203.5" height="49.5" rx="24.75" fill="none"/>
        </g>
        <rect id="Bg-9" data-name="Bg" width="189" height="35" rx="17.5" transform="translate(8 13)" fill="#2d4a6a"/>
        <g id="Mini_Circle-17" data-name="Mini_Circle" transform="translate(103 0)">
          <g id="Ellipse-29" data-name="Ellipse" transform="translate(0 0)" fill="#173658" stroke="#546e89" stroke-miterlimit="10" stroke-width="1.5">
            <circle cx="5.5" cy="5.5" r="5.5" stroke="none"/>
            <circle cx="5.5" cy="5.5" r="4.75" fill="none"/>
          </g>
          <circle id="Ellipse-30" data-name="Ellipse" cx="2.5" cy="2.5" r="2.5" transform="translate(3.001 3)" fill="#546e89"/>
        </g>
        <path id="Text-7" data-name="Text" d="M1.224,0a.15.15,0,0,1-.17-.17V-11.73a.15.15,0,0,1,.17-.17H2.516a.15.15,0,0,1,.17.17V-.17a.15.15,0,0,1-.17.17ZM1.87-13.26a1.059,1.059,0,0,1-.782-.306,1.059,1.059,0,0,1-.306-.782,1.059,1.059,0,0,1,.306-.782,1.059,1.059,0,0,1,.782-.306,1.059,1.059,0,0,1,.782.306,1.059,1.059,0,0,1,.306.782,1.059,1.059,0,0,1-.306.782A1.059,1.059,0,0,1,1.87-13.26Zm6.664,1.53a.15.15,0,0,1,.17-.17H10a.15.15,0,0,1,.17.17V-.17A.15.15,0,0,1,10,0H8.7a.15.15,0,0,1-.17-.17V-.442a.057.057,0,0,0-.025-.051q-.026-.017-.06.017a2.153,2.153,0,0,1-.731.459A2.31,2.31,0,0,1,6.9.136,2.252,2.252,0,0,1,5.126-.6,2.829,2.829,0,0,1,4.471-2.55V-6.086a2.841,2.841,0,0,1,.655-1.981A2.278,2.278,0,0,1,6.9-8.789a2.31,2.31,0,0,1,.816.153,2.153,2.153,0,0,1,.731.459q.034.034.06.017a.057.057,0,0,0,.025-.051ZM7.327-1.275a1.13,1.13,0,0,0,.807-.314,1.341,1.341,0,0,0,.4-.824V-6.239a1.341,1.341,0,0,0-.4-.825,1.13,1.13,0,0,0-.807-.314,1.142,1.142,0,0,0-.893.391,1.451,1.451,0,0,0-.348,1v3.315a1.451,1.451,0,0,0,.348,1A1.142,1.142,0,0,0,7.327-1.275Zm7.412-7.514a2.766,2.766,0,0,1,2.031.782,2.765,2.765,0,0,1,.791,2.057V-.17a.15.15,0,0,1-.17.17H16.1a.15.15,0,0,1-.17-.17V-.544A.057.057,0,0,0,15.9-.6q-.025-.017-.059.017a2.149,2.149,0,0,1-1.751.714,2.778,2.778,0,0,1-1.708-.553,2.3,2.3,0,0,1-.74-1.964,2.565,2.565,0,0,1,.892-2.168,3.722,3.722,0,0,1,2.338-.689h.986a.06.06,0,0,0,.068-.068V-5.8a1.807,1.807,0,0,0-.34-1.148,1.072,1.072,0,0,0-.884-.433.97.97,0,0,0-.714.289,1.211,1.211,0,0,0-.34.748.15.15,0,0,1-.17.17H12.1a.15.15,0,0,1-.17-.17A2.507,2.507,0,0,1,12.8-8.109,2.849,2.849,0,0,1,14.739-8.789Zm-.289,7.5a1.555,1.555,0,0,0,1.037-.374,1.3,1.3,0,0,0,.442-1.054V-3.876a.06.06,0,0,0-.068-.068H14.824a1.57,1.57,0,0,0-1.088.365,1.353,1.353,0,0,0-.408,1.063,1.247,1.247,0,0,0,.306.918A1.1,1.1,0,0,0,14.45-1.292Zm8.007-7.446a1.375,1.375,0,0,1,.731.187.183.183,0,0,1,.085.221l-.255,1.292q-.017.153-.2.1a1.315,1.315,0,0,0-.476-.085,2.046,2.046,0,0,0-.306.034,1.169,1.169,0,0,0-.875.578,2.259,2.259,0,0,0-.348,1.275V-.17a.15.15,0,0,1-.17.17H19.346a.15.15,0,0,1-.17-.17V-8.483a.15.15,0,0,1,.17-.17h1.292a.15.15,0,0,1,.17.17V-7.5q0,.051.025.059t.042-.043A1.668,1.668,0,0,1,22.457-8.738Zm2.788-1.275a1.059,1.059,0,0,1-.782-.306,1.059,1.059,0,0,1-.306-.782,1.059,1.059,0,0,1,.306-.782,1.059,1.059,0,0,1,.782-.306,1.068,1.068,0,0,1,.791.3,1.068,1.068,0,0,1,.3.79,1.059,1.059,0,0,1-.306.782A1.059,1.059,0,0,1,25.245-10.013ZM24.616,0a.15.15,0,0,1-.17-.17V-8.483a.15.15,0,0,1,.17-.17h1.292a.15.15,0,0,1,.17.17V-.17a.15.15,0,0,1-.17.17Zm7.072,0a.15.15,0,0,1-.17-.17V-11.73a.15.15,0,0,1,.17-.17H32.98a.15.15,0,0,1,.17.17V-.17a.15.15,0,0,1-.17.17Zm.646-13.26a1.059,1.059,0,0,1-.782-.306,1.059,1.059,0,0,1-.306-.782,1.059,1.059,0,0,1,.306-.782,1.059,1.059,0,0,1,.782-.306,1.059,1.059,0,0,1,.782.306,1.059,1.059,0,0,1,.306.782,1.059,1.059,0,0,1-.306.782A1.059,1.059,0,0,1,32.334-13.26ZM40.358-2.3a2.221,2.221,0,0,1-.552,1.547,2.575,2.575,0,0,1-1.521.782Q38.2.068,38.25.119a2.236,2.236,0,0,1,.663,1.547,1.357,1.357,0,0,1-.408,1.114,1.539,1.539,0,0,1-1,.332,2.158,2.158,0,0,1-.612-.085.176.176,0,0,1-.136-.2l.085-.544q.017-.153.2-.119a.715.715,0,0,0,.17.017A.583.583,0,0,0,37.655,2a.777.777,0,0,0,.17-.553A1.862,1.862,0,0,0,37.111.119a.115.115,0,0,0-.085-.034,2.706,2.706,0,0,1-1.632-.74A2.1,2.1,0,0,1,34.8-2.193v-.153a.15.15,0,0,1,.17-.17h1.207a.15.15,0,0,1,.17.17v.119a.991.991,0,0,0,.357.774,1.289,1.289,0,0,0,.884.314,1.132,1.132,0,0,0,.825-.306,1.044,1.044,0,0,0,.314-.782.927.927,0,0,0-.221-.629,1.613,1.613,0,0,0-.519-.4q-.3-.144-.91-.4a8.433,8.433,0,0,1-1.1-.561A2.61,2.61,0,0,1,35.207-5a2.283,2.283,0,0,1-.34-1.292,2.292,2.292,0,0,1,.723-1.8,2.813,2.813,0,0,1,1.946-.646,2.818,2.818,0,0,1,1.98.663,2.325,2.325,0,0,1,.722,1.8v.051a.15.15,0,0,1-.17.17H38.9a.15.15,0,0,1-.17-.17v-.119a1.065,1.065,0,0,0-.323-.782,1.127,1.127,0,0,0-.833-.323,1.093,1.093,0,0,0-.833.323,1.1,1.1,0,0,0-.306.782.882.882,0,0,0,.2.6,1.561,1.561,0,0,0,.493.382q.289.145.918.417a9.828,9.828,0,0,1,1.156.586,2.673,2.673,0,0,1,.807.791A2.209,2.209,0,0,1,40.358-2.3ZM41.786,0a.15.15,0,0,1-.17-.17V-11.73a.15.15,0,0,1,.17-.17h1.292a.15.15,0,0,1,.17.17V-.17a.15.15,0,0,1-.17.17Zm8.7-3.825a.15.15,0,0,1-.17.17H46.478a.06.06,0,0,0-.068.068v.918a1.473,1.473,0,0,0,.34,1,1.116,1.116,0,0,0,.884.391,1.154,1.154,0,0,0,.8-.289,1.286,1.286,0,0,0,.408-.748.187.187,0,0,1,.187-.136l1.258.068a.156.156,0,0,1,.128.051.128.128,0,0,1,.025.119A2.531,2.531,0,0,1,49.6-.485a2.914,2.914,0,0,1-1.963.621A2.908,2.908,0,0,1,45.552-.6a2.563,2.563,0,0,1-.774-1.955V-6.086a2.6,2.6,0,0,1,.774-1.955,2.869,2.869,0,0,1,2.083-.748,2.862,2.862,0,0,1,2.091.748,2.612,2.612,0,0,1,.765,1.955ZM47.634-7.378a1.116,1.116,0,0,0-.884.391,1.473,1.473,0,0,0-.34,1v.9a.06.06,0,0,0,.068.068h2.329a.06.06,0,0,0,.068-.068v-.9a1.473,1.473,0,0,0-.34-1A1.135,1.135,0,0,0,47.634-7.378ZM55.3-8.738a1.375,1.375,0,0,1,.731.187.183.183,0,0,1,.085.221l-.255,1.292q-.017.153-.2.1a1.315,1.315,0,0,0-.476-.085,2.046,2.046,0,0,0-.306.034A1.169,1.169,0,0,0,54-6.409a2.259,2.259,0,0,0-.348,1.275V-.17a.15.15,0,0,1-.17.17H52.19a.15.15,0,0,1-.17-.17V-8.483a.15.15,0,0,1,.17-.17h1.292a.15.15,0,0,1,.17.17V-7.5q0,.051.026.059t.042-.043A1.668,1.668,0,0,1,55.3-8.738Z" transform="translate(81 36)" fill="#fff"/>
      </g>
      <g id="Dept_Name-8" data-name="Dept_Name" transform="translate(856 1751.913)">
        <g id="Bg_Stroke-9" data-name="Bg_Stroke" transform="translate(0 5)" fill="none" stroke="#546e89" stroke-width="1.5">
          <rect width="205" height="51" rx="25.5" stroke="none"/>
          <rect x="0.75" y="0.75" width="203.5" height="49.5" rx="24.75" fill="none"/>
        </g>
        <rect id="Bg-10" data-name="Bg" width="189" height="35" rx="17.5" transform="translate(8 13)" fill="#2d4a6a"/>
        <g id="Mini_Circle-18" data-name="Mini_Circle" transform="translate(99 0)">
          <g id="Ellipse-31" data-name="Ellipse" transform="translate(0 0)" fill="#173658" stroke="#546e89" stroke-miterlimit="10" stroke-width="1.5">
            <circle cx="5.5" cy="5.5" r="5.5" stroke="none"/>
            <circle cx="5.5" cy="5.5" r="4.75" fill="none"/>
          </g>
          <circle id="Ellipse-32" data-name="Ellipse" cx="2.5" cy="2.5" r="2.5" transform="translate(3.001 3)" fill="#546e89"/>
        </g>
        <path id="Text-8" data-name="Text" d="M6.783-11.9a.15.15,0,0,1,.17.17v1.071a.15.15,0,0,1-.17.17H4.556a.06.06,0,0,0-.068.068V-.17a.15.15,0,0,1-.17.17H3.026a.15.15,0,0,1-.17-.17V-10.421a.06.06,0,0,0-.068-.068H.68a.15.15,0,0,1-.17-.17V-11.73a.15.15,0,0,1,.17-.17Zm3.825,3.111a2.766,2.766,0,0,1,2.031.782A2.765,2.765,0,0,1,13.43-5.95V-.17a.15.15,0,0,1-.17.17H11.968a.15.15,0,0,1-.17-.17V-.544A.057.057,0,0,0,11.773-.6q-.026-.017-.059.017A2.149,2.149,0,0,1,9.962.136,2.778,2.778,0,0,1,8.253-.417,2.3,2.3,0,0,1,7.514-2.38a2.565,2.565,0,0,1,.893-2.168,3.722,3.722,0,0,1,2.337-.689h.986A.06.06,0,0,0,11.8-5.3V-5.8a1.807,1.807,0,0,0-.34-1.148,1.072,1.072,0,0,0-.884-.433.97.97,0,0,0-.714.289,1.211,1.211,0,0,0-.34.748.15.15,0,0,1-.17.17H7.973a.15.15,0,0,1-.17-.17A2.507,2.507,0,0,1,8.67-8.109,2.849,2.849,0,0,1,10.608-8.789Zm-.289,7.5a1.555,1.555,0,0,0,1.037-.374A1.3,1.3,0,0,0,11.8-2.72V-3.876a.06.06,0,0,0-.068-.068H10.693a1.57,1.57,0,0,0-1.088.365A1.353,1.353,0,0,0,9.2-2.516,1.247,1.247,0,0,0,9.5-1.6,1.1,1.1,0,0,0,10.319-1.292ZM17.51.1A3.037,3.037,0,0,1,15.5-.519a2.073,2.073,0,0,1-.74-1.675v-.153a.15.15,0,0,1,.17-.17h1.207a.15.15,0,0,1,.17.17v.119a.991.991,0,0,0,.357.774,1.289,1.289,0,0,0,.884.314,1.132,1.132,0,0,0,.824-.306,1.044,1.044,0,0,0,.314-.782.927.927,0,0,0-.221-.629,1.613,1.613,0,0,0-.519-.4q-.3-.144-.91-.4a8.433,8.433,0,0,1-1.1-.561A2.61,2.61,0,0,1,15.164-5a2.283,2.283,0,0,1-.34-1.292,2.292,2.292,0,0,1,.722-1.8,2.813,2.813,0,0,1,1.947-.646,2.818,2.818,0,0,1,1.98.663,2.325,2.325,0,0,1,.722,1.8v.051a.15.15,0,0,1-.17.17H18.853a.15.15,0,0,1-.17-.17v-.119a1.065,1.065,0,0,0-.323-.782,1.127,1.127,0,0,0-.833-.323,1.093,1.093,0,0,0-.833.323,1.1,1.1,0,0,0-.306.782.882.882,0,0,0,.2.6,1.561,1.561,0,0,0,.493.382q.289.145.918.417a9.828,9.828,0,0,1,1.156.586,2.673,2.673,0,0,1,.808.791A2.209,2.209,0,0,1,20.315-2.3a2.183,2.183,0,0,1-.757,1.751A3.05,3.05,0,0,1,17.51.1Zm6.9-8.891a2.766,2.766,0,0,1,2.031.782,2.765,2.765,0,0,1,.791,2.057V-.17a.15.15,0,0,1-.17.17H25.772a.15.15,0,0,1-.17-.17V-.544A.057.057,0,0,0,25.577-.6q-.026-.017-.059.017a2.149,2.149,0,0,1-1.751.714,2.778,2.778,0,0,1-1.709-.553,2.3,2.3,0,0,1-.74-1.964,2.565,2.565,0,0,1,.893-2.168,3.722,3.722,0,0,1,2.337-.689h.986A.06.06,0,0,0,25.6-5.3V-5.8a1.807,1.807,0,0,0-.34-1.148,1.072,1.072,0,0,0-.884-.433.97.97,0,0,0-.714.289,1.211,1.211,0,0,0-.34.748.15.15,0,0,1-.17.17H21.777a.15.15,0,0,1-.17-.17,2.507,2.507,0,0,1,.867-1.768A2.849,2.849,0,0,1,24.412-8.789Zm-.289,7.5a1.555,1.555,0,0,0,1.037-.374A1.3,1.3,0,0,0,25.6-2.72V-3.876a.06.06,0,0,0-.068-.068H24.5a1.57,1.57,0,0,0-1.088.365A1.353,1.353,0,0,0,23-2.516a1.247,1.247,0,0,0,.306.918A1.1,1.1,0,0,0,24.123-1.292ZM32.13-8.738a1.375,1.375,0,0,1,.731.187.183.183,0,0,1,.085.221l-.255,1.292q-.017.153-.2.1a1.315,1.315,0,0,0-.476-.085,2.046,2.046,0,0,0-.306.034,1.169,1.169,0,0,0-.875.578,2.259,2.259,0,0,0-.348,1.275V-.17a.15.15,0,0,1-.17.17H29.019a.15.15,0,0,1-.17-.17V-8.483a.15.15,0,0,1,.17-.17h1.292a.15.15,0,0,1,.17.17V-7.5q0,.051.025.059t.042-.043A1.668,1.668,0,0,1,32.13-8.738ZM33.983,0a.15.15,0,0,1-.17-.17V-8.483a.15.15,0,0,1,.17-.17h1.292a.15.15,0,0,1,.17.17V-.17a.15.15,0,0,1-.17.17Zm10.3-8.772a1.911,1.911,0,0,1,1.624.757A3.455,3.455,0,0,1,46.478-5.9V-.17a.15.15,0,0,1-.17.17H45.033a.15.15,0,0,1-.17-.17V-5.78a1.936,1.936,0,0,0-.306-1.165.963.963,0,0,0-.816-.417,1.041,1.041,0,0,0-.867.417A1.829,1.829,0,0,0,42.551-5.8V-.17a.15.15,0,0,1-.17.17H41.106a.15.15,0,0,1-.17-.17V-5.78a1.936,1.936,0,0,0-.306-1.165.963.963,0,0,0-.816-.417,1.041,1.041,0,0,0-.867.417A1.829,1.829,0,0,0,38.624-5.8V-.17a.15.15,0,0,1-.17.17H37.179a.15.15,0,0,1-.17-.17V-8.483a.15.15,0,0,1,.17-.17h1.275a.15.15,0,0,1,.17.17v.425a.057.057,0,0,0,.026.051q.025.017.059-.017a2.217,2.217,0,0,1,.782-.561,2.253,2.253,0,0,1,.884-.187,1.917,1.917,0,0,1,1.853,1.139.041.041,0,0,0,.051.025q.034-.008.051-.076a2.037,2.037,0,0,1,.867-.833A2.47,2.47,0,0,1,44.285-8.772Z" transform="translate(85 36)" fill="#fff"/>
      </g>
      <g id="Dept_Name-9" data-name="Dept_Name" transform="translate(623 1751.913)">
        <g id="Bg_Stroke-10" data-name="Bg_Stroke" transform="translate(0 5)" fill="none" stroke="#546e89" stroke-width="1.5">
          <rect width="205" height="51" rx="25.5" stroke="none"/>
          <rect x="0.75" y="0.75" width="203.5" height="49.5" rx="24.75" fill="none"/>
        </g>
        <rect id="Bg-11" data-name="Bg" width="189" height="35" rx="17.5" transform="translate(8 13)" fill="#2d4a6a"/>
        <g id="Mini_Circle-19" data-name="Mini_Circle" transform="translate(102 0)">
          <g id="Ellipse-33" data-name="Ellipse" transform="translate(0 0)" fill="#173658" stroke="#546e89" stroke-miterlimit="10" stroke-width="1.5">
            <circle cx="5.5" cy="5.5" r="5.5" stroke="none"/>
            <circle cx="5.5" cy="5.5" r="4.75" fill="none"/>
          </g>
          <circle id="Ellipse-34" data-name="Ellipse" cx="2.5" cy="2.5" r="2.5" transform="translate(3.001 3)" fill="#546e89"/>
        </g>
        <path id="Text-9" data-name="Text" d="M6.341-11.781a.221.221,0,0,1,.2-.119H7.837a.15.15,0,0,1,.17.17V-.17a.15.15,0,0,1-.17.17H6.545a.15.15,0,0,1-.17-.17V-8.6q0-.051-.026-.051a.093.093,0,0,0-.06.034L4.658-5.576a.165.165,0,0,1-.153.119.165.165,0,0,1-.153-.119L2.737-8.6a.093.093,0,0,0-.059-.034q-.026,0-.026.051V-.17a.15.15,0,0,1-.17.17H1.19a.15.15,0,0,1-.17-.17V-11.73a.15.15,0,0,1,.17-.17H2.482a.247.247,0,0,1,.2.119l1.785,3.2a.069.069,0,0,0,.051.017.069.069,0,0,0,.051-.017Zm7.48,3.3a.15.15,0,0,1,.17-.17h1.292a.15.15,0,0,1,.17.17V-.17a.15.15,0,0,1-.17.17H13.991a.15.15,0,0,1-.17-.17V-.663q0-.051-.026-.051a.093.093,0,0,0-.059.034,1.792,1.792,0,0,1-1.632.8A2.247,2.247,0,0,1,10.455-.5a2.558,2.558,0,0,1-.629-1.9V-8.483a.15.15,0,0,1,.17-.17h1.292a.15.15,0,0,1,.17.17v5.729q0,1.462,1.156,1.462a1.052,1.052,0,0,0,.892-.416,1.865,1.865,0,0,0,.315-1.148Zm.187-1.53a1.059,1.059,0,0,1-.782-.306,1.059,1.059,0,0,1-.306-.782,1.059,1.059,0,0,1,.306-.782,1.059,1.059,0,0,1,.782-.306,1.059,1.059,0,0,1,.782.306,1.059,1.059,0,0,1,.306.782,1.059,1.059,0,0,1-.306.782A1.059,1.059,0,0,1,14.008-10.013Zm-2.754,0a1.059,1.059,0,0,1-.782-.306,1.059,1.059,0,0,1-.306-.782,1.059,1.059,0,0,1,.306-.782,1.059,1.059,0,0,1,.782-.306,1.059,1.059,0,0,1,.782.306,1.059,1.059,0,0,1,.306.782,1.059,1.059,0,0,1-.306.782A1.059,1.059,0,0,1,11.254-10.013ZM22.508-2.3a2.221,2.221,0,0,1-.552,1.547,2.575,2.575,0,0,1-1.522.782q-.085.034-.034.085a2.236,2.236,0,0,1,.663,1.547,1.357,1.357,0,0,1-.408,1.114,1.539,1.539,0,0,1-1,.332,2.158,2.158,0,0,1-.612-.085.176.176,0,0,1-.136-.2l.085-.544q.017-.153.2-.119a.715.715,0,0,0,.17.017A.583.583,0,0,0,19.805,2a.777.777,0,0,0,.17-.553A1.862,1.862,0,0,0,19.261.119a.115.115,0,0,0-.085-.034,2.706,2.706,0,0,1-1.632-.74,2.1,2.1,0,0,1-.6-1.539v-.153a.15.15,0,0,1,.17-.17h1.207a.15.15,0,0,1,.17.17v.119a.991.991,0,0,0,.357.774,1.289,1.289,0,0,0,.884.314,1.132,1.132,0,0,0,.825-.306,1.044,1.044,0,0,0,.314-.782.927.927,0,0,0-.221-.629,1.613,1.613,0,0,0-.518-.4q-.3-.144-.91-.4a8.433,8.433,0,0,1-1.1-.561A2.61,2.61,0,0,1,17.357-5a2.283,2.283,0,0,1-.34-1.292,2.292,2.292,0,0,1,.722-1.8,2.813,2.813,0,0,1,1.947-.646,2.818,2.818,0,0,1,1.98.663,2.325,2.325,0,0,1,.722,1.8v.051a.15.15,0,0,1-.17.17H21.046a.15.15,0,0,1-.17-.17v-.119a1.065,1.065,0,0,0-.323-.782,1.127,1.127,0,0,0-.833-.323,1.093,1.093,0,0,0-.833.323,1.1,1.1,0,0,0-.306.782.882.882,0,0,0,.2.6,1.561,1.561,0,0,0,.493.382q.289.145.918.417a9.828,9.828,0,0,1,1.156.586,2.673,2.673,0,0,1,.807.791A2.209,2.209,0,0,1,22.508-2.3Zm4.709-5.338a.15.15,0,0,1-.17.17h-1.19a.06.06,0,0,0-.068.068v4.777a1.423,1.423,0,0,0,.238.944.917.917,0,0,0,.748.247h.153a.15.15,0,0,1,.17.17V-.17a.15.15,0,0,1-.17.17H26.4a2.663,2.663,0,0,1-1.64-.425,1.944,1.944,0,0,1-.553-1.615V-7.4a.06.06,0,0,0-.068-.068h-.663a.15.15,0,0,1-.17-.17v-.85a.15.15,0,0,1,.17-.17h.663a.06.06,0,0,0,.068-.068v-1.921a.15.15,0,0,1,.17-.17h1.241a.15.15,0,0,1,.17.17v1.921a.06.06,0,0,0,.068.068h1.19a.15.15,0,0,1,.17.17Zm6.851,3.808a.15.15,0,0,1-.17.17H30.056a.06.06,0,0,0-.068.068v.918a1.473,1.473,0,0,0,.34,1,1.116,1.116,0,0,0,.884.391,1.154,1.154,0,0,0,.8-.289,1.286,1.286,0,0,0,.408-.748.187.187,0,0,1,.187-.136l1.258.068a.156.156,0,0,1,.128.051.128.128,0,0,1,.025.119,2.531,2.531,0,0,1-.841,1.726,2.914,2.914,0,0,1-1.963.621A2.908,2.908,0,0,1,29.129-.6a2.563,2.563,0,0,1-.773-1.955V-6.086a2.6,2.6,0,0,1,.773-1.955,2.869,2.869,0,0,1,2.083-.748,2.862,2.862,0,0,1,2.091.748,2.612,2.612,0,0,1,.765,1.955ZM31.212-7.378a1.116,1.116,0,0,0-.884.391,1.473,1.473,0,0,0-.34,1v.9a.06.06,0,0,0,.068.068h2.329a.06.06,0,0,0,.068-.068v-.9a1.473,1.473,0,0,0-.34-1A1.135,1.135,0,0,0,31.212-7.378Zm7.667-1.36a1.375,1.375,0,0,1,.731.187.183.183,0,0,1,.085.221L39.44-7.038q-.017.153-.2.1a1.315,1.315,0,0,0-.476-.085,2.046,2.046,0,0,0-.306.034,1.169,1.169,0,0,0-.876.578,2.259,2.259,0,0,0-.348,1.275V-.17a.15.15,0,0,1-.17.17H35.768a.15.15,0,0,1-.17-.17V-8.483a.15.15,0,0,1,.17-.17H37.06a.15.15,0,0,1,.17.17V-7.5q0,.051.026.059T37.3-7.48A1.668,1.668,0,0,1,38.879-8.738Zm2.788-1.275a1.059,1.059,0,0,1-.782-.306,1.059,1.059,0,0,1-.306-.782,1.059,1.059,0,0,1,.306-.782,1.059,1.059,0,0,1,.782-.306,1.068,1.068,0,0,1,.791.3,1.068,1.068,0,0,1,.3.79,1.059,1.059,0,0,1-.306.782A1.059,1.059,0,0,1,41.667-10.013ZM41.038,0a.15.15,0,0,1-.17-.17V-8.483a.15.15,0,0,1,.17-.17H42.33a.15.15,0,0,1,.17.17V-.17a.15.15,0,0,1-.17.17ZM48.11,0a.15.15,0,0,1-.17-.17V-11.73a.15.15,0,0,1,.17-.17H50.9a2.966,2.966,0,0,1,2.244.867,3.244,3.244,0,0,1,.833,2.346v5.474a3.244,3.244,0,0,1-.833,2.346A2.966,2.966,0,0,1,50.9,0Zm1.462-1.479a.06.06,0,0,0,.068.068l1.241-.017a1.25,1.25,0,0,0,1.037-.5A2.246,2.246,0,0,0,52.326-3.3V-8.6a2.208,2.208,0,0,0-.391-1.377,1.259,1.259,0,0,0-1.054-.51H49.64a.06.06,0,0,0-.068.068ZM61.3-3.825a.15.15,0,0,1-.17.17H57.29a.06.06,0,0,0-.068.068v.918a1.473,1.473,0,0,0,.34,1,1.116,1.116,0,0,0,.884.391,1.154,1.154,0,0,0,.8-.289,1.286,1.286,0,0,0,.408-.748.187.187,0,0,1,.187-.136L61.1-2.38a.156.156,0,0,1,.128.051.128.128,0,0,1,.025.119A2.531,2.531,0,0,1,60.41-.485a2.914,2.914,0,0,1-1.963.621A2.908,2.908,0,0,1,56.364-.6,2.563,2.563,0,0,1,55.59-2.55V-6.086a2.6,2.6,0,0,1,.774-1.955,2.869,2.869,0,0,1,2.083-.748,2.862,2.862,0,0,1,2.091.748A2.612,2.612,0,0,1,61.3-6.086ZM58.446-7.378a1.116,1.116,0,0,0-.884.391,1.473,1.473,0,0,0-.34,1v.9a.06.06,0,0,0,.068.068h2.329a.06.06,0,0,0,.068-.068v-.9a1.473,1.473,0,0,0-.34-1A1.135,1.135,0,0,0,58.446-7.378ZM65.263.1a3.037,3.037,0,0,1-2.014-.621,2.073,2.073,0,0,1-.739-1.675v-.153a.15.15,0,0,1,.17-.17h1.207a.15.15,0,0,1,.17.17v.119a.991.991,0,0,0,.357.774,1.289,1.289,0,0,0,.884.314,1.132,1.132,0,0,0,.825-.306,1.044,1.044,0,0,0,.314-.782.927.927,0,0,0-.221-.629,1.613,1.613,0,0,0-.519-.4q-.3-.144-.91-.4a8.433,8.433,0,0,1-1.1-.561A2.61,2.61,0,0,1,62.917-5a2.283,2.283,0,0,1-.34-1.292,2.292,2.292,0,0,1,.723-1.8,2.813,2.813,0,0,1,1.946-.646,2.818,2.818,0,0,1,1.98.663,2.325,2.325,0,0,1,.723,1.8v.051a.15.15,0,0,1-.17.17H66.606a.15.15,0,0,1-.17-.17v-.119a1.065,1.065,0,0,0-.323-.782,1.127,1.127,0,0,0-.833-.323,1.093,1.093,0,0,0-.833.323,1.1,1.1,0,0,0-.306.782.882.882,0,0,0,.2.6,1.561,1.561,0,0,0,.493.382q.289.145.918.417a9.828,9.828,0,0,1,1.156.586,2.673,2.673,0,0,1,.807.791A2.209,2.209,0,0,1,68.068-2.3a2.183,2.183,0,0,1-.757,1.751A3.05,3.05,0,0,1,65.263.1Zm7.5-7.735a.15.15,0,0,1-.17.17H71.4a.06.06,0,0,0-.068.068v4.777a1.423,1.423,0,0,0,.238.944.917.917,0,0,0,.748.247h.153a.15.15,0,0,1,.17.17V-.17a.15.15,0,0,1-.17.17h-.527A2.663,2.663,0,0,1,70.3-.425a1.944,1.944,0,0,1-.552-1.615V-7.4a.06.06,0,0,0-.068-.068H69.02a.15.15,0,0,1-.17-.17v-.85a.15.15,0,0,1,.17-.17h.663a.06.06,0,0,0,.068-.068v-1.921a.15.15,0,0,1,.17-.17h1.241a.15.15,0,0,1,.17.17v1.921a.06.06,0,0,0,.068.068h1.19a.15.15,0,0,1,.17.17Zm6.851,3.808a.15.15,0,0,1-.17.17H75.6a.06.06,0,0,0-.068.068v.918a1.473,1.473,0,0,0,.34,1,1.116,1.116,0,0,0,.884.391,1.154,1.154,0,0,0,.8-.289,1.286,1.286,0,0,0,.408-.748.187.187,0,0,1,.187-.136l1.258.068a.156.156,0,0,1,.128.051.128.128,0,0,1,.025.119,2.531,2.531,0,0,1-.841,1.726,2.914,2.914,0,0,1-1.964.621A2.908,2.908,0,0,1,74.673-.6,2.563,2.563,0,0,1,73.9-2.55V-6.086a2.6,2.6,0,0,1,.773-1.955,2.869,2.869,0,0,1,2.082-.748,2.862,2.862,0,0,1,2.091.748,2.612,2.612,0,0,1,.765,1.955ZM76.755-7.378a1.116,1.116,0,0,0-.884.391,1.473,1.473,0,0,0-.34,1v.9a.06.06,0,0,0,.068.068h2.329A.06.06,0,0,0,78-5.083v-.9a1.473,1.473,0,0,0-.34-1A1.135,1.135,0,0,0,76.755-7.378ZM81.311,0a.15.15,0,0,1-.17-.17V-11.73a.15.15,0,0,1,.17-.17H82.6a.15.15,0,0,1,.17.17v6.443a.069.069,0,0,0,.034.068q.034.017.051-.034l2.193-3.3a.257.257,0,0,1,.2-.1h1.326a.143.143,0,0,1,.136.059.139.139,0,0,1-.017.144L84.949-5.865a.074.074,0,0,0-.017.1l2.04,5.576.017.068q0,.119-.153.119H85.493a.2.2,0,0,1-.2-.136L83.929-4.4q-.017-.1-.1-.017l-1.02,1.479a.115.115,0,0,0-.034.085V-.17A.15.15,0,0,1,82.6,0Z" transform="translate(61 36)" fill="#fff"/>
      </g>
      <g id="Dept_Name-10" data-name="Dept_Name" transform="translate(531 1616.913)">
        <g id="Bg_Stroke-11" data-name="Bg_Stroke" fill="none" stroke="#546e89" stroke-width="1.5">
          <rect width="205" height="51" rx="25.5" stroke="none"/>
          <rect x="0.75" y="0.75" width="203.5" height="49.5" rx="24.75" fill="none"/>
        </g>
        <rect id="Bg-12" data-name="Bg" width="189" height="35" rx="17.5" transform="translate(8 8)" fill="#2d4a6a"/>
        <g id="Mini_Circle-20" data-name="Mini_Circle" transform="translate(200 23)">
          <g id="Ellipse-35" data-name="Ellipse" transform="translate(0 0)" fill="#173658" stroke="#546e89" stroke-miterlimit="10" stroke-width="1.5">
            <circle cx="5.5" cy="5.5" r="5.5" stroke="none"/>
            <circle cx="5.5" cy="5.5" r="4.75" fill="none"/>
          </g>
          <circle id="Ellipse-36" data-name="Ellipse" cx="2.5" cy="2.5" r="2.5" transform="translate(3.001 3)" fill="#546e89"/>
        </g>
        <path id="Text-10" data-name="Text" d="M6.341-11.781a.221.221,0,0,1,.2-.119H7.837a.15.15,0,0,1,.17.17V-.17a.15.15,0,0,1-.17.17H6.545a.15.15,0,0,1-.17-.17V-8.6q0-.051-.026-.051a.093.093,0,0,0-.06.034L4.658-5.576a.165.165,0,0,1-.153.119.165.165,0,0,1-.153-.119L2.737-8.6a.093.093,0,0,0-.059-.034q-.026,0-.026.051V-.17a.15.15,0,0,1-.17.17H1.19a.15.15,0,0,1-.17-.17V-11.73a.15.15,0,0,1,.17-.17H2.482a.247.247,0,0,1,.2.119l1.785,3.2a.069.069,0,0,0,.051.017.069.069,0,0,0,.051-.017Zm7.48,3.3a.15.15,0,0,1,.17-.17h1.292a.15.15,0,0,1,.17.17V-.17a.15.15,0,0,1-.17.17H13.991a.15.15,0,0,1-.17-.17V-.663q0-.051-.026-.051a.093.093,0,0,0-.059.034,1.792,1.792,0,0,1-1.632.8A2.247,2.247,0,0,1,10.455-.5a2.558,2.558,0,0,1-.629-1.9V-8.483a.15.15,0,0,1,.17-.17h1.292a.15.15,0,0,1,.17.17v5.729q0,1.462,1.156,1.462a1.052,1.052,0,0,0,.892-.416,1.865,1.865,0,0,0,.315-1.148Zm6.868-.289a1.965,1.965,0,0,1,1.64.722A3.24,3.24,0,0,1,22.9-6V-.17a.15.15,0,0,1-.17.17H21.437a.15.15,0,0,1-.17-.17v-5.7a1.756,1.756,0,0,0-.306-1.1,1.019,1.019,0,0,0-.85-.391,1.071,1.071,0,0,0-.875.383,1.8,1.8,0,0,0-.348,1.08q0,.1-.017.1V-.17A.15.15,0,0,1,18.7,0H17.408a.15.15,0,0,1-.17-.17V-11.73a.15.15,0,0,1,.17-.17H18.7a.15.15,0,0,1,.17.17v3.706a.04.04,0,0,0,.034.042q.034.009.068-.042A2.094,2.094,0,0,1,20.689-8.772Zm6.681-.017a2.766,2.766,0,0,1,2.031.782,2.765,2.765,0,0,1,.791,2.057V-.17a.15.15,0,0,1-.17.17H28.73a.15.15,0,0,1-.17-.17V-.544A.057.057,0,0,0,28.535-.6q-.026-.017-.059.017a2.149,2.149,0,0,1-1.751.714,2.778,2.778,0,0,1-1.708-.553,2.3,2.3,0,0,1-.74-1.964,2.565,2.565,0,0,1,.893-2.168,3.722,3.722,0,0,1,2.337-.689h.986A.06.06,0,0,0,28.56-5.3V-5.8a1.807,1.807,0,0,0-.34-1.148,1.072,1.072,0,0,0-.884-.433.97.97,0,0,0-.714.289,1.211,1.211,0,0,0-.34.748.15.15,0,0,1-.17.17H24.735a.15.15,0,0,1-.17-.17,2.507,2.507,0,0,1,.867-1.768A2.849,2.849,0,0,1,27.37-8.789Zm-.289,7.5a1.555,1.555,0,0,0,1.037-.374A1.3,1.3,0,0,0,28.56-2.72V-3.876a.06.06,0,0,0-.068-.068H27.455a1.57,1.57,0,0,0-1.088.365,1.353,1.353,0,0,0-.408,1.063,1.247,1.247,0,0,0,.306.918A1.1,1.1,0,0,0,27.081-1.292ZM34.272.1a3.037,3.037,0,0,1-2.014-.621,2.073,2.073,0,0,1-.74-1.675v-.153a.15.15,0,0,1,.17-.17H32.9a.15.15,0,0,1,.17.17v.119a.991.991,0,0,0,.357.774,1.289,1.289,0,0,0,.884.314,1.132,1.132,0,0,0,.825-.306,1.044,1.044,0,0,0,.314-.782.927.927,0,0,0-.221-.629,1.613,1.613,0,0,0-.518-.4q-.3-.144-.91-.4a8.433,8.433,0,0,1-1.1-.561A2.61,2.61,0,0,1,31.926-5a2.283,2.283,0,0,1-.34-1.292,2.292,2.292,0,0,1,.723-1.8,2.813,2.813,0,0,1,1.946-.646,2.818,2.818,0,0,1,1.98.663,2.325,2.325,0,0,1,.722,1.8v.051a.15.15,0,0,1-.17.17H35.615a.15.15,0,0,1-.17-.17v-.119a1.065,1.065,0,0,0-.323-.782,1.127,1.127,0,0,0-.833-.323,1.093,1.093,0,0,0-.833.323,1.1,1.1,0,0,0-.306.782.882.882,0,0,0,.2.6,1.561,1.561,0,0,0,.493.382q.289.145.918.417a9.828,9.828,0,0,1,1.156.586,2.673,2.673,0,0,1,.807.791A2.209,2.209,0,0,1,37.077-2.3,2.183,2.183,0,0,1,36.32-.544,3.05,3.05,0,0,1,34.272.1Zm9.673-3.927a.15.15,0,0,1-.17.17H39.933a.06.06,0,0,0-.068.068v.918a1.473,1.473,0,0,0,.34,1,1.116,1.116,0,0,0,.884.391,1.154,1.154,0,0,0,.8-.289,1.286,1.286,0,0,0,.408-.748.187.187,0,0,1,.187-.136l1.258.068a.156.156,0,0,1,.128.051.128.128,0,0,1,.025.119,2.531,2.531,0,0,1-.841,1.726,2.914,2.914,0,0,1-1.963.621A2.908,2.908,0,0,1,39.007-.6a2.563,2.563,0,0,1-.774-1.955V-6.086a2.6,2.6,0,0,1,.774-1.955,2.869,2.869,0,0,1,2.083-.748,2.862,2.862,0,0,1,2.091.748,2.612,2.612,0,0,1,.765,1.955ZM41.089-7.378a1.116,1.116,0,0,0-.884.391,1.473,1.473,0,0,0-.34,1v.9a.06.06,0,0,0,.068.068h2.329a.06.06,0,0,0,.068-.068v-.9a1.473,1.473,0,0,0-.34-1A1.135,1.135,0,0,0,41.089-7.378Zm7.667-1.411a2.251,2.251,0,0,1,1.768.722,2.864,2.864,0,0,1,.646,1.981V-2.55A2.829,2.829,0,0,1,50.515-.6a2.232,2.232,0,0,1-1.759.74,2.379,2.379,0,0,1-.825-.153,2.135,2.135,0,0,1-.739-.459q-.034-.034-.06-.017a.057.057,0,0,0-.026.051V-.17a.15.15,0,0,1-.17.17H45.645a.15.15,0,0,1-.17-.17V-11.73a.15.15,0,0,1,.17-.17h1.292a.15.15,0,0,1,.17.17v3.536a.04.04,0,0,0,.034.042q.034.009.068-.042A2.2,2.2,0,0,1,48.756-8.789Zm.8,2.8a1.451,1.451,0,0,0-.348-1,1.142,1.142,0,0,0-.893-.391,1.1,1.1,0,0,0-.867.391,1.473,1.473,0,0,0-.34,1v3.315a1.473,1.473,0,0,0,.34,1,1.1,1.1,0,0,0,.867.391,1.142,1.142,0,0,0,.893-.391,1.451,1.451,0,0,0,.348-1Zm8.806,2.159a.15.15,0,0,1-.17.17H54.349a.06.06,0,0,0-.068.068v.918a1.473,1.473,0,0,0,.34,1,1.116,1.116,0,0,0,.884.391,1.154,1.154,0,0,0,.8-.289,1.286,1.286,0,0,0,.408-.748.187.187,0,0,1,.187-.136l1.258.068a.156.156,0,0,1,.128.051.128.128,0,0,1,.025.119,2.531,2.531,0,0,1-.841,1.726,2.914,2.914,0,0,1-1.963.621A2.908,2.908,0,0,1,53.423-.6a2.563,2.563,0,0,1-.774-1.955V-6.086a2.6,2.6,0,0,1,.774-1.955,2.869,2.869,0,0,1,2.083-.748,2.862,2.862,0,0,1,2.091.748,2.612,2.612,0,0,1,.765,1.955ZM55.505-7.378a1.116,1.116,0,0,0-.884.391,1.473,1.473,0,0,0-.34,1v.9a.06.06,0,0,0,.068.068h2.329a.06.06,0,0,0,.068-.068v-.9a1.473,1.473,0,0,0-.34-1A1.135,1.135,0,0,0,55.505-7.378ZM71.247-.2a.139.139,0,0,1,.034.1.1.1,0,0,1-.034.068.139.139,0,0,1-.1.034H69.751a.309.309,0,0,1-.221-.1l-.578-.833a.064.064,0,0,0-.1,0,4.287,4.287,0,0,1-1.317.825,4.176,4.176,0,0,1-1.5.264,3.135,3.135,0,0,1-2.2-.74,2.748,2.748,0,0,1-.807-2.134,3.515,3.515,0,0,1,.527-1.963,6.628,6.628,0,0,1,1.445-1.539q.051-.017.017-.085-.6-.85-.876-1.335a3.6,3.6,0,0,1-.374-.833,3.056,3.056,0,0,1-.094-.79,2.74,2.74,0,0,1,.748-2.014,2.628,2.628,0,0,1,1.955-.757,2.748,2.748,0,0,1,2.006.765,2.7,2.7,0,0,1,.782,2.023,3.024,3.024,0,0,1-.535,1.793,7.411,7.411,0,0,1-1.487,1.5q-.051.017-.017.085l.816,1.156.986,1.343q.034.068.1,0a3.215,3.215,0,0,1,.187-.306q.408-.68.612-1.054a.152.152,0,0,1,.1-.085.192.192,0,0,1,.136.017l.952.544a.169.169,0,0,1,.068.238A17.783,17.783,0,0,1,69.9-2.125a.157.157,0,0,0,0,.1ZM66.419-10.557a1.017,1.017,0,0,0-.807.366,1.447,1.447,0,0,0-.314.977,2.026,2.026,0,0,0,.153.791,8.91,8.91,0,0,0,.7,1.2q.051.068.1.017A5.246,5.246,0,0,0,67.2-8.2a1.8,1.8,0,0,0,.323-1.045,1.42,1.42,0,0,0-.306-.943A.992.992,0,0,0,66.419-10.557Zm-.221,9.3a2.622,2.622,0,0,0,1.785-.867.074.074,0,0,0,.017-.1L65.977-4.964q-.034-.051-.085,0a5.107,5.107,0,0,0-.918,1.029,2.014,2.014,0,0,0-.323,1.114,1.6,1.6,0,0,0,.4,1.13A1.483,1.483,0,0,0,66.2-1.258Zm15.929-9.4a.15.15,0,0,1-.17.17H78.149a.06.06,0,0,0-.068.068v3.689a.06.06,0,0,0,.068.068h2.329a.15.15,0,0,1,.17.17v1.071a.15.15,0,0,1-.17.17H78.149a.06.06,0,0,0-.068.068V-.17a.15.15,0,0,1-.17.17H76.619a.15.15,0,0,1-.17-.17V-11.73a.15.15,0,0,1,.17-.17h5.338a.15.15,0,0,1,.17.17Zm2.023.646a1.059,1.059,0,0,1-.782-.306,1.059,1.059,0,0,1-.306-.782,1.059,1.059,0,0,1,.306-.782,1.059,1.059,0,0,1,.782-.306,1.068,1.068,0,0,1,.79.3,1.068,1.068,0,0,1,.3.79,1.059,1.059,0,0,1-.306.782A1.059,1.059,0,0,1,84.15-10.013ZM83.521,0a.15.15,0,0,1-.17-.17V-8.483a.15.15,0,0,1,.17-.17h1.292a.15.15,0,0,1,.17.17V-.17a.15.15,0,0,1-.17.17ZM90.3-8.772a1.965,1.965,0,0,1,1.641.722A3.24,3.24,0,0,1,92.514-6V-.17a.15.15,0,0,1-.17.17H91.052a.15.15,0,0,1-.17-.17v-5.7a1.756,1.756,0,0,0-.306-1.1,1.019,1.019,0,0,0-.85-.391,1.071,1.071,0,0,0-.876.383A1.8,1.8,0,0,0,88.5-5.9q0,.1-.017.1V-.17a.15.15,0,0,1-.17.17H87.023a.15.15,0,0,1-.17-.17V-8.483a.15.15,0,0,1,.17-.17h1.292a.15.15,0,0,1,.17.17v.459a.04.04,0,0,0,.034.042q.034.009.068-.042A2.094,2.094,0,0,1,90.3-8.772Zm6.681-.017a2.766,2.766,0,0,1,2.032.782,2.765,2.765,0,0,1,.791,2.057V-.17a.15.15,0,0,1-.17.17H98.345a.15.15,0,0,1-.17-.17V-.544A.057.057,0,0,0,98.15-.6q-.026-.017-.06.017a2.149,2.149,0,0,1-1.751.714,2.778,2.778,0,0,1-1.709-.553,2.3,2.3,0,0,1-.739-1.964,2.565,2.565,0,0,1,.892-2.168,3.722,3.722,0,0,1,2.338-.689h.986a.06.06,0,0,0,.068-.068V-5.8a1.807,1.807,0,0,0-.34-1.148,1.072,1.072,0,0,0-.884-.433.97.97,0,0,0-.714.289,1.211,1.211,0,0,0-.34.748.15.15,0,0,1-.17.17H94.35a.15.15,0,0,1-.17-.17,2.507,2.507,0,0,1,.867-1.768A2.849,2.849,0,0,1,96.985-8.789Zm-.289,7.5a1.555,1.555,0,0,0,1.037-.374,1.3,1.3,0,0,0,.442-1.054V-3.876a.06.06,0,0,0-.068-.068H97.07a1.57,1.57,0,0,0-1.088.365,1.353,1.353,0,0,0-.408,1.063,1.247,1.247,0,0,0,.306.918A1.1,1.1,0,0,0,96.7-1.292Zm8.177-7.48a1.965,1.965,0,0,1,1.641.722A3.24,3.24,0,0,1,107.083-6V-.17a.15.15,0,0,1-.17.17h-1.292a.15.15,0,0,1-.17-.17v-5.7a1.756,1.756,0,0,0-.306-1.1,1.019,1.019,0,0,0-.85-.391,1.071,1.071,0,0,0-.876.383,1.8,1.8,0,0,0-.349,1.08q0,.1-.017.1V-.17a.15.15,0,0,1-.17.17h-1.292a.15.15,0,0,1-.17-.17V-8.483a.15.15,0,0,1,.17-.17h1.292a.15.15,0,0,1,.17.17v.459a.04.04,0,0,0,.034.042q.034.009.068-.042A2.094,2.094,0,0,1,104.873-8.772ZM111.231.1a3.037,3.037,0,0,1-2.014-.621,2.073,2.073,0,0,1-.74-1.675v-.153a.15.15,0,0,1,.17-.17h1.207a.15.15,0,0,1,.17.17v.119a.991.991,0,0,0,.357.774,1.289,1.289,0,0,0,.884.314,1.132,1.132,0,0,0,.824-.306,1.044,1.044,0,0,0,.315-.782.927.927,0,0,0-.221-.629,1.613,1.613,0,0,0-.519-.4q-.3-.144-.91-.4a8.433,8.433,0,0,1-1.1-.561A2.611,2.611,0,0,1,108.885-5a2.283,2.283,0,0,1-.34-1.292,2.292,2.292,0,0,1,.722-1.8,2.813,2.813,0,0,1,1.947-.646,2.818,2.818,0,0,1,1.98.663,2.325,2.325,0,0,1,.723,1.8v.051a.15.15,0,0,1-.17.17h-1.173a.15.15,0,0,1-.17-.17v-.119a1.065,1.065,0,0,0-.323-.782,1.127,1.127,0,0,0-.833-.323,1.093,1.093,0,0,0-.833.323,1.1,1.1,0,0,0-.306.782.882.882,0,0,0,.2.6,1.561,1.561,0,0,0,.493.382q.289.145.918.417a9.828,9.828,0,0,1,1.156.586,2.673,2.673,0,0,1,.808.791,2.209,2.209,0,0,1,.348,1.275,2.183,2.183,0,0,1-.757,1.751A3.05,3.05,0,0,1,111.231.1Z" transform="translate(47 31)" fill="#fff"/>
      </g>
    </g>
    <g id="Mini_Circle-21" data-name="Mini_Circle" transform="translate(1023 1996.913) rotate(180)" clip-path="url(#clip-path-4)">
      <g id="Mini_Circle-22" data-name="Mini_Circle" transform="translate(-1049.042 -426.6)">
        <g id="Ellipse-37" data-name="Ellipse" transform="translate(1049.041 426.6)" fill="#314d6d" stroke="#546e89" stroke-miterlimit="10" stroke-width="1.5">
          <circle cx="5.5" cy="5.5" r="5.5" stroke="none"/>
          <circle cx="5.5" cy="5.5" r="4.75" fill="none"/>
        </g>
        <circle id="Ellipse-38" data-name="Ellipse" cx="2.5" cy="2.5" r="2.5" transform="translate(1052.042 429.599)" fill="#546e89"/>
      </g>
      <g id="Mini_Circle-23" data-name="Mini_Circle" transform="translate(-1049.042 -410.6)">
        <g id="Ellipse-39" data-name="Ellipse" transform="translate(1049.041 426.6)" fill="#314d6d" stroke="#546e89" stroke-miterlimit="10" stroke-width="1.5">
          <circle cx="5.5" cy="5.5" r="5.5" stroke="none"/>
          <circle cx="5.5" cy="5.5" r="4.75" fill="none"/>
        </g>
        <circle id="Ellipse-40" data-name="Ellipse" cx="2.5" cy="2.5" r="2.5" transform="translate(1052.042 429.599)" fill="#546e89"/>
      </g>
    </g>
    <g id="Mini_Circle-24" data-name="Mini_Circle" transform="translate(908 1996.913) rotate(180)" clip-path="url(#clip-path-4)">
      <g id="Mini_Circle-25" data-name="Mini_Circle" transform="translate(-1049.042 -426.6)">
        <g id="Ellipse-41" data-name="Ellipse" transform="translate(1049.041 426.6)" fill="#314d6d" stroke="#546e89" stroke-miterlimit="10" stroke-width="1.5">
          <circle cx="5.5" cy="5.5" r="5.5" stroke="none"/>
          <circle cx="5.5" cy="5.5" r="4.75" fill="none"/>
        </g>
        <circle id="Ellipse-42" data-name="Ellipse" cx="2.5" cy="2.5" r="2.5" transform="translate(1052.042 429.599)" fill="#546e89"/>
      </g>
      <g id="Mini_Circle-26" data-name="Mini_Circle" transform="translate(-1049.042 -410.6)">
        <g id="Ellipse-43" data-name="Ellipse" transform="translate(1049.041 426.6)" fill="#314d6d" stroke="#546e89" stroke-miterlimit="10" stroke-width="1.5">
          <circle cx="5.5" cy="5.5" r="5.5" stroke="none"/>
          <circle cx="5.5" cy="5.5" r="4.75" fill="none"/>
        </g>
        <circle id="Ellipse-44" data-name="Ellipse" cx="2.5" cy="2.5" r="2.5" transform="translate(1052.042 429.599)" fill="#546e89"/>
      </g>
    </g>
  </g>
</svg>
