<svg xmlns="http://www.w3.org/2000/svg" width="94" height="94" viewBox="0 0 94 94">
  <g id="Icon_02" transform="translate(-687.209 -385.668)">
    <circle id="Circle" cx="47" cy="47" r="47" transform="translate(687.209 385.668)" fill="#357ce1"/>
    <path id="Icon_02-2" data-name="Icon_02" d="M1335.5,1277.145a2.665,2.665,0,0,0-1.2-1.945l-.024-.017-.025-.015-.935-.555.238-.449a3.913,3.913,0,0,0-.188-3.938l-.036-.048-.04-.044-1.17-1.279-.068-.075-.079-.064a2.889,2.889,0,0,0-.779-.467,3.133,3.133,0,0,0-.8-2.974l-1.385-1.4-.035-.036-.038-.032a2.143,2.143,0,0,0-.969-.5,3.062,3.062,0,0,0-.857-2.5l-1.378-1.558-.067-.077-.078-.066a2.123,2.123,0,0,0-.867-.445,3.125,3.125,0,0,0-.84-2.962l-1.4-1.374-.027-.026-.029-.026a2.266,2.266,0,0,0-1.2-.532l.04-11.054a1.045,1.045,0,0,0-.99-1.048h-.024a1.045,1.045,0,0,0-1.1,1.046l.025,11.531-11.409,19.549,0,0h0l-.209.562a2.432,2.432,0,0,0-.049.424c0,.051,0,.1,0,.147,0,.11.01.214.022.306.007.064.015.117.025.173a2.83,2.83,0,0,0,.063.28h0l.033.1c.031.1.063.2.093.3.078.248.16.492.251.756l.034.1c.039.113.08.228.125.351.006.017.017.033.023.05a2.034,2.034,0,0,0,.2.373,2.112,2.112,0,0,0,.741.7h0l.585.319.318.175,1.089.6.064.035,1.242.684a1.259,1.259,0,0,1,.613.715,1.076,1.076,0,0,1-.072.858l-.611,1.168-.427.815a1.077,1.077,0,0,1-.672.524h0a1.2,1.2,0,0,1-.316.042,1.292,1.292,0,0,1-.61-.158l-5.222-2.845-.028-.015c-.055-.031-.106-.059-.156-.09l-.023-.017a1.262,1.262,0,0,1-.116-.084,1.083,1.083,0,0,1-.09-.086c-.017-.018-.035-.032-.052-.051a1.913,1.913,0,0,1-.148-.2l0,0c-.117-.178-.238-.371-.364-.574-.082-.133-.168-.272-.256-.419-.132-.218-.269-.446-.421-.7l-.18-.3-.081-.134-.082-.138-1.3-2.173a2.942,2.942,0,0,1-.2-3.265c.122-.3.344-.846.619-1.526.8-1.974,2.139-5.279,2.748-6.7l-.021-9.032a.953.953,0,0,0-.951-.95h0a.952.952,0,0,0-.954.955l.021,8.612c-.655,1.548-1.889,4.6-2.645,6.459-.275.679-.495,1.223-.617,1.521a4.284,4.284,0,0,0,.309,4.324l.1,2.676a5.176,5.176,0,0,0,.533,2.324l5.434,9.386-.034,15.076a.969.969,0,0,0,.706.937l.021.006a.973.973,0,0,0,1.237-.938l-.045-15.068a2.438,2.438,0,0,0-.279-.929c-.761-1.339-3.013-5.095-4.358-7.339-.578-.965-1.036-1.727-1.123-1.877a3.85,3.85,0,0,1-.346-1.662l.288.479c.315.526.579.967.828,1.363.083.132.164.259.246.382a2.771,2.771,0,0,0,1.088.986l5.253,2.862a2.686,2.686,0,0,0,1.277.327,2.608,2.608,0,0,0,.68-.09,2.463,2.463,0,0,0,1.545-1.212l1.046-2a2.4,2.4,0,0,0,.282-.946,2.535,2.535,0,0,0-.12-1,2.623,2.623,0,0,0-.844-1.223,2.764,2.764,0,0,0-.423-.283l-.038-.021-.254-.14-.2-.109-1.077-.591-1.345-.739-.4-.219a.748.748,0,0,1-.306-.359c-.107-.292-.194-.548-.277-.8s-.158-.487-.238-.746a1.5,1.5,0,0,1-.054-.41.733.733,0,0,1,.05-.325c.023-.036.828-1.336,2.014-3.251l.249-.4c1.237-2,2.826-4.567,4.372-7.07l.084-.135.457-.74.085-.138.951-1.54.075-.121.421-.683.077-.124.322-.523.167-.271c.127-.207.251-.408.374-.606l.056-.092.3-.486.164-.267.255-.415.15-.246.143-.234.234-.38.129-.21.178-.292.107-.173.192-.316.038-.064.188-.308.035-.057.154-.256,0,0a.91.91,0,0,1,.582.215l1.428,1.4.016.015a1.789,1.789,0,0,1,.252,2.042l-1.293,2.283-4.017,6.957a.7.7,0,1,0,1.213.7l5.03-8.711a.788.788,0,0,1,.1-.008.69.69,0,0,1,.454.172l1.407,1.592.041.041c.57.548.8,1.126.342,1.762l-3.672,6.359a.7.7,0,0,0,1.214.7l3.438-5.956s.06-.008.09-.008a.715.715,0,0,1,.471.193l1.4,1.41.021.021a1.2,1.2,0,0,1,.242,1.765l-2.286,3.958a.689.689,0,0,0-.014.646.5.5,0,0,0,.232.312.489.489,0,0,0,.234.064.694.694,0,0,0,.761-.322l1.849-3.2a.221.221,0,0,1,.037,0,1.058,1.058,0,0,1,.6.288l1.17,1.279a2.56,2.56,0,0,1,.061,2.426l-.265.5a2.64,2.64,0,0,0-.623-.08h-.008a2.634,2.634,0,0,0-.486.045,2.465,2.465,0,0,0-1.633,1.092l-1.01,1.62a1.879,1.879,0,0,0-.082.17,2.147,2.147,0,0,0-.1.208,2.339,2.339,0,0,0-.082.239c-.02.067-.034.137-.047.206s-.037.131-.045.2l.008,0a2.577,2.577,0,0,0-.014.382c-.063,0-.124-.014-.187-.014h-.008a2.646,2.646,0,0,0-.486.046,2.461,2.461,0,0,0-1.632,1.092l-1.067,1.607a2.478,2.478,0,0,0-.383,1.589s.008.006.009.009a2.605,2.605,0,0,0,.784,1.6,2.54,2.54,0,0,0-.265.179h-.009c-.018.012-.032.027-.049.038a2.513,2.513,0,0,0-.272.215,2.031,2.031,0,0,0-.364.414l-1.071,1.606a2.489,2.489,0,0,0-.385,1.591,2.629,2.629,0,0,0,1.211,1.956l.138.091a2.429,2.429,0,0,0-.768.722l-.027.041-.024.043-.935,1.658a2.437,2.437,0,0,0-.351,1.538,2.623,2.623,0,0,0,1.17,1.929l.038.031.064.051.065.04v4.67a.7.7,0,0,0,1.4,0v-4.266l.016,0a2.593,2.593,0,0,0,.487-.046,2.465,2.465,0,0,0,1.615-1.066l.026-.04.024-.043.936-1.658a2.446,2.446,0,0,0,.351-1.538,2.487,2.487,0,0,0-.157-.637,2.439,2.439,0,0,0,1.353-1.01l1.07-1.606a2.484,2.484,0,0,0,.385-1.591,2.6,2.6,0,0,0-.3-.941,2.441,2.441,0,0,0,1.316-1l1.066-1.607a2.48,2.48,0,0,0,.384-1.59,2.572,2.572,0,0,0-.265-.874,2.439,2.439,0,0,0,1.28-.988l1.01-1.62A2.444,2.444,0,0,0,1335.5,1277.145ZM1326.425,1293l-.952,1.686a1.078,1.078,0,0,1-.707.461,1.221,1.221,0,0,1-.225.021,1.266,1.266,0,0,1-.667-.192l-.07-.056-.04-.029a1.237,1.237,0,0,1-.575-.915,1.059,1.059,0,0,1,.162-.684l.951-1.686a1.168,1.168,0,0,1,.15-.173,1.427,1.427,0,0,1,.176-.129l.11-.068a1.162,1.162,0,0,1,.5-.112,1.259,1.259,0,0,1,.26.036l.626.327a1.238,1.238,0,0,1,.468.829A1.059,1.059,0,0,1,1326.425,1293Zm2.656-4.852-1.083,1.626a1.074,1.074,0,0,1-.714.473,1.057,1.057,0,0,1-.5-.019l-.01-.008-.064-.051-.071-.044a2.678,2.678,0,0,0-.519-.23l-1.6-1.053a1.235,1.235,0,0,1-.574-.915,1.053,1.053,0,0,1,.157-.676l1.083-1.626a1.03,1.03,0,0,1,.188-.19c.031-.024.057-.048.094-.074l.132-.088a1.106,1.106,0,0,1,.3-.121,1.221,1.221,0,0,1,.225-.021,1.264,1.264,0,0,1,.682.2l1.857,1.224a1.234,1.234,0,0,1,.574.916A1.049,1.049,0,0,1,1329.081,1288.146Zm2.469-5.135-1.077,1.624a1.073,1.073,0,0,1-.714.473,1.223,1.223,0,0,1-.226.021,1.267,1.267,0,0,1-.687-.205l-2.7-1.738a1.239,1.239,0,0,1-.575-.916,1.053,1.053,0,0,1,.157-.676l1.077-1.624a1.075,1.075,0,0,1,.714-.473,1.208,1.208,0,0,1,.225-.021,1.268,1.268,0,0,1,.687.205l.206.133c.035.033.077.058.113.088l.009.01.019.012a2.177,2.177,0,0,0,.193.149l.546.325.562.362.021.013.021.012.374.222.642.412a1.237,1.237,0,0,1,.574.916A1.054,1.054,0,0,1,1331.55,1283.011Zm2.386-5.039-1,1.6a1.075,1.075,0,0,1-.715.473,1.224,1.224,0,0,1-.225.021,1.267,1.267,0,0,1-.686-.205l-.083-.05-.563-.361-.021-.013-.021-.013-.374-.221-.594-.382a1.215,1.215,0,0,1-.332-.714,1.085,1.085,0,0,1,.02-.3.949.949,0,0,1,.081-.237,1.1,1.1,0,0,1,.063-.15l1-1.6a1.075,1.075,0,0,1,.714-.473,1.163,1.163,0,0,1,.219-.021,1.217,1.217,0,0,1,.179.025,1.048,1.048,0,0,1,.121.018l.088.022a1.34,1.34,0,0,1,.3.14l1.42.844a1.254,1.254,0,0,1,.568.911A1.061,1.061,0,0,1,1333.936,1277.972Z" transform="translate(-583.246 -841.78)" fill="#fff"/>
  </g>
</svg>
